<svg width="70" height="52" fill="none" xmlns="http://www.w3.org/2000/svg"><path d="M10.334 17.83l-.161.085-.778.413C4.325 21.021 1.044 25.756.29 31.465c-.099.745-.145 3.01-.14 5.146a91.11 91.11 0 00.043 2.88c.014.394.03.725.05.968.009.122.02.22.03.292.005.036.01.064.015.083.003.016.006.023.006.023h0c.088.163.13.242.23.306.11.068.3.124.708.163.797.076 2.318.077 5.388.079h.183l6.05.004h.149v.15l.004 4.842c.003 2.553.004 3.815.082 4.482.04.334.095.493.162.588.063.09.144.137.298.219a2.035 2.035 0 00.115.011c.09.006.218.013.384.019.331.012.805.024 1.402.034 1.194.022 2.877.04 4.886.053 4.019.029 9.341.043 14.664.043s10.645-.014 14.664-.043c2.01-.014 3.692-.031 4.886-.053.597-.01 1.071-.022 1.402-.034a11.942 11.942 0 00.485-.028l.014-.002c.154-.082.235-.13.298-.219.067-.095.123-.254.162-.588.078-.667.08-1.929.082-4.482l.004-4.842v-.15h.15l6.05-.004h.182c3.07-.002 4.591-.003 5.388-.079.408-.039.599-.095.707-.163.1-.064.143-.143.23-.305l.001-.002.002-.004a4.533 4.533 0 00.05-.391c.02-.242.036-.57.05-.962.026-.782.04-1.806.043-2.869.004-2.13-.043-4.397-.142-5.178-.698-5.517-4.046-10.405-8.918-13.024l-.96-.517-.16-.085.114-.141.75-.927.117.094-.117-.094C65.726 10.344 61.584.877 53.269.18c-1.166-.097-2.908.123-4.071.517-1.217.411-1.985.838-2.337 1.255-.172.204-.235.394-.218.576.018.184.123.388.346.608.226.225.391.318.568.333.184.015.412-.053.772-.235 2.686-1.357 5.35-1.428 7.864-.197l-.066.135.066-.135c4.189 2.05 5.808 7.157 3.578 11.277-.93 1.717-2.703 3.2-4.6 3.847-.783.268-1.234.32-2.604.318-.903-.002-1.97-.055-2.37-.12-.337-.056-.489-.07-.597-.047-.094.021-.168.075-.333.24a.932.932 0 00-.31.723c0 .198.036.352.11.479.072.126.19.237.378.337.383.203 1.024.341 2.054.455 1.739.194 3.216-.066 5.616-1.003l.639-.249.056-.022.056.024.882.37-.059.139.059-.138c2.202.927 4.755 2.993 6.215 5.026l-.122.088.122-.088c.766 1.068 1.618 2.718 2.025 3.923.325.963.508 1.602.617 2.52.108.913.144 2.1.179 4.157l.067 3.961.003.153h-5.498c-1.47 0-2.808-.013-3.779-.035a40.34 40.34 0 01-1.152-.037 6.285 6.285 0 01-.321-.023.989.989 0 01-.097-.014.266.266 0 01-.049-.015.154.154 0 01-.098-.144c0-.061-.025-.248-.07-.522a37.802 37.802 0 00-.173-.95c-.136-.697-.293-1.43-.385-1.755-1.126-3.962-3.077-7.194-6.064-10.044-1.431-1.365-3.773-3.03-5.271-3.752l.065-.135-.065.135-.77-.37-.17-.082.117-.148.867-1.086.118.094-.118-.094c2.042-2.557 3.029-5.989 2.637-9.158-.425-3.43-2.15-6.446-4.876-8.527l.09-.119-.09.12C35.76-2.553 25.56.65 22.918 8.955c-1.247 3.918-.44 8.24 2.142 11.476l.87 1.089.118.148-.173.081-.498.233c-.267.125-1.008.536-1.647.914M10.334 17.83l13.32 4.938m-13.32-4.939l-.115-.141-.752-.928C7.22 13.983 6.585 10.412 7.74 7.051 8.96 3.494 12.326.741 16.087.227l-.02-.149.02.149c1.407-.193 3.143-.022 4.65.462l.046-.143-.046.143c1.235.396 2.023.822 2.389 1.244.178.206.247.4.231.585-.015.187-.12.394-.345.617-.223.222-.404.319-.597.333-.199.016-.44-.055-.788-.24a10.187 10.187 0 00-2.791-.949c-4.933-.874-9.575 2.995-9.59 7.994-.008 2.897 1.263 5.336 3.593 6.88.777.514 1.422.849 2.13 1.053.706.203 1.465.274 2.465.272.903-.002 1.97-.055 2.37-.12.337-.056.489-.07.597-.047.094.021.168.075.334.24m-10.4-.723l10.4.722m2.995 4.346l-.076-.129m.077.13s0 0 0 0l-.077-.13m.077.13c-3.819 2.26-6.708 5.42-8.626 9.432-.878 1.837-1.335 3.253-1.724 5.343l-.3 1.611-.022.123H2.176v-.15l.001-3.352c0-2.46.08-4.11.348-5.505.27-1.4.729-2.536 1.481-3.974 1.602-3.06 4.558-5.74 7.592-6.874l.643-.24.054-.02.054.02 1.202.478-.055.14m10.157 2.838c-3.844 2.276-6.754 5.458-8.684 9.497-.885 1.85-1.345 3.278-1.736 5.38l-.3 1.612H2.476v0h-.15v-.15l.001-3.202c.001-4.92.315-6.55 1.812-9.41 1.586-3.03 4.515-5.682 7.511-6.803l.643-.24 1.203.478m0 0l.055-.14m-.055.14c1.528.607 2.466.792 4.005.792 1.885 0 3.403-.38 3.606-.905.187-.482.08-1.028-.268-1.372m4.973 3.17l-.117.093-.023-.028.14-.066zm0 0l-.064-.137-.032.016.096.12zm-12.26-1.825l8.004-16.428a10.038 10.038 0 00-2.747-.934c-4.842-.858-9.4 2.94-9.414 7.847-.008 2.849 1.24 5.239 3.526 6.754 1.54 1.02 2.524 1.303 4.512 1.3.902-.002 1.958-.055 2.346-.119.655-.107.733-.09 1.06.235m-7.288 1.345c1.512.6 2.431.782 3.95.782.934 0 1.772-.094 2.397-.251.314-.079.568-.172.753-.273.19-.104.285-.204.317-.286.166-.429.068-.911-.235-1.21m-7.182 1.238l7.182-1.239m.106-.106l-.105.106m.105-.106l-.105.106s0 0 0 0m4.064-8.793l.143.043-.143-.043c-.506 1.684-.542 4.005-.084 5.608.87 3.052 2.835 5.409 5.641 6.764 1.617.782 2.823 1.055 4.645 1.055 1.759 0 2.971-.262 4.492-.974 2.859-1.337 4.915-3.762 5.789-6.824.463-1.626.43-3.935-.078-5.63l-.144.044.144-.043c-.526-1.749-1.329-3.086-2.646-4.408-1.667-1.674-3.657-2.71-5.906-3.07-5.203-.837-10.327 2.397-11.853 7.478zm17.394 13.387l-.065-.027-.062.032-1.302.68c-1.919 1-3.465 1.367-5.763 1.363-2.31-.004-3.861-.372-5.77-1.367a107.81 107.81 0 00-1.23-.63 4.378 4.378 0 00-.114-.055l-.007-.003-.008-.003a.17.17 0 00-.014-.004h0a.155.155 0 00-.039-.005.14.14 0 00-.042.006h0a.17.17 0 00-.028.01 176.253 176.253 0 00-1.72.849c-6.073 3.05-9.973 8.525-10.85 15.234-.085.641-.151 3.244-.151 5.81v4.8h39.969v-.151l-.052-5.316c-.025-2.623-.039-3.962-.094-4.845-.055-.89-.153-1.323-.342-2.129l-.146.035.146-.035c-1.31-5.585-4.677-10.136-9.568-12.927-.63-.36-1.507-.805-1.952-.99l-.796-.332z" fill="#fff" stroke="#212121" stroke-width=".3"/></svg>