<svg width="76" height="78" fill="none" xmlns="http://www.w3.org/2000/svg"><path d="M60.14 40.034v.156l.059.144 4.54 11.209.202.5h5.043v2.97h-4.56V77.2H53.355v-9.14h-30.72v9.14H10.568V55.013h-4.56v-2.97h5.044l.203-.5 4.547-11.21.059-.144V22.668l-.48-.21-4.561-1.993-1.12-.49v12.561H6.745V18.684l-.48-.21-4.268-1.865L38 .873 74.002 16.61 60.62 22.46l-.48.209v17.366zM38.32 4.252l-.32-.14-.32.14-26.596 11.624-1.677.733 1.677.733L37.68 28.967l.32.14.32-.14 26.596-11.625 1.677-.733-1.677-.733L38.32 4.252zm18.866 20.93v-1.223l-1.12.49L38 32.345 19.934 24.45l-1.12-.49v15.037h38.372V25.181zM18.868 41.965h-.539l-.202.5-3.44 8.477-.446 1.1h47.51l-.445-1.1-3.434-8.477-.202-.5H18.868zm.014 32.265h.8v-6.17H13.52v6.17h5.36zm42.788 0h.8v-6.17h-6.16v6.17h5.36zm0-9.14h.8V55.013H13.52V65.09h48.15z" fill="#fff" stroke="#212121" stroke-width="1.6"/></svg>