<svg width="65" height="65" fill="none" xmlns="http://www.w3.org/2000/svg"><mask id="a" fill="#fff"><path fill-rule="evenodd" clip-rule="evenodd" d="M17.743 5.79l-.033 5.789-1.016.341c-1.944.654-3.555 1.804-4.647 3.316-.327.453-3.171 5.293-6.32 10.756L0 35.924V65h17.139v-9.522H47.86V65H65V35.923l-5.726-9.932c-3.15-5.462-5.994-10.302-6.32-10.755-1.093-1.512-2.705-2.662-4.648-3.316l-1.016-.341-.033-5.79L47.224 0H17.776l-.033 5.79zm9.044 1.827v3.809h-5.205V3.809h5.205v3.808zm16.631 0v3.809H30.596V3.809h12.822v3.808zm3.36 7.812c.41.107 1.027.347 1.369.533 1.303.71 1.73 1.347 6.826 10.19l4.792 8.316-13.633.032c-7.497.018-19.766.018-27.264 0l-13.633-.032 4.792-8.316c5.099-8.85 5.52-9.48 6.83-10.192 1.346-.733.819-.708 15.585-.717 11.817-.008 13.686.017 14.336.186zm-31.48 24.907a522.62 522.62 0 011.628 2.853l.486.864H3.809V38.34l5.173.003 5.173.003 1.143 1.99zm30.865-1.457l-1.64 2.825-1.325 2.285H21.802l-1.326-2.285-1.639-2.825-.313-.54h27.951l-.312.54zm15.028 2.317v2.857H47.588l.486-.862c.267-.474 1-1.759 1.628-2.855l1.143-1.994h5.173l5.173-.002v2.856zm0 8.57v1.904H3.81v-3.81h57.38v1.905zm-47.86 8.569v2.856H3.808v-5.713h9.521v2.857zm47.86 0v2.856H51.67v-5.713h9.521v2.857z"/></mask><path fill-rule="evenodd" clip-rule="evenodd" d="M17.743 5.79l-.033 5.789-1.016.341c-1.944.654-3.555 1.804-4.647 3.316-.327.453-3.171 5.293-6.32 10.756L0 35.924V65h17.139v-9.522H47.86V65H65V35.923l-5.726-9.932c-3.15-5.462-5.994-10.302-6.32-10.755-1.093-1.512-2.705-2.662-4.648-3.316l-1.016-.341-.033-5.79L47.224 0H17.776l-.033 5.79zm9.044 1.827v3.809h-5.205V3.809h5.205v3.808zm16.631 0v3.809H30.596V3.809h12.822v3.808zm3.36 7.812c.41.107 1.027.347 1.369.533 1.303.71 1.73 1.347 6.826 10.19l4.792 8.316-13.633.032c-7.497.018-19.766.018-27.264 0l-13.633-.032 4.792-8.316c5.099-8.85 5.52-9.48 6.83-10.192 1.346-.733.819-.708 15.585-.717 11.817-.008 13.686.017 14.336.186zm-31.48 24.907a522.62 522.62 0 011.628 2.853l.486.864H3.809V38.34l5.173.003 5.173.003 1.143 1.99zm30.865-1.457l-1.64 2.825-1.325 2.285H21.802l-1.326-2.285-1.639-2.825-.313-.54h27.951l-.312.54zm15.028 2.317v2.857H47.588l.486-.862c.267-.474 1-1.759 1.628-2.855l1.143-1.994h5.173l5.173-.002v2.856zm0 8.57v1.904H3.81v-3.81h57.38v1.905zm-47.86 8.569v2.856H3.808v-5.713h9.521v2.857zm47.86 0v2.856H51.67v-5.713h9.521v2.857z" fill="#fff" stroke="#212121" stroke-width="2.4" mask="url(#a)"/></svg>