<svg width="81" height="53" fill="none" xmlns="http://www.w3.org/2000/svg"><path d="M75.893 48.712h.75V4.523H3.993v44.19h71.9zm3.993 3.244H.75V1.279h79.136v50.677z" fill="#fff" stroke="#212121" stroke-width="1.5"/><path d="M24.065 20.945l-.46.601.605.455a8.728 8.728 0 013.5 6.988v3.994H10.237v-3.994a8.728 8.728 0 013.5-6.988l.605-.455-.46-.6c-3.136-4.099-.121-10.207 5.087-10.18v0h.008c5.21-.027 8.223 6.08 5.088 10.18zm-5.06-6.935h-.032a3.124 3.124 0 00-3.121 3.12c0 1.723 1.4 3.123 3.121 3.123h.016l.015-.001c4.104-.17 4.106-6.072 0-6.242zM13.48 28.958l-.033.781h11.05l-.032-.78c-.298-7.246-10.684-7.256-10.985 0zm48.183 4.025h-.75v6.243h6.243v-6.243h-5.493zm8.737-3.244v12.73H57.67V29.74H70.4zM36.325 10.766H70.4v3.243H36.325v-3.243zm0 9.486H70.4v3.244H36.325v-3.244zm0 9.488h15.102v3.243H36.325v-3.244zm0 9.486h15.102v3.243H36.325v-3.243zm-26.088 0h19.845v3.243H10.237v-3.243z" fill="#fff" stroke="#212121" stroke-width="1.5"/></svg>