<svg width="112" height="112" viewBox="0 0 112 112" fill="none" xmlns="http://www.w3.org/2000/svg">
<path d="M56 63C71.464 63 84 50.464 84 35C84 19.536 71.464 7 56 7C40.536 7 28 19.536 28 35C28 50.464 40.536 63 56 63Z" stroke="#60A5AC" stroke-width="10" stroke-linecap="round" stroke-linejoin="round"/>
<path d="M31.4234 49.8359L10.5 87.5003L29.5006 87.4084C30.1094 87.4054 30.7085 87.5611 31.2386 87.8604C31.7688 88.1596 32.2118 88.5919 32.5237 89.1147L42 105L61.3222 62.4928" stroke="#60A5AC" stroke-width="10" stroke-linecap="round" stroke-linejoin="round"/>
<path d="M80.1806 49L101.5 87.5L82.4994 87.4081C81.8906 87.405 81.2915 87.5608 80.7614 87.86C80.2312 88.1593 79.7882 88.5916 79.4763 89.1144L70 105L56 74.2" stroke="#60A5AC" stroke-width="10" stroke-linecap="round" stroke-linejoin="round"/>
<path d="M56 49C63.732 49 70 42.732 70 35C70 27.268 63.732 21 56 21C48.268 21 42 27.268 42 35C42 42.732 48.268 49 56 49Z" stroke="#60A5AC" stroke-width="10" stroke-linecap="round" stroke-linejoin="round"/>
</svg>
