<svg width="96" height="107" viewBox="0 0 96 107" fill="none" xmlns="http://www.w3.org/2000/svg">
<path d="M47.9688 49.0625V29.5312" stroke="#60A5AC" stroke-width="10" stroke-linecap="round" stroke-linejoin="round"/>
<path d="M17.6953 22.6484L14.7656 19.7188M47.9688 11.9062V8V11.9062Z" stroke="#60A5AC" stroke-width="15" stroke-linecap="round" stroke-linejoin="round"/>
<path d="M47.9688 66.6406C52.2835 66.6406 55.7812 63.1428 55.7812 58.8281C55.7812 54.5134 52.2835 51.0156 47.9688 51.0156C43.654 51.0156 40.1562 54.5134 40.1562 58.8281C40.1562 63.1428 43.654 66.6406 47.9688 66.6406Z" stroke="#60A5AC" stroke-width="10" stroke-miterlimit="10"/>
<path d="M47.9688 15.8594C39.4704 15.8594 31.1628 18.3794 24.0966 23.1009C17.0304 27.8224 11.523 34.5332 8.27082 42.3847C5.01862 50.2362 4.16769 58.8758 5.82565 67.2109C7.48361 75.546 11.576 83.2023 17.5853 89.2116C23.5946 95.2209 31.2509 99.3133 39.586 100.971C47.9211 102.629 56.5607 101.778 64.4122 98.5261C72.2637 95.2739 78.9745 89.7665 83.696 82.7003C88.4175 75.6341 90.9375 67.3265 90.9375 58.8281C90.9375 47.4321 86.4105 36.5028 78.3523 28.4446C70.2941 20.3864 59.3648 15.8594 47.9688 15.8594Z" stroke="#60A5AC" stroke-width="10" stroke-miterlimit="10"/>
</svg>
