<svg width="92" height="99" viewBox="0 0 92 99" fill="none" xmlns="http://www.w3.org/2000/svg">
<path d="M45.875 39.2812C68.4496 39.2812 86.75 31.6561 86.75 22.25C86.75 12.8439 68.4496 5.21875 45.875 5.21875C23.3004 5.21875 5 12.8439 5 22.25C5 31.6561 23.3004 39.2812 45.875 39.2812Z" stroke="#60A5AC" stroke-width="10" stroke-miterlimit="10" stroke-linecap="round"/>
<path d="M86.75 58.8672C86.75 68.2727 68.4414 75.8984 45.875 75.8984C23.3086 75.8984 5 68.2727 5 58.8672M86.75 40.5586C86.75 49.9641 68.4414 57.5898 45.875 57.5898C23.3086 57.5898 5 49.9641 5 40.5586H86.75Z" stroke="#60A5AC" stroke-width="10" stroke-miterlimit="10" stroke-linecap="round"/>
<path d="M5 22.0879V76.9115C5 86.2276 23.3086 93.7809 45.875 93.7809C68.4414 93.7809 86.75 86.2276 86.75 76.9115V22.0879" stroke="#60A5AC" stroke-width="10" stroke-miterlimit="10" stroke-linecap="round"/>
</svg>
