<svg width="136" height="47" fill="none" xmlns="http://www.w3.org/2000/svg"><path d="M12.189 36.093c.112.042.224.07.35.112 1.58-3.83 3.089-7.674 4.18-11.7 1.341 2.335 3.41 3.593 6.038 4.082-2.656 3.495-5.717 6.5-9.422 8.848.042.112.07.21.112.35.238-.098.447-.196.657-.294 1.761-.852 3.34-1.985 4.823-3.257 2.152-1.845 4.067-3.942 5.829-6.15.056-.084.125-.154.195-.252.112.084.224.168.364.28-.322.503-.63 1.006-.965 1.496-1.733 2.628-3.718 5.046-6.122 7.1-2.447 2.097-5.172 3.649-8.331 4.418-.266.07-.42 0-.588-.196-2.04-2.334-3.354-5.032-4.165-7.996-.587-2.138-.895-4.333-1.007-6.541a37.192 37.192 0 01.042-4.67c0-.083.014-.181.014-.279.154 0 .28-.014.434-.014.042.56.07 1.09.125 1.636.336 3.718.951 7.366 2.419 10.833.251.573.545 1.132.838 1.691.098.196.224.378.35.587.098-.07.182-.14.293-.21-1.69-4.039-2.46-8.274-2.641-12.664 2.404 1.09 4.808 1.272 7.282.112-1.411 3.914-2.39 7.926-3.299 11.966.126.042.224.07.35.125 1.607-4.934 3.313-9.813 5.396-14.565.14.042.265.084.405.14-1.034 5.074-2.432 10.036-3.956 15.012zm21.905-16.215c-.112.042-.224.07-.35.112-1.58-3.83-3.09-7.674-4.18-11.7-1.341 2.335-3.41 3.593-6.038 4.082 2.656 3.495 5.717 6.5 9.421 8.848-.042.112-.07.21-.111.35a15.156 15.156 0 01-.657-.294c-1.762-.852-3.341-1.985-4.823-3.257-2.153-1.845-4.068-3.942-5.83-6.15-.055-.084-.125-.154-.195-.252-.112.084-.223.168-.363.28.321.503.629 1.006.964 1.495 1.734 2.628 3.719 5.047 6.123 7.102 2.446 2.096 5.172 3.648 8.331 4.417.266.07.42 0 .587-.196 2.041-2.334 3.355-5.032 4.166-7.996.587-2.138.894-4.333 1.006-6.542.084-1.551.07-3.103-.042-4.668 0-.084-.014-.182-.014-.28-.154 0-.28-.014-.433-.014-.042.56-.07 1.09-.126 1.636-.335 3.718-.95 7.366-2.418 10.833a27.098 27.098 0 01-.839 1.691c-.098.196-.224.378-.35.587-.097-.07-.181-.14-.293-.21 1.691-4.04 2.46-8.275 2.642-12.664-2.404 1.09-4.808 1.272-7.283.112 1.412 3.914 2.39 7.926 3.3 11.966-.127.041-.224.07-.35.125-1.608-4.934-3.313-9.813-5.396-14.565-.14.042-.265.084-.405.14 1.034 5.088 2.432 10.05 3.956 15.012zM62 21.397c0-.548.11-1.04.301-1.48.192-.41.439-.766.767-1.068.302-.274.658-.465 1.042-.63A3.573 3.573 0 0165.288 18c.41 0 .794.082 1.178.22.383.136.74.355 1.068.63.302.273.548.63.74 1.068.192.41.301.904.301 1.48v.684H66.63v-.685c0-.465-.137-.822-.383-1.04a1.434 1.434 0 00-.932-.33c-.356 0-.685.11-.931.33-.274.218-.384.575-.384 1.04v7.26c0 .466.137.822.384 1.042.273.219.575.328.931.328.356 0 .685-.11.932-.328.273-.22.383-.576.383-1.042v-2.602h-1.56v-1.726h3.534v4.328c0 .576-.11 1.069-.302 1.48-.191.41-.438.74-.74 1.014a3.542 3.542 0 01-1.068.63 3.573 3.573 0 01-1.178.219c-.41 0-.794-.082-1.178-.22a3.12 3.12 0 01-1.041-.63 2.842 2.842 0 01-.767-1.013c-.192-.411-.302-.904-.302-1.48v-7.26H62zm8.22 0c0-.548.109-1.04.3-1.48.192-.41.439-.766.768-1.068.301-.274.657-.465 1.04-.63A3.583 3.583 0 0173.507 18c.41 0 .794.082 1.178.22.384.136.74.355 1.069.63.3.273.547.63.74 1.068.191.41.3.904.3 1.48v7.26c0 .575-.109 1.068-.3 1.479a3.13 3.13 0 01-.74 1.014 3.541 3.541 0 01-1.069.63 3.577 3.577 0 01-1.178.219c-.411 0-.795-.082-1.178-.22a3.12 3.12 0 01-1.041-.63 2.843 2.843 0 01-.767-1.013c-.192-.41-.302-.904-.302-1.48v-7.26zm1.972 7.233c0 .466.137.822.383 1.041.274.22.576.329.932.329.356 0 .685-.11.931-.329.274-.219.384-.575.384-1.04v-7.234c0-.465-.137-.822-.384-1.04a1.434 1.434 0 00-.931-.33c-.356 0-.685.11-.932.33-.274.218-.383.575-.383 1.04v7.233zm6.247-7.233c0-.548.11-1.04.3-1.48.193-.41.44-.766.768-1.068.301-.274.657-.465 1.041-.63A3.582 3.582 0 0181.726 18c.411 0 .795.082 1.178.22.384.136.74.355 1.069.63.301.273.548.63.74 1.068.191.41.3.904.3 1.48v7.26c0 .575-.109 1.068-.3 1.479a3.14 3.14 0 01-.74 1.014 3.54 3.54 0 01-1.069.63 3.573 3.573 0 01-1.178.219c-.41 0-.794-.082-1.178-.22a3.117 3.117 0 01-1.041-.63 2.842 2.842 0 01-.767-1.013c-.192-.41-.301-.904-.301-1.48v-7.26zm1.972 7.233c0 .466.137.822.384 1.041.274.22.575.329.931.329.356 0 .685-.11.932-.329.274-.219.383-.575.383-1.04v-7.234c0-.465-.137-.822-.383-1.04a1.434 1.434 0 00-.932-.33c-.356 0-.685.11-.931.33-.274.218-.384.575-.384 1.04v7.233zm12.712-6.52H91.15v-.439c0-.438-.11-.85-.328-1.178-.22-.329-.576-.493-1.069-.493-.274 0-.493.055-.657.164-.165.11-.302.22-.411.384-.11.164-.165.356-.22.575-.054.22-.054.439-.054.658 0 .274 0 .493.027.685.028.192.055.328.137.493a.833.833 0 00.329.356c.137.11.356.22.603.301l1.506.603c.439.165.795.356 1.069.575.274.22.493.494.63.795.137.301.247.658.301 1.041.055.384.083.85.083 1.343a7.52 7.52 0 01-.165 1.616 3.52 3.52 0 01-.548 1.26c-.274.357-.63.63-1.068.85-.438.219-.959.301-1.59.301a3.65 3.65 0 01-1.342-.247 3.571 3.571 0 01-1.068-.684 3.51 3.51 0 01-.712-1.042 2.94 2.94 0 01-.274-1.287V28H88.3v.63c0 .356.11.685.329.986.22.302.575.439 1.069.439.328 0 .602-.055.794-.137.192-.11.329-.247.438-.411a1.55 1.55 0 00.192-.658c.027-.246.027-.52.027-.849 0-.356 0-.657-.027-.877a1.439 1.439 0 00-.164-.548c-.082-.137-.22-.246-.356-.356a9.928 9.928 0 00-.576-.301l-1.397-.575c-.85-.357-1.425-.795-1.699-1.37-.301-.576-.438-1.288-.438-2.165 0-.52.082-1.014.22-1.48a3.59 3.59 0 01.63-1.205 2.778 2.778 0 011.04-.794c.411-.192.904-.302 1.507-.302.493 0 .932.083 1.343.274.41.192.767.411 1.04.713.604.63.877 1.315.877 2.11v.986h-.027zm1.48 9.78V18.164h5.863v1.863h-3.89v4.028h3.396v1.863h-3.397v4.027h3.891v1.973h-5.863v-.028zm7.123 0V18.164h1.89l2.521 7.26h.027l2.521-7.26h1.918V31.89h-1.973v-8.356h-.027l-1.945 5.89h-.987l-1.918-5.89h-.027v8.356h-2zm9.836 0l3.068-13.726h1.644l3.068 13.726h-1.972l-.576-2.959h-2.685l-.575 2.96h-1.972zm4.876-4.822l-.959-4.986h-.027l-.959 4.986h1.945zm3.863 4.822V18.164h3.151c2.301 0 3.479 1.343 3.479 4.028 0 .822-.137 1.507-.383 2.055-.247.575-.685 1.013-1.315 1.37l2.109 6.273h-2.082l-1.835-5.863h-1.179v5.863h-1.945zM122.274 20v4.274h1.123c.356 0 .63-.055.822-.137.219-.11.356-.247.493-.411.11-.192.165-.41.219-.657.028-.274.055-.576.055-.905 0-.356-.027-.657-.055-.904a1.67 1.67 0 00-.219-.685c-.246-.356-.712-.548-1.397-.548h-1.041V20zm6.247 11.89V18.164h1.972v6.247h.028l2.876-6.274h1.973l-2.685 5.507 3.178 8.247h-2.082l-2.219-6.11-1.069 2v4.11h-1.972z" fill="#2F3335"/><path d="M1 46V1h45v45H1z" stroke="#2F3335" stroke-width="2" stroke-miterlimit="10"/></svg>