<svg width="21" height="21" fill="none" xmlns="http://www.w3.org/2000/svg"><path d="M19.342 21A1.66 1.66 0 0021 19.342v-3.868a1.66 1.66 0 00-1.658-1.658c-1.293 0-2.564-.204-3.78-.605a1.684 1.684 0 00-1.683.401l-1.592 1.592a16.198 16.198 0 01-6.504-6.502L7.36 7.113c.455-.422.619-1.064.424-1.682a12.016 12.016 0 01-.6-3.773A1.66 1.66 0 005.525 0H1.658A1.66 1.66 0 000 1.658C0 12.324 8.676 21 19.342 21zM1.658 1.105h3.868a.553.553 0 01.553.553c0 1.411.221 2.797.655 4.111a.523.523 0 01-.14.55L4.432 8.492c1.81 3.567 4.482 6.24 8.066 8.065l2.155-2.155a.57.57 0 01.57-.14 13.08 13.08 0 004.12.66c.303 0 .552.248.552.552v3.868a.554.554 0 01-.553.553c-10.056 0-18.237-8.181-18.237-18.237a.553.553 0 01.553-.553z" fill="#427C92"/></svg>