<svg width="22" height="20" fill="none" xmlns="http://www.w3.org/2000/svg"><path d="M5.374 12.314c.803.23 1.462.66 1.978 1.29s.774 1.376.774 2.236c0 1.032-.344 1.892-1.032 2.58A3.398 3.398 0 014.6 19.452c-1.032 0-1.892-.344-2.58-1.032-.688-.688-1.032-1.548-1.032-2.58s.258-2.35.774-3.956L5.116.188h3.01L5.374 12.314zm13.158 0c.803.23 1.462.66 1.978 1.29s.774 1.376.774 2.236c0 1.032-.344 1.892-1.032 2.58a3.398 3.398 0 01-2.494 1.032c-1.032 0-1.892-.344-2.58-1.032-.688-.688-1.032-1.548-1.032-2.58s.258-2.35.774-3.956L18.274.188h3.01l-2.752 12.126z" fill="#427C92"/></svg>