<svg width="22" height="20" fill="none" xmlns="http://www.w3.org/2000/svg"><path d="M16.626 7.686a3.864 3.864 0 01-1.978-1.29c-.516-.63-.774-1.376-.774-2.236 0-1.032.344-1.892 1.032-2.58A3.398 3.398 0 0117.4.548c1.032 0 1.892.344 2.58 1.032.688.688 1.032 1.548 1.032 2.58s-.258 2.35-.774 3.956l-3.354 11.696h-3.01l2.752-12.126zm-13.158 0a3.865 3.865 0 01-1.978-1.29C.974 5.766.716 5.02.716 4.16c0-1.032.344-1.892 1.032-2.58A3.398 3.398 0 014.242.548c1.032 0 1.892.344 2.58 1.032.688.688 1.032 1.548 1.032 2.58s-.258 2.35-.774 3.956L3.726 19.812H.716L3.468 7.686z" fill="#427C92"/></svg>