<svg width="33" height="27" viewBox="0 0 33 27" fill="none" xmlns="http://www.w3.org/2000/svg">
<path d="M30.3897 4.07621C29.6831 4.2876 29.1178 4.25237 29.1178 4.25237L29.1532 4.11144C29.8244 3.58299 31.4495 1.96239 31.6968 1.22256C31.8028 0.905483 31.6615 0.799792 31.6615 0.764561L29.5418 1.64532L27.7754 2.45562C26.5388 1.1521 24.7017 0.341797 22.6173 0.341797C18.9432 0.341797 15.9402 2.94884 15.9402 6.15481C15.9402 6.75372 16.0109 7.81063 16.2228 8.33909C16.2228 8.51524 16.2228 8.16294 16.2228 8.33909C13.8558 8.26863 10.8176 7.31741 8.09724 5.94342C2.7626 3.23069 2.40931 1.39871 2.40931 1.39871C1.56142 2.27947 1.13746 5.23882 1.98535 7.52879C2.51529 9.00846 4.38771 10.312 4.38771 10.312C4.38771 10.312 3.53982 10.312 2.69193 10.0301C1.80871 9.7483 1.49075 9.43123 1.49075 9.43123C0.960822 10.6995 2.02068 12.9543 3.82245 14.5749C4.88231 15.5261 6.79007 16.125 6.79007 16.125L3.78713 16.1955C3.61048 19.1196 9.899 20.8459 9.899 20.8459C8.0619 22.2551 5.90686 23.1358 3.61049 23.1358C2.40931 23.1358 1.27878 22.9597 0.183594 22.6426C3.22187 25.144 7.10803 26.835 11.3475 26.6236C22.582 26.0247 28.9059 16.4068 29.2238 6.9651V7.00033C29.2238 7.00033 29.7538 6.75372 30.8843 5.62635C32.0148 4.49898 32.7214 3.19546 32.7214 3.19546C32.7214 3.19546 31.0962 3.90006 30.3897 4.07621Z" fill="white"/>
<path d="M31.6616 0.799805C31.6973 0.975956 31.6616 0.799805 31.6616 0.799805V0.799805Z" fill="white"/>
</svg>
