<svg width="26" height="23" fill="none" xmlns="http://www.w3.org/2000/svg"><path d="M0 11.187V8.98c0-.133.01-.266.02-.451 1.312 0 2.593-.01 3.874.01.397.01.63-.103.834-.472C6.111 5.573 7.524 3.1 8.928.627 9.039.43 9.15.246 9.294 0c.742.431 1.464.842 2.257 1.293-1.352 2.392-2.695 4.773-4.067 7.205h11.073c-1.363-2.412-2.705-4.793-4.067-7.195.772-.44 1.505-.862 2.257-1.303.986 1.745 1.962 3.459 2.939 5.183.569 1.006 1.149 2.012 1.708 3.028.132.246.285.328.56.318 1.331-.01 2.673-.01 4.046-.01v2.658c-.346 0-.712.02-1.078 0-.315-.02-.468.061-.539.42-.722 3.357-1.474 6.702-2.206 10.048-.224 1.027-.61 1.355-1.648 1.355H5.481c-.997 0-1.404-.349-1.617-1.324-.732-3.346-1.485-6.692-2.207-10.048-.08-.38-.223-.472-.569-.451-.336.03-.671.01-1.088.01z" fill="#fff"/><path fill-rule="evenodd" clip-rule="evenodd" d="M11.893 14.714v-3.489h2.214v3.489h3.489v2.215h-3.489v3.488h-2.214V16.93H8.404v-2.215h3.489z" fill="#A72A1D"/></svg>