<svg width="33" height="28" fill="none" xmlns="http://www.w3.org/2000/svg"><path d="M22.054 0l5.298 8.868H33v3.188h-1.926l-1.249 14.482c-.034.398-.222.77-.526 1.04a1.682 1.682 0 01-1.117.422H4.818c-.414 0-.812-.15-1.117-.421a1.575 1.575 0 01-.526-1.041L1.924 12.056H0V8.868h5.646L10.946 0l2.858 1.594-4.346 7.274H23.54l-4.345-7.274L22.054 0zm5.709 12.056H5.235l1.101 12.755h20.326l1.1-12.755zm-9.613 3.19v6.377h-3.3v-6.378h3.3zm-6.6 0v6.377h-3.3v-6.378h3.3zm13.2 0v6.377h-3.3v-6.378h3.3z" fill="#292929"/></svg>