<svg width="50" height="50" fill="none" xmlns="http://www.w3.org/2000/svg"><path d="M27.54 35.666c8.284 0 15-6.715 15-15 0-8.284-6.716-15-15-15-8.284 0-15 6.716-15 15 0 8.285 6.716 15 15 15z" fill="#EDEBDC"/><path d="M17.873 16.41a.667.667 0 01-.667-.667v-7.34c0-.23.12-.444.316-.566l5.481-3.404a.668.668 0 01.703 1.133L18.54 8.775v6.968a.667.667 0 01-.667.666z" fill="#292929"/><path d="M23.192 45H12.12L9.985 17.889h15.34l-2.133 27.11z" fill="#C1DBDC"/><path d="M23.192 45.666H12.12a.667.667 0 01-.665-.614L9.321 17.94a.666.666 0 01.664-.719h15.341a.667.667 0 01.665.719l-2.135 27.111a.667.667 0 01-.665.614zm-10.456-1.333h9.84l2.029-25.778H10.707l2.029 25.778z" fill="#292929"/><path d="M7.873 15.666h20V19h-20v-3.334z" fill="#fff"/><path d="M27.873 19.666h-20A.666.666 0 017.206 19v-3.334c0-.368.299-.666.667-.666h20c.368 0 .667.298.667.666V19a.666.666 0 01-.667.666zM8.54 18.334h18.666v-2H8.54v2z" fill="#292929"/><path d="M23.903 35.666l.64-8H10.768l.64 8h12.495z" fill="#fff"/><path d="M23.903 36.333H11.408a.666.666 0 01-.664-.613l-.64-8a.666.666 0 01.664-.72h13.775a.666.666 0 01.665.72l-.64 8a.666.666 0 01-.665.613zM12.023 35h11.265l.533-6.667H11.49L12.024 35z" fill="#292929"/><path d="M28.166 18.415h2.278v12.913h-2.278V18.415z" fill="#FFCE56"/><path d="M30.444 31.995h-2.278a.667.667 0 01-.667-.667V18.415c0-.368.299-.666.667-.666h2.278c.369 0 .667.298.667.666v12.913a.667.667 0 01-.667.667zm-1.612-1.334h.946v-11.58h-.946v11.58z" fill="#292929"/><path d="M36.866 21.524l2.097.893-5.062 11.88-2.097-.894 5.062-11.88z" fill="#FFCE56"/><path d="M33.898 34.963a.664.664 0 01-.26-.053l-2.097-.894a.666.666 0 01-.352-.874l5.062-11.88a.666.666 0 01.875-.352l2.096.894a.666.666 0 01.352.874l-5.062 11.879a.666.666 0 01-.614.406zm-1.221-1.912l.87.37 4.539-10.652-.87-.37-4.54 10.652z" fill="#292929"/><path d="M32.811 18.334l2.208.56-3.176 12.513-2.208-.56 3.176-12.513z" fill="#FFCE56"/><path d="M31.86 32.077a.666.666 0 01-.163-.02l-2.209-.561a.667.667 0 01-.482-.81l3.173-12.517a.669.669 0 01.81-.482l2.21.56a.67.67 0 01.482.81l-3.174 12.517a.668.668 0 01-.646.503zm-1.398-1.71l.916.233 2.846-11.225-.916-.232-2.846 11.224z" fill="#292929"/><path d="M40.062 20.828l2.076.944-5.346 11.763-2.075-.944 5.345-11.763z" fill="#FFCE56"/><path d="M36.787 34.166a.667.667 0 01-.276-.06l-2.074-.942a.666.666 0 01-.332-.882l5.34-11.757a.664.664 0 01.883-.331l2.075.942a.666.666 0 01.331.882l-5.34 11.757a.668.668 0 01-.607.392zm-1.192-1.94l.86.391 4.79-10.543-.861-.39-4.789 10.542z" fill="#292929"/><path d="M30.605 33.401l-2.097.893-5.061-11.88 2.096-.892 5.062 11.88z" fill="#FFCE56"/><path d="M28.51 34.963a.666.666 0 01-.614-.406l-5.062-11.879a.666.666 0 01.352-.874l2.096-.894a.666.666 0 01.875.352l5.062 11.88a.665.665 0 01-.352.874l-2.097.894a.666.666 0 01-.26.053zm-4.188-12.194l4.539 10.653.87-.371-4.54-10.653-.87.37z" fill="#292929"/><path d="M33.304 23.212l2.254-.341 1.937 12.77-2.254.342-1.937-12.77z" fill="#FFCE56"/><path d="M35.22 36.65a.667.667 0 01-.658-.567L32.63 23.316a.666.666 0 01.56-.759l2.252-.341a.666.666 0 01.76.56l1.933 12.766a.668.668 0 01-.56.759l-2.253.34a.665.665 0 01-.1.009zm-1.173-12.875l1.734 11.449.934-.141-1.733-11.449-.935.141z" fill="#292929"/><path d="M27.185 34.45l-2.253-.341 1.937-12.77 2.253.341-1.937 12.77z" fill="#FFCE56"/><path d="M27.186 35.13a.665.665 0 01-.1-.007l-2.253-.341a.667.667 0 01-.56-.759l1.934-12.767a.665.665 0 01.76-.56l2.252.342a.666.666 0 01.56.758l-1.934 12.768a.666.666 0 01-.659.567zm-1.494-1.566l.935.141 1.733-11.45-.934-.14-1.734 11.449z" fill="#292929"/><path d="M26.915 33.316l-2.076.943-5.346-11.763 2.076-.944 5.346 11.764z" fill="#FFCE56"/><path d="M24.861 34.926a.667.667 0 01-.607-.392l-5.34-11.756a.666.666 0 01.331-.882l2.075-.942a.665.665 0 01.883.331l5.34 11.756a.666.666 0 01-.331.883l-2.075.942a.658.658 0 01-.276.06zm-4.457-12.092l4.788 10.542.861-.39-4.789-10.543-.86.39z" fill="#292929"/><path d="M36.713 45H23.706l-2.209-14.667h17.425L36.713 45z" fill="#F53E28"/><path d="M36.713 45.666H23.706c-.33 0-.61-.24-.659-.566l-2.209-14.667a.667.667 0 01.66-.767h17.424a.667.667 0 01.66.767l-2.21 14.666a.666.666 0 01-.659.568zM24.28 44.334h11.86L38.147 31H22.273l2.008 13.333z" fill="#292929"/><path d="M30.064 40.443a2.659 2.659 0 100-5.318 2.659 2.659 0 000 5.318z" fill="#fff"/><path d="M30.064 41.11a3.329 3.329 0 01-3.325-3.326 3.329 3.329 0 013.325-3.325 3.329 3.329 0 013.326 3.325 3.329 3.329 0 01-3.326 3.325zm0-5.318a1.994 1.994 0 00-1.991 1.992c0 1.098.893 1.992 1.991 1.992a1.994 1.994 0 001.992-1.992 1.994 1.994 0 00-1.991-1.992z" fill="#292929"/></svg>