<svg width="50" height="50" fill="none" xmlns="http://www.w3.org/2000/svg"><path d="M21.333 36.16c8.285 0 15-6.716 15-15 0-8.285-6.715-15-15-15-8.284 0-15 6.715-15 15 0 8.284 6.716 15 15 15z" fill="#EDEBDC"/><path d="M37.786 44.16H17.88l-3.19-18.112h26.289L37.786 44.16z" fill="#FFDED5"/><path d="M37.786 44.826H17.88a.667.667 0 01-.656-.55l-3.191-18.112a.665.665 0 01.656-.783h26.289a.664.664 0 01.656.783l-3.191 18.111a.666.666 0 01-.657.551zM18.44 43.493h18.788l2.957-16.778H15.483l2.956 16.778z" fill="#292929"/><path d="M24.76 44.84a.666.666 0 01-.664-.62l-1.253-17.756a.666.666 0 111.33-.094l1.253 17.757a.666.666 0 01-.666.713zm6.164-.208l-.062-.003a.668.668 0 01-.602-.726l1.671-17.966a.668.668 0 011.328.124l-1.671 17.966a.667.667 0 01-.664.605z" fill="#292929"/><path d="M38.948 21.343c-.084-5.791-4.798-10.461-10.61-10.461-5.722 0-10.374 4.53-10.595 10.199a6.063 6.063 0 106.098 9.244 6.542 6.542 0 008.361.527 6.052 6.052 0 004.731 2.274 6.064 6.064 0 002.014-11.783z" fill="#fff"/><path d="M36.934 33.793a6.696 6.696 0 01-4.847-2.063 7.161 7.161 0 01-3.748 1.052 7.198 7.198 0 01-4.38-1.483 6.7 6.7 0 01-5.226 2.494A6.74 6.74 0 0112 27.059a6.7 6.7 0 015.11-6.529 11.239 11.239 0 0111.23-10.315c5.976 0 10.935 4.745 11.259 10.666a6.741 6.741 0 014.068 6.178 6.74 6.74 0 01-6.733 6.734zM32.2 30.185c.196 0 .39.086.521.25a5.376 5.376 0 004.212 2.024c2.977 0 5.4-2.422 5.4-5.4a5.406 5.406 0 00-3.608-5.088.667.667 0 01-.445-.619c-.079-5.406-4.539-9.804-9.942-9.804a9.912 9.912 0 00-9.93 9.559.666.666 0 01-.557.631 5.374 5.374 0 00-4.519 5.321c0 2.978 2.423 5.4 5.4 5.4a5.38 5.38 0 004.546-2.494.666.666 0 011.018-.125 5.877 5.877 0 007.512.473.663.663 0 01.392-.128z" fill="#292929"/><path d="M23.492 23.744a2.14 2.14 0 001.76-1.759l.035-.21a2.73 2.73 0 015.134-.773.933.933 0 001.494.242l.042-.041a7.189 7.189 0 001.591-2.413c.295-.738 1.331-.762 1.66-.038l1.56 3.429c.32.706 1.34.653 1.586-.083l.538-1.615c-.512-5.385-5.034-9.601-10.553-9.601-4.262 0-7.928 2.516-9.614 6.14l.394.197A3.403 3.403 0 0121 20.263v1.37a2.14 2.14 0 002.492 2.111z" fill="#BF7E68"/><path d="M23.139 24.44c-.66 0-1.302-.232-1.813-.665a2.802 2.802 0 01-.993-2.142v-1.37c0-1.044-.58-1.981-1.512-2.448l-.393-.197a.666.666 0 01-.307-.877c1.844-3.964 5.855-6.526 10.218-6.526A11.224 11.224 0 0139.556 20.42a.66.66 0 01-.031.274l-.538 1.614a1.513 1.513 0 01-1.363 1.038 1.524 1.524 0 01-1.463-.889l-1.56-3.43a.222.222 0 00-.22-.138.224.224 0 00-.214.148 7.82 7.82 0 01-1.739 2.637c-.404.405-.923.572-1.43.49a1.603 1.603 0 01-1.173-.864 2.051 2.051 0 00-1.846-1.14 2.057 2.057 0 00-2.035 1.724l-.035.21a2.807 2.807 0 01-2.77 2.346zm.353-.696h.007-.007zM19.62 16.73a4.046 4.046 0 012.048 3.532v1.37a1.471 1.471 0 001.716 1.455 1.474 1.474 0 001.21-1.211l.036-.211a3.386 3.386 0 013.35-2.839c1.296 0 2.46.72 3.039 1.878a.26.26 0 00.195.144.258.258 0 00.231-.075 6.556 6.556 0 001.485-2.231 1.547 1.547 0 011.421-.986h.039c.623 0 1.167.349 1.426.92l1.56 3.429c.043.096.124.107.179.11a.177.177 0 00.168-.128l.492-1.479a9.895 9.895 0 00-9.875-8.86 9.977 9.977 0 00-8.72 5.182z" fill="#292929"/><path d="M27.833 15.937a4.045 4.045 0 100-8.089 4.045 4.045 0 000 8.09z" fill="#F53E28"/><path d="M27.833 16.604a4.717 4.717 0 01-4.71-4.711 4.716 4.716 0 014.71-4.711 4.716 4.716 0 014.711 4.71 4.717 4.717 0 01-4.71 4.712zm0-8.089a3.381 3.381 0 00-3.377 3.378 3.382 3.382 0 003.377 3.378 3.382 3.382 0 003.378-3.378 3.381 3.381 0 00-3.378-3.378z" fill="#292929"/><path d="M27.833 9.526a.666.666 0 01-.666-.667c0-.037.054-3.7 4.71-3.7a.666.666 0 110 1.334c-3.339 0-3.377 2.27-3.377 2.366a.666.666 0 01-.667.667zm5.834 5.967a.667.667 0 100-1.333.667.667 0 000 1.333zm-2 3.333a.667.667 0 100-1.333.667.667 0 000 1.333zm2.666 4.667a.667.667 0 100-1.334.667.667 0 000 1.334zm-16 2.667a.667.667 0 100-1.334.667.667 0 000 1.334zm-2 2.666a.667.667 0 100-1.333.667.667 0 000 1.333zm3.334 0a.667.667 0 100-1.333.667.667 0 000 1.333z" fill="#292929"/></svg>