<svg width="17" height="20" fill="none" xmlns="http://www.w3.org/2000/svg"><path opacity=".5" d="M10.17 16.25h.91c.121 0 .237-.05.322-.137a.476.476 0 00.134-.332V7.344a.476.476 0 00-.134-.332.449.449 0 00-.322-.137h-.91a.451.451 0 00-.322.137.476.476 0 00-.134.332v8.437c0 .125.048.244.134.332a.449.449 0 00.322.137zm6.223-13.125h-3.127L11.976.91a1.847 1.847 0 00-.665-.667A1.781 1.781 0 0010.413 0H6.587c-.314 0-.624.084-.897.243-.274.16-.503.39-.665.667l-1.29 2.215H.606a.598.598 0 00-.43.183A.634.634 0 000 3.75v.625c0 .166.064.325.178.442A.598.598 0 00.608 5h.606v13.125c0 .497.192.974.534 1.326.341.351.805.549 1.288.549h10.928c.483 0 .947-.198 1.288-.55.342-.35.534-.828.534-1.325V5h.607a.599.599 0 00.43-.183.635.635 0 00.177-.442V3.75a.635.635 0 00-.178-.442.599.599 0 00-.43-.183zM6.52 1.989a.223.223 0 01.196-.114h3.566c.04 0 .079.01.113.03a.23.23 0 01.083.084l.663 1.136H5.859l.662-1.136zm7.443 16.136H3.036V5h10.928v13.125zM5.92 16.25h.91c.121 0 .237-.05.322-.137a.476.476 0 00.134-.332V7.344a.476.476 0 00-.134-.332.449.449 0 00-.322-.137h-.91a.451.451 0 00-.322.137.476.476 0 00-.134.332v8.437c0 .125.048.244.134.332a.449.449 0 00.322.137z" fill="#9D9D9D"/></svg>