<svg width="22" height="16" fill="none" xmlns="http://www.w3.org/2000/svg"><path d="M21.18 10.47V8.108c0-.897-.722-1.618-1.619-1.618l-1.118-.176-1.916-2.885c-.027-.023-.05-.077-.077-.1a1.65 1.65 0 00-1.32-.671h-3.634V1.652c0-.509-.379-.924-.848-.924h-9.8c-.47 0-.848.415-.848.924v10.91c0 .523.424.92.92.92h1.32a2.46 2.46 0 002.39 1.79 2.493 2.493 0 002.39-1.79h8.137a2.46 2.46 0 002.389 1.79 2.493 2.493 0 002.39-1.79h1.144c.523 0 .92-.424.92-.92v-1.167a.94.94 0 00-.82-.925zM4.63 14.027a1.247 1.247 0 01-1.244-1.244c0-.671.572-1.244 1.244-1.244.699 0 1.244.572 1.244 1.244s-.545 1.245-1.244 1.245zM13.2 6.41a.116.116 0 01-.117-.118V4.006c0-.063.05-.117.117-.117h1.975c.04 0 .076.018.094.05l1.538 2.285c.05.076-.005.18-.095.18H13.2v.005zm4.346 7.619a1.247 1.247 0 01-1.244-1.245c0-.671.572-1.244 1.244-1.244.699 0 1.244.572 1.244 1.244s-.572 1.245-1.244 1.245z" fill="#292929"/></svg>