<svg width="7" height="7" fill="none" xmlns="http://www.w3.org/2000/svg"><path d="M1.236 6.608l-.468-.504.564-.564a2.719 2.719 0 01-.648-1.788c0-.512.124-.976.372-1.392.256-.424.596-.76 1.02-1.008A2.643 2.643 0 013.468.968c.672 0 1.264.216 1.776.648l.612-.612.456.516-.6.6c.36.488.54 1.032.54 1.632 0 .504-.128.968-.384 1.392a2.863 2.863 0 01-1.008 1.02c-.416.248-.88.372-1.392.372-.6 0-1.144-.176-1.632-.528l-.6.6zm.624-1.596l2.856-2.856a2.038 2.038 0 00-3.012.576 1.999 1.999 0 00-.264 1.02c0 .48.14.9.42 1.26zm1.608.768c.368 0 .704-.088 1.008-.264.312-.184.56-.428.744-.732.184-.312.276-.656.276-1.032 0-.384-.104-.748-.312-1.092L2.376 5.468c.32.208.684.312 1.092.312z" fill="#D76459"/></svg>