<svg width="7" height="7" fill="none" xmlns="http://www.w3.org/2000/svg"><path d="M1.344 6.8l-.792-.852.54-.552C.748 4.924.576 4.376.576 3.752c0-.528.128-1.008.384-1.44.264-.44.612-.788 1.044-1.044.44-.264.92-.396 1.44-.396.608 0 1.156.176 1.644.528L5.7.788l.768.876-.576.588c.28.44.42.94.42 1.5 0 .52-.128 1-.384 1.44-.256.432-.604.78-1.044 1.044a2.772 2.772 0 01-1.44.384c-.56 0-1.06-.14-1.5-.42l-.6.6zm.66-2.304l2.184-2.184a1.406 1.406 0 00-.744-.204c-.304 0-.58.076-.828.228a1.69 1.69 0 00-.6.588 1.619 1.619 0 00-.216.828c0 .264.068.512.204.744zm1.44.9a1.619 1.619 0 001.416-.804c.152-.248.228-.528.228-.84 0-.2-.04-.388-.12-.564L2.88 5.264c.176.088.364.132.564.132z" fill="#fff"/></svg>