<svg width="50" height="50" fill="none" xmlns="http://www.w3.org/2000/svg"><path d="M22.333 40.666c8.285 0 15-6.715 15-15 0-8.284-6.715-15-15-15-8.284 0-15 6.716-15 15 0 8.285 6.716 15 15 15z" fill="#EDEBDC"/><path d="M39.365 23.333h-17.03a.667.667 0 01-.663-.588l-.474-4A.67.67 0 0121.86 18h17.978a.664.664 0 01.662.744l-.474 4a.666.666 0 01-.661.589zM22.927 22h15.845l.316-2.667H22.61L22.927 22z" fill="#292929"/><path d="M38.633 22.666A1.667 1.667 0 0037 21.333c-.6 0-1.12.319-1.414.794A1.99 1.99 0 0034 21.333c-.58 0-1.097.25-1.463.645a1.994 1.994 0 00-1.87-1.312c-.862 0-1.59.548-1.871 1.311a1.988 1.988 0 00-2.859-.073 1.662 1.662 0 00-3.237.762h-.365L24.865 44h11.969l2.53-21.334h-.731z" fill="#9DC1E4"/><path d="M36.833 44.666H24.865a.667.667 0 01-.662-.587l-2.53-21.334a.67.67 0 01.34-.663A2.336 2.336 0 0124.333 20c.743 0 1.423.356 1.854.925a2.697 2.697 0 012.413.067A2.666 2.666 0 0130.666 20c.813 0 1.57.377 2.067.992a2.7 2.7 0 012.82.179c.406-.324.91-.505 1.447-.505.913 0 1.728.537 2.108 1.334h.256a.666.666 0 01.662.745l-2.531 21.333a.665.665 0 01-.662.588zm-11.375-1.333H36.24l2.373-20a.668.668 0 01-.635-.534 1.001 1.001 0 00-.98-.8.991.991 0 00-.846.479.67.67 0 01-.535.315.646.646 0 01-.562-.262c-.49-.64-1.484-.688-2.03-.1a.668.668 0 01-1.115-.223 1.334 1.334 0 00-1.245-.875c-.552 0-1.052.352-1.244.875a.666.666 0 01-1.115.223 1.353 1.353 0 00-1.904-.05.668.668 0 01-1.11-.305 1 1 0 00-.96-.743 1.001 1.001 0 00-.98 1.2.664.664 0 01-.282.687l2.387 20.113zm16.542-24H19.333a.666.666 0 110-1.333H42a.666.666 0 110 1.333z" fill="#292929"/><path d="M40.247 19.333H21.452a.666.666 0 01-.667-.667c0-5.55 4.515-10.064 10.065-10.064s10.064 4.515 10.064 10.064a.667.667 0 01-.667.667zM22.144 18h17.411c-.34-4.504-4.115-8.065-8.705-8.065s-8.365 3.56-8.706 8.065z" fill="#292929"/><path d="M32.695 22.821a.668.668 0 01-.626-.896L37.986 5.77a.668.668 0 011.253.458l-5.917 16.156a.667.667 0 01-.627.437z" fill="#292929"/><path d="M32 27.015a1.016 1.016 0 100-2.031 1.016 1.016 0 000 2.031z" fill="#fff"/><path d="M32 27.682A1.684 1.684 0 0130.318 26c0-.928.754-1.683 1.682-1.683.928 0 1.682.755 1.682 1.683 0 .927-.754 1.682-1.682 1.682zm0-2.031a.35.35 0 100 .698.35.35 0 000-.698z" fill="#292929"/><path d="M26.667 27.55a1.55 1.55 0 100-3.1 1.55 1.55 0 000 3.1z" fill="#fff"/><path d="M26.667 28.216A2.219 2.219 0 0124.45 26c0-1.223.994-2.217 2.217-2.217 1.222 0 2.216.994 2.216 2.217a2.219 2.219 0 01-2.216 2.216zm0-3.1a.885.885 0 000 1.767.885.885 0 000-1.767z" fill="#292929"/><path d="M30 33.28a1.947 1.947 0 100-3.894 1.947 1.947 0 000 3.894z" fill="#fff"/><path d="M30 33.946a2.616 2.616 0 01-2.613-2.613A2.617 2.617 0 0130 28.72a2.617 2.617 0 012.613 2.613A2.616 2.616 0 0130 33.946zm0-3.893a1.281 1.281 0 000 2.56 1.281 1.281 0 000-2.56zM25.696 14.89a.665.665 0 01-.497-1.111 7.345 7.345 0 015.468-2.446.666.666 0 110 1.333 6.01 6.01 0 00-4.474 2.002.665.665 0 01-.497.222z" fill="#292929"/></svg>