<svg width="50" height="50" fill="none" xmlns="http://www.w3.org/2000/svg"><path d="M20.5 34.333c8.284 0 15-6.715 15-15 0-8.284-6.716-15-15-15-8.284 0-15 6.716-15 15 0 8.285 6.716 15 15 15z" fill="#EDEBDC"/><path d="M30.106 12.774l3.5-.744 3.35 15.75-3.5.745-3.35-15.75z" fill="#FFCE56"/><path d="M33.46 29.196a.67.67 0 01-.653-.528l-3.35-15.753a.667.667 0 01.514-.79l3.501-.745a.667.667 0 01.791.513l3.35 15.753a.667.667 0 01-.514.791l-3.5.745a.681.681 0 01-.14.014zM30.9 13.29l3.072 14.449 2.196-.467-3.072-14.45-2.196.468z" fill="#292929"/><path d="M17.086 12.393l3.575.147-.66 16.089-3.575-.147.66-16.089z" fill="#FFCE56"/><path d="M20.014 29.294h-.028l-3.576-.146a.667.667 0 01-.639-.693l.655-16.092a.665.665 0 01.694-.639l3.576.146a.666.666 0 01.639.693l-.656 16.092a.666.666 0 01-.665.64zm-2.883-1.45l2.243.09.601-14.759-2.243-.091-.601 14.76z" fill="#292929"/><path d="M33.872 13.293l3.575.147-.66 16.089-3.575-.147.66-16.089z" fill="#FFCE56"/><path d="M36.803 30.19l-.028-.002-3.576-.145a.667.667 0 01-.639-.693l.656-16.092a.645.645 0 01.694-.639l3.575.146a.666.666 0 01.639.693l-.655 16.091a.667.667 0 01-.666.64zm-2.883-1.452l2.243.091.601-14.76-2.243-.09-.601 14.759z" fill="#292929"/><path d="M22.704 9.926l3.571-.25 1.128 16.072-3.572.25-1.127-16.072z" fill="#FFCE56"/><path d="M23.823 26.65a.666.666 0 01-.664-.62l-1.13-16.066a.663.663 0 01.618-.712l3.57-.25a.66.66 0 01.712.618l1.13 16.065a.664.664 0 01-.618.712l-3.57.251a.645.645 0 01-.048.002zm-.418-16.114l1.037 14.735 2.24-.157-1.036-14.735-2.24.157z" fill="#292929"/><path d="M18.937 16.244l3.564-.336 1.514 16.04-3.564.337-1.514-16.04z" fill="#FFCE56"/><path d="M20.44 32.94a.668.668 0 01-.664-.604l-1.512-16.034a.666.666 0 01.6-.726l3.563-.337a.665.665 0 01.726.601l1.514 16.034a.666.666 0 01-.601.726l-3.563.337a.661.661 0 01-.063.003zm-.786-16.1l1.387 14.707 2.236-.212-1.388-14.706-2.235.211z" fill="#292929"/><path d="M26.098 15.349l3.564-.337 1.514 16.04-3.565.337-1.513-16.04z" fill="#FFCE56"/><path d="M27.598 32.045a.668.668 0 01-.664-.604l-1.512-16.034a.666.666 0 01.6-.726l3.564-.336a.667.667 0 01.726.601l1.512 16.034a.666.666 0 01-.6.726l-3.564.336a.655.655 0 01-.062.003zm-.786-16.1l1.386 14.707 2.236-.211-1.387-14.707-2.235.212z" fill="#292929"/><path d="M21.785 20.446l3.575.146-.66 16.09-3.576-.147.66-16.09z" fill="#FFCE56"/><path d="M24.715 37.347h-.027L21.11 37.2a.666.666 0 01-.638-.693l.655-16.091a.65.65 0 01.694-.639l3.576.145a.667.667 0 01.639.694l-.656 16.091a.665.665 0 01-.666.64zm-2.883-1.452l2.244.092.601-14.76-2.244-.09-.601 14.758z" fill="#292929"/><path d="M24.332 23.721l3.504-.723 3.253 15.767-3.504.723-3.253-15.767z" fill="#FFCE56"/><path d="M27.605 40.16a.668.668 0 01-.653-.531l-3.258-15.772a.667.667 0 01.518-.788l3.505-.724a.669.669 0 01.788.518l3.257 15.772a.667.667 0 01-.518.788l-3.504.724a.672.672 0 01-.135.014zm-2.47-15.92l2.988 14.466 2.198-.454-2.987-14.467-2.2.455z" fill="#292929"/><path d="M29.836 18.66l3.575.146-.66 16.089-3.575-.147.66-16.089z" fill="#FFCE56"/><path d="M32.767 35.558l-.027-.001-3.576-.146a.666.666 0 01-.639-.693l.656-16.092a.665.665 0 01.693-.639l3.576.146a.666.666 0 01.64.693l-.657 16.092a.665.665 0 01-.666.64zm-2.882-1.452l2.244.092.6-14.76-2.244-.091-.6 14.76z" fill="#292929"/><path d="M12.748 12.198l3.528-.601 2.706 15.88-3.528.6-2.706-15.879z" fill="#FFCE56"/><path d="M15.46 28.73a.665.665 0 01-.656-.554l-2.712-15.875a.666.666 0 01.545-.77l3.528-.602a.663.663 0 01.769.545l2.712 15.875a.666.666 0 01-.545.77l-3.528.602a.703.703 0 01-.112.01zm-1.942-15.996l2.488 14.56 2.213-.378-2.487-14.56-2.214.378z" fill="#292929"/><path d="M38.713 10.49l3.543.5L40 26.934l-3.543-.5 2.255-15.945z" fill="#FFCE56"/><path d="M40.004 27.61a.66.66 0 01-.094-.006l-3.543-.502a.666.666 0 01-.568-.753l2.257-15.947a.665.665 0 01.754-.567l3.543.502a.667.667 0 01.567.754l-2.257 15.946a.667.667 0 01-.66.573zm-2.791-1.735l2.224.315 2.07-14.626-2.224-.315-2.07 14.626z" fill="#292929"/><path d="M35.035 21.667c.296.835.465 1.73.465 2.666a8 8 0 11-16 0c0-.936.17-1.831.465-2.666h-8.342L17.393 45h20.67l5.77-23.333h-8.798z" fill="#F53E28"/><path d="M38.063 45.667h-20.67a.667.667 0 01-.647-.507l-5.77-23.333a.666.666 0 01.647-.827h8.342a.667.667 0 01.628.889 7.31 7.31 0 00-.426 2.444c0 4.044 3.29 7.334 7.333 7.334 4.044 0 7.333-3.29 7.333-7.334 0-.822-.143-1.644-.426-2.444a.666.666 0 01.628-.889h8.798a.666.666 0 01.647.827L38.71 45.16a.666.666 0 01-.647.507zm-20.148-1.334h19.626l5.44-22h-7.053c.159.66.239 1.33.239 2 0 4.78-3.888 8.667-8.667 8.667s-8.666-3.888-8.666-8.667c0-.67.08-1.34.239-2h-6.598l5.44 22z" fill="#292929"/><path d="M27.728 42.255a3.852 3.852 0 100-7.703 3.852 3.852 0 000 7.703z" fill="#fff"/><path d="M27.729 42.922a4.524 4.524 0 01-4.52-4.518 4.524 4.524 0 014.52-4.519 4.523 4.523 0 014.518 4.519 4.523 4.523 0 01-4.518 4.518zm0-7.703a3.189 3.189 0 00-3.186 3.185 3.189 3.189 0 003.186 3.184 3.189 3.189 0 003.184-3.184 3.189 3.189 0 00-3.184-3.186z" fill="#292929"/><path d="M31.5 42.334a.667.667 0 01-.624-.433l-1.515-4.04-1.29 2.149a.666.666 0 01-1.225-.212l-.365-1.825-2.439 3.415a.666.666 0 11-1.084-.775l3.333-4.667a.665.665 0 011.196.257l.329 1.642 1.113-1.855a.668.668 0 011.196.109l2 5.334a.667.667 0 01-.625.9z" fill="#FFCE56"/></svg>