<svg width="17" height="21" fill="none" xmlns="http://www.w3.org/2000/svg"><path d="M14.51 14.85L8.5 21l-6.01-6.15a8.763 8.763 0 01-2.327-4.455A8.887 8.887 0 01.647 5.37a8.658 8.658 0 013.13-3.904A8.363 8.363 0 018.5 0c1.681 0 3.325.51 4.722 1.466a8.659 8.659 0 013.131 3.904 8.888 8.888 0 01.484 5.025 8.763 8.763 0 01-2.327 4.454zM8.5 10.63c.501 0 .981-.203 1.336-.566.354-.362.553-.854.553-1.367 0-.512-.2-1.004-.553-1.366A1.867 1.867 0 008.5 6.765c-.501 0-.981.204-1.336.567a1.956 1.956 0 00-.553 1.366c0 .513.2 1.005.553 1.367.355.363.835.566 1.336.566z" fill="#A72A1D"/></svg>