<svg width="50" height="50" fill="none" xmlns="http://www.w3.org/2000/svg"><path d="M21.667 34.333c8.284 0 15-6.715 15-15 0-8.284-6.716-15-15-15-8.285 0-15 6.716-15 15 0 8.285 6.715 15 15 15z" fill="#EDEBDC"/><path d="M24.238 45h-8.476a2.428 2.428 0 01-2.429-2.428V18.186c0-.99.803-1.792 1.792-1.792h9.75c.99 0 1.791.802 1.791 1.792v24.386A2.428 2.428 0 0124.238 45z" fill="#FFCE56"/><path d="M24.238 45.667h-8.476a3.098 3.098 0 01-3.095-3.095V18.186a2.461 2.461 0 012.458-2.459h9.75a2.461 2.461 0 012.458 2.459v24.386a3.098 3.098 0 01-3.095 3.095zM15.125 17.06c-.62 0-1.125.505-1.125 1.126v24.386c0 .971.79 1.761 1.762 1.761h8.476c.971 0 1.762-.79 1.762-1.761V18.186c0-.62-.505-1.125-1.125-1.125h-9.75z" fill="#292929"/><path d="M13.333 23.667H20v12h-6.667v-12z" fill="#FFEC95"/><path d="M20 36.333h-6.667a.667.667 0 01-.666-.666v-12c0-.369.298-.667.666-.667H20c.368 0 .667.299.667.667v12a.667.667 0 01-.667.666zM14 35h5.333V24.333H14V35z" fill="#292929"/><path d="M25.333 16.394H14.667v-1.475c0-1.06.859-1.919 1.918-1.919h6.83c1.06 0 1.918.859 1.918 1.919v1.475z" fill="#D9BE6F"/><path d="M25.333 17.06H14.667a.667.667 0 01-.667-.666v-1.475a2.588 2.588 0 012.585-2.586h6.83A2.588 2.588 0 0126 14.92v1.475a.667.667 0 01-.667.667zm-10-1.333h9.334v-.809c0-.69-.562-1.252-1.252-1.252h-6.83c-.69 0-1.252.562-1.252 1.253v.808z" fill="#292929"/><path d="M21.915 13H18l.693-7.333h2.529L21.915 13z" fill="#D9BE6F"/><path d="M21.915 13.667H18a.667.667 0 01-.664-.73l.694-7.333A.667.667 0 0118.693 5h2.529c.344 0 .631.262.664.604l.693 7.333a.668.668 0 01-.664.73zm-3.182-1.334h2.45l-.568-6H19.3l-.567 6z" fill="#292929"/><path d="M40.238 45h-8.476a2.428 2.428 0 01-2.429-2.428V18.186c0-.99.803-1.792 1.792-1.792h9.75c.99 0 1.791.802 1.791 1.792v24.386A2.428 2.428 0 0140.239 45z" fill="#F53E28"/><path d="M40.238 45.667h-8.476a3.098 3.098 0 01-3.095-3.095V18.186a2.461 2.461 0 012.458-2.459h9.75a2.461 2.461 0 012.458 2.459v24.386a3.098 3.098 0 01-3.095 3.095zM31.125 17.06c-.62 0-1.125.505-1.125 1.126v24.386c0 .971.79 1.761 1.762 1.761h8.476c.971 0 1.762-.79 1.762-1.761V18.186c0-.62-.505-1.125-1.126-1.125h-9.749z" fill="#292929"/><path d="M29.333 23.667H36v12h-6.667v-12z" fill="#E66353"/><path d="M36 36.333h-6.667a.667.667 0 01-.666-.666v-12c0-.369.298-.667.666-.667H36c.368 0 .667.299.667.667v12a.667.667 0 01-.667.666zM30 35h5.333V24.333H30V35z" fill="#292929"/><path d="M41.333 16.394H30.667v-1.475c0-1.06.859-1.919 1.918-1.919h6.83c1.06 0 1.918.859 1.918 1.919v1.475z" fill="#E66353"/><path d="M41.333 17.06H30.667a.667.667 0 01-.667-.666v-1.475a2.588 2.588 0 012.585-2.586h6.83A2.588 2.588 0 0142 14.92v1.475a.667.667 0 01-.667.667zm-10-1.333h9.334v-.809c0-.69-.562-1.252-1.252-1.252h-6.83c-.69 0-1.252.562-1.252 1.252v.81z" fill="#292929"/><path d="M37.915 13H34l.693-7.333h2.529L37.915 13z" fill="#E66353"/><path d="M37.915 13.667H34a.667.667 0 01-.664-.73l.694-7.333A.667.667 0 0134.693 5h2.529c.344 0 .631.262.664.604l.693 7.333a.668.668 0 01-.664.73zm-3.182-1.334h2.45l-.568-6H35.3l-.567 6z" fill="#292929"/></svg>