<svg width="177" height="177" fill="none" xmlns="http://www.w3.org/2000/svg"><path d="M132.75 132.75c24.439-24.439 24.439-64.061 0-88.5-24.439-24.439-64.061-24.439-88.5 0-24.439 24.439-24.439 64.061 0 88.5 24.439 24.439 64.061 24.439 88.5 0z" fill="#A72A1D"/><path d="M90.375 13.474c2.044.763 3.376 2.554 3.392 4.56 0 .276-.025.55-.075.822h-.006c-.223 1.275-.972 2.418-2.138 3.204a1111.54 1111.54 0 017.908 11.925 1225.083 1225.083 0 0110.57 16.641c2.889-.02 5.748-.03 8.577-.03 9.706 0 19.033.114 27.726.337.171-.347.381-.672.627-.971l2.335 8.69a1.758 1.758 0 00-.129-.047c-.059-.02-.119-.04-.177-.07a2250.774 2250.774 0 01-6.172 11.812c-4.677 4.647-10.045 8.446-16.425 10.927 6.385-2.481 11.748-6.28 16.425-10.927a1634.58 1634.58 0 01-9.641 18.06c5.183 9.15 10.646 19.026 16.655 30.109l.001-.002.345.637c.137.255.274.51.414.764a4.4 4.4 0 01.573-.061l.234-.006a4.657 4.657 0 011.792.363c1.891.792 3.076 2.721 3.01 4.915-.068 2.974-2.428 5.497-5.253 5.626-.088.01-.193.01-.295.01-2.265 0-4.169-1.625-4.67-3.917l-.431.016c-10.903.463-22.507.809-34.525 1.025a1142.527 1142.527 0 01-17.173 27.921h.004c-.281.442-.567.894-.847 1.338l-.22.349a4.62 4.62 0 01.986 2.869c-.027 2.721-2.492 4.941-5.503 4.94-3.01-.002-5.48-2.217-5.506-4.938a4.592 4.592 0 01.987-2.859c-.172-.27-.346-.547-.52-.823v-.002l-.175-.277-.2-.316h-.004a1155.493 1155.493 0 01-17.354-28.206 1432.908 1432.908 0 01-33.856-1.002l-4.59-9.001c5.877-10.82 11.23-20.497 16.311-29.474A1793.19 1793.19 0 0133.09 69.13a2416.444 2416.444 0 01-5.438-10.414 5.09 5.09 0 01-1.285.326s4.314-8.15 4.342-8.104c5.19-.124 10.557-.219 15.958-.284a1548.98 1548.98 0 0119.831-.014A1219.425 1219.425 0 0177.065 34c2.567-3.933 5.226-7.94 7.904-11.94a4.944 4.944 0 01-2.075-2.877h.004a4.614 4.614 0 01-.138-1.148c.027-2.719 2.497-4.937 5.504-4.937a5.999 5.999 0 012.11.376zM26.399 48.177c.606.001 1.207.12 1.768.35a4.814 4.814 0 012.514 2.358l-4.314 8.151a2.425 2.425 0 00-.145.023 1.91 1.91 0 01-.309.034l-.215.006a4.682 4.682 0 01-3.312-1.372c-1.017-1.006-1.555-2.393-1.517-3.91.074-2.978 2.437-5.503 5.267-5.631.077-.009.17-.009.263-.009zM151.28 59.106h-.163a5.03 5.03 0 01-1.823-.459l-2.335-8.69a4.683 4.683 0 013.807-1.764l.132.003a5.121 5.121 0 012.017.517c1.911.932 3.18 2.937 3.234 5.11.037 1.52-.502 2.911-1.518 3.915a4.735 4.735 0 01-3.351 1.368zM25.95 119.908a4.025 4.025 0 00-.513-.054h-.212a4.683 4.683 0 00-3.31 1.36c-1.016 1.004-1.554 2.393-1.518 3.911.075 2.975 2.435 5.498 5.246 5.627.1.007.199.009.297.009 2.31 0 4.183-1.591 4.684-3.921l1.017.04-4.59-9.001-1.1 2.029z" fill="#E9BC49"/><path d="M84.395 42.82c-.324-1.507.697-2.736 1.949-3.014.788-.185 1.484 0 2.04.418.464.324.881.858 1.02 1.53.533 2.435-2.272 3.942-3.989 2.62-.533-.417-.88-.858-1.02-1.553zm4.546 10.783c-.323-1.507.697-2.736 1.949-3.014.788-.163 1.507 0 2.04.417.464.325.881.858 1.02 1.53.534 2.435-2.272 3.942-3.988 2.62-.534-.417-.882-.857-1.02-1.553zm36.326 41.345c-1.252.278-2.273 1.507-1.949 3.014.139.696.487 1.136 1.021 1.554 1.716 1.322 4.521-.186 3.988-2.62a2.516 2.516 0 00-1.02-1.53c-.556-.418-1.252-.604-2.04-.418zm-66.821-.229c-.324-1.508.696-2.736 1.948-3.015.788-.185 1.485 0 2.04.418.465.324.882.858 1.02 1.53.534 2.435-2.272 3.942-3.988 2.62-.533-.417-.881-.858-1.02-1.553zm18.166-38.695c-1.252.279-2.272 1.508-1.948 3.015.139.695.487 1.136 1.02 1.553 1.716 1.322 4.522-.185 3.989-2.62a2.515 2.515 0 00-1.02-1.53 2.385 2.385 0 00-2.04-.418zm51.25 52.721c-.324-1.507.696-2.736 1.949-3.015.788-.162 1.507 0 2.04.418.464.324.881.858 1.02 1.53.533 2.435-2.272 3.942-3.989 2.62-.533-.417-.881-.858-1.02-1.553zm-62.924-6.258c-1.252.278-2.273 1.507-1.949 3.014.14.696.488 1.136 1.02 1.554 1.717 1.321 4.523-.186 3.99-2.621a2.517 2.517 0 00-1.02-1.53c-.534-.417-1.253-.58-2.041-.417zm14.269-32.666c-.324-1.507.697-2.736 1.949-3.014.788-.163 1.507 0 2.04.417.464.325.881.858 1.02 1.53.534 2.435-2.272 3.943-3.988 2.62-.533-.416-.882-.857-1.02-1.553z" fill="#D5AA3D"/><path d="M68.43 54.1c.361-.206.665-.5.883-.855 6.002-10.728 12-21.113 17.758-30.779a.623.623 0 01-.064-.017.444.444 0 00-.052-.015l2.512.037c5.75 9.648 11.74 20.016 17.738 30.724a2.484 2.484 0 002.022 1.24c13.493.42 25.162.904 35.467 1.401a2402.562 2402.562 0 01-11.354 20.278 2025.18 2025.18 0 007.111-17.074c-9.605-.417-20.408-.845-32.856-1.235a2.255 2.255 0 01-1.868-1.243 1517.498 1517.498 0 00-17.455-32.63 1515.243 1515.243 0 00-17.475 32.683c-.419.731-1.127 1.17-1.91 1.179-11.214.315-22.252.727-32.79 1.23a1984.65 1984.65 0 0010.81 23.599 2244.13 2244.13 0 01-15.06-26.802 1567.87 1567.87 0 0135.396-1.401 2.466 2.466 0 001.186-.32zm1.711 66.908c.333.188.613.457.813.782a1205.423 1205.423 0 0016.334 28.198.548.548 0 00-.06.016c-.015.005-.03.01-.047.014l1.155 1.621 1.156-1.656a1217.07 1217.07 0 0016.315-28.147 2.273 2.273 0 011.86-1.136c12.411-.384 25.576-.828 35.055-1.284a2230.728 2230.728 0 00-10.443-18.577 1856.432 1856.432 0 016.54 15.643c-8.835.381-21.204.773-32.653 1.13a2.08 2.08 0 00-1.719 1.14 1385.857 1385.857 0 01-16.055 29.893 1383.532 1383.532 0 01-16.073-29.943c-.385-.669-1.037-1.071-1.757-1.079-10.314-.289-22.9-.666-32.593-1.128a1811.242 1811.242 0 019.943-21.62A2051.592 2051.592 0 0034.06 119.43c10.401.535 23.81.963 34.99 1.284a2.26 2.26 0 011.091.294z" fill="#D4AA3D"/><path fill-rule="evenodd" clip-rule="evenodd" d="M81.827 18.024c.033-3.232 2.92-5.86 6.438-5.86a6.953 6.953 0 012.443.434c2.41.9 3.98 3.029 4 5.425a5.632 5.632 0 01-1.891 4.234c2.507 3.737 5.004 7.505 7.436 11.225a1277.648 1277.648 0 0110.3 16.208c2.713-.017 5.401-.026 8.063-.026 9.506 0 18.646.108 27.183.322a5.727 5.727 0 014.845-2.725c.055 0 .11.002.162.003.046.002.09.004.13.004a6.042 6.042 0 012.397.612c2.22 1.08 3.695 3.407 3.757 5.926.043 1.78-.596 3.413-1.797 4.6a5.663 5.663 0 01-4.007 1.636h-.203a5.81 5.81 0 01-1.661-.312 1939.974 1939.974 0 01-15.177 28.667c5.241 9.264 10.77 19.264 16.873 30.524.094-.007.187-.007.279-.007.74.001 1.472.149 2.154.435 2.248.941 3.657 3.217 3.591 5.798-.086 3.459-2.846 6.391-6.115 6.539a3.567 3.567 0 01-.372.013c-2.452 0-4.553-1.575-5.37-3.887-10.664.449-22 .786-33.725 1.002a1140.618 1140.618 0 01-17.659 28.666c.533.872.81 1.876.802 2.898-.033 3.231-2.919 5.863-6.437 5.861-3.519-.002-6.407-2.631-6.437-5.862a5.426 5.426 0 01.802-2.884 1141.468 1141.468 0 01-17.668-28.684 1420.348 1420.348 0 01-33.647-1.002c-.823 2.314-2.925 3.891-5.376 3.891a5.23 5.23 0 01-.326-.01c-3.304-.154-6.062-3.086-6.15-6.539-.042-1.778.594-3.412 1.792-4.595a5.617 5.617 0 013.97-1.635h.2c6.099-11.252 11.625-21.251 16.87-30.52a1886.721 1886.721 0 01-15.113-28.551 5.669 5.669 0 01-1.216.18c-.09.005-.18.005-.27.005a5.608 5.608 0 01-3.97-1.645c-1.2-1.189-1.836-2.821-1.79-4.596.085-3.459 2.847-6.392 6.125-6.54a5.595 5.595 0 012.452.41c1.14.46 2.1 1.275 2.74 2.324 5.02-.117 10.195-.208 15.41-.27a1548.05 1548.05 0 0119.319-.018c3.446-5.52 6.91-10.971 10.304-16.219 2.412-3.691 4.91-7.46 7.432-11.22a5.63 5.63 0 01-1.892-4.235zm3.78 4.766l.415-.617.087-.13c.341.167.7.297 1.068.387l2.512.038a5.72 5.72 0 00.83-.27c1.54 2.29 3.084 4.603 4.617 6.919 1.091 1.841 2.19 3.705 3.294 5.592a1346.69 1346.69 0 0110.299 17.708.894.894 0 00.75.452 2051.2 2051.2 0 0137.105 1.518c.064.302.153.598.266.886-5.709 10.343-11.743 21.135-18.059 32.124a2.103 2.103 0 00-.017 2.052 2043.981 2043.981 0 0117.366 32.285 1641.84 1641.84 0 01-36.58.65 2.636 2.636 0 00-2.24 1.285 1467.545 1467.545 0 01-8.435 13.959l-.36.631-4.055 6.488-6.082 9.325-6.082-9.731-1.724-3.092c.591 1.106 1.18 2.205 1.769 3.297a1482.264 1482.264 0 01-12.699-20.865 2.645 2.645 0 00-2.241-1.296 1600.733 1600.733 0 01-36.588-.654c5.487-10.404 11.284-21.238 17.347-32.256a2.11 2.11 0 000-2.08A2139.162 2139.162 0 0130.386 55.76a5.45 5.45 0 00.505-1.402c5.194-.265 10.521-.504 15.944-.717 6.75-.298 13.647-.554 20.617-.77a.915.915 0 00.783-.45 1256.791 1256.791 0 0110.302-17.712c2.383-4.071 4.74-8.044 7.07-11.919zm63.186 27.916a3.15 3.15 0 012.335-.87 3.47 3.47 0 011.362.35c.455.223.861.534 1.194.917a.64.64 0 01.065.771.528.528 0 01-.701.158l-.058-.03a3.43 3.43 0 01-.047-.024l-.063-.032a4.304 4.304 0 00-1.707-.437 3.942 3.942 0 00-1.69.295.634.634 0 01-.768-.274.656.656 0 01.077-.831l.001.007zm-119.908.927a.584.584 0 01-.721.218 4.02 4.02 0 00-1.866-.363 4.247 4.247 0 00-1.703.439.563.563 0 01-.745-.209.686.686 0 01.117-.828 3.588 3.588 0 012.373-1.075 3.195 3.195 0 012.523 1.05.621.621 0 01.022.768zm-.583 71.902a.541.541 0 01-.711.164 1.635 1.635 0 00-.102-.052l-.069-.034a4.362 4.362 0 00-1.714-.433 3.915 3.915 0 00-1.68.299.618.618 0 01-.755-.274.669.669 0 01.077-.824 3.122 3.122 0 012.318-.883c.473.02.938.136 1.366.342.458.223.868.535 1.204.918a.639.639 0 01.067.776l-.001.001zm57.683-108.06a3.933 3.933 0 012.502-.872c.492-.002.98.086 1.441.26.386.142.745.347 1.063.608a.534.534 0 01.108.739.7.7 0 01-.8.22 5.146 5.146 0 00-3.619.003.7.7 0 01-.8-.217.537.537 0 01.106-.743l-.001.001zM91.25 158.65a.658.658 0 01-.76.174l-.047-.02a5.12 5.12 0 00-3.77-.052.705.705 0 01-.81-.223.553.553 0 01.102-.759 3.918 3.918 0 012.524-.896c.497-.001.99.09 1.456.266.469.179.898.45 1.26.798a.516.516 0 01.045.712zm62.652-35.319a.57.57 0 01-.708.22 3.967 3.967 0 00-1.85-.367 4.3 4.3 0 00-1.709.436.577.577 0 01-.755-.214.697.697 0 01.117-.836 3.598 3.598 0 012.385-1.069 3.136 3.136 0 012.492 1.059.635.635 0 01.028.771z" fill="#4D3228"/><path fill="#BE2E21" d="M51.087 98.93h75.414v21.084H51.087z"/><path d="M55.021 115.39v-1.795l1.6-.308v-6.885l-1.6-.308v-1.806h12.857v1.806l-1.59.308v6.885l1.59.308v1.795h-5.88v-1.795l1.293-.308v-6.68h-3.683v6.68l1.293.308v1.795h-5.88zm14.549 0v-1.795l1.602-.308v-6.885l-1.601-.308v-1.806h6.033v1.806l-1.436.308v4.628l.061.01 3.612-6.752h4.587v1.806l-1.59.308v6.885l1.59.308v1.795h-6.023v-1.795l1.436-.308v-4.648l-.062-.01-3.611 6.761H69.57zm24.144 3.294v-3.294h-9.953v-1.795l1.601-.308v-6.885l-1.6-.308v-1.806h5.95v1.806l-1.364.308v6.69h3.673v-6.69l-1.364-.308v-1.806h5.961v1.806l-1.59.318v6.69H96.7l-.205 5.582h-2.78zm14.078 0v-3.294h-9.953v-1.795l1.6-.308v-6.885l-1.6-.308v-1.806h5.951v1.806l-1.364.308v6.69h3.673v-6.69l-1.365-.308v-1.806h5.962v1.806l-1.591.318v6.69h1.673l-.205 5.582h-2.781zm8.137-3.078c-1.102 0-1.977-.294-2.627-.883-.65-.595-.975-1.402-.975-2.421 0-1.04.421-1.888 1.262-2.545.848-.656 2.093-.985 3.735-.985h1.467v-.821c0-.533-.157-.964-.472-1.292-.307-.336-.773-.503-1.395-.503-.322 0-.612.041-.872.123a2.388 2.388 0 00-.688.328l-.236 1.468h-2.154l-.041-2.884a9.302 9.302 0 011.888-.8c.677-.205 1.433-.308 2.267-.308 1.45 0 2.596.339 3.437 1.016.842.677 1.263 1.638 1.263 2.883V113c.006.143.02.287.041.431l1.159.164v1.795h-3.714a13.494 13.494 0 01-.226-.615 3.85 3.85 0 01-.164-.657 4.266 4.266 0 01-1.262 1.088c-.479.267-1.043.4-1.693.4zm.8-2.216c.417 0 .811-.093 1.18-.277.376-.192.67-.442.882-.749v-1.755h-1.477c-.657 0-1.156.15-1.498.451-.335.301-.503.664-.503 1.088 0 .397.123.705.369.924.254.212.602.318 1.047.318zM23.046 91.632v-3.356l2.489-.524V71.691l-2.489-.524v-3.373h10.691v3.373l-2.456.524v15.57h5.927V71.69l-2.488-.524v-3.373h10.675v3.373l-2.456.524v15.57h5.845V71.69l-2.489-.524v-3.373h10.691v3.373l-2.488.524v16.061l2.488.524v3.356h-33.94zm35.004 0v-3.356l2.473-.524V71.691l-2.472-.524v-3.373h19.04v6.876h-4.338l-.13-2.456H66.27v4.896h7.613v4.404H66.27v5.681h6.663l.131-2.57h4.29v7.007H58.05zm21.449 0v-3.356l2.472-.524V71.691l-2.472-.524v-3.373H91.09c1.9 0 3.548.333 4.945.999 1.397.665 2.472 1.593 3.225 2.783.764 1.179 1.146 2.554 1.146 4.126 0 1.572-.382 2.947-1.146 4.126-.753 1.179-1.828 2.095-3.225 2.75-1.397.655-3.045.983-4.945.983h-3.372v4.191l2.472.524v3.356H79.499zm8.219-12.476h3.372c1.168 0 2.052-.316 2.653-.95.61-.643.916-1.467.916-2.471 0-1.037-.305-1.889-.916-2.555-.6-.665-1.485-.998-2.653-.998h-3.372v6.974zm14.145 12.476v-3.356l2.489-.524V71.691l-2.489-.524v-3.373h10.692v3.373l-2.489.524v9.348l.098.033 8.465-8.17v-1.211l-2.456-.524v-3.373h10.691v3.373l-2.456.524v16.061l2.456.524v3.356h-10.691v-3.356l2.456-.524v-9.201l-.098-.033-8.465 8.186v1.048l2.489.524v3.356h-10.692zm34.104 1.474v-3.013l2.473-.507v-1.08h-.115c-2.008 0-3.777-.345-5.305-1.032-1.517-.688-2.701-1.676-3.552-2.964-.852-1.288-1.278-2.827-1.278-4.617 0-1.823.426-3.4 1.278-4.731.862-1.332 2.052-2.364 3.569-3.095 1.517-.731 3.28-1.097 5.288-1.097h.115v-1.13l-2.473-.507V66.32h10.675v3.013l-2.472.508v1.13h.049c2.009 0 3.771.365 5.289 1.096 1.517.72 2.701 1.747 3.552 3.078.863 1.32 1.294 2.893 1.294 4.716 0 1.79-.431 3.334-1.294 4.633-.851 1.288-2.041 2.281-3.569 2.98-1.517.687-3.274 1.031-5.272 1.031h-.049v1.08l2.472.508v3.013h-10.675zm8.203-8.366h.082c1.332 0 2.412-.399 3.242-1.196.84-.807 1.26-2.035 1.26-3.683 0-1.725-.42-3.008-1.26-3.848-.83-.851-1.91-1.277-3.242-1.277l-.082.065v9.939zm-5.845 0h.115V74.8h-.115c-1.321 0-2.407.426-3.258 1.277-.841.84-1.261 2.112-1.261 3.815 0 1.648.42 2.87 1.261 3.668.851.785 1.937 1.178 3.258 1.178z" fill="#fff"/><path fill-rule="evenodd" clip-rule="evenodd" d="M19.333 95.346V85.263l2.488-.524V74.704l-2.488-.524v-10.1H91.09c2.33 0 4.546.41 6.542 1.36.175.084.348.171.518.262V64.08h32.428v5.086a13.627 13.627 0 011.676-.811v-5.749h18.102v5.775c.254.104.505.216.753.335 2.096.997 3.823 2.468 5.07 4.413 1.308 2.01 1.888 4.308 1.888 6.73 0 2.409-.588 4.69-1.911 6.684-1.268 1.918-3.02 3.346-5.121 4.307l-.011.005c-.22.1-.443.194-.668.282v5.681h-18.102v-5.644a14.032 14.032 0 01-.757-.315l-.01-.004a13.323 13.323 0 01-.909-.455v4.945H98.15v-9.674a12.82 12.82 0 01-.54.269 13.848 13.848 0 01-3.707 1.118v8.287h-74.57zm70.857-3.714v-3.356l-2.472-.524v-4.191h3.372c1.9 0 3.548-.328 4.945-.983 1.397-.655 2.472-1.571 3.225-2.75.764-1.18 1.146-2.554 1.146-4.126 0-.364-.02-.718-.061-1.06-.136-1.138-.498-2.16-1.085-3.066a7.142 7.142 0 00-1.11-1.352 8.094 8.094 0 00-2.115-1.431c-1.397-.666-3.045-1-4.945-1H79.5v3.374l2.472.524v16.061l-2.472.524v3.356h10.69zm-11.933-10.72v-2.528h-.66v2.528h.66zm-.903 3.713h-4.29l-.13 2.57h-6.665v-5.68h7.614V77.11h-7.614v-4.895h6.353l.131 2.455h4.339v-6.876H58.05v3.373l2.472.524v16.061l-2.473.524v3.356h19.304v-7.007zM54.498 71.69l2.488-.524v-3.373H46.295v3.373l2.489.524v15.57h-5.845V71.69l2.456-.524v-3.373H34.72v3.373l2.488.524v15.57h-5.927V71.69l2.456-.524v-3.373h-10.69v3.373l2.488.524v16.061l-2.489.524v3.356h33.94v-3.356l-2.488-.524v-16.06zm47.365-.524l2.489.524v16.061l-2.489.524v3.356h10.692v-3.356l-2.489-.524v-1.048l8.465-8.186.098.033v9.201l-2.456.524v3.356h10.691v-3.356l-2.456-.524v-16.06l2.456-.524v-3.373h-10.691v3.373l2.456.524v1.211l-8.465 8.17-.098-.033v-9.348l2.489-.524v-3.373h-10.692v3.373zm28.273 3.099c-.242.281-.464.58-.668.896-.852 1.331-1.278 2.908-1.278 4.731 0 1.79.426 3.33 1.278 4.617a7.832 7.832 0 001.11 1.334 8.303 8.303 0 001.676 1.24c.245.14.501.27.766.39.793.356 1.65.62 2.572.792a14.837 14.837 0 002.733.24h.115v1.08l-2.473.507v3.013h10.675v-3.013l-2.472-.507v-1.08h.049l.173-.002a14.518 14.518 0 002.629-.254 11.08 11.08 0 002.47-.776 9.9 9.9 0 00.815-.42c1.143-.657 2.061-1.51 2.754-2.56.863-1.299 1.294-2.844 1.294-4.633 0-1.823-.431-3.395-1.294-4.716a8.221 8.221 0 00-2.908-2.742 10.586 10.586 0 00-3.118-1.161 13.782 13.782 0 00-2.815-.272h-.049v-1.13l2.472-.507V66.32h-10.675v3.013l2.473.508v1.13h-.232c-.93.006-1.806.092-2.63.257-.912.182-1.759.462-2.541.84a9.93 9.93 0 00-.622.326 8.687 8.687 0 00-1.837 1.394 8.1 8.1 0 00-.442.478zm8.189 10.474h.115V74.8h-.115c-1.321 0-2.407.426-3.258 1.277a3.55 3.55 0 00-.341.395c-.613.826-.92 1.966-.92 3.42 0 1.408.307 2.506.92 3.292.105.135.218.26.341.376.851.785 1.937 1.178 3.258 1.178zm6.793-9.939a5.537 5.537 0 00-.866-.065l-.082.065v9.939h.082c1.332 0 2.412-.399 3.242-1.196a3.38 3.38 0 00.389-.445c.581-.789.871-1.868.871-3.239 0-1.433-.29-2.561-.871-3.384a3.535 3.535 0 00-.389-.463c-.642-.659-1.434-1.063-2.376-1.212zm-44.479 9.938v-.817c-.441.409-.915.78-1.419 1.116l1.419-.299zm-9.208-5.592c-.11.006-.224.01-.34.01h-3.373v-6.975h3.372c.117 0 .23.003.34.01 1.001.06 1.772.389 2.313.989.61.665.916 1.517.916 2.554 0 1.004-.305 1.828-.916 2.472-.54.57-1.311.883-2.312.94z" fill="#4D3228"/></svg>