<svg width="131" height="131" fill="none" xmlns="http://www.w3.org/2000/svg"><path d="M98.25 98.25c18.087-18.087 18.087-47.413 0-65.5-18.087-18.087-47.413-18.087-65.5 0-18.087 18.087-18.087 47.413 0 65.5 18.087 18.087 47.413 18.087 65.5 0z" fill="#A72A1D"/><path d="M66.888 9.972c1.513.565 2.498 1.89 2.51 3.375 0 .204-.018.408-.056.609h-.004c-.164.943-.719 1.789-1.582 2.371a822.753 822.753 0 015.853 8.826c2.596 4.02 5.23 8.157 7.823 12.316 2.138-.014 4.254-.022 6.348-.022 7.183 0 14.086.084 20.52.25a3.74 3.74 0 01.464-.72l1.728 6.432c-.031-.013-.063-.024-.095-.035a.925.925 0 01-.131-.051 1641.484 1641.484 0 01-4.569 8.742c-3.461 3.44-7.434 6.25-12.156 8.087 4.726-1.836 8.695-4.648 12.156-8.087-2.469 4.695-4.832 9.12-7.135 13.367 3.836 6.77 7.88 14.08 12.327 22.283l.001-.001.255.471c.101.189.203.377.306.566.141-.024.282-.04.425-.046l.172-.004c.456.001.907.093 1.327.269 1.399.586 2.276 2.013 2.228 3.637-.051 2.202-1.797 4.07-3.888 4.164-.065.008-.143.008-.219.008-1.676 0-3.085-1.203-3.456-2.9l-.319.013c-8.069.342-16.658.599-25.552.758a846.187 846.187 0 01-12.71 20.665h.003c-.208.327-.42.661-.627.99l-.163.258a3.42 3.42 0 01.73 2.124c-.02 2.014-1.845 3.657-4.073 3.656-2.228-.001-4.056-1.641-4.075-3.654a3.402 3.402 0 01.73-2.117c-.127-.2-.256-.404-.384-.609l-.001-.001-.13-.206c-.048-.078-.098-.156-.147-.233h-.003a856.207 856.207 0 01-12.844-20.876c-8.706-.157-17.123-.409-25.057-.742l-3.396-6.661c4.348-8.008 8.31-15.17 12.07-21.814a1328.042 1328.042 0 01-7.603-14.266 1792.56 1792.56 0 01-4.024-7.707 3.767 3.767 0 01-.95.24s3.192-6.032 3.213-5.997c3.841-.092 7.813-.162 11.81-.21a1141.668 1141.668 0 0114.677-.01 902.913 902.913 0 017.822-12.316 918.13 918.13 0 015.85-8.837 3.66 3.66 0 01-1.536-2.13h.003a3.417 3.417 0 01-.102-.85c.02-2.011 1.848-3.653 4.074-3.653a4.439 4.439 0 011.562.278zm-47.35 25.685c.449 0 .894.088 1.309.26a3.563 3.563 0 011.86 1.744l-3.192 6.032-.108.017c-.076.013-.152.026-.228.026l-.16.004a3.465 3.465 0 01-2.45-1.015c-.753-.745-1.152-1.771-1.124-2.895.055-2.204 1.804-4.072 3.899-4.167.057-.006.125-.006.194-.006zm92.426 8.088h-.12a3.732 3.732 0 01-1.35-.34l-1.728-6.431a3.473 3.473 0 012.818-1.306l.097.003a3.799 3.799 0 011.494.383c1.414.69 2.353 2.173 2.393 3.781.028 1.126-.372 2.155-1.123 2.897a3.508 3.508 0 01-2.481 1.013z" fill="#E9BC49"/><path d="M19.206 88.746a3.07 3.07 0 00-.38-.04h-.156a3.467 3.467 0 00-2.45 1.006c-.752.743-1.15 1.77-1.124 2.894.055 2.203 1.802 4.07 3.883 4.165.073.005.147.007.22.007 1.709 0 3.095-1.178 3.466-2.902l.753.03-3.396-6.662-.816 1.502z" fill="#E9BC49"/><path d="M62.462 31.692c-.24-1.116.515-2.025 1.442-2.231.583-.137 1.099 0 1.51.309.344.24.653.635.755 1.133.395 1.802-1.681 2.917-2.952 1.939-.394-.31-.652-.635-.755-1.15zm3.365 7.98c-.24-1.115.515-2.025 1.442-2.23.583-.121 1.115 0 1.51.308.344.24.652.635.755 1.133.394 1.802-1.682 2.917-2.952 1.94-.395-.31-.652-.636-.755-1.15zm26.885 30.6c-.927.206-1.682 1.115-1.443 2.231.103.515.361.84.756 1.15 1.27.978 3.346-.138 2.952-1.94a1.862 1.862 0 00-.755-1.132 1.766 1.766 0 00-1.51-.31zm-49.455-.17c-.24-1.115.515-2.025 1.442-2.23.583-.138 1.098 0 1.51.308.343.24.652.635.755 1.133.394 1.802-1.682 2.917-2.952 1.94-.395-.31-.653-.636-.755-1.15zm13.445-28.638c-.927.206-1.682 1.116-1.442 2.231.102.515.36.841.755 1.15 1.27.978 3.346-.137 2.952-1.94a1.862 1.862 0 00-.755-1.132c-.412-.309-.927-.446-1.51-.309zm37.93 39.019c-.24-1.115.516-2.025 1.442-2.23.584-.121 1.116 0 1.51.308.344.24.653.635.756 1.133.394 1.802-1.682 2.917-2.953 1.94-.394-.31-.652-.636-.755-1.15zm-46.57-4.631c-.927.206-1.682 1.115-1.443 2.23.103.515.36.842.755 1.15 1.27.979 3.347-.137 2.953-1.939a1.862 1.862 0 00-.755-1.133c-.395-.308-.927-.429-1.51-.308zm10.56-24.177c-.24-1.115.516-2.025 1.443-2.23.583-.12 1.115 0 1.51.308.343.24.652.635.755 1.133.394 1.802-1.682 2.917-2.953 1.94-.394-.31-.652-.636-.755-1.15z" fill="#D5AA3D"/><path d="M50.645 40.04c.268-.152.493-.37.655-.632a973.96 973.96 0 0113.143-22.78.445.445 0 01-.048-.013l-.039-.011 1.86.027a986.252 986.252 0 0113.128 22.74 1.834 1.834 0 001.496.917c9.987.31 18.623.67 26.25 1.037-2.71 4.898-5.511 9.9-8.403 15.008 1.803-4.276 3.557-8.489 5.263-12.637-7.11-.308-15.104-.625-24.318-.913a1.668 1.668 0 01-1.382-.92 1123.413 1123.413 0 00-12.92-24.15 1122.119 1122.119 0 00-12.932 24.189c-.31.54-.835.866-1.414.872-8.3.233-16.469.538-24.269.91a1461.868 1461.868 0 008.001 17.466c-3.87-6.77-7.591-13.414-11.146-19.836 8.37-.432 17.202-.778 26.197-1.037.308-.004.61-.086.878-.238zm1.267 49.52c.247.139.454.338.602.578a892.477 892.477 0 0012.09 20.87.317.317 0 00-.045.012l-.035.01.855 1.2.855-1.225a903.775 903.775 0 0012.075-20.833 1.683 1.683 0 011.377-.84c9.185-.285 18.929-.613 25.944-.95a1625.7 1625.7 0 00-7.729-13.75 1384.99 1384.99 0 014.841 11.578c-6.54.282-15.693.572-24.168.836a1.54 1.54 0 00-1.271.844 1027.234 1027.234 0 01-11.883 22.124 1027.38 1027.38 0 01-11.896-22.16c-.285-.496-.767-.794-1.3-.8-7.634-.213-16.949-.493-24.123-.834a1343.392 1343.392 0 017.36-16.001c-3.56 6.203-6.983 12.29-10.253 18.173 7.698.396 17.623.712 25.897.95.283.003.56.078.807.217z" fill="#D4AA3D"/><path fill-rule="evenodd" clip-rule="evenodd" d="M60.562 13.34c.024-2.392 2.16-4.338 4.764-4.338a5.147 5.147 0 011.808.322c1.784.665 2.946 2.242 2.96 4.015a4.168 4.168 0 01-1.4 3.134A834.404 834.404 0 0174.2 24.78a945.947 945.947 0 017.623 11.996c2.008-.013 3.997-.019 5.967-.019 7.036 0 13.8.08 20.119.239a4.232 4.232 0 013.586-2.018c.04 0 .081.002.119.003l.097.002c.616.028 1.22.182 1.774.453 1.643.8 2.734 2.522 2.78 4.386.032 1.318-.44 2.527-1.33 3.406a4.189 4.189 0 01-2.965 1.21h-.15a4.305 4.305 0 01-1.23-.231 1434.147 1434.147 0 01-11.232 21.217 1432.3 1432.3 0 0112.488 22.59c.069-.004.138-.004.206-.004.548 0 1.089.11 1.594.322 1.664.697 2.706 2.38 2.658 4.29-.064 2.56-2.106 4.73-4.526 4.84-.092.01-.184.01-.275.01-1.815 0-3.37-1.166-3.975-2.877-7.892.333-16.282.582-24.96.742a842.634 842.634 0 01-13.07 21.216c.395.646.6 1.389.594 2.145-.024 2.392-2.16 4.34-4.764 4.338-2.605-.002-4.742-1.947-4.765-4.339-.006-.753.2-1.493.594-2.134a845.868 845.868 0 01-13.076-21.23 1056.37 1056.37 0 01-24.903-.741c-.609 1.713-2.164 2.88-3.979 2.88-.086 0-.172-.003-.24-.008-2.446-.114-4.488-2.284-4.552-4.84-.032-1.316.44-2.525 1.326-3.4a4.155 4.155 0 012.938-1.21h.148a1412.797 1412.797 0 0112.486-22.588A1395.454 1395.454 0 0120.12 44.294a4.202 4.202 0 01-.9.133c-.067.005-.134.005-.2.005a4.153 4.153 0 01-2.938-1.218c-.888-.88-1.36-2.088-1.325-3.402.063-2.56 2.107-4.73 4.533-4.84a4.142 4.142 0 011.814.303c.844.34 1.555.944 2.028 1.72 3.716-.086 7.546-.153 11.406-.2a1146.952 1146.952 0 0114.298-.013c2.55-4.085 5.114-8.12 7.626-12.003a826.127 826.127 0 015.5-8.304 4.167 4.167 0 01-1.4-3.135zm2.797 3.527l.307-.456.065-.096c.252.123.517.219.79.286l1.859.028c.21-.051.415-.118.614-.2a818.877 818.877 0 013.418 5.12 947.07 947.07 0 012.437 4.14 997.522 997.522 0 017.623 13.106.667.667 0 00.555.334c9.465.305 18.724.683 27.462 1.124.047.223.113.443.197.655A1569.587 1569.587 0 0195.32 64.683a1.555 1.555 0 00-.013 1.52c4.5 8.177 8.793 16.194 12.853 23.894-8.62.255-17.756.415-27.073.481a1.958 1.958 0 00-1.658.95 1056.489 1056.489 0 01-6.243 10.332l-.267.468-3 4.801-4.502 6.902-4.5-7.202-1.277-2.288c.437.818.874 1.631 1.309 2.44a1100.747 1100.747 0 01-9.398-15.443 1.957 1.957 0 00-1.66-.959c-9.319-.065-18.454-.226-27.078-.484 4.06-7.7 8.35-15.719 12.838-23.873a1.56 1.56 0 000-1.54 1578.454 1578.454 0 01-13.162-23.414c.171-.327.297-.675.374-1.037 3.844-.196 7.787-.373 11.8-.53 4.996-.22 10.1-.41 15.259-.57a.678.678 0 00.58-.334 929.632 929.632 0 017.624-13.108 871.86 871.86 0 015.233-8.822zm46.765 20.66a2.328 2.328 0 011.728-.643c.35.017.693.105 1.008.26a2.8 2.8 0 01.884.678.471.471 0 01.047.571.388.388 0 01-.518.117l-.043-.023-.035-.018a3.19 3.19 0 00-1.31-.347 2.92 2.92 0 00-1.251.22.468.468 0 01-.568-.204.485.485 0 01.057-.615l.001.005zm-88.745.687a.433.433 0 01-.535.162 2.978 2.978 0 00-1.38-.269c-.438.02-.868.13-1.26.325a.416.416 0 01-.552-.155.508.508 0 01.086-.613 2.656 2.656 0 011.757-.796 2.364 2.364 0 011.867.778.46.46 0 01.016.568zm-.433 53.216a.401.401 0 01-.526.121c-.025-.014-.05-.026-.075-.038-.017-.009-.035-.017-.05-.026a3.237 3.237 0 00-1.27-.32 2.883 2.883 0 00-1.243.222.458.458 0 01-.559-.203.495.495 0 01.057-.61 2.31 2.31 0 011.715-.654c.351.015.695.101 1.011.253.34.165.643.396.892.68a.475.475 0 01.05.574l-.002.001zm42.692-79.977a2.912 2.912 0 011.852-.645 3.01 3.01 0 011.067.192c.285.105.551.258.786.45a.396.396 0 01.08.547.519.519 0 01-.591.163 3.81 3.81 0 00-2.679.002.517.517 0 01-.592-.16.397.397 0 01.078-.55zm3.897 105.966a.484.484 0 01-.562.129l-.035-.015c-.032-.013-.064-.027-.098-.039a3.793 3.793 0 00-2.692 0 .519.519 0 01-.6-.165.408.408 0 01.076-.562 2.898 2.898 0 011.868-.662c.368-.001.733.066 1.077.197.348.132.665.332.933.59a.384.384 0 01.033.527zm46.37-26.14a.424.424 0 01-.524.163 2.937 2.937 0 00-1.37-.271c-.439.018-.87.128-1.264.322a.426.426 0 01-.559-.159.513.513 0 01.087-.619 2.659 2.659 0 011.765-.79 2.315 2.315 0 011.844.784.466.466 0 01.021.57z" fill="#4D3228"/><path fill="#BE2E21" d="M37.81 73.22h55.815v15.604H37.81z"/><path d="M40.722 85.402v-1.33l1.185-.227V78.75l-1.185-.227v-1.337h9.515v1.337l-1.177.227v5.096l1.177.228v1.329h-4.351v-1.33l.957-.227v-4.944h-2.727v4.944l.957.228v1.329h-4.351zm10.768 0v-1.33l1.185-.227V78.75l-1.185-.227v-1.337h4.466v1.337l-1.064.227v3.425l.046.008 2.673-4.997h3.395v1.337l-1.177.227v5.096l1.177.228v1.329h-4.458v-1.33l1.063-.227v-3.44l-.045-.008-2.674 5.005H51.49zm17.87 2.438v-2.438h-7.367v-1.33l1.185-.227V78.75l-1.185-.227v-1.337h4.404v1.337l-1.01.227v4.952h2.72V78.75l-1.01-.228v-1.337h4.411v1.337l-1.177.235v4.951h1.238l-.152 4.132H69.36zm10.418 0v-2.438h-7.366v-1.33l1.185-.227V78.75l-1.185-.227v-1.337h4.404v1.337l-1.01.227v4.952h2.72V78.75l-1.01-.228v-1.337h4.411v1.337l-1.177.235v4.951h1.238l-.152 4.132h-2.058zm6.022-2.279c-.815 0-1.463-.217-1.944-.653-.48-.44-.721-1.038-.721-1.792 0-.77.311-1.397.934-1.883.628-.486 1.55-.73 2.764-.73h1.086v-.607c0-.395-.116-.714-.35-.957-.227-.248-.571-.372-1.032-.372-.238 0-.453.03-.646.091a1.748 1.748 0 00-.508.243l-.175 1.086h-1.595l-.03-2.134c.43-.243.896-.44 1.397-.592a5.775 5.775 0 011.678-.228c1.074 0 1.922.25 2.544.752.623.501.934 1.213.934 2.134v3.713c.006.107.016.213.03.32l.86.12v1.33h-2.75a11.284 11.284 0 01-.167-.456 2.842 2.842 0 01-.122-.486 3.148 3.148 0 01-.934.805c-.354.198-.772.296-1.253.296zm.593-1.64c.308 0 .6-.068.873-.205.278-.142.496-.327.653-.554v-1.299h-1.093c-.486 0-.856.111-1.11.334a1.044 1.044 0 00-.371.805c0 .294.09.522.273.684.187.157.446.235.775.235zM17.057 67.818v-2.484l1.842-.388V53.06l-1.842-.388v-2.496h7.912v2.496l-1.817.388v11.524h4.386V53.059l-1.841-.388v-2.496h7.9v2.496l-1.818.388v11.524h4.326V53.059l-1.841-.388v-2.496h7.912v2.496l-1.842.388v11.887l1.842.388v2.484h-25.12zm25.907 0v-2.484l1.83-.388V53.06l-1.83-.388v-2.496h14.093v5.09h-3.212l-.096-1.818h-4.702v3.623h5.635v3.26h-5.635v4.204h4.932l.097-1.902h3.175v5.186H42.964zm15.874 0v-2.484l1.83-.388V53.06l-1.83-.388v-2.496h8.58c1.405 0 2.625.246 3.659.74 1.034.492 1.83 1.179 2.387 2.06.565.872.848 1.89.848 3.053s-.283 2.181-.848 3.053c-.558.873-1.353 1.551-2.387 2.036-1.034.485-2.254.727-3.66.727h-2.496v3.102l1.83.388v2.484h-7.913zm6.083-9.233h2.496c.864 0 1.519-.235 1.963-.703.453-.477.679-1.087.679-1.83 0-.767-.226-1.398-.679-1.89-.444-.493-1.099-.74-1.963-.74h-2.496v5.163zm10.469 9.233v-2.484l1.842-.388V53.06l-1.841-.388v-2.496h7.912v2.496l-1.842.388v6.92l.073.023 6.265-6.046v-.897l-1.818-.388v-2.496h7.913v2.496l-1.818.388v11.887l1.818.388v2.484H85.98v-2.484l1.818-.388v-6.81l-.073-.024-6.265 6.059v.775l1.842.388v2.484H75.39zm25.241 1.091v-2.23l1.83-.376v-.8h-.085c-1.486 0-2.795-.254-3.926-.763-1.123-.509-2-1.24-2.63-2.193-.63-.953-.945-2.092-.945-3.417 0-1.35.316-2.517.946-3.502.638-.986 1.518-1.749 2.641-2.29 1.123-.541 2.428-.812 3.914-.812h.085v-.836l-1.83-.376v-2.23h7.901v2.23l-1.83.376v.836h.036c1.487 0 2.792.27 3.914.812 1.123.533 2 1.292 2.63 2.278.638.977.957 2.14.957 3.49 0 1.325-.319 2.468-.957 3.429-.63.953-1.511 1.688-2.642 2.205-1.123.51-2.423.764-3.902.764h-.036v.8l1.83.375v2.23h-7.901zm6.071-6.192h.061c.985 0 1.785-.295 2.399-.885.622-.598.933-1.507.933-2.726 0-1.277-.311-2.226-.933-2.848-.614-.63-1.414-.945-2.399-.945l-.061.048v7.356zm-4.326 0h.085V55.36h-.085c-.977 0-1.781.315-2.411.946-.622.621-.933 1.563-.933 2.823 0 1.22.31 2.124.933 2.714.63.582 1.434.873 2.411.873z" fill="#fff"/><path fill-rule="evenodd" clip-rule="evenodd" d="M14.308 70.567v-7.463l1.842-.387v-7.428l-1.842-.388v-7.474h53.11c1.723 0 3.363.302 4.84 1.007.13.061.258.126.384.193v-1.2h24v3.765a10.087 10.087 0 011.241-.6v-4.256h13.397v4.275c.188.077.374.16.558.248 1.551.737 2.829 1.826 3.752 3.265.968 1.488 1.397 3.189 1.397 4.982 0 1.782-.435 3.471-1.414 4.947-.938 1.419-2.235 2.476-3.79 3.187l-.008.004c-.163.074-.328.143-.495.209v4.204H97.883V67.48a10.63 10.63 0 01-.56-.233l-.007-.003a9.872 9.872 0 01-.674-.337v3.66h-24v-7.16c-.13.07-.264.136-.399.199a10.23 10.23 0 01-2.744.828v6.133h-55.19zm52.443-2.749v-2.484l-1.83-.388v-3.102h2.496c1.406 0 2.626-.242 3.66-.727 1.034-.484 1.83-1.163 2.387-2.035.565-.873.848-1.89.848-3.054 0-.27-.015-.53-.046-.785a5.258 5.258 0 00-1.009-2.572 5.245 5.245 0 00-.615-.697 5.99 5.99 0 00-1.565-1.06c-1.034-.492-2.254-.739-3.66-.739h-8.58v2.497l1.83.387v11.888l-1.83.387v2.484h7.914zm-8.832-7.934v-1.871h-.49v1.87h.49zm-.668 2.748h-3.175l-.097 1.902h-4.932V60.33h5.635v-3.26h-5.635v-3.623h4.702l.096 1.818h3.212v-5.09H42.964v2.497l1.83.387v11.888l-1.83.387v2.484h14.287v-5.186zM40.335 53.06l1.841-.387v-2.497h-7.912v2.497l1.841.387v11.524H31.78V53.059l1.817-.387v-2.497h-7.9v2.497l1.841.387v11.524h-4.386V53.059l1.817-.387v-2.497h-7.912v2.497l1.842.387v11.888l-1.842.387v2.484h25.12v-2.484l-1.843-.388V53.06zm35.056-.387l1.841.387v11.888l-1.841.387v2.484h7.912v-2.484l-1.842-.388v-.775l6.265-6.059.073.024v6.81l-1.818.388v2.484h7.913v-2.484l-1.818-.388V53.06l1.818-.387v-2.497H85.98v2.497l1.818.387v.897l-6.265 6.047-.073-.025V53.06l1.842-.387v-2.497H75.39v2.497zm20.924 2.293c-.178.209-.343.43-.494.663-.63.986-.946 2.153-.946 3.502 0 1.325.316 2.464.946 3.417a5.854 5.854 0 00.821.987c.365.35.778.657 1.241.919.181.102.37.198.567.287.587.264 1.221.46 1.904.587a10.97 10.97 0 002.022.177h.085v.8l-1.83.375v2.23h7.901v-2.23l-1.83-.375v-.8h.164a10.76 10.76 0 001.946-.189 8.203 8.203 0 001.828-.575c.21-.095.411-.199.604-.31a5.976 5.976 0 002.038-1.895c.638-.961.957-2.104.957-3.43 0-1.348-.319-2.511-.957-3.489a6.09 6.09 0 00-2.152-2.03 7.84 7.84 0 00-2.308-.86 10.198 10.198 0 00-2.084-.2h-.036v-.836l1.83-.376v-2.23h-7.901v2.23l1.83.376v.836h-.172c-.688.005-1.336.069-1.946.19a7.878 7.878 0 00-1.88.622 7.309 7.309 0 00-.461.242 6.446 6.446 0 00-1.687 1.385zm6.061 7.752h.085v-7.355h-.085c-.977 0-1.781.315-2.411.945-.09.09-.175.188-.252.292-.454.61-.681 1.455-.681 2.531 0 1.042.227 1.854.68 2.437.078.099.162.191.253.277.63.582 1.434.873 2.411.873zm5.028-7.355a4.087 4.087 0 00-.641-.049l-.061.049v7.355h.061c.985 0 1.785-.295 2.399-.885.105-.1.201-.21.288-.329.43-.584.645-1.383.645-2.397 0-1.061-.215-1.896-.645-2.505a3.053 3.053 0 00-2.046-1.24zm-32.92 7.355v-.605a8.33 8.33 0 01-1.05.826l1.05-.221zm-6.815-4.14a4.406 4.406 0 01-.252.008h-2.496v-5.162h2.496c.086 0 .17.002.252.007.74.044 1.311.288 1.711.732.453.493.679 1.123.679 1.89 0 .743-.227 1.353-.679 1.83-.4.422-.97.654-1.71.696z" fill="#4D3228"/></svg>