<svg width="70" height="70" fill="none" xmlns="http://www.w3.org/2000/svg"><path d="M68.957 63.52l-13.52-13.504a30.94 30.94 0 00-3.903-42.248A31.02 31.02 0 009.079 9.07a30.944 30.944 0 00-1.303 42.407 31.024 31.024 0 0042.294 3.9l13.521 13.505c.688.7 1.623 1.1 2.605 1.119a3.703 3.703 0 002.605-1.119 3.773 3.773 0 00.156-5.36zm-37.824-9.159a23.307 23.307 0 01-12.938-3.92A23.269 23.269 0 019.617 40a23.239 23.239 0 015.048-25.352 23.313 23.313 0 0125.38-5.043 23.283 23.283 0 0110.452 8.568A23.245 23.245 0 0154.422 31.1a23.276 23.276 0 01-6.83 16.441 23.328 23.328 0 01-16.46 6.821z" fill="#fff"/></svg>