<svg width="100" height="100" fill="none" xmlns="http://www.w3.org/2000/svg"><path d="M75 75c13.807-13.807 13.807-36.193 0-50-13.807-13.807-36.193-13.807-50 0-13.807 13.807-13.807 36.193 0 50 13.807 13.807 36.193 13.807 50 0z" fill="#A72A1D"/><path d="M51.059 7.612c1.155.432 1.908 1.443 1.917 2.576 0 .156-.015.312-.043.465h-.003c-.126.72-.55 1.366-1.208 1.81a629.727 629.727 0 014.468 6.738 692.351 692.351 0 015.971 9.401c1.633-.01 3.248-.016 4.846-.016 5.484 0 10.753.064 15.664.19.097-.196.216-.38.355-.55l1.319 4.91a.971.971 0 00-.073-.026c-.033-.011-.067-.022-.1-.04a1261.31 1261.31 0 01-3.487 6.674c-2.642 2.626-5.675 4.772-9.28 6.174 3.608-1.402 6.638-3.548 9.28-6.174a918.784 918.784 0 01-5.447 10.204 1042.977 1042.977 0 019.41 17.01l.195.36c.078.143.155.287.234.43.107-.018.215-.03.324-.034l.132-.003c.347 0 .692.07 1.012.205 1.069.447 1.738 1.537 1.701 2.777-.039 1.68-1.372 3.106-2.968 3.178-.05.006-.109.006-.167.006-1.28 0-2.355-.918-2.638-2.213l-.243.009c-6.16.261-12.716.457-19.506.58a644.943 644.943 0 01-9.702 15.773h.002l-.479.757-.124.197c.363.462.56 1.033.557 1.62-.015 1.538-1.408 2.792-3.109 2.791-1.7 0-3.096-1.252-3.11-2.789a2.596 2.596 0 01.557-1.616 78.887 78.887 0 01-.294-.465l-.099-.157-.112-.179h-.003a652.845 652.845 0 01-9.804-15.936 800.772 800.772 0 01-19.128-.566l-2.593-5.085c3.32-6.113 6.344-11.58 9.215-16.651a1010.873 1010.873 0 01-5.804-10.89c-1-1.901-2.018-3.854-3.072-5.884a2.876 2.876 0 01-.726.184s2.437-4.605 2.453-4.578c2.932-.07 5.965-.124 9.016-.16a876.296 876.296 0 0111.204-.009c1.998-3.2 4.006-6.366 5.97-9.4a690.191 690.191 0 014.466-6.747 2.793 2.793 0 01-1.173-1.625h.003a2.606 2.606 0 01-.078-.649c.015-1.536 1.41-2.79 3.11-2.79.407 0 .81.071 1.192.213zM14.914 27.219c.343 0 .682.067 1 .198a2.72 2.72 0 011.42 1.332l-2.438 4.605a2.318 2.318 0 00-.082.013 1.02 1.02 0 01-.174.02l-.122.002a2.646 2.646 0 01-1.87-.775c-.575-.569-.88-1.352-.858-2.21.042-1.682 1.377-3.108 2.976-3.18.043-.005.095-.005.148-.005zm70.554 6.174h-.091a2.845 2.845 0 01-1.03-.259l-1.32-4.91a2.647 2.647 0 012.078-.998l.073.001.075.002c.396.019.784.118 1.14.293 1.08.526 1.796 1.659 1.826 2.887.022.859-.283 1.644-.857 2.211a2.675 2.675 0 01-1.894.773zM14.661 67.745a2.335 2.335 0 00-.29-.031h-.12a2.646 2.646 0 00-1.87.769c-.574.567-.878 1.351-.858 2.209.043 1.68 1.376 3.107 2.965 3.18.056.003.112.004.167.004 1.305 0 2.363-.899 2.646-2.215l.575.022-2.593-5.085-.622 1.147z" fill="#E9BC49"/><path d="M47.681 24.192c-.183-.851.394-1.545 1.101-1.703.445-.104.839 0 1.153.236.262.184.498.485.576.865.301 1.375-1.284 2.227-2.253 1.48-.302-.236-.498-.485-.577-.878zm2.569 6.092c-.183-.851.393-1.546 1.1-1.703.446-.091.852 0 1.153.236.263.183.498.485.577.865.3 1.375-1.284 2.227-2.254 1.48-.301-.236-.498-.485-.576-.878zm20.523 23.359c-.708.157-1.284.851-1.101 1.703.078.393.275.642.576.878.97.746 2.555-.105 2.254-1.48a1.421 1.421 0 00-.577-.865 1.345 1.345 0 00-1.152-.236zm-37.753-.13c-.182-.851.394-1.545 1.101-1.703.446-.105.84 0 1.153.236.262.184.498.485.577.865.3 1.375-1.284 2.227-2.254 1.48-.301-.236-.498-.485-.576-.878zm10.264-21.861c-.707.157-1.284.852-1.1 1.703.078.393.274.642.576.878.97.747 2.554-.105 2.253-1.48a1.42 1.42 0 00-.576-.865 1.348 1.348 0 00-1.153-.236zm28.955 29.786c-.183-.852.393-1.546 1.1-1.703.446-.092.852 0 1.153.236.263.183.498.484.577.864.301 1.376-1.284 2.227-2.254 1.48-.301-.235-.498-.484-.576-.877zm-35.551-3.536c-.707.157-1.283.852-1.1 1.703.078.393.275.642.576.878.97.747 2.555-.105 2.254-1.48a1.421 1.421 0 00-.577-.865c-.3-.236-.707-.328-1.153-.236zm8.062-18.455c-.183-.852.394-1.546 1.101-1.703.445-.092.852 0 1.153.236.262.183.498.485.576.864.301 1.376-1.284 2.227-2.253 1.48-.301-.235-.498-.484-.577-.877z" fill="#D5AA3D"/><path d="M38.66 30.564c.205-.116.377-.282.5-.482 3.39-6.06 6.78-11.928 10.032-17.39a.161.161 0 01-.036-.01l-.03-.008 1.42.021a752.773 752.773 0 0110.021 17.359 1.402 1.402 0 001.143.7c7.623.237 14.215.511 20.037.792a1351.094 1351.094 0 01-6.414 11.456 1171.58 1171.58 0 004.018-9.646c-5.427-.236-11.53-.477-18.563-.698a1.273 1.273 0 01-1.056-.702 857.208 857.208 0 00-9.861-18.435 856.452 856.452 0 00-9.873 18.465c-.237.413-.637.661-1.079.666-6.336.178-12.572.41-18.526.695 1.96 4.348 3.997 8.81 6.108 13.333a1268.707 1268.707 0 01-8.509-15.142c6.389-.33 13.13-.594 19.998-.792.235-.003.465-.065.67-.181zm.967 37.802c.188.106.346.258.46.442a681.062 681.062 0 009.228 15.93.323.323 0 00-.034.01l-.027.008.653.916.653-.936c2.988-4.993 6.1-10.36 9.217-15.902a1.286 1.286 0 011.051-.642c7.012-.217 14.45-.468 19.805-.725-1.903-3.425-3.87-6.924-5.9-10.496 1.266 2.99 2.498 5.937 3.696 8.838-4.992.216-11.98.437-18.449.639a1.174 1.174 0 00-.97.643 784.324 784.324 0 01-9.072 16.89 783.537 783.537 0 01-9.08-16.917c-.218-.379-.586-.606-.993-.61-5.827-.163-12.938-.377-18.414-.637a1025.41 1025.41 0 015.618-12.215 1160.02 1160.02 0 00-7.826 13.873c5.876.302 13.452.544 19.768.725.216.002.428.06.616.166z" fill="#D4AA3D"/><path fill-rule="evenodd" clip-rule="evenodd" d="M46.23 10.183c.018-1.826 1.65-3.31 3.637-3.31.47-.003.938.08 1.38.245 1.361.508 2.249 1.71 2.26 3.065a3.182 3.182 0 01-1.069 2.392 638.439 638.439 0 014.202 6.341 722.83 722.83 0 015.82 9.157c1.532-.01 3.05-.014 4.554-.014 5.37 0 10.535.061 15.358.182a3.232 3.232 0 012.737-1.54l.091.002.074.002c.47.02.932.138 1.354.346 1.255.61 2.088 1.925 2.123 3.348.024 1.005-.337 1.928-1.015 2.6a3.2 3.2 0 01-2.264.923h-.115a3.283 3.283 0 01-.938-.176 1094.832 1094.832 0 01-8.575 16.196 1086.05 1086.05 0 019.533 17.245c.053-.004.106-.004.158-.004.418 0 .831.084 1.217.246 1.27.532 2.065 1.817 2.029 3.275-.05 1.955-1.609 3.611-3.455 3.695-.07.007-.14.007-.21.007-1.386 0-2.573-.89-3.035-2.196a808.32 808.32 0 01-19.053.566 643.078 643.078 0 01-9.977 16.196 3.09 3.09 0 01.453 1.637c-.018 1.826-1.649 3.313-3.637 3.311-1.988 0-3.62-1.486-3.637-3.311a3.066 3.066 0 01.454-1.63 644.836 644.836 0 01-9.982-16.206 803.368 803.368 0 01-19.01-.566c-.465 1.308-1.652 2.199-3.037 2.199a2.53 2.53 0 01-.184-.006c-1.867-.087-3.425-1.743-3.475-3.694-.024-1.005.336-1.928 1.013-2.596a3.173 3.173 0 012.242-.924h.114a1078.583 1078.583 0 019.53-17.243c-2.69-4.975-5.49-10.26-8.538-16.13a3.212 3.212 0 01-.687.1c-.05.004-.102.004-.152.004a3.17 3.17 0 01-2.243-.93c-.678-.671-1.037-1.593-1.012-2.596.049-1.954 1.609-3.611 3.461-3.695a3.161 3.161 0 011.385.232c.644.26 1.187.72 1.548 1.313 2.836-.066 5.76-.118 8.706-.153a869.848 869.848 0 0110.915-.01 684.91 684.91 0 015.821-9.163 632.718 632.718 0 014.2-6.339 3.181 3.181 0 01-1.07-2.393zm2.135 2.693l.235-.349.049-.073c.193.094.395.167.603.218l1.42.022c.16-.04.316-.09.468-.153.87 1.294 1.742 2.6 2.609 3.91.616 1.04 1.236 2.093 1.86 3.159a761.383 761.383 0 015.82 10.004.51.51 0 00.423.256c7.225.232 14.293.52 20.964.857.036.171.086.338.15.5a1199.45 1199.45 0 01-10.203 18.15 1.188 1.188 0 00-.01 1.16 1158.044 1158.044 0 019.812 18.24 925.59 925.59 0 01-20.667.367 1.495 1.495 0 00-1.266.725 816.286 816.286 0 01-4.765 7.887l-.204.357-2.29 3.665-3.437 5.268L46.5 81.55l-.974-1.747c.334.625.667 1.246 1 1.863a838.966 838.966 0 01-7.175-11.789 1.495 1.495 0 00-1.266-.732 906.238 906.238 0 01-20.671-.37 1175.11 1175.11 0 019.8-18.223 1.192 1.192 0 000-1.175 1209.163 1209.163 0 01-10.047-17.873 3.1 3.1 0 00.285-.792c2.935-.15 5.944-.285 9.008-.405a877.09 877.09 0 0111.648-.435.515.515 0 00.442-.255 709.91 709.91 0 015.82-10.006 681.71 681.71 0 013.995-6.734zm35.698 15.771a1.78 1.78 0 011.32-.491c.267.013.529.08.77.198.256.126.486.302.674.518a.363.363 0 01.036.436.297.297 0 01-.395.089 1.138 1.138 0 00-.034-.018l-.026-.013a2.43 2.43 0 00-1-.265 2.23 2.23 0 00-.955.167.358.358 0 01-.434-.155.37.37 0 01.044-.47v.004zm-67.744.524a.33.33 0 01-.408.123 2.272 2.272 0 00-1.054-.205c-.334.015-.662.1-.962.248a.318.318 0 01-.42-.118.388.388 0 01.065-.468c.355-.363.834-.58 1.341-.607a1.806 1.806 0 011.425.594.351.351 0 01.013.433zm-.33 40.623a.306.306 0 01-.401.092l-.058-.029-.039-.02a2.473 2.473 0 00-.968-.243 2.202 2.202 0 00-.95.168.35.35 0 01-.426-.155.378.378 0 01.044-.465 1.764 1.764 0 011.309-.5c.268.012.53.078.772.194.259.126.49.302.68.519a.362.362 0 01.038.438v.001zM48.58 8.742c.4-.322.9-.496 1.413-.492.278 0 .554.049.815.147.217.08.42.196.6.343a.302.302 0 01.061.418.396.396 0 01-.452.124 2.907 2.907 0 00-2.044.002.396.396 0 01-.453-.123.304.304 0 01.06-.42v.001zm2.974 80.89a.372.372 0 01-.43.1l-.026-.012-.075-.03a2.895 2.895 0 00-2.054 0 .395.395 0 01-.458-.126.312.312 0 01.057-.429c.401-.33.906-.51 1.426-.506.281 0 .56.051.823.15.265.102.507.255.712.451a.293.293 0 01.025.403zM86.95 69.68a.324.324 0 01-.4.124 2.242 2.242 0 00-1.045-.207 2.436 2.436 0 00-.966.246.324.324 0 01-.426-.121.391.391 0 01.066-.472 2.031 2.031 0 011.347-.604 1.766 1.766 0 011.408.598.357.357 0 01.016.436z" fill="#4D3228"/><path fill="#BE2E21" d="M28.862 55.893h42.607v11.912H28.862z"/><path d="M31.085 65.192v-1.014l.904-.174v-3.89l-.904-.174v-1.02h7.264v1.02l-.899.174v3.89l.899.174v1.014h-3.322v-1.014l.73-.174V60.23h-2.08v3.774l.73.174v1.014h-3.322zm8.22 0v-1.014l.904-.174v-3.89l-.904-.174v-1.02h3.409v1.02l-.812.174v2.615l.035.005 2.04-3.814h2.592v1.02l-.899.174v3.89l.899.174v1.014h-3.403v-1.014l.812-.174v-2.626l-.035-.006-2.04 3.82h-2.598zm13.641 1.861v-1.86h-5.624v-1.015l.905-.174v-3.89l-.905-.174v-1.02h3.363v1.02l-.771.174v3.78h2.075v-3.78l-.771-.174v-1.02h3.368v1.02l-.898.18v3.78h.944l-.116 3.153h-1.57zm7.953 0v-1.86h-5.623v-1.015l.904-.174v-3.89l-.904-.174v-1.02h3.362v1.02l-.77.174v3.78h2.074v-3.78l-.77-.174v-1.02h3.367v1.02l-.898.18v3.78h.945l-.116 3.153h-1.571zm4.597-1.739c-.622 0-1.117-.166-1.484-.498-.367-.337-.55-.793-.55-1.369 0-.587.237-1.066.712-1.437.48-.371 1.183-.557 2.11-.557h.83v-.464c0-.301-.09-.544-.267-.73-.174-.19-.437-.284-.789-.284-.181 0-.346.023-.493.07a1.335 1.335 0 00-.388.185l-.133.83h-1.218l-.023-1.63a5.273 5.273 0 011.067-.452 4.41 4.41 0 011.281-.174c.82 0 1.467.191 1.942.574.475.383.713.925.713 1.629v2.835c.004.08.012.162.023.243l.655.093v1.014h-2.098a8.567 8.567 0 01-.128-.347 2.16 2.16 0 01-.093-.371c-.2.255-.438.46-.713.614a1.94 1.94 0 01-.956.226zm.452-1.252c.236 0 .458-.052.667-.157.212-.108.379-.249.498-.423v-.991h-.834c-.371 0-.654.085-.847.255a.797.797 0 00-.284.614c0 .225.07.398.209.522.143.12.34.18.591.18zM13.02 51.77v-1.897l1.407-.296v-9.074l-1.406-.296v-1.905h6.04v1.905l-1.388.296V49.3h3.349v-8.797l-1.406-.296v-1.905h6.03v1.905l-1.387.296V49.3h3.302v-8.797l-1.405-.296v-1.905h6.04v1.905l-1.406.296v9.074l1.406.296v1.897H13.02zm19.777 0v-1.897l1.397-.296v-9.074l-1.397-.296v-1.905h10.758v3.885h-2.451l-.074-1.388h-3.59v2.766h4.302v2.488H37.44v3.21h3.764l.074-1.452h2.424v3.959H32.797zm12.118 0v-1.897l1.396-.296v-9.074l-1.396-.296v-1.905h6.549c1.073 0 2.004.188 2.793.564.79.376 1.397.9 1.822 1.572.432.666.648 1.443.648 2.331 0 .888-.216 1.665-.648 2.331-.425.666-1.033 1.184-1.822 1.554-.79.37-1.72.555-2.793.555h-1.906v2.368l1.397.296v1.897h-6.04zm4.643-7.049h1.906c.66 0 1.159-.179 1.498-.536.345-.364.518-.83.518-1.397 0-.586-.173-1.067-.518-1.443-.34-.376-.839-.564-1.498-.564h-1.906v3.94zm7.992 7.049v-1.897l1.406-.296v-9.074l-1.406-.296v-1.905h6.04v1.905l-1.406.296v5.282l.056.018 4.782-4.615v-.685l-1.387-.296v-1.905h6.04v1.905l-1.388.296v9.074l1.388.296v1.897h-6.04v-1.897l1.387-.296V44.38l-.055-.019-4.783 4.625v.592l1.406.296v1.897h-6.04zm19.268.832V50.9l1.397-.287v-.61h-.065c-1.135 0-2.134-.194-2.997-.583-.857-.388-1.526-.946-2.007-1.674-.481-.728-.722-1.597-.722-2.609 0-1.03.24-1.92.722-2.673.487-.752 1.159-1.335 2.016-1.748.857-.413 1.853-.62 2.988-.62h.065v-.638l-1.397-.287V37.47h6.03v1.702l-1.396.287v.638h.028c1.135 0 2.13.207 2.988.62.857.407 1.526.986 2.007 1.739.487.746.73 1.634.73 2.664 0 1.011-.243 1.884-.73 2.618-.481.727-1.153 1.288-2.017 1.683-.857.389-1.85.583-2.978.583h-.028v.61l1.397.287v1.702h-6.031zm4.634-4.727h.046c.753 0 1.363-.225 1.832-.675.475-.456.712-1.15.712-2.081 0-.974-.237-1.699-.712-2.174-.469-.48-1.08-.721-1.832-.721l-.046.037v5.614zm-3.302 0h.065v-5.614h-.065c-.746 0-1.36.24-1.84.721-.476.475-.713 1.193-.713 2.155 0 .932.237 1.622.712 2.072.481.444 1.095.666 1.84.666z" fill="#fff"/><path fill-rule="evenodd" clip-rule="evenodd" d="M10.923 53.867v-5.696l1.406-.296v-5.67l-1.406-.296v-5.705h40.54c1.317 0 2.569.23 3.697.768.099.047.196.096.292.148v-.916h18.321v2.874a7.695 7.695 0 01.947-.459v-3.248h10.227v3.263c.144.059.286.122.426.19 1.184.562 2.16 1.393 2.864 2.492.74 1.136 1.067 2.434 1.067 3.803 0 1.36-.333 2.65-1.08 3.776-.716 1.083-1.706 1.89-2.893 2.433l-.006.003a8.39 8.39 0 01-.378.16v3.21H74.72v-3.19a8.102 8.102 0 01-.428-.178l-.005-.002a7.507 7.507 0 01-.514-.257v2.794h-18.32v-5.466a7.827 7.827 0 01-2.4.784v4.681h-42.13zm40.032-2.097v-1.897l-1.397-.296V47.21h1.906c1.073 0 2.004-.185 2.793-.555.79-.37 1.397-.888 1.823-1.554.431-.666.647-1.443.647-2.33 0-.206-.011-.406-.035-.6a4.014 4.014 0 00-.77-1.963 4 4 0 00-.47-.532 4.571 4.571 0 00-1.195-.81c-.789-.375-1.72-.563-2.793-.563h-6.55v1.905l1.398.296v9.074l-1.397.296v1.897h6.04zm-6.741-6.057v-1.428h-.374v1.428h.374zm-.51 2.098H41.28l-.074 1.452H37.44v-3.21h4.301v-2.488H37.44v-2.766h3.589l.074 1.388h2.451v-3.885H32.797v1.905l1.397.296v9.074l-1.397.296v1.897h10.906v-3.96zM30.79 40.503l1.406-.296v-1.905h-6.04v1.905l1.406.296V49.3h-3.303v-8.797l1.388-.296v-1.905h-6.031v1.905l1.406.296V49.3h-3.348v-8.797l1.387-.296v-1.905h-6.04v1.905l1.406.296v9.074l-1.406.296v1.897h19.175v-1.897l-1.406-.296v-9.074zm26.76-.296l1.406.296v9.074l-1.406.296v1.897h6.04v-1.897l-1.405-.296v-.592l4.782-4.625.055.019v5.198l-1.387.296v1.897h6.04v-1.897l-1.387-.296v-9.074l1.387-.296v-1.905h-6.04v1.905l1.387.296v.685l-4.782 4.615-.055-.018v-5.282l1.406-.296v-1.905h-6.04v1.905zm15.973 1.751c-.136.16-.262.328-.377.506-.481.753-.722 1.644-.722 2.673 0 1.012.24 1.881.722 2.609A4.484 4.484 0 0074.72 49.2c.139.079.283.152.433.22.448.202.932.35 1.453.448a8.373 8.373 0 001.544.135h.065v.61l-1.397.287v1.702h6.031V50.9l-1.397-.287v-.61h.126a8.208 8.208 0 001.485-.144 6.27 6.27 0 001.396-.439 5.67 5.67 0 00.46-.236 4.56 4.56 0 001.556-1.447c.487-.734.73-1.607.73-2.618 0-1.03-.243-1.918-.73-2.664a4.649 4.649 0 00-1.643-1.55 5.989 5.989 0 00-1.762-.656 7.786 7.786 0 00-1.59-.153h-.028v-.638l1.397-.287V37.47h-6.03v1.702l1.396.287v.638h-.131a7.835 7.835 0 00-1.486.146 6.001 6.001 0 00-1.787.659 4.922 4.922 0 00-1.288 1.057zm4.627 5.917h.065v-5.614h-.065c-.746 0-1.36.24-1.84.721-.07.07-.134.144-.193.223-.347.466-.52 1.11-.52 1.932 0 .796.173 1.416.52 1.86.06.076.123.147.192.212.481.444 1.095.666 1.841.666zm3.838-5.614a3.135 3.135 0 00-.49-.037l-.046.037v5.614h.047c.752 0 1.363-.225 1.831-.675.08-.077.154-.16.22-.251.328-.446.492-1.056.492-1.83 0-.81-.164-1.447-.492-1.912a2.332 2.332 0 00-1.562-.946zm-25.13 5.614v-.461c-.249.23-.516.44-.801.63l.801-.169zm-5.202-3.16a3.347 3.347 0 01-.192.006h-1.906v-3.94h1.906c.066 0 .13.002.192.005.566.034 1 .22 1.306.559.346.376.518.857.518 1.443 0 .567-.172 1.033-.518 1.397-.305.322-.74.499-1.306.53z" fill="#4D3228"/></svg>