<svg width="26" height="25" fill="none" xmlns="http://www.w3.org/2000/svg"><path fill-rule="evenodd" clip-rule="evenodd" d="M23.628 11.763a.811.811 0 001.622 0C25.243 5.27 19.98.007 13.487 0a.811.811 0 000 1.623c5.598.006 10.134 4.542 10.14 10.14zM9.995 15.255c-2.245-2.246-2.752-4.491-2.867-5.391a.806.806 0 01.232-.675l1.817-1.816a.811.811 0 00.114-1.004L6.398 1.876a.811.811 0 00-1.05-.296L.701 3.768a.807.807 0 00-.446.806c.243 2.312 1.251 7.996 6.837 13.581 5.585 5.586 11.268 6.594 13.581 6.837a.807.807 0 00.806-.446l2.188-4.645a.811.811 0 00-.294-1.05L18.88 15.96a.811.811 0 00-1.004.114l-1.816 1.817a.807.807 0 01-.675.232c-.9-.115-3.145-.622-5.39-2.867zm10.388-2.68a.811.811 0 01-.812-.812 6.091 6.091 0 00-6.084-6.084.811.811 0 010-1.623 7.715 7.715 0 017.707 7.707.811.811 0 01-.811.811z" fill="#292929"/></svg>