<svg width="17" height="17" fill="none" xmlns="http://www.w3.org/2000/svg"><path fill-rule="evenodd" clip-rule="evenodd" d="M15.896 8A.552.552 0 0017 8a8.009 8.009 0 00-8-8 .552.552 0 100 1.103A6.904 6.904 0 0115.896 8zm-9.27 2.375C5.097 8.847 4.752 7.32 4.675 6.708a.548.548 0 01.157-.459L6.07 5.014a.552.552 0 00.078-.683L4.179 1.276a.552.552 0 00-.715-.201L.305 2.562a.549.549 0 00-.303.549c.165 1.572.85 5.437 4.65 9.236 3.798 3.8 7.663 4.484 9.236 4.65a.549.549 0 00.548-.303l1.488-3.16a.552.552 0 00-.2-.713l-3.055-1.967a.552.552 0 00-.683.077l-1.235 1.236a.549.549 0 01-.46.157c-.611-.077-2.138-.422-3.666-1.95zm7.064-1.823A.552.552 0 0113.138 8 4.143 4.143 0 009 3.862.552.552 0 119 2.76 5.247 5.247 0 0114.241 8a.552.552 0 01-.551.552z" fill="#A72A1D"/></svg>