<svg width="50" height="50" fill="none" xmlns="http://www.w3.org/2000/svg"><path d="M30.185 35.18c8.284 0 15-6.716 15-15 0-8.285-6.716-15-15-15-8.284 0-15 6.715-15 15 0 8.284 6.716 15 15 15z" fill="#EDEBDC"/><path d="M11.925 35.624a20.397 20.397 0 015.992-14.502c4.15-4.15 9.636-6.124 15.073-5.965-.07-.133.688-1.325 1.338-2.303a2.74 2.74 0 00.17-2.743 2.734 2.734 0 00-2.313-1.516c-7.133-.319-13.317 2.324-18.894 7.9A26.882 26.882 0 005.494 33.19c-.11 1.247.491 2.452 1.528 3.153a3.49 3.49 0 004.005-.066l.898-.652z" fill="#BF7E68"/><path d="M8.977 37.605a4.15 4.15 0 01-2.328-.71c-1.253-.848-1.95-2.29-1.819-3.765a27.685 27.685 0 017.99-17.105c5.772-5.773 12.117-8.426 19.394-8.096a3.398 3.398 0 012.88 1.883 3.416 3.416 0 01-.21 3.41c-.925 1.391-1.168 1.857-1.23 1.997a.663.663 0 01-.099.29.645.645 0 01-.585.314c-5.526-.162-10.699 1.887-14.582 5.77a19.663 19.663 0 00-5.796 14.03.667.667 0 01-.275.54l-.899.652a4.154 4.154 0 01-2.441.79zM31.04 9.236c-6.42 0-12.083 2.537-17.277 7.732a26.351 26.351 0 00-7.604 16.28c-.089.992.386 1.966 1.237 2.542.98.663 2.282.641 3.24-.053l.625-.455a20.98 20.98 0 016.185-14.631c4.032-4.033 9.388-6.24 15.084-6.169.211-.409.594-1.02 1.243-1.997a2.078 2.078 0 00-1.618-3.223 25.04 25.04 0 00-1.115-.026zm2.542 5.616zm0 0zm-.001-.002zm0-.001zm-.001-.002zm0-.001z" fill="#292929"/><path d="M17.917 21.122a20.398 20.398 0 00-5.992 14.502l.228-.187c17.404 10.055 30.134 8.64 30.134 8.64.707-10.608-7.911-26.31-9.297-28.92-5.437-.16-10.924 1.816-15.073 5.965z" fill="#FFCE56"/><path d="M40.424 44.82c-4.185 0-14.743-.895-28.226-8.588a.667.667 0 01-.94-.607 20.987 20.987 0 016.188-14.974c4.145-4.145 9.672-6.335 15.563-6.16.24.007.457.142.57.354l.167.314c6.478 12.123 9.661 22.138 9.206 28.963a.666.666 0 01-.591.618c-.114.013-.783.08-1.937.08zm-27.821-9.893c14.903 8.576 26.421 8.641 29.048 8.524.157-4.715-1.371-13.229-9.066-27.635-5.35-.043-10.404 1.985-14.197 5.777a19.653 19.653 0 00-5.785 13.334z" fill="#292929"/><path d="M34.467 40.546a3.5 3.5 0 100-7 3.5 3.5 0 000 7z" fill="#F53E28"/><path d="M34.467 41.211a4.154 4.154 0 01-2.947-1.218 4.172 4.172 0 010-5.894 4.14 4.14 0 012.947-1.22 4.14 4.14 0 012.947 1.22 4.139 4.139 0 011.22 2.947 4.14 4.14 0 01-1.22 2.947 4.154 4.154 0 01-2.947 1.218zm-2.004-2.161a2.837 2.837 0 004.008 0c.535-.536.83-1.247.83-2.004 0-.757-.295-1.469-.83-2.004a2.815 2.815 0 00-2.004-.83c-.757 0-1.468.295-2.004.83a2.837 2.837 0 000 4.008z" fill="#292929"/><path d="M19.656 35.075a3.02 3.02 0 100-6.04 3.02 3.02 0 000 6.04z" fill="#F53E28"/><path d="M19.656 35.74c-.944 0-1.888-.36-2.607-1.078a3.692 3.692 0 010-5.214 3.691 3.691 0 015.214 0 3.692 3.692 0 010 5.214 3.675 3.675 0 01-2.607 1.078zm-1.664-2.021c.918.917 2.41.917 3.329 0a2.357 2.357 0 000-3.329 2.357 2.357 0 00-3.33 0 2.357 2.357 0 000 3.329z" fill="#292929"/><path d="M28.183 26.465a4.19 4.19 0 100-8.38 4.19 4.19 0 000 8.38z" fill="#F53E28"/><path d="M28.184 27.13a4.84 4.84 0 01-3.434-1.42 4.862 4.862 0 010-6.869 4.862 4.862 0 016.868 0 4.862 4.862 0 010 6.868 4.84 4.84 0 01-3.434 1.42zm0-8.376c-.903 0-1.805.343-2.492 1.03a3.527 3.527 0 000 4.983 3.527 3.527 0 004.983 0 3.527 3.527 0 000-4.983 3.512 3.512 0 00-2.491-1.03z" fill="#292929"/><path d="M37.185 31.846a.663.663 0 01-.21-.034l-2-.667a.667.667 0 11.421-1.265l2 .667a.667.667 0 01-.21 1.3zm-10 3.334a.667.667 0 01-.632-.878l.666-2a.667.667 0 111.265.422l-.666 2a.667.667 0 01-.633.456zm-3 3.666a.663.663 0 01-.21-.034l-2-.667a.667.667 0 11.421-1.265l2 .667a.667.667 0 01-.21 1.3zm13.667 3.667a.667.667 0 01-.211-1.3l2-.666a.667.667 0 01.422 1.265l-2 .666a.663.663 0 01-.211.035zM20.185 26.846a.663.663 0 01-.21-.034l-2-.667a.667.667 0 11.421-1.265l2 .667a.667.667 0 01-.21 1.3z" fill="#A9BA5A"/><path d="M28.245 28.453a3.24 3.24 0 105.48-3.46c-.382-.605-1.488-.414-2.617.13l-1.065-2.227-2.108 1.331 1.552 1.92c-.976.785-1.624 1.701-1.242 2.306z" fill="#E7D1C4"/><path d="M30.991 30.63a3.908 3.908 0 01-3.31-1.82c-.48-.76-.156-1.74.885-2.742l-1.15-1.422a.668.668 0 01.163-.983l2.108-1.33a.665.665 0 01.957.276l.79 1.649c1.352-.51 2.375-.38 2.855.38a3.912 3.912 0 01-1.218 5.39 3.891 3.891 0 01-2.08.602zm-2.067-6.24l1.081 1.337a.666.666 0 01-.1.939c-.932.75-1.162 1.328-1.097 1.431a2.578 2.578 0 003.551.803c1.2-.758 1.56-2.35.802-3.55-.066-.105-.686-.146-1.764.373a.666.666 0 01-.89-.313l-.742-1.55-.84.53z" fill="#292929"/><path d="M28.515 40.51a3.24 3.24 0 00-3.635-2.791 3.23 3.23 0 00-2.736 2.541 63.928 63.928 0 004.81 1.665c.95-.321 1.64-.813 1.56-1.415z" fill="#E7D1C4"/><path d="M26.954 42.592a.665.665 0 01-.192-.028 64.84 64.84 0 01-4.86-1.683.667.667 0 01-.41-.76 3.909 3.909 0 013.301-3.063 3.887 3.887 0 012.889.775 3.884 3.884 0 011.494 2.59c.068.52-.101 1.489-2.008 2.134a.665.665 0 01-.214.035zm-3.981-2.727c1.338.508 2.668.963 3.963 1.358.712-.273.927-.553.918-.626a2.555 2.555 0 00-.985-1.706 2.554 2.554 0 00-1.902-.51 2.565 2.565 0 00-1.994 1.484z" fill="#292929"/><path d="M29.851 20.513a.667.667 0 01-.596-.965l1.334-2.667a.667.667 0 111.193.596l-1.334 2.667a.666.666 0 01-.597.369z" fill="#A9BA5A"/></svg>