<svg width="50" height="50" fill="none" xmlns="http://www.w3.org/2000/svg"><path d="M21 35.324c8.468 0 15.333-6.865 15.333-15.333S29.468 4.658 21 4.658 5.667 11.523 5.667 19.99 12.532 35.324 21 35.324z" fill="#EDEBDC"/><path d="M26 45.324c9.757 0 17.667-7.91 17.667-17.666C43.667 17.9 35.757 9.99 26 9.99c-9.757 0-17.667 7.91-17.667 17.667 0 9.757 7.91 17.666 17.667 17.666z" fill="#fff"/><path d="M26 45.991c-10.109 0-18.333-8.224-18.333-18.333C7.667 17.548 15.89 9.324 26 9.324c10.109 0 18.333 8.225 18.333 18.334S36.11 45.99 26 45.99zm0-35.333c-9.374 0-17 7.626-17 17 0 9.373 7.626 17 17 17 9.374 0 17-7.627 17-17 0-9.374-7.626-17-17-17z" fill="#292929"/><path d="M26.333 37.884c5.832 0 10.56-4.728 10.56-10.56 0-5.832-4.728-10.56-10.56-10.56-5.832 0-10.56 4.728-10.56 10.56 0 5.832 4.728 10.56 10.56 10.56z" fill="#B5A19C"/><path d="M26.333 38.55c-6.19 0-11.226-5.035-11.226-11.225 0-6.19 5.036-11.227 11.226-11.227 6.19 0 11.227 5.036 11.227 11.226 0 6.19-5.037 11.227-11.227 11.227zm0-21.118c-5.455 0-9.892 4.437-9.892 9.892 0 5.455 4.437 9.893 9.892 9.893 5.455 0 9.893-4.438 9.893-9.892 0-5.456-4.438-9.893-9.893-9.893z" fill="#292929"/><path d="M26.631 14.73s3.868.053 5.79 4.122c.747 1.584.891 3.387.564 5.107l-.217 1.143c-.204 1.07-1.583 1.413-2.29.566-1.726-2.07-4.318-4.984-5.89-5.832l2.043-5.106z" fill="#BF7E68"/><path d="M24.177 20.078a.476.476 0 01-.032-.42l2.044-5.105a.477.477 0 01.449-.3c.17.003 4.19.107 6.213 4.395.76 1.61.968 3.476.602 5.4l-.217 1.143a1.744 1.744 0 01-1.29 1.37 1.784 1.784 0 01-1.834-.588c-2.555-3.065-4.598-5.096-5.75-5.718a.473.473 0 01-.185-.177zm2.767-4.846l-1.764 4.405c1.614 1.06 3.938 3.655 5.664 5.726a.83.83 0 00.862.276.79.79 0 00.594-.626l.217-1.143c.328-1.725.146-3.39-.527-4.815-1.473-3.126-4.127-3.711-5.046-3.823z" fill="#292929"/><path d="M16.601 21.643s-3.052 1.849-2.959 5.967c.045 1.986.89 3.87 2.207 5.357l.745.842c.728.823 2.1.412 2.277-.685.436-2.68 1.19-6.535 2.125-8.079l-4.395-3.402z" fill="#BF7E68"/><path d="M17.554 34.725c-.5 0-.978-.21-1.32-.597l-.746-.842c-1.455-1.644-2.282-3.656-2.327-5.665-.098-4.347 3.057-6.309 3.191-6.39a.481.481 0 01.544.031l4.395 3.403c.193.15.244.42.117.63-.685 1.13-1.417 3.938-2.061 7.906a1.8 1.8 0 01-1.287 1.452 1.828 1.828 0 01-.506.072zm-.967-12.485c-.703.537-2.534 2.24-2.464 5.36.04 1.781.781 3.574 2.086 5.048l.745.842a.8.8 0 00.838.238.834.834 0 00.604-.681c.435-2.68 1.12-6.123 1.982-7.871l-3.791-2.936z" fill="#292929"/><path d="M33.984 38.327s-3.12 1.896-5.689.605c-2.569-1.29-3.613-5.277-3.613-5.277s3.121-1.896 5.69-.605c2.568 1.29 3.612 5.277 3.612 5.277z" fill="#77A052"/><path d="M30.3 40.05a5.083 5.083 0 01-2.304-.522c-2.806-1.41-3.913-5.53-3.958-5.704a.666.666 0 01.298-.739c.14-.086 3.47-2.07 6.335-.631 2.806 1.41 3.913 5.53 3.958 5.704a.666.666 0 01-.298.739c-.104.063-1.932 1.153-4.031 1.153zm-4.816-6.062c.36 1.053 1.352 3.466 3.11 4.349 1.672.839 3.697.08 4.588-.343-.36-1.052-1.352-3.465-3.11-4.349-1.672-.84-3.697-.079-4.588.343z" fill="#292929"/><path d="M38.262 31.68s-.962 3.214-3.508 3.915c-2.546.701-5.713-1.376-5.713-1.376s.962-3.214 3.508-3.915c2.547-.701 5.713 1.376 5.713 1.376z" fill="#A9BA5A"/><path d="M33.628 36.405c-2.436 0-4.834-1.551-4.953-1.629a.666.666 0 01-.273-.748c.044-.146 1.101-3.577 3.97-4.367 2.806-.77 6.116 1.37 6.256 1.462a.666.666 0 01.273.748c-.044.146-1.1 3.576-3.97 4.367a4.913 4.913 0 01-1.303.167zm-3.768-2.478c.911.5 3.017 1.493 4.717 1.025 1.616-.445 2.512-2.138 2.866-2.981-.91-.501-3.017-1.492-4.717-1.025-1.615.445-2.511 2.138-2.866 2.981z" fill="#292929"/><path d="M24.995 30s-.962 3.214-3.508 3.915c-2.546.701-5.713-1.376-5.713-1.376s.962-3.214 3.508-3.915C21.828 27.923 24.995 30 24.995 30z" fill="#A9BA5A"/><path d="M20.361 34.725c-2.436 0-4.835-1.551-4.953-1.629a.666.666 0 01-.273-.748c.044-.146 1.1-3.577 3.97-4.367 2.805-.77 6.116 1.37 6.256 1.462a.666.666 0 01.273.748c-.044.146-1.1 3.576-3.97 4.367a4.913 4.913 0 01-1.303.167zm-3.768-2.478c.911.5 3.017 1.493 4.717 1.025 1.616-.445 2.511-2.138 2.866-2.981-.911-.501-3.017-1.492-4.717-1.025-1.616.445-2.511 2.138-2.866 2.981z" fill="#292929"/><path d="M30.306 31.388a3.726 3.726 0 01-4.919.309l-4.622-3.588a2.163 2.163 0 01-.203-3.238l3.227-3.227a2.162 2.162 0 013.238.203l3.588 4.622a3.726 3.726 0 01-.309 4.919z" fill="#BF7E68"/><path d="M27.67 32.95a4.18 4.18 0 01-2.572-.88l-4.622-3.588a2.636 2.636 0 01-.248-3.945l3.227-3.228a2.634 2.634 0 013.946.248l3.587 4.623a4.194 4.194 0 01-3.319 6.77zm-2.351-11.467c-.447 0-.878.177-1.196.494l-3.227 3.228a1.691 1.691 0 00.159 2.53l4.622 3.588a3.26 3.26 0 004.295-.27 3.259 3.259 0 00.27-4.294l-3.588-4.622a1.692 1.692 0 00-1.335-.654z" fill="#292929"/><path d="M33 24.658h6.667v6.666H33v-6.666z" fill="#FFEC95"/><path d="M39.667 31.991H33a.667.667 0 01-.667-.667v-6.666c0-.369.299-.667.667-.667h6.667c.368 0 .666.299.666.667v6.666a.667.667 0 01-.666.667zm-6-1.333H39v-5.334h-5.333v5.334z" fill="#292929"/><path d="M27.022 17.103s-.962 3.213-3.509 3.915c-2.546.7-5.713-1.377-5.713-1.377s.962-3.213 3.509-3.914c2.546-.702 5.713 1.376 5.713 1.376z" fill="#A9BA5A"/><path d="M22.388 21.828c-2.437 0-4.835-1.552-4.953-1.63a.666.666 0 01-.273-.747c.043-.146 1.1-3.577 3.97-4.367 2.805-.77 6.115 1.37 6.255 1.462a.666.666 0 01.273.748c-.043.146-1.1 3.576-3.97 4.367a4.913 4.913 0 01-1.302.167zM18.62 19.35c.91.5 3.016 1.492 4.716 1.025 1.616-.445 2.512-2.138 2.866-2.981-.91-.501-3.016-1.492-4.717-1.025-1.615.445-2.51 2.138-2.865 2.981z" fill="#292929"/></svg>