<svg width="16" height="9" fill="none" xmlns="http://www.w3.org/2000/svg"><path fill-rule="evenodd" clip-rule="evenodd" d="M15.633.61c.111-.352 0-.61-.53-.61h-1.75c-.445 0-.65.223-.761.469 0 0-.89 2.055-2.152 3.39-.407.386-.593.509-.816.509-.11 0-.272-.123-.272-.474V.609c0-.421-.129-.609-.5-.609h-2.75c-.279 0-.446.196-.446.381 0 .4.63.492.695 1.616v2.441c0 .536-.102.633-.324.633-.593 0-2.037-2.065-2.893-4.426C2.966.185 2.798 0 2.351 0H.6C.1 0 0 .223 0 .469c0 .44.594 2.617 2.763 5.498C4.21 7.934 6.247 9 8.102 9c1.113 0 1.25-.237 1.25-.645V6.868c0-.473.106-.568.458-.568.26 0 .705.123 1.743 1.072C12.74 8.496 12.935 9 13.603 9h1.75c.5 0 .75-.237.607-.704-.158-.466-.725-1.142-1.477-1.943-.408-.457-1.02-.949-1.205-1.194-.26-.317-.186-.457 0-.738 0 0 2.132-2.845 2.355-3.811z" fill="#fff"/></svg>