<svg xmlns="http://www.w3.org/2000/svg" width="107" height="133"><path fill="#ddd" d="M13.187 132.074c-7.18 0-13-5.82-13-13V13.926c0-7.18 5.82-13 13-13h80.487c7.18 0 13 5.82 13 13v105.148c0 7.18-5.82 13-13 13z"/><g opacity=".15"><path d="M71.299 75.225c0 .601-.518 1.085-1.119 1.085H36.696c-.601 0-1.119-.492-1.119-1.085V54.277c0-.601.518-1.085 1.119-1.085h6.451c.551 0 1.06-.326 1.286-.826l1.836-3.965c.175-.384.567-.634.985-.634H59.63c.426 0 .81.25.985.634l1.836 3.965c.234.5.735.826 1.285.826h6.452c.601 0 1.118.484 1.118 1.085v20.948zM70.18 50.354h-5.542l-1.452-3.147a3.936 3.936 0 00-3.564-2.278H47.253a3.936 3.936 0 00-3.563 2.278l-1.453 3.147h-5.542c-2.161 0-3.956 1.753-3.956 3.923v20.948c0 2.162 1.795 3.923 3.956 3.923H70.18c2.162 0 3.956-1.761 3.956-3.923V54.277c0-2.17-1.794-3.923-3.956-3.923z" opacity=".15"/><path d="M53.438 72.271c-4.532 0-8.23-3.689-8.23-8.229 0-4.532 3.69-8.23 8.23-8.23 4.54 0 8.229 3.69 8.229 8.23 0 4.54-3.697 8.23-8.23 8.23zm0-19.288c-6.101 0-11.067 4.966-11.067 11.067s4.966 11.067 11.067 11.067c6.1 0 11.066-4.975 11.066-11.075 0-6.101-4.965-11.06-11.066-11.06zm-12.186 2.295h-3.171a1.418 1.418 0 100 2.838h3.171a1.418 1.418 0 100-2.838z" opacity=".15"/></g></svg>