<svg xmlns="http://www.w3.org/2000/svg" width="569" height="399"><path fill="#f5f5f5" d="M137.074 355.141C84.15 300.34 87.802 91.226 142.604 38.304s263.915-49.272 316.838 5.53c52.921 54.803 49.27 263.915-5.532 316.837s-263.914 49.273-316.836-5.53"/><path fill="#c7c9cb" d="M-.006 350.513c0-4.757 39.788-8.612 88.87-8.612 49.082 0 88.87 3.855 88.87 8.612 0 4.756-39.788 8.612-88.87 8.612-49.082 0-88.87-3.856-88.87-8.612zm429.228 0c0-4.757 31.218-8.612 69.727-8.612 38.51 0 69.728 3.855 69.728 8.612 0 4.756-31.218 8.612-69.728 8.612-38.51 0-69.727-3.856-69.727-8.612zm-18.682 1.303c0 5.72-47.848 10.357-106.872 10.357s-106.873-4.637-106.873-10.357 47.85-10.356 106.873-10.356c59.024 0 106.873 4.636 106.873 10.356z"/><path d="M241.555 352.164c-1.98.043-3.83.125-5.638-.464-.495-.16-1.04-.176-1.565-.238-.297-.035-.598-.03-.977-.047-.02-.465-.052-.853-.053-1.24-.008-4.923-.015-9.845-.016-14.767-.002-9.491.004-18.98-.002-28.471-.003-6.164.004-12.327-.035-18.49-.06-9.133-.156-18.266-.236-27.399-.004-.435 0-.872 0-1.372 1.39-.221 2.713-.086 4.026-.11 1.28-.024 2.56.012 3.927.022.043.406.108.742.109 1.08.012 3.414.011 6.828.02 10.241.016 6.207.032 12.413.059 18.619.05 11.13.1 22.259.168 33.389.02 3.236.13 6.472.156 9.71.051 6.252.072 12.505.103 18.758 0 .216-.025.434-.046.778zm126.797.305c-1.7.038-3.245.05-4.788.113-1.508.063-2.988-.121-4.537-.38-.146-30.723.243-61.444-.32-92.212.253-.066.456-.164.659-.165 2.704-.004 5.41.004 8.116.013.129.001.256.05.41.081.288.44.163.94.165 1.41.014 4.082.012 8.162.015 12.242.007 8.206.012 16.412.023 24.618.011 8.338.023 16.677.047 25.016.019 6.83.047 13.66.088 20.49.016 2.57.08 5.142.122 7.715.005.305 0 .61 0 1.06zm25.021-283.573c0 1.14.033 2.158-.008 3.173-.053 1.288-.001 2.568.06 3.854.086 1.77.033 3.547.027 5.322-.007 2.395-.047 4.79-.034 7.185.014 2.49-.18 4.964-.384 7.44a38.99 38.99 0 00-.126 2.39c-.037 1.774-.018 3.55-.084 5.324a34.035 34.035 0 01-.304 3.309c-.281 2.08-.215 4.16-.103 6.245.073 1.373.122 2.747.19 4.12.068 1.418.158 2.833.215 4.251.04.976.055 1.952.053 2.928-.009 4.791-.039 9.582-.035 14.373.002 2.042.046 4.082-.215 6.114-.04.307-.047.62-.05.93-.044 4.922-.41 9.839-.178 14.766.301 6.382.195 12.77.197 19.156 0 1.952-.006 3.905.018 5.857.027 2.216.102 4.43.128 6.645.033 2.927.025 5.853.059 8.778.021 1.82.088 3.636.133 5.455.012.487.039.976.024 1.463-.08 2.617-.066 5.23.073 7.848.109 2.036.07 4.08.119 6.12.03 1.152.108 2.302.159 3.452.018.443.047.888.03 1.33-.078 2.083-.179 4.166-.257 6.248-.027.753-.008 1.507-.016 2.261-.016 1.863-.052 3.725-.05 5.587.004 2.927.03 5.855.053 8.781.013 1.73.042 3.46.056 5.19.004.48-.016.961-.028 1.518-.405.038-.744.098-1.084.1-8.297.009-16.595.011-24.893.016-10.915.007-21.83.012-32.745.02-7.32.006-14.64.014-21.961.028-7.32.013-14.64.04-21.96.053-6.827.014-13.654.004-20.48.026-12.644.04-25.29.078-37.933.152-4.525.026-9.048.157-13.573.234-.839.015-1.678.002-2.6.002-.053-.223-.126-.421-.143-.624-.204-2.517-.384-5.028-.302-7.565.105-3.234.018-6.475.007-9.713-.013-4.036-.028-8.072-.054-12.107-.006-.887-.052-1.774-.094-2.66-.097-2.041-.092-4.079.145-6.114.067-.57.044-1.151.055-1.727.072-4.17.164-8.337.206-12.506.031-3.016.098-6.028-.084-9.048-.16-2.653-.1-5.322-.111-7.984-.015-3.593.024-7.188-.017-10.78-.03-2.617-.038-5.242-.266-7.846-.311-3.59-.117-7.185-.295-10.773-.214-4.297-.444-8.593-.675-12.89a295.845 295.845 0 00-.304-4.913c-.255-3.626-.536-7.25-.778-10.877-.07-1.06-.046-2.127-.062-3.19-.01-.621.029-1.245-.03-1.861-.43-4.546-.75-9.104-1.445-13.623-.074-.478-.077-.971-.081-1.458-.009-1.42.022-2.841-.007-4.26-.03-1.508-.111-3.014-.172-4.52-.022-.532-.078-1.064-.072-1.596.035-2.801-.31-5.58-.465-8.37a49.65 49.65 0 01-.077-2.394c-.016-1.863.016-3.727-.231-5.581-.058-.437-.044-.886-.046-1.33-.015-3.594-.03-7.188-.034-10.783 0-.524.057-1.05.092-1.648.314-.051.563-.128.81-.128 10.517.042 21.033.083 31.55.14 9.983.054 19.967.12 29.95.19 2.795.02 5.59.083 8.385.104 5.145.038 10.29.073 15.437.086 16.019.036 32.036.063 48.055.09 8.65.015 17.301.017 25.952.034 4.789.009 9.58.034 14.368.053 2.525.01 5.05.018 7.575.033.215 0 .43.051.765.095zm-37.54 190.973c0 .679.008 1.206-.001 1.734-.076 4.48-.211 8.96-.224 13.44-.04 13.8-.04 27.6-.048 41.4-.006 10.072-.002 20.144 0 30.215.002 1.643.036 3.284.024 4.925-.004.82.261 1.623-.06 2.473-.218.571.314 1.106.974 1.14.395.022.818.027 1.185-.092a3.547 3.547 0 011.968-.073c1.352.33 2.718.35 4.093.3.399-.015.799-.028 1.197-.028 1.534-.002 3.084-.35 4.595.249.202.08.554-.02.75-.158.368-.26.716-.452 1.186-.503.629-.068 1.03-.484 1.14-1.126.116-.685-.134-1.181-.777-1.54-.257-.143-.537-.245-.753-.342.3-30.618.133-61.14.271-91.663 0-.077.072-.154.148-.31.206-.025.46-.078.715-.08 1.242-.01 2.484-.007 3.727-.006 5.413.007 10.827.003 16.24.028 1.458.006 2.58-.487 3.23-1.851.113-.24.246-.472.378-.703a4.28 4.28 0 00.564-2.68c-.08-.749-.066-1.508-.07-2.261-.02-3.727-.061-7.454-.036-11.18.03-4.214-.048-8.43.262-12.64.084-1.147.137-2.316.02-3.455-.172-1.684-.154-3.366-.204-5.048-.069-2.306-.14-4.611-.176-6.917-.042-2.79.192-5.583-.102-8.37-.014-.13-.007-.265-.007-.398.002-2.218.089-4.44-.01-6.654-.181-4.032.009-8.065-.162-12.102-.202-4.782-.013-9.578-.043-14.369-.02-3.282-.134-6.563-.185-9.845a530.546 530.546 0 01-.076-8.38c0-1.508.082-3.014.124-4.52.036-1.243.001-2.49.115-3.724.191-2.082.194-4.161.18-6.248-.017-2.616.092-5.234.045-7.85-.063-3.501.09-7.003-.213-10.506-.244-2.826-.222-5.673-.356-8.51-.085-1.78.02-3.544.22-5.31.133-1.19.233-2.384.277-3.579.053-1.462.023-2.928.047-4.391a78.32 78.32 0 01.093-2.528c.104-2.125.295-4.249.307-6.373.026-4.303-.039-8.607-.074-12.91-.006-.575-.06-1.151-.095-1.727-.1-1.59-.225-3.18-.298-4.773-.033-.703.038-1.346.623-1.934.754-.759.402-2.577-1.292-2.716-.175-.015-.355.004-.531.004-2.75.012-5.499.03-8.248.036-9.54.023-19.077.042-28.617.065-17.924.043-35.849.083-53.773.134-7.72.02-15.44.048-23.159.101-10.027.069-20.055.188-30.083.246-7.943.046-15.886.024-23.83.05-5.279.019-10.56-.087-15.838.166-.392.019-.789-.066-1.182-.11-.518-.057-.872.102-1.089.556-.112.235-.2.5-.223.759-.142 1.545-.312 3.09-.376 4.64-.075 1.772-.051 3.549-.068 5.323-.014 1.554-.049 3.106-.032 4.658.025 2.218.087 4.436.133 6.654.017.841.004 1.686.06 2.527.106 1.637.3 3.27.37 4.909.133 3.146.212 6.294.295 9.442.03 1.153-.008 2.307.013 3.46.012.665.06 1.33.126 1.991.128 1.28.29 2.555.424 3.833.166 1.588.333 3.175.468 4.765.136 1.59.307 3.183.326 4.776.026 2.22.032 4.435.268 6.645.104.97.18 1.944.234 2.917.098 1.77.159 3.544.253 5.315.218 4.119.45 8.237.67 12.356.036.665.05 1.33.073 1.996.1 2.792.221 5.584.289 8.377.034 1.418-.126 2.845-.035 4.256.181 2.79.348 5.577.362 8.373.015 2.972.032 5.946.043 8.918.014 3.639.011 7.277.042 10.915.01 1.063.176 2.127.16 3.19-.053 3.725-.15 7.45-.237 11.175-.047 2.04-.118 4.079-.16 6.118-.038 1.907 0 3.813-.232 5.715-.1.83-.04 1.683-.017 2.525.033 1.196.135 2.391.143 3.588.04 5.634.069 11.269.077 16.904.004 2.883-.051 5.766-.065 8.65-.003.573.053 1.15.1 1.724.045.573.138 1.143.166 1.717.057 1.147.083 2.297.123 3.51.994.304 1.959-.085 2.919 0 1.014.092 2.04.037 3.06.05.976.012 1.952.031 2.928.04 1.02.01 2.04.011 3.061.017.976.005 1.953-.012 2.928.024 1.008.038 2.013.128 3.085.2.02.343.047.6.046.856-.001 1.154-.01 2.308-.02 3.461-.075 8.25-.18 16.502-.219 24.753-.04 8.253-.015 16.507-.019 24.76-.005 12.513-.01 25.026-.021 37.539 0 .615.008 1.224-.168 1.841-.227.797.375 1.403 1.19 1.288.436-.062.861-.219 1.297-.246 1.066-.069 2.124.004 3.156.326 1.109.346 2.244.482 3.409.473 1.06-.01 2.12-.023 3.181.164.484.084 1.053-.105 1.536-.29.607-.233.81-1.015.458-1.574-.16-.255-.402-.459-.527-.598 0-3.035-.014-5.962.003-8.89.037-6.21.088-12.422.138-18.634.028-3.504.086-7.008.099-10.512.037-9.761.056-19.524.088-29.286.015-4.303.052-8.606.063-12.91.01-3.813-.002-7.627.005-11.44.001-.339.07-.676.111-1.032.403-.022.71-.053 1.019-.053 3.017 0 6.034-.012 9.052.009 10.646.07 21.293.202 31.94.22 17.484.03 34.967-.012 52.451-.021 5.235-.003 10.471 0 15.707.005.346 0 .692.034 1.186.06z"/><path fill="#ffca52" d="M368.791 221.133c.019 1.673-.41 3.25-1.02 4.777-.627 1.57-1.893 2.388-3.487 2.767-.384.091-.787.138-1.15.284-1.324.528-2.605.367-3.861-.194-1.23-.55-2.266-1.39-3.168-2.366-.375-.407-.648-.96-.817-1.496-.83-2.622-.652-5.136.89-7.496.661-1.012 1.608-1.616 2.687-2.046a2.01 2.01 0 01.91-.124c.832.081 1.661.202 2.488.333.651.102 1.295.257 1.946.362.963.155 1.886.448 2.765.847.946.43 1.527 1.19 1.65 2.24.082.702.114 1.408.167 2.112zm-43.553-23.003c-2.072 1.504-2.162 1.518-4.168.654-.068.302-.114.595-.202.876-.1.322-.326.52-.68.534a.753.753 0 01-.763-.614c-.171-.986-.027-1.943.38-2.854.16-.354.461-.527.852-.532.453-.006.88.061 1.242.372.234.199.493.368.804.598.252-.161.516-.302.748-.484.242-.191.435-.447.681-.632.655-.492 1.456-.563 2.078-.018.909.793 1.826.93 2.938.506.847-.324 1.748-.192 2.627-.009 2.132.444 4.289.649 6.466.663 3.104.02 6.208.072 9.31.084 1.95.009 3.903.012 5.851-.063 1.99-.077 3.977-.257 5.964-.382.53-.033 1.065-.013 1.595-.045.971-.059 1.941-.138 2.911-.21.177-.013.352-.055.529-.053.68.003 1.21.457 1.295 1.093.097.724-.3 1.349-1.033 1.466-.872.139-1.756.221-2.639.271-2.078.116-4.16.196-6.24.291-.31.014-.62.036-.93.036-4.922-.01-9.843-.022-14.765-.034-.177-.001-.355-.019-.531-.008-2.406.158-4.775-.186-7.146-.51-.131-.018-.268-.03-.391-.071a4.983 4.983 0 00-3.263-.007c-.289.097-.61.114-.918.13-.587.03-1.145-.076-1.641-.42-.291-.203-.593-.389-.961-.628zm.447 8.671c-1.522 1.585-1.792 1.745-3.609.653-.128.23-.23.477-.385.686-.314.424-.835.375-1.069-.099a1.697 1.697 0 01-.183-.628c-.055-.933-.005-1.857.241-2.77.148-.545.498-.819 1.017-.915.5-.093.854.111 1.173.669.109.19.188.4.282.6.093.198.19.396.333.695.167-.187.312-.316.415-.474.145-.222.243-.474.388-.695.633-.958 1.674-1.048 2.465-.201.27.29.47.643.726.95.372.445.613.496 1.164.24.442-.204.86-.463 1.307-.653.663-.282 1.314-.352 2.052-.118 1.694.537 3.438.86 5.23.81.394-.011.813-.02 1.18-.148 1.322-.464 2.7-.461 4.069-.534.973-.053 1.949-.112 2.923-.107a37.6 37.6 0 013.185.134c1.373.123 2.746.238 4.115.053 3.79-.513 7.602-.497 11.412-.549 1.019-.014 2.037-.07 3.054-.122.627-.032 1.137.159 1.465.716.435.74.046 1.697-.784 1.9-.252.061-.525.048-.789.047-2.97-.011-5.94-.052-8.91-.026-1.016.008-2.034.153-3.044.283a31.78 31.78 0 01-6.502.184c-.44-.034-.88-.109-1.321-.14-.574-.04-1.165-.149-1.72-.059-1.413.231-2.83.17-4.247.202-.488.012-.966.02-1.429.228-.615.277-1.279.33-1.95.355-1.962.071-3.903-.09-5.784-.66-.826-.25-1.555-.241-2.284.217a2.93 2.93 0 01-.603.277c-1.03.361-2.005.288-2.884-.41-.24-.19-.469-.395-.7-.59zm15.474 16.866c0 .619.031 1.241-.006 1.859-.113 1.884-.862 3.51-2.102 4.912-.289.328-.627.653-1.01.85-1.81.926-3.615 1.864-5.572 2.469-3.354 1.036-6.378.404-9.114-1.747a94.812 94.812 0 01-2.266-1.845c-.972-.813-1.648-1.853-2.167-2.988-1.166-2.554-1.328-5.21-.693-7.922.372-1.59 1.261-2.923 2.255-4.175.632-.795 1.358-1.519 2.076-2.24 1.282-1.287 2.863-1.9 4.666-1.918.499-.004.96-.064 1.412-.277.619-.293 1.284-.352 1.948-.247 1.484.236 2.972.464 4.442.776a4.713 4.713 0 012.676 1.626c.368.441.738.887 1.048 1.369.965 1.503 1.61 3.175 2.027 4.881.365 1.49.365 3.068.526 4.608l-.146.009zm-33.198 9.86c-.002.577-.02 1.155-.086 1.727-.132 1.14-1.129 1.59-2 .878-.857-.7-1.803-1.087-2.905-1.11-.221-.005-.45.007-.662-.042-1.476-.341-2.981-.411-4.484-.487-.615-.03-1.24-.054-1.85.015-1.805.206-3.6.463-5.394.765-1.385.234-2.827.151-4.244.168-.841.01-1.685-.05-2.526-.095-.84-.046-1.641-.064-2.465.305-.92.41-2.095-.448-2.163-1.535-.083-1.325-.076-2.657-.077-3.986-.002-.842.082-1.683.075-2.525-.02-2.532.118-5.05.472-7.558.097-.699.195-1.391-.373-2.003-.252-.27-.123-.688.15-.961.393-.394.874-.556 1.428-.622 1.896-.22 3.798-.33 5.705-.236 1.87.092 3.714-.104 5.56-.363.696-.098 1.423-.142 2.116-.057 1.947.24 3.895.198 5.845.175 1.02-.011 2.043-.101 3.058-.054a32.88 32.88 0 013.432.352c.957.146 1.621 1.012 1.606 1.956-.043 2.748-.092 5.496-.139 8.245h-.075c0 2.35.005 4.7-.004 7.049zm-28.682-42.769c-.124-.138-.33-.316-.47-.535-.364-.563-.122-1.23.54-1.325a8.325 8.325 0 011.98-.03c1.465.147 2.846.58 4.154 1.279 1.01.54 2.119.656 3.232.41 1.703-.376 3.434-.58 5.153-.404 1.954.2 3.887.124 5.828-.027.353-.027.719-.012 1.054-.106.88-.247 1.744-.197 2.625-.017.732.15 1.473.257 2.24.387.204-.279.364-.539.566-.762a.888.888 0 01.973-.262c.403.134.68.418.72.866a1.92 1.92 0 01-.015.53c-.288 1.493-.21 3.004-.223 4.51-.01 1.064.005 2.129.018 3.193a16.251 16.251 0 01-.268 3.175 16.482 16.482 0 00-.084 5.424c.138.956.096 1.947.057 2.919-.032.797-.723 1.248-1.503 1.039-1.245-.333-2.508-.435-3.792-.428-1.195.005-2.394.01-3.582-.087-.633-.053-1.246-.032-1.841.123-.653.171-1.304.213-1.971.237a8.662 8.662 0 00-1.699.236c-1.73.41-3.455.763-5.255.655-.879-.052-1.769.048-2.654.092-1.79.09-3.529-.281-5.279-.553-.593-.093-.965-.42-1.046-1.033-.052-.395-.117-.79-.135-1.188-.167-3.768-.23-7.533.192-11.293.098-.878.034-1.773.055-2.659.022-.887.026-1.775.097-2.658.041-.515.194-1.021.333-1.708zm-1.5-107.664c1.144 0 2.207.021 3.267-.005 2.88-.072 5.76-.185 8.64-.243 2.35-.048 4.7-.023 7.05-.062 1.061-.018 2.122-.118 3.182-.176 1.15-.062 2.301-.139 3.454-.176 1.595-.05 3.191-.073 4.787-.103 1.38-.027 2.73-.252 4.09-.463 1.75-.272 3.516-.445 5.277-.64 2.333-.257 4.665-.548 7.004-.726 2.87-.22 5.714-.733 8.602-.737.35-.001.7-.103 1.054-.116.733-.026 1.39.187 1.946.686.382.343.623.753.648 1.266.082 1.726.25 3.446.041 5.18-.122 1.007-.126 2.033-.11 3.05.013.974.119 1.945.184 2.917.01.134.026.266.027.4.002 1.57-.642 2.325-2.206 2.398a34.21 34.21 0 01-3.722-.052c-1.16-.072-2.3.087-3.439.202-1.149.116-2.267.225-3.43-.005-.81-.16-1.681-.103-2.515-.026-1.72.16-3.43.44-5.151.588a43.449 43.449 0 01-3.987.137c-2.176-.012-4.334.242-6.5.378-2.83.18-5.645.615-8.491.49-1.639-.071-3.275-.185-4.913-.247-2.082-.077-4.143-.456-6.233-.39-.443.014-.889 0-1.33-.042-1.43-.137-2.829-.029-4.193.453a6.107 6.107 0 01-1.157.3c-1.124.16-2.002-.574-2.089-1.687-.093-1.19-.185-2.381-.323-3.567-.218-1.892-.486-3.78-.707-5.671-.054-.46-.171-.836-.528-1.163-.273-.252-.354-.627-.12-.972.237-.348.3-.723.299-1.131-.001-.389.164-.698.566-.795.353-.088.586.117.772.39.096.14.197.279.254.36zm-4.878 85.19c.902-1.374 1.759-2.663 2.595-3.964.386-.602.826-1.152 1.372-1.614.753-.636 1.368-1.386 1.9-2.214.91-1.418 1.813-2.842 2.763-4.232.473-.692 1.024-1.335 1.578-1.967.467-.532.982-1.025 1.488-1.522 1.843-1.817 3.315-3.928 4.772-6.048.871-1.266 2.176-1.345 3.212-.182.176.199.345.406.494.625a5.354 5.354 0 002.207 1.86c1.479.691 2.612 1.816 3.624 3.066 1.264 1.56 2.237 3.3 3.124 5.092.332.671.62 1.375 1.344 1.883.185-.15.403-.283.566-.467a56.307 56.307 0 003.022-3.71c1.135-1.526 2.43-2.935 3.688-4.368 1.317-1.5 2.661-2.975 3.778-4.639.295-.44.645-.847.998-1.244 1.832-2.051 3.674-4.092 5.51-6.14.45-.499.94-.943 1.561-1.218.679-.3 1.386-.198 1.779.422.804 1.268 1.924 2.184 3.092 3.073.455.345.847.773 1.331 1.223 1.033-.48 2-1.104 2.807-1.906 1.195-1.184 2.31-2.45 3.439-3.7a357.08 357.08 0 003.79-4.285c1.401-1.603 2.787-3.218 4.178-4.83.696-.806 1.384-1.617 2.08-2.422 2.646-3.048 5.293-6.095 7.94-9.141.234-.267.459-.546.72-.785 1.877-1.715 3.386-3.75 4.988-5.705.056-.068.098-.15.16-.213 1.458-1.49 2.77-3.113 4.179-4.646.645-.7 1.534-1.195 2.367-1.696.637-.382 1.446-.112 1.882.493.44.613.394 1.409-.156 1.942a3.869 3.869 0 01-.866.61c-.6.317-1.091.753-1.536 1.256-1.379 1.561-2.766 3.117-4.145 4.678-.235.266-.475.532-.67.826-1.088 1.64-2.472 3.016-3.879 4.37-.223.217-.443.437-.647.671a7291.198 7291.198 0 00-6.127 7.014c-.408.468-.82.934-1.222 1.406-1.093 1.282-2.172 2.575-3.277 3.847-1.31 1.507-2.643 2.99-3.959 4.492-1.373 1.568-2.714 3.163-4.113 4.708-1.1 1.216-2.25 2.388-3.408 3.549-.34.34-.787.573-1.177.865-.602.45-1.199.907-1.796 1.36-.072.054-.144.107-.207.17-1.067 1.072-2.284.665-3.214-.377-.206-.23-.364-.504-.559-.746-.193-.24-.378-.5-.615-.695-.914-.755-1.848-1.487-2.84-2.28a29.725 29.725 0 00-2.078 2.189c-.633.742-1.308 1.449-1.934 2.196-.911 1.087-1.798 2.193-2.69 3.295-.585.724-1.136 1.476-1.746 2.177-1.311 1.506-2.66 2.978-3.973 4.482-.436.5-.84 1.033-1.21 1.584-1.068 1.59-2.334 3.014-3.633 4.412-.15.164-.286.351-.465.473-.804.544-1.608.834-2.601.356-1.228-.592-2.028-1.544-2.646-2.698-.522-.977-1.003-1.978-1.546-2.943-.39-.694-.836-1.36-1.287-2.016a9.323 9.323 0 00-3.58-3.102c-.583-.292-1.086-.75-1.61-1.153-.239-.185-.437-.424-.724-.708-.21.244-.378.427-.533.623-.579.729-1.13 1.483-1.735 2.19-.836.976-1.664 1.966-2.581 2.864-1.213 1.187-2.308 2.454-3.176 3.914-.045.076-.1.147-.145.224-1.002 1.739-2.26 3.276-3.616 4.753-1.499 1.632-2.94 3.325-4.027 5.277a9.955 9.955 0 00-.612 1.315c-.414 1.09-1.28 1.49-2.32.982-1.473-.719-2.914-1.484-4.156-2.595-1.52-1.36-3.112-2.64-4.64-3.99-.731-.645-1.381-1.38-2.08-2.06-.959-.933-1.064-.99-2.524-1.552-.174.122-.396.255-.594.419-2.315 1.912-4.142 4.256-5.838 6.704a74.398 74.398 0 01-6.29 7.91c-.836.914-1.572 1.923-2.305 2.923-.997 1.362-2.026 2.689-3.197 3.912-1.263 1.32-2.178 2.902-3.119 4.459-.225.374-.447.773-.76 1.065-.288.269-.693.396-1.108.162-.41-.233-.606-.615-.493-1.13.075-.343.205-.68.356-.998.84-1.775 1.937-3.397 3.218-4.868a52.167 52.167 0 003.735-4.842c.573-.84 1.227-1.632 1.905-2.392 2.16-2.418 4.197-4.929 6-7.63a38.076 38.076 0 015.972-6.949c.36-.328.703-.652.954-1.093.212-.374.558-.692.897-.969.702-.57 1.618-.476 2.06.323.313.565.769.777 1.256 1.079.748.463 1.45 1.016 2.122 1.589 2.396 2.042 4.772 4.11 7.156 6.165.577.496 1.224.87 2.026 1.128zm-41.678 66.585c-.029-.559.018-.967-.08-1.336-.27-1.012-.2-2.022-.098-3.04.058-.573.109-1.147.145-1.723.082-1.328.179-2.657.225-3.986.055-1.64.107-3.283.082-4.923-.02-1.149-.191-2.294-.255-3.444a18.89 18.89 0 01.022-1.995 2.99 2.99 0 01.19-.904c.209-.546.86-.857 1.3-.515 1.17.91 2.411.551 3.661.37.35-.05.703-.108 1.054-.106.555.004.959.282 1.064.822.092.468.096.968.058 1.447-.378 4.688-.79 9.374-.66 14.086.004.171.043.342.079.605 1.56-.198 3.09-.271 4.582-.05.407-.263.354-.647.355-.984.002-1.198-.034-2.395-.04-3.594-.005-1.063.005-2.128.02-3.19.018-1.066.052-2.13.076-3.195.045-1.995.098-3.991.131-5.987.039-2.307.044-4.614.096-6.92.019-.84.096-1.683.215-2.515.048-.328.247-.655.44-.94.338-.497.873-.689 1.403-.46.624.27 1.198.183 1.815.063a20.706 20.706 0 014.63-.376c.266.008.535.012.795.06.566.105.988.404 1.12.994.085.387.154.781.183 1.176.07.973.124 1.948.162 2.923.024.62.026 1.242.004 1.861-.074 2.039-.23 4.077-.228 6.116.003 2.179-.194 4.34-.313 6.51-.106 1.948-.094 3.902-.125 5.854-.002.122.068.246.102.357 1.188.315 3.937.453 4.876.244.246-.578.25-1.2.25-1.82.002-3.815-.019-7.632.001-11.447.017-3.017.024-6.035.145-9.049.075-1.858.362-3.707.54-5.562a63.2 63.2 0 00.228-2.915c.073-1.461.1-2.925.165-4.387.04-.885.433-1.312 1.314-1.34.524-.018 1.06.068 1.577.177 1.35.286 2.703.525 4.09.383.836-.087 1.68-.166 2.499-.347.546-.12 1.05-.23 1.516.136.493.388.957.824 1.018 1.496.14 1.5.382 3.005.349 4.503-.068 3.103-.296 6.202-.276 9.31.006 1.107-.148 2.215-.164 3.322-.023 1.418.024 2.837.032 4.256.024 3.772.087 7.544.042 11.315-.021 1.725-.258 3.448-.397 5.172-.021.264-.063.53-.057.795.014.572.053 1.145.085 1.799.314-.02.56-.028.805-.054.572-.063 1.141-.184 1.713-.192.75-.011 1.28.496 1.356 1.195.079.704-.325 1.366-1.03 1.493-2.006.36-4.013.764-6.07.376-.433-.082-.881-.101-1.323-.118-2.304-.09-4.61-.17-6.914-.253-.178-.006-.363.014-.53-.03-1.787-.462-3.617-.346-5.43-.387a103.468 103.468 0 00-6.52.054c-1.502.061-2.997.291-4.496.449-.614.065-1.229.19-1.844.197-1.908.02-3.816-.004-5.724-.008-.979-.001-1.946.053-2.832.552-.144.08-.359.136-.506.091-1.209-.37-2.46-.263-3.692-.366a3.337 3.337 0 01-.78-.138c-.349-.116-.55-.463-.538-.834.011-.365.238-.727.586-.804.386-.088.788-.115 1.185-.146.792-.064 1.585-.113 2.54-.18zm162.15-165.973c-.336-.044-.55-.094-.765-.095-2.524-.015-5.05-.024-7.575-.033-4.789-.019-9.58-.044-14.368-.053-8.65-.017-17.301-.02-25.952-.033-16.018-.028-32.036-.055-48.055-.092-5.146-.012-10.292-.047-15.437-.085-2.795-.021-5.59-.084-8.385-.104-9.983-.07-19.967-.136-29.95-.19-10.517-.057-21.033-.098-31.55-.14-.247 0-.496.077-.81.128-.035.599-.093 1.124-.092 1.648.004 3.595.019 7.19.034 10.783.002.444-.012.893.046 1.33.247 1.854.215 3.718.23 5.581.007.798.033 1.598.078 2.395.156 2.789.5 5.568.465 8.37-.006.53.05 1.063.072 1.595.06 1.506.141 3.012.172 4.52.03 1.419-.002 2.84.007 4.26.004.487.007.98.081 1.458.695 4.52 1.014 9.077 1.445 13.623.059.616.02 1.24.03 1.86.016 1.064-.009 2.13.062 3.191.242 3.627.523 7.251.778 10.877.115 1.637.216 3.275.304 4.914.23 4.296.46 8.592.675 12.889.178 3.588-.016 7.182.295 10.773.228 2.604.236 5.229.266 7.845.041 3.593.002 7.188.017 10.781.011 2.662-.05 5.331.11 7.984.183 3.02.116 6.032.085 9.048-.042 4.169-.134 8.337-.206 12.506-.01.576.012 1.157-.055 1.727-.237 2.035-.242 4.073-.145 6.114.042.886.088 1.773.094 2.66.026 4.035.04 8.071.054 12.107.011 3.238.098 6.479-.007 9.713-.082 2.537.098 5.048.302 7.565.017.203.09.4.142.624.923 0 1.762.013 2.601-.002 4.525-.077 9.048-.208 13.573-.234 12.644-.074 25.289-.113 37.933-.152 6.826-.022 13.653-.012 20.48-.026 7.32-.013 14.64-.04 21.96-.053 7.32-.014 14.64-.022 21.96-.027 10.916-.009 21.83-.014 32.746-.02 8.298-.006 16.596-.008 24.893-.018.34 0 .679-.06 1.084-.1.012-.556.032-1.036.028-1.517-.014-1.73-.043-3.46-.056-5.19-.022-2.926-.05-5.854-.053-8.78-.002-1.863.034-3.725.05-5.588.008-.754-.01-1.508.016-2.26.078-2.083.179-4.166.258-6.249.016-.442-.013-.887-.031-1.33-.051-1.15-.13-2.3-.159-3.451-.05-2.04-.01-4.085-.12-6.12a93.94 93.94 0 01-.072-7.849c.015-.487-.012-.976-.024-1.463-.045-1.819-.112-3.636-.133-5.455-.034-2.925-.026-5.851-.06-8.778-.025-2.215-.1-4.43-.127-6.645-.024-1.952-.018-3.905-.018-5.857-.002-6.386.104-12.774-.197-19.156-.233-4.927.134-9.844.178-14.766.003-.31.01-.623.05-.93.261-2.032.217-4.072.215-6.114-.004-4.79.026-9.582.035-14.373a69.04 69.04 0 00-.053-2.928c-.057-1.418-.147-2.833-.216-4.25-.067-1.374-.116-2.748-.19-4.121-.11-2.085-.177-4.165.104-6.245.148-1.097.264-2.204.304-3.31.066-1.772.047-3.549.084-5.323.017-.798.06-1.594.125-2.39.205-2.476.4-4.95.385-7.44-.013-2.395.027-4.79.034-7.185.006-1.775.06-3.552-.026-5.322-.062-1.286-.114-2.566-.061-3.854.041-1.015.008-2.033.008-3.173z"/><path fill="#464749" d="M368.352 352.47c-1.7.037-3.245.048-4.788.112-1.508.063-2.988-.121-4.537-.38-.146-30.723.243-61.444-.32-92.212.253-.066.456-.164.659-.165 2.704-.004 5.41.004 8.116.013.129.001.256.05.41.081.288.44.163.94.165 1.41.014 4.081.012 8.162.015 12.242.007 8.206.012 16.412.023 24.618.011 8.338.023 16.677.047 25.016.019 6.83.047 13.66.088 20.49.016 2.57.08 5.142.122 7.715.005.305 0 .61 0 1.06zm-126.797-.307c-1.98.044-3.83.126-5.638-.463-.495-.16-1.04-.176-1.565-.238-.297-.035-.598-.03-.977-.047-.02-.465-.052-.853-.053-1.24-.007-4.923-.015-9.845-.016-14.767-.002-9.491.004-18.98-.002-28.471-.003-6.164.004-12.327-.035-18.49-.06-9.133-.156-18.266-.236-27.399-.004-.435 0-.872 0-1.372 1.39-.221 2.713-.086 4.026-.11 1.28-.024 2.56.012 3.927.022.043.406.108.742.109 1.08.012 3.413.011 6.828.02 10.241.017 6.207.032 12.413.059 18.619.05 11.13.1 22.259.168 33.389.02 3.236.13 6.472.156 9.71.051 6.252.072 12.505.103 18.757 0 .217-.025.435-.046.78z"/><path d="M233.336 215.663c.905 0 1.655-.005 2.405.004.123.001.246.061.446.115 0 .347.022.69-.003 1.03-.15 2.035-.358 4.067-.453 6.105-.1 2.169-.1 4.343-.138 6.515-.007.399-.013.8.013 1.197.02.306.044.626.147.909.233.637.678 1.036 1.404.996.62-.035 1.244-.054 1.857-.14 1.247-.176 2.471-.084 3.688.211.215.052.436.083.656.1.84.062 1.608-.472 1.734-1.294.133-.873.23-1.762.242-2.645.018-1.197-.063-2.395-.092-3.592a31.17 31.17 0 01.002-1.597c.048-1.73.118-3.457.156-5.187.09-4.17.161-8.339.248-12.508.005-.259.067-.516.112-.842 1.826-.157 3.571-.77 5.488-.511.06.367.156.707.169 1.05.067 1.818.11 3.634-.09 5.451-.103.923-.084 1.86-.096 2.792-.016 1.287.023 2.575-.022 3.86-.042 1.195-.203 2.386-.242 3.582-.074 2.304-.097 4.61-.141 6.917-.002.132 0 .265.008.399.054.995.501 1.551 1.451 1.796.128.034.26.06.392.068 1.814.117 3.627.247 5.441.332.385.019.787-.094 1.165-.204.79-.23 1.303-.776 1.444-1.578.146-.825.268-1.668.273-2.503.028-4.304-.04-8.61.037-12.912.054-3.058-.073-6.126.248-9.177.136-1.278.319-2.552.425-3.833.135-1.635.21-3.275.32-4.912.029-.433-.077-.892.248-1.363 2.146.564 4.356.41 6.632.255.213.926.258 1.849.318 2.76.047.703-.044 1.414-.078 2.122-.014.31-.05.618-.058.93-.112 4.3-.259 8.599-.318 12.9-.048 3.55.018 7.1.016 10.65-.001 2.172.017 4.347-.275 6.51-.131.975-.15 1.942.385 2.841.098.166.04.426.053.63-.45.279-.898.137-1.332.123-1.905-.065-3.81-.132-5.714-.212-.841-.036-1.68-.12-2.52-.16-1.239-.06-2.479-.139-3.72-.143-2.884-.009-5.769-.023-8.65.058-1.28.035-2.564.227-3.822.472-1.712.332-3.434.415-5.162.386-1.42-.023-2.837-.09-4.246.158-.171.031-.352.005-.593.005-.046-.262-.119-.51-.128-.762-.028-.707.019-1.416-.223-2.106-.07-.198-.04-.44-.02-.66.131-1.367.292-2.731.404-4.1.135-1.635.286-3.273.326-4.913.029-1.19-.101-2.386-.182-3.58-.06-.878-.122-1.754-.035-2.795zm-2.113 19.206c-.956.066-1.749.115-2.541.18-.397.03-.799.057-1.185.145-.348.077-.575.439-.586.804-.011.37.19.718.539.834.247.083.516.117.779.138 1.232.103 2.483-.005 3.692.366.147.045.362-.01.506-.09.886-.5 1.853-.555 2.832-.553 1.908.004 3.816.028 5.724.008.615-.007 1.23-.132 1.844-.197 1.5-.158 2.994-.388 4.497-.449a103.45 103.45 0 016.52-.054c1.812.041 3.642-.075 5.428.386.168.044.353.025.53.031 2.306.084 4.61.163 6.915.253.442.017.89.035 1.323.118 2.057.388 4.064-.016 6.07-.376.705-.127 1.109-.789 1.03-1.493-.077-.699-.606-1.206-1.356-1.195-.572.008-1.141.13-1.713.192-.245.026-.49.034-.805.054-.032-.654-.07-1.227-.085-1.8-.006-.264.036-.53.057-.794.139-1.725.376-3.447.397-5.172.045-3.77-.018-7.543-.042-11.315-.008-1.419-.055-2.838-.032-4.256.016-1.107.17-2.215.164-3.321-.02-3.109.208-6.208.276-9.311.033-1.498-.21-3.003-.349-4.503-.061-.673-.525-1.108-1.018-1.496-.466-.367-.97-.257-1.516-.136-.819.181-1.663.26-2.5.347-1.386.142-2.74-.097-4.089-.383-.516-.11-1.053-.195-1.577-.178-.881.03-1.274.456-1.314 1.34-.065 1.463-.092 2.927-.165 4.388a63.15 63.15 0 01-.228 2.915c-.178 1.855-.465 3.704-.54 5.562-.12 3.014-.128 6.032-.145 9.05-.02 3.814 0 7.63-.001 11.446 0 .62-.004 1.242-.25 1.82-.94.209-3.688.07-4.876-.244-.034-.111-.104-.235-.102-.357.031-1.952.02-3.906.125-5.854.119-2.17.316-4.331.313-6.51-.002-2.039.154-4.077.228-6.116.022-.62.02-1.242-.004-1.861a92.169 92.169 0 00-.162-2.924 8.306 8.306 0 00-.183-1.175c-.132-.59-.554-.89-1.12-.994-.26-.048-.53-.052-.795-.06a20.705 20.705 0 00-4.63.376c-.617.12-1.19.206-1.815-.063-.53-.229-1.065-.037-1.403.46-.193.285-.392.612-.44.94a21.09 21.09 0 00-.215 2.515c-.052 2.306-.057 4.613-.096 6.92-.033 1.996-.086 3.992-.131 5.987-.024 1.064-.058 2.129-.075 3.194a164.297 164.297 0 00-.02 3.191c.005 1.199.04 2.396.039 3.594-.001.337.052.721-.355.984-1.491-.221-3.022-.148-4.582.05-.036-.263-.075-.434-.08-.605-.128-4.712.283-9.398.66-14.086a5.373 5.373 0 00-.057-1.447c-.105-.54-.509-.819-1.064-.822-.35-.002-.704.055-1.054.106-1.25.18-2.491.54-3.66-.37-.442-.342-1.092-.031-1.302.515-.108.286-.173.6-.19.904a18.886 18.886 0 00-.02 1.995c.063 1.15.235 2.295.254 3.444.025 1.64-.027 3.283-.082 4.923-.046 1.33-.143 2.658-.225 3.986-.036.576-.087 1.15-.145 1.723-.102 1.018-.173 2.028.098 3.04.098.37.051.777.08 1.336zm41.677-66.584c.903-1.375 1.76-2.664 2.596-3.965.386-.602.826-1.152 1.372-1.614.753-.636 1.368-1.386 1.9-2.214.91-1.418 1.813-2.842 2.763-4.233.473-.691 1.024-1.334 1.578-1.966.467-.532.982-1.025 1.488-1.522 1.843-1.817 3.315-3.928 4.772-6.048.871-1.266 2.176-1.345 3.212-.182.176.199.345.406.494.625a5.354 5.354 0 002.207 1.86c1.479.691 2.612 1.816 3.624 3.066 1.264 1.56 2.237 3.3 3.124 5.092.332.671.62 1.375 1.344 1.883.185-.15.403-.283.566-.467a56.3 56.3 0 003.022-3.71c1.135-1.526 2.43-2.935 3.688-4.368 1.317-1.5 2.661-2.975 3.778-4.639.295-.44.645-.847.998-1.244 1.832-2.051 3.674-4.092 5.51-6.14.45-.499.94-.943 1.561-1.218.679-.3 1.386-.198 1.779.422.804 1.268 1.924 2.184 3.092 3.073.455.345.847.773 1.331 1.223 1.033-.48 2-1.104 2.807-1.906 1.195-1.184 2.311-2.45 3.44-3.7a356.993 356.993 0 003.79-4.285c1.4-1.603 2.786-3.218 4.177-4.83.696-.806 1.384-1.617 2.08-2.422 2.646-3.048 5.293-6.095 7.94-9.141.234-.267.459-.546.72-.785 1.877-1.715 3.386-3.75 4.988-5.705.056-.068.098-.15.16-.213 1.458-1.49 2.77-3.113 4.179-4.646.645-.7 1.534-1.195 2.367-1.696.637-.382 1.446-.112 1.882.493.44.613.394 1.409-.156 1.942a3.87 3.87 0 01-.866.61c-.6.317-1.091.753-1.536 1.256-1.379 1.561-2.766 3.117-4.145 4.678-.235.266-.475.532-.67.826-1.088 1.64-2.472 3.016-3.879 4.37a10.92 10.92 0 00-.647.671 7291.198 7291.198 0 00-6.127 7.014c-.408.468-.82.934-1.222 1.406-1.093 1.282-2.172 2.575-3.277 3.847-1.31 1.507-2.643 2.99-3.959 4.492-1.373 1.568-2.714 3.163-4.112 4.708-1.1 1.216-2.251 2.388-3.41 3.549-.339.34-.786.573-1.176.865-.602.45-1.199.907-1.796 1.36-.072.054-.144.107-.207.17-1.067 1.072-2.284.665-3.214-.377-.206-.23-.364-.504-.559-.746-.193-.24-.378-.5-.615-.695-.914-.755-1.848-1.487-2.84-2.28a29.712 29.712 0 00-2.078 2.189c-.633.742-1.308 1.449-1.934 2.196-.911 1.087-1.798 2.193-2.69 3.295-.585.724-1.136 1.476-1.746 2.177-1.311 1.506-2.66 2.978-3.973 4.482-.436.5-.84 1.033-1.21 1.584-1.068 1.59-2.334 3.014-3.633 4.412-.15.164-.286.351-.465.473-.804.544-1.608.834-2.601.356-1.228-.592-2.028-1.544-2.646-2.698-.522-.977-1.003-1.978-1.546-2.943-.39-.694-.836-1.36-1.287-2.017a9.323 9.323 0 00-3.58-3.101c-.583-.292-1.086-.75-1.61-1.153-.239-.185-.437-.424-.724-.708-.21.244-.378.427-.533.623-.579.729-1.13 1.483-1.735 2.19-.836.976-1.664 1.966-2.581 2.864-1.213 1.187-2.308 2.454-3.176 3.914-.045.076-.1.147-.145.224-1.002 1.739-2.26 3.276-3.616 4.753-1.499 1.632-2.94 3.325-4.027 5.277a9.959 9.959 0 00-.612 1.315c-.414 1.09-1.28 1.49-2.32.982-1.473-.719-2.914-1.484-4.156-2.595-1.52-1.36-3.112-2.64-4.64-3.99-.731-.645-1.381-1.38-2.08-2.06-.959-.933-1.064-.99-2.524-1.552-.174.122-.396.255-.593.419-2.316 1.912-4.143 4.256-5.84 6.704a74.397 74.397 0 01-6.29 7.91c-.835.914-1.571 1.923-2.304 2.923-.997 1.362-2.026 2.689-3.197 3.912-1.263 1.32-2.178 2.902-3.119 4.459-.225.374-.447.773-.76 1.065-.288.268-.693.396-1.108.162-.41-.233-.606-.615-.493-1.13.075-.343.205-.68.356-.998.84-1.775 1.937-3.397 3.218-4.868a52.16 52.16 0 003.735-4.842c.573-.84 1.227-1.632 1.905-2.392 2.16-2.418 4.197-4.929 6-7.63a38.074 38.074 0 015.972-6.949c.36-.328.703-.652.954-1.093.212-.374.558-.692.897-.969.702-.57 1.618-.476 2.06.323.313.565.769.777 1.256 1.079.748.463 1.45 1.016 2.122 1.589 2.396 2.042 4.772 4.11 7.156 6.165.577.496 1.224.87 2.026 1.128zm61.063-85.931zm0 0c.085.993.28 1.944.153 2.917-.225 1.724-.16 3.454-.111 5.183.018.665.002 1.33.002 2.069-.235.047-.481.133-.728.138-.443.01-.888-.01-1.329-.053-1.6-.153-3.183.004-4.767.216-.393.053-.793.055-1.189.078-.265.016-.553-.033-.79.056-.903.338-1.837.239-2.763.288a29.23 29.23 0 00-2.775.269c-2.507.375-5.025.508-7.557.561-1.905.04-3.804.241-5.707.36-3.227.2-6.427.804-9.681.609-1.904-.115-3.828-.052-5.711-.302-2.081-.277-4.16-.23-6.24-.304-1.419-.051-2.839.023-4.184.587-.239.1-.511.125-.766.184-.269-.991-1.309-8.451-1.36-9.768.445-.374 1.005-.276 1.5-.19 1.635.286 3.272.168 4.91.107.134-.005.266-.02.4-.02 3.325-.045 6.651-.095 9.977-.128 1.951-.019 3.897-.025 5.847-.22 1.628-.162 3.28-.108 4.92-.096 2.136.015 4.259-.117 6.352-.536 1.962-.394 3.954-.51 5.937-.717 2.249-.236 4.497-.473 6.747-.691a634.26 634.26 0 017.278-.659c.522-.044 1.055-.067 1.635.062zm-56.184.74c-.057-.081-.158-.22-.254-.36-.186-.273-.419-.478-.772-.39-.402.097-.567.406-.566.795.001.408-.062.783-.299 1.13-.234.346-.153.721.12.973.357.327.474.704.528 1.163.221 1.892.489 3.78.707 5.671.138 1.186.23 2.377.323 3.567.087 1.113.965 1.847 2.09 1.686a6.107 6.107 0 001.156-.3c1.364-.48 2.763-.589 4.193-.452.441.042.887.056 1.33.043 2.09-.067 4.15.312 6.233.39 1.638.061 3.274.175 4.913.246 2.846.125 5.661-.31 8.49-.49 2.167-.136 4.325-.39 6.501-.378 1.33.007 2.664-.023 3.987-.137 1.721-.148 3.431-.428 5.151-.588.834-.077 1.706-.135 2.516.026 1.162.23 2.28.12 3.429.005 1.14-.115 2.279-.274 3.439-.202a34.21 34.21 0 003.722.052c1.564-.073 2.208-.829 2.206-2.399-.001-.133-.017-.265-.027-.399-.065-.972-.171-1.943-.185-2.918-.015-1.016-.01-2.042.111-3.049.209-1.734.04-3.454-.041-5.18-.025-.513-.266-.923-.648-1.266-.556-.499-1.213-.712-1.946-.686-.353.013-.703.115-1.054.116-2.888.004-5.732.517-8.602.736-2.339.179-4.67.47-7.004.727-1.76.195-3.527.368-5.276.64-1.36.211-2.712.436-4.09.463-1.597.03-3.193.052-4.788.103-1.153.037-2.303.113-3.454.176-1.06.058-2.12.158-3.181.176-2.35.04-4.702.014-7.052.062-2.88.058-5.758.17-8.639.243-1.06.026-2.123.005-3.267.005zm27.561 109.731c.079.137.122.176.121.214-.076 2.477-.08 4.962-.262 7.432-.103 1.406-.448 2.797-.405 4.22.022.751.089 1.501.134 2.252.026.434.186.87-.03 1.345l-6.718-.128c-.09 0-.18-.033-.265-.019-1.87.31-3.788.252-5.633.757-1.538.421-3.09.707-4.706.62-1.147-.062-2.303.034-3.454.042-1.19.006-2.377-.042-3.61-.269.038-1.901.049-3.76.12-5.615.05-1.283.196-2.561.27-3.843.08-1.372.126-2.743.19-4.115.042-.927.1-1.854.126-2.782.016-.609-.014-1.218-.025-1.88 1.038.077 2 .435 2.93.945 1.518.831 3.116 1.253 4.855.816.256-.064.53-.058.79-.11 1.978-.39 3.968-.273 5.953-.089.71.066 1.406.097 2.116-.005.567-.08 1.145-.092 1.72-.124.354-.02.734.06 1.058-.044 1.344-.433 2.626-.099 3.918.225.256.065.52.1.806.155zm-26.061-2.067c-.139.687-.292 1.193-.333 1.708-.07.883-.075 1.771-.097 2.658-.021.886.043 1.781-.055 2.659-.422 3.76-.359 7.525-.192 11.293.018.398.083.793.135 1.188.081.612.453.94 1.046 1.033 1.75.272 3.49.644 5.28.554.884-.045 1.774-.145 2.653-.093 1.8.108 3.526-.244 5.255-.655a8.662 8.662 0 011.699-.236c.667-.024 1.318-.066 1.97-.237.596-.155 1.209-.176 1.842-.123 1.188.096 2.387.092 3.582.087 1.284-.007 2.547.095 3.792.428.78.21 1.471-.242 1.503-1.04.04-.971.081-1.962-.057-2.918a16.482 16.482 0 01.084-5.424c.195-1.054.282-2.107.268-3.175-.013-1.064-.028-2.13-.018-3.194.014-1.505-.065-3.016.223-4.51a1.91 1.91 0 00.015-.529c-.04-.448-.317-.732-.72-.866a.888.888 0 00-.973.262c-.202.223-.362.483-.566.762-.767-.13-1.508-.236-2.24-.387-.88-.18-1.746-.23-2.625.017-.335.094-.701.08-1.054.106-1.941.151-3.874.227-5.828.027-1.719-.176-3.45.028-5.153.404-1.113.246-2.222.13-3.232-.41a11.064 11.064 0 00-4.153-1.278 8.324 8.324 0 00-1.982.029c-.661.095-.903.762-.54 1.325.142.219.347.397.471.535zm26.181 42.164zm0 0c-.952-.086-1.872-.161-2.79-.254-1.274-.13-2.547-.267-3.82-.41-1.46-.163-2.904-.103-4.364.105-1.49.213-2.972.441-4.441.77-.47.106-.968.112-1.453.115-1.683.008-3.366-.011-5.05-.005-.706.003-1.413.046-2.19.074-.257-.844-.13-1.776-.002-2.668.185-1.28.215-2.557.209-3.841-.012-2.087.17-4.158.463-6.222.087-.609.122-1.225.185-1.885.637-.277 1.274-.305 1.94-.277 1.636.071 3.275.143 4.911.13.88-.007 1.761-.163 2.634-.297a11.02 11.02 0 012.91-.04c1.983.22 3.978.232 5.972.13 1.72-.088 3.435-.108 5.134.347.04.143.107.267.104.39-.08 4.56-.168 9.12-.26 13.68-.003.076-.086.149-.092.158zm2.58-6.443c.047-2.749.096-5.497.14-8.245.014-.944-.65-1.81-1.607-1.956a32.881 32.881 0 00-3.432-.352c-1.015-.047-2.037.043-3.058.054-1.95.023-3.898.066-5.845-.175-.693-.085-1.42-.04-2.115.057-1.847.259-3.691.455-5.561.363-1.907-.094-3.809.016-5.705.236-.554.066-1.035.228-1.428.622-.273.273-.402.691-.15.96.568.613.47 1.305.373 2.004-.354 2.507-.491 5.026-.472 7.558.007.842-.077 1.683-.075 2.525.001 1.33-.006 2.66.077 3.986.068 1.087 1.244 1.946 2.163 1.535.824-.37 1.624-.351 2.465-.305.841.046 1.685.106 2.526.095 1.417-.017 2.859.066 4.244-.168 1.793-.302 3.589-.559 5.394-.765.61-.069 1.235-.046 1.85-.015 1.503.076 3.008.146 4.484.487.213.05.44.037.662.042 1.102.023 2.048.41 2.905 1.11.871.712 1.868.263 2-.878a15.3 15.3 0 00.086-1.726c.009-2.35.004-4.7.004-7.05zm24.15-13.002c.698.144 1.437.265 2.158.453.81.211 1.383.78 1.85 1.438 1.254 1.766 2.007 3.742 2.302 5.876.2 1.448.286 2.915.016 4.368-.12.647-.273 1.304-.532 1.903-.412.956-1.061 1.719-2.068 2.142-1.222.514-2.402 1.134-3.64 1.607-1.506.575-3.058.848-4.68.418-1.101-.293-2.022-.88-2.91-1.545-.603-.45-1.163-.958-1.766-1.407-1.07-.797-1.783-1.858-2.214-3.088-1.266-3.61-.644-6.896 1.855-9.79.662-.767 1.44-1.437 2.187-2.127.363-.336.792-.493 1.328-.465.927.048 1.86.027 2.788-.018.79-.04 1.482.164 2.12.617.171.122.384.184.647.305l.56-.687zm9.115 10.181c-.16-1.54-.16-3.119-.526-4.608-.418-1.706-1.061-3.378-2.027-4.881-.31-.482-.68-.928-1.048-1.369a4.713 4.713 0 00-2.676-1.626c-1.47-.312-2.958-.54-4.442-.776-.664-.105-1.33-.046-1.948.246-.451.214-.913.274-1.412.278-1.803.018-3.384.63-4.666 1.918-.718.721-1.444 1.445-2.076 2.24-.994 1.252-1.883 2.585-2.255 4.175-.635 2.712-.473 5.368.693 7.922.519 1.135 1.195 2.175 2.167 2.988.747.625 1.5 1.243 2.266 1.845 2.736 2.151 5.76 2.783 9.114 1.747 1.957-.605 3.763-1.543 5.572-2.47.383-.196.721-.521 1.01-.849 1.24-1.401 1.989-3.028 2.102-4.912.037-.618.006-1.24.006-1.86zm-15.62-16.857c-1.522 1.585-1.792 1.745-3.609.653-.128.23-.23.477-.385.686-.314.424-.835.375-1.069-.099a1.697 1.697 0 01-.183-.628c-.055-.933-.005-1.857.241-2.77.148-.545.498-.819 1.017-.915.5-.093.854.111 1.173.669.109.19.188.4.282.6.093.198.19.396.333.695.167-.187.312-.316.415-.474.145-.222.243-.474.388-.695.633-.958 1.674-1.048 2.465-.201.27.29.47.643.726.95.372.445.613.496 1.164.24.442-.204.86-.463 1.307-.653.663-.282 1.314-.352 2.052-.118 1.694.537 3.438.86 5.23.81.394-.011.813-.02 1.18-.148 1.322-.464 2.7-.461 4.069-.534.973-.053 1.949-.112 2.923-.107a37.6 37.6 0 013.185.134c1.373.123 2.747.238 4.115.053 3.79-.513 7.602-.497 11.412-.549 1.019-.014 2.037-.07 3.054-.122.627-.031 1.137.16 1.465.716.435.74.046 1.697-.784 1.9-.252.061-.525.048-.788.047-2.97-.011-5.941-.052-8.912-.026-1.015.008-2.033.153-3.043.283a31.78 31.78 0 01-6.502.184c-.44-.034-.88-.109-1.321-.14-.574-.04-1.165-.149-1.72-.059-1.413.231-2.83.17-4.247.202-.488.012-.966.02-1.429.228-.615.277-1.279.33-1.95.355-1.962.071-3.903-.09-5.784-.66-.826-.25-1.555-.241-2.284.217a2.93 2.93 0 01-.603.277c-1.03.361-2.005.288-2.884-.41-.24-.19-.469-.395-.7-.59zm-.447-8.671c-2.072 1.504-2.162 1.518-4.168.654-.068.302-.114.595-.202.876-.1.322-.326.52-.68.534a.753.753 0 01-.763-.614c-.171-.986-.027-1.943.38-2.854.16-.354.461-.527.852-.532.453-.006.88.06 1.242.372.234.199.493.368.804.598.252-.161.516-.302.748-.484.242-.191.435-.447.681-.632.655-.492 1.456-.563 2.078-.018.909.793 1.826.93 2.938.506.847-.324 1.748-.192 2.627-.009 2.132.444 4.289.649 6.466.663 3.104.02 6.208.072 9.31.084 1.95.009 3.903.012 5.851-.063 1.99-.077 3.977-.257 5.965-.382.53-.033 1.064-.013 1.594-.045.972-.059 1.941-.138 2.911-.21.177-.013.352-.055.529-.053.68.003 1.21.457 1.295 1.093.097.724-.3 1.349-1.033 1.466-.872.139-1.756.221-2.639.271-2.078.116-4.16.196-6.24.291-.31.014-.62.036-.93.036-4.922-.01-9.843-.022-14.765-.034-.177-.001-.355-.019-.531-.008-2.406.158-4.775-.186-7.146-.51-.131-.018-.268-.03-.391-.071a4.983 4.983 0 00-3.263-.007c-.289.097-.61.114-.918.13-.587.03-1.145-.076-1.641-.42-.291-.203-.593-.389-.961-.628zm33.165 20.004c1.621-.344 3.133-.011 4.646.3.647.133 1.289.283 1.934.428.812.183 1.181.743 1.216 1.525.032.705.075 1.425-.029 2.117-.12.78-.361 1.547-.616 2.3-.275.81-.874 1.3-1.72 1.494-.514.118-1.038.23-1.525.425-.855.344-1.678.231-2.423-.198-.682-.394-1.309-.902-1.908-1.42-.601-.523-.756-1.28-.835-2.04-.185-1.77.045-3.443 1.26-4.931zm10.388 2.999c-.053-.704-.085-1.41-.167-2.111-.123-1.051-.704-1.812-1.65-2.241a10.863 10.863 0 00-2.765-.847c-.65-.105-1.295-.26-1.946-.362a42.772 42.772 0 00-2.488-.333 2.024 2.024 0 00-.91.123c-1.079.431-2.026 1.035-2.688 2.047-1.54 2.36-1.719 4.874-.89 7.496.17.535.443 1.09.818 1.495.902.978 1.937 1.817 3.168 2.367 1.256.56 2.537.722 3.86.194.364-.146.767-.193 1.151-.284 1.594-.379 2.86-1.197 3.487-2.767.61-1.527 1.04-3.104 1.02-4.777z"/><path fill="#fff" d="M233.336 215.663c.905 0 1.655-.005 2.405.004.123.001.246.061.446.115 0 .347.022.69-.003 1.03-.15 2.035-.358 4.067-.453 6.105-.1 2.169-.1 4.343-.138 6.515-.007.399-.013.8.013 1.197.02.306.044.626.147.909.233.637.678 1.036 1.404.996.62-.035 1.244-.054 1.857-.14 1.247-.176 2.471-.084 3.688.211.215.052.436.083.656.1.84.062 1.608-.473 1.734-1.294.133-.873.23-1.762.242-2.645.018-1.197-.063-2.395-.092-3.592a31.181 31.181 0 01.002-1.597c.048-1.73.118-3.457.156-5.187.09-4.17.161-8.339.248-12.508.005-.259.067-.516.112-.842 1.826-.157 3.571-.77 5.488-.511.06.367.156.707.169 1.05.067 1.818.11 3.634-.09 5.451-.103.923-.084 1.86-.096 2.792-.016 1.287.023 2.575-.022 3.86-.042 1.195-.203 2.386-.242 3.582-.074 2.304-.097 4.61-.141 6.917-.002.132 0 .265.008.399.054.995.501 1.551 1.451 1.796.128.034.26.06.392.068 1.814.117 3.627.247 5.441.332.385.019.787-.094 1.165-.204.79-.23 1.303-.776 1.444-1.578.146-.825.268-1.668.273-2.503.028-4.304-.04-8.61.037-12.912.054-3.058-.073-6.126.248-9.177.136-1.278.319-2.552.425-3.833.135-1.635.21-3.275.32-4.912.029-.433-.077-.892.248-1.363 2.146.564 4.356.41 6.632.255.213.926.258 1.849.318 2.76.047.703-.044 1.414-.078 2.122-.014.31-.05.618-.058.93-.112 4.3-.259 8.599-.318 12.9-.048 3.55.018 7.1.016 10.65-.001 2.172.017 4.347-.275 6.51-.131.975-.15 1.942.385 2.841.098.166.04.426.053.63-.45.279-.898.137-1.332.123-1.905-.065-3.81-.132-5.714-.212-.841-.036-1.68-.12-2.52-.16-1.239-.06-2.479-.139-3.72-.143-2.884-.009-5.769-.023-8.65.058-1.28.035-2.564.227-3.822.472-1.712.332-3.434.415-5.162.386-1.42-.023-2.837-.09-4.246.158-.171.031-.352.005-.593.005-.046-.262-.119-.51-.128-.762-.028-.707.019-1.416-.223-2.106-.07-.198-.04-.44-.02-.66.131-1.367.292-2.731.404-4.1.135-1.635.286-3.273.326-4.913.029-1.19-.101-2.386-.182-3.58-.06-.878-.122-1.754-.035-2.795z"/><path fill="#dbdcde" d="M333.963 82.354c.085.993.281 1.944.153 2.917-.225 1.724-.16 3.454-.111 5.183.018.665.002 1.33.002 2.069-.235.047-.481.133-.728.138-.443.01-.888-.01-1.329-.053-1.6-.153-3.183.004-4.767.216-.393.053-.793.055-1.189.078-.265.016-.553-.033-.79.056-.903.338-1.837.239-2.763.288-.927.05-1.857.131-2.775.269-2.507.375-5.025.508-7.557.561-1.905.04-3.804.241-5.706.36-3.228.2-6.428.804-9.682.609-1.904-.115-3.828-.052-5.711-.302-2.081-.277-4.16-.23-6.24-.304-1.419-.051-2.839.023-4.184.587-.239.1-.511.125-.766.184-.269-.991-1.309-8.451-1.36-9.768.445-.374 1.005-.276 1.5-.19 1.635.286 3.272.168 4.91.107.134-.004.266-.02.4-.02 3.325-.045 6.651-.095 9.977-.128 1.951-.019 3.897-.025 5.847-.22 1.628-.162 3.28-.108 4.92-.096 2.136.015 4.259-.117 6.352-.536 1.962-.394 3.954-.51 5.937-.717 2.249-.236 4.498-.473 6.747-.691a634.26 634.26 0 017.278-.659c.522-.044 1.055-.067 1.635.062z"/><path fill="#fff" d="M305.34 192.825c.079.137.122.176.121.214-.076 2.477-.08 4.962-.262 7.432-.103 1.406-.448 2.797-.405 4.22.022.751.089 1.501.134 2.252.026.434.186.87-.03 1.345l-6.718-.128c-.09 0-.18-.033-.265-.019-1.87.31-3.788.252-5.633.757-1.538.421-3.09.707-4.706.62-1.147-.062-2.303.034-3.454.042-1.19.006-2.377-.042-3.61-.269.038-1.901.049-3.76.12-5.615.05-1.283.195-2.561.27-3.843.08-1.372.126-2.743.19-4.115.041-.927.1-1.854.126-2.782.016-.609-.014-1.218-.025-1.88 1.038.077 2 .435 2.93.945 1.518.831 3.116 1.253 4.855.816.256-.064.53-.058.789-.11 1.98-.39 3.97-.273 5.954-.089.71.066 1.406.097 2.116-.005.567-.08 1.145-.092 1.72-.124.354-.02.734.06 1.058-.044 1.344-.433 2.627-.099 3.918.225.256.065.52.1.806.155zm.12 40.097c-.952-.086-1.872-.161-2.79-.254-1.274-.13-2.547-.267-3.82-.41-1.46-.163-2.904-.103-4.364.105-1.49.213-2.972.441-4.441.77-.47.106-.968.112-1.453.115-1.683.008-3.367-.011-5.05-.005-.706.003-1.413.046-2.19.074-.257-.844-.13-1.776-.002-2.668.185-1.28.215-2.557.209-3.841-.012-2.087.17-4.158.463-6.222.087-.609.122-1.225.185-1.885.637-.277 1.274-.305 1.94-.277 1.636.071 3.275.143 4.911.13.88-.007 1.761-.163 2.634-.297a11.02 11.02 0 012.91-.04c1.983.22 3.978.232 5.972.13 1.72-.088 3.435-.108 5.134.347.04.143.107.267.104.39-.08 4.56-.168 9.12-.26 13.68-.003.076-.086.149-.092.158zm26.171-18.758l.56-.687c.697.144 1.436.265 2.157.453.81.211 1.383.78 1.85 1.438 1.254 1.766 2.007 3.742 2.302 5.876.2 1.448.286 2.915.016 4.368-.12.647-.273 1.304-.532 1.903-.412.956-1.061 1.719-2.069 2.142-1.221.514-2.401 1.134-3.638 1.607-1.507.575-3.059.848-4.682.418-1.1-.293-2.021-.88-2.91-1.545-.602-.45-1.162-.957-1.765-1.407-1.07-.797-1.783-1.858-2.214-3.088-1.266-3.61-.644-6.896 1.855-9.79.662-.767 1.44-1.436 2.187-2.127.363-.336.792-.493 1.328-.465.927.048 1.86.027 2.788-.018.79-.04 1.482.164 2.12.617.171.122.384.184.647.305zm26.772 3.97c1.621-.344 3.133-.011 4.646.3.647.133 1.289.283 1.934.428.812.183 1.181.743 1.216 1.525.032.705.075 1.425-.029 2.117-.12.78-.361 1.547-.616 2.3-.275.81-.874 1.3-1.72 1.494-.514.118-1.038.23-1.525.425-.855.344-1.678.231-2.423-.198-.682-.394-1.309-.902-1.908-1.42-.601-.523-.756-1.28-.835-2.04-.185-1.77.045-3.443 1.26-4.931z"/><path fill="#040504" d="M503.955 259.98v.446c-.054.08-.055.16.004.237.819 4.884 2.346 9.597 3.438 14.414 1.327 5.845 2.75 11.671 3.929 17.546.747 3.721 1.97 7.286 3.082 10.886.98 3.174 1.694 6.386 2.22 9.66.668 4.152 1.143 8.332 1.96 12.461.316 1.6.353 3.252.605 4.868.316 2.033.722 4.052 1.109 6.184-1.753.273-2.547 1.625-3.232 3.124-.763 1.667-1.52 3.324-1.77 5.167-.105.78-.13 1.562-.058 2.333.091.988.668 1.732 1.483 2.269.822.54 1.726.887 2.712 1.013 3.482.447 6.972.872 10.482.382 1.888-.264 3.76-.655 5.636-1.005.267-.05.524-.099.801-.106 1.036-.025 1.417-.406 1.348-1.446-.098-1.521-.053-3.039-.044-4.56.023-4.129.188-8.252.563-12.364.43-4.729.105-9.4-.67-14.087-1.204-7.256-2.412-14.515-3.188-21.837-.624-5.884-1.497-11.739-2.216-17.611-.503-4.101-.61-8.23-.394-12.373.172-3.346.46-6.684.629-10.03.095-1.902.44-3.794.516-5.698.122-3.031.35-6.074-.148-9.099-.345-2.103-1.249-4-2.235-5.859-.248-.467-.326-.85-.088-1.395.397-.91.507-1.89-.207-2.754-.165-.2-.178-.402-.156-.649.576-6.089 1.157-12.174 2.566-18.147.637-2.7.802-5.47 1.053-8.223.1-1.085.302-2.165.245-3.263-.021-.406.2-.749.348-1.104 1.235-2.984 2.564-5.94 3.262-9.109 1.163-5.284 2.304-10.572 2.972-15.95.202-1.623.444-3.239.433-4.882-.013-1.842-.242-3.646-.813-5.404-.527-1.627-.862-3.312-1.53-4.898-.857-2.032-2.06-3.836-3.482-5.506-1.85-2.173-3.852-4.189-6.123-5.928-.527-.404-1.07-.787-1.677-1.057-2.653-1.181-4.963-2.906-7.311-4.576-1.518-1.08-3.016-2.212-4.85-2.692-.081-.383.136-.637.288-.897 1.378-2.352 2.585-4.794 3.785-7.24.863-1.757 1.413-3.617 1.865-5.51.11-.464.262-.893.56-1.269 1.723-2.175 3.116-4.546 4.37-7.023.963-1.903 2.249-3.627 3.096-5.614 1.956-4.585 3.718-9.244 5.23-13.987 2.46-7.706 1.7-15.242-1.741-22.503-1.666-3.518-3.697-6.85-5.623-10.233a14.554 14.554 0 00-2.846-3.543c-1.416-1.294-2.622-2.781-3.833-4.256-2.237-2.726-5.098-4.586-8.294-5.905-2.946-1.215-5.947-2.314-9.122-2.843-2.195-.365-4.411-.507-6.617-.761-2.95-.34-5.914-.37-8.878-.268-2.852.097-5.669.43-8.329 1.585-.754.326-1.495.686-2.158 1.152-1.786 1.257-3.745 2.246-5.508 3.524-2.228 1.616-4.76 2.094-7.394 2.13-1.946.027-3.861-.314-5.752-.871-2.333-.688-3.649-2.276-4.366-4.468-.3-.921-.608-1.844-.789-2.807-.11-.594-.682-.951-1.202-.904-.55.048-.942.45-1.043 1.083-.567 3.566-.799 7.162.033 10.692.791 3.36 1.447 6.785 3.15 9.863.36.65.685 1.33 1.29 1.784.389.29.359.585.29 1.01-.546 3.343-.89 6.71-1.104 10.093-.354 5.615-.194 11.224.146 16.83.117 1.944.735 3.822 1.034 5.745.237 1.515.613 2.983 1.417 4.296.344.56.058.865-.27 1.217-1.196 1.284-2.384 2.573-3.587 3.849-.808.856-1.499 1.78-1.976 2.868-.748 1.705-.427 3.184.835 4.5 1.782 1.861 3.962 2.838 6.537 2.955.899.04.886.059 1.069.902.314 1.45.738 2.86 1.433 4.183.379.723.741 1.462 1.027 2.225 1.001 2.681 2.61 4.944 4.637 6.935.807.794 1.546 1.647 2.287 2.504 2.01 2.324 4.298 4.285 7.214 5.421.935.366 1.847.8 2.73 1.37-1.246 1.233-2.694 1.92-4.358 2.257-2.495.506-4.412 1.86-5.712 4.08-.787 1.344-1.638 2.65-2.455 3.974-.624 1.012-.87 2.155-1.149 3.29-.891 3.633-1.273 7.365-2.126 11-.662 2.824-.81 5.701-1.144 8.56-.074.625-.081 1.257.414 1.752-.033.08-.042.18-.094.214-1.694 1.122-2.766 2.695-3.434 4.592-.4 1.134-1.133 2.12-1.427 3.317-.374 1.515-.176 2.852.892 4.024.184.202.323.454.533.62.825.66.92 1.379.427 2.325-.593 1.135-.95 2.397-1.58 3.509-1.045 1.843-1.423 3.859-1.79 5.89-.452 2.502-.601 5.023-.506 7.566.13 3.418 1.367 6.258 4.077 8.442 1.698 1.368 3.566 1.828 5.683 1.482 3.286-.536 6.314-1.67 8.919-3.803.3-.244.63-.45 1.036-.736.286.91.247 1.796.367 2.651.328 2.314.587 4.638.905 6.954.154 1.121.013 2.26.254 3.372.058.266-.086.426-.226.621-1.196 1.67-1.227 2.966.097 4.419.607.666.808 1.357.898 2.188.64 5.86 1.006 11.747.859 17.628-.149 5.89-.072 11.775-.075 17.661-.002 2.428-.414 4.812-.67 7.212-.666 6.277-2.078 12.444-2.73 18.728a80.984 80.984 0 01-2.323 12.504c-1.295 4.857-2.184 9.811-2.916 14.776-.574 3.894-1.514 7.718-1.997 11.623-.04.317-.076.643-.383.808-1.06.567-2.019 1.33-3.198 1.674-.832.244-1.673.336-2.539.334-1.871-.006-3.744.01-5.595.35-.73.133-1.442.319-2.114.644-1.645.794-2.575 2.31-2.404 3.918.184 1.709 1.71 3.458 3.32 3.847 1.186.287 2.402.266 3.603.345 1.593.105 3.187.178 4.772.371a28.14 28.14 0 007.002-.037c2.134-.27 4.286-.135 6.415-.42 2.47-.33 4.947-.62 7.413-.974 1.445-.208 2.39-1.093 2.852-2.458.55-1.624.894-3.302 1.217-4.983a33.86 33.86 0 00.56-4.755c.131-2.695.778-5.317 1.143-7.98.476-3.473.984-6.944 1.576-10.399.473-2.76 1.082-5.5 1.65-8.244.736-3.547 1.114-7.155 1.859-10.703 1.528-7.277 2.665-14.633 4.447-21.858.373-1.511.755-3.021 1.163-4.523.907-3.349 1.277-6.807 2.107-10.172.363-1.473.663-2.962.992-4.443.066-.209.23-.375.265-.598.092.108.006.277.133.371z"/><path fill="#bfccd4" d="M503.955 259.98a.59.59 0 00-.074-.543c-.261.194-.372.447-.324.768l.398-.226zm.005.683l-.006-.237c-.027.057-.06.113-.077.174-.004.012.053.042.082.063z"/><path fill="#fff" d="M458.792 106.075c-.031.38.182.663.386.99.734-.511 1.09-1.294 1.55-1.999 1.537-2.354 2.52-5.004 3.953-7.411 1.615-2.713 2.995-5.541 4.223-8.447.471-1.112.945-2.219 1.177-3.412.03-.152.09-.298.134-.447.07-.238.19-.437.46-.465.315-.032.508.154.63.423.54 1.187.62 2.438.237 3.652-.935 2.966-1.825 5.963-3.236 8.743-1.514 2.982-2.91 6.027-4.55 8.947-.734 1.304-1.592 2.487-2.7 3.496-2.052 1.868-3.805 4.02-5.645 6.083-1.183 1.326-1.257 1.584.454 2.65 1.932 1.204 3.995 1.144 6.085.536 1.08-.315 2.139-.71 3.205-1.077a7.213 7.213 0 013.566-.303c.713.117 1.446.234 2.228-.215-.03.627-.274.996-.591 1.33-1.14 1.195-2.396 2.224-3.98 2.782-1.426.502-2.812 1.114-4.336 1.482.191.579.313 1.113.537 1.6 1.365 2.957 2.334 6.109 4.267 8.791.411.57.866 1.101 1.367 1.597a46.977 46.977 0 013.007 3.268c1.694 2.023 3.674 3.689 6.173 4.68.938.37 1.858.82 2.72 1.342 2.605 1.582 5.446 2.407 8.427 2.946 3.341.605 6.667.778 9.979.016 5.204-1.198 9.825-3.439 13.283-7.7 1.488-1.832 2.544-3.912 3.675-5.953.64-1.156 1.216-2.349 1.828-3.522 1.424-2.73 2.02-5.709 2.588-8.693.54-2.841.704-5.719.746-8.607.007-.53-.02-.821-.702-.876-1.165-.095-1.861-.924-2.276-1.943-.198-.488-.225-1.047-.354-1.7.787.317 1.469.554 2.116.862.702.335 1.158.262 1.845-.273 1.405-1.098 2.305-2.486 3.093-4.02.519-1.01.664-2.062.58-3.169-.192-2.553-.969-4.953-1.96-7.29-.665-1.565-1.748-2.854-2.885-4.083-.981-1.06-1.845-1.023-2.951-.12-1.47 1.197-2.102 2.774-2.166 4.602-.063 1.79-.042 3.584-.067 5.376-.004.308-.01.628-.092.922-.126.458-.478.724-.946.74-.468.016-.84-.22-.987-.676-.132-.405-.209-.83-.284-1.252-.405-2.267-1.24-4.421-1.777-6.648-.694-2.882-1.889-5.496-3.523-7.949-1.143-1.717-2.182-3.503-3.294-5.242-.523-.817-.775-1.676-.743-2.649.034-1.058.145-2.095.466-3.108.708-2.235.46-4.47-.056-6.693-.17-.736-.638-1.33-1.13-1.888-1.631-1.856-3.638-3.106-5.963-3.957-2.4-.879-4.875-1.323-7.385-1.659-1.33-.177-2.62-.044-3.927.29-2.379.61-4.71 1.34-6.982 2.273-1.556.64-3.227.873-4.86 1.233-1.484.327-2.931.768-4.37 1.26-3.108 1.062-6.278 1.507-9.523.698-.628-.156-.82.126-.989.638-.567 1.71-.856 3.477-1.058 5.254-.427 3.754-.785 7.515-.865 11.297-.007.268.039.538.06.809.367.155.519-.168.742-.333.193-.194.339-.426.484-.656.671-1.055 1.672-1.554 2.875-1.432 1.25.127 2.117.866 2.624 2.05.561 1.311.58 2.646.336 4.013-.007.455.193.91-.008 1.521-.526-.496-.647-1.133-1.027-1.59-1.105-1.326-1.474-1.308-2.195.215-.32-.24-.25-.63-.388-.92-.152-.322-.284-.658-.71-.68-.398-.02-.656.226-.85.527-.55.846-.695 1.816-.749 2.788-.14 2.532.184 5.049.333 7.57.13 2.209.17 4.427.687 6.604.163.685-.423 1.426-.046 2.161z"/><path fill="#313133" d="M479.749 239.231c.994 7.538 1.46 14.947 1.213 22.407-.123 3.738-.029 7.487.076 11.227.096 3.409-.328 6.762-.777 10.122-.205 1.543-.297 3.103-.537 4.64-.382 2.46-.972 4.885-1.275 7.361-.364 2.975-.705 5.954-1.153 8.917-.383 2.536-.752 5.077-1.385 7.574a177.593 177.593 0 00-3.791 19.475c-.345 2.508-.956 4.967-1.435 7.452-.275 1.432-.253 1.411 1.084 1.919 3.912 1.486 7.994 1.962 12.138 2.085a3.71 3.71 0 00.699-.049c.911-.148 1.017-.255 1.106-1.185.16-1.666.227-3.345.47-4.998.71-4.813 1.542-9.61 2.22-14.427.57-4.053 1.623-8.007 2.329-12.03.524-2.99.958-5.993 1.545-8.972 1.492-7.56 2.804-15.158 4.691-22.637.743-2.942 1.725-5.816 2.288-8.81.669-3.555 1.52-7.072 2.634-10.518.418-1.296.881-2.578 1.653-3.719.242-.357.492-.708.836-.971.413-.318.713-.172.794.343.34 2.184.638 4.376 1.048 6.545.588 3.099 1.617 6.086 2.435 9.127 1.527 5.673 2.986 11.36 4.216 17.108.481 2.244 1.018 4.476 1.448 6.733.431 2.261 1.353 4.384 1.956 6.598.735 2.702 1.778 5.318 2.276 8.085.69 3.834 1.333 7.677 1.787 11.545.179 1.514.612 2.975.803 4.483.088.695.258 1.383.302 2.08.17 2.691.734 5.323 1.15 7.976.035.231.063.465.078.697.076 1.163.14 1.225 1.345 1.316.699.053 1.4.086 2.096.173 1.179.15 2.258.558 3.193 1.318.847.687 1.712 1.351 2.55 2.048a4.809 4.809 0 011.437 1.956c.148.377.218.753.163 1.143-.097.71-.674.98-1.267.606a1.409 1.409 0 01-.357-.299c-1.058-1.34-2.589-2.112-3.854-3.203-.806-.695-1.731-1.017-2.792-.994-.545.013-1.092.01-1.637-.016a3.415 3.415 0 00-2.1.576c-.256.17-.543.387-.828.408-1.027.073-1.379.785-1.766 1.581a12.304 12.304 0 00-1.205 4.125c-.114 1.081.137 1.476 1.16 1.864a8.794 8.794 0 002.508.524c2.291.16 4.562.537 6.871.52 2.19-.015 4.345-.37 6.52-.502.392-.025.54-.172.496-.588-.171-1.592-.088-3.182.014-4.778.083-1.317-.026-2.646.024-3.972.146-3.778.458-7.547.706-11.32.16-2.426-.143-4.82-.479-7.216-.978-6.979-2.299-13.906-3.11-20.91-.422-3.635-.779-7.28-1.216-10.914-.372-3.094-.812-6.18-1.23-9.267-.602-4.456-.812-8.93-.553-13.418.238-4.085.462-8.175.863-12.247.32-3.26.572-6.52.698-9.792.067-1.716.039-3.426-.493-5.092-.367-1.15-.908-2.214-1.4-3.279a24.408 24.408 0 01-10.927 3.624c-3.267.283-6.533.421-9.811.226-2.22-.132-4.412-.49-6.609-.805-2.196-.317-4.398-.606-6.613-.74-1.761-.109-3.496.205-5.228.47-2.35.359-4.696.69-7.084.706-.996.008-1.992.185-3.007-.015z"/><path fill="#fff" d="M498.93 150.07c.572 1.05.601 2.122.235 3.12-.657 1.788-.941 3.694-1.76 5.429-.53 1.124-.997 2.28-1.54 3.4-.695 1.428-1.69 2.613-3.055 3.457-.367.226-.527.398-.317.902.56 1.343.735 2.772.72 4.23-.022 1.988.062 3.973.182 5.958.01.155.022.313.009.467-.299 3.503-.05 7.014-.177 10.519-.022.62-.078 1.24-.116 1.853.32.216.413-.102.568-.226 1.37-1.094 2.736-2.203 4.27-3.056 2.733-1.52 5.502-2.24 9.356-.26 1.43-1.333 2.537-2.91 3.362-4.678 2.15-4.61 4.887-8.858 7.89-12.945.279-.38.569-.748 1.029-.92.341-.127.699-.166 1.002.077.325.262.272.624.163.97a7.164 7.164 0 01-.848 1.79c-.814 1.235-1.604 2.49-2.476 3.685-1.548 2.12-2.616 4.507-3.855 6.799-.628 1.162-1.188 2.36-1.825 3.521-.627 1.143-1.562 2.036-2.352 3.091.225.483.694.707 1.081.994.511.378.948.813 1.29 1.339 1.753 2.689 2.719 5.562 2.29 8.839-.394 3.012-1.847 4.059-4.826 3.358-1.458-.344-2.79-.982-4.09-1.683-.86-.464-1.655-.51-2.558-.121-1.677.726-3.368 1.439-5.222 1.6-.311.026-.634.127-.93.075-1.217-.213-1.97.443-2.796 1.218-1.934 1.817-3.722 3.772-5.636 5.738 1.477 1.266 3.024 2.415 4.746 3.282 1.876.943 3.813 1.765 5.723 2.64.248.112.511.2.742.34 3.02 1.837 6.445 2.47 9.804 3.286 2.704.657 5.307.345 7.875-.762 3.358-1.447 6.21-3.466 8.542-6.328 1.996-2.449 3.495-5.149 4.756-8.001 1.634-3.698 3.36-7.368 4.588-11.226 1.122-3.526 1.785-7.171 2.417-10.814.42-2.416.85-4.83 1.224-7.255.631-4.099.176-8.031-1.19-11.952-1.363-3.916-3.772-7.034-6.707-9.834-1.784-1.7-3.704-3.177-5.963-4.246-2.185-1.036-4.051-2.61-6.003-4.03-1.228-.893-2.49-1.74-3.753-2.584-.72-.482-.728-.455-1.331.214-.627.695-1.25 1.393-1.898 2.066-2.46 2.553-5.439 4.261-8.781 5.375-1.252.417-2.504.837-3.858 1.289z"/><path fill="#e0e1e3" d="M512.607 93.81c.254-2.099 1.152-3.859 2.758-5.249 2.369-2.05 4.797-1.816 6.939.595 2.662 2.996 4.125 6.51 4.904 10.423.962 4.821-.797 8.537-4.257 11.665-.513.463-.746.882-.72 1.571.075 2.06.043 4.12-.074 6.429.66-.81.898-1.582 1.279-2.263 1.134-2.037 2.566-3.895 3.477-6.071 1.86-4.45 3.613-8.939 5.175-13.504 1.69-4.942 1.625-9.94.595-14.985a22.852 22.852 0 00-2.4-6.548 4212.115 4212.115 0 00-5.218-9.39 12.429 12.429 0 00-2.626-3.265c-1.436-1.272-2.66-2.748-3.873-4.218-2.26-2.742-5.161-4.457-8.444-5.63-.44-.156-.898-.27-1.325-.455-3.666-1.59-7.573-2.008-11.49-2.399a91.635 91.635 0 00-5.826-.415c-2.932-.107-5.846.07-8.723.661-1.81.372-3.5 1.077-5.01 2.151-1.937 1.38-4.03 2.514-6.022 3.806-1.817 1.177-3.9 1.566-6.005 1.716-2.576.183-5.112-.024-7.621-.802-2.184-.677-3.929-1.822-5.166-3.74-.365.194-.203.5-.197.737a22.86 22.86 0 00.698 5.08c.476 1.843.85 3.713 1.283 5.568.282 1.205.75 2.342 1.346 3.649.455-1.196.655-2.263 1.285-3.147.202-.284-.041-.498-.153-.74-.4-.874-.164-1.281.82-1.403a4.331 4.331 0 011.622.122c2.794.718 5.575.575 8.282-.352 2.178-.745 4.38-1.366 6.636-1.808 1.458-.285 2.86-.736 4.228-1.304 2.056-.851 4.195-1.438 6.346-1.977 1.883-.472 3.79-.334 5.688-.034 2.31.365 4.583.869 6.791 1.652 2.948 1.048 5.345 2.847 7.27 5.293 1.278 1.621 1.45 3.582 1.585 5.524.117 1.682-.13 3.338-.69 4.942-.362 1.041-.386 2.143-.515 3.224-.052.444.187.832.402 1.2.823 1.413 1.596 2.861 2.506 4.216 1.907 2.846 3.336 5.884 4.033 9.25.102.137.153.363.407.225z"/><path fill="#fff" d="M531.163 206.4c-1.522 3.348-3.748 6.196-6.351 8.746-2.757 2.699-6.124 4.387-9.78 5.49-2.095.63-4.252.497-6.372.07-1.906-.384-3.793-.861-5.685-1.309-1.258-.297-2.433-.812-3.569-1.42-2.197-1.18-4.534-2.047-6.86-3.09-.397.644-.354 1.37-.43 2.03-.168 1.495-.62 2.884-1.231 4.24-.961 2.13-1.89 4.267-2.192 6.622-.083.646-.368 1.267-.577 1.894-.234.702-.605 1.288-1.433 1.341-.816.052-1.312-.459-1.642-1.108-.437-.865-.813-1.764-1.198-2.654-1.157-2.675-2.112-5.434-3.416-8.05-.43-.863-.698-1.808-1.04-2.716-.342-.11-.487.187-.7.31-1.076.628-1.565 1.32-1.21 2.777.756 3.095 1.261 6.257 1.625 9.432.137 1.198.049 2.414.35 3.601.123.492-.205.882-.558 1.22-.647.615-.673 1.58-.057 2.223.485.506 1.1.69 1.793.716 1.836.066 3.655-.152 5.48-.287 2.946-.216 5.835-1.001 8.82-.852 2.61.132 5.2.445 7.773.85 4.445.699 8.903.943 13.398.724 3.376-.164 6.643-.762 9.762-2.083.857-.364 1.73-.712 2.429-1.5-.997-.731-.943-1.712-.783-2.8.356-2.428.452-4.89.752-7.321.594-4.791 1.383-9.554 2.735-14.205.206-.707.379-1.431.396-2.178.018-.268.321-.627-.229-.713zm-60.681-5.648c-.766-1.464-2.188-1.731-3.442-2.19-1.31-.478-2.698-.739-4.043-1.127-.444-.128-.7-.095-.885.39a51.255 51.255 0 01-2.558 5.627c-.386.73-.45 1.566-.61 2.366-.568 2.832-.938 5.675-.763 8.583.16 2.694 1.192 4.868 3.34 6.525.823.634 1.715.907 2.725.8 2.715-.286 5.264-1.057 7.511-2.656 2.89-2.058 5.706-4.206 8.322-6.613 1.921-1.767 3.934-3.435 5.976-5.064.335-.266.701-.508.984-.824 1.887-2.096 4.119-3.805 6.263-5.611.39-.329.599-.595.447-1.17-.276-1.05-.37-2.146-.63-3.202-.311-1.26-.503-2.514-.383-3.815.057-.607-.082-.673-.654-.436-.933.387-1.857.8-2.805 1.148-2.834 1.042-5.446 2.506-7.917 4.216a49.997 49.997 0 01-6.643 3.892c-2.458 1.193-4.687 2.77-6.95 4.289-.585.393-1.15.807-1.907.774-.967-.041-1.403-.682-1.064-1.59.198-.527.567-.92 1.013-1.256.81-.61 1.656-1.164 2.55-1.642.753-.403 1.487-.835 2.123-1.414zm14.382-34.71c-1.639-2.71-2.827-5.54-2.832-8.763-.001-.857-.04-1.714-.073-2.57-.028-.78-.088-1.557-.1-2.336-.012-.783.34-1.486.673-2.294-.91-.079-1.71-.187-2.51-.2-.47-.007-.89.244-1.26.555-.615.515-1.317.675-2.13.776-2.049.256-3.92.98-5.187 2.775a36.86 36.86 0 00-2.93 4.906c-.79 1.6-1.058 3.412-1.401 5.164-.66 3.36-1.096 6.76-1.842 10.105-.235 1.057-.292 2.162-.346 3.25a29.002 29.002 0 01-.364 3.487c.762 0 1.523.032 2.28-.008 1.34-.07 2.64.149 3.92.497.837.228 1.547.71 2.201 1.28 1.554 1.356 3.18 2.637 4.33 4.717 1.626-7.63 4.131-14.687 7.57-21.341z"/><path fill="#313133" d="M491.08 166.34c-1.333.086-2.576.016-3.816-.049-.52-.027-.74.137-.892.653-.668 2.277-1.627 4.448-2.459 6.666-.844 2.25-1.386 4.614-2.198 6.879-.818 2.283-1.353 4.615-1.74 7-.088.533.049.727.502.975 2.12 1.164 4.405 1.955 6.593 2.96.208.095.407.248.66.166.926-.297 1.85-.593 2.774-.897.281-.093.27-.353.283-.582.128-2.215.51-4.42.27-6.646-.157-1.447.018-2.878.113-4.314.03-.465.102-.932.093-1.396-.054-2.573.025-5.143.119-7.713a15.335 15.335 0 00-.301-3.703z"/><path fill="#fff" d="M472.752 198.8c.547-1.934 1.348-3.708 2.034-5.523.39-1.031 1.19-1.816 1.815-2.705.599-.853.616-1.123-.194-1.683-.376-.26-.623-.567-.86-.91-1.197-1.736-2.954-2.859-4.563-4.137-.587-.466-1.363-.585-2.1-.622-1.048-.053-2.1-.015-3.152-.02-.322-.002-.645.066-.888.25-1.17.888-2.462 1.677-3.002 3.158-.531 1.455-1.374 2.785-1.72 4.319-.101.444-.124.829.158 1.212.984 1.336 2.045 2.476 3.83 2.808 2.096.39 4.12 1.094 6.091 1.93a4.518 4.518 0 011.522 1.051c.288.3.488.708 1.03.872zm23.358.738c1.543-.192 2.9-.636 4.21-1.24.53-.244 1.05-.51 1.59-.73 1.365-.555 2.718-.56 4.064.101.943.462 1.878.962 2.866 1.3 2.48.848 2.771.82 2.883-1.94.094-2.302-.958-4.203-1.986-6.125-.107-.2-.285-.374-.46-.524-1.07-.908-2.18-1.78-3.407-2.448-2.033-1.106-4.128-1.023-6.142.073-1.575.858-2.958 2.007-4.335 3.154-.56.467-.76 1.058-.656 1.766.329 2.226.931 4.391 1.373 6.613z"/><path fill="#313133" d="M485.267 343.884c-1.807.773-3.593.604-5.365.467-3.003-.232-5.938-.802-8.742-1.944-.556-.226-.974-.31-1.252.432-.205.55-.748.815-1.353.648-.471-.13-.838.02-1.2.262-2.157 1.442-4.565 1.904-7.113 1.833-1.21-.033-2.415 0-3.608.246-.535.111-1.066.227-1.56.463-.525.25-.971.629-.864 1.246.101.58.437 1.096 1.06 1.29.294.09.612.126.92.142 2.725.139 5.434.428 8.14.76 1.475.18 2.971.16 4.434-.013 2.828-.335 5.681-.242 8.503-.593 1.97-.244 3.932-.538 5.9-.79.743-.095 1.207-.453 1.377-1.198.238-1.049.573-2.078.723-3.251zm-.715-188.247c0 .389.039.783-.006 1.168-.285 2.398.705 4.494 1.536 6.631.16.416.427.605.883.6 1.051-.011 2.104.03 3.156.013 1.331-.02 2.258-.812 3.012-1.777 1.012-1.294 1.58-2.854 2.39-4.272.11-.194.156-.45.158-.678.017-1.28.484-2.43.995-3.567.395-.88.41-1.815.439-2.748.012-.394-.09-.65-.608-.588-2.55.304-5.134-.003-7.686.438-.872.151-1.788.037-2.684.063-1.292.039-1.724.482-1.746 1.797-.016.973-.003 1.947-.003 2.92zm1.783 71.602c.147-.316.248-.446.268-.589.317-2.275 1.289-4.318 2.327-6.316.987-1.9 1.272-3.99 1.868-5.995.09-.3-.115-.396-.296-.547-1.452-1.212-3.224-1.816-4.9-2.605-.289-.136-.486-.134-.726.084-1.038.944-2.08 1.882-3.141 2.8-.291.253-.298.504-.187.827.542 1.58 1.039 3.166 1.76 4.688 1.148 2.421 2.119 4.924 3.027 7.653z"/><path fill="#f5fafc" d="M457.2 83.768l-.515.469c-.165 2.52-.103 5.042-.02 7.564.068 2.017.183 4.033.272 6.05.068 1.524.598 2.962.822 4.458.137.917.374 1.82.574 2.727.083.376.152.762.46 1.04.055-.49-.033-.99.374-1.42.248-.262.102-.657.011-1.004-.422-1.619-.495-3.275-.631-4.938-.149-1.81-.152-3.627-.36-5.438-.203-1.764-.199-3.568.213-5.331a.34.34 0 01.04-.11c.286-.432.3-1.253.944-1.178.625.073.535.823.608 1.34.02.154.011.315.054.461.058.192.177.351.404.36.229.007.367-.148.42-.337.133-.484.235-.975.372-1.557.791.565 1.483 1.133 1.783 2.059.06.184.128.367.208.542.135.292.307.586.688.49.352-.09.25-.428.284-.686.075-.558-.117-1.073-.24-1.601-.515-.441-.833-1.005-1.054-1.638-.231-.659-.497-1.31-.906-1.879-.675-.94-1.934-.99-2.7-.134-.077.087-.134.19-.21.278-.338.394-.518 1.085-1.177.963-.74-.136-.439-.879-.593-1.356a.504.504 0 00-.124-.194z"/><path fill="#fdfdfd" d="M484.973 192.8c-1.935-.615-3.633-1.578-5.414-2.349-.719-.312-.722-.295-1.114.418-.186.34-.34.713-.588 1.003-1.483 1.737-2.006 3.928-2.855 5.963-.058.14-.088.302.035.455 3.406-1.626 6.398-4.012 9.936-5.49z"/><path fill="#999696" d="M531.163 206.4c.263.178.093.494.229.713.24-.403.27-.833.174-1.295-.324.08-.363.33-.403.582z"/><path fill="#b1aeae" d="M512.607 93.81l-.407-.226c-.074.277.068.496.195.72.086.098.16.094.217-.029z"/><path fill="#656464" d="M512.612 94.275a1.702 1.702 0 00-.217.028c-.026.145.005.337.137.327.114-.008.124-.215.08-.355z"/><path fill="#050606" d="M470.096 127.605c1.978 2.515 4.73 3.178 7.727 3.254 1.858.048 3.616-.36 5.324-1.102 4.84-2.102 8.45-5.619 11.41-9.874 1.03-1.483 1.368-3.2 1.26-5.001-.02-.351-.07-.69-.22-1.02-.123-.275-.29-.483-.591-.476-.314.006-.465.252-.535.53a3.74 3.74 0 00-.088.577c-.25 2.528-1.25 4.673-3.027 6.528-2.521 2.634-5.188 5.023-8.558 6.548-2.564 1.16-5.16 1.364-7.83.536-1.423-.442-2.847-.792-4.35-.667-.176.015-.392-.064-.522.167zm13.703-49.235c-.583-.054-1.196.082-1.764.343-1.64.751-4.046 3.207-3.893 6.056.046.851.585 1.414 1.386 1.408.748-.006 1.298-.497 1.248-1.372-.086-1.46.744-2.416 1.648-3.334.922-.936 2.059-.931 2.993.01.855.863 1.483 1.894 1.912 3.037.11.29.167.604.298.883.254.54.744.777 1.227.637.493-.143.834-.589.776-1.162-.095-.93-.269-1.852-.762-2.67-.645-1.07-1.387-2.068-2.329-2.9-.765-.677-1.67-.968-2.74-.935z"/><path fill="#070808" d="M519.286 100.076c.652.431 1.173.89 1.668 1.386.46.461.722 1.064 1.175 1.768.18-1.202.085-2.183-.185-3.142a3.33 3.33 0 00-1.41-1.941 2.247 2.247 0 00-2.789.272c-.314.3-.552.656-.695 1.065-.643 1.84-1.156 3.71-1.222 5.672-.013.385.055.774.088 1.162a.524.524 0 00.422.491c.261.066.443-.09.578-.295.303-.465.44-1 .549-1.527.318-1.533 1.02-2.93 1.507-4.403.047-.142.16-.262.314-.508z"/><path fill="#080808" d="M457.2 83.768c-.015.424-.218.825-.087 1.267.259.869.93 1.06 1.548.396.29-.31.512-.682.761-1.028.757-1.052 1.835-1.008 2.505.116.502.841.788 1.777 1.081 2.701.17.537.46.674.958.508.623-1.891.184-3.628-.983-5.128-1.273-1.634-4.06-1.424-5.245.293-.194.281-.358.584-.537.875z"/><path fill="#040504" d="M58.645 179.023c-.433 2.45-.931 4.888-1.432 7.326-.962 4.683-1.802 9.393-2.82 14.064-.919 4.217-1.524 8.491-2.45 12.708-.466 2.117-.547 4.317-.81 6.48-.067.539-.171 1.074-.273 1.702-4.39-4.315-7.808-8.933-7.181-15.525.356-3.74.979-7.393 2.307-10.911.22-.581.438-1.172.744-1.708 2.01-3.52 4.152-6.947 6.992-9.885 1.297-1.342 2.397-2.873 3.866-4.052.331-.266.607-.606 1.02-.765.144.18.132.37.037.566zm190.513-56.801c-.338-.436-.818-.427-1.283-.327-.695.15-1.32.491-1.88.91-1.87 1.394-3.888 2.6-5.542 4.278a26.283 26.283 0 01-1.794 1.673c-2.654 2.235-5.287 4.488-7.83 6.853-2.399 2.23-4.755 4.503-7.137 6.749-2.241 2.112-4.543 4.16-6.79 6.265-3.362 3.147-6.475 6.54-9.65 9.867-5.734 6.009-11.47 12.014-17.258 17.97-3.395 3.495-6.878 6.91-10.12 10.552-1.968 2.212-4.232 4.149-6.051 6.502a2.935 2.935 0 01-.497.493c-1.654 1.306-3.189 2.73-4.468 4.414-.238.084-.464.182-.585.434-.01.055.004.081.02.094l-.03-.001c-.012 0-.023-.007-.033-.024-.027-.051-.011-.1.045-.14.149-.207.242-.44.264-.7.158-.396.32-.791.471-1.19.701-1.842.132-3.62-1.544-4.83-1.407-1.019-2.827-.874-4.454.477-.72.599-1.443 1.186-2.293 1.603-1.641.805-3.266 1.647-4.918 2.432-2.234 1.06-4.02 2.637-5.532 4.573-1.135 1.455-1.85 3.077-2.006 4.901-.057.671-.377.845-.908.943-1.633.3-3.102.995-4.513 1.846-.8.481-1.62.93-2.437 1.382-2.758 1.526-5.644 1.996-8.786 1.414-2.339-.435-4.192-1.482-5.817-3.172-2.708-2.815-4.674-6.146-6.512-9.52-2.213-4.061-4.2-8.252-5.785-12.615-.266-.73-.56-1.463-.952-2.13-1.16-1.968-1.513-4.151-1.764-6.362-.164-1.449-.482-2.824-1.3-4.07-.4-.61-.668-1.306-1.052-2.074 1.424.017 2.463-.596 3.305-1.602.17-.202.422-.34.651-.486 1.424-.902 2.695-1.985 3.9-3.159 1.202-1.173 2.259-2.475 3.382-3.717 2.976-3.293 4.968-7.132 6.33-11.324.093-.286.087-.61.352-.831.624.328 1.223.706 1.867.97 2.323.955 5.52.884 7.53-1.632 1.347-1.684 2.617-3.385 3.49-5.366.36-.819.78-1.61 1.149-2.426 1.934-4.28 2.177-8.625.494-13.043-.11-.29-.225-.58-.331-.872-.621-1.722-1.264-3.431-2.842-4.536.654-1.034 1.154-2.041 1.472-3.136 1.305-4.51 2.11-9.099 2.247-13.8.105-3.636-.253-7.231-.652-10.842-.785-7.115-3.663-13.386-7.4-19.347-.287-.461-.653-.873-.99-1.303-1.42-1.825-3.205-3.294-4.807-4.941-3.306-3.4-7.148-5.808-11.77-7.049-3.738-1.004-7.465-1.9-11.357-1.99-2.911-.068-5.735.459-8.573.988-4.197.783-8.23 1.97-11.978 4.101a15.41 15.41 0 01-5.379 1.872c-1.958.289-3.81-.121-5.594-.835-1.281-.512-1.483-1.567-.61-2.598.28-.332.539-.663.67-1.082.097-.311.005-.542-.307-.65-.621-.217-1.9.249-2.182.87-.303.67-.78 1.15-1.348 1.574a19.205 19.205 0 00-4.146 4.251c-2.173 3.048-3.908 6.278-4.393 10.062-.247 1.922-.261 3.815.661 5.587.17.323.03.519-.108.74-1.447 2.318-2.492 4.842-3.652 7.303-1.493 3.166-2.981 6.34-3.95 9.722a17.52 17.52 0 01-1.205 3.031 18.347 18.347 0 00-1.506 4.163c-.477 2.086-.988 4.165-1.443 6.257-.116.534-.293.808-.888.832-.892.037-1.782.153-2.668.275-1.465.204-2.93.4-4.297 1.034-2.381 1.105-3.353 2.754-3.024 5.338.415 3.256 2.101 5.708 5.035 7.13 1.79.868 3.456 1.948 5.257 2.777.463.214.53.436.385.894-.464 1.458-.637 2.967-.661 4.491-.09 5.554 1.213 10.8 3.514 15.824.307.672.617 1.345.872 2.038 1.132 3.072 2.927 5.656 5.561 7.63.114.086.29.159.193.363-2.046.39-3.757 1.434-5.303 2.764-1.034.89-2.075 1.771-3.166 2.59-3.431 2.58-6.587 5.449-9.62 8.5-3.019 3.04-5.274 6.525-7.236 10.266-1.493 2.849-2.263 5.957-3.297 8.972-1.469 4.285-1.847 8.658-1.227 13.136.101.733.152 1.473.33 2.194.505 2.04 1.177 4.03 1.837 6.022a12.407 12.407 0 001.539 3.134c1.584 2.313 3.128 4.657 4.739 6.953 1.443 2.058 3.47 3.574 5.169 5.397.477.512 1.059.91 1.615 1.338 1.196.916 1.807 2.244 2.493 3.595-2.62.359-4.753 3.311-4.531 5.5.188 1.863.452 3.706 1.03 5.5 1.118 3.47 4.438 4.658 6.948 4.262.904-.142 1.804-.305 2.774-.47-.062 2.178-.039 4.282.151 6.372.402 4.388.574 8.778.593 13.188.042 10.097.311 20.187 1.39 30.242.458 4.262.677 8.547.664 12.841-.01 3.119.093 6.239.201 9.356.154 4.478.542 8.95.374 13.44-.069 1.869-.052 3.742-.114 5.612-.035 1.06.087 2.068.441 3.082.408 1.17 1.093 1.94 2.321 2.214 2.296.51 4.624.72 6.965.596 1.24-.065 2.494-.118 3.718-.387 1.81-.397 2.994-1.864 2.636-3.536-.468-2.182-1.328-4.235-2.791-5.955-.424-.498-.502-.863-.258-1.442a7.051 7.051 0 00.548-2.379c.207-3.93.71-7.835.892-11.768.16-3.464.484-6.92.761-10.378.19-2.37.336-4.743.608-7.107.304-2.633.533-5.274.8-7.91.258-2.56.496-5.12.795-7.674.484-4.142 1.558-8.184 2.101-12.32.512-3.9 1.056-7.798 1.553-11.7.486-3.818 1.042-7.643 2.435-11.273.285-.741.536-1.508 1.24-2.157.037.468.06.81.088 1.151.12 1.396.092 2.803.218 4.19.375 4.152.74 8.302.948 12.466.2 4.01.558 8.01.837 12.014.365 5.254.928 10.478 1.751 15.678.91 5.746 1.33 11.533 1.438 17.345.096 5.109.375 10.207.757 15.3.322 4.275 1.049 8.508 1.323 12.789.04.62.138 1.238.387 1.821.664 1.557 1.928 2.198 3.558 1.757.286-.078.5-.097.763.064 1.782 1.1 3.769 1.39 5.816 1.475 2.762.114 5.53.153 8.277.53.46.064.931.035 1.399.036 2.651.015 5.304-.03 7.953.06 1.372.046 2.724-.06 4.083-.149.862-.057 1.554-.47 2.132-1.088 1.102-1.177 1.02-2.867-.194-3.927-.533-.465-1.148-.793-1.791-1.085-3.658-1.661-7.461-2.908-11.333-3.957-.899-.244-1.796-.54-2.75-.458-.385.033-.54-.145-.647-.5-.283-.93-.707-1.808-.924-2.765-.353-1.555-.75-3.1-1.159-4.642-.61-2.302-1.028-4.633-1.184-7.013a321.82 321.82 0 00-.532-7.114c-.344-3.921-.663-7.846-.66-11.784.004-7.409.018-14.818.098-22.227.037-3.39.291-6.775.574-10.156.192-2.292.38-4.584.577-6.875.318-3.698.232-7.404.208-11.107-.032-5.224.371-10.439.312-15.661-.009-.752.455-1.036.953-1.316.798-.45 1.477-1.014 1.962-1.792.68-1.09 1.359-2.178 2.018-3.28.322-.537.549-1.128.61-1.752.294-3.022.812-6.03.688-9.079-.065-1.593-.245-3.182-.37-4.773-.229-2.95-.51-5.898-.666-8.852-.158-2.966-.188-5.938-.276-8.964.314.187.345.416.41.64.626 2.127 1.264 4.25 1.89 6.377.427 1.459.906 2.896 1.589 4.26.628 1.251 1.261 2.501 1.845 3.774.848 1.85 1.936 3.554 3.064 5.236.37.552.777 1.085 1.306 1.491 3.116 2.4 6.574 3.943 10.53 4.377 2.554.278 4.964-.203 7.339-1.013 3.06-1.044 5.919-2.427 7.949-5.082.48-.627 1.16-.712 1.903-.936-.086.185-.107.264-.153.324-2.004 2.587-4.115 5.09-6.037 7.74a2.628 2.628 0 01-.5.49c-.712.563-1.223 1.3-1.8 1.985-.888 1.053-.678 2.077-.077 3.12.509.884 1.296 1.467 2.269 1.727.669.179 1.202.473 1.66 1.002.593.684 1.146.71 1.798.105 1.316-1.216 2.676-2.398 3.892-3.71 2.652-2.86 5.49-5.536 8.155-8.384.628-.672.648-.654 1.467-.14 3.538 2.222 7.592 1.137 9.544-2.56.181-.343.367-.696.466-1.066.165-.619.489-.972 1.13-1.173.87-.274 1.555-.87 2.076-1.636.71-1.043 1.278-2.155 1.43-3.414.076-.63.33-.99.914-1.177.704-.225 1.42-.43 2.094-.724 1.505-.658 2.083-1.798 1.673-3.383-.125-.487.107-.614.408-.805 1.22-.777 2.044-1.915 2.75-3.134.595-1.031.518-2.075-.132-3.088-.57-.89-1.397-1.455-2.313-1.91-.294-.146-.633-.203-.932-.525 1.302-1.42 2.548-2.867 3.888-4.22 2.799-2.826 5.476-5.768 8.264-8.605 2.125-2.165 3.996-4.574 6.122-6.755 4.949-5.082 9.463-10.564 14.406-15.657 3.148-3.245 6.22-6.567 9.406-9.776 4.367-4.4 8.854-8.68 13.19-13.113 2.18-2.23 4.279-4.546 6.555-6.675 3.877-3.625 7.62-7.366 10.97-11.491.296-.364.617-.714.788-1.153.173-.445.234-.915-.091-1.333z"/><path fill="#aebdc6" d="M168.091 198.843c.111-.276.19-.57.448-.759.07.146.158.276.318.337-.16.33-.41.572-.734.742-.103-.098-.114-.204-.032-.32z"/><path fill="#fff" d="M69.458 78.02c.74 2.078 1.587 3.914 2.749 5.575a7.386 7.386 0 003.449 2.71c2.084.791 4.039 1.812 5.938 2.97 1.694 1.036 3.619 1.406 5.55 1.69 5.24.774 10.533 1.108 15.782 1.837 2.194.305 4.42.361 6.613.743 1.345.234 2.356.826 3.15 1.968 2.01 2.895 3.6 5.989 4.715 9.328.527 1.577.37 3.028-.63 4.427-1.208 1.692-2.103 3.54-2.34 5.66-.135 1.21.122 2.26 1.028 3.078 2.692 2.429 3.378 5.722 3.718 9.061.296 2.906-.049 5.839-.33 8.751-.08.815-.094 1.626 0 2.448.13 1.118.347 2.23.277 3.37-.024.406.123.822.21 1.345.792-.553 1.17-1.258 1.538-1.966 1.256-2.416 2.95-4.55 4.34-6.896.388.243.259.61.39.873.177.357.458.541.852.448.402-.094.581-.367.487-.784-.218-.971.088-1.848.502-2.697.511-1.05 1.011-2.106 1.577-3.125.647-1.163 1.584-2.01 2.901-2.383.823-.233 1.632-.52 2.462-.724 1.081-.266 1.855.074 2.303 1.071 1.565 3.474 2.428 7.063 1.661 10.896-.053.268-.082.547-.183.797-1.34 3.325-2.754 6.605-5.256 9.284-.89.955-1.896.968-2.985.63-.702-.217-1.37-.55-2.047-.847-.567-.248-.887-.741-1.179-1.254-.463-.815-.697-1.718-.922-2.63-.48.132-.554.516-.638.817-.323 1.163-.67 2.334-.372 3.562.109.448-.027.848-.172 1.251-1.254 3.503-2.962 6.766-5.177 9.759-.277.373-.553.775-.915 1.053-1.617 1.243-2.93 2.8-4.386 4.206-1.44 1.392-3.076 2.474-4.771 3.533-1.724 1.078-3.624 1.32-5.508 1.725-1.37.295-2.746.56-4.093.954-2.814.822-5.743 1.014-8.605 1.58a4.893 4.893 0 01-1.047.085c-3.268-.062-6.53-.132-9.798-.35-3.85-.259-7.344-1.636-10.94-2.738-.512-.157-1-.443-1.45-.743-2.014-1.332-4.092-2.57-5.945-4.134a12.526 12.526 0 00-1.306-.986c-2.424-1.55-3.98-3.787-5.11-6.375a127.464 127.464 0 00-1.688-3.72c-1.147-2.411-1.638-5.021-2.313-7.576-.9-3.405-.764-6.846-.367-10.41 2.496 1.193 5.075 1.914 7.64 2.68 1.94.578 3.896 1.09 5.884 1.479.38.074.773.123 1.16.116.85-.017 1.508-.52 1.654-1.209.164-.775-.243-1.464-1.105-1.831a3.716 3.716 0 00-.782-.229c-3.646-.664-7.165-1.801-10.675-2.947-2.596-.847-4.988-2.181-7.41-3.424a57.078 57.078 0 00-2.42-1.155c-1.95-.888-3.107-2.415-3.516-4.509-.279-1.424.04-1.977 1.362-2.543.873-.374 1.8-.51 2.722-.635 3.085-.415 6.179-.77 9.263-1.19 1.55-.21 3.023-.717 4.458-1.335 1.79-.772 3.52-1.658 5.23-2.585 1.244-.673 2.344-1.527 3.352-2.517a105.03 105.03 0 012.985-2.799c.874-.792 1.597-1.702 2.24-2.684.355-.544.477-1.15.404-1.786-.063-.555-.422-.742-.902-.445-.327.202-.614.48-.889.753-2.277 2.256-4.732 4.35-7.423 6.034-3.018 1.888-6.235 3.536-9.82 4.202-.798.15-1.61.234-2.563.368.207-1.087.37-2.1.594-3.099.61-2.697 1.282-5.366 2.566-7.855.493-.956.706-2.056 1.05-3.088 1.72-5.177 3.89-10.174 6.179-15.117.801-1.732 1.952-3.29 3.205-4.73 1.354-1.558 2.653-3.149 3.838-5.067z"/><path fill="#fff" d="M46.829 236.133c-.1-.057-.243-.09-.293-.175-1.382-2.424-3.676-4.002-5.542-5.975-.59-.624-1.19-1.23-1.678-1.94-1.547-2.244-3.102-4.483-4.653-6.726a10.975 10.975 0 01-1.597-3.482c-.444-1.692-1.127-3.313-1.427-5.05-.793-4.597-.783-9.123.771-13.606 1.135-3.271 2.102-6.598 3.726-9.681 1.603-3.045 3.498-5.838 5.905-8.357 3.515-3.678 7.343-6.966 11.276-10.164 1.934-1.574 3.792-3.238 5.89-4.601.187-.121.313-.335.545-.591 1.56 1.478 3.4 2.5 5.08 3.747 1.744 1.293 3.687 2.156 5.723 2.844 1.031.348 2.063.698 3.108 1 .485.141.704.363.695.892-.015.895.04 1.793.07 2.689.058 1.804.456 3.55.923 5.281.104.389.171.75.068 1.142-.945 3.582-1.49 7.243-2.191 10.873-.686 3.555-1.373 7.11-2.081 10.66-.345 1.723-.57 3.462-.75 5.204-.195 1.903-.599 3.77-.87 5.657a102.923 102.923 0 00-.384 3.132c-.087.792.039 1.547.435 2.256 1.178 2.105 2.206 4.29 3.472 6.35a28.03 28.03 0 011.233 2.251c.682 1.374 1.659 2.546 2.571 3.755.718.952 1.835.947 2.754.08.804-.762 1.382-1.708 1.8-2.712 1.292-3.112 3.27-5.728 5.631-8.086.346-.346.556-.742.582-1.235.126-2.379.118-4.745-.399-7.094-.519-2.36-.648-4.777-.931-7.171-.342-2.898-.864-5.772-.987-8.697-.127-2.996-.3-5.99-.485-8.982a74.592 74.592 0 00-.37-3.956c-.058-.49-.118-.871.433-1.169.564-.303.833-.906 1.073-1.49.961-2.34 1.84-4.706 2.442-7.169.222-.91.256-.869 1.23-.905a28.545 28.545 0 002.56-.237c3.71-.481 7.371-1.216 10.998-2.13 1.16-.292 2.341-.497 3.5-.74.836 2.913 1.972 5.687 2.051 8.735.036 1.355.465 2.68 1.082 3.916.66 1.327 1.176 2.713 1.654 4.113a88.212 88.212 0 004.661 11.07c1.435 2.862 3.243 5.503 4.967 8.187.987 1.537 2.334 2.82 3.665 4.083 1.764 1.675 3.927 2.474 6.29 2.83.498.075.998.161 1.492.264 3.042.628 5.87-.11 8.62-1.346 1.522-.684 2.922-1.6 4.53-2.479-.035.634-.055 1.15-.093 1.667-.135 1.86.114 3.668.866 5.37.275.618.123.878-.389 1.187-1.365.825-2.686 1.697-4.316 1.978-1.041.178-1.958.753-2.867 1.28-2.112 1.221-4.398 2.017-6.762 2.492-2.987.6-5.896.036-8.68-1.128-2.364-.99-4.197-2.563-5.542-4.81-1.624-2.71-2.98-5.549-4.351-8.384-.387-.8-.632-1.673-.9-2.527-1.386-4.415-2.757-8.837-4.14-13.254a23.562 23.562 0 01-1.039-5.962c-.182-3.813-.095-7.642-.602-11.439-.077-.578-.081-1.17-.353-1.705-.143-.28-.288-.573-.675-.543-.383.03-.516.34-.6.633-.129.448-.259.909-.283 1.37-.105 1.979-.33 3.97-.213 5.94.19 3.196.051 6.394.22 9.584.223 4.288.163 8.577.148 12.865-.018 5.62.36 11.222.848 16.816a33.044 33.044 0 01-.153 7c-.135 1.082-.28 2.163-.393 3.248-.055.52-.2.997-.51 1.41-.54.72-1.001 1.49-1.398 2.29-.701 1.418-1.915 2.182-3.296 2.809-3.49 1.585-7.213 1.896-10.958 1.981-3.31.075-6.62.03-9.922-.347-4.084-.466-8.046-1.372-11.844-2.96-.502-.21-1.008-.473-1.536-.544-.92-.124-1.31-.577-1.546-1.478-.383-1.46-.837-2.916-1.577-4.258-.896-1.625-2.153-2.639-4.102-2.583-.898.026-1.694-.566-2.718-.332.295-1.585-.649-2.567-1.539-3.437-1.054-1.03-1.167-2.132-.964-3.466.397-2.616.637-5.257 1.069-7.868.678-4.11 1.472-8.198 2.197-12.3.697-3.95 1.37-7.903 2.048-11.857.354-2.072.714-4.144 1.035-6.222.296-1.923.54-3.854.822-5.78.067-.46.17-.92.31-1.363.108-.339.306-.663-.023-.966-.29-.266-.562-.04-.858.056-1.887.612-3.533 1.628-4.964 2.984-3.926 3.72-7.308 7.884-10.054 12.55-1.762 2.993-2.664 6.296-3.318 9.67-.4 2.068-.547 4.172-.662 6.274-.144 2.626.413 5.103 1.535 7.473 1.025 2.163 2.278 4.162 3.924 5.914 1.094 1.165 2.127 2.388 3.2 3.573.238.264.448.536.575.868.115.306.315.583.61.676.816.257 1.224.924 1.68 1.551.528.725 1.054 1.451 1.873 1.856-2.531 2.154-5.182 4.105-7.128 6.8-.151.165-.262.41-.56.283z"/><path fill="#313133" d="M65.029 239.485c1.34.586 2.648 1.268 4.036 1.773 4.501 1.64 9.143 2.52 13.919 2.814 2.687.166 5.374.357 8.062.17 2.093-.144 4.202-.191 6.267-.652.88-.196 1.693-.574 2.54-.858.403-.136.782-.359 1.265-.374.264.526-.025 1.046-.065 1.562-.502 6.535-.57 13.08-.577 19.63-.003 3.19-.3 6.38-.62 9.562-.304 3.022-.418 6.06-.62 9.092-.424 6.308-.295 12.626-.353 18.94-.037 4.21-.1 8.422.206 12.63.336 4.626.615 9.257.966 13.882.161 2.135.478 4.251 1.126 6.31.292.925.503 1.882.667 2.838.346 2.01 1.105 3.887 1.787 5.79.356.991.798 1.69 2.153 1.67 1.2-.018 2.415.535 3.614.865 3.494.963 6.903 2.158 10.189 3.693.45.21 1.21.378 1.144.825-.101.695-.916.578-1.465.589-2.26.042-4.523.065-6.783.037-2.53-.032-5.056.057-7.592-.18-2.24-.21-4.519-.014-6.779-.054-1.888-.034-3.71-.398-5.372-1.364-.195-.115-.37-.225-.631-.242-.963-.06-1.307-.343-1.44-1.292-.178-1.27-.27-2.553-.405-3.83-.38-3.604-.867-7.196-1.129-10.813-.3-4.16-.604-8.318-.656-12.492-.045-3.626-.506-7.23-.69-10.848-.255-4.996-1.314-9.88-1.907-14.829-.335-2.785-.535-5.587-.777-8.383-.325-3.764-.702-7.525-.928-11.296-.258-4.316-.69-8.614-1.14-12.912-.215-2.05-.444-4.096-.774-6.13-.066-.4-.174-.76-.483-1.028-.253-.22-.519-.3-.85-.107-1.214.706-2.015 1.709-2.641 2.985-1.326 2.705-1.772 5.629-2.359 8.518-.65 3.207-.891 6.476-1.36 9.711-.638 4.393-1.304 8.778-2.208 13.125-.7 3.362-1.026 6.775-1.321 10.188-.231 2.676-.54 5.344-.834 8.014a320.868 320.868 0 00-.915 9.766c-.395 5.008-.776 10.016-1.104 15.03-.126 1.94-.523 3.86-.463 5.821.014.457-.138.921-.224 1.38-.07.381-.103.813-.383 1.077-.291.276-.656-.056-.996-.07-1.968-.093-4.36 1.6-4.903 3.511a2.195 2.195 0 00-.091.692c.02.417.29.537.647.39.329-.137.546-.429.768-.701.394-.482.753-.995 1.236-1.4.978-.82 2.607-1.124 3.765.187.598.679 1.13 1.38 1.433 2.247.294.843.686 1.654.955 2.505.374 1.18.133 1.554-1.056 1.845a1.739 1.739 0 01-.23.04c-2.909.283-5.815.481-8.728-.013-.93-.159-1.426-.562-1.6-1.525-.147-.824-.284-1.575.144-2.371.273-.506.353-1.114.349-1.703-.016-1.948.077-3.9-.168-5.842a5.241 5.241 0 01-.044-.582c-.05-3.274-.152-6.549-.128-9.823.025-3.32-.344-6.612-.52-9.918-.345-6.498-.794-12.991-.738-19.505.046-5.346-.352-10.674-.806-15.999-.252-2.947-.414-5.904-.627-8.856-.34-4.708-.513-9.42-.44-14.14.026-1.598.199-3.196.019-4.792-.047-.415.108-.653.457-.836 1.56-.816 2.688-2.098 3.737-3.47 1.063-1.39 2.37-2.571 3.311-4.077.992-1.59 1.571-3.29 1.825-5.124.058-.417.002-.86.336-1.273zm13.163-8.883a9.746 9.746 0 01-1.329-1.819c-1.459-2.617-2.905-5.241-4.378-7.851-.452-.804-.667-1.598-.567-2.551.165-1.554.428-3.084.716-4.614.413-2.185.5-4.412.87-6.6.663-3.916 1.391-7.821 2.045-11.739.55-3.304 1.033-6.62 1.547-9.929.042-.269.117-.534.145-.804.046-.444.234-.548.694-.493 1.275.155 2.558.245 3.84.337.905.065.866.05.955 1.03.232 2.569.061 5.147.23 7.713.24 3.655.157 7.337.709 10.964.498 3.278.582 6.6 1.173 9.86.265 1.46.456 2.92.562 4.395a7.505 7.505 0 01-.05 1.515c-.048.375-.233.597-.489.861-2.009 2.08-3.81 4.317-5.115 6.921-.466.932-.9 1.885-1.558 2.804z"/><path fill="#feffff" d="M247.732 123.534c-2.143 2.887-4.585 5.516-7.162 8.004-6.562 6.336-13.02 12.778-19.551 19.146-4.691 4.573-9.23 9.294-13.794 13.992-4.866 5.01-9.341 10.373-14.246 15.337-2.223 2.25-4.178 4.745-6.407 6.971-2.816 2.812-5.434 5.809-8.276 8.59-.306.3-.595.618-.889.932-.93.994-.933 1-2.044.148a8.556 8.556 0 01-.967-.846c-.484-.506-.495-1.001-.03-1.531.744-.85 1.486-1.705 2.274-2.513 3.404-3.488 6.871-6.915 10.228-10.449 5.047-5.314 10.294-10.435 15.269-15.823 3.78-4.095 7.712-8.052 11.562-12.085 2.857-2.994 5.985-5.7 9.004-8.52 3.817-3.566 7.634-7.132 11.506-10.636 3.091-2.797 6.221-5.557 9.433-8.214 1.153-.954 2.399-1.854 3.757-2.544.123-.078.234-.064.333.04z"/><path fill="#fff" d="M62.003 239.012c-.07 3.298-1.18 5.523-2.917 7.46-.755.84-1.469 1.712-2.197 2.573-2.061 2.436-4.678 3.818-7.904 3.887-1.7.036-2.895-.79-3.5-2.376a14.784 14.784 0 01-.958-5.249c-.004-1.615 1.325-2.737 2.92-2.552.926.11 1.85.188 2.761.436.848.232 1.715-.007 1.778-.444.105-.73-.472-1.1-.974-1.458-.281-.2-.612-.402-.94-.445-.775-.098-.91-.596-.912-1.226-.006-1.199.214-2.322 1.087-3.227.568-.588 1.091-1.226 1.704-1.761 1.409-1.23 2.578-2.7 3.995-3.924.515-.443.902-.376 1.423-.064 3.418 2.044 4.383 5.335 4.634 8.37z"/><path fill="#feffff" d="M148.198 210.36c.135.445.257.894.408 1.333.05.144.176.254.353.262.233.009.36-.135.416-.33.127-.451.197-.907.196-1.382a19.38 19.38 0 01.482-4.282 7.638 7.638 0 011.563-3.215c1.627-2.011 3.598-3.54 6.014-4.484 1.814-.71 3.465-1.756 5.238-2.553.711-.321 1.267-.898 1.859-1.405.399-.344.836-.66 1.357-.299.497.346.867.82.723 1.482-.295 1.352-.925 2.547-1.767 3.634-.167.215-.387.39-.544.61-.39.553-.883.756-1.578.761-1.434.012-2.721.619-3.97 1.254-.77.392-1.01 1.153-1.05 1.968-.055 1.067.168 2.094.56 3.077.185.466.047.647-.402.705a5.815 5.815 0 00-1.885.59c-1.104.558-1.44 1.347-.97 2.497.204.5.1.789-.246 1.115-.369.348-.697.742-1.141.996-1.662.95-2.871 2.37-4.04 3.835-.41.512-.767 1.068-1.335 1.537-.562-.584-.707-1.29-.83-2.007-.166-.973-.02-1.945.018-2.916.027-.698.107-1.396.162-2.093.271-.15-.18-.73.41-.69zm3.824 8.208c-.665 2.407.63 4.005 2.28 5.396-3.007 3.147-5.961 6.247-8.924 9.338-.942.982-2.026 1.824-2.901 2.875-.216.258-.418.304-.675.047-.486-.486-1.102-.71-1.761-.848a2.386 2.386 0 01-1.033-.52c-.681-.563-.698-.759-.199-1.539.486-.757 1.02-1.465 1.736-2.031.554-.439.964-1.015 1.365-1.591a29.234 29.234 0 013.215-3.85c2.354-2.384 4.353-5.085 6.657-7.515.215-.057.322-.004.24.238z"/><path fill="#fefeff" d="M168.502 209.336c-1.653-.144-3.503-.322-5.305-.852-1.704-.502-3.016-2.183-3.23-4.175-.06-.549.098-.89.647-1.058.518-.16 1.016-.386 1.529-.562.18-.062.43-.154.564-.08.826.459 1.811.17 2.644.628 1.134.622 2.357.696 3.62.452.99-.191 1.988-.383 2.99-.472 1.595-.14 3.086.218 4.374 1.215.636.493.645.774.217 1.482-.912 1.509-2.218 2.452-3.934 2.86-1.289.306-2.582.544-4.116.562z"/><path fill="#313133" d="M85.866 174.745c-.542 2.125-1.238 4.02-1.862 5.94-.093.286-.16.629-.622.481-.163-.052-.36.092-.379.21-.139.891-.806.655-1.358.665a23.36 23.36 0 01-3.148-.146c-.458-.052-.853-.146-.723-.766.038-.183.059-.444-.116-.547-.794-.468-.757-1.31-.905-2.036-.296-1.446-.31-2.923-.346-4.432 3.155.205 6.213.822 9.459.63z"/><path fill="#fdfdfe" d="M156.864 209.794c.575-.356 1.099-.493 1.623-.642.834-.238 1.523-.215 2.237.45 1.033.96 2.452 1.142 3.776 1.418 2.688.56 5.389.766 8.101.071.255-.065.724-.427.89.088.145.445-.317.587-.631.688-1.38.447-2.63 1.124-3.856 1.894-1.075.676-2.328.814-3.597.807-3.692-.021-6.432-1.72-8.543-4.774z"/><path fill="#fbfdfd" d="M168.586 216.335c-.484 1.596-1.286 2.566-2.854 2.742-.848.096-1.688.27-2.537.376-.78.097-1.564.052-2.293-.265-1.28-.558-2.562-1.12-3.81-1.745-1.12-.56-1.518-1.307-1.385-2.319.077-.584.368-1.006.887-1.287.407-.22.784-.313 1.175.044.228.209.512.355.751.552 1.923 1.587 4.2 2.134 6.618 2.208 1.117.034 2.244.124 3.448-.306z"/><path fill="#f8fbfc" d="M164.104 221.426c-.902 2.828-3.389 3.53-5.508 2.767-1.743-.628-3.028-1.865-4.295-3.119-.565-.559-.759-1.896-.359-2.132.668-.393 1.42-.304 2.113.01.564.255 1.095.581 1.647.866 1.995 1.03 3.968 2.149 6.402 1.608z"/><path fill="#fbfbfb" d="M167.372 201.007c2.11-1.418 3.283-3.762 5.402-5.318.692 1.231 1.775 1.98 2.807 2.772-.538.68-.985 1.377-1.56 1.94-.629.613-1.477.048-2.224.233-.976.241-1.984.359-2.983.504-.437.064-.885.065-1.328.095z"/><path fill="#c0bfbf" d="M152.61 217.352c.348-.5.715-.98 1.265-1.491l.365 1.167c-.464.138-.868.258-1.272.38-.134.076-.253.059-.358-.056z"/><path fill="#bcc1c6" d="M148.198 210.36l-.409.69c-.06-.563-.067-1.123.127-1.683.268.301.309.638.282.993z"/><path fill="#898686" d="M152.61 217.352l.358.056-.946 1.16-.24-.238c.187-.4.448-.74.828-.978z"/><path fill="#bbb9b8" d="M46.829 236.133c.186-.094.373-.189.56-.282-.113.311-.218.627-.34.933-.055.138-.166.289-.328.186-.108-.068-.247-.252-.126-.373.14-.14.247-.262.234-.464z"/><path fill="#9a9797" d="M58.645 179.023l-.038-.566c.045-.136.163-.165.207-.045.082.224.01.442-.17.61z"/><path fill="#6a7a82" d="M168.091 198.843l.032.32c-.026.11-.126.19-.19.099-.123-.18.018-.31.158-.419z"/><path fill="#a6a4a3" d="M247.732 123.534l-.333-.041c.099-.183.25-.292.435-.165.097.068.017.177-.102.206z"/><path fill="#040505" d="M76.133 163.258c-3.267-.288-6.427-1.06-8.993-3.457-1.908-1.783-3.931-3.474-5.056-5.902a40.816 40.816 0 01-2.95-8.832c-.261-1.249-.206-2.483.415-3.64.555-1.032 1.435-1.291 2.431-.68.462.283.93.595 1.303.981 1.714 1.782 3.916 2.513 6.255 2.85 3.555.515 7.128.609 10.72.286 3.995-.36 7.96-.894 11.895-1.666.92-.181 1.8-.476 2.67-.826.683-.275 1.377-.554 2.092-.72 1.308-.304 2.501-.116 3.26 1.154.247.41.457.47.793.126.132-.136.311-.266.5-.08.116.115.114.275.09.436-.21 1.36-.585 2.665-1.351 3.824-1.832 2.768-3.858 5.387-6.215 7.73-1.106 1.097-2.277 2.13-3.438 3.172-2.094 1.879-4.488 3.186-7.237 3.859-2.002.489-3.962 1.158-6.039 1.294-.35.024-.699.055-1.145.091z"/><path fill="#050606" d="M91.36 116.3c-1.373.048-2.344-.426-3.076-1.401-1.07-1.427-1.419-3.092-1.568-4.811-.054-.633.198-1.224.527-1.766.215-.355.507-.596.959-.514.411.074.531.387.626.748.266 1.014.558 2.02.839 3.03.063.226.108.456.19.673.394 1.06.843 1.303 1.87.89 1.734-.697 3.453-1.433 4.847-2.743.575-.542 1.235-.953 2.063-.982.8-.027 1.064.206 1.053.994-.01.859-.372 1.58-.976 2.181-.691.69-1.442 1.31-2.302 1.78-1.263.691-2.587 1.247-3.947 1.722-.415.144-.837.167-1.105.199zm-21.782-14.227c-.146 1.099-.64 1.952-1.413 2.663-.89.817-1.75 1.665-2.656 2.465-.644.57-1.392 1-2.188 1.329-2.491 1.028-5.157-.43-5.546-3.085-.237-1.61.073-3.185.655-4.695.216-.56.609-.994 1.197-1.21.305-.113.604-.174.87.084.235.225.179.481.095.756-.287.936-.406 1.905-.517 2.871-.074.654-.142 1.324.087 1.968.308.868.994 1.18 1.858.854.596-.225 1.077-.626 1.535-1.048.804-.738 1.555-1.534 2.38-2.247 1.063-.918 2.25-1.368 3.643-.705z"/><path fill="#070808" d="M131.473 140.336c-1.105-1.783-.819-3.74-.999-5.777-.587.549-.734 1.115-.924 1.64a62.066 62.066 0 00-1.564 5.007c-.142.524-.341 1.033-.534 1.541-.146.386-.237.943-.814.779-.541-.155-.406-.699-.356-1.105.142-1.158.29-2.318.5-3.465.246-1.34.627-2.648 1.084-3.932.317-.891.76-1.712 1.47-2.35.954-.86 2.185-.715 2.929.33.492.691.64 1.497.712 2.316.163 1.826-.37 3.454-1.504 5.016z"/><path fill="#fff" d="M60.693 141.932c.406.195.552.483.734.724 1.363 1.808 3.18 2.922 5.314 3.608 2.017.649 4.09.961 6.19 1.1a60.69 60.69 0 0013.044-.574c2.5-.378 5.01-.666 7.479-1.234 1.223-.282 2.358-.778 3.518-1.225.917-.353 1.219-.123 1.153.84-.033.481-.211.89-.517 1.272-1.19 1.49-2.276 3.071-3.552 4.481-2.51 2.77-5.13 5.43-8.428 7.31-1.619.922-3.451 1.171-5.166 1.787-.653.235-1.354.337-2.035.493-2.54.58-4.94-.005-7.3-.89-.81-.304-1.513-.797-2.16-1.364-1.112-.973-2.212-1.954-3.221-3.044-.916-.988-1.631-2.07-2.134-3.312-.974-2.414-1.992-4.81-2.81-7.284-.283-.855-.477-1.713-.11-2.688z"/></svg>