<svg xmlns="http://www.w3.org/2000/svg" width="399" height="466"><path fill="#f5f5f5" d="M43.677 427.643c-54.802-52.923-58.452-262.034-5.53-316.837s262.034-58.453 316.837-5.53c54.802 52.922 58.451 262.034 5.53 316.837s-262.035 58.453-316.837 5.53"/><path fill="#ffca52" d="M183.223 104.696l-7.24-21.631-3.662-6.647-3.662-6.783V54.79l3.662-8.682 9.35-6.647 10.016-2.848h11.122l8.195 2.848 6.782 10.78 3.597 10.753v8.641l-3.597 9.086-4.255 6.104-2.527 8.929-3.913 9.144-7.324 1.798z"/><path fill="#c7c9cb" d="M27.972 415.525c0-4.8 40.157-8.692 89.693-8.692 49.537 0 89.694 3.891 89.694 8.692 0 4.8-40.157 8.692-89.694 8.692-49.536 0-89.693-3.892-89.693-8.692zm181.49 0c0-4.8 40.157-8.692 89.693-8.692 49.537 0 89.694 3.891 89.694 8.692 0 4.8-40.157 8.692-89.694 8.692-49.536 0-89.693-3.892-89.693-8.692z"/><path fill="#fff" d="M219.742 171.879c.89 2.84 1.685 5.419 3.505 7.467-.133.39-.426.436-.708.357-1.506-.418-2.521-1.466-2.95-2.881-.448-1.48-.645-3.053.153-4.943zM88.089 297.193c-.677-2.415-.49-4.67-.521-7.028.554.146.989.28 1.432.37.567.118 1.139.242 1.714.288.954.076 1.522-.324 1.769-1.286.259-1.01.436-2.038.65-3.057.154-.74.286-1.483.472-2.212.129-.504.384-.977.493-1.483.109-.504.107-1.032.152-1.53 2.106-.76 4.182-1.477 6.233-2.257 1.362-.518 2.718-.998 4.194-1.076.777-.041 1.44-.442 2.005-.958.555-.507 1.11-1.027 1.577-1.612.428-.537.738-1.17 1.13-1.81.98 0 18.717-2.05 19.154-2.193.879-.288 1.769-.548 2.63-.881a156.565 156.565 0 004.998-2.017 10.66 10.66 0 001.823-1.015c1.306-.896 2.739-1.501 4.345-2.057.106.327.26.622.295.93.4 3.645.538 7.295.414 10.964-.1 2.904-.11 5.81-.41 8.704-.041.405-.025.82-.115 1.214-.626 2.735-.691 5.53-.945 8.306-.016.172-.057.342-.1.582-.135.116-.285.312-.483.404-2.218 1.024-4.465 1.959-6.955 2.07-.232.01-.481-.012-.693.063-2.118.754-4.327.653-6.521.766-1.733.09-3.452.423-5.185.519-1.555.087-3.12.224-4.681-.161-.588-.146-1.27-.032-1.887.083a11.794 11.794 0 01-3.108.188c-1.618-.123-3.25-.065-4.876-.083-.06-.001-.125-.014-.173.009-1.49.7-2.942-.014-4.415-.078-2.41-.105-4.64-.998-6.981-1.375a19.835 19.835 0 00-2.074-.242c-1.813-.1-3.508-.72-5.357-1.05z"/><path fill="#313133" d="M114.79 272.857c7.518-1.108 8.725-1.222 10.129-.965.123.73-.21 10.283-.505 10.884-.587 1.189-1.292 2.32-1.951 3.474-.516.903-1.028 1.809-1.558 2.704-.525.887-1.07 1.76-1.63 2.68-.497-.053-.547-.518-.692-.847-.465-1.056-.875-2.137-1.337-3.195-.278-.635-.607-1.247-.926-1.863-.265-.513-1.19-2.28-1.39-2.815-.281-.753.119-9.161-.14-10.057z"/><path d="M112.584 258.653c-.921.582-1.845.328-2.86.416.168-.811.772-1.11 1.189-1.526.439-.437.963-.79 1.67-1.356zm2.207 14.204c7.517-1.108 8.724-1.222 10.128-.965.123.73-.881 10.513-1.177 11.114-.325 1.252-.62 2.09-1.28 3.244-.515.903-1.027 1.809-1.557 2.704-.525.887-1.07 1.76-1.63 2.68-.497-.053-.547-.518-.692-.847-.465-1.056-.875-2.137-1.337-3.195-.278-.635-.607-1.247-.926-1.863-.265-.513-1.004-2.094-1.204-2.63-.281-.753-.067-9.346-.325-10.242zm.33-18.763l6.884-9.613c.413.028.412.299.469.504.077.278.155.564.17.85.126 2.209.652 4.34 1.172 6.478.326 1.345.502 2.725.765 4.197-.48.134-.9.322-1.333.36-2.423.223-4.826.548-7.175 1.205-.273.077-.57.07-.952.114v-4.095zm-6.737 13.129c-.008.754.052 1.509.086 2.263.03.696.152 1.414-.53 1.912a.257.257 0 00-.095.143c-.316 1.61-1.641 2.462-2.68 3.52-.225.229-.58.436-.89.46-2.003.158-3.816.937-5.654 1.647-.865.333-1.742.636-2.603.98a8 8 0 01-2.882.585c-.987.014-1.973.07-2.96.1-1.082.03-2.063-.343-2.974-.864-.845-.484-1.323-1.243-1.396-2.372.696-.007 1.316.007 1.934-.025.982-.052 1.989-.024 2.859-.6.238-.158.55-.325.637-.558.108-.292.107-.696-.017-.977-.09-.205-.442-.37-.698-.406-.266-.037-.574.062-.834.17-1.52.638-3.078.426-4.631.215-.737-.1-1.24-.615-1.672-1.171-.5-.641-.984-1.304-.793-2.194 1.072-.413 2.279-.506 3.557-.347.86.107 1.733.219 2.596.192.622-.02 1.255-.212 1.847-.427.582-.212.819-.752.678-1.251-.128-.45-.484-.721-1.056-.726-2.087-.021-4.174-.025-6.262-.034-.29-.001-.581.027-.87.008-1.776-.111-2.537-1.044-2.452-3.042.155-.011.335-.075.47-.023 2.339.888 4.756.935 7.208.749a44.958 44.958 0 014.004-.132c1.596.02 3.109-.232 4.565-.91.569-.265 1.202-.433 1.824-.534 1.984-.322 3.783-1.071 5.453-2.175.62-.411 1.29-.748 1.985-1.146 1.269 2.244 2.272 4.435 2.246 6.97zm29.454-61.582c1.662 1.728 1.516 3.557 1.123 5.428-.487 2.319-1.905 4.08-3.496 5.717-.346.355-.896.515-1.356.757-.513.269-1.054.49-1.538.802-.441.285-.564.908-.372 1.408.185.479.708.779 1.28.67.337-.063.663-.203.982-.336.695-.29 1.383-.596 2.172-.94.14.34.312.629.38.94.546 2.479-.712 4.248-2.38 5.813-.498.469-1.12.824-1.721 1.165-.658.372-1.006.852-1.114 1.633-.332 2.399-1.657 4.019-4.007 4.734-1.164.354-2.341.668-3.504 1.028a5.106 5.106 0 01-2.923.042 193.395 193.395 0 01-5.85-1.688c-1.027-.318-1.86-.933-2.35-1.946-.175-.364-.43-.69-.632-1.042-.761-1.327-1.246-2.723-1.292-4.282-.03-.98-.236-1.955-.373-2.93-.095-.68-.466-1.174-1.054-1.515-.151-.087-.294-.19-.45-.27-1.935-.991-2.334-2.713-2.308-4.645.589-.585 1.259-.728 1.964-.765 1.377-.071 2.718.198 3.78 1.058 2.637 2.133 5.549 2.102 8.582 1.269.79-.218 1.548-.411 2.382-.392a5.839 5.839 0 003.6-1.108c.946-.677 1.896-1.347 2.842-2.021.33-.236.63-.61.995-.688 1.073-.23 1.427-1.02 1.843-1.89.527-1.104.994-2.216 1.362-3.385.368-1.165 1.31-1.898 2.324-2.484.312-.18.772-.102 1.109-.137zm-27.065 65.327c.173-3.077.046-6.01-1.011-8.921.26-.1.455-.235.649-.236 2.462-.008 4.85-.481 7.206-1.138 1.802-.502 3.652-.708 5.5-.841 1.886-.136 3.68-.442 5.304-1.484.433-.278.935-.477 1.43-.626 2.096-.631 3.674-1.971 4.986-3.645.604-.77 1.216-1.551 1.555-2.507.127-.357.458-.645.71-.951.33-.4.787-.733.996-1.184 1.83-3.956 3.009-8.056 2.397-12.477-.191-1.377-.54-2.731-.811-4.097-.282-1.424-1.328-2.266-2.363-3.116-.13-.107-.313-.217-.468-.213-.27.008-.626.02-.778.186-.152.166-.216.583-.111.78.267.502.588 1.01 1.003 1.392.546.502.856 1.09 1.002 1.785.264 1.249.595 2.493.74 3.756.268 2.326.118 4.639-.627 6.88-.347 1.044-.79 2.057-1.114 3.108-.283.919-.685 1.71-1.524 2.244-.184.117-.322.339-.428.54-1.142 2.176-3.09 3.406-5.217 4.396-.826.384-1.688.72-2.645.929-.08-.31-.148-.523-.188-.742-.207-1.14-.36-2.293-.62-3.422-.376-1.642-.812-3.267-.934-4.96-.138-1.928-.851-3.73-1.386-5.562-.16-.545-.264-.976-.022-1.474.2-.415.39-.836.61-1.24.22-.404.47-.79.75-1.254 1.3-.394 2.699-.775 4.067-1.246a5.963 5.963 0 002.467-1.593c1.074-1.158 2.06-2.368 2.478-3.943 1.88-.961 3.227-2.451 4.479-4.087.944-1.233 1.293-2.571 1.268-4.064-.003-.172-.076-.342-.081-.515-.003-.085.075-.173.156-.343.165.203.328.359.439.546.475.809 1.135 1.424 1.815 2.07 1.248 1.189 2.469 2.439 3.075 4.156.365 1.033.912 2.009 1.442 2.974.245.448.588.884.988 1.195.678.528 1.076 1.18 1.327 1.986.206.662.543 1.28.797 1.93.822 2.102.967 4.277.784 6.514-.295 3.6-.767 7.158-1.905 10.606a14.782 14.782 0 01-1.381 2.987c-.866 1.45-1.791 2.85-2.862 4.15a8.615 8.615 0 01-1.52 1.409c-1.351 1.003-2.728 1.962-4.357 2.509-.593.2-1.134.588-1.662.946-2.787 1.89-5.974 2.816-9.15 3.726-1.096.315-2.304.27-3.464.328-3.544.18-7.048.72-10.561 1.179-.742.096-1.46.378-2.194.549-.317.073-.65.08-1.036.125zm11.605-168.185c-.44 1.252-.882 2.502-1.317 3.756a1.156 1.156 0 01-.857.787c-.45.113-.9.244-1.357.293-1.107.117-2.132.47-3.18.845-2.135.764-4.19 1.695-6.246 2.638-.505.232-1.124.26-1.696.294-.753.044-1.512.02-2.267-.01-2.756-.107-5.293.602-7.634 2.032-1.2.732-2.478 1.249-3.83 1.636-1.504.43-2.975.982-4.476 1.432-.83.25-1.69.408-2.538.595-1.004.22-1.82.709-2.434 1.555a31.996 31.996 0 01-1.626 2.047c-.414.482-.838.98-1.343 1.356-1.537 1.14-3.042 2.32-4.74 3.245-1.241.675-2.126 1.8-2.81 3.033-.706 1.27-1.4 2.532-2.283 3.7-.55.726-.937 1.616-1.23 2.489-.792 2.369-1.463 4.773-1.773 7.267-.331 2.65-.722 5.293-1.073 7.94-.077.577-.158 1.162-.14 1.739.09 2.73.154 5.464.346 8.187.156 2.227 1.006 4.287 1.84 6.335.213.524.42 1.05.636 1.585-.634.456-1.284.43-1.913.427-1.621-.01-2.556.849-3.128 2.293-.76 1.919-1.156 3.899-1.098 5.955.035 1.219.15 2.438.282 3.65.149 1.376.824 2.53 1.663 3.593 1.556 1.972 3.538 3.318 5.988 4.02.48 1.212.19 2.53.456 3.774.263 1.24.555 2.473.848 3.773-1.158-.561-1.933-1.421-2.603-2.371-.543-.771-1.128-1.47-1.953-1.957-.673-.396-1.08-1.037-1.458-1.702-.748-1.312-1.528-2.606-2.274-3.92-.286-.503-.525-1.034-.767-1.56-.873-1.9-1.736-3.804-2.607-5.704-.32-.696-.74-1.324-1.353-1.794-.535-.411-.843-.927-.964-1.594-.352-1.942-.796-3.861-.82-5.86-.016-1.563-.254-3.123-.36-4.687a46.18 46.18 0 01-.108-3.135c.002-2.382.042-4.754-.237-7.14-.215-1.835-.082-3.717-.051-5.578.04-2.442.168-4.882.195-7.324.028-2.48.635-4.834 1.497-7.124.57-1.52 1.274-2.99 1.936-4.475.14-.315.304-.653.548-.884.954-.904 1.464-2.08 2.074-3.201 1.315-2.42 3.145-4.456 4.949-6.507a1.89 1.89 0 01.536-.442c2.57-1.308 4.496-3.481 6.842-5.092.677-.465 1.336-.918 2.109-1.193 1.545-.55 2.933-1.357 4.265-2.324 2.086-1.515 4.424-2.545 6.936-3.163 2.254-.555 4.502-1.138 6.762-1.666 1.53-.358 3.068-.556 4.654-.202.778.173 1.614.149 2.42.12 2.446-.088 4.88-.142 7.249.656 1.242.419 2.529.283 3.803.164.98-.091 1.96-.3 2.94-.303 1.565-.007 2.834-.511 3.783-1.783.2-.27.479-.48.722-.718l.265.202zM44.482 278.567zm0 0c.015-.111.002-.188.034-.223 1.314-1.4 1.854-3.205 2.447-4.944.623-1.826 1.495-3.527 2.316-5.251 1.28-2.691 2.27-5.454 2.743-8.406.238-1.488.656-2.946.938-4.428.6-3.15.712-6.348.937-9.535.037-.513.072-1.026.112-1.604.908-.257 1.773-.152 2.623-.066 2.714.274 5.413.654 8.094 1.178 1.073.209 2.193.205 3.294.233 1.219.03 2.44-.023 3.66-.018.338 0 .674.08 1.02.125-.133 2.036-.308 4-.372 5.968a17.9 17.9 0 00.198 3.295c.202 1.32.613 2.567 1.53 3.637.674.786 1.156 1.737 1.723 2.614.578.895 1.263 1.662 2.304 2.04.206.076.379.245.549.358-.557 2.43-.003 4.398 2.086 5.79-.596 2.748 1.05 4.337 2.94 5.82.122.713.182 1.46.385 2.168.332 1.159 1.032 2.074 2.115 2.652 1.292.689 2.618 1.25 4.138 1.15.506-.032 1.019.045 1.612.076-.393 1.24-.785 2.378-1.11 3.533-.328 1.164-.24 2.418-.677 3.635-1.265-.226-2.411-.643-3.507-1.135-1.195-.535-2.442-.84-3.707-.875-2.69-.076-5.286-.661-7.891-1.22-3.12-.67-6.218-1.441-9.353-2.024-2.336-.434-4.716-.622-7.072-.957-.683-.097-1.38-.243-2.015-.501-2.006-.814-4.088-1.257-6.221-1.6a35.31 35.31 0 01-5.873-1.485zm43.607 18.626zm0 0c-.677-2.415-.49-4.67-.521-7.028.554.146.989.28 1.432.37.567.118 1.139.242 1.714.288.954.076 1.522-.324 1.769-1.286.259-1.01.436-2.038.65-3.057.154-.74.286-1.483.472-2.212.129-.504.384-.977.493-1.483.109-.504.107-1.032.152-1.53 2.106-.76 4.182-1.477 6.233-2.257 1.362-.518 2.718-.998 4.194-1.076.777-.041 1.44-.442 2.005-.958.555-.507 1.11-1.027 1.577-1.612.428-.537.738-1.17 1.13-1.81h3.104c.072.25.143 9.427.228 9.696a22.053 22.053 0 001.952 4.447c1.105 1.903 2.034 3.909 3.043 5.869.158.309.309.629.513.906.52.704 1.43.695 1.882-.06.476-.792.859-1.64 1.284-2.464.239-.463.457-.94.726-1.385.9-1.487 1.878-2.93 2.715-4.451.948-1.722 1.975-12.326 2.335-14.32.496-.155.935-.288 1.372-.431.879-.288 1.769-.548 2.63-.881a156.565 156.565 0 004.998-2.017 10.66 10.66 0 001.823-1.015c1.306-.896 2.739-1.501 4.345-2.057.106.327.26.622.295.93.4 3.645.538 7.295.414 10.964-.1 2.904-.11 5.81-.41 8.704-.041.405-.025.82-.115 1.214-.626 2.735-.691 5.53-.945 8.306-.016.172-.057.342-.1.582-.135.116-.285.312-.483.404-2.218 1.024-4.465 1.959-6.955 2.07-.232.01-.481-.012-.693.063-2.118.754-4.327.653-6.521.766-1.733.09-3.452.423-5.185.519-1.555.087-3.12.224-4.681-.161-.588-.146-1.27-.032-1.887.083a11.794 11.794 0 01-3.108.188c-1.618-.123-3.25-.065-4.876-.083-.06-.001-.125-.014-.173.009-1.49.7-2.942-.014-4.415-.078-2.41-.105-4.64-.998-6.981-1.375a19.836 19.836 0 00-2.074-.242c-1.813-.1-3.508-.72-5.357-1.05zm25.795-62.224c3.034.698 5.794 2.034 8.949 2.27-.066.373-.074.71-.188 1.007-.542 1.409-.995 2.869-1.707 4.189-.711 1.319-1.606 2.565-2.575 3.712-1.388 1.64-2.792 3.254-4.043 5.013-.69.97-1.735 1.698-2.65 2.5a85.636 85.636 0 01-3.071 2.573c-.446.355-.93.713-1.456.908-1.538.567-2.97 1.325-4.328 2.225-1.471.974-3.018 1.705-4.805 1.918-.675.08-1.341.379-1.97.67-1.022.473-2.081.679-3.202.71-1.625.047-3.257.076-4.873.245-3.24.337-6.224-.463-9.088-1.87-.35-.171-.703-.441-.921-.757-.89-1.29-1.78-2.582-2.565-3.935-.561-.966-.702-2.09-.731-3.203-.072-2.8.203-5.576.679-8.33.108-.622.33-1.24.59-1.818a764.275 764.275 0 014.775-10.461c.262-.562.705-1.065 1.15-1.51a17.695 17.695 0 002.503-3.12c.652-1.037 1.495-1.89 2.47-2.665 1.817-1.445 3.516-3.036 5.277-4.553.346-.298.74-.545 1.127-.793.822-.527 1.653-1.04 2.6-1.631 2.74.669 5.677.892 8.684.636.232.39.427.736.639 1.07.562.889 1.135 1.769 2.126 2.252.46.224.668.605.77 1.09.236 1.136.482 2.27.755 3.399.123.506.214 1.07.505 1.476.962 1.34 1.49 2.879 2.136 4.366.137.317.336.607.556.995-.237.287-.452.629-.741.886-1.211 1.077-2.3 2.306-3.803 3.025-.354.169-.624.514-.932.779-.308.265-.577.606-.93.785-1.153.585-2.12 1.42-3.116 2.219-.98.784-2.11 1.25-3.348 1.346-1.296.1-2.501.484-3.706.919a6.2 6.2 0 01-1.345.312c-1.31.159-2.277-.487-2.58-1.76a5.316 5.316 0 01-.113-1.556c.18-2.733 1.187-5.187 2.627-7.48.179-.283.44-.58.736-.713.902-.408 1.444-1.145 1.957-1.927.415-.631.854-1.25 1.232-1.901a2.37 2.37 0 00.296-.975c.037-.461-.594-.895-.978-.667a8.504 8.504 0 00-1.382 1.036c-.426.392-.778.864-1.176 1.287-.238.253-.462.572-.761.704-1.795.79-2.62 2.414-3.46 4.005a19.226 19.226 0 00-1.247 2.876c-.61 1.837-.85 3.737-.576 5.669.298 2.107 2.414 4.047 4.295 4.308 1.166.163 2.316-.077 3.404-.478 1.043-.384 2.079-.681 3.198-.775 1.729-.146 3.21-.934 4.554-2.011.949-.762 1.93-1.484 2.892-2.231.366-.285.753-.556 1.066-.894a9.204 9.204 0 011.88-1.533c.582-.366 1.08-.877 1.57-1.366.82-.817 1.605-1.668 2.369-2.467zm-25.422 65.1zm0 0zm0 0c.622.13 1.18.253 1.742.36.912.175 1.823.463 2.738.48 1.656.03 3.229.409 4.773.914 1.41.462 2.82.47 4.285.484 2.555.024 5.1.148 7.642-.248.388-.06.81.055 1.21.127.75.134 1.482.108 2.246.014.969-.12 1.965-.025 2.949-.025.578 0 1.158.025 1.734-.012 2.144-.137 4.285-.34 6.432-.432 2.379-.103 4.76-.285 7.145-.087.339.029.689-.065 1.033-.111.689-.092 1.376-.263 2.066-.27a15.739 15.739 0 004.294-.63c.212-.062.442-.063.745-.103.026.513.072.97.069 1.426-.043 5.699-.03 11.4-.163 17.097-.113 4.83.272 9.65.208 14.475-.028 2.148-.147 4.296-.278 6.44a173.837 173.837 0 01-.515 6.608c-.284 2.832-.51 5.668-.84 8.497-.268 2.3-.193 4.642-.224 6.966-.024 1.802.006 3.606.043 5.408a29.107 29.107 0 01-.43 5.552c-.146.854-.25 1.732-.234 2.597.062 3.487.179 6.972.276 10.458.003.117.005.235.026.348.555 2.88.415 5.79.334 8.695-.052 1.826.179 3.59.954 5.269.368.798.52 1.658.555 2.539.07 1.865.815 3.486 1.81 5.02.33.509.726.913 1.313 1.084.799.232 1.424.764 2.127 1.163 1.41.8 2.883 1.49 4.335 2.216.345.172.708.308 1.089.473-.14.158-.201.3-.293.323-1.343.326-2.624.887-4.032.984-1.157.079-2.312.243-3.46.43-1.981.325-3.946.13-5.902-.163-.557-.084-1.105-.35-1.611-.62-.82-.436-1.588-.967-2.403-1.413-.662-.362-1.078-.867-1.174-1.62-.212-1.671-.438-3.34-.63-5.013a610.405 610.405 0 01-.821-7.628c-.327-3.238-.602-6.482-.95-9.717-.29-2.714-.6-5.43-.993-8.13-.42-2.871-.867-5.744-1.45-8.586-.502-2.456-.737-4.94-1.04-7.416-.516-4.211-.955-8.43-1.427-12.646-.491-4.386-1.1-8.76-1.321-13.172-.084-1.683-.154-3.368-.263-5.05-.281-4.293-.556-8.586-.882-12.875-.15-1.967-.417-3.926-.62-5.89-.223-2.158-1.103-4.144-1.613-6.227-.102-.417-.38-.728-.812-.833-.45-.11-.904-.22-1.362-.252-.637-.046-1.282.015-1.918-.035-1.383-.107-2.38.523-3.007 1.67-.696 1.27-1.38 2.567-1.873 3.923-.97 2.673-1.863 5.379-2.411 8.18-.211 1.082-.46 2.166-.551 3.26-.275 3.302-.464 6.609-.72 9.912-.298 3.88-.331 7.787-1.032 11.632-.104.57-.196 1.143-.31 1.71-.236 1.199-.425 2.397-.46 3.626-.081 3.019-.121 6.045-.371 9.053-.45 5.403-.091 10.81-.241 16.213-.075 2.73-.061 5.465-.122 8.198-.09 4.068-.221 8.135-.311 12.204-.047 2.159-.401 4.28-.721 6.407-.163 1.089-.226 2.193-.377 3.284a80.005 80.005 0 01-.586 3.604 2.54 2.54 0 01-.388.95c-.795 1.158-1.764 2.17-2.92 2.956-.506.346-1.173.473-1.781.65-.835.245-1.682.443-2.524.662-2.608.678-5.234 1.043-7.921.497-.396-.081-.808-.088-1.214-.12a4.537 4.537 0 01-1.727-.49 6.853 6.853 0 012.05-1.974c1.086-.676 2.2-1.306 3.273-2.001a76.385 76.385 0 003.299-2.264c1.075-.78 1.683-1.896 2.112-3.13.679-1.953.907-3.972.72-6.015-.216-2.37-.341-4.754-.971-7.075-.18-.663-.185-1.383-.206-2.08-.087-2.904-.178-5.81-.217-8.716-.06-4.478-.288-8.947-.602-13.413-.037-.522-.085-1.045-.087-1.568-.01-3.55-.454-7.073-.68-10.61-.034-.522-.085-1.046-.072-1.568.07-3.026-.157-6.041-.337-9.058a931.79 931.79 0 00-.645-9.736c-.253-3.595-.525-7.19-.786-10.783l-.705-9.74a9.306 9.306 0 00-.091-.866c-.326-1.953-.47-3.915-.52-5.898-.071-2.84-.303-5.675-.48-8.728zm57.409-128.251c.76 1.31 1.163 2.594 1.104 4.026-.043 1.043.045 2.09.004 3.134-.036.927-.052 1.88-.286 2.768-.476 1.809-.602 3.663-.903 5.494-.386 2.343-.96 4.658-1.501 6.973-.224.959-.637 1.873-.86 2.83-.437 1.883-1.221 3.624-2.01 5.369-.367.81-.933 1.453-1.494 2.07-.167-.024-.293-.006-.373-.06-1.563-1.047-2.84-1.075-4.317-.01-1.387 1.003-2.53 2.169-2.952 3.948-.224.942-.754 1.814-1.175 2.704-.092.194-.284.37-.471.486-1.431.884-2.885 1.73-4.304 2.632-.821.523-1.675.766-2.643.66-1.162-.126-2.305-.12-3.441.28-.65.23-1.364.276-2.051-.012-.21-.088-.451-.11-.681-.137-2.194-.27-4.36-.677-6.472-1.336-1.03-.321-2.042-.276-3.09-.026-1.545.368-2.83 1.038-3.503 2.626-2.223.104-4.421.062-6.594-.305-1.021-.173-1.992-.634-3.012-.824-1.985-.37-3.795-1.063-5.31-2.432a.78.78 0 00-.141-.102c-3.015-1.694-5.145-4.313-7.237-6.962-1.26-1.594-2.464-3.232-3.66-4.875a6.253 6.253 0 01-.82-1.525c-1.031-2.843-1.861-5.747-2.276-8.747-.167-1.205-.155-2.435-.217-3.654-.073-1.454-.334-1.783-1.817-2.063-2.32-.44-3.985-1.794-5.267-3.695-.536-.793-.74-1.716-.784-2.644a57.75 57.75 0 01-.026-4.182c.03-1.18.487-2.247 1.025-3.352 1.166-.132 2.322-.228 3.474-.108 1.084.112 1.723-.574 2.386-1.205.167-.16.202-.552.158-.815-.055-.331-.214-.662-.394-.953-1.482-2.401-2.407-5.012-2.943-7.768-.132-.68-.193-1.378-.242-2.07-.09-1.275-.2-2.552-.2-3.828 0-1.392.042-2.793.196-4.175.29-2.594.709-5.173 1.013-7.766.285-2.442.996-4.774 1.748-7.094.21-.647.627-1.233.989-1.823.545-.89 1.186-1.724 1.676-2.642.755-1.416 1.696-2.546 3.158-3.353 1.463-.807 2.758-1.927 4.093-2.955.454-.35.83-.813 1.195-1.261.588-.721 1.174-1.448 1.69-2.218a2.943 2.943 0 011.982-1.302c2.637-.493 5.11-1.533 7.667-2.29 1.044-.31 2.05-.825 2.99-1.39 2.108-1.262 4.358-1.878 6.808-1.803.406.012.814-.02 1.22-.012 1.72.037 3.312-.328 4.829-1.205 1.196-.691 2.448-1.321 3.837-1.604.39-.08.76-.283 1.122-.468.843-.431 1.748-.593 2.677-.691.547-.06 1.035.027 1.482.358.373.277.758.538 1.139.803.524.366 1.013.804 1.58 1.08 2.372 1.154 4.132 2.952 5.566 5.115.128.193.254.399.422.554 2.206 2.02 3.643 4.639 5.43 6.983.279.365.479.79.71 1.19.145.252.228.566.43.752 1.667 1.522 2.177 3.64 3.006 5.61 1.11 2.642 1.663 5.437 2.466 8.163.196.666.487 1.303.69 1.968.236.773.483 1.552.62 2.347.255 1.482.433 2.978.66 4.589l-.968.037c-1.967.076-3.741-.568-5.53-1.316a125.3 125.3 0 01-9.298-4.368c-.361-.187-.718-.421-1.105-.511-1.586-.368-2.807-1.366-4.06-2.301-.555-.415-1.123-.868-1.525-1.42-1.173-1.605-2.635-2.94-3.96-4.4-.424-.47-.76-1.02-1.122-1.542-.283-.407-.62-.718-1.152-.603-.52.112-.91.742-.806 1.378.13.803.324 1.604.833 2.267.707.92 1.438 1.823 2.165 2.728.218.27.502.499.678.794 1.293 2.169 3.31 3.553 5.318 4.948.237.164.496.312.765.415 3.204 1.23 6.145 3.018 9.289 4.375 1.706.736 3.407 1.485 5.138 2.156.636.246 1.348.356 2.034.4 1.915.122 3.817.278 5.688.757 1.12.287 2.27.559 3.418.622 1.108.062 1.859.597 2.534 1.338 1.154 1.267 1.209 2.938.51 4.528-1.231 2.806-3.132 5.148-4.963 7.54-.41.535-1.01.969-1.605 1.3-1.118.627-2.207 1.272-3.196 2.099-.432.362-1.012.552-1.537.793-.901.414-1.756.867-2.464 1.6-.477.494-1.074.882-1.657 1.256-.458.294-.83.628-1.02 1.142a.917.917 0 00.466 1.17c.485.248.997.389 1.5.107.654-.367 1.354-.7 1.9-1.196.913-.832 1.892-1.49 3.034-1.98.784-.336 1.454-.94 2.177-1.42.23-.152.47-.292.746-.463zm2.742-1.045c1.725-1.093 2.882-2.704 4.069-4.27.802-1.055 1.482-2.214 2.112-3.384.38-.706.58-1.513.823-2.286.522-1.657.598-3.262-.307-4.868-.954-1.693-2.447-2.766-3.992-3.804-.226-.153-.551-.153-.827-.237-1.487-.451-2.993-.85-4.38-1.466-.045-.671-.045-1.25-.13-1.816-.154-1.033-.36-2.057-.54-3.087-.248-1.431-.453-2.87-1.31-4.116-.223-.326-.324-.742-.456-1.126-1.035-3.021-2.016-6.061-3.112-9.06-.693-1.897-1.311-3.864-2.875-5.303-.124-.114-.201-.283-.283-.435-.996-1.837-1.993-3.673-2.983-5.514-.635-1.181-1.272-2.354-2.43-3.134a2.036 2.036 0 01-.606-.62c-.814-1.368-1.98-2.418-3.077-3.54-.704-.718-1.456-1.307-2.362-1.746-1.138-.551-2.247-1.171-3.186-1.96.374-.864.783-1.63 1.043-2.442.69-2.154 1.329-4.324 1.96-6.496.29-.995-.426-1.85-1.474-1.86a3.042 3.042 0 00-1.802.566c-.612.432-1.176.944-1.708 1.473-.535.532-1.007 1.127-1.501 1.699-.325.375-.732.53-1.223.57a88.44 88.44 0 00-3.813.37c-1.232.153-2.453.133-3.622-.27-1.347-.464-2.72-.582-4.124-.553-1.046.02-2.094.054-3.14.043-.695-.008-1.415.017-2.08-.148-1.758-.44-3.462-.195-5.168.222-2.255.549-4.502 1.128-6.762 1.656-2.812.656-5.37 1.878-7.738 3.49-1.16.789-2.332 1.513-3.648 2.014-.756.289-1.552.567-2.2 1.032-1.51 1.082-2.933 2.28-4.403 3.419-.732.568-1.485 1.108-2.232 1.657-.607.446-1.317.797-1.811 1.344-1.986 2.2-3.93 4.44-5.327 7.09-.405.767-.876 1.5-1.334 2.239-.518.836-1.112 1.629-1.575 2.493-1.044 1.954-1.738 4.043-2.41 6.154a19.647 19.647 0 00-.924 5.126 241.941 241.941 0 00-.217 6.97c-.036 2.269-.17 4.553.038 6.803.22 2.385.21 4.759.215 7.14.004 1.397.022 2.783.272 4.17.184 1.025.294 2.087.25 3.124-.102 2.417.444 4.737.894 7.074.179.93.558 1.786 1.358 2.366.689.498 1.095 1.189 1.435 1.937.673 1.48 1.403 2.938 2.006 4.446.958 2.398 2.536 4.433 3.774 6.665.11.199.269.388.446.532 1.584 1.28 2.959 2.766 4.283 4.304.113.13.267.226.39.349.859.862 1.726 1.716 2.566 2.597.4.42.699.943 1.126 1.33 1.305 1.182 2.475 2.448 3.057 4.158.055.16.174.302.278.442 1.837 2.472 3.594 5.008 5.766 7.21 2.142 2.173 4.713 3.759 7.322 5.286.198.116.436.162.65.249.277.113.549.235.846.362-.786.575-1.585.989-2.158 1.61-1.548 1.682-3.412 2.986-5.145 4.44-.95.797-1.842 1.619-2.502 2.64-.89 1.38-1.98 2.576-3.06 3.794a7.33 7.33 0 00-1.154 1.728c-1.228 2.632-2.401 5.288-3.598 7.934-.593 1.309-1.195 2.615-1.77 3.872-1.628 0-3.14-.041-4.646.01-1.583.055-3.14-.187-4.663-.496-3.601-.731-7.267-.807-10.896-1.242-.767-.092-1.211.313-1.282 1.08-.048.52-.016 1.049-.062 1.569-.195 2.2-.376 4.4-.616 6.596-.337 3.069-1.235 6.029-1.805 9.052-.413 2.19-1.072 4.292-2.067 6.267-1.311 2.602-2.455 5.259-3.226 8.07-.015.057-.03.114-.047.169-.22.727-.552 1.388-.967 2.034-.434.675-.77 1.433-1.03 2.195-.28.822.059 1.359.894 1.579 1.29.34 2.587.657 3.884.97 1.184.288 2.36.653 3.562.813 1.915.253 3.756.713 5.552 1.42.803.317 1.662.532 2.515.667 1.259.198 2.54.253 3.805.425 1.495.204 2.996.399 4.469.719 3.289.715 6.552 1.553 9.846 2.243 1.872.393 3.743.799 5.673.929 1.05.07 2.212.08 3.21.813.022 1.113.026 2.213.069 3.312.052 1.335 0 2.693.234 3.998.648 3.624.84 7.287.843 10.94.002 3.268.436 6.49.577 9.74.068 1.568.182 3.134.298 4.7.2 2.724.414 5.447.632 8.17.056.694.12 1.39.234 2.077a132.43 132.43 0 011.484 13.335c.179 2.899.245 5.805.364 8.708.026.639.04 1.28.095 1.917.196 2.315.444 4.627.6 6.945.193 2.842.326 5.689.46 8.534.236 4.995.575 9.985.588 14.989.006 2.035.048 4.07.114 6.104.043 1.335.174 2.667.234 4 .046.988.055 1.978.056 2.966 0 .987.047 1.982-.061 2.958-.226 2.04-1.001 3.817-2.777 5.012a56.59 56.59 0 01-1.911 1.215c-1.187.732-2.408 1.413-3.562 2.193a12.195 12.195 0 00-3.593 3.748c-.445.727-.341 1.33.345 1.833.508.372 1.102.63 1.673.91 1.335.653 2.82.69 4.243.88 2.246.299 4.525.419 6.77-.091 1.583-.36 3.146-.813 4.733-1.15a6.305 6.305 0 003.298-1.832 22.333 22.333 0 001.7-1.985c.578-.754.912-1.602.83-2.593a7.197 7.197 0 01.063-1.565c.322-2.36.668-4.717 1.009-7.074.125-.863.336-1.72.379-2.587.158-3.136.297-6.274.374-9.413.073-3.023.037-6.05.095-9.072.042-2.15.229-4.297.23-6.446.005-7.503.059-15.004.542-22.495.07-1.102.078-2.226.317-3.294 1.07-4.791 1.298-9.672 1.663-14.54.252-3.361.454-6.726.734-10.085.086-1.037.34-2.061.543-3.085.466-2.344 1.203-4.61 2.01-6.853.393-1.091.753-2.211 1.3-3.225 1.103-2.04 1.038-1.863 2.945-1.451.22.048.439.105.644.155.89 2.103 1.36 4.255 1.596 6.453.35 3.294.71 6.582 1.265 9.853.408 2.402.609 4.844.812 7.276.218 2.607.32 5.223.494 7.834.082 1.217.202 2.432.329 3.646.296 2.83.627 5.658.904 8.49.175 1.792.378 3.59.39 5.386.02 3.263.439 6.496.615 9.747.04.75.193 1.498.327 2.24.556 3.087 1.176 6.162 1.677 9.257.605 3.73 1.016 7.485 1.235 11.26.037.637.122 1.272.205 1.905.4 3.053.836 6.102 1.2 9.159.283 2.366.46 4.744.722 7.113.089.805.25 1.609.459 2.392.242.914.695 1.76 1.472 2.314 1.134.808 2.289 1.61 3.52 2.249a7.263 7.263 0 002.658.769 36.86 36.86 0 005.05.112c2.372-.122 4.766-.21 7.029-1.083a.883.883 0 01.343-.051c1.35.069 2.45-.672 3.608-1.173 1.087-.47 1.512-1.492 1.233-2.598a2.413 2.413 0 00-1.258-1.597c-.566-.291-1.155-.564-1.763-.744-1.917-.57-3.641-1.503-5.273-2.636-.378-.263-.783-.541-1.218-.656-.771-.204-1.115-.736-1.434-1.391-.362-.745-.615-1.487-.636-2.328-.03-1.228-.271-2.424-.787-3.551-.693-1.514-.903-3.093-.828-4.756a64.09 64.09 0 00-.008-5.405c-.043-1.1-.33-2.188-.392-3.288-.186-3.31-.357-6.62-.447-9.932-.032-1.152.196-2.31.295-3.467.108-1.271.286-2.543.292-3.815.014-3.548-.051-7.095-.071-10.643-.003-.638-.008-1.29.105-1.912.5-2.754.576-5.55.882-8.321.115-1.04.235-2.08.324-3.122.158-1.853.212-3.72.459-5.56.39-2.896.378-5.801.375-8.707-.005-4.768-.06-9.537-.11-14.306-.047-4.536.103-9.074-.237-13.606-.078-1.037-.012-2.086-.012-3.173.29-.216.606-.467.938-.692.83-.562 1.253-1.338 1.279-2.34.006-.23.059-.461.069-.693.116-2.728.25-5.456.335-8.186.098-3.14.042-6.286.25-9.416.25-3.735.115-7.435-.38-11.135-.138-1.028-.322-2.066-.148-3.14 1.263-.73 2.17-1.792 2.899-2.986 1.026-1.681 1.969-3.413 2.939-5.127.114-.201.195-.424.259-.647.548-1.896 1.22-3.77 1.595-5.7.442-2.275.678-4.596.902-6.907.209-2.15.134-4.302-.555-6.383-.364-1.1-.792-2.178-1.151-3.28-.26-.794-.631-1.494-1.304-2.013-1.003-.773-1.57-1.851-2.053-2.982a7.217 7.217 0 01-.362-.981c-.231-.863-.731-1.552-1.261-2.26-1.491-1.993-3.551-3.498-4.827-5.678-.223-.38-.697-.607-1.02-.94-.48-.491-.926-1.014-1.393-1.53.242-.577.395-1.081.652-1.525 1.264-2.193 1.684-4.571 1.509-7.054-.081-1.155.306-2.02 1.137-2.764.385-.346.813-.698 1.055-1.14.61-1.118 1.27-2.243 1.657-3.447 1.084-3.371 2.18-6.744 2.835-10.236.213-1.141.432-2.281.635-3.424.244-1.37.498-2.737.7-4.112.178-1.205.343-2.416.416-3.631.069-1.158-.023-2.326.018-3.488.042-1.181-.091-2.311-.597-3.395-.191-.411-.277-.87-.45-1.435z"/><path fill="#fff" d="M130.319 131.899c.3.148.75.288 1.088.563.349.285.68.662.86 1.069.704 1.584 1.4 3.176 1.99 4.805.518 1.428-.134 2.359-1.638 2.56-.557.074-1.08-.041-1.403-.496a15.106 15.106 0 01-1.261-2.062 21.768 21.768 0 01-1.135-2.72c-.256-.76-.411-1.561-.535-2.356-.09-.565.147-.87.689-1.043.384-.123.786-.19 1.345-.32zm-31.623 18.926c.072.894-.251 1.589-.94 2.145-.522.422-1 .474-1.576.07-.676-.473-1.25-1.068-1.546-1.84a70.398 70.398 0 01-1.426-4.098c-.287-.918-.12-1.831.275-2.703.504-1.11 1.748-1.37 2.516-.445.51.615.922 1.34 1.243 2.076.462 1.059.826 2.162 1.18 3.264.157.489.187 1.019.274 1.53zm17.882 39.143c-1.301-.217-2.85-.432-4.38-.748-.795-.164-1.533-.533-2.008-1.272-.3-.465-.467-.942-.181-1.467.273-.502.796-.686 1.504-.545 1.648.327 3.303.746 4.988.573 2.32-.24 4.627.099 6.94.038 1.092-.03 2.04-.252 2.872-1.011.372-.34.87-.584 1.355-.751 1.409-.485 2.568-1.312 3.573-2.392.233-.25.508-.492.812-.635.243-.115.566-.128.84-.09.462.065.774.774.465 1.087-1.216 1.23-2.305 2.64-3.98 3.299-.93.366-1.784.797-2.53 1.479-.373.34-.867.578-1.342.774-1.558.644-3.173 1.097-4.853 1.276-1.268.136-2.54.24-4.075.385zm29.293-18.15c-.275.17-.515.31-.746.464-.723.48-1.393 1.083-2.177 1.42-1.142.49-2.121 1.147-3.034 1.979-.546.496-1.246.829-1.9 1.196-.503.282-1.015.14-1.5-.106-.448-.227-.64-.701-.466-1.171.19-.514.562-.848 1.02-1.142.583-.374 1.18-.762 1.657-1.255.708-.734 1.563-1.187 2.464-1.601.525-.241 1.105-.431 1.537-.793.989-.827 2.078-1.472 3.196-2.098.595-.332 1.196-.766 1.605-1.3 1.83-2.393 3.732-4.735 4.964-7.541.698-1.59.643-3.261-.511-4.528-.675-.741-1.426-1.276-2.534-1.338-1.148-.063-2.297-.335-3.418-.622-1.871-.48-3.773-.635-5.688-.757-.686-.044-1.398-.154-2.034-.4-1.731-.671-3.432-1.42-5.138-2.156-3.144-1.357-6.085-3.145-9.29-4.375a3.679 3.679 0 01-.764-.415c-2.008-1.395-4.025-2.78-5.318-4.948-.176-.295-.46-.523-.678-.794-.727-.905-1.458-1.807-2.165-2.728-.51-.663-.702-1.464-.833-2.267-.103-.636.286-1.266.806-1.378.533-.115.869.196 1.152.603.363.522.698 1.073 1.123 1.542 1.324 1.46 2.786 2.795 3.959 4.4.402.552.97 1.005 1.525 1.42 1.253.935 2.474 1.933 4.06 2.3.387.09.744.325 1.105.512a125.294 125.294 0 009.298 4.368c1.789.748 3.563 1.392 5.53 1.316l.969-.037c-.228-1.611-.406-3.107-.661-4.59-.137-.794-.384-1.573-.62-2.346-.203-.665-.494-1.302-.69-1.968-.803-2.726-1.356-5.521-2.466-8.162-.83-1.971-1.34-4.09-3.005-5.611-.203-.186-.286-.5-.431-.751-.231-.401-.431-.826-.71-1.191-1.787-2.344-3.224-4.962-5.43-6.983-.168-.155-.294-.361-.422-.554-1.434-2.163-3.194-3.961-5.566-5.115-.567-.276-1.056-.714-1.58-1.08-.381-.265-.766-.526-1.14-.803-.446-.331-.934-.417-1.481-.358-.93.098-1.834.26-2.677.69-.361.186-.732.39-1.122.469-1.39.283-2.641.913-3.837 1.604-1.517.877-3.11 1.242-4.83 1.205-.405-.008-.813.024-1.22.012-2.45-.075-4.7.54-6.806 1.804-.94.564-1.947 1.08-2.991 1.389-2.557.757-5.03 1.797-7.667 2.29a2.943 2.943 0 00-1.981 1.302c-.517.77-1.103 1.497-1.691 2.218-.365.448-.741.912-1.195 1.26-1.335 1.029-2.63 2.149-4.093 2.956-1.462.807-2.403 1.937-3.158 3.353-.49.918-1.131 1.753-1.676 2.642-.362.59-.78 1.176-.99 1.823-.751 2.32-1.462 4.652-1.747 7.094-.304 2.593-.722 5.172-1.013 7.766-.154 1.382-.196 2.783-.196 4.175 0 1.276.11 2.553.2 3.828.049.692.11 1.39.242 2.07.536 2.756 1.46 5.367 2.943 7.768.18.29.339.622.394.953.044.263.009.655-.158.815-.663.63-1.302 1.317-2.386 1.205-1.152-.12-2.308-.024-3.474.108-.538 1.105-.995 2.172-1.025 3.352a57.75 57.75 0 00.026 4.182c.044.928.248 1.85.784 2.644 1.282 1.9 2.947 3.256 5.267 3.695 1.483.28 1.744.609 1.817 2.063.062 1.219.05 2.449.217 3.654.415 3 1.245 5.904 2.276 8.747.195.538.483 1.062.82 1.525 1.196 1.643 2.4 3.28 3.66 4.875 2.092 2.649 4.222 5.268 7.237 6.962a.78.78 0 01.14.102c1.516 1.369 3.326 2.063 5.31 2.432 1.02.19 1.992.65 3.013.824 2.173.367 4.37.409 6.594.305.674-1.588 1.958-2.258 3.503-2.626 1.048-.25 2.06-.295 3.09.026 2.113.659 4.278 1.066 6.472 1.336.23.028.47.049.68.137.688.288 1.402.242 2.052.013 1.136-.4 2.279-.407 3.44-.28.969.105 1.823-.138 2.644-.661 1.419-.902 2.873-1.748 4.304-2.632.187-.116.379-.292.47-.486.422-.89.952-1.762 1.176-2.704.423-1.78 1.565-2.945 2.952-3.947 1.477-1.066 2.754-1.038 4.317.01.08.053.206.035.373.059.56-.617 1.127-1.26 1.494-2.07.789-1.745 1.573-3.486 2.01-5.368.223-.958.636-1.872.86-2.831.542-2.315 1.115-4.63 1.5-6.973.302-1.831.428-3.685.904-5.494.234-.887.25-1.841.286-2.768.04-1.043-.047-2.091-.004-3.134.059-1.432-.344-2.715-1.104-4.026z"/><path fill="#1a1818" d="M88.462 300.07c.622.129 1.18.252 1.742.359.912.175 1.823.463 2.738.48 1.656.03 3.229.409 4.773.914 1.41.462 2.82.47 4.285.484 2.555.024 5.1.148 7.642-.248.388-.06.81.055 1.21.127.75.134 1.482.108 2.246.014.969-.12 1.965-.025 2.949-.025.578 0 1.158.025 1.734-.012 2.144-.137 4.285-.34 6.432-.432 2.379-.103 4.76-.285 7.145-.087.339.029.689-.065 1.033-.111.689-.092 1.376-.263 2.066-.27a15.739 15.739 0 004.294-.63c.212-.062.442-.063.745-.103.026.513.072.97.069 1.426-.043 5.699-.03 11.4-.163 17.097-.113 4.83.272 9.65.208 14.475-.028 2.148-.147 4.296-.278 6.44a173.834 173.834 0 01-.515 6.608c-.284 2.832-.51 5.668-.84 8.497-.268 2.3-.193 4.642-.224 6.966-.024 1.802.006 3.606.043 5.408a29.107 29.107 0 01-.43 5.552c-.146.854-.25 1.732-.234 2.597.062 3.487.179 6.972.276 10.458.003.117.005.235.026.348.555 2.88.415 5.79.334 8.695-.052 1.826.179 3.59.954 5.269.368.798.52 1.658.555 2.539.07 1.865.815 3.486 1.81 5.02.33.509.726.913 1.313 1.084.799.232 1.424.764 2.127 1.163 1.41.8 2.883 1.49 4.335 2.216.345.172.708.308 1.089.473-.14.158-.201.3-.293.323-1.343.326-2.624.887-4.032.984-1.157.079-2.312.243-3.46.43-1.981.325-3.946.13-5.902-.163-.557-.084-1.105-.35-1.611-.62-.82-.436-1.588-.967-2.403-1.413-.662-.362-1.078-.867-1.174-1.62-.212-1.671-.438-3.34-.63-5.013a610.425 610.425 0 01-.821-7.628c-.327-3.238-.602-6.482-.95-9.717-.29-2.714-.6-5.43-.993-8.13-.42-2.871-.867-5.744-1.45-8.586-.502-2.456-.737-4.94-1.04-7.416-.516-4.211-.955-8.43-1.427-12.646-.491-4.386-1.1-8.76-1.321-13.172-.084-1.683-.154-3.368-.263-5.05-.281-4.293-.556-8.586-.882-12.875-.15-1.967-.417-3.926-.62-5.89-.223-2.158-1.103-4.144-1.613-6.227-.102-.417-.38-.728-.812-.833-.45-.11-.904-.22-1.362-.252-.637-.046-1.282.015-1.918-.035-1.383-.107-2.38.523-3.007 1.67-.696 1.27-1.38 2.567-1.873 3.923-.97 2.673-1.863 5.379-2.411 8.18-.211 1.082-.46 2.166-.551 3.26-.275 3.302-.464 6.609-.72 9.912-.298 3.88-.331 7.787-1.032 11.632-.104.57-.196 1.143-.31 1.71-.236 1.199-.425 2.397-.46 3.626-.081 3.019-.121 6.045-.371 9.053-.45 5.403-.091 10.81-.241 16.213-.075 2.73-.061 5.465-.122 8.198-.09 4.068-.221 8.135-.311 12.204-.047 2.159-.401 4.28-.721 6.407-.163 1.089-.226 2.193-.377 3.284a80.003 80.003 0 01-.586 3.604 2.54 2.54 0 01-.388.95c-.795 1.158-1.764 2.17-2.92 2.956-.506.346-1.173.473-1.781.65-.835.245-1.682.443-2.524.662-2.608.678-5.234 1.043-7.921.497-.396-.081-.808-.088-1.214-.12a4.537 4.537 0 01-1.727-.49 6.853 6.853 0 012.05-1.974c1.086-.676 2.2-1.306 3.273-2.001a76.385 76.385 0 003.299-2.264c1.075-.78 1.683-1.896 2.112-3.13.679-1.953.907-3.972.72-6.015-.216-2.37-.341-4.754-.971-7.075-.18-.663-.185-1.383-.206-2.08-.087-2.904-.178-5.81-.217-8.716-.06-4.478-.288-8.947-.602-13.413-.037-.522-.085-1.045-.087-1.568-.01-3.55-.454-7.073-.68-10.61-.034-.522-.085-1.046-.072-1.568.07-3.026-.157-6.041-.337-9.058a931.79 931.79 0 00-.645-9.736c-.253-3.595-.525-7.19-.786-10.783l-.705-9.74a9.31 9.31 0 00-.091-.866c-.326-1.953-.47-3.915-.52-5.898-.071-2.84-.303-5.675-.48-8.728z"/><path fill="#fff" d="M113.884 234.969c3.034.698 5.794 2.034 8.949 2.27-.066.373-.074.71-.188 1.007-.542 1.409-.995 2.869-1.707 4.189-.711 1.319-1.606 2.565-2.575 3.712-1.388 1.64-2.792 3.254-4.043 5.013-.69.97-1.735 1.698-2.65 2.5a85.636 85.636 0 01-3.071 2.573c-.446.355-.93.713-1.456.908-1.538.567-2.97 1.325-4.328 2.225-1.471.974-3.018 1.705-4.805 1.918-.675.08-1.341.379-1.97.67-1.022.473-2.081.679-3.202.71-1.625.047-3.257.076-4.873.245-3.24.337-6.224-.463-9.088-1.87-.35-.171-.703-.441-.921-.757-.89-1.29-1.78-2.582-2.565-3.935-.561-.966-.702-2.09-.731-3.203-.072-2.8.203-5.576.679-8.33.108-.622.33-1.24.59-1.818a764.154 764.154 0 014.775-10.461c.262-.562.705-1.065 1.15-1.51a17.695 17.695 0 002.503-3.12c.652-1.037 1.495-1.89 2.47-2.665 1.817-1.445 3.516-3.036 5.277-4.553.346-.298.74-.545 1.127-.793.822-.527 1.653-1.04 2.6-1.631 2.74.669 5.677.892 8.684.636.232.39.427.736.639 1.07.562.889 1.135 1.769 2.126 2.252.46.224.668.605.77 1.09.236 1.136.482 2.27.755 3.399.123.506.214 1.07.505 1.476.962 1.34 1.49 2.879 2.136 4.366.137.317.336.607.556.995-.237.287-.452.629-.741.886-1.211 1.077-2.3 2.306-3.803 3.025-.354.169-.624.514-.932.779-.308.265-.577.606-.93.785-1.153.585-2.12 1.42-3.116 2.219-.98.784-2.11 1.25-3.348 1.346-1.296.1-2.501.484-3.706.919a6.2 6.2 0 01-1.345.312c-1.31.159-2.277-.487-2.58-1.76a5.315 5.315 0 01-.113-1.556c.18-2.733 1.187-5.187 2.627-7.48.179-.283.44-.58.736-.713.902-.408 1.444-1.145 1.957-1.927.415-.631.854-1.25 1.232-1.901a2.37 2.37 0 00.296-.975c.037-.461-.594-.895-.978-.667a8.504 8.504 0 00-1.382 1.036c-.426.392-.778.864-1.176 1.287-.238.253-.462.572-.761.704-1.795.79-2.62 2.414-3.46 4.005a19.227 19.227 0 00-1.247 2.876c-.61 1.837-.85 3.737-.576 5.669.298 2.107 2.414 4.047 4.295 4.308 1.166.163 2.316-.077 3.404-.478 1.043-.384 2.079-.681 3.198-.775 1.729-.146 3.21-.934 4.554-2.011.949-.762 1.93-1.484 2.892-2.231.366-.285.753-.556 1.066-.894a9.204 9.204 0 011.88-1.533c.582-.366 1.08-.877 1.57-1.366.82-.817 1.605-1.668 2.369-2.467z"/><path fill="#fff" d="M44.482 278.567c.015-.111.002-.188.034-.223 1.314-1.4 1.854-3.205 2.447-4.944.623-1.826 1.495-3.527 2.316-5.251 1.28-2.691 2.27-5.454 2.743-8.406.238-1.488.656-2.946.938-4.428.6-3.15.712-6.348.937-9.535.037-.513.072-1.026.112-1.604.908-.257 1.773-.152 2.623-.066 2.714.274 5.413.654 8.094 1.178 1.073.209 2.193.205 3.294.233 1.219.03 2.44-.023 3.66-.018.338 0 .674.08 1.02.125-.133 2.036-.308 4-.372 5.968a17.9 17.9 0 00.198 3.295c.202 1.32.613 2.567 1.53 3.637.674.786 1.156 1.737 1.723 2.614.578.895 1.263 1.662 2.304 2.04.206.076.379.245.549.358-.557 2.43-.003 4.398 2.086 5.79-.596 2.748 1.05 4.337 2.94 5.82.122.713.182 1.46.385 2.168.332 1.159 1.032 2.074 2.115 2.652 1.292.689 2.618 1.25 4.138 1.15.506-.032 1.019.045 1.612.076-.393 1.24-.785 2.378-1.11 3.533-.328 1.164-.24 2.418-.677 3.635-1.265-.226-2.411-.643-3.507-1.135-1.195-.535-2.442-.84-3.707-.875-2.69-.076-5.286-.661-7.891-1.22-3.12-.67-6.218-1.441-9.353-2.024-2.336-.434-4.716-.622-7.072-.957-.683-.097-1.38-.243-2.015-.501-2.006-.814-4.088-1.257-6.221-1.6a35.31 35.31 0 01-5.873-1.485z"/><path fill="#e0e1e3" d="M122.378 102.783c-.44 1.252-.882 2.502-1.317 3.756a1.156 1.156 0 01-.857.787c-.45.113-.9.244-1.357.293-1.107.117-2.132.47-3.18.845-2.135.764-4.19 1.695-6.246 2.638-.505.232-1.124.26-1.696.294-.753.044-1.512.02-2.267-.01-2.756-.107-5.293.602-7.634 2.032-1.2.732-2.478 1.249-3.83 1.636-1.504.43-2.975.982-4.476 1.432-.83.25-1.69.408-2.538.595-1.004.22-1.82.709-2.434 1.555a31.996 31.996 0 01-1.626 2.047c-.414.482-.838.98-1.343 1.356-1.537 1.14-3.042 2.32-4.74 3.245-1.241.675-2.126 1.8-2.81 3.033-.706 1.27-1.4 2.532-2.283 3.7-.55.726-.937 1.616-1.23 2.489-.792 2.369-1.463 4.773-1.773 7.267-.331 2.65-.722 5.293-1.073 7.94-.077.577-.158 1.162-.14 1.739.09 2.73.154 5.464.346 8.187.156 2.227 1.006 4.287 1.84 6.335.213.524.42 1.05.636 1.585-.634.456-1.284.43-1.913.427-1.621-.01-2.556.849-3.128 2.293-.76 1.919-1.156 3.899-1.098 5.955.035 1.219.15 2.438.282 3.65.149 1.376.824 2.53 1.663 3.593 1.556 1.972 3.538 3.318 5.988 4.02.48 1.212.19 2.53.456 3.774.263 1.24.555 2.473.848 3.773-1.158-.561-1.933-1.421-2.603-2.371-.543-.771-1.128-1.47-1.953-1.957-.673-.396-1.08-1.037-1.458-1.702-.748-1.312-1.528-2.606-2.274-3.92-.286-.503-.525-1.034-.767-1.56-.873-1.9-1.736-3.804-2.607-5.704-.32-.696-.74-1.324-1.353-1.794-.535-.411-.843-.927-.964-1.594-.352-1.942-.796-3.861-.82-5.86-.016-1.563-.254-3.123-.36-4.687a46.18 46.18 0 01-.108-3.135c.002-2.382.042-4.754-.237-7.14-.215-1.835-.082-3.717-.051-5.578.04-2.442.168-4.882.195-7.324.028-2.48.635-4.834 1.497-7.124.57-1.52 1.274-2.99 1.936-4.475.14-.315.304-.653.548-.884.954-.904 1.464-2.08 2.074-3.201 1.315-2.42 3.145-4.456 4.949-6.507a1.89 1.89 0 01.536-.442c2.57-1.308 4.496-3.481 6.842-5.092.677-.465 1.336-.918 2.109-1.193 1.545-.55 2.933-1.357 4.265-2.324 2.086-1.515 4.424-2.545 6.936-3.163 2.254-.555 4.502-1.138 6.762-1.666 1.53-.358 3.068-.556 4.654-.202.778.173 1.614.149 2.42.12 2.446-.088 4.88-.142 7.249.656 1.242.419 2.529.283 3.803.164.98-.091 1.96-.3 2.94-.303 1.565-.007 2.834-.511 3.783-1.783.2-.27.479-.48.722-.718z"/><path fill="#fff" d="M110.773 270.968c.173-3.077.046-6.01-1.011-8.921.26-.1.455-.235.649-.236 2.462-.008 4.85-.481 7.206-1.138 1.802-.502 3.652-.708 5.5-.841 1.886-.136 3.68-.442 5.304-1.484.433-.278.935-.477 1.43-.626 2.096-.631 3.674-1.971 4.986-3.645.604-.77 1.216-1.551 1.555-2.507.127-.357.458-.645.71-.951.33-.4.787-.733.996-1.184 1.83-3.956 3.009-8.056 2.397-12.477-.191-1.377-.54-2.731-.811-4.097-.282-1.424-1.328-2.266-2.363-3.116-.13-.107-.313-.217-.468-.213-.27.008-.626.02-.778.186-.152.166-.216.583-.111.78.267.502.588 1.01 1.003 1.392.546.502.856 1.09 1.002 1.785.264 1.249.595 2.493.74 3.756.268 2.326.118 4.639-.627 6.88-.347 1.044-.79 2.057-1.114 3.108-.283.919-.685 1.71-1.524 2.244-.184.117-.322.339-.428.54-1.142 2.176-3.09 3.406-5.217 4.396-.826.384-1.688.72-2.645.929-.08-.31-.148-.523-.188-.742-.207-1.14-.36-2.293-.62-3.422-.376-1.642-.812-3.267-.934-4.96-.138-1.928-.851-3.73-1.386-5.562-.16-.545-.264-.976-.022-1.474.2-.415.39-.836.61-1.24.22-.404.47-.79.75-1.254 1.3-.394 2.699-.775 4.067-1.246a5.963 5.963 0 002.467-1.593c1.074-1.158 2.06-2.368 2.478-3.943 1.88-.961 3.227-2.451 4.479-4.087.944-1.233 1.293-2.571 1.268-4.064-.003-.172-.076-.342-.081-.515-.003-.085.075-.173.156-.343.165.203.328.359.439.546.475.809 1.135 1.424 1.815 2.07 1.248 1.189 2.469 2.439 3.075 4.156.365 1.033.912 2.009 1.442 2.974.245.448.588.884.988 1.195.678.528 1.076 1.18 1.327 1.986.206.662.543 1.28.797 1.93.822 2.102.967 4.277.784 6.514-.295 3.6-.767 7.158-1.905 10.606a14.782 14.782 0 01-1.381 2.987c-.866 1.45-1.791 2.85-2.862 4.15a8.616 8.616 0 01-1.52 1.409c-1.351 1.003-2.728 1.962-4.357 2.509-.593.2-1.134.588-1.662.946-2.787 1.89-5.974 2.816-9.15 3.726-1.096.315-2.304.27-3.464.328-3.544.18-7.048.72-10.561 1.179-.742.096-1.46.378-2.194.549-.317.073-.65.08-1.036.125z"/><path fill="#fff" d="M137.838 205.64c1.662 1.729 1.516 3.558 1.123 5.429-.487 2.319-1.905 4.08-3.496 5.717-.346.355-.896.515-1.356.757-.513.269-1.054.49-1.538.802-.441.285-.564.908-.372 1.408.185.479.708.779 1.28.67.337-.063.663-.203.982-.336.695-.29 1.383-.596 2.172-.94.14.34.312.629.38.94.546 2.479-.712 4.248-2.38 5.813-.498.469-1.12.824-1.721 1.165-.658.372-1.006.852-1.114 1.633-.332 2.399-1.657 4.019-4.007 4.734-1.164.354-2.341.668-3.504 1.028a5.106 5.106 0 01-2.923.042 193.395 193.395 0 01-5.85-1.688c-1.027-.318-1.86-.933-2.35-1.946-.175-.364-.43-.69-.632-1.042-.761-1.327-1.246-2.723-1.292-4.282-.03-.98-.236-1.955-.373-2.93-.095-.68-.466-1.174-1.054-1.515-.151-.087-.294-.19-.45-.27-1.935-.991-2.334-2.713-2.308-4.645.589-.585 1.259-.728 1.964-.765 1.377-.071 2.718.198 3.78 1.058 2.637 2.133 5.549 2.102 8.582 1.269.79-.218 1.548-.411 2.382-.392a5.839 5.839 0 003.6-1.108c.946-.677 1.896-1.347 2.842-2.021.33-.236.63-.61.995-.688 1.073-.23 1.427-1.02 1.843-1.89.527-1.104.994-2.216 1.362-3.385.368-1.165 1.31-1.898 2.324-2.484.312-.18.772-.102 1.109-.137zm-31.7 54.613c1.269 2.244 2.272 4.435 2.246 6.97-.008.754.052 1.509.086 2.263.03.696.152 1.414-.53 1.912a.257.257 0 00-.095.143c-.316 1.61-1.641 2.462-2.68 3.52-.225.229-.58.436-.89.46-2.003.158-3.816.937-5.654 1.647-.865.333-1.742.636-2.603.98a8 8 0 01-2.882.585c-.987.014-1.973.07-2.96.1-1.082.03-2.063-.343-2.974-.864-.845-.484-1.323-1.243-1.396-2.372.696-.007 1.316.007 1.934-.025.982-.052 1.989-.024 2.859-.6.238-.158.55-.325.637-.558.108-.292.107-.696-.017-.977-.09-.205-.442-.37-.698-.406-.266-.037-.574.062-.834.17-1.52.638-3.078.426-4.631.215-.737-.1-1.24-.615-1.672-1.171-.5-.641-.984-1.304-.793-2.194 1.072-.413 2.279-.506 3.557-.347.86.107 1.733.219 2.596.192.622-.02 1.255-.212 1.847-.427.582-.212.819-.752.678-1.251-.128-.45-.484-.721-1.056-.726-2.087-.021-4.174-.025-6.262-.034-.29-.001-.581.027-.87.008-1.776-.111-2.537-1.044-2.452-3.042.155-.011.335-.075.47-.023 2.339.888 4.756.935 7.208.749a44.958 44.958 0 014.004-.132c1.596.02 3.109-.232 4.565-.91.569-.265 1.202-.433 1.824-.534 1.984-.322 3.783-1.071 5.453-2.175.62-.411 1.29-.748 1.985-1.146z"/><path fill="#313133" d="M115.12 254.094l6.885-9.613c.413.028.412.299.469.504.077.278.155.564.17.85.126 2.209.652 4.34 1.172 6.478.326 1.345.502 2.725.765 4.197-.48.134-.9.322-1.333.36-2.423.223-4.826.548-7.175 1.205-.273.077-.57.07-.952.114z"/><path fill="#fff" d="M112.584 256.187v2.466c-.921.582-1.845.328-2.86.416.168-.811.772-1.11 1.189-1.526.439-.437.963-.79 1.67-1.356z"/><path d="M116.578 189.968c-1.301-.217-2.85-.432-4.38-.748-.795-.164-1.533-.533-2.008-1.272-.3-.465-.467-.942-.181-1.467.273-.502.796-.686 1.504-.545 1.648.327 3.303.746 4.988.573 2.32-.24 4.627.099 6.94.038 1.092-.03 2.04-.252 2.872-1.011.372-.34.87-.584 1.355-.751 1.409-.485 2.568-1.312 3.573-2.392.233-.25.508-.492.812-.635.243-.115.566-.128.84-.09.462.065.774.774.465 1.087-1.216 1.23-2.305 2.64-3.98 3.299-.93.366-1.784.797-2.53 1.479-.373.34-.867.578-1.342.774-1.558.644-3.173 1.097-4.853 1.276-1.268.136-2.54.24-4.075.385zm-17.882-39.143c.072.894-.251 1.589-.94 2.145-.522.422-1 .474-1.576.07-.676-.473-1.25-1.068-1.546-1.84a70.388 70.388 0 01-1.426-4.098c-.287-.918-.12-1.831.275-2.703.504-1.11 1.748-1.37 2.516-.445.51.615.922 1.34 1.243 2.076.462 1.059.826 2.162 1.18 3.264.157.489.187 1.019.274 1.53zm31.623-18.926c.3.148.75.288 1.088.563.349.285.68.662.86 1.069.704 1.584 1.4 3.176 1.99 4.805.518 1.428-.134 2.359-1.638 2.56-.557.074-1.08-.041-1.403-.496a15.105 15.105 0 01-1.261-2.062 21.768 21.768 0 01-1.135-2.72c-.256-.76-.411-1.561-.535-2.356-.09-.565.147-.87.689-1.043.384-.123.786-.19 1.345-.32zm92.928 47.447c-.133.39-.426.436-.708.357-1.506-.418-2.521-1.466-2.95-2.881-.448-1.48-.645-3.053.153-4.943.89 2.84 1.685 5.419 3.505 7.467zm3.469-14.328c.174 4.265.407 8.558 3.065 12.227-.756 1.244-.986 1.36-2.164 1.019-.5-.144-.993-.318-1.48-.505a2.813 2.813 0 01-1.43-1.217c-1.598-2.666-2.557-5.455-1.75-8.615.19-.743.449-1.424.945-2.025.73-.886 1.576-1.335 2.814-.884zm79.133 62.384zm0 0c1.812.259 3.41.515 5.018.709 1.607.193 3.22.325 5.038.505 0 0 .202.142.297.335.303.613 1.136 1.018.979 1.764-.123.583-.62 1.08-.913 1.637-.27.51-.534 1.033-.715 1.579-.251.756-.755 1.3-1.335 1.785-.644.539-1.332.789-2.236.597-1.467-.312-2.967-.464-4.607-.706-.38-.262-.513-.848-.733-1.372-.45-1.068-.84-2.161-1.312-3.218-.438-.981-.38-1.907.116-2.834.133-.25.26-.503.403-.781zm-74.72-66.361c.609-.098 1.288-.241 1.974-.31.76-.077 1.35.226 1.706.934.518 1.03 1.045 2.058 1.636 3.22-.214.324-.522.733-.77 1.175-.857 1.534-1.212 3.127-.48 4.824.405.935.947 1.723 1.99 2.045.267.082.5.27.674.367 0 .889.057 1.703-.015 2.504-.09.987-.562 1.454-1.525 1.615-.696.116-1.371.064-2.016-.311-1.776-1.033-3.135-2.418-3.611-4.464-.38-1.634-.702-3.29-.907-4.953-.251-2.028.41-5.028 1.345-6.646zm10.9.337c-1.43.395-2.55 1.288-3.488 2.319-.48-.04-.471-.361-.562-.626-.501-1.472-.651-3.085-1.74-4.243.255-1.188.086-2.275-.1-3.361-.117-.686-.283-1.365-.364-2.055-.25-2.135-.83-4.203-1.328-6.281-.483-2.015-.687-3.987-.126-6.004.31-1.113.606-2.231.898-3.35.31-1.184 1.049-1.755 2.288-1.638.339.032.678.059 1.088.095.165.459.39.873.459 1.31.36 2.29.795 4.578.989 6.884.355 4.22.854 8.42 1.387 12.619.044.345.059.694.108 1.038.147 1.022.305 2.043.492 3.293zm-16.147 19.439zm0 0c1.176.065 2.277.644 3.447.35 1.125-.281 1.98-.933 2.635-1.976.382.178.743.333 1.092.512 1.992 1.025 3.958.817 5.824-.26 1.247-.72 1.756-1.976 1.882-3.368.056-.628.009-1.265.009-1.993.442-.047.773-.127 1.1-.11 1.09.059 2.043-.375 3-.797.786-.346 1.09-1.018 1.15-1.814.06-.818-.792-1.428-1.538-1.098-.476.21-.913.509-1.383.737-1.85.897-3.505.2-5.111-.69-.21-.115-.368-.471-.397-.732-.121-1.11.163-2.134 1.157-2.721a15.18 15.18 0 002.756-2.101c.576-.544 1.352-.896 2.079-1.251.277-.136.7-.134 1-.03 1.04.357 2.119.675 3.062 1.219.995.574 1.873 1.363 2.753 2.116.238.203.332.606.43.936.612 2.045.597 4.126.32 6.22-.273 2.07-1.06 3.91-2.397 5.518a15.473 15.473 0 00-1.133 1.549c-.913 1.424-2.243 2.328-3.716 3.066-.827.415-1.654.806-2.421 1.354-.534.382-1.284.594-1.95.627-1.081.054-2.19.272-3.26-.22-.505-.233-1.012.038-1.491.278-.567.284-1.148.547-1.74.772-1.687.639-3.115.1-4.257-1.146-.978-1.07-1.828-2.256-2.71-3.411-.326-.428-.405-.931-.192-1.536zm128.735 94.754c-.215-.06-.354-.058-.43-.126-1.536-1.372-3.487-1.782-5.376-2.333-.666-.194-1.344-.351-2.104-.548-.055-.392-.14-.778-.158-1.166-.13-2.611-.18-5.227-.387-7.831-.162-2.023-.525-4.03-.783-6.045-.154-1.21-.208-2.435-.432-3.631-.405-2.166-.887-4.317-1.366-6.468-.48-2.152-.996-4.296-1.487-6.445-.061-.271-.061-.556-.104-.978 1.755.67 3.267 1.489 4.72 2.412 1.173.745 2.302 1.562 3.454 2.343.336.227.665.478 1.029.65a8.625 8.625 0 012.765 2.078c.462.516 1.088.888 1.534 1.415 1.61 1.904 3.143 3.816 3.796 6.355.496 1.93.952 3.819.866 5.818-.025.579.033 1.162.057 1.742.073 1.748 0 3.489-.326 5.21-.34 1.79-.926 3.47-2.29 4.787-.541.523-1.02 1.113-1.54 1.66-.438.463-.925.864-1.438 1.1zm-12.972 20.637c-.5-.851-1.086-1.666-1.47-2.567-.384-.9-1.04-1.355-1.89-1.65-.492-.17-1.015-.266-1.483-.485-.651-.305-1.12-.775-1.256-1.556-.367-2.096-.025-3.93 1.762-5.303.413-.317.816-.654 1.18-1.024.878-.892 1.905-1.51 3.113-1.834.277-.074.565-.142.816-.275.618-.327.714-.863.287-1.445-.068-.093-.162-.167-.232-.26-1.075-1.397-.965-2.8.33-4.003.34-.316.697-.627 1.088-.872.914-.571 1.889-.864 2.982-.548.947.273 1.904.516 2.86.752 2.643.652 4.565 2.318 5.932 4.547a27.72 27.72 0 012.937 6.489c.592 1.962.314 3.919.115 5.883a.97.97 0 01-.202.465c-1.06 1.38-2.082 2.8-3.373 3.979-.95.866-2.001 1.575-3.324 1.8a8.273 8.273 0 00-1.833.544c-.937.396-1.895.528-2.398.483-2.912-.003-4.723-1.04-5.941-3.12zm-36.802-7.43c-.643-1.187-1.192-2.142-1.684-3.126-.778-1.556-1.506-3.138-2.28-4.697a15.979 15.979 0 00-1.034-1.808c-.71-1.056-1.032-2.205-.92-3.464.265-2.945.445-5.89 1.16-8.791.638-2.584 1.022-5.234 1.454-7.866.443-2.698 1.198-5.318 1.869-7.96.484-1.91 1.056-3.8 1.493-5.721.375-1.645.788-3.267 1.457-4.821.249-.58.387-1.206.59-1.86 2.057-.553 3.984.27 6.01.449.037.529.057.927.094 1.324.085.922.177 1.843.27 2.763.024.23.099.46.095.689-.063 3.139.514 6.24.464 9.388-.076 4.703.024 9.409.094 14.113.052 3.487-.074 6.967-.244 10.448-.06 1.196-.61 2.1-1.408 2.894-.907.899-1.863 1.749-2.774 2.644-.454.447-.865.939-1.282 1.42-1.095 1.267-2.184 2.54-3.424 3.983zm41.792-86.88zm0 0c-.09-.908.013-1.55.177-2.212.688-2.785.955-5.632.724-8.477-.188-2.307-.683-4.59-1.063-7.02 1.286-.63 2.172-1.872 3.23-2.92 1.387-1.373 2.289-3.045 2.454-5.046.033-.405.115-.807.135-1.213.073-1.448.157-2.897.182-4.346.018-1.045-.065-2.091-.076-3.137-.013-1.18-.244-2.285-.787-3.354a27.883 27.883 0 01-1.434-3.363c-.725-2.06-2.39-2.668-4.454-2.5-.287.024-.565.153-.852.178-1.731.149-2.923 1.013-3.57 2.629a.947.947 0 01-.2.275c-.032.035-.102.035-.263.083-.313-.56-.617-1.162-.977-1.73-.372-.587-.89-1.098-1.18-1.72-.341-.728-.53-1.533-.742-2.316-.274-1.01-.573-2.02-.733-3.05a8.772 8.772 0 01-.044-2.426c.332-2.59.742-5.17 1.12-7.753.333-2.27.234-4.545-.223-6.77-.452-2.2-1.51-4.126-3.27-5.616-.53-.447-.914-1.084-1.478-1.467-1.262-.86-2.243-2.008-3.355-3.02-.737-.672-1.63-1.101-2.59-1.393-1.163-.354-2.302-.794-3.477-1.103-1.074-.281-2.18-.341-3.26.06-1.52.567-3.063 1.083-4.56 1.709-1.068.446-2.091 1.009-3.105 1.572-1.44.799-2.906 1.426-4.6 1.46-.861.017-1.718.256-2.58.372-3.593.484-7.19.53-10.774-.034-2.026-.32-3.934-.994-5.65-2.15-1.01-.68-2.017-1.362-3.164-2.137-.061-.301-.235-.75-.228-1.196.022-1.393.113-2.785.177-4.178.053-1.15.398-2.162 1.348-2.894a.65.65 0 00.12-.125c1.328-1.797 3.258-2.714 5.219-3.594 1.753-.787 3.522-1.514 5.44-1.79.23-.033.459-.092.69-.107 3.245-.213 6.49-.42 9.735-.628.29-.018.587.003.869-.053 2.609-.515 5.203-.251 7.785.169 2.463.4 4.919.846 7.365 1.335.903.18 1.773.528 2.65.82 2.147.717 4.278 1.477 6.435 2.157 1.113.352 2.193.74 3.202 1.337.597.353 1.25.609 1.874.919.676.335 1.432.575 2.003 1.042 2.876 2.352 6.149 4.194 8.795 6.84.285.286.612.544.957.754a6.51 6.51 0 011.9 1.766c.239.326.493.699.83.883 1.1.598 1.618 1.624 2.16 2.659 1.212 2.319 2.417 4.64 3.042 7.205 1.06 4.354 1.955 8.732 1.96 13.242.005 3.082.074 6.167-.007 9.248-.09 3.433-.465 6.846-1.348 10.179-.72 2.715-.993 5.482-1.138 8.274-.072 1.393-.074 2.81-.355 4.166a27.001 27.001 0 01-1.438 4.652c-.697 1.716-1.476 3.412-2.666 4.88-.435.537-.716 1.196-1.092 1.783-.532.83-1.041 1.684-1.643 2.462-.82 1.058-1.684 2.076-2.185 3.34a2.08 2.08 0 01-.38.58c-.486.553-.987 1.093-1.637 1.808zm-26.403 210.41c.262-1.157.55-2.103.682-3.07.443-3.281.869-6.571.898-9.884.038-4.302-.018-8.605-.07-12.907-.022-1.801-.114-3.602-.22-5.4-.153-2.62.079-5.228.134-7.843.07-3.428.014-6.86.06-10.29.03-2.33-.207-4.641-.392-6.957a20.779 20.779 0 01-.057-1.916c.034-2.791.093-5.58.12-8.37.036-3.38-.245-6.74-.755-10.077-.201-1.317-.538-2.613-.804-3.921-.3-1.478-.591-2.96-.883-4.44-.7-3.54-1.52-7.044-3.365-10.202-.437-.747-.915-1.491-1.495-2.125-.788-.862-1.692-1.427-3.012-1.45-1.277-.022-2.53-.146-3.808.089-1.161.214-2.04.74-2.692 1.728-1.184 1.792-2.541 3.484-3.585 5.353-1.324 2.372-2.862 4.624-3.757 7.252-.596 1.75-1.421 3.423-1.794 5.258-.091.45-.33.868-.481 1.307-.34.985-.745 1.957-.982 2.967-.297 1.263-.797 2.418-1.436 3.534-.345.603-.73 1.209-.933 1.865-.925 2.994-2.106 5.902-2.946 8.926-.636 2.289-1.267 4.583-2.412 6.704-.463.858-.705 1.843-.99 2.787-.47 1.557-.92 3.12-1.326 4.695-.305 1.178-.648 2.366-.765 3.57-.242 2.516-1.065 4.872-1.806 7.252-.31.996-.74 1.955-1.108 2.933-.143.379-.286.76-.401 1.149-1.39 4.735-2.766 9.474-4.171 14.204-.23.776-.55 1.53-.89 2.267-.61 1.323-1.077 2.69-1.513 4.078-.75 2.38-1.556 4.742-2.35 7.108-.148.439-.295.896-.545 1.277-.21.319-.527.648-.871.779-.862.329-1.762.563-2.655.807-1.751.477-3.555.544-5.352.674-.867.063-1.732.159-2.598.245-.173.017-.345.08-.517.075-2.503-.066-4.983.294-7.477.406-.633.028-1.297.084-1.821-.548.135-.66.62-1.023 1.238-1.243.71-.254 1.443-.45 2.147-.72 1.137-.435 2.26-.908 3.385-1.374 1.07-.443 2.122-.941 3.21-1.336 2.004-.726 3.476-2.074 4.593-3.833 1.538-2.423 2.523-5.092 3.339-7.826.149-.5.237-1.017.336-1.53.24-1.254.417-2.52.938-3.708.185-.421.29-.886.369-1.342.372-2.135 1.097-4.147 2.007-6.106a26.548 26.548 0 001.54-4.253c.683-2.52 1.495-5.005 2.187-7.522.383-1.397.65-2.826.94-4.247.383-1.877.729-3.761 1.105-5.64.079-.397.184-.797.342-1.17.619-1.454.922-2.991 1.252-4.526.243-1.133.588-2.245.825-3.38.238-1.136.412-2.285.589-3.433.514-3.33 1.003-6.662 1.526-9.99.36-2.294.806-4.576 1.133-6.875.254-1.782.364-3.583.577-5.371.143-1.21.35-2.41.536-3.612.089-.574.273-1.144.282-1.718.043-2.845.425-5.677.28-8.533-.06-1.152.073-2.316.16-3.472.143-1.912.389-3.82.459-5.734.046-1.268-.145-2.545-.215-3.82-.024-.444-.004-.892-.004-1.353.723-.031 1.166.38 1.626.713 1.003.726 2.09 1.189 3.309 1.477 1.117.264 2.184.77 3.247 1.23 2.092.903 4.254 1.538 6.513 1.839 3.279.437 6.555.902 9.84 1.29 1.267.152 2.555.123 3.832.18 1.16.053 2.319.116 3.479.164.406.016.816.027 1.22-.01 3.587-.32 7.17-.654 10.68-1.525.732-.182 1.489-.253 2.229-.402 1.933-.388 3.869-.765 5.79-1.205.674-.154 1.315-.458 1.956-.73.91-.382 1.817-.762 2.916-.925 0 .246.046.46-.007.646-.76 2.68-1.532 5.357-2.301 8.035-.016.056-.013.12-.042.168-.833 1.348-1.085 2.929-1.746 4.342-1.417 3.027-2.227 6.215-2.715 9.508a519.833 519.833 0 01-1.626 10.15c-.347 2.06-.803 4.1-1.144 6.16a34.331 34.331 0 00-.385 3.637c-.228 3.945-.39 7.895-.636 11.839a25.919 25.919 0 01-.55 3.964 22.19 22.19 0 00-.513 4.843c.006 6.165.002 12.33-.014 18.495-.002 1.046-.09 2.09-.115 3.137-.024.986-.007 1.973-.032 2.96-.022.87-.007 1.749-.131 2.606-.452 3.123-.454 6.26-.372 9.4.034 1.278.09 2.56.242 3.828.13 1.09.385 2.166.628 3.239.237 1.047.928 1.71 1.912 2.1 1.133.448 2.24.967 3.396 1.345.874.286 1.809.383 2.71.594 1.013.236 2.017.507 2.99.754.17.957-.313 1.45-1.038 1.603-1.473.31-2.964.543-4.456.743a33.386 33.386 0 01-3.3.264 62.54 62.54 0 01-3.824-.005c-.87-.025-1.74-.124-2.608-.197-2.021-.17-3.756-1.063-4.895-2.475zm-1.197-183.977c.66-.094 1.172-.224 1.685-.23 1.894-.015 3.666-.558 5.42-1.188 1.42-.511 2.827-1.056 4.252-1.552 1.778-.62 3.42-1.456 4.768-2.802.12-.121.28-.204.456-.327 1.712.809 3.449 1.592 5.152 2.443 2.964 1.48 5.922 2.985 8.62 4.922 2.076 1.489 4.192 2.92 6.115 4.624 1.432 1.268 2.973 2.43 4.554 3.51 2.75 1.878 4.766 4.407 6.602 7.113.847 1.249 1.739 2.488 2.413 3.83.832 1.657 1.626 3.353 2.044 5.18.387 1.697.78 3.394 1.086 5.105.152.85.21 1.744.134 2.602-.138 1.56-.397 3.11-.626 4.662-.23 1.55-.505 3.093-.717 4.645a14.283 14.283 0 01-1.563 4.78 28.215 28.215 0 01-3.995 5.699c-.428.474-.83.972-1.232 1.469-1.007 1.247-2.316 2.07-3.784 2.789-1.47-2.826-2.636-5.733-4.575-8.332.53-.557 1.048-1.083 1.545-1.626.472-.515.9-1.07 1.387-1.57 1.747-1.796 2.423-4.044 2.795-6.438.413-2.661.293-5.333.265-8.008-.03-2.788-.941-5.362-1.796-7.954-.106-.323-.32-.622-.526-.9-.59-.791-1.132-1.634-1.82-2.332-1.59-1.61-3.113-3.302-5.07-4.504-.394-.243-.82-.467-1.147-.786-1.096-1.07-2.41-1.824-3.712-2.577-1.91-1.103-3.865-2.126-5.812-3.162-.405-.216-.858-.34-1.331-.52-.456-.981-.873-2.002-1.393-2.968-.881-1.637-1.826-3.24-2.747-4.855a3.677 3.677 0 00-.293-.431c-.274-.35-.65-.481-.895-.317-.351.236-.356.603-.26.935.144.5.34.988.559 1.46.679 1.479 1.428 2.927 2.06 4.425 1.084 2.564 2.242 5.098 2.792 7.862.454 2.277 1.046 4.528 1.578 6.79.039.169.067.345.133.505 1.046 2.503 1.27 5.174 1.638 7.82.384 2.766.745 5.53.946 8.315.138 1.908.363 3.81.56 5.826-1.271.084-2.488.339-3.497 1.225-1.021.897-1.902 1.846-2.266 3.218-.342 1.285-.36 2.515.274 3.623-1.328 1.108-2.585 2.127-3.808 3.185-2.044 1.768-2.526 4.097-2.246 6.646.204 1.859 1.234 3.08 3.057 3.6.389.11.775.232 1.147.344l2.238 4.006c-2.362.605-4.543 1.55-6.923 1.892-2.41.345-4.785.916-7.177 1.38-3.085.598-6.201 1.125-9.331 1.177-3.182.052-6.385.188-9.566-.358-2.29-.392-4.62-.534-6.922-.847-2.718-.368-5.346-1.053-7.815-2.305-.767-.39-1.624-.62-2.461-.845-.903-.245-1.754-.552-2.558-1.055-1.078-.675-2.222-1.246-3.335-1.866-.201-.112-.39-.245-.67-.421.096-2.468-.134-4.963.153-7.46.099-.863.156-1.741.134-2.61-.041-1.641.182-3.245.5-4.846.375-1.878.782-3.753 1.073-5.645.228-1.491.25-3.013.454-4.51.378-2.762.825-5.516 1.238-8.274.077-.516.126-1.036.193-1.554.157-1.21.296-2.42.48-3.625.263-1.721.624-3.43.829-5.157.48-4.041.803-8.102 1.366-12.131.37-2.64 1.048-5.237 1.59-7.852.084-.396.224-.785.267-1.184.054-.504-.274-.99-.694-1.085-.461-.105-.791.146-1.017.502-.184.29-.31.62-.436.943-.232.59-.447 1.189-.657 1.753-1.816.446-3.607.495-5.41.436-1.045-.034-2.095.016-3.138-.055-.808-.055-1.643-.132-2.401-.39-1.843-.624-3.753-.725-5.657-.932-2.022-.22-4.008-.621-5.94-1.3-.98-.343-2.017-.531-3.038-.741a11.226 11.226 0 01-3.098-1.101 17.375 17.375 0 00-3.207-1.321c-.638-.193-1.181-.44-1.656-.885-1.192-1.116-2.474-2.094-3.914-2.891-1.601-.887-2.854-2.197-3.82-3.747a34.383 34.383 0 00-3.212-4.337 4.962 4.962 0 01-.826-1.322c-.604-1.457-1.386-2.813-2.247-4.127a19.523 19.523 0 01-1.965-3.88c-.324-.866-.744-1.696-1.096-2.552-1.302-3.172-2.342-6.436-3.345-9.711-.341-1.11-.58-2.25-.89-3.473.672-.374 1.36-.776 2.068-1.14.195-.1.448-.101.676-.113.23-.012.465.016.697.033 1.792.126 3.582.226 5.382-.65.113.574.235 1.015.284 1.463.268 2.442.932 4.79 1.752 7.087.703 1.968 1.542 3.887 2.338 5.82.313.758.792 1.402 1.35 2.013 1.372 1.497 2.765 2.966 3.854 4.715.949 1.525 2.132 2.89 3.65 3.94.757.524 1.367 1.256 2.06 1.873.608.539 1.177 1.163 1.873 1.55 1.672.928 3.296 1.94 5.09 2.657 1.667.664 3.287 1.469 4.859 2.337a14.92 14.92 0 004.744 1.648c1.372.236 2.73.55 4.104.776 1.029.169 2.068.296 3.108.358 1.68.1 3.366.174 5.049.174.805 0 1.612-.185 2.416-.303 1.203-.176 2.415-.316 3.603-.565 1.068-.224 2.108-.575 3.314-.913.034.024.244.133.4.293 1.003 1.024 2.249 1.617 3.566 2.116 1.082.41 2.133.9 3.315 1.407-.287.535-.501.984-.76 1.407-.647 1.06-.81 2.166-.35 3.336.679 1.729 1.292 3.49 2.08 5.168.488 1.036.552 1.99.164 3.018-.185.489-.414.963-.572 1.459-.387 1.217-.815 2.427-1.101 3.668-.861 3.74-1.977 7.405-3.095 11.073-.387 1.27-.617 2.605-.774 3.927-.33 2.782-1.056 5.458-1.811 8.145-.836 2.976-1.194 6.038-1.137 9.143.026 1.402.606 2.607 1.332 3.724.575.886 1.003 1.828 1.466 2.764 1.21 2.446 2.426 4.892 3.727 7.29.898 1.655 1.897 1.772 3.384.565.135-.11.273-.222.387-.352 1.074-1.22 2.197-2.4 3.197-3.677 1.009-1.291 2.143-2.44 3.343-3.545.763-.703 1.457-1.49 2.129-2.282.459-.542.657-1.21.687-1.936.085-2.092.275-4.182.282-6.273.024-7.62-.005-15.24-.031-22.861-.003-.691-.122-1.382-.193-2.073-.018-.173-.082-.344-.08-.516.028-2.738-.477-5.437-.605-8.165-.037-.804.108-1.5.657-2.077.937-.984 1.637-2.095 2.042-3.401.098-.318.357-.595.574-.864 1.04-1.291 1.355-2.674.589-4.215-.048-.097-.047-.22-.102-.493zm-41.388-35.203c.83-.105 1.42.383 2.094.46.572.067 1.14.182 1.713.213.518.028.877-.273 1.073-.743.183-.438-.058-.784-.295-1.12-.462-.651-1.168-.94-1.868-1.226-1.88-.77-3.757-1.55-5.653-2.281-.614-.237-1.155-.528-1.581-1.03-.79-.926-1.57-1.863-2.38-2.771-.617-.691-1.207-1.433-1.934-1.992-1.062-.816-1.606-1.963-2.24-3.06-.297-.514-.331-1.106-.201-1.697.088-.397.23-.798.223-1.195-.018-1.011.535-1.63 1.334-2.078a7.64 7.64 0 011.432-.631c2.12-.663 4.159-1.481 5.938-2.854.227-.175.49-.32.756-.43 1.747-.721 3.2-1.876 4.617-3.09 1.81-1.551 3.624-3.098 5.44-4.64 1.479-1.254 2.503-2.903 3.783-4.33a27.68 27.68 0 001.54-1.89 31.9 31.9 0 001.492-2.142c.68-1.083 1.3-2.203 1.975-3.288.367-.59.417-1.212.25-1.843-.118-.452-.374-.868-.896-.973-.531-.107-.87.17-1.146.6-.408.634-.89 1.223-1.262 1.875-1.713 2.998-4.09 5.49-6.218 8.169-.645.81-1.443 1.509-2.227 2.194-1.84 1.607-3.706 3.18-5.571 4.754-.93.784-1.887 1.53-3.182 1.944-.087-.24-.226-.437-.22-.63.073-2.148.053-4.308.284-6.441.305-2.826.748-5.645 1.739-8.336.525-1.423.88-2.885 1.15-4.375.114-.627.218-1.282.483-1.85.722-1.548 1.07-3.19 1.342-4.851.204-1.24.708-2.336 1.447-3.322.669-.894 1.142-1.877 1.587-2.893.674-1.54 1.434-3.041 2.15-4.563.395-.841.769-1.692 1.16-2.535.119-.253.268-.491.447-.817.316.2.564.33.78.499 2.533 1.985 5.39 3.12 8.597 3.498 3.37.396 6.722.419 10.084-.011 1.38-.176 2.764-.328 4.145-.501a10.436 10.436 0 004.388-1.607c2.159-1.398 4.556-2.307 6.809-3.507.99-.527 1.988-.584 3.039-.36.623.134 1.24.293 1.863.436 1.66.38 2.984 1.266 3.936 2.678.362.537.76 1.008 1.305 1.377.326.22.568.57.837.872.347.389.656.817 1.03 1.177 1.729 1.659 2.53 3.7 2.643 6.068.104 2.219-.07 4.413-.428 6.599-.29 1.775-.612 3.546-.825 5.33a9.11 9.11 0 00.054 2.603c.328 1.89.808 3.75 1.549 5.529.222.534.425 1.107.778 1.55 1.354 1.703 2.166 3.7 3.136 5.61.297.585.623 1.109 1.23 1.416.804.405 1.683.01 1.896-.874.23-.957.442-1.917.68-2.872.069-.28.186-.55.3-.815.173-.4.482-.658.91-.734.684-.122 1.372-.316 2.103.008.514.396.54 1.087.808 1.654.42.89.698 1.88 1.264 2.662.683.944 1.028 1.96 1.14 3.059.23 2.255.422 4.516-.028 6.774-.157.79-.24 1.564-.603 2.334-.542 1.149-1.328 2.017-2.264 2.816-.592.506-1.196.822-2.02.855-1.143.045-1.503.559-1.38 1.728.048.457.136.938.333 1.347.41.855.572 1.763.727 2.678.232 1.375.463 2.75.662 4.13.066.458.062.932.037 1.394a126.497 126.497 0 01-.281 4.177c-.051.576-.126 1.173-.328 1.707-.616 1.626-1.304 3.225-1.955 4.839-.304.753-.662 1.496-.867 2.277-.825 3.153-2.497 5.864-4.36 8.474-.841 1.18-1.71 2.343-2.781 3.347-.502.47-.887 1.075-1.273 1.654-.937 1.405-2.2 2.386-3.771 2.968-2.122.786-4.234 1.608-6.39 2.289-1.207.38-2.487.56-3.747.736-1.61.226-3.233.358-4.851.526-.346.036-.7.113-1.04.077-2.712-.281-5.467-.22-8.12-.95-1.228-.337-2.423-.792-3.63-1.208-.382-.132-.738-.36-1.13-.455-1.401-.342-2.547-1.098-3.558-2.096-.206-.204-.414-.432-.667-.558-2.363-1.185-4.114-3.211-6.347-4.593-1.054-.652-1.891-1.71-2.704-2.684-.93-1.114-1.774-2.307-2.566-3.523-1.676-2.572-3.461-5.091-4.615-7.961-.693-1.724-1.278-3.49-1.917-5.236-.32-.872-.66-1.738-.973-2.612-.093-.257-.134-.534-.22-.887zm-31.97-6.2c2.55-1.248 4.17-3.354 5.748-5.54 1.494-2.066 2.574-4.258 2.877-6.818.303-2.564.323-5.101-.417-7.603-.355-1.197-.867-2.274-1.971-2.985-.437-.281-.804-.67-1.212-.997-.776-.623-1.602-1.12-2.597-1.367-1.164-.29-2.295-.713-3.388-1.061-.248-1.958-.488-3.8-.712-5.644-.281-2.31-.578-4.615-.815-6.928-.261-2.543-.425-5.097-.701-7.638-.17-1.56-.446-3.11-1.06-4.572-.324-.77-.767-1.545-1.581-1.768-1.586-.436-3.208-.46-4.773.185-.21.086-.394.247-.567.399-.618.545-1.157 1.152-1.39 1.968-.462 1.617-.988 3.22-1.351 4.86-.301 1.36-.406 2.763-.103 4.157.234 1.075.486 2.148.697 3.228.4 2.049.767 4.105 1.168 6.154.123.626.318 1.238.47 1.858.075.308.127.62.216 1.064-.724 0-1.302-.02-1.877.003-2.908.118-3.847.84-4.8 3.642-.107.316-.27.613-.416.943-.528-.04-.994-.04-1.447-.116-1.042-.178-1.958.096-2.777.723-1.228.939-2.193 2.074-2.597 3.609-.103.389-.21.777-.344 1.27-2.104.327-2.647 2.076-3.144 3.746-.517 1.737-.613 3.524-.19 5.343.598 2.569 2.936 5.019 5.455 5.528.393.079.795.109 1.136.154.897 1.876 2.164 3.406 3.433 4.91.903 1.072 2.07 1.866 3.513 2.135.39.073.77.21 1.237.34.112 2.395.609 4.71 1.363 6.973.496 1.488.966 2.984 1.469 4.469.618 1.824 1.346 3.588 2.703 5.023.314.332.532.76.766 1.16a201.477 201.477 0 011.732 3.024c.654 1.164 1.283 2.34 1.949 3.497.317.55.62 1.138 1.056 1.587 1.387 1.427 2.492 3.057 3.613 4.687 1.229 1.79 2.745 3.31 4.68 4.352 1.033.557 1.98 1.222 2.793 2.065.822.855 1.799 1.449 2.875 1.928.792.353 1.59.73 2.303 1.217 1.323.902 2.765 1.45 4.317 1.775.68.142 1.37.282 2.017.528 2.788 1.063 5.664 1.689 8.635 1.946.917.079 1.828.317 2.724.55 1.636.426 3.273.766 4.98.756 2.187-.012 4.375.19 6.637-.125-.02.338-.016.56-.046.78-.257 1.899-.538 3.795-.777 5.696-.646 5.13-1.13 10.284-2.234 15.348-.111.509-.125 1.038-.2 1.555-.124.86-.208 1.729-.4 2.574-.796 3.519-1.378 7.068-1.683 10.664-.063.75-.118 1.513-.298 2.24-1.123 4.537-1.482 9.167-1.697 13.81-.092 1.975-.02 3.956-.046 5.934-.014 1.013.12 1.958.765 2.799.193.25.284.634.296.96a66.988 66.988 0 01-.515 10.967c-.171 1.336-.277 2.659-.182 3.997.203 2.853-.332 5.682-.268 8.53.01.458-.155.917-.215 1.378-.165 1.265-.357 2.529-.462 3.799-.097 1.158-.031 2.33-.15 3.484-.231 2.254-.55 4.499-.813 6.75-.142 1.21-.201 2.432-.373 3.638-.41 2.875-.86 5.744-1.303 8.614-.15.975-.291 1.954-.5 2.917-.26 1.19-.61 2.36-.872 3.549-.301 1.36-.624 2.708-1.108 4.023-.38 1.03-.622 2.114-.892 3.183-.64 2.534-1.256 5.073-1.886 7.608-.042.168-.134.322-.185.489-.39 1.276-.77 2.556-1.165 3.83-.774 2.493-1.342 5.053-2.43 7.446-.964 2.119-1.81 4.279-2.198 6.594-.076.456-.257.893-.38 1.34-.29 1.064-.578 2.127-.856 3.193-.102.392-.142.802-.265 1.187-.864 2.716-1.881 5.365-3.453 7.769-.818 1.252-1.868 2.203-3.3 2.71a20.89 20.89 0 00-1.933.78c-1.785.846-3.567 1.682-5.467 2.258-.713.216-1.393.584-2.04.966-.874.517-1.47 1.316-1.873 2.239-.521 1.187-.284 2.148.732 2.93.892.689 1.884 1.148 3.05 1.106.813-.03 1.642.037 2.438-.096 1.56-.26 3.125-.251 4.694-.262.407-.003.814-.03 1.22-.06 1.564-.107 3.127-.284 4.694-.32 2.24-.048 4.366-.561 6.46-1.304.879-.311 1.504-.86 1.872-1.703.882-2.021 1.742-4.053 2.636-6.068.66-1.49 1.25-3 1.653-4.583a7.156 7.156 0 01.64-1.615c.78-1.441 1.302-2.977 1.772-4.537.352-1.168.709-2.336 1.103-3.49 1.03-3.023 2.093-6.037 2.86-9.143.112-.45.303-.878.448-1.32.888-2.702 1.79-5.4 2.645-8.113.189-.6.19-1.258.304-1.884.216-1.198.396-2.406.692-3.584.368-1.463.846-2.9 1.265-4.35.435-1.506.827-3.024 1.662-4.384.27-.44.425-.955.592-1.45 1.099-3.243 1.882-6.584 3.08-9.801.71-1.901 1.2-3.871 2.282-5.636.536-.874.82-1.916 1.137-2.907.405-1.27.73-2.565 1.089-3.85.202-.726.399-1.454.602-2.18.14-.503.218-1.038.444-1.5 1.168-2.393 1.934-4.948 3.42-7.23 1.422-2.182 2.89-4.346 4.219-6.593.44-.747 1.079-1.168 1.837-1.52.88-.41 1.807-.391 2.73-.453.448-.03.802.2 1.02.56.544.89 1.12 1.772 1.556 2.716.898 1.952 1.723 3.938 2.556 5.919.45 1.072.883 2.16.876 3.35-.014 2.236.592 4.37 1.05 6.526.5 2.336.899 4.697.965 7.072.114 4.126.04 8.257.039 12.385-.001 2.035-.015 4.07-.027 6.105-.017 3.024.042 6.05-.077 9.07-.16 4.066-.475 8.117-.313 12.199.216 5.459.29 10.928.282 16.393-.005 2.783-.283 5.57-.52 8.348-.152 1.785-.625 3.54-.487 5.354-.435 1.155.152 2.035.816 2.86 1.3 1.62 3.059 2.499 5.064 2.81 2.986.466 5.988.818 9.019.348.745-.116 1.504-.145 2.259-.185a26.528 26.528 0 005.328-.852c1.733-.453 3.085-2.482 2.84-4.27-.092-.663-.433-1.214-1.001-1.563a4.936 4.936 0 00-1.271-.546c-1.231-.337-2.476-.62-3.711-.942-.614-.16-1.23-.325-1.822-.548-.868-.326-1.701-.751-2.578-1.047-.612-.207-.956-.572-1.195-1.15-.457-1.104-.536-2.255-.514-3.423.03-1.627.062-3.255.118-4.882.056-1.626.014-3.27.244-4.873.47-3.292.51-6.61.692-9.914.172-3.132.076-6.28.084-9.42.009-3.49 0-6.98.002-10.47 0-1.107.122-2.19.354-3.283.324-1.532.607-3.095.676-4.654.196-4.413.57-8.822.41-13.248-.025-.693.014-1.401.123-2.086.785-4.934 1.64-9.857 2.384-14.797.564-3.751 1.3-7.438 3.019-10.862a4.93 4.93 0 00.355-.983c.487-1.913 1.032-3.816 1.417-5.75.409-2.06 1.012-4.054 1.668-6.04.105-.317.236-.626.379-1.002.778.3 1.452.668 2.17.81.73.146 1.507.11 2.26.085 2.656-.087 5.097-.977 7.435-2.143 1.496-.747 2.458-2.11 3.46-3.392.682-.872 1.333-1.76 1.46-2.921.03-.273.185-.55.339-.79.559-.868.67-1.84.723-2.835.03-.57-.137-1.168.106-1.547 1.34-.912 2.672-1.588 3.703-2.577 1.248-1.198 2.329-2.6 3.32-4.027 1.024-1.474 1.873-3.072 2.76-4.636 1.097-1.93 1.986-3.946 2.343-6.16.157-.974.273-1.956.457-2.926.393-2.068.433-4.161.464-6.251.04-2.705-.597-5.32-1.388-7.87-.72-2.32-1.575-4.588-2.85-6.71-1.531-2.551-3.203-4.991-5.093-7.273-.88-1.064-1.976-1.957-3.027-2.867-1.097-.951-2.306-1.775-3.377-2.752-1.634-1.49-3.244-2.994-5.107-4.207-1.85-1.205-3.617-2.538-5.505-3.676-2.986-1.8-6.116-3.334-9.314-4.73-.446-.193-1.068-.211-1.25-.94 1.48-1.788 2.956-3.645 4.002-5.81 1.035-2.14 2.179-4.226 3.333-6.446.79-.045 1.506-.53 2.072-1.212 1.884-2.275 4.054-4.332 5.373-7.043.2-.41.555-.743.83-1.118.55-.748 1.145-1.472 1.632-2.26.487-.79.796-1.691 1.307-2.461 1.2-1.808 2.012-3.8 2.84-5.781.832-1.987 1.484-4.04 1.694-6.198.146-1.505.19-3.02.355-4.522.209-1.905.34-3.837.779-5.693.657-2.79 1.1-5.574 1.09-8.444-.008-2.148.166-4.296.196-6.444a96.087 96.087 0 00-.068-5.757c-.162-3.483-.321-6.968-1.265-10.362-.403-1.451-.684-2.937-1.055-4.398-.562-2.21-1.563-4.248-2.538-6.293-.725-1.52-1.393-3.082-2.797-4.148a.997.997 0 01-.22-.27c-.698-1.098-1.66-1.933-2.677-2.72a10.414 10.414 0 01-1.042-.925c-1.724-1.75-3.71-3.161-5.745-4.514-.386-.257-.781-.515-1.117-.83-1.295-1.215-2.821-1.995-4.464-2.65-1.61-.64-3.045-1.7-4.793-2.03-.228-.042-.451-.112-.673-.18-1.22-.374-2.435-.764-3.66-1.123-1.613-.474-3.104-1.318-4.792-1.562-2.297-.332-4.591-.685-6.891-.994-1.21-.163-2.444-.17-3.64-.395-1.455-.275-2.891-.15-4.34-.055-1.041.069-2.083.14-3.125.205-.753.047-1.508.065-2.26.127-1.793.149-3.582.394-5.378.455-2.36.08-4.59.646-6.771 1.482-1.63.624-3.154 1.465-4.72 2.224-.868.422-1.602.874-2.172 1.633-.208.278-.422.575-.698.774-.92.664-1.278 1.634-1.503 2.667-.641 2.947-.721 5.874.447 8.754-.082.21-.162.427-.251.639-1.154 2.727-2.321 5.448-3.456 8.182-.426 1.026-.913 1.999-1.622 2.869-.664.813-1.115 1.756-1.487 2.745a47.034 47.034 0 01-1.553 3.69 14.933 14.933 0 00-1.16 3.46c-.315 1.536-.666 3.058-1.177 4.549a36.83 36.83 0 00-1.252 4.527c-.304 1.477-.425 2.992-.61 4.493a10.1 10.1 0 00-.052 1.219c0 2.209.01 4.419.008 6.628 0 .287-.048.573-.085.98-.552.249-1.118.528-1.701.764-1.021.413-2.073.753-3.074 1.208-2.043.928-3.354 2.442-3.58 4.758-.023.23-.053.467-.128.685-.382 1.108-.256 2.227.177 3.245.728 1.712 1.62 3.342 3.148 4.526.499.387.984.835 1.345 1.346.843 1.195 1.823 2.257 2.855 3.284.753.75 1.539 1.406 2.588 1.7.316.088.604.275.809.37.142.996.13 1.9.409 2.705 1.179 3.399 2.199 6.859 3.734 10.125.37.787.794 1.553 1.244 2.298a151.416 151.416 0 002.673 4.263c.216.332.563.58.859.858.76.714 1.534 1.415 2.29 2.135 1.68 1.602 3.278 3.302 5.324 4.47.75.43 1.432.949 2.076 1.705-.386.153-.637.276-.902.35-.277.078-.567.116-.853.158-.975.143-1.95.282-2.926.42-.574.08-1.146.2-1.722.222-2.915.113-5.807-.091-8.667-.696-1.023-.216-2.047-.45-3.083-.575-.941-.115-1.844-.358-2.656-.793-3.171-1.697-6.577-2.9-9.714-4.667-.817-.461-1.58-.961-2.241-1.633-.733-.745-1.453-1.534-2.304-2.124-1.531-1.062-2.533-2.53-3.532-4.037-.961-1.452-1.922-2.914-3.015-4.264-.746-.923-1.292-1.918-1.765-2.982-1.777-4-2.865-8.212-3.885-12.67z"/><path fill="#fff" d="M285.975 148.367c-.194 1.197-.375 2.397-.592 3.589-.061.338-.213.662-.352.98-.44 1.003-1.41 1.678-2.26 1.588-.818-.087-1.62-1.007-1.814-2.086-.31-1.705-.04-3.334.58-4.937.387-.998 1.21-1.558 2.034-2.061.916-.561 2.044.078 2.21 1.175.089.569.074 1.155.106 1.733l.088.019zm25.429 4.757c-.055-1.508.523-2.84 1.186-4.13.382-.741 1.17-.948 1.94-.64 1.27.51 2.377 1.618 2.249 3.38-.13 1.784-.516 3.556-1.325 5.195-.34.689-.858 1.065-1.65 1.056-1.007-.011-1.435-.29-1.834-1.277-.464-1.151-.512-2.371-.566-3.584zm10.95 40.587c.263.664.12 1.15-.117 1.63-.153.31-.444.646-.41.938.124 1.02-.488 1.748-.822 2.6-.54 1.38-1.428 2.514-2.266 3.695a275.223 275.223 0 00-3.374 4.86c-.758 1.12-1.635 2.094-2.814 2.79-.494.293-.942.672-1.377 1.05-1.985 1.728-4.264 2.782-6.895 3.014-.573.05-1.168.065-1.732-.03a123.52 123.52 0 01-4.783-.913c-1.202-.25-2.28-.781-3.348-1.4-2.421-1.401-4.327-3.28-5.738-5.681-.147-.25-.36-.47-.461-.735-.811-2.128-2.23-3.923-3.228-5.946-.153-.311-.311-.623-.426-.95-.174-.497 0-.936.39-1.241.33-.26.74-.348 1.145-.124.303.168.597.354.885.546.848.566 1.788.796 2.795.838 1.508.064 3.013.175 4.52.225.694.024 1.39-.06 2.085-.073 2.845-.054 5.69-.082 8.534-.152 2.56-.064 5.092-.407 7.55-1.12 2.28-.661 4.532-1.427 6.783-2.186.479-.161.923-.461 1.345-.753.52-.36.98-.817 1.76-.882zm-44.707-.583c.085.353.126.63.219.887.314.874.653 1.74.973 2.612.639 1.746 1.224 3.512 1.917 5.236 1.154 2.87 2.939 5.389 4.615 7.96.792 1.217 1.637 2.41 2.566 3.524.813.975 1.65 2.032 2.704 2.684 2.233 1.382 3.984 3.408 6.347 4.593.253.126.46.354.667.558 1.01.998 2.157 1.754 3.559 2.096.39.095.747.323 1.13.455 1.206.416 2.4.87 3.629 1.209 2.653.729 5.408.668 8.12.949.34.036.694-.041 1.04-.077 1.618-.168 3.24-.3 4.85-.526 1.26-.176 2.54-.355 3.748-.736 2.156-.681 4.268-1.503 6.39-2.29 1.57-.581 2.834-1.562 3.77-2.967.387-.58.772-1.184 1.274-1.654 1.07-1.004 1.94-2.166 2.782-3.347 1.862-2.61 3.534-5.321 4.359-8.474.205-.781.563-1.524.867-2.277.65-1.614 1.339-3.213 1.955-4.84.202-.533.277-1.13.328-1.706.122-1.39.205-2.783.28-4.177a7.122 7.122 0 00-.036-1.393c-.2-1.38-.43-2.756-.662-4.131-.155-.915-.316-1.823-.727-2.678-.197-.41-.285-.89-.333-1.347-.123-1.17.237-1.683 1.38-1.728.824-.033 1.428-.35 2.02-.855.936-.8 1.722-1.667 2.264-2.816.363-.77.446-1.544.603-2.334.45-2.258.258-4.52.028-6.774-.112-1.1-.457-2.115-1.14-3.06-.566-.781-.844-1.771-1.264-2.661-.268-.567-.294-1.258-.808-1.654-.731-.324-1.42-.13-2.102-.008-.43.076-.738.334-.911.734-.114.266-.231.536-.3.815-.238.955-.45 1.915-.68 2.872-.213.885-1.092 1.279-1.895.874-.608-.307-.934-.831-1.231-1.415-.97-1.911-1.782-3.908-3.136-5.611-.353-.443-.556-1.016-.778-1.55-.741-1.778-1.221-3.64-1.55-5.53a9.109 9.109 0 01-.053-2.601c.213-1.785.535-3.556.825-5.331.358-2.186.532-4.38.428-6.6-.112-2.366-.914-4.408-2.642-6.067-.375-.36-.684-.788-1.031-1.177-.27-.301-.511-.651-.837-.872-.545-.37-.943-.84-1.305-1.377-.952-1.412-2.275-2.298-3.936-2.678-.622-.143-1.24-.302-1.863-.435-1.051-.225-2.05-.168-3.04.359-2.252 1.2-4.65 2.109-6.808 3.507a10.436 10.436 0 01-4.388 1.607c-1.381.173-2.765.325-4.145.5-3.362.43-6.714.408-10.084.012-3.207-.377-6.064-1.513-8.597-3.498-.216-.17-.464-.298-.78-.5-.18.327-.328.565-.446.818-.392.843-.766 1.694-1.161 2.535-.716 1.522-1.476 3.023-2.15 4.563-.445 1.016-.918 1.999-1.587 2.893-.74.986-1.243 2.082-1.447 3.322-.272 1.66-.62 3.303-1.342 4.85-.265.569-.37 1.224-.482 1.85-.27 1.49-.626 2.953-1.151 4.376-.991 2.69-1.434 5.51-1.74 8.336-.23 2.133-.21 4.293-.282 6.442-.007.192.132.389.219.629 1.295-.413 2.253-1.16 3.182-1.944 1.865-1.574 3.732-3.147 5.57-4.754.785-.685 1.583-1.384 2.228-2.194 2.129-2.678 4.505-5.171 6.218-8.17.373-.651.854-1.24 1.262-1.874.276-.43.615-.707 1.146-.6.522.105.778.52.897.973.166.63.116 1.254-.251 1.843-.675 1.085-1.295 2.205-1.975 3.288a31.908 31.908 0 01-1.491 2.143c-.488.65-.998 1.286-1.541 1.89-1.28 1.426-2.304 3.075-3.782 4.329a1499.851 1499.851 0 00-5.441 4.64c-1.417 1.214-2.87 2.369-4.617 3.09a3.32 3.32 0 00-.756.43c-1.78 1.373-3.818 2.19-5.938 2.854a7.64 7.64 0 00-1.432.63c-.8.45-1.352 1.068-1.334 2.079.008.397-.135.798-.223 1.195-.13.59-.096 1.183.2 1.697.635 1.097 1.179 2.244 2.24 3.06.728.559 1.318 1.3 1.935 1.992.81.908 1.59 1.845 2.38 2.772.426.5.967.792 1.58 1.029 1.897.73 3.774 1.512 5.654 2.28.7.288 1.406.576 1.868 1.228.237.335.478.68.295 1.119-.196.47-.555.77-1.073.743-.573-.031-1.141-.146-1.713-.212-.673-.078-1.264-.566-2.094-.461z"/><path fill="#fff" d="M319.035 228.33c.66-.093 1.172-.223 1.685-.228 1.894-.016 3.666-.56 5.42-1.19 1.42-.51 2.827-1.055 4.252-1.551 1.778-.62 3.42-1.456 4.768-2.802.12-.121.28-.204.456-.327 1.712.809 3.449 1.592 5.152 2.443 2.964 1.48 5.922 2.985 8.62 4.922 2.076 1.489 4.192 2.92 6.115 4.624 1.432 1.268 2.973 2.43 4.554 3.51 2.75 1.878 4.766 4.407 6.602 7.113.847 1.249 1.739 2.488 2.413 3.83.832 1.657 1.626 3.353 2.044 5.18.387 1.697.78 3.394 1.086 5.105.152.85.21 1.744.134 2.602-.138 1.56-.397 3.11-.626 4.662-.23 1.55-.505 3.093-.717 4.645a14.283 14.283 0 01-1.563 4.78 28.215 28.215 0 01-3.995 5.699c-.428.474-.83.972-1.232 1.469-1.007 1.247-2.316 2.07-3.784 2.789-1.47-2.826-2.636-5.733-4.575-8.332.53-.557 1.048-1.083 1.545-1.626.472-.515.9-1.07 1.387-1.57 1.747-1.796 2.423-4.044 2.795-6.438.413-2.661.293-5.333.265-8.008-.03-2.788-.941-5.362-1.796-7.954-.106-.323-.32-.622-.526-.9-.59-.791-1.132-1.634-1.82-2.332-1.59-1.61-3.113-3.302-5.07-4.504-.394-.243-.82-.467-1.147-.786-1.096-1.07-2.41-1.824-3.712-2.577-1.91-1.103-3.865-2.126-5.812-3.162-.405-.216-.858-.34-1.331-.52-.456-.981-.873-2.002-1.393-2.968-.881-1.637-1.826-3.24-2.747-4.855a3.676 3.676 0 00-.293-.431c-.274-.35-.65-.481-.895-.317-.351.236-.356.603-.26.935.144.5.34.988.559 1.46.679 1.479 1.428 2.927 2.06 4.425 1.084 2.564 2.242 5.098 2.792 7.862.454 2.277 1.046 4.528 1.578 6.79.039.169.067.345.133.505 1.046 2.503 1.27 5.174 1.638 7.82.384 2.766.745 5.53.946 8.315.138 1.908.363 3.81.56 5.826-1.271.084-2.488.339-3.497 1.225-1.021.897-1.902 1.846-2.266 3.218-.342 1.285-.36 2.515.274 3.623-1.328 1.108-2.585 2.127-3.808 3.185-2.044 1.768-2.526 4.097-2.246 6.646.204 1.859 1.234 3.08 3.057 3.6.389.11.775.232 1.147.344l2.238 4.006c-2.362.605-4.543 1.55-6.923 1.892-2.41.345-4.785.916-7.177 1.38-3.085.598-6.201 1.125-9.331 1.177-3.182.052-6.385.188-9.566-.358-2.29-.392-4.62-.534-6.922-.847-2.718-.368-5.346-1.053-7.815-2.305-.767-.39-1.624-.62-2.461-.845-.903-.245-1.754-.552-2.558-1.055-1.078-.675-2.222-1.246-3.335-1.866-.201-.112-.39-.245-.67-.421.096-2.468-.134-4.963.153-7.46.099-.863.156-1.741.134-2.61-.041-1.641.182-3.245.5-4.846.375-1.878.782-3.753 1.073-5.645.228-1.491.25-3.013.454-4.51.378-2.762.825-5.516 1.238-8.274.077-.516.126-1.036.193-1.554.157-1.21.296-2.42.48-3.625.263-1.721.624-3.43.829-5.157.48-4.041.803-8.102 1.366-12.131.37-2.64 1.048-5.237 1.59-7.852.084-.396.224-.785.267-1.184.054-.504-.274-.99-.694-1.085-.461-.105-.791.146-1.017.502-.184.29-.31.62-.436.943-.232.59-.447 1.189-.657 1.753-1.816.446-3.607.495-5.41.436-1.045-.034-2.095.016-3.138-.055-.808-.055-1.643-.132-2.401-.39-1.843-.624-3.753-.725-5.657-.932-2.022-.22-4.008-.621-5.94-1.3-.98-.343-2.017-.531-3.038-.741a11.226 11.226 0 01-3.098-1.101 17.375 17.375 0 00-3.207-1.321c-.638-.193-1.181-.44-1.656-.885-1.192-1.116-2.474-2.094-3.914-2.891-1.601-.887-2.854-2.197-3.82-3.747a34.383 34.383 0 00-3.212-4.337 4.962 4.962 0 01-.826-1.322c-.604-1.457-1.386-2.813-2.247-4.127a19.523 19.523 0 01-1.965-3.88c-.324-.866-.744-1.696-1.096-2.552-1.302-3.172-2.342-6.436-3.345-9.711-.341-1.11-.58-2.25-.89-3.473.672-.374 1.36-.776 2.068-1.14.195-.1.448-.101.676-.113.23-.012.465.016.697.033 1.792.126 3.582.226 5.382-.65.113.574.235 1.015.284 1.463.268 2.442.932 4.79 1.752 7.087.703 1.968 1.542 3.887 2.338 5.82.313.758.792 1.402 1.35 2.013 1.372 1.497 2.765 2.966 3.854 4.715.949 1.525 2.132 2.89 3.65 3.94.757.524 1.367 1.256 2.06 1.873.608.539 1.177 1.163 1.873 1.55 1.672.928 3.296 1.94 5.09 2.657 1.667.664 3.287 1.469 4.859 2.337a14.92 14.92 0 004.744 1.648c1.372.236 2.73.55 4.104.776 1.029.169 2.068.296 3.108.358 1.68.1 3.366.174 5.049.174.805 0 1.612-.185 2.416-.303 1.203-.176 2.415-.316 3.603-.565 1.068-.224 2.108-.575 3.314-.913.034.024.244.133.4.293 1.003 1.024 2.249 1.617 3.566 2.116 1.082.41 2.133.9 3.315 1.407-.287.535-.501.984-.76 1.407-.647 1.06-.81 2.166-.35 3.336.679 1.729 1.292 3.49 2.08 5.168.488 1.036.552 1.99.164 3.018-.185.489-.414.963-.572 1.459-.387 1.217-.815 2.427-1.101 3.668-.861 3.74-1.977 7.405-3.095 11.073-.387 1.27-.617 2.605-.774 3.927-.33 2.782-1.056 5.458-1.811 8.145-.836 2.976-1.194 6.038-1.137 9.143.026 1.402.606 2.607 1.332 3.724.575.886 1.003 1.828 1.466 2.764 1.21 2.446 2.426 4.892 3.727 7.29.898 1.655 1.897 1.772 3.384.565.135-.11.273-.222.387-.352 1.074-1.22 2.197-2.4 3.197-3.677 1.009-1.291 2.143-2.44 3.343-3.545.763-.703 1.457-1.49 2.129-2.282.459-.542.657-1.21.687-1.936.085-2.092.275-4.182.282-6.273.024-7.62-.005-15.24-.031-22.861-.003-.691-.122-1.382-.193-2.073-.018-.173-.082-.344-.08-.516.028-2.738-.477-5.437-.605-8.165-.037-.804.108-1.5.657-2.077.937-.984 1.637-2.095 2.042-3.401.098-.318.357-.595.574-.864 1.04-1.291 1.355-2.674.589-4.215-.048-.097-.047-.22-.102-.493z"/><path fill="#1a1818" d="M320.232 412.309c.262-1.158.55-2.104.682-3.071.443-3.281.869-6.571.898-9.884.038-4.302-.018-8.605-.07-12.907-.022-1.801-.114-3.602-.22-5.4-.153-2.62.079-5.228.134-7.843.07-3.428.014-6.86.06-10.29.03-2.33-.207-4.641-.392-6.957a20.786 20.786 0 01-.057-1.916c.034-2.791.093-5.58.12-8.37.036-3.38-.245-6.74-.755-10.077-.201-1.317-.538-2.613-.804-3.921-.3-1.478-.591-2.96-.883-4.44-.7-3.54-1.52-7.044-3.365-10.202-.437-.747-.915-1.491-1.495-2.125-.788-.862-1.692-1.427-3.012-1.45-1.277-.022-2.53-.146-3.808.089-1.161.214-2.04.74-2.692 1.728-1.184 1.792-2.541 3.484-3.585 5.353-1.324 2.372-2.862 4.624-3.757 7.252-.596 1.75-1.421 3.423-1.794 5.258-.091.45-.33.868-.481 1.307-.34.985-.745 1.957-.982 2.967-.297 1.263-.797 2.418-1.436 3.534-.345.603-.73 1.209-.933 1.865-.925 2.994-2.106 5.902-2.946 8.926-.636 2.289-1.267 4.583-2.412 6.704-.463.858-.705 1.843-.99 2.787-.47 1.557-.92 3.12-1.326 4.695-.305 1.178-.648 2.366-.765 3.57-.242 2.516-1.065 4.872-1.806 7.252-.31.996-.74 1.955-1.108 2.933-.143.379-.286.76-.401 1.149-1.39 4.735-2.766 9.474-4.171 14.204-.23.776-.55 1.53-.89 2.267-.61 1.323-1.077 2.69-1.513 4.078-.75 2.38-1.556 4.742-2.35 7.108-.148.439-.295.896-.545 1.277-.21.319-.527.648-.871.779-.862.329-1.762.563-2.655.807-1.751.477-3.555.544-5.352.674-.867.063-1.732.159-2.598.245-.173.017-.345.08-.517.075-2.503-.066-4.983.294-7.477.406-.633.028-1.297.084-1.821-.548.135-.66.62-1.023 1.238-1.243.71-.254 1.443-.45 2.147-.72 1.137-.435 2.26-.908 3.385-1.374 1.07-.443 2.122-.941 3.21-1.336 2.004-.726 3.476-2.074 4.593-3.833 1.538-2.423 2.523-5.092 3.339-7.826.149-.5.237-1.017.336-1.53.24-1.254.417-2.52.938-3.708.185-.421.29-.886.369-1.342.372-2.135 1.097-4.147 2.007-6.106a26.548 26.548 0 001.54-4.253c.683-2.52 1.495-5.005 2.187-7.522.383-1.397.65-2.826.94-4.247.383-1.877.729-3.761 1.105-5.64.079-.397.184-.797.342-1.17.619-1.454.922-2.991 1.252-4.526.243-1.133.588-2.245.825-3.38.238-1.136.412-2.285.589-3.433.514-3.33 1.003-6.662 1.526-9.99.36-2.294.806-4.576 1.133-6.875.254-1.782.364-3.583.577-5.371.143-1.21.35-2.41.536-3.612.089-.574.273-1.144.282-1.718.043-2.845.425-5.677.28-8.533-.06-1.152.073-2.316.16-3.472.143-1.912.389-3.82.459-5.734.046-1.268-.145-2.545-.215-3.82-.024-.444-.004-.892-.004-1.353.723-.031 1.166.38 1.626.713 1.003.726 2.09 1.189 3.309 1.477 1.117.264 2.184.77 3.247 1.23 2.092.903 4.254 1.538 6.513 1.839 3.279.437 6.555.902 9.84 1.29 1.267.152 2.555.123 3.832.18 1.16.053 2.319.116 3.479.164.406.016.816.027 1.22-.01 3.587-.32 7.17-.654 10.68-1.525.732-.182 1.489-.253 2.229-.402 1.933-.388 3.869-.765 5.79-1.205.674-.154 1.315-.458 1.956-.73.91-.382 1.817-.762 2.916-.925 0 .246.046.46-.007.646-.76 2.68-1.532 5.357-2.301 8.035-.016.056-.013.12-.042.168-.833 1.348-1.085 2.929-1.746 4.342-1.417 3.027-2.227 6.215-2.715 9.508a519.81 519.81 0 01-1.626 10.15c-.347 2.06-.803 4.1-1.144 6.16a34.33 34.33 0 00-.385 3.637c-.228 3.945-.39 7.895-.636 11.839a25.919 25.919 0 01-.55 3.964 22.19 22.19 0 00-.513 4.843c.006 6.165.002 12.33-.014 18.495-.002 1.046-.09 2.09-.115 3.137-.024.986-.007 1.973-.032 2.96-.022.87-.007 1.749-.131 2.606-.452 3.123-.454 6.26-.372 9.4.034 1.278.09 2.56.242 3.828.13 1.09.385 2.166.628 3.239.237 1.047.928 1.71 1.912 2.1 1.133.448 2.24.967 3.396 1.345.874.286 1.809.383 2.71.594 1.013.236 2.017.507 2.99.754.17.957-.313 1.45-1.038 1.603-1.473.31-2.964.543-4.456.743a33.386 33.386 0 01-3.3.264 62.54 62.54 0 01-3.824-.005c-.87-.025-1.74-.124-2.608-.197-2.021-.17-3.756-1.063-4.895-2.475z"/><path d="M346.635 201.898c-.09-.908.013-1.55.177-2.212.688-2.785.955-5.632.724-8.477-.188-2.307-.683-4.59-1.063-7.02 1.286-.63 2.172-1.872 3.23-2.92 1.387-1.373 2.289-3.045 2.454-5.046.033-.405.115-.807.135-1.213.073-1.448.157-2.897.182-4.346.018-1.045-.065-2.091-.076-3.137-.013-1.18-.244-2.285-.787-3.354a27.882 27.882 0 01-1.434-3.363c-.725-2.06-2.39-2.668-4.454-2.5-.287.024-.565.153-.852.178-1.731.149-2.923 1.013-3.57 2.629a.947.947 0 01-.2.275c-.032.035-.102.035-.263.083-.313-.56-.617-1.162-.977-1.73-.372-.587-.89-1.098-1.18-1.72-.341-.728-.53-1.533-.742-2.316-.274-1.01-.573-2.02-.733-3.05a8.772 8.772 0 01-.044-2.426c.332-2.59.742-5.17 1.12-7.753.333-2.27.234-4.545-.223-6.77-.452-2.2-1.51-4.126-3.27-5.616-.53-.447-.914-1.084-1.478-1.467-1.262-.86-2.243-2.008-3.355-3.02-.737-.672-1.63-1.101-2.59-1.393-1.163-.354-2.302-.794-3.477-1.103-1.074-.281-2.18-.341-3.26.06-1.52.567-3.063 1.083-4.56 1.709-1.068.446-2.091 1.009-3.105 1.572-1.44.799-2.906 1.426-4.6 1.46-.861.017-1.718.256-2.58.372-3.593.484-7.19.53-10.774-.034-2.026-.32-3.934-.994-5.65-2.15-1.01-.68-2.017-1.362-3.164-2.137-.061-.301-.235-.75-.228-1.196.022-1.393.113-2.785.177-4.178.053-1.15.398-2.162 1.348-2.894a.65.65 0 00.12-.125c1.328-1.797 3.258-2.714 5.219-3.594 1.753-.787 3.522-1.514 5.44-1.79.23-.033.459-.092.69-.107 3.245-.213 6.49-.42 9.735-.628.29-.018.587.003.869-.053 2.609-.515 5.203-.251 7.785.169 2.463.4 4.919.846 7.365 1.335.903.18 1.773.528 2.65.82 2.147.717 4.278 1.477 6.435 2.157 1.113.352 2.193.74 3.202 1.337.597.353 1.25.609 1.874.919.676.335 1.432.575 2.003 1.042 2.876 2.352 6.149 4.194 8.795 6.84.285.286.612.544.957.754a6.51 6.51 0 011.9 1.766c.239.326.493.699.83.883 1.1.598 1.618 1.624 2.16 2.659 1.212 2.319 2.417 4.64 3.042 7.205 1.06 4.354 1.955 8.732 1.96 13.242.005 3.082.074 6.167-.007 9.248-.09 3.433-.465 6.846-1.348 10.179-.72 2.715-.993 5.482-1.138 8.274-.072 1.393-.074 2.81-.355 4.166a27.002 27.002 0 01-1.438 4.652c-.697 1.716-1.476 3.412-2.666 4.88-.435.537-.716 1.196-1.092 1.783-.532.83-1.041 1.684-1.643 2.462-.82 1.058-1.684 2.076-2.185 3.34a2.08 2.08 0 01-.38.58c-.486.553-.987 1.093-1.637 1.808z"/><path fill="#313133" d="M304.843 288.779c-.643-1.188-1.192-2.143-1.684-3.127-.778-1.556-1.506-3.138-2.28-4.697a15.977 15.977 0 00-1.034-1.808c-.71-1.056-1.032-2.205-.92-3.464.265-2.945.445-5.89 1.16-8.791.638-2.584 1.022-5.234 1.454-7.866.443-2.698 1.198-5.318 1.869-7.96.484-1.91 1.056-3.8 1.493-5.721.375-1.645.788-3.267 1.457-4.821.249-.58.387-1.206.59-1.86 2.057-.553 3.984.27 6.01.449.037.529.057.927.094 1.324.085.922.177 1.843.27 2.763.024.23.099.46.095.689-.063 3.139.514 6.24.464 9.388-.076 4.703.024 9.409.094 14.113.052 3.487-.074 6.967-.244 10.448-.06 1.196-.61 2.1-1.408 2.894-.907.899-1.863 1.749-2.774 2.644-.454.447-.865.939-1.282 1.42-1.095 1.267-2.184 2.54-3.424 3.983z"/><path fill="#fff" d="M347.586 299.328c-2.912-.003-4.723-1.04-5.941-3.12-.5-.851-1.086-1.666-1.47-2.567-.384-.9-1.04-1.355-1.89-1.65-.492-.17-1.015-.266-1.483-.485-.651-.305-1.12-.775-1.256-1.556-.367-2.096-.025-3.93 1.762-5.303.413-.317.816-.654 1.18-1.024.878-.892 1.905-1.51 3.113-1.834.277-.074.565-.142.816-.275.618-.327.714-.863.287-1.445-.068-.093-.162-.167-.232-.26-1.075-1.397-.965-2.8.33-4.003.34-.316.697-.627 1.088-.872.914-.571 1.889-.864 2.982-.548.947.273 1.904.516 2.86.752 2.643.652 4.565 2.318 5.932 4.547a27.72 27.72 0 012.937 6.489c.592 1.962.314 3.919.115 5.883a.97.97 0 01-.202.465c-1.06 1.38-2.082 2.8-3.373 3.979-.95.866-2.001 1.575-3.324 1.8a8.273 8.273 0 00-1.833.544c-.937.396-1.895.528-2.398.483zM225.882 180.817c1.176.065 2.277.644 3.447.35 1.125-.281 1.98-.933 2.635-1.976.382.178.743.333 1.092.512 1.992 1.025 3.958.817 5.824-.26 1.247-.72 1.756-1.976 1.882-3.368.056-.628.009-1.265.009-1.993.442-.047.773-.127 1.1-.11 1.09.059 2.043-.375 3-.797.786-.346 1.09-1.018 1.15-1.814.06-.818-.792-1.428-1.538-1.098-.476.21-.913.509-1.383.737-1.85.897-3.505.2-5.111-.69-.21-.115-.368-.471-.397-.732-.121-1.11.163-2.134 1.157-2.721a15.18 15.18 0 002.756-2.101c.576-.544 1.352-.896 2.079-1.251.277-.136.7-.134 1-.03 1.04.357 2.119.675 3.062 1.219.995.574 1.873 1.363 2.753 2.116.238.203.332.606.43.936.612 2.045.597 4.126.32 6.22-.273 2.07-1.06 3.91-2.397 5.518a15.474 15.474 0 00-1.133 1.549c-.913 1.424-2.243 2.328-3.716 3.066-.827.415-1.654.806-2.421 1.354-.534.382-1.284.594-1.95.627-1.081.054-2.19.272-3.26-.22-.505-.233-1.012.038-1.491.278a18.87 18.87 0 01-1.74.772c-1.687.639-3.115.1-4.257-1.146-.978-1.07-1.828-2.256-2.71-3.411-.326-.428-.405-.931-.192-1.536zm16.148-19.439c-1.43.395-2.551 1.288-3.49 2.319-.48-.04-.47-.361-.561-.626-.501-1.472-.651-3.085-1.74-4.243.255-1.188.086-2.275-.1-3.361-.117-.686-.283-1.365-.364-2.055-.25-2.135-.83-4.203-1.328-6.281-.483-2.015-.687-3.987-.126-6.004.31-1.113.606-2.231.898-3.35.31-1.184 1.049-1.755 2.288-1.638.339.032.678.059 1.088.095.165.459.39.873.459 1.31.36 2.29.795 4.578.989 6.884.355 4.22.854 8.42 1.387 12.619.044.345.059.694.108 1.038.147 1.022.305 2.043.492 3.293z"/><path fill="#fff" d="M231.13 161.04c.608-.097 1.287-.24 1.973-.31.76-.076 1.35.227 1.706.935.518 1.03 1.045 2.058 1.636 3.22-.214.324-.522.733-.77 1.175-.857 1.534-1.212 3.127-.48 4.824.405.935.947 1.723 1.99 2.045.267.082.5.27.674.367 0 .889.057 1.703-.015 2.504-.09.987-.562 1.454-1.525 1.615-.696.116-1.371.064-2.016-.311-1.776-1.033-3.135-2.418-3.611-4.464-.38-1.634-.702-3.29-.907-4.953-.251-2.028.41-5.028 1.345-6.646z"/><path fill="#313133" d="M305.849 227.402c1.812.259 3.41.515 5.018.709 1.607.193 3.22.325 5.038.505 0 0 .202.142.297.335.303.613 1.136 1.018.979 1.764-.123.583-.62 1.08-.913 1.637-.27.51-.534 1.033-.715 1.579-.251.756-.755 1.3-1.335 1.785-.644.539-1.332.789-2.236.597-1.467-.312-2.967-.464-4.607-.706-.38-.262-.513-.848-.733-1.372-.45-1.068-.84-2.161-1.312-3.218-.438-.981-.38-1.907.116-2.834.133-.25.26-.503.403-.781z"/><path fill="#fff" d="M226.716 165.018c.174 4.265.407 8.558 3.065 12.227-.756 1.244-.986 1.36-2.164 1.019-.5-.144-.993-.318-1.48-.505a2.813 2.813 0 01-1.43-1.217c-1.598-2.666-2.557-5.455-1.75-8.615.19-.743.449-1.424.945-2.025.73-.886 1.576-1.335 2.814-.884z"/><path d="M289.432 201.463zm0 0c1.085.07 2.005.123 2.923.197.345.027.688.153 1.03.15 3.192-.02 6.383-.057 9.574-.098.404-.006.809-.095 1.212-.09 4.416.068 8.638-.828 12.712-2.497.372-.153.763-.26 1.149-.378.036-.011.095.058.19.12-.023.13-.005.313-.084.43-.55.819-1.121 1.624-1.682 2.435-1.023 1.476-2.064 2.94-3.057 4.436-.588.885-1.26 1.649-2.191 2.19-.494.288-.91.706-1.384 1.03-.905.622-1.755 1.444-2.761 1.768-1.3.418-2.712.664-4.118.416a119.907 119.907 0 01-4.613-.884c-.614-.134-1.243-.34-1.78-.656-1.05-.617-2.047-1.321-3.047-2.017-.281-.195-.514-.47-.74-.733-1.116-1.305-2.515-3.716-3.333-5.82zm32.923-7.752c-.78.065-1.24.523-1.76.882-.422.292-.866.592-1.345.753-2.251.759-4.502 1.525-6.782 2.187-2.46.712-4.991 1.055-7.551 1.119-2.844.07-5.69.098-8.534.152-.695.013-1.391.097-2.085.073-1.507-.05-3.012-.161-4.52-.225-1.007-.042-1.947-.272-2.795-.838a12.742 12.742 0 00-.885-.546c-.404-.224-.814-.135-1.144.124-.391.305-.565.744-.391 1.242.115.326.273.638.426.949.999 2.023 2.417 3.818 3.228 5.946.1.265.314.485.46.735 1.412 2.4 3.318 4.28 5.739 5.682 1.069.618 2.146 1.149 3.348 1.399 1.589.33 3.183.645 4.783.913.564.095 1.159.08 1.732.03 2.63-.232 4.91-1.286 6.895-3.014.435-.378.883-.757 1.377-1.05 1.179-.696 2.056-1.67 2.814-2.79a275.206 275.206 0 013.374-4.86c.838-1.181 1.726-2.315 2.266-3.694.334-.853.946-1.581.823-2.601-.035-.292.256-.628.409-.938.238-.48.38-.966.118-1.63zm-10.951-40.587c-.055-1.508.523-2.84 1.186-4.13.382-.741 1.17-.948 1.94-.64 1.27.51 2.377 1.618 2.249 3.38-.13 1.784-.516 3.556-1.325 5.195-.34.689-.858 1.065-1.65 1.056-1.007-.011-1.435-.29-1.834-1.277-.464-1.151-.512-2.371-.566-3.584zm-25.429-4.757c-.194 1.197-.375 2.397-.592 3.589-.061.338-.213.662-.352.98-.44 1.003-1.41 1.678-2.26 1.588-.818-.087-1.62-1.007-1.814-2.086-.31-1.705-.04-3.334.58-4.937.387-.998 1.21-1.558 2.034-2.061.916-.561 2.044.078 2.21 1.175.089.569.074 1.155.106 1.733z"/><path fill="#fff" d="M289.432 201.463c1.085.07 2.005.123 2.923.197.345.027.688.153 1.03.15 3.192-.02 6.383-.057 9.574-.098.404-.006.809-.095 1.212-.09 4.416.068 8.638-.828 12.712-2.497.372-.153.763-.26 1.149-.378.036-.011.095.058.19.12-.023.13-.005.313-.084.43-.55.819-1.121 1.624-1.682 2.435-1.023 1.476-2.064 2.94-3.057 4.436-.588.885-1.26 1.649-2.191 2.19-.494.288-.91.706-1.384 1.03-.905.622-1.755 1.444-2.761 1.768-1.3.418-2.712.664-4.118.416a119.934 119.934 0 01-4.613-.884c-.614-.134-1.243-.34-1.78-.656-1.05-.617-2.047-1.321-3.047-2.017-.281-.195-.514-.47-.74-.733-1.116-1.305-2.515-3.716-3.333-5.82z"/><g fill="#1a1818"><path d="M171.168 73.487l.009.018.008.018zm12.054 27.045c-.008-.044-.014-.093-.023-.153-.07-.46-.198-1.318-.83-3.234-.132-.404-.257-.845-.392-1.321-.312-1.096-.7-2.46-1.347-3.97-.232-.541-.426-1.195-.631-1.89-.302-1.017-.645-2.173-1.215-3.351-.288-.595-.558-1.258-.845-1.96-.407-.996-.828-2.027-1.388-3.1-.27-.516-.541-1.052-.821-1.604-.542-1.067-1.102-2.171-1.73-3.313l-.063-.105c-.442-.663-1.025-1.191-1.541-1.658a11.284 11.284 0 01-.808-.78 1.657 1.657 0 00-.172-.91l-.202-.352-.296-.163c-.214-.736-.32-1.554-.43-2.408-.09-.702-.182-1.428-.342-2.16-.366-1.674-.445-3.316-.45-5.266-.005-1.704.2-3.356.687-5.525.162-.724.268-1.437.369-2.128.183-1.242.356-2.416.833-3.413.719-1.5 1.677-2.973 3.107-4.775 1.25-1.577 2.77-2.873 4.09-3.934 1.462-1.174 2.973-2.388 4.684-3.221 1.035-.503 2.243-.705 3.52-.92.649-.108 1.318-.22 1.996-.376a51.27 51.27 0 001.463-.366c1.388-.361 2.699-.702 4.068-.706a46.68 46.68 0 001.832-.054c1.402-.061 2.727-.12 3.916.148l.897.196c1.638.357 3.332.725 4.714 1.386 1.748.837 3.44 2.106 4.866 3.238.944.75 1.707 1.806 2.514 2.924.37.513.753 1.042 1.16 1.549 1.118 1.39 1.922 2.974 2.858 4.899l.327.669c.759 1.544 1.476 3.003 1.84 4.584.122.526.264 1.058.406 1.594.378 1.415.734 2.752.738 4.08.005 1.779-.384 3.614-.771 5.434-.301 1.419-.61 2.875-1.072 4.203a1.472 1.472 0 00-.671.3l-.141.06-.034.102a1.464 1.464 0 00-.22.313l-.031.065c-.238.527-.335 1.055-.42 1.52-.067.366-.13.71-.24.9l-.035.068c-.211.417-.661.944-1.137 1.503-.755.882-1.61 1.884-2.235 3.186-.62 1.287-1.24 2.663-1.896 4.119l-.488 1.08c-.466 1.03-.727 2.106-.978 3.147-.207.855-.402 1.664-.695 2.375-.173.42-.347.838-.52 1.25-.6 1.437-1.166 2.795-1.606 4.113-.651 1.953-1.068 3.95-1.167 5.566l-.092.13c-1.355 1.913-1.355 1.913-3.603 2.972-1.282.603-1.522.573-2.42.459a16.017 16.017 0 00-2.13-.153c-1.271-.006-1.89-.083-2.542-.164-.71-.087-1.442-.178-2.886-.184-1.262-.006-2.076.206-2.67.36-.75.196-1.03.272-2.104-.167-1.591-.645-1.781-.931-2.408-1.88-.325-.49-.728-1.1-1.391-1.895l-.06-.072c-.323-.387-.605-.725-.696-.861zm3.72 7.489c1.66.626 2.577.472 3.668.188.514-.134 1.043-.272 1.928-.268 1.27.006 1.889.082 2.543.163.709.088 1.44.178 2.885.185.787.004 1.313.07 1.778.13 1.26.16 2.069.207 4.019-.712 2.827-1.332 3.139-1.67 4.73-3.917l.593-.834.012-.443c.033-1.391.422-3.326 1.039-5.177.406-1.215.953-2.526 1.532-3.913.174-.417.35-.838.525-1.264.377-.916.608-1.872.83-2.796.23-.952.449-1.851.803-2.633l.49-1.085a191.295 191.295 0 011.865-4.054c.463-.963 1.157-1.775 1.828-2.561.583-.684 1.135-1.33 1.502-2.044.277-.493.403-.996.496-1.463l.026.007.056-.168a1.35 1.35 0 00.109-.042l.523-.221.232-.52c.84-1.87 1.27-3.9 1.697-5.907.389-1.833.83-3.91.824-5.996-.005-1.705-.427-3.288-.834-4.818a47.808 47.808 0 01-.383-1.498c-.44-1.91-1.265-3.588-2.063-5.212l-.322-.657c-.8-1.644-1.793-3.691-3.205-5.447-.368-.46-.717-.944-1.07-1.43-.886-1.23-1.803-2.5-3.061-3.498-1.552-1.231-3.408-2.62-5.414-3.58-1.691-.807-3.551-1.214-5.35-1.604l-.88-.193c-1.563-.35-3.145-.282-4.674-.215-.57.025-1.143.05-1.715.052-1.734.005-3.287.409-4.787.799-.461.12-.921.24-1.384.347-.593.136-1.19.236-1.824.342-1.425.239-2.898.485-4.308 1.17-2.005.976-3.72 2.354-5.232 3.569-1.445 1.16-3.115 2.59-4.544 4.39-1.55 1.954-2.646 3.645-3.45 5.325-.667 1.392-.88 2.84-1.087 4.242a26.37 26.37 0 01-.33 1.915c-.536 2.392-.763 4.236-.757 6.167.005 1.848.072 3.839.517 5.877.133.608.214 1.24.3 1.91.159 1.235.322 2.51.833 3.739.026.144.068.264.1.345l-.004.002c.455.988 1.226 1.687 1.906 2.303.41.372.799.724 1.044 1.072.59 1.08 1.13 2.142 1.652 3.169.285.562.562 1.108.835 1.632.498.953.893 1.922 1.276 2.858.304.744.592 1.448.919 2.126.468.965.76 1.955 1.044 2.913.23.776.448 1.51.747 2.208.575 1.339.919 2.55 1.223 3.62.147.517.283.996.428 1.434.554 1.683.655 2.357.715 2.759.148.986.356 1.236 1.358 2.437l.06.073c.56.672.9 1.186 1.2 1.64.839 1.266 1.426 2.027 3.736 2.964.086.035.17.067.252.098z"/><path d="M207.446 114.098c-1.34-1.008-.816-1.136.699-2.28 1.515-1.143.75-2.785-.136-3.162-.887-.377-.636-.884-.7-1.39-.065-.506 1.705-.891 1.446-3.167-.26-2.277-2.92-2.776-2.92-2.776l-10.393.03-.865.003-10.394.03s-2.656.515-2.902 2.793 1.526 2.653 1.464 3.159c-.061.506.193 1.012-.691 1.394-.885.382-1.64 2.029-.118 3.164 1.522 1.134 2.047 1.259.712 2.275-1.335 1.016-1.944 2.663.01 3.543 1.955.88 4.735-.267 6.51.867 1.698 1.084-.532 4.03 5.473 4.598v.067c.15-.008.29-.02.433-.031.142.01.282.02.433.028l-.001-.066c6.002-.604 3.755-3.537 5.446-4.631 1.768-1.144 4.555-.014 6.505-.905 1.949-.891 1.33-2.534-.011-3.543z"/><path d="M189.567 109.248c-.044.023.055.693.01.716.35.142 1.028.082 1.378.223-.56-3.622-.585-28.998-1.377-32.605-.757-3.45-3.265-5.174-5.301-7.784-2.22-2.845-.943-7.053 3.4-6.26 1.816.332 3.61 2.155 3.512 3.978-.133 2.463-3.186 1.616-3.537-.371-.156-.884-.261-2.03.068-2.854.778-1.95 2.444-2.225 4.439-2.085 1.753.123 2.215.334 3.182 1.644.39.53.549 1.135.73 1.776.183.652.384 1.873.102 2.487-.552 1.207-1.146.534-1.613-.42-1.071-2.185-.39-4.393 1.969-5.234 2.859-1.02 4.502.415 5.407 2.886.22.603.953 2.155.526 2.745-.46.63-1.625.126-1.914-.176-.304-.317-.59-.93-.623-1.328-.101-1.2.4-3.323 1.18-4.243 1.679-1.978 5.128-1.325 5.318 1.542.105 1.58-.59 3.389-1.4 4.666-1.877 2.958-3.017 5.738-3.258 9.32-.263 3.923-1.044 30.004-.453 33.897.137.905 2.03.437 1.895-.462-.31-2.032-.776-4.234-.755-6.296.019-1.935.52-25.605.726-27.53.233-2.178.793-4.644 1.955-6.512.806-1.297 1.042-2.824 1.722-4.205.929-1.886 1.969-4.246.378-5.928-1.58-1.667-4.825-1.32-6.501.17-1.86 1.656-3.42 9.503.843 8.595 4.748-1.012.66-8.961-2.34-9.74-5.683-1.475-9.034 6.777-5.022 10.373 1.443 1.294 3.08.38 3.547-1.405.648-2.48.078-4.658-1.378-6.59-3.92-5.206-10.898-.631-10.266 5.026.227 2.036 1.365 3.297 3.672 3.13 2.088-.151 2.765-1.566 2.51-3.427-.374-2.731-1.93-4.29-4.707-4.97-3.091-.757-5.376 1.366-5.63 4.426-.297 3.619 3.038 5.999 4.564 8.779 2.339 4.264 1.867 30.76 2.587 35.42.074.48.68.11 1.043-.082.044-.023.319.392.363.369.813-.43.102-1.54-.711-1.11-.26-.008-.24-.551-.24-.551zm-38.965-84.966c4.704 3.16 8.936 6.784 13.684 9.903 1.943 1.278 3.986-1.71 2.036-2.99-4.741-3.116-8.978-6.741-13.684-9.904-1.931-1.298-3.972 1.69-2.036 2.99zm-7.568 14.111c3.713 2.59 7.68 4.659 11.436 7.205 1.927 1.306 3.967-1.682 2.037-2.991-3.754-2.545-7.733-4.62-11.436-7.205-1.91-1.333-3.948 1.657-2.037 2.99zm82.346-6.915a73.283 73.283 0 01-.388-.215l.477 2.514c.413-.585 1.632-1.078 2.2-1.537 1.026-.826 1.92-1.801 2.966-2.604 1.772-1.361 3.666-2.993 5.618-4.056 2.042-1.111.494-4.382-1.554-3.268-2.166 1.179-4.083 2.862-6.068 4.32-1.176.865-2.15 1.965-3.303 2.849-1.053.808-2.071 1.157-2.85 2.259-.526.746-.37 2.044.477 2.514l.388.215c2.02 1.119 4.076-1.86 2.037-2.991zm4.295 15.022l15.417-2.924c2.29-.434 1.617-3.99-.674-3.555L229 42.947c-2.291.434-1.617 3.989.674 3.554zm-13.737-21.554c3.116-4.611 6.384-8.878 10.03-13.014 1.537-1.742-1.468-3.763-2.99-2.037-3.652 4.142-6.904 8.387-10.03 13.014-1.304 1.929 1.684 3.969 2.99 2.037zm-10.818-6.778c-.67-1.246-.112-3.341 0-4.673.123-1.466.21-2.933.326-4.4.085-1.071.19-2.141.11-3.217-.063-.88-.793-2.504-.457-3.343.865-2.16-2.56-3.33-3.425-1.17-.445 1.11-.273 2.084-.014 3.216.399 1.75.229 3.406.095 5.18-.222 2.928-1.366 7.24.097 9.96 1.1 2.05 4.37.5 3.268-1.553zm-27.491 6.808l.157-.377c.225-.538.08-1.34-.333-1.755-1.873-1.892-3.602-3.025-4.868-5.478-.89-1.724-2.187-3.641-3.844-4.72-1.95-1.268-3.993 1.718-2.037 2.99 1.796 1.169 2.46 3.37 3.536 5.087 1.199 1.91 2.926 2.919 4.454 4.463l-.333-1.756-.157.377c-.895 2.148 2.53 3.315 3.425 1.169zm12.661-8.696c-1.346-1.225-1.29-3.63-1.8-5.3-.561-1.837-1.017-4.051-2.062-5.682-1.243-1.94-4.522-.402-3.268 1.554 1.138 1.776 1.76 4.357 2.209 6.387.42 1.906.635 3.994 2.162 5.384 1.7 1.548 4.477-.78 2.759-2.342z"/></g></svg>