<svg xmlns="http://www.w3.org/2000/svg" width="53" height="52"><defs><clipPath id="a"><path fill="#fff" d="M.148 25.958c0-14.36 11.641-26 26-26 14.36 0 26 11.64 26 26s-11.64 26-26 26c-14.359 0-26-11.64-26-26z"/></clipPath></defs><path fill="#ffca52" d="M.148 25.958c0-14.36 11.641-26 26-26 14.36 0 26 11.64 26 26s-11.64 26-26 26c-14.359 0-26-11.64-26-26z"/><path fill="none" stroke="#1c2733" stroke-miterlimit="20" stroke-width="10" d="M.148 25.958c0-14.36 11.641-26 26-26 14.36 0 26 11.64 26 26s-11.64 26-26 26c-14.359 0-26-11.64-26-26z" clip-path="url(&quot;#a&quot;)"/></svg>