<svg xmlns="http://www.w3.org/2000/svg" width="36" height="35"><path fill="#1877f2" d="M35.084 17.18c0-9.444-7.656-17.1-17.1-17.1C8.538.08.881 7.735.881 17.18c0 8.536 6.254 15.61 14.43 16.893v-11.95h-4.343V17.18h4.342v-3.767c0-4.286 2.553-6.654 6.46-6.654 1.87 0 3.828.334 3.828.334v4.209h-2.157c-2.124 0-2.787 1.318-2.787 2.67v3.208h4.743l-.758 4.943h-3.985v11.95c8.176-1.282 14.43-8.357 14.43-16.893z"/><path fill="#fff" d="M24.64 22.123l.758-4.943h-4.743v-3.208c0-1.352.663-2.67 2.787-2.67H25.6V7.093s-1.957-.334-3.828-.334c-3.907 0-6.46 2.368-6.46 6.654v3.767H10.97v4.943h4.342v11.95a17.23 17.23 0 005.344 0v-11.95z"/></svg>