<svg xmlns="http://www.w3.org/2000/svg" width="20" height="20"><path fill="#feca52" d="M6.6 2.426c.417.416.835.83 1.25 1.249.73.737.732 1.597.004 2.328-.522.525-1.042 1.053-1.574 1.568-.14.136-.152.247-.08.418.35.84.854 1.583 1.423 2.282 1.142 1.405 2.434 2.652 3.976 3.62.33.207.696.358 1.04.545.176.096.297.065.439-.082.52-.538 1.053-1.065 1.586-1.592.697-.69 1.572-.692 2.272.002.856.847 1.707 1.698 2.555 2.553.712.717.706 1.592-.01 2.315-.482.487-.994.95-1.45 1.461-.666.744-1.5.984-2.455.933-1.387-.076-2.668-.537-3.9-1.136a21.216 21.216 0 01-7.042-5.51c-1.448-1.724-2.646-3.601-3.433-5.72C.819 6.632.547 5.582.63 4.471c.05-.685.309-1.268.814-1.749.542-.516 1.06-1.06 1.593-1.585.7-.688 1.574-.686 2.276.002.433.425.858.857 1.287 1.286z"/></svg>