<svg xmlns="http://www.w3.org/2000/svg" width="36" height="28"><path fill="#1d9bf0" d="M31.582 6.99c.02.302.02.604.02.908 0 9.273-7.058 19.966-19.965 19.966v-.006A19.866 19.866 0 01.88 24.712a14.08 14.08 0 0010.385-2.909A7.025 7.025 0 014.71 16.93a7.004 7.004 0 003.169-.12 7.02 7.02 0 01-5.63-6.88v-.088a6.964 6.964 0 003.185.878 7.022 7.022 0 01-2.172-9.367 19.922 19.922 0 0014.462 7.331 7.023 7.023 0 0111.958-6.4A14.064 14.064 0 0034.138.582a7.041 7.041 0 01-3.085 3.882 14.005 14.005 0 004.03-1.105 14.278 14.278 0 01-3.5 3.633z"/></svg>