<svg xmlns="http://www.w3.org/2000/svg" width="36" height="35"><path fill="#2787f5" d="M.882 16.626c0-7.726 0-11.589 2.4-13.989 2.4-2.4 6.263-2.4 13.989-2.4h1.425c7.725 0 11.588 0 13.988 2.4 2.4 2.4 2.4 6.263 2.4 13.989v1.425c0 7.726 0 11.588-2.4 13.988-2.4 2.4-6.263 2.4-13.988 2.4H17.27c-7.726 0-11.589 0-13.989-2.4-2.4-2.4-2.4-6.262-2.4-13.988z"/><path fill="#fff" d="M10.146 10.925H7.65c-.712 0-.855.336-.855.706 0 .66.846 3.937 3.938 8.27 2.061 2.959 4.965 4.563 7.608 4.563 1.586 0 1.782-.356 1.782-.97v-2.237c0-.712.15-.854.652-.854.37 0 1.004.185 2.484 1.611 1.692 1.691 1.97 2.45 2.922 2.45h2.494c.713 0 1.07-.356.864-1.06-.225-.7-1.033-1.717-2.104-2.922-.582-.687-1.454-1.427-1.718-1.797-.37-.475-.264-.687 0-1.11 0 0 3.04-4.28 3.356-5.733.159-.528 0-.916-.754-.916h-2.494c-.635 0-.927.335-1.086.705 0 0-1.268 3.091-3.065 5.1-.582.58-.846.765-1.163.765-.159 0-.388-.185-.388-.713v-4.94c0-.635-.184-.917-.713-.917h-3.92c-.396 0-.635.294-.635.573 0 .6.899.74.992 2.43v3.673c0 .805-.146.951-.463.951-.846 0-2.903-3.105-4.123-6.658-.239-.69-.479-.97-1.116-.97z"/></svg>