<svg width="1440" height="747" fill="none" xmlns="http://www.w3.org/2000/svg"><path d="M1440 287.04v185.89c-8.18 11.94-21 20.46-35.86 22.93a53.825 53.825 0 012.99 16.88c.01.32.01.64.01.96 0 30-24.31 54.31-54.3 54.31-6.22 0-12.19-1.05-17.75-2.97-1.91 28.26-25.43 50.6-54.18 50.6-28.45 0-51.78-21.88-54.11-49.72a54.21 54.21 0 01-14.95 2.09c-29.99 0-54.3-24.31-54.3-54.31 0-.32 0-.64.01-.96.07-4.04.58-7.98 1.49-11.78a54.053 54.053 0 01-24.73 11.78c-3.31.63-6.72.96-10.21.96-3.49 0-6.9-.33-10.2-.96-25.12-4.77-44.1-26.84-44.1-53.33 0 26.49-18.98 48.56-44.1 53.33-3.3.63-6.71.96-10.2.96-3.49 0-6.9-.33-10.21-.96a54.005 54.005 0 01-24.73-11.78c.91 3.8 1.41 7.74 1.48 11.78.01.32.01.64.01.96 0 30-24.31 54.31-54.29 54.31-5.19 0-10.21-.73-14.95-2.09-2.34 27.84-25.68 49.72-54.12 49.72-28.75 0-52.28-22.34-54.17-50.6a54.365 54.365 0 01-17.75 2.97c-29.99 0-54.31-24.31-54.31-54.31 0-.32 0-.64.01-.96a53.83 53.83 0 013-16.88c-19.97-3.33-36.26-17.54-42.53-36.33-.02 19.57-5.68 37.82-15.43 53.21-17.69 27.95-48.88 46.51-84.41 46.51-24.48 0-46.9-8.81-64.26-23.42 1.94 8.05 2.9 16.47 2.76 25.15-.91 53.7-44.84 97.42-98.54 98.1-10 .13-19.66-1.22-28.79-3.83-4.28 51.2-47.19 91.42-99.5 91.42-52.85 0-96.12-41.07-99.61-93.03-10.1 3.49-20.92 5.4-32.19 5.45-54.74.24-99.09-42.91-100.26-97.64-.26-12.29 1.69-24.09 5.5-35.01a99.374 99.374 0 01-36.24-13.7c-.7-.43-1.39-.88-2.08-1.33C14.74 494.85 0 466.39 0 436.28V293.49c0-20.35 14.07-38.3 34.01-42.34.61-.12 1.23-.24 1.85-.34a53.825 53.825 0 01-2.99-16.88c-.01-.32-.01-.64-.01-.96 0-29.99 24.31-54.3 54.3-54.3 6.22 0 12.19 1.04 17.75 2.97 1.91-28.26 25.43-50.6 54.18-50.6 28.45 0 51.78 21.87 54.11 49.72 4.75-1.37 9.77-2.09 14.96-2.09 29.98 0 54.29 24.31 54.29 54.3 0 .32 0 .64-.01.96-.07 4.04-.58 7.99-1.49 11.78a54.053 54.053 0 0124.73-11.78c3.31-.63 6.72-.96 10.21-.96 3.49 0 6.9.33 10.2.96 25.12 4.77 44.1 26.84 44.1 53.34 0-26.5 18.99-48.57 44.11-53.34 3.3-.63 6.71-.96 10.2-.96 3.49 0 6.9.33 10.21.96 9.3 1.77 17.77 5.91 24.73 11.78-.92-3.79-1.42-7.74-1.49-11.78-.01-.32-.01-.64-.01-.96 0-29.99 24.31-54.3 54.29-54.3 5.19 0 10.21.72 14.96 2.09 2.33-27.85 25.67-49.72 54.11-49.72 28.75 0 52.28 22.34 54.18 50.6a54.014 54.014 0 0117.75-2.97c29.99 0 54.3 24.31 54.3 54.3 0 .32 0 .64-.01.96-.1 5.91-1.14 11.59-3 16.88 19.97 3.33 36.26 17.54 42.54 36.34.02-19.57 5.68-37.82 15.43-53.22 17.69-27.95 48.88-46.5 84.41-46.5 24.47 0 46.9 8.81 64.26 23.42a99.435 99.435 0 01-2.77-23.42c0-55.14 44.7-99.84 99.84-99.84 9.53 0 18.76 1.34 27.49 3.83 4.29-51.2 47.19-91.41 99.5-91.41 52.85 0 96.12 41.07 99.61 93.03 10.23-3.54 21.21-5.45 32.64-5.45 55.14 0 99.84 44.7 99.84 99.84 0 11.49-1.94 22.54-5.51 32.81a99.509 99.509 0 0136.22 13.69c19.53 12.17 34.56 30.9 41.98 53.11z" fill="#fff"/></svg>