<svg width="110" height="110" fill="none" xmlns="http://www.w3.org/2000/svg"><path fill="#84AABB" d="M60 0h2v2h-2zm0 12h2v2h-2zm0 12h2v2h-2zm0 12h2v2h-2zm0 12h2v2h-2zM72 0h2v2h-2zm0 12h2v2h-2zm0 12h2v2h-2zm0 12h2v2h-2zm0 12h2v2h-2zM84 0h2v2h-2zm0 12h2v2h-2zm0 12h2v2h-2zm0 12h2v2h-2zm0 12h2v2h-2zM96 0h2v2h-2zm0 12h2v2h-2zm0 12h2v2h-2zm0 12h2v2h-2zm0 12h2v2h-2zm12-48h2v2h-2zm0 12h2v2h-2zm0 12h2v2h-2zm0 12h2v2h-2zm0 12h2v2h-2zM0 0h2v2H0zm0 12h2v2H0zm0 12h2v2H0zm0 12h2v2H0zm0 12h2v2H0zM12 0h2v2h-2zm0 12h2v2h-2zm0 12h2v2h-2zm0 12h2v2h-2zm0 12h2v2h-2zM24 0h2v2h-2zm0 12h2v2h-2zm0 12h2v2h-2zm0 12h2v2h-2zm0 12h2v2h-2zM36 0h2v2h-2zm0 12h2v2h-2zm0 12h2v2h-2zm0 12h2v2h-2zm0 12h2v2h-2zM48 0h2v2h-2zm0 12h2v2h-2zm0 12h2v2h-2zm0 12h2v2h-2zm0 12h2v2h-2zm12 12h2v2h-2zm0 12h2v2h-2zm0 12h2v2h-2zm0 12h2v2h-2zm0 12h2v2h-2zm12-48h2v2h-2zm0 12h2v2h-2zm0 12h2v2h-2zm0 12h2v2h-2zm0 12h2v2h-2zm12-48h2v2h-2zm0 12h2v2h-2zm0 12h2v2h-2zm0 12h2v2h-2zm0 12h2v2h-2zm12-48h2v2h-2zm0 12h2v2h-2zm0 12h2v2h-2zm0 12h2v2h-2zm0 12h2v2h-2zm12-48h2v2h-2zm0 12h2v2h-2zm0 12h2v2h-2zm0 12h2v2h-2zm0 12h2v2h-2zM0 60h2v2H0zm0 12h2v2H0zm0 12h2v2H0zm0 12h2v2H0zm0 12h2v2H0zm12-48h2v2h-2zm0 12h2v2h-2zm0 12h2v2h-2zm0 12h2v2h-2zm0 12h2v2h-2zm12-48h2v2h-2zm0 12h2v2h-2zm0 12h2v2h-2zm0 12h2v2h-2zm0 12h2v2h-2zm12-48h2v2h-2zm0 12h2v2h-2zm0 12h2v2h-2zm0 12h2v2h-2zm0 12h2v2h-2zm12-48h2v2h-2zm0 12h2v2h-2zm0 12h2v2h-2zm0 12h2v2h-2zm0 12h2v2h-2z"/></svg>