<svg width="16" height="16" fill="none" xmlns="http://www.w3.org/2000/svg"><path d="M12.063 7.188a.625.625 0 100-1.25.625.625 0 000 1.25z" fill="#009D98"/><path d="M13.5 1.25h-.813V.625a.625.625 0 10-1.25 0v.625H8.595V.625a.625.625 0 10-1.25 0v.625H4.53V.625a.625.625 0 10-1.25 0v.625H2.5A2.503 2.503 0 000 3.75v9.75C0 14.879 1.121 16 2.5 16h4.781a.625.625 0 100-1.25H2.5c-.69 0-1.25-.56-1.25-1.25V3.75c0-.69.56-1.25 1.25-1.25h.781v.625a.625.625 0 101.25 0V2.5h2.813v.625a.625.625 0 101.25 0V2.5h2.844v.625a.625.625 0 101.25 0V2.5h.812c.69 0 1.25.56 1.25 1.25v3.563a.625.625 0 101.25 0V3.75c0-1.378-1.121-2.5-2.5-2.5z" fill="#009D98"/><path d="M12.219 8.438a3.785 3.785 0 00-3.781 3.78A3.785 3.785 0 0012.217 16 3.785 3.785 0 0016 12.219a3.785 3.785 0 00-3.781-3.781zm0 6.312a2.534 2.534 0 01-2.531-2.531 2.534 2.534 0 012.53-2.531 2.534 2.534 0 012.532 2.53 2.534 2.534 0 01-2.531 2.532z" fill="#009D98"/><path d="M13.125 11.594h-.281v-.656a.625.625 0 00-1.25 0v1.28c0 .346.28.626.625.626h.906a.625.625 0 000-1.25zM9.344 7.188a.625.625 0 100-1.25.625.625 0 000 1.25zM6.625 9.906a.625.625 0 100-1.25.625.625 0 000 1.25zM3.906 7.188a.625.625 0 100-1.25.625.625 0 000 1.25zm0 2.718a.625.625 0 100-1.25.625.625 0 000 1.25zm0 2.719a.625.625 0 100-1.25.625.625 0 000 1.25zm2.719 0a.625.625 0 100-1.25.625.625 0 000 1.25zm0-5.437a.625.625 0 100-1.25.625.625 0 000 1.25z" fill="#009D98"/></svg>