<svg width="16" height="16" fill="none" xmlns="http://www.w3.org/2000/svg"><g clip-path="url(#clip0)"><path d="M12.971 7.818a3.993 3.993 0 00-4.968-6.233 3.994 3.994 0 00-4.974 6.233A5.675 5.675 0 000 12.86v1.714a.57.57 0 00.571.571h14.857a.572.572 0 00.572-.571V12.86a5.675 5.675 0 00-3.029-5.043zm-2.685-5.814a2.853 2.853 0 011.174 5.454l-.133.058a2.8 2.8 0 01-.434.135l-.087.015a2.86 2.86 0 01-.503.051c-.076 0-.152-.005-.228-.012-.029 0-.057 0-.086-.006a2.887 2.887 0 01-.934-.275c-.011-.006-.024-.005-.034-.01-.058-.027-.115-.051-.166-.082l.012-.018c.262-.336.469-.713.612-1.114l.018-.048c.065-.192.116-.389.152-.588l.013-.089c.033-.203.05-.409.052-.614a4.02 4.02 0 00-.052-.613l-.013-.089a4.032 4.032 0 00-.152-.588l-.018-.048a4.01 4.01 0 00-.612-1.115l-.012-.018a2.839 2.839 0 011.43-.386zM2.857 4.86a2.85 2.85 0 014.92-1.967c.098.103.189.212.271.328.025.036.048.074.071.11.08.123.15.252.21.386.014.032.025.066.038.098.06.148.107.301.142.457.004.017.005.035.008.052.073.355.073.72 0 1.076-.003.017-.004.035-.008.052a2.811 2.811 0 01-.142.457c-.013.032-.024.066-.038.098-.06.134-.13.262-.21.385-.023.037-.046.074-.071.11a2.93 2.93 0 01-.369.426 2.852 2.852 0 01-1.353.72c-.036.009-.073.013-.11.02a2.835 2.835 0 01-.47.047h-.063a2.832 2.832 0 01-.47-.047c-.037-.007-.074-.011-.11-.02a2.874 2.874 0 01-.424-.13l-.14-.058a2.857 2.857 0 01-1.682-2.6zm7.429 9.143H1.143V12.86a4.543 4.543 0 013.039-4.307c.98.409 2.084.409 3.065 0 .19.07.377.152.556.247.12.06.229.13.343.2.075.047.15.092.221.143.11.078.215.164.317.251a4.257 4.257 0 01.638.665 4.119 4.119 0 01.37.56c.058.098.11.196.158.298.048.103.09.215.132.324.036.095.074.189.104.286.04.132.068.27.096.406.017.082.04.161.052.243.034.226.05.455.052.684v1.143zm4.571 0H11.43V12.86c0-.18-.01-.356-.027-.532-.004-.051-.012-.102-.018-.154a5.495 5.495 0 00-.185-.913l-.036-.123a5.662 5.662 0 00-.688-1.444l-.022-.033a5.645 5.645 0 00-.315-.423l-.004-.005a5.19 5.19 0 00-.369-.41h.024c.16.021.323.033.486.034h.031c.15 0 .301-.01.45-.029.047-.005.094-.014.14-.021.122-.02.242-.043.36-.073l.103-.026a4.1 4.1 0 00.457-.156 4.543 4.543 0 013.041 4.308v1.143z" fill="#009D98"/></g><defs><clipPath id="clip0"><path fill="#fff" d="M0 0h16v16H0z"/></clipPath></defs></svg>