<svg width="21" height="30" fill="none" xmlns="http://www.w3.org/2000/svg"><g clip-path="url(#clip0)" fill="#188182"><path d="M17.599 7.18h-.939V3.03c0-1.01-.807-1.833-1.798-1.833h-.573V.239h.573c1.51 0 2.737 1.252 2.737 2.791v4.15zm-13.259 0H3.4V3.03C3.4 1.491 4.628.24 6.137.24h.572v.957h-.572c-.99 0-1.798.823-1.798 1.833v4.15zm8.555-5.744H8.107a.71.71 0 01-.704-.718A.71.71 0 018.107 0h4.788c.39 0 .704.32.704.718a.712.712 0 01-.704.718zM4.373 28.325v.718c0 .529.42.957.939.957a.948.948 0 00.938-.957v-.718H4.373zm10.374 0v.718c0 .529.42.957.939.957a.948.948 0 00.939-.957v-.718h-1.878zm-7.015-7.116L1.669 27.39c.382.187.81.295 1.263.295h8.194l-3.394-6.477zM0 15.682v7.772l4.967-5.065L0 15.682z"/><path d="M18.068 6.264H2.93C1.312 6.264 0 7.602 0 9.25v3.434l1.183.16.852-.868a.763.763 0 011.091 0 .8.8 0 010 1.113l-.018.02 6.206.846 2.307-2.352a7.76 7.76 0 011.467-1.176 7.203 7.203 0 011.673-.766c.503-.155.963-.023 1.256.278.296.302.425.768.272 1.28a7.7 7.7 0 01-.75 1.707 7.892 7.892 0 01-1.153 1.496l-2.307 2.353.83 6.328.02-.019a.763.763 0 011.09 0 .8.8 0 010 1.113l-.851.869.342 2.619h4.56c1.62 0 2.932-1.338 2.932-2.99V9.251C21 7.6 19.688 6.264 18.068 6.264z"/></g><defs><clipPath id="clip0"><path fill="#fff" d="M0 0h21v30H0z"/></clipPath></defs></svg>