<svg width="20" height="20" fill="none" xmlns="http://www.w3.org/2000/svg"><g clip-path="url(#clip0)"><path d="M19.948 7.672a1.061 1.061 0 00-.915-.731l-5.773-.524-2.282-5.343a1.063 1.063 0 00-1.955.001L6.74 6.417.967 6.94A1.063 1.063 0 00.363 8.8l4.364 3.827-1.287 5.667a1.063 1.063 0 001.58 1.149L10 16.468l4.978 2.976a1.063 1.063 0 001.582-1.148l-1.287-5.668 4.363-3.826c.321-.281.444-.724.312-1.13z" fill="#FFC107"/></g><defs><clipPath id="clip0"><path fill="#fff" d="M0 0h20v20H0z"/></clipPath></defs></svg>