<svg width="16" height="16" fill="none" xmlns="http://www.w3.org/2000/svg"><g clip-path="url(#clip0)" fill="#188182"><path d="M9.991 2.81A1.406 1.406 0 1010.18.003a1.406 1.406 0 00-.19 2.807zM5.645 8.753a1.023 1.023 0 01-.225-.13l-.913 1.98-.683-.315a.53.53 0 00-.704.26L1.316 14.46a.53.53 0 00.26.704l.232.107a.42.42 0 00.11.69.421.421 0 00.597-.364l.233.107a.53.53 0 00.704-.26l1.804-3.912a.53.53 0 00-.182-.659l.942-2.041a1.018 1.018 0 01-.37-.079z"/><path d="M14.248 6.038l-1.906-.48-.861-.992.017-.26a.95.95 0 00-.885-1.011l-1.69-.113a.95.95 0 00-1.006.827l.386-.11-1.56.833a.642.642 0 00-.29.318L5.447 7.458a.642.642 0 101.184.495l.918-2.197 1.36-.726-.998.843-.144.344-.18 2.714h.008l.136 2.739-1.5 3.236a.77.77 0 101.397.648l1.58-3.409a.77.77 0 00.071-.362l-.137-2.748.347.023.852 2.534.324 3.705a.77.77 0 101.534-.134l-.331-3.796a.766.766 0 00-.037-.179l-.68-2.02.022.002.186-2.786.146.168c.086.1.2.17.328.202l2.102.529a.642.642 0 10.313-1.245z"/></g><defs><clipPath id="clip0"><path fill="#fff" d="M0 0h16v16H0z"/></clipPath></defs></svg>