<svg width="20" height="16" fill="none" xmlns="http://www.w3.org/2000/svg"><path d="M6.516 15.273c7.075 0 10.945-5.862 10.945-10.945 0-.167-.003-.333-.011-.498a7.826 7.826 0 001.919-1.992 7.675 7.675 0 01-2.21.606A3.86 3.86 0 0018.852.316a7.73 7.73 0 01-2.442.934 3.847 3.847 0 00-6.555 3.508 10.922 10.922 0 01-7.93-4.02 3.838 3.838 0 00-.521 1.935c0 1.334.679 2.512 1.712 3.202a3.817 3.817 0 01-1.743-.481v.049a3.848 3.848 0 003.086 3.77 3.861 3.861 0 01-1.737.067 3.851 3.851 0 003.593 2.671 7.718 7.718 0 01-4.777 1.647c-.31 0-.617-.018-.918-.053a10.89 10.89 0 005.897 1.728" fill="#fff"/></svg>