<svg width="188" height="40" fill="none" xmlns="http://www.w3.org/2000/svg"><path fill-rule="evenodd" clip-rule="evenodd" d="M0 0c.157.243.504.791 1.041 1.644.536.852 1.207 1.896 2.012 3.13a525.416 525.416 0 002.699 4.097l3.03 4.567 3.006 4.54a547.652 547.652 0 012.65 4.044 193.1 193.1 0 002.013 3.053c.551.817.89 1.33 1.017 1.538.063-.104.347-.547.852-1.33.505-.782 1.144-1.764 1.918-2.948a952.94 952.94 0 002.627-4.044 404.62 404.62 0 013.03-4.618 479.056 479.056 0 003.053-4.645c.995-1.531 1.91-2.923 2.746-4.175a385.738 385.738 0 002.107-3.184C34.369.801 34.73.243 34.89 0v39.712h-6.202V20.3c0-.279.031-.574.095-.887a4.42 4.42 0 00.094-.575L17.468 36.946c-.158-.208-.544-.782-1.16-1.722a936.042 936.042 0 00-2.2-3.34 315.872 315.872 0 01-2.7-4.149 394.954 394.954 0 00-2.674-4.12l-2.13-3.237c-.585-.887-.908-1.4-.971-1.54 0 .07.031.262.095.575a4.5 4.5 0 01.095.887v19.412H0V0zm52.767 40V1.727h22.98v5.828H58.559v10.29h15.288v5.985H58.56v10.185h17.852V40H52.767zm59.399-38.273V7.87h-8.56V40h-5.85V7.87h-8.37V1.727h22.78zm36.331 0V7.87h-8.56V40h-5.849V7.87h-8.37V1.727h22.779zm19.95 27.355h7.916l-3.432-6.439c-.033-.024-.113-.191-.24-.5a6.335 6.335 0 01-.286-.832 6.486 6.486 0 01-.286.832c-.128.309-.191.476-.191.5l-3.481 6.44zM182.229 40a521.401 521.401 0 00-1.382-2.554c-.351-.641-.732-1.35-1.146-2.128l-1.287-2.424h-11.969L162.629 40h-5.77c.126-.222.429-.771.906-1.647a597.29 597.29 0 011.789-3.257c.715-1.295 1.509-2.739 2.384-4.33a876.002 876.002 0 012.694-4.866 930.77 930.77 0 002.695-4.867c.874-1.592 1.668-3.035 2.384-4.33.715-1.296 1.312-2.38 1.789-3.257.477-.875.778-1.425.905-1.647.128.222.437.772.931 1.647.492.876 1.097 1.961 1.812 3.257a2805.53 2805.53 0 012.384 4.33 731.894 731.894 0 002.695 4.867c.921 1.653 1.819 3.275 2.694 4.866.874 1.591 1.669 3.035 2.384 4.33a597.29 597.29 0 011.789 3.257c.476.876.779 1.425.906 1.647h-5.771zM160.896 7.77V1.727h22.779V7.77h-22.779z" fill="#14C5C4"/></svg>