<svg width="83" height="83" fill="none" xmlns="http://www.w3.org/2000/svg"><circle cx="41.601" cy="41.311" r="36.75" transform="rotate(-5.605 41.601 41.31)" stroke="#fff" stroke-width="1.5"/><path d="M40.393 45.637c-.1-1.226-.03-2.227.208-3.004.238-.777.82-1.718 1.748-2.824.927-1.117 1.515-1.897 1.764-2.34.26-.455.442-.938.549-1.451.116-.525.142-1.108.08-1.75-.128-1.297-.575-2.279-1.342-2.946-.757-.68-1.753-.959-2.986-.838-1.245.122-2.215.579-2.912 1.37-.688.779-.982 1.776-.884 2.99l-1.85.182c-.147-1.702.296-3.117 1.326-4.243 1.03-1.138 2.415-1.792 4.156-1.963 1.783-.175 3.24.211 4.368 1.157 1.139.935 1.796 2.294 1.97 4.077a6.823 6.823 0 01-.452 3.232c-.412 1.024-1.264 2.26-2.556 3.705-1.075 1.1-1.52 2.588-1.336 4.464l-1.85.182zm.261 5.218a1.272 1.272 0 01.24-.918c.203-.272.507-.427.912-.467.394-.038.717.056.97.282.261.215.41.499.444.851a1.19 1.19 0 01-.272.906c-.206.25-.506.395-.9.434-.404.04-.731-.043-.982-.25a1.251 1.251 0 01-.412-.838z" fill="#fff"/></svg>