<svg width="47" height="47" fill="none" xmlns="http://www.w3.org/2000/svg"><path d="M40.059 18.732l1.417-.486C39.202 10.518 31.963 4.758 23.5 4.758S7.798 10.518 5.524 18.246l1.417.486a.616.616 0 01.315-.341h0c3.737-1.73 9.655-3.78 16.244-3.78 6.59 0 12.507 2.05 16.244 3.78h0a.616.616 0 01.315.34zm-33.47 8.12l-1.46.342C6.592 34.45 12.382 40.24 19.6 41.789l.46-1.42a.616.616 0 01-.373-.473v-.001l-.46-3.306v-.002c-.648-4.543-4.272-8.167-8.815-8.815h-.002l-3.306-.46h-.001a.627.627 0 01-.516-.46zm20.35 13.518l.46 1.42c7.218-1.549 13.008-7.34 14.473-14.596l-1.46-.342a.627.627 0 01-.516.46h-.001l-3.306.46h-.002c-4.543.648-8.167 4.272-8.815 8.815v.002l-.46 3.306s0 0 0 0a.616.616 0 01-.373.475zm1.575-3.677h0zM.75 23.5C.75 11.007 11.007.75 23.5.75S46.25 11.007 46.25 23.5 35.993 46.25 23.5 46.25.75 35.993.75 23.5zm17.87 0a4.885 4.885 0 004.88 4.88 4.885 4.885 0 004.88-4.88 4.885 4.885 0 00-4.88-4.88 4.885 4.885 0 00-4.88 4.88z" stroke="#fff" stroke-width="1.5"/></svg>