<svg width="76" height="76" fill="none" xmlns="http://www.w3.org/2000/svg"><g clip-path="url(#clip0)" fill="#fff"><path d="M48.899 31.477h-7a.865.865 0 00-.875.854v14.521h-2.625a.865.865 0 00-.875.854v10.25c0 .472.392.854.875.854h7a.865.865 0 00.875-.854v-2.562h2.625a.865.865 0 00.875-.854V32.33a.865.865 0 00-.875-.854zm-.875 22.208h-2.625a.865.865 0 00-.875.855v2.562h-5.25V48.56h2.625a.865.865 0 00.875-.854v-14.52h5.25v20.5z"/><path d="M45.399 26.352a.865.865 0 00-.875.854v10.25c0 .472.392.854.875.854a.865.865 0 00.875-.854v-10.25a.865.865 0 00-.875-.854z"/><path d="M45.399 17.81c-2.413 0-4.375 1.917-4.375 4.271 0 2.054 1.704 5.98 4.375 5.98 2.67 0 4.375-3.926 4.375-5.98 0-2.354-1.962-4.27-4.375-4.27zm0 8.542c-1.216 0-2.625-2.584-2.625-4.27 0-1.413 1.178-2.563 2.625-2.563s2.625 1.15 2.625 2.562c0 1.686-1.409 4.271-2.625 4.271zm-15.75-6.833h-1.75a.865.865 0 00-.875.854v6.833c0 .472.392.855.875.855a.865.865 0 00.875-.855v-2.562h.875c1.447 0 2.625-1.15 2.625-2.563 0-1.412-1.178-2.562-2.625-2.562zm0 3.417h-.875v-1.709h.875c.481 0 .875.383.875.855a.866.866 0 01-.875.854zm.784 11.842c1.067-.328 1.841-1.3 1.841-2.447 0-1.412-1.178-2.562-2.625-2.562h-1.75a.865.865 0 00-.875.854v6.833c0 .472.392.855.875.855a.865.865 0 00.875-.855v-1.991l1.925 2.504a.885.885 0 001.223.17.842.842 0 00.177-1.195l-1.666-2.166zm-.784-1.592h-.875v-1.709h.875c.481 0 .875.383.875.854a.866.866 0 01-.875.855zm0 6.833h-1.75a.865.865 0 00-.875.854v6.834c0 .471.392.854.875.854h1.75c1.447 0 2.625-1.15 2.625-2.563v-3.416c0-1.413-1.178-2.563-2.625-2.563zm.875 5.98a.866.866 0 01-.875.853h-.875v-5.125h.875c.481 0 .875.383.875.855v3.416zm.875 4.27a.865.865 0 00-.875.854v3.215l-1.841-3.598a.88.88 0 00-.985-.45.858.858 0 00-.674.833v6.833c0 .471.392.854.875.854a.865.865 0 00.875-.854v-3.215l1.843 3.598a.876.876 0 00.983.449.858.858 0 00.674-.832v-6.833a.865.865 0 00-.875-.854z"/></g><circle cx="38.399" cy="38.31" r="36.75" stroke="#fff" stroke-width="1.5"/><defs><clipPath id="clip0"><path fill="#fff" transform="translate(17.399 17.81)" d="M0 0h42v41H0z"/></clipPath></defs></svg>