<svg width="76" height="76" fill="none" xmlns="http://www.w3.org/2000/svg"><circle cx="38.321" cy="38.31" r="36.75" stroke="#fff" stroke-width="1.5"/><path fill-rule="evenodd" clip-rule="evenodd" d="M22.567 21.529c-.43.212-.423.13-.403 4.418l.019 3.868.215.193c.31.277.718.272 1-.01l.204-.204v-1.117c0-.614.022-1.117.05-1.117.026 0 .773.58 1.66 1.289 1.53 1.224 1.78 1.388 2.083 1.366.503-.035.796-.652.513-1.08-.064-.096-.589-.554-1.167-1.018-.995-.797-1.044-.847-.891-.908 1.167-.468 1.82-1.13 2.082-2.114.173-.651.077-1.47-.246-2.104-.22-.43-.803-.997-1.264-1.23-.572-.287-.936-.339-2.384-.337-1.01.001-1.303.022-1.471.105zm11.74 0c-.19.097-.322.32-1.04 1.753-.452.904-.821 1.718-.821 1.809 0 .264.173.529.425.648.305.145.71.05.878-.208.112-.17.117-.1.149 2.01.031 2.09.039 2.196.17 2.374.156.209.49.346.732.3.088-.017.248-.119.355-.226l.195-.195v-7.907l-.182-.202a.695.695 0 00-.861-.155zm7.72-.036c-.72.142-1.423.646-1.814 1.302-.323.543-.408.92-.408 1.81v.775l.207.207a.711.711 0 001.191-.277c.044-.123.08-.49.083-.814.005-.746.15-1.088.581-1.361.988-.627 2.332.012 2.325 1.107-.003.531-.177.75-2.327 2.906-2.003 2.009-2.057 2.071-2.057 2.324 0 .16.052.332.136.445.25.337.44.359 2.93.337 2.046-.019 2.294-.033 2.448-.137.21-.143.324-.38.324-.674 0-.274-.29-.591-.599-.653-.115-.023-.776-.042-1.468-.042h-1.257l1.421-1.435c.782-.79 1.474-1.537 1.537-1.66.758-1.473.3-3.076-1.111-3.89-.511-.295-1.427-.41-2.142-.27zm8.127.049c-.647.23-1.015.553-1.336 1.175-.153.297-.243.845-.18 1.099a.7.7 0 00.675.51c.409 0 .658-.228.754-.69.084-.406.296-.659.604-.72.398-.08 1.636-.045 1.869.052a.714.714 0 01-.036 1.338c-.128.045-.6.08-1.09.083-.77.003-.886.018-1.039.139a.735.735 0 00-.216.862c.179.376.302.417 1.328.44 1.476.033 1.518.072 1.518 1.44 0 1.427-.052 1.478-1.508 1.478h-.953l-.203-.19a.782.782 0 01-.246-.456c-.099-.62-.538-.925-1.033-.718-.865.361-.372 2.039.768 2.608.368.184.922.271 1.723.273 1.157.001 1.807-.198 2.287-.703.544-.571.673-1.075.64-2.497l-.023-1.002-.252-.496-.252-.496.195-.308c.378-.596.414-1.493.086-2.136-.196-.384-.638-.802-1.054-.996-.352-.165-.438-.175-1.528-.192-.985-.016-1.206 0-1.498.103zm-24.407 1.51c.145.077.329.21.408.294.216.233.414.716.414 1.013 0 .298-.197.781-.414 1.013-.342.367-.599.438-1.596.439h-.924l-.018-1.384c-.01-.761-.002-1.425.017-1.476.028-.074.21-.086.942-.064.758.023.95.05 1.17.166zm-1.756 8.776c-.288.179-.345.343-.375 1.078-.039.937.077 1.994.288 2.633.514 1.554 1.85 2.837 3.455 3.316.481.144.612.15 3.516.173l3.017.024.02 2.685c.017 2.438.03 2.702.135 2.858a.687.687 0 001.054.13l.216-.192.033-2.728.033-2.728 3.68-.017 3.679-.017v5.403l.169.201a.715.715 0 001.158-.086c.116-.19.124-.378.124-2.86v-2.657h4.132c4.522 0 4.38.012 4.592-.384.128-.24.128-6.318 0-6.557-.252-.471-.946-.505-1.248-.061-.106.156-.118.42-.136 2.86l-.019 2.69h-7.32v-2.656c0-2.483-.009-2.67-.125-2.86a.715.715 0 00-1.158-.086l-.17.2v5.403l-3.679-.017-3.68-.017-.032-2.728-.033-2.728-.216-.192a.687.687 0 00-1.054.131c-.106.156-.118.42-.136 2.86l-.019 2.69h-2.72c-3.014-.002-3.26-.027-4.045-.407-.519-.25-1.222-.898-1.505-1.386-.394-.678-.458-.979-.5-2.332-.031-1.04-.057-1.283-.153-1.425a.729.729 0 00-.978-.214zm16.315 14.627c-.414.148-.498.349-.523 1.246-.037 1.306.125 1.908.658 2.44.454.455.88.606 1.839.655.644.033.882.072 1.089.178.856.441 1.083 1.493.479 2.226a1.422 1.422 0 01-1.522.466c-.593-.178-.94-.588-1.043-1.232-.036-.224-.095-.463-.13-.53-.172-.319-.702-.434-1.025-.222-.276.18-.367.487-.295.993.227 1.6 1.773 2.747 3.351 2.486 2.362-.392 3.286-3.262 1.594-4.953-.608-.608-1.096-.794-2.26-.86-.849-.048-.85-.048-1.04-.26-.172-.193-.188-.255-.188-.706v-.494h1.773c.976 0 1.869-.019 1.984-.042.308-.061.599-.378.599-.653 0-.294-.114-.53-.324-.673-.155-.105-.398-.118-2.481-.131-1.688-.011-2.37.007-2.535.066zm-7.586.148c-.173.146-.296.459-.962 2.459-.42 1.26-.764 2.375-.764 2.477 0 .229.102.438.288.588.122.1.305.115 1.373.116l1.232.001.022 1.238c.024 1.366.047 1.453.44 1.64.284.134.6.078.809-.145.154-.163.16-.21.192-1.434l.033-1.266.534-.033c.586-.036.72-.105.861-.441.117-.28.052-.563-.18-.785-.166-.16-.253-.185-.719-.212l-.53-.03v-.482c0-.42-.02-.507-.168-.682a.67.67 0 00-.832-.179c-.311.148-.403.331-.438.88l-.03.48h-1.166l.591-1.724c.326-.947.592-1.817.592-1.932 0-.21-.136-.465-.327-.616-.185-.145-.633-.102-.851.082z" fill="#fff"/></svg>