<svg width="48" height="50" fill="none" xmlns="http://www.w3.org/2000/svg"><circle cx="24" cy="24" r="23.25" stroke="#fff" stroke-width="1.5"/><path d="M18.848 33V15.336h6.384c3.04 0 4.56 1.512 4.56 4.536 0 1.104-.248 1.992-.744 2.664-.48.672-1.064 1.104-1.752 1.296.432.096.888.304 1.368.624.48.304.888.752 1.224 1.344.352.592.528 1.36.528 2.304 0 1.264-.2 2.248-.6 2.952a3.41 3.41 0 01-1.704 1.512c-.736.288-1.616.432-2.64.432h-6.624zm1.92-9.84h4.584c.752 0 1.368-.272 1.848-.816.496-.544.752-1.28.768-2.208.032-1.136-.216-1.928-.744-2.376-.512-.464-1.176-.696-1.992-.696h-4.464v6.096zm0 8.136h4.656c.624 0 1.176-.096 1.656-.288.48-.208.848-.56 1.104-1.056.272-.512.408-1.232.408-2.16 0-.992-.312-1.76-.936-2.304-.608-.544-1.352-.816-2.232-.816h-4.656v6.624z" fill="#fff"/></svg>