<svg width="48" height="50" fill="none" xmlns="http://www.w3.org/2000/svg"><path d="M24.632 33.144c-1.056 0-1.976-.12-2.76-.36a3.956 3.956 0 01-1.944-1.296c-.512-.64-.896-1.552-1.152-2.736-.24-1.184-.36-2.728-.36-4.632 0-1.792.128-3.264.384-4.416.256-1.168.64-2.08 1.152-2.736a4.115 4.115 0 011.992-1.368c.8-.272 1.744-.408 2.832-.408.496 0 1.048.032 1.656.096.608.048 1.208.12 1.8.216a16.56 16.56 0 011.608.336v1.416a40.99 40.99 0 00-1.152-.12 32.4 32.4 0 00-1.704-.168 25.034 25.034 0 00-1.92-.072c-.848 0-1.576.104-2.184.312a2.868 2.868 0 00-1.488 1.08c-.368.512-.64 1.248-.816 2.208-.176.944-.264 2.16-.264 3.648 0 1.536.08 2.784.24 3.744.176.96.44 1.696.792 2.208.368.512.848.864 1.44 1.056.608.192 1.352.288 2.232.288 1.2 0 2.184-.032 2.952-.096a23.903 23.903 0 001.872-.216v1.44a22.28 22.28 0 01-2.496.432c-.912.096-1.816.144-2.712.144z" fill="#1D873A"/><circle cx="24" cy="24" r="23.25" stroke="#1D873A" stroke-width="1.5"/></svg>