<svg width="23" height="23" fill="none" xmlns="http://www.w3.org/2000/svg"><g clip-path="url(#clip0)" fill="#E2B146"><path d="M21.127 5.211h1.047a.45.45 0 000-.898h-1.961a.45.45 0 00-.45.449v1.961a.45.45 0 00.899 0v-.557c2.378 4.09 1.745 9.414-1.668 12.827a10.59 10.59 0 01-11.456 2.34.45.45 0 00-.335.833 11.486 11.486 0 0012.427-2.537 11.5 11.5 0 001.498-14.417zM2.847 15.844a.45.45 0 00-.45.449v.64C-.05 12.83.565 7.444 4.006 4.003A10.579 10.579 0 0115.523 1.69a.45.45 0 10.34-.831 11.495 11.495 0 00-6.54-.65 11.439 11.439 0 00-5.953 3.16 11.5 11.5 0 00-1.458 14.477H.844a.45.45 0 000 .898h2.003a.45.45 0 00.449-.449v-2.002a.449.449 0 00-.45-.45z"/><path d="M19.763 11.955a.45.45 0 000-.898h-.272a.45.45 0 100 .898h.272zm-16.526-.913a.45.45 0 000 .899h.272a.45.45 0 100-.899h-.272zm8.719-7.534v-.272a.45.45 0 10-.898 0v.272a.45.45 0 00.898 0zm-.912 15.982v.272a.45.45 0 00.898 0v-.273a.45.45 0 10-.898 0zM9.294 8.658a.45.45 0 00-.635.635l1.491 1.49a1.53 1.53 0 001.35 2.243 1.53 1.53 0 001.35-2.242l3.013-3.013a.45.45 0 10-.635-.635l-3.013 3.013a1.519 1.519 0 00-1.43 0L9.294 8.658zm2.836 2.84a.63.63 0 11-1.261 0 .63.63 0 011.26 0z"/></g><defs><clipPath id="clip0"><path fill="#fff" d="M0 0h23v23H0z"/></clipPath></defs></svg>