<svg width="23" height="23" fill="none" xmlns="http://www.w3.org/2000/svg"><path d="M18.62 8.469h-1.448l.436-5.01.001-.026V3.43a.337.337 0 00-.203-.31l-.003-.001a.33.33 0 00-.023-.008l-.008-.004-.02-.005c-.005 0-.009-.002-.014-.003l-.017-.003-.016-.002h-.021l-.012-.001h-6.894a.337.337 0 000 .673h6.527l-.67 7.699v.002l-.17 1.942H4.358l.196-2.021h2.23a.337.337 0 000-.674H4.618l.414-4.267H8.58a.337.337 0 100-.674H5.098l.195-2.007H9.03a.338.338 0 000-.673H4.987a.337.337 0 00-.33.265v.004a.362.362 0 00-.004.025l-.001.008v.002l-.23 2.376H.336a.337.337 0 100 .674h4.019l-.414 4.267H2.74a.337.337 0 100 .674h1.137l-.225 2.323v.001l-.348 3.593v.003l-.001.014-.001.018.001.027v.008l.005.026v.007l.006.02.003.013.001.003a.35.35 0 00.08.132l.002.002.012.01a.32.32 0 00.078.054l.018.009.006.002a.372.372 0 00.025.009h.003c.01.004.02.006.03.008l.004.001.03.004a.332.332 0 00.033.002h1.5a2.569 2.569 0 002.543 2.228c1.3 0 2.377-.972 2.542-2.228h5.404a2.569 2.569 0 002.543 2.228c1.3 0 2.377-.972 2.542-2.228h1.501c.012 0 .023 0 .034-.002h.005a.276.276 0 00.026-.004l.011-.003a.335.335 0 00.05-.015l.013-.006a.502.502 0 00.042-.023l.012-.008a.259.259 0 00.014-.01l.01-.01a.258.258 0 00.014-.011l.01-.01a.32.32 0 00.034-.041l.005-.006a.343.343 0 00.015-.026l.001-.002a.333.333 0 00.014-.028l.003-.009.008-.021.004-.014.004-.017.003-.016.002-.013a119.1 119.1 0 00.396-3.6v-.004c.034-.395.056-.727.056-.93a4.385 4.385 0 00-4.38-4.38zm-1.507.674h1.379l-.176 2.021h-1.379l.176-2.021zm-9.431 10.09a1.894 1.894 0 01-1.891-1.892c0-1.043.848-1.891 1.891-1.891 1.043 0 1.891.848 1.891 1.891a1.894 1.894 0 01-1.891 1.891zm10.489 0a1.894 1.894 0 01-1.892-1.892c0-1.043.849-1.891 1.892-1.891s1.891.848 1.891 1.891a1.894 1.894 0 01-1.891 1.891zm3.745-2.229h-1.203a2.569 2.569 0 00-2.542-2.228c-1.3 0-2.377.972-2.542 2.228h-5.405a2.568 2.568 0 00-2.542-2.228c-1.3 0-2.377.972-2.542 2.228H4.01l.283-2.92h12.081c.012 0 .023 0 .034-.002h.006a.367.367 0 00.026-.005l.011-.002.02-.005a.277.277 0 00.059-.024l.014-.008.013-.008a.283.283 0 00.013-.01c.005-.002.009-.006.013-.009a.344.344 0 00.012-.01l.012-.01a.24.24 0 00.022-.024l.009-.01.01-.015a.31.31 0 00.044-.084l.005-.015.004-.016.004-.016.002-.016.003-.016v-.003l.169-1.938h1.741c1.032 0 1.498.535 1.99 1.1.407.468.861.99 1.633 1.117a125.813 125.813 0 01-.327 2.949zm.385-3.625c-.5-.102-.809-.454-1.182-.882-.467-.536-1.037-1.19-2.129-1.313l.175-2a3.712 3.712 0 013.161 3.665c0 .126-.01.31-.025.53z" fill="#E2B146"/><path d="M7.682 16.106a1.236 1.236 0 10.001 2.469 1.236 1.236 0 00-.001-2.469zm0 1.796a.562.562 0 11.001-1.124.562.562 0 010 1.125zm10.488-1.796c-.68 0-1.235.554-1.235 1.235s.555 1.235 1.236 1.235c.681 0 1.235-.554 1.235-1.235s-.554-1.235-1.235-1.235zm0 1.796a.562.562 0 11.002-1.124.562.562 0 01-.001 1.125zM3.19 8.47H1.542a.337.337 0 100 .673H3.19a.337.337 0 100-.674zm5.39-2.024H.337a.337.337 0 110-.674h8.245a.337.337 0 110 .674zm0 4.947H.337a.337.337 0 110-.674h8.245a.337.337 0 110 .674z" fill="#E2B146"/></svg>