<svg width="23" height="23" fill="none" xmlns="http://www.w3.org/2000/svg"><path d="M13.533 18.31a.31.31 0 01-.059-.616c.292-.055.577-.139.853-.249a.31.31 0 01.234.576 5.182 5.182 0 01-.97.284.316.316 0 01-.058.005z" fill="#E2B146"/><path d="M6.54 22.381a2.067 2.067 0 01-1.32-.45c-.616.055-1.653-.217-2.073-1.59-.462-.371-1.034-1.333-.399-2.804a.311.311 0 01.285-.187c.041 0 3.96-.03 5.626-2.675-1.464-.549-6.635-3.082-7.077-11.613a.31.31 0 01.45-.296l6.812 3.388a4.452 4.452 0 012.105 2.225c.4.927 1.091 2.151 2.118 2.717.294.163.636.218.966.155.459-.091 1.14-.393 1.772-1.313a2.903 2.903 0 012.266-1.334 2.112 2.112 0 011.907.89c.157.24.26.514.3.799l1.049 1.064a.311.311 0 01-.236.528c-.069 0-1.771-.042-2.707 1.927a.31.31 0 01-.561-.267 3.775 3.775 0 012.613-2.207l-.677-.687a.311.311 0 01-.088-.194 1.315 1.315 0 00-.213-.623 1.496 1.496 0 00-1.348-.61 2.284 2.284 0 00-1.793 1.07c-.75 1.091-1.591 1.456-2.164 1.57-.473.09-.963.012-1.384-.221-1.183-.653-1.953-2-2.39-3.015-.359-.832-1-1.51-1.811-1.914l-6.33-3.15c.698 8.973 6.89 10.618 6.953 10.634a.311.311 0 01.2.445c-1.52 2.923-5.208 3.28-6.145 3.322-.494 1.345.305 1.904.342 1.927a.318.318 0 01.129.178c.392 1.44 1.492 1.238 1.538 1.228a.31.31 0 01.27.076c.79.72 1.91.231 2.28.037a5.801 5.801 0 011.048-2.398c.326-.622 1.037-1.032 2.113-1.216a.311.311 0 01.105.613c-.61.104-1.396.346-1.676.908a.34.34 0 01-.033.051 5.14 5.14 0 00-.959 2.263.311.311 0 01-.142.233 3.574 3.574 0 01-1.722.517zm9.719-5.535a.311.311 0 01-.216-.535c.218-.21.42-.434.603-.674a.31.31 0 11.493.378 6.602 6.602 0 01-.666.744.31.31 0 01-.214.087z" fill="#E2B146"/><path d="M14.093 11.869a.311.311 0 01-.23-.102c-.054-.06-1.336-1.51-1.133-4.72a1.354 1.354 0 00-.158-.745c-.975-1.76-3.323-3.408-5.765-4.934a3.99 3.99 0 00.273 3.958.31.31 0 11-.525.334 4.593 4.593 0 01-.121-4.9.31.31 0 01.423-.092C9.467 2.284 12.034 4.05 13.116 6c.18.332.262.709.235 1.085-.187 2.925.962 4.25.974 4.264a.311.311 0 01-.232.518zM3.464 20.464c-.041 0-.066 0-.073-.002a.31.31 0 01-.287-.333.315.315 0 01.332-.287c.053.004 1.212.053 2.21-1.393a.31.31 0 11.511.352c-1.076 1.56-2.371 1.663-2.693 1.663zm1.851 1.452a.311.311 0 01-.14-.589 4.45 4.45 0 001.6-1.547.311.311 0 01.534.319 5.002 5.002 0 01-1.855 1.782.307.307 0 01-.14.035zM18.26 10.568h-.104a.31.31 0 110-.622h.104a.31.31 0 010 .622z" fill="#E2B146"/></svg>