<svg width="30" height="30" fill="none" xmlns="http://www.w3.org/2000/svg"><path d="M21.067 14.982a.55.55 0 01-.549.549h-4.957v4.957a.55.55 0 01-1.098 0v-4.957H9.505a.55.55 0 010-1.099h4.957V9.475a.55.55 0 111.1 0v4.957h4.956a.55.55 0 01.55.55z" fill="#000"/><path fill="url(#paint0_linear)" d="M1.538 1.539h3.077v3.077H1.538z"/><path fill="url(#paint1_linear)" d="M1.538 13.59h3.077v3.077H1.538z"/><path fill="url(#paint2_linear)" d="M1.538 25.641h3.077v3.077H1.538z"/><path fill="url(#paint3_linear)" d="M13.59 25.641h3.077v3.077H13.59z"/><path fill="url(#paint4_linear)" d="M25.641 25.641h3.077v3.077h-3.077z"/><path fill="url(#paint5_linear)" d="M25.385 13.334h3.077v3.077h-3.077z"/><path fill="url(#paint6_linear)" d="M25.385 1.539h3.077v3.077h-3.077z"/><path fill="url(#paint7_linear)" d="M13.333 1.539h3.077v3.077h-3.077z"/><path d="M28.498 5.318a.55.55 0 00.55-.549V1.472a.55.55 0 00-.55-.55h-3.296a.55.55 0 00-.55.55v1.1h-1.794a.55.55 0 000 1.098h1.794v1.1a.55.55 0 00.55.548H26.3v7.494h-1.1a.55.55 0 00-.549.55v3.297a.55.55 0 00.55.549H26.3v7.445h-1.1a.55.55 0 00-.549.549v1.099H17.21v-1.099a.55.55 0 00-.549-.55h-3.297a.55.55 0 00-.55.55v1.099H5.319v-1.099a.55.55 0 00-.55-.55H3.67v-7.444h1.1a.55.55 0 00.55-.55v-3.296a.55.55 0 00-.55-.55h-1.1V5.318h1.1a.55.55 0 00.55-.549V3.67h7.495v1.1a.55.55 0 00.55.548h3.296a.55.55 0 00.55-.549V3.67h1.794a.55.55 0 100-1.099H17.21V1.472a.55.55 0 00-.549-.55h-3.297a.55.55 0 00-.55.55v1.1H5.319v-1.1a.55.55 0 00-.55-.55H1.473a.55.55 0 00-.55.55V4.77c0 .303.247.55.55.55h1.1v7.493h-1.1a.55.55 0 00-.55.55v3.297a.55.55 0 00.55.549h1.1v7.445h-1.1a.55.55 0 00-.55.549v3.296c0 .304.247.55.55.55H4.77a.55.55 0 00.55-.55V27.4h7.495v1.1a.55.55 0 00.55.549h3.296a.55.55 0 00.55-.55V27.4h7.442v1.1a.55.55 0 00.55.549h3.296a.55.55 0 00.55-.55v-3.296a.55.55 0 00-.55-.55H27.4v-7.444h1.1a.55.55 0 00.549-.55v-3.296a.55.55 0 00-.55-.55H27.4V5.318h1.1zM13.912 2.021h2.199V4.22h-2.199v-2.2zM2.022 4.22v-2.2h2.197v2.2H2.021zm0 11.89v-2.2h2.197v2.2H2.021zm2.197 11.84H2.021v-2.2H4.22v2.198zm11.892 0h-2.199v-2.2h2.199v2.198zm11.838-2.199v2.198h-2.198v-2.198h2.198zm0-11.84v2.198h-2.198v-2.198h2.198zM25.751 4.22v-2.2h2.198v2.2h-2.198z" fill="#000"/><path d="M20.932 3.67a.55.55 0 010-1.098.55.55 0 110 1.098z" fill="#000"/><defs><linearGradient id="paint0_linear" x1="1.538" y1=".898" x2="4.615" y2="5.385" gradientUnits="userSpaceOnUse"><stop stop-color="#FF5B14"/><stop offset="1" stop-color="#FF7F47"/></linearGradient><linearGradient id="paint1_linear" x1="1.538" y1="12.949" x2="4.615" y2="17.436" gradientUnits="userSpaceOnUse"><stop stop-color="#FF5B14"/><stop offset="1" stop-color="#FF7F47"/></linearGradient><linearGradient id="paint2_linear" x1="1.538" y1="25" x2="4.615" y2="29.487" gradientUnits="userSpaceOnUse"><stop stop-color="#FF5B14"/><stop offset="1" stop-color="#FF7F47"/></linearGradient><linearGradient id="paint3_linear" x1="13.59" y1="25" x2="16.667" y2="29.487" gradientUnits="userSpaceOnUse"><stop stop-color="#FF5B14"/><stop offset="1" stop-color="#FF7F47"/></linearGradient><linearGradient id="paint4_linear" x1="25.641" y1="25" x2="28.718" y2="29.487" gradientUnits="userSpaceOnUse"><stop stop-color="#FF5B14"/><stop offset="1" stop-color="#FF7F47"/></linearGradient><linearGradient id="paint5_linear" x1="25.385" y1="12.693" x2="28.462" y2="17.18" gradientUnits="userSpaceOnUse"><stop stop-color="#FF5B14"/><stop offset="1" stop-color="#FF7F47"/></linearGradient><linearGradient id="paint6_linear" x1="25.385" y1=".898" x2="28.462" y2="5.385" gradientUnits="userSpaceOnUse"><stop stop-color="#FF5B14"/><stop offset="1" stop-color="#FF7F47"/></linearGradient><linearGradient id="paint7_linear" x1="13.333" y1=".898" x2="16.41" y2="5.385" gradientUnits="userSpaceOnUse"><stop stop-color="#FF5B14"/><stop offset="1" stop-color="#FF7F47"/></linearGradient></defs></svg>