<svg width="59" height="59" fill="none" xmlns="http://www.w3.org/2000/svg"><path d="M15.614 13.194l2.478 3.688h.922v-1.844l1.383-1.844 5.473-2.88 11.985 2.88 1.728 1.21.346 3.457 2.823-2.823.98-2.88-1.499-4.322-2.304-2.939-4.322-2.074H24.026l-4.09 1.037-3.227 2.996-1.095 6.338z" fill="url(#paint0_linear)"/><path d="M56.499 24.008l-7.22-2.166 2.82-1.693a.922.922 0 000-1.58l-2.82-1.692 7.22-2.166a.922.922 0 00-.011-1.769l-5.056-1.444 5.495-6.281a.922.922 0 00-.921-1.502L49.78 5.272V2.766a.923.923 0 00-1.397-.79L43.775 4.74l.95 1.58 3.212-1.927v2.06a.923.923 0 001.146.893L53.6 6.218l-4.517 5.162a.922.922 0 00.44 1.494l3.426.979-6.203 1.861a.922.922 0 00-.21 1.673l3.297 1.972-3.292 1.976a.922.922 0 00.21 1.673l4.76 1.428-4.588.461a.922.922 0 00-.811 1.098l.61 3.051-4.025-1.34-.582 1.75 5.531 1.844a.93.93 0 00.291.044.923.923 0 00.904-1.107l-.72-3.609 8.205-.816a.922.922 0 00.173-1.8v-.005z" fill="#000"/><path d="M50.897 40.58L38.34 37.89l-3.19-4.426a11.063 11.063 0 005.365-8.573h.968a2.774 2.774 0 002.766-2.766v-1.844a2.759 2.759 0 00-2.415-2.729l1.07-1.069a4.602 4.602 0 001.345-3.263v-1.236a10.147 10.147 0 00-10.14-10.14h-9.22a10.147 10.147 0 00-10.14 10.14v1.236a4.603 4.603 0 001.346 3.263l1.07 1.07a2.758 2.758 0 00-2.416 2.728v1.844a2.774 2.774 0 002.766 2.766h.968a11.062 11.062 0 005.365 8.573l-3.19 4.425-12.556 2.692a.922.922 0 00-.728.903v11.063a.93.93 0 00.765.913l21.203 3.687c.104.012.21.012.314 0l21.203-3.688a.93.93 0 00.765-.912V41.484a.921.921 0 00-.728-.903zm-8.49-20.299v1.844a.922.922 0 01-.923.922h-.922v-3.688h.922a.921.921 0 01.922.922zm-23.97 2.766h-.921a.922.922 0 01-.922-.922v-1.844a.922.922 0 01.922-.922h.922v3.688zm0-9.219v2.388l-1.032-1.042a2.766 2.766 0 01-.811-1.954v-1.236a8.31 8.31 0 018.297-8.296h9.218a8.31 8.31 0 018.297 8.296v1.236c0 .733-.292 1.436-.811 1.954l-1.032 1.042v-2.388a.922.922 0 00-.683-.894L26.052 9.246a.972.972 0 00-.7.093l-6.454 3.687a.922.922 0 00-.46.802zm1.844 10.14v-9.605l5.66-3.236 12.778 3.411v9.43a9.219 9.219 0 01-18.438 0zm29.5 27.805L29.5 55.294 9.219 51.773V42.23l12.178-2.609a.88.88 0 00.553-.369l3.586-4.968c2.549.995 5.38.995 7.928 0l3.586 4.968a.88.88 0 00.553.37l12.178 2.608v9.541z" fill="#000"/><path d="M10.159 30.238a.921.921 0 001.157 1.066l6.453-1.844-.507-1.771-5.001 1.431.627-3.123a.92.92 0 00-.812-1.098l-4.588-.461 4.76-1.428a.922.922 0 00.211-1.673l-3.292-1.978 3.292-1.975a.922.922 0 00-.21-1.673l-6.203-1.862 3.426-.979a.922.922 0 00.44-1.493L5.395 6.214l4.517 1.13a.922.922 0 001.15-.89v-2.06l3.213 1.927.95-1.58-4.61-2.765a.922.922 0 00-1.396.79v2.506l-6.23-1.557a.922.922 0 00-.917 1.502l5.496 6.28-5.056 1.445a.922.922 0 00-.011 1.77l7.22 2.165-2.82 1.692a.922.922 0 000 1.58l2.82 1.693-7.22 2.166a.922.922 0 00.172 1.805l8.205.82-.719 3.605zm16.557 7.374l-1.807.362.922 4.61a.922.922 0 00.903.744h1.844v-1.844H27.49l-.774-3.872zm6.454 4.978l.92-4.609-1.806-.369-.774 3.872h-1.088v1.844h1.844a.922.922 0 00.903-.737zm-8.28 2.582h-9.218a.922.922 0 00-.894.698l-.922 3.687 1.788.448.748-2.99h8.222l2.533 1.69 1.024-1.535-2.766-1.843a.927.927 0 00-.514-.155zm8.708.155l-2.766 1.843 1.023 1.535 2.53-1.69h8.22l.748 2.99 1.788-.448-.922-3.687a.922.922 0 00-.891-.698h-9.219a.927.927 0 00-.511.155zm-5.942-26.889a.922.922 0 00-.369-.738L23.6 14.934l-1.106 1.475 2.704 2.029-2.704 2.028L23.6 21.94l3.687-2.766a.922.922 0 00.37-.738zM35.4 21.94l1.106-1.474-2.704-2.029 2.704-2.028-1.106-1.475-3.688 2.766a.922.922 0 000 1.475l3.688 2.766zm-3.646 7.32l1.023-1.534a5.9 5.9 0 00-6.554 0l1.023 1.534a4.057 4.057 0 014.508 0z" fill="#000"/><defs><linearGradient id="paint0_linear" x1="29.673" y1="2.823" x2="29.673" y2="17.861" gradientUnits="userSpaceOnUse"><stop stop-color="#FF5B14"/><stop offset="1" stop-color="#FF7F47"/></linearGradient></defs></svg>