<svg width="73" height="73" fill="none" xmlns="http://www.w3.org/2000/svg"><g clip-path="url(#clip0)"><path fill="url(#paint0_linear)" d="M17.822 15.113h24.096v4.848H17.822z"/><path d="M52.754 55.962l-6.416-2.139 1.497 8.84 4.919-6.701z" fill="url(#paint1_linear)"/><path d="M71.303 16.518a1.07 1.07 0 00-.635-.517l-3.558-1.06.64-2.139a2.314 2.314 0 00-.18-1.781 2.351 2.351 0 00-.437-.576l1.185-3.962a3.964 3.964 0 00-2.662-4.925 3.936 3.936 0 00-3.018.312 3.925 3.925 0 00-1.912 2.347L59.54 8.18a2.334 2.334 0 00-1.744 1.437L48.624.88l-.161-.154c-.192-.184-.372-.356-.58-.486a1.1 1.1 0 00-.029-.019l-.011-.007a1.06 1.06 0 00-.268-.122A1.615 1.615 0 0047.021 0H3.593a2.027 2.027 0 00-2.025 2.024v30.599a1.07 1.07 0 102.139 0V2.139h42.494l-.007 6.175a4.921 4.921 0 004.916 4.916h5.595L52.31 27.932a1.07 1.07 0 002.049.613l4.795-16.036a1.17 1.17 0 00.024-.08l.602-2.015a.205.205 0 01.248-.13l5.545 1.656a.19.19 0 01.115.095.192.192 0 01.015.15l-.945 3.162-.003.007c0 .002 0 .005-.002.007l-11.66 38.995-1.935-.577-3.988-1.19 5.775-19.308a1.07 1.07 0 00-2.049-.612l-6.081 20.333-.005.019-.01.038a1.048 1.048 0 00-.028.211l-.002.032c0 .04.002.081.006.122v.003l.592 5.276.423 3.735c-.405-.266-.71-.728-1.075-1.325-.45-.732-1.064-1.734-2.242-1.513-.989.19-1.454 1.017-1.904 1.816-.233.415-.474.844-.81 1.27-.25.317-.417.407-.471.41-.043.003-.292-.02-.993-.718-1.834-1.82-3.26-.578-3.946.018-.256.223-.546.475-.736.51-.18.03-.51-.154-.883-.496a1.07 1.07 0 10-1.445 1.576c2.189 2.007 3.728.667 4.468.024.181-.158.483-.421.587-.44.002 0 .147.026.448.325.67.667 1.486 1.34 2.492 1.34.046 0 .092-.002.138-.004.74-.045 1.42-.456 2.021-1.221.438-.557.747-1.105.995-1.545.089-.158.194-.346.292-.501l.166.267c.6.98 1.71 2.786 4.175 2.58h.014c.158 0 .3-.036.423-.091.019-.008.036-.017.054-.026l.01-.005c.053-.026.102-.056.149-.09a2.093 2.093 0 00.373-.35l6.543-7.879c.01-.012.018-.025.027-.037a1.21 1.21 0 00.095-.149l.018-.031c.023-.048.042-.097.057-.147l.005-.013 3.008-10.059v24.927H3.707V37.566a1.07 1.07 0 10-2.139 0v33.406A2.03 2.03 0 003.593 73h54.36a2.03 2.03 0 002.029-2.028v-32.19l6.516-21.793 2.533.756-4.345 14.531a1.07 1.07 0 102.049.613l4.652-15.557a1.07 1.07 0 00-.084-.814zm-8.528-11.69c.138-.462.45-.845.88-1.077a1.823 1.823 0 012.614 2.12l-1.11 3.713-3.494-1.043 1.11-3.713zM48.333 8.315l.005-4.753 7.905 7.529H51.11a2.78 2.78 0 01-2.777-2.776zm-.526 52.927l-.726-6.447 4.873 1.454-4.147 4.993z" fill="#fff"/><path d="M15.104 28.865c0 .59.478 1.07 1.069 1.07h29.034a1.07 1.07 0 100-2.14H16.173c-.59 0-1.07.48-1.07 1.07zm1.069 9.382h27.265a1.07 1.07 0 100-2.139H16.173a1.07 1.07 0 100 2.14zm0 8.313h25.155a1.07 1.07 0 100-2.14H16.173a1.07 1.07 0 100 2.14zm0 8.311H33.4a1.07 1.07 0 100-2.139H16.173a1.07 1.07 0 100 2.14zm25.633-33.156a1.8 1.8 0 001.798-1.797v-4.312a1.8 1.8 0 00-1.798-1.797H18.274a1.8 1.8 0 00-1.798 1.797v4.312a1.8 1.8 0 001.798 1.797h23.532zm-23.191-5.767h22.85v3.629h-22.85v-3.63z" fill="#fff"/></g><defs><linearGradient id="paint0_linear" x1="29.87" y1="15.113" x2="29.87" y2="19.961" gradientUnits="userSpaceOnUse"><stop stop-color="#FF5B14"/><stop offset="1" stop-color="#FF7F47"/></linearGradient><linearGradient id="paint1_linear" x1="49.546" y1="53.823" x2="49.546" y2="62.663" gradientUnits="userSpaceOnUse"><stop stop-color="#FF5B14"/><stop offset="1" stop-color="#FF7F47"/></linearGradient><clipPath id="clip0"><path fill="#fff" d="M0 0h73v73H0z"/></clipPath></defs></svg>