<svg width="312" height="102" fill="none" xmlns="http://www.w3.org/2000/svg"><circle cx="114" cy="2" r="2" fill="#C2C2C2"/><circle cx="226" cy="2" r="2" fill="#C2C2C2"/><circle cx="114" cy="58" r="2" fill="#C2C2C2"/><circle cx="226" cy="58" r="2" fill="#C2C2C2"/><circle cx="114" cy="30" r="2" fill="#C2C2C2"/><circle cx="226" cy="30" r="2" fill="#C2C2C2"/><circle cx="114" cy="86" r="2" fill="#C2C2C2"/><circle cx="226" cy="86" r="2" fill="#C2C2C2"/><circle cx="114" cy="16" r="2" fill="#C2C2C2"/><circle cx="226" cy="16" r="2" fill="#C2C2C2"/><circle cx="114" cy="72" r="2" fill="#C2C2C2"/><circle cx="226" cy="72" r="2" fill="#C2C2C2"/><circle cx="114" cy="44" r="2" fill="#C2C2C2"/><circle cx="226" cy="44" r="2" fill="#C2C2C2"/><circle cx="114" cy="100" r="2" fill="#C2C2C2"/><circle cx="226" cy="100" r="2" fill="#C2C2C2"/><circle cx="128" cy="2" r="2" fill="#C2C2C2"/><circle cx="240" cy="2" r="2" fill="#C2C2C2"/><circle cx="128" cy="58" r="2" fill="#C2C2C2"/><circle cx="240" cy="58" r="2" fill="#C2C2C2"/><circle cx="128" cy="30" r="2" fill="#C2C2C2"/><circle cx="240" cy="30" r="2" fill="#C2C2C2"/><circle cx="128" cy="86" r="2" fill="#C2C2C2"/><circle cx="240" cy="86" r="2" fill="#C2C2C2"/><circle cx="128" cy="16" r="2" fill="#C2C2C2"/><circle cx="240" cy="16" r="2" fill="#C2C2C2"/><circle cx="128" cy="72" r="2" fill="#C2C2C2"/><circle cx="240" cy="72" r="2" fill="#C2C2C2"/><circle cx="128" cy="44" r="2" fill="#C2C2C2"/><circle cx="240" cy="44" r="2" fill="#C2C2C2"/><circle cx="128" cy="100" r="2" fill="#C2C2C2"/><circle cx="240" cy="100" r="2" fill="#C2C2C2"/><circle cx="142" cy="2" r="2" fill="#C2C2C2"/><circle cx="254" cy="2" r="2" fill="#C2C2C2"/><circle cx="142" cy="58" r="2" fill="#C2C2C2"/><circle cx="254" cy="58" r="2" fill="#C2C2C2"/><circle cx="142" cy="30" r="2" fill="#C2C2C2"/><circle cx="254" cy="30" r="2" fill="#C2C2C2"/><circle cx="142" cy="86" r="2" fill="#C2C2C2"/><circle cx="254" cy="86" r="2" fill="#C2C2C2"/><circle cx="142" cy="16" r="2" fill="#C2C2C2"/><circle cx="254" cy="16" r="2" fill="#C2C2C2"/><circle cx="142" cy="72" r="2" fill="#C2C2C2"/><circle cx="254" cy="72" r="2" fill="#C2C2C2"/><circle cx="142" cy="44" r="2" fill="#C2C2C2"/><circle cx="254" cy="44" r="2" fill="#C2C2C2"/><circle cx="142" cy="100" r="2" fill="#C2C2C2"/><circle cx="254" cy="100" r="2" fill="#C2C2C2"/><circle cx="156" cy="2" r="2" fill="#C2C2C2"/><circle cx="282" cy="2" r="2" fill="#C2C2C2"/><circle cx="156" cy="58" r="2" fill="#C2C2C2"/><circle cx="282" cy="58" r="2" fill="#C2C2C2"/><circle cx="156" cy="30" r="2" fill="#C2C2C2"/><circle cx="282" cy="30" r="2" fill="#C2C2C2"/><circle cx="156" cy="86" r="2" fill="#C2C2C2"/><circle cx="282" cy="86" r="2" fill="#C2C2C2"/><circle cx="156" cy="16" r="2" fill="#C2C2C2"/><circle cx="282" cy="16" r="2" fill="#C2C2C2"/><circle cx="156" cy="72" r="2" fill="#C2C2C2"/><circle cx="282" cy="72" r="2" fill="#C2C2C2"/><circle cx="156" cy="44" r="2" fill="#C2C2C2"/><circle cx="282" cy="44" r="2" fill="#C2C2C2"/><circle cx="156" cy="100" r="2" fill="#C2C2C2"/><circle cx="282" cy="100" r="2" fill="#C2C2C2"/><circle cx="170" cy="2" r="2" fill="#C2C2C2"/><circle cx="296" cy="2" r="2" fill="#C2C2C2"/><circle cx="170" cy="58" r="2" fill="#C2C2C2"/><circle cx="296" cy="58" r="2" fill="#C2C2C2"/><circle cx="170" cy="30" r="2" fill="#C2C2C2"/><circle cx="296" cy="30" r="2" fill="#C2C2C2"/><circle cx="170" cy="86" r="2" fill="#C2C2C2"/><circle cx="296" cy="86" r="2" fill="#C2C2C2"/><circle cx="170" cy="16" r="2" fill="#C2C2C2"/><circle cx="296" cy="16" r="2" fill="#C2C2C2"/><circle cx="170" cy="72" r="2" fill="#C2C2C2"/><circle cx="296" cy="72" r="2" fill="#C2C2C2"/><circle cx="170" cy="44" r="2" fill="#C2C2C2"/><circle cx="296" cy="44" r="2" fill="#C2C2C2"/><circle cx="170" cy="100" r="2" fill="#C2C2C2"/><circle cx="296" cy="100" r="2" fill="#C2C2C2"/><circle cx="184" cy="2" r="2" fill="#C2C2C2"/><circle cx="310" cy="2" r="2" fill="#C2C2C2"/><circle cx="184" cy="58" r="2" fill="#C2C2C2"/><circle cx="310" cy="58" r="2" fill="#C2C2C2"/><circle cx="184" cy="30" r="2" fill="#C2C2C2"/><circle cx="310" cy="30" r="2" fill="#C2C2C2"/><circle cx="184" cy="86" r="2" fill="#C2C2C2"/><circle cx="310" cy="86" r="2" fill="#C2C2C2"/><circle cx="184" cy="16" r="2" fill="#C2C2C2"/><circle cx="310" cy="16" r="2" fill="#C2C2C2"/><circle cx="184" cy="72" r="2" fill="#C2C2C2"/><circle cx="310" cy="72" r="2" fill="#C2C2C2"/><circle cx="184" cy="44" r="2" fill="#C2C2C2"/><circle cx="310" cy="44" r="2" fill="#C2C2C2"/><circle cx="184" cy="100" r="2" fill="#C2C2C2"/><circle cx="310" cy="100" r="2" fill="#C2C2C2"/><circle cx="198" cy="2" r="2" fill="#C2C2C2"/><circle cx="198" cy="58" r="2" fill="#C2C2C2"/><circle cx="198" cy="30" r="2" fill="#C2C2C2"/><circle cx="198" cy="86" r="2" fill="#C2C2C2"/><circle cx="198" cy="16" r="2" fill="#C2C2C2"/><circle cx="198" cy="72" r="2" fill="#C2C2C2"/><circle cx="198" cy="44" r="2" fill="#C2C2C2"/><circle cx="198" cy="100" r="2" fill="#C2C2C2"/><circle cx="212" cy="2" r="2" fill="#C2C2C2"/><circle cx="212" cy="58" r="2" fill="#C2C2C2"/><circle cx="212" cy="30" r="2" fill="#C2C2C2"/><circle cx="212" cy="86" r="2" fill="#C2C2C2"/><circle cx="212" cy="16" r="2" fill="#C2C2C2"/><circle cx="212" cy="72" r="2" fill="#C2C2C2"/><circle cx="212" cy="44" r="2" fill="#C2C2C2"/><circle cx="212" cy="100" r="2" fill="#C2C2C2"/><circle cx="2" cy="2" r="2" fill="#C2C2C2"/><circle cx="2" cy="58" r="2" fill="#C2C2C2"/><circle cx="2" cy="30" r="2" fill="#C2C2C2"/><circle cx="2" cy="86" r="2" fill="#C2C2C2"/><circle cx="2" cy="16" r="2" fill="#C2C2C2"/><circle cx="2" cy="72" r="2" fill="#C2C2C2"/><circle cx="2" cy="44" r="2" fill="#C2C2C2"/><circle cx="2" cy="100" r="2" fill="#C2C2C2"/><circle cx="16" cy="2" r="2" fill="#C2C2C2"/><circle cx="16" cy="58" r="2" fill="#C2C2C2"/><circle cx="16" cy="30" r="2" fill="#C2C2C2"/><circle cx="16" cy="86" r="2" fill="#C2C2C2"/><circle cx="16" cy="16" r="2" fill="#C2C2C2"/><circle cx="16" cy="72" r="2" fill="#C2C2C2"/><circle cx="16" cy="44" r="2" fill="#C2C2C2"/><circle cx="16" cy="100" r="2" fill="#C2C2C2"/><circle cx="30" cy="2" r="2" fill="#C2C2C2"/><circle cx="30" cy="58" r="2" fill="#C2C2C2"/><circle cx="30" cy="30" r="2" fill="#C2C2C2"/><circle cx="30" cy="86" r="2" fill="#C2C2C2"/><circle cx="30" cy="16" r="2" fill="#C2C2C2"/><circle cx="30" cy="72" r="2" fill="#C2C2C2"/><circle cx="30" cy="44" r="2" fill="#C2C2C2"/><circle cx="30" cy="100" r="2" fill="#C2C2C2"/><circle cx="44" cy="2" r="2" fill="#C2C2C2"/><circle cx="44" cy="58" r="2" fill="#C2C2C2"/><circle cx="44" cy="30" r="2" fill="#C2C2C2"/><circle cx="44" cy="86" r="2" fill="#C2C2C2"/><circle cx="44" cy="16" r="2" fill="#C2C2C2"/><circle cx="44" cy="72" r="2" fill="#C2C2C2"/><circle cx="44" cy="44" r="2" fill="#C2C2C2"/><circle cx="44" cy="100" r="2" fill="#C2C2C2"/><circle cx="58" cy="2" r="2" fill="#C2C2C2"/><circle cx="58" cy="58" r="2" fill="#C2C2C2"/><circle cx="58" cy="30" r="2" fill="#C2C2C2"/><circle cx="58" cy="86" r="2" fill="#C2C2C2"/><circle cx="58" cy="16" r="2" fill="#C2C2C2"/><circle cx="58" cy="72" r="2" fill="#C2C2C2"/><circle cx="58" cy="44" r="2" fill="#C2C2C2"/><circle cx="58" cy="100" r="2" fill="#C2C2C2"/><circle cx="72" cy="2" r="2" fill="#C2C2C2"/><circle cx="72" cy="58" r="2" fill="#C2C2C2"/><circle cx="72" cy="30" r="2" fill="#C2C2C2"/><circle cx="72" cy="86" r="2" fill="#C2C2C2"/><circle cx="72" cy="16" r="2" fill="#C2C2C2"/><circle cx="72" cy="72" r="2" fill="#C2C2C2"/><circle cx="72" cy="44" r="2" fill="#C2C2C2"/><circle cx="72" cy="100" r="2" fill="#C2C2C2"/><circle cx="86" cy="2" r="2" fill="#C2C2C2"/><circle cx="86" cy="58" r="2" fill="#C2C2C2"/><circle cx="86" cy="30" r="2" fill="#C2C2C2"/><circle cx="86" cy="86" r="2" fill="#C2C2C2"/><circle cx="86" cy="16" r="2" fill="#C2C2C2"/><circle cx="86" cy="72" r="2" fill="#C2C2C2"/><circle cx="86" cy="44" r="2" fill="#C2C2C2"/><circle cx="86" cy="100" r="2" fill="#C2C2C2"/><circle cx="100" cy="2" r="2" fill="#C2C2C2"/><circle cx="100" cy="58" r="2" fill="#C2C2C2"/><circle cx="100" cy="30" r="2" fill="#C2C2C2"/><circle cx="100" cy="86" r="2" fill="#C2C2C2"/><circle cx="100" cy="16" r="2" fill="#C2C2C2"/><circle cx="100" cy="72" r="2" fill="#C2C2C2"/><circle cx="100" cy="44" r="2" fill="#C2C2C2"/><circle cx="100" cy="100" r="2" fill="#C2C2C2"/><circle cx="268" cy="2" r="2" fill="#C2C2C2"/><circle cx="268" cy="58" r="2" fill="#C2C2C2"/><circle cx="268" cy="30" r="2" fill="#C2C2C2"/><circle cx="268" cy="86" r="2" fill="#C2C2C2"/><circle cx="268" cy="16" r="2" fill="#C2C2C2"/><circle cx="268" cy="72" r="2" fill="#C2C2C2"/><circle cx="268" cy="44" r="2" fill="#C2C2C2"/><circle cx="268" cy="100" r="2" fill="#C2C2C2"/></svg>