<svg width="73" height="73" fill="none" xmlns="http://www.w3.org/2000/svg"><g clip-path="url(#clip0)"><circle cx="62.663" cy="62.378" r="2.21" fill="url(#paint0_linear)"/><path d="M62.663 10.266l2.638-5.204 6.273 6.06-5.703 2.566-3.208-3.422z" fill="url(#paint1_linear)"/><path d="M6.13 69.436c-2.394-1.597-1.568-7.32-.855-9.981l15.97-15.113c2.185-.19 6.814-.941 7.84-2.424 1.027-1.483 1.474-6.036 1.57-8.127l4.847-2.851 8.412 8.412 1.426 3.564-3.565 2.994c-1.33-.095-4.62.029-7.129 1.283-2.509 1.255-2.756 6.321-2.566 8.698-2.9 3.089-9.667 10.123-13.545 13.545-4.848 4.277-9.41 1.996-12.404 0z" fill="url(#paint2_linear)"/><path d="M62.588 58.702a3.78 3.78 0 00-3.775 3.775 3.779 3.779 0 003.775 3.774 3.779 3.779 0 003.774-3.774 3.779 3.779 0 00-3.774-3.775zm0 5.313a1.54 1.54 0 01-1.538-1.538c0-.848.69-1.538 1.538-1.538.847 0 1.537.69 1.537 1.538a1.54 1.54 0 01-1.537 1.538z" fill="#fff"/><path d="M72.758 62.281a9.895 9.895 0 00-3.294-7.157L46.944 34.81 66.856 14.9c.13-.039.26-.087.385-.153l4.312-2.276a2.08 2.08 0 001.096-1.543 2.08 2.08 0 00-.592-1.798l-4.855-4.855a2.08 2.08 0 00-1.798-.592c-.666.101-1.228.5-1.543 1.096L61.585 9.09a2.117 2.117 0 00-.157.388l-9.398 9.399a1.119 1.119 0 001.582 1.582l8.625-8.625 2.26 2.26L42.44 36.151l-2.26-2.26 9.627-9.627a1.119 1.119 0 00-1.582-1.582l-6.985 6.985-7.603-6.857a17.164 17.164 0 00-4.081-17.783 17.2 17.2 0 00-18.304-3.888 1.118 1.118 0 00-.39 1.835l8.781 8.782c.26.26.403.605.403.973 0 .367-.143.713-.403.973l-5.703 5.702c-.26.26-.605.404-.973.404-.367 0-.713-.143-.973-.404l-8.781-8.781a1.119 1.119 0 00-1.836.39 17.2 17.2 0 003.888 18.304c4.562 4.561 11.33 6.167 17.438 4.194l5.878 6.428a6.027 6.027 0 01-1.103 1.52 6.055 6.055 0 01-6.47 1.36 1.118 1.118 0 00-1.196.251L6.116 56.766c-3.708 3.708-3.708 9.74 0 13.448A9.446 9.446 0 0012.84 73c2.54 0 4.928-.99 6.724-2.785L33.26 56.519c.314-.313.413-.782.252-1.196a6.055 6.055 0 011.36-6.47 6.055 6.055 0 016.47-1.36c.414.16.883.061 1.196-.252l2.584-2.584a4.092 4.092 0 001.206-2.912 4.09 4.09 0 00-1.206-2.912l-1.1-1.1 1.338-1.338 22.606 20.39a7.677 7.677 0 012.556 5.554 7.677 7.677 0 01-2.267 5.677 7.692 7.692 0 01-5.651 2.268 7.68 7.68 0 01-5.544-2.518l-16.81-18.38a1.118 1.118 0 10-1.65 1.51l16.807 18.38a9.898 9.898 0 007.377 3.247 9.894 9.894 0 007.052-2.925 9.895 9.895 0 002.921-7.317zm-9.147-52.236l2.141-4.057 4.591 4.59-4.057 2.142-2.675-2.675zM23.857 31.458a1.119 1.119 0 00-1.217-.293 14.983 14.983 0 01-15.793-3.43 14.963 14.963 0 01-3.917-14.23l7.482 7.481a3.59 3.59 0 002.555 1.059 3.59 3.59 0 002.555-1.059l5.703-5.703a3.59 3.59 0 001.058-2.554c0-.965-.376-1.872-1.058-2.555l-7.482-7.482a14.96 14.96 0 0114.231 3.917 14.93 14.93 0 013.311 16.108c-.174.434-.058.931.29 1.245l8.08 7.289-1.057 1.058-1.1-1.1a4.092 4.092 0 00-2.912-1.206c-1.1 0-2.135.428-2.913 1.206l-2.583 2.584a1.119 1.119 0 00-.252 1.196c.298.766.427 1.568.405 2.36l-5.386-5.89zM43.54 43.075l-2.094 2.094a8.293 8.293 0 00-8.156 2.102 8.292 8.292 0 00-2.102 8.156L17.983 68.633a7.224 7.224 0 01-5.143 2.13 7.224 7.224 0 01-5.142-2.13c-2.835-2.836-2.835-7.45 0-10.285l13.206-13.205c2.88.83 6.012.042 8.156-2.102a8.293 8.293 0 002.102-8.156l2.093-2.094a1.883 1.883 0 012.661 0l1.89 1.891 3.843 3.842 1.89 1.89a1.883 1.883 0 010 2.661z" fill="#fff"/><path d="M23.144 49.368a1.119 1.119 0 00-1.582 0L10.966 59.964a1.119 1.119 0 101.582 1.582L23.144 50.95a1.119 1.119 0 000-1.582zm3.916 3.915a1.119 1.119 0 00-1.583 0L14.881 63.879a1.119 1.119 0 101.582 1.582l10.596-10.596a1.119 1.119 0 000-1.582z" fill="#fff"/></g><defs><linearGradient id="paint0_linear" x1="62.663" y1="60.168" x2="62.663" y2="64.588" gradientUnits="userSpaceOnUse"><stop stop-color="#FF5B14"/><stop offset="1" stop-color="#FF7F47"/></linearGradient><linearGradient id="paint1_linear" x1="67.119" y1="5.062" x2="67.119" y2="13.688" gradientUnits="userSpaceOnUse"><stop stop-color="#FF5B14"/><stop offset="1" stop-color="#FF7F47"/></linearGradient><linearGradient id="paint2_linear" x1="24.939" y1="30.939" x2="24.939" y2="71.861" gradientUnits="userSpaceOnUse"><stop stop-color="#FF5B14"/><stop offset="1" stop-color="#FF7F47"/></linearGradient><clipPath id="clip0"><path fill="#fff" d="M0 0h73v73H0z"/></clipPath></defs></svg>