<svg width="64" height="71" fill="none" xmlns="http://www.w3.org/2000/svg"><path d="M30.938 32.693L2.742 46.783V17.707L30.938 3.615v29.078zm30.555 14.09l-28.195-14.09V3.615l28.195 14.09v29.079zM33.298 64.676l28.195-14.091v3.245L33.298 67.92v-3.244zM2.74 50.584l28.197 14.09v3.245L2.742 53.83v-3.245zm9.982-6.165l.677.293-7.587 4.698-1.618-.726 8.528-4.265zm9.992-4.99l7.358 3.672-7.358 3.675L15.36 43.1l7.356-3.672zm19.98 7.346l-7.357-3.673 6.77-3.38 7.356 3.673-6.77 3.38zm10.577 5.293l-7.945-3.971 6.77-3.384 7.944 3.97-6.769 3.385zm-9.99 4.99l-7.944-3.97 7.357-3.678 7.944 3.97-7.357 3.678zm-17.933-8.961l7.356-3.678 7.357 3.678-7.357 3.677-7.356-3.677zm6.77-13.366l7.356 3.678-6.77 3.384-7.356-3.678 6.77-3.384zM.473 54.967c.03.068.066.132.108.192.036.066.08.13.127.188.06.058.125.11.196.153.043.038 30.687 15.37 30.687 15.37.343.163.709.163 1.019.008l30.584-15.273a3.04 3.04 0 00.33-.257c.09-.12.168-.248.236-.38.026-.081.042-.165.05-.25.015-.054.033-37.739.033-37.739a2.882 2.882 0 00-.083-.412 2.81 2.81 0 00-.236-.38 1.159 1.159 0 00-.195-.152C63.288 15.996 32.644.664 32.644.664a1.148 1.148 0 00-1.02-.007L1.042 15.929a2.999 2.999 0 00-.332.258 1.134 1.134 0 00-.127.19 1.042 1.042 0 00-.107.19 1.14 1.14 0 00-.051.25C.409 16.87.391 54.555.391 54.555c.041.248.058.332.084.412H.474z" fill="#000"/><path d="M3.6 48.626l28.444-14.2 27.898 14.2-27.898 14.2L3.6 48.626z" fill="#F1F1F1"/><path d="M3.6 48.626l28.444-14.2s-13.128 12.562 0 28.4C45.175 78.665 3.6 48.626 3.6 48.626z" fill="url(#paint0_linear)"/><defs><linearGradient id="paint0_linear" x1="19.104" y1="34.426" x2="19.104" y2="67.438" gradientUnits="userSpaceOnUse"><stop stop-color="#FF5B14"/><stop offset="1" stop-color="#FF7F47"/></linearGradient></defs></svg>