<svg width="62" height="71" fill="none" xmlns="http://www.w3.org/2000/svg"><g clip-path="url(#clip0)"><path d="M29.773 32.693L2.639 46.782V17.706L29.773 3.615v29.078zm29.405 14.09l-27.134-14.09V3.615l27.134 14.09v29.078zM32.044 64.675l27.134-14.091v3.245L32.044 67.92v-3.244zM2.638 50.584l27.135 14.09v3.245L2.639 53.83l-.001-3.245zm9.605-6.165l.652.293-7.3 4.697-1.558-.725 8.207-4.265zm9.617-4.99l7.08 3.672-7.08 3.675-7.08-3.675 7.08-3.672zm19.227 7.346l-7.08-3.673 6.515-3.38 7.08 3.673-6.515 3.38zm10.179 5.293l-7.646-3.971 6.515-3.384 7.645 3.97-6.514 3.385zm-9.614 4.99l-7.645-3.97 7.08-3.679 7.645 3.971-7.08 3.678zm-17.258-8.961l7.08-3.678 7.08 3.678-7.08 3.677-7.08-3.677zm6.515-13.366l7.08 3.678-6.516 3.384-7.08-3.678 6.516-3.384zM.456 54.967c.029.068.064.131.104.192.034.066.076.13.123.188.057.057.12.11.188.153.04.038 29.531 15.37 29.531 15.37.33.163.682.162.98.008l29.433-15.273a2.91 2.91 0 00.318-.257c.086-.121.161-.249.227-.38.025-.082.04-.165.048-.25.014-.054.032-37.739.032-37.739a2.975 2.975 0 00-.08-.412 2.817 2.817 0 00-.227-.38 1.122 1.122 0 00-.188-.152c-.04-.04-29.53-15.371-29.53-15.371a1.068 1.068 0 00-.981-.007L1.002 15.929a2.916 2.916 0 00-.32.258 1.133 1.133 0 00-.122.189 1.13 1.13 0 00-.103.19 1.202 1.202 0 00-.049.25C.393 16.87.376 54.555.376 54.555c.04.248.056.331.08.412z" fill="#fff"/><path d="M3.464 48.626l27.374-14.2 26.847 14.2-26.847 14.2-27.374-14.2z" fill="#F1F1F1"/><path d="M3.464 48.626l27.374-14.2s-12.635 12.561 0 28.4c12.634 15.838-27.374-14.2-27.374-14.2z" fill="url(#paint0_linear)"/></g><defs><linearGradient id="paint0_linear" x1="18.384" y1="34.426" x2="18.384" y2="67.438" gradientUnits="userSpaceOnUse"><stop stop-color="#FF5B14"/><stop offset="1" stop-color="#FF7F47"/></linearGradient><clipPath id="clip0"><path fill="#fff" d="M0 0h61.59v71H0z"/></clipPath></defs></svg>