<svg width="221" height="66" fill="none" xmlns="http://www.w3.org/2000/svg"><g clip-path="url(#clip0)"><path d="M212.832 0H8.64A8.168 8.168 0 00.473 8.168v49.006A8.168 8.168 0 008.64 65.34h204.192A8.168 8.168 0 00221 57.174V8.168A8.168 8.168 0 00212.832 0z" fill="#000"/><path d="M212.832 1.307a6.858 6.858 0 016.861 6.86v49.007a6.86 6.86 0 01-6.861 6.86H8.64a6.86 6.86 0 01-6.86-6.86V8.168a6.86 6.86 0 016.86-6.861h204.192zm0-1.307H8.64A8.168 8.168 0 00.473 8.168v49.006A8.168 8.168 0 008.64 65.34h204.192A8.166 8.166 0 00221 57.174V8.168A8.167 8.167 0 00212.832 0z" fill="#A6A6A6"/><path d="M52.93 31.548c-.045-5.016 4.108-7.457 4.298-7.57-2.352-3.43-5.997-3.898-7.278-3.935-3.062-.322-6.031 1.832-7.59 1.832-1.592 0-3.993-1.8-6.582-1.748-3.33.052-6.446 1.98-8.155 4.975-3.527 6.105-.897 15.078 2.482 20.014 1.69 2.417 3.666 5.116 6.25 5.02 2.53-.103 3.475-1.612 6.527-1.612 3.024 0 3.911 1.613 6.548 1.552 2.714-.043 4.423-2.428 6.054-4.867 1.954-2.77 2.738-5.499 2.77-5.639-.064-.022-5.272-2.01-5.324-8.022zm-4.98-14.752c1.36-1.7 2.29-4.015 2.033-6.364-1.97.087-4.432 1.362-5.85 3.026-1.254 1.466-2.375 3.87-2.085 6.13 2.212.164 4.482-1.117 5.902-2.792zM89.533 49.79h-3.535l-1.936-6.085h-6.73l-1.845 6.084h-3.44l6.667-20.713h4.118l6.7 20.713zm-6.055-8.637l-1.75-5.409c-.186-.553-.533-1.854-1.045-3.902h-.063c-.203.88-.532 2.182-.983 3.902l-1.72 5.409h5.561zm23.202.985c0 2.54-.686 4.548-2.059 6.022-1.23 1.312-2.756 1.967-4.579 1.967-1.967 0-3.38-.706-4.241-2.12h-.063v7.868H92.42V39.771c0-1.597-.042-3.236-.123-4.917h2.918l.186 2.367h.062c1.107-1.783 2.786-2.674 5.04-2.674 1.762 0 3.232.696 4.409 2.09 1.18 1.394 1.768 3.227 1.768 5.501zm-3.38.122c0-1.454-.327-2.653-.984-3.596-.718-.983-1.681-1.475-2.889-1.475-.819 0-1.563.274-2.227.814-.666.544-1.102 1.256-1.306 2.137-.103.41-.154.747-.154 1.011v2.49c0 1.087.333 2.004 1 2.752.665.75 1.53 1.123 2.595 1.123 1.25 0 2.223-.483 2.919-1.445.697-.963 1.046-2.233 1.046-3.811zm20.558-.122c0 2.54-.686 4.548-2.061 6.022-1.228 1.312-2.754 1.967-4.577 1.967-1.967 0-3.381-.706-4.24-2.12h-.062v7.868H109.6V39.771c0-1.597-.042-3.236-.123-4.917h2.918l.185 2.367h.062c1.106-1.783 2.785-2.674 5.04-2.674 1.761 0 3.231.696 4.411 2.09 1.175 1.394 1.765 3.227 1.765 5.501zm-3.38.122c0-1.454-.329-2.653-.986-3.596-.717-.983-1.677-1.475-2.887-1.475-.82 0-1.562.274-2.229.814-.666.544-1.1 1.256-1.304 2.137-.101.41-.154.747-.154 1.011v2.49c0 1.087.333 2.004.996 2.752.666.748 1.532 1.123 2.599 1.123 1.25 0 2.223-.483 2.919-1.445.697-.963 1.046-2.233 1.046-3.811zm22.587 1.72c0 1.763-.612 3.196-1.84 4.303-1.349 1.21-3.228 1.813-5.642 1.813-2.229 0-4.016-.43-5.368-1.29l.769-2.766c1.456.881 3.055 1.323 4.797 1.323 1.249 0 2.222-.283 2.921-.847.696-.563 1.043-1.32 1.043-2.263 0-.84-.287-1.548-.861-2.123-.571-.574-1.525-1.108-2.858-1.601-3.626-1.353-5.438-3.334-5.438-5.94 0-1.702.635-3.098 1.907-4.185 1.267-1.088 2.957-1.631 5.071-1.631 1.885 0 3.45.328 4.7.984l-.829 2.705c-1.168-.635-2.488-.953-3.965-.953-1.167 0-2.079.288-2.733.86-.552.513-.829 1.137-.829 1.876 0 .82.316 1.496.951 2.028.552.492 1.556 1.025 3.013 1.599 1.782.717 3.091 1.556 3.933 2.518.839.959 1.258 2.159 1.258 3.59zm10.971-6.636h-3.658v7.252c0 1.844.644 2.765 1.936 2.765.593 0 1.085-.051 1.474-.154l.092 2.52c-.654.245-1.514.367-2.581.367-1.31 0-2.334-.4-3.074-1.198-.736-.8-1.106-2.142-1.106-4.026v-7.53h-2.179v-2.49h2.179v-2.735l3.259-.984v3.719h3.658v2.493zm16.503 4.855c0 2.296-.657 4.18-1.967 5.654-1.375 1.518-3.199 2.274-5.473 2.274-2.191 0-3.936-.727-5.237-2.18-1.301-1.454-1.952-3.29-1.952-5.5 0-2.315.669-4.211 2.013-5.685 1.34-1.475 3.148-2.213 5.422-2.213 2.192 0 3.955.727 5.286 2.182 1.273 1.412 1.908 3.234 1.908 5.468zm-3.443.107c0-1.377-.294-2.559-.89-3.544-.696-1.192-1.69-1.787-2.979-1.787-1.334 0-2.347.596-3.043 1.787-.596.987-.89 2.187-.89 3.606 0 1.378.294 2.56.89 3.543.718 1.192 1.72 1.787 3.013 1.787 1.267 0 2.262-.607 2.979-1.818.612-1.004.92-2.198.92-3.574zm14.229-4.534a5.751 5.751 0 00-1.045-.091c-1.168 0-2.071.44-2.706 1.323-.552.778-.829 1.761-.829 2.949v7.837h-3.317l.031-10.233c0-1.72-.042-3.288-.124-4.702h2.89l.121 2.858h.092c.35-.982.903-1.773 1.659-2.366.74-.534 1.538-.8 2.399-.8.307 0 .584.022.829.061v3.164zm14.841 3.843c0 .595-.039 1.096-.121 1.505h-9.955c.038 1.476.519 2.604 1.444 3.383.839.695 1.924 1.044 3.256 1.044 1.474 0 2.819-.235 4.028-.707l.52 2.304c-1.413.616-3.082.923-5.007.923-2.316 0-4.134-.682-5.457-2.044-1.32-1.362-1.981-3.19-1.981-5.485 0-2.252.614-4.127 1.846-5.623 1.288-1.597 3.03-2.395 5.221-2.395 2.153 0 3.783.798 4.889 2.395.876 1.268 1.317 2.837 1.317 4.7zm-3.164-.86c.021-.984-.195-1.834-.645-2.551-.574-.923-1.457-1.384-2.644-1.384-1.085 0-1.967.45-2.641 1.352-.553.718-.881 1.579-.982 2.581h6.912v.002zm-109.06-16.74h-1.726V21.44H75.32v2.575h-1.755l-.057-4.027h.841c.418-.403.75-.988 1-1.755.25-.772.41-1.645.482-2.618l.273-4.646h6.602v9.019h1.33l-.093 4.027zm-7.537-4.027h4.488v-7.552h-3.056l-.173 2.949c-.13 1.97-.55 3.505-1.259 4.603zm9.238-2.511c0-.762.15-1.448.453-2.056.302-.614.726-1.084 1.273-1.41.546-.33 1.174-.496 1.884-.496 1.05 0 1.901.338 2.553 1.014.657.676 1.012 1.572 1.065 2.69l.007.41c0 .767-.149 1.452-.446 2.056a3.24 3.24 0 01-1.266 1.403c-.547.33-1.18.496-1.899.496-1.098 0-1.977-.364-2.64-1.093-.656-.734-.984-1.71-.984-2.927v-.087zm1.747.151c0 .801.166 1.43.496 1.885.331.45.792.676 1.381.676.59 0 1.048-.23 1.374-.69.33-.46.496-1.134.496-2.021 0-.787-.17-1.41-.51-1.87-.336-.46-.794-.69-1.374-.69-.57 0-1.024.227-1.36.682-.335.451-.503 1.127-.503 2.028zm10.899 2.561c.436 0 .798-.127 1.086-.381.288-.255.441-.569.46-.942h1.647c-.019.484-.17.937-.453 1.359a2.981 2.981 0 01-1.15.992 3.43 3.43 0 01-1.569.367c-1.088 0-1.95-.352-2.589-1.057-.637-.705-.956-1.678-.956-2.92v-.18c0-1.184.316-2.131.95-2.84.632-.715 1.495-1.072 2.588-1.072.926 0 1.678.27 2.259.812.585.537.891 1.245.92 2.122h-1.647c-.019-.446-.172-.813-.46-1.1-.283-.288-.645-.432-1.086-.432-.566 0-1.002.206-1.309.619-.307.407-.463 1.028-.468 1.862v.28c0 .845.152 1.475.454 1.892.306.413.748.619 1.323.619zm11.373-5.142h-2.524v6.393h-1.748v-6.393h-2.495v-1.389h6.767v1.389zm4.714 3.89l1.582-5.279h1.863l-3.093 8.962c-.474 1.309-1.28 1.963-2.416 1.963a3.11 3.11 0 01-.842-.13v-1.351l.331.021c.441 0 .772-.081.993-.244.225-.159.402-.427.532-.806l.252-.669-2.733-7.745h1.884l1.647 5.278zm11.79 2.503h-1.747v-6.372h-3.035v6.372h-1.748v-7.782h6.53v7.782zm9.187 0h-1.747v-3.143h-3.028v3.143h-1.748v-7.782h1.748v3.244h3.028v-3.244h1.747v7.782zm2.276-3.963c0-.762.151-1.448.453-2.056.302-.614.726-1.084 1.273-1.41.547-.33 1.175-.496 1.884-.496 1.05 0 1.901.338 2.553 1.014.657.676 1.012 1.572 1.065 2.69l.007.41c0 .767-.149 1.452-.446 2.056a3.233 3.233 0 01-1.266 1.403c-.546.33-1.179.496-1.898.496-1.098 0-1.978-.364-2.64-1.093-.657-.734-.985-1.71-.985-2.927v-.087zm1.748.151c0 .801.165 1.43.496 1.885.331.45.791.676 1.381.676.589 0 1.047-.23 1.373-.69.331-.46.497-1.134.497-2.021 0-.787-.171-1.41-.511-1.87-.336-.46-.794-.69-1.374-.69-.57 0-1.023.227-1.359.682-.336.451-.503 1.127-.503 2.028zm12.239 3.812v-7.782h3.157c1.065 0 1.875.188 2.431.562.556.369.834.9.834 1.596 0 .36-.112.683-.338.971-.22.283-.549.501-.985.655.508.105.911.318 1.208.64.297.32.446.7.446 1.136 0 .724-.268 1.275-.805 1.654-.533.379-1.3.568-2.302.568h-3.646zm1.747-3.315v1.934h1.914c.896 0 1.344-.32 1.344-.963 0-.648-.455-.971-1.366-.971h-1.892zm0-1.252h1.439c.992 0 1.489-.292 1.489-.877 0-.614-.47-.93-1.41-.95h-1.518v1.827z" fill="#fff"/></g><defs><clipPath id="clip0"><path fill="#fff" transform="translate(.473)" d="M0 0h220.527v65.341H0z"/></clipPath></defs></svg>