<svg width="274" height="191" fill="none" xmlns="http://www.w3.org/2000/svg"><path d="M13.245 59.768c8.25-18.736 30.452-9.411 45.354-15.283.216-.086.216-.345 0-.388-11.62-4.231-47.902-3.41-46.563 15.326.043.561.95.993 1.21.345zM215.33 175.041c-.518.173-.389.864.13.907 14.038 1.295 39.219-1.813 45.396-17.01.303-.777-.734-1.166-1.252-.734-6.739 5.483-12.699 9.196-21.122 11.57-7.689 2.159-15.593 2.548-23.152 5.267z" fill="#292929"/><path d="M.564 89.181c.255 9.811-1.684 85.361 4.895 93.542 7.437 9.268 20.436 8.405 31.179 8.117 15.096-.383 106.984-1.246 122.018-2.237 13.603-.894 78.777-1.821 92.252-4.026 13.508-2.205 19.229-13.582 21.295-26.493 2.542-15.947 3.591-99.231-5.244-113.516-7.501-12.112-79.468-11.026-92.372-11.281.954-10.323 1.876-20.677 3.274-30.936.032-.16 0-.287-.032-.415 0-.096 0-.192-.031-.288a.446.446 0 00-.064-.191c-.286-1.023-1.399-1.79-2.384-1.31-.381.095-.699.35-.89.798-7.024 8.15-13.666 16.586-20.055 25.215a312.663 312.663 0 00-5.339 7.382c-.763 1.087-38.125.224-40.668.288-10.075.352-77.576-.447-87.588.99-6.357.927-14.557 3.324-17.195 10.035C-1.565 58.15.246 75.28.565 89.181zm4.323-32.629C6.03 44.792 11.402 39.327 23.86 38.24c12.427-1.118 81.995-.639 94.454-1.055 7.5-.255 31.895 1.055 35.9-4.506 6.134-8.564 12.617-16.873 19.355-24.927-1.08 9.108-1.938 18.248-2.797 27.356-.095 1.023.89 1.79 1.812 1.822 10.774.415 71.903.543 82.36 3.483 15.256 4.283 14.556 26.174 14.779 38.83.191 11.632-.223 83.634-6.389 93.797-3.909 6.487-23.869 7.382-30.48 8.373-28.732 4.41-172.158 5.369-201.207 5.88-6.516.128-13.031-.096-19.006-3.036-7.723-3.803-7.533-13.262-7.882-20.645-.731-15.883-1.399-91.177.127-107.06z" fill="#292929"/></svg>