<svg width="208" height="21" fill="none" xmlns="http://www.w3.org/2000/svg"><path d="M.84 15h.882v-3.282h2.454a4.457 4.457 0 00.606-.048c.672-.104 1.19-.4 1.554-.888.368-.488.552-1.068.552-1.74 0-.676-.182-1.258-.546-1.746-.364-.488-.884-.784-1.56-.888a2.23 2.23 0 00-.324-.036 3.709 3.709 0 00-.282-.012H.84V15zm.882-4.122V7.206h2.43c.072 0 .156.004.252.012.1.004.194.016.282.036.444.096.77.318.978.666.212.344.318.718.318 1.122 0 .4-.106.774-.318 1.122-.208.348-.534.568-.978.66-.088.02-.182.034-.282.042-.096.008-.18.012-.252.012h-2.43zm8.214 4.302c1.132 0 1.954-.418 2.466-1.254V15h.786v-4.026c0-.24-.012-.476-.036-.708a2.172 2.172 0 00-.156-.63 1.857 1.857 0 00-.882-.96c-.412-.224-.914-.336-1.506-.336-.712 0-1.292.16-1.74.48-.448.32-.748.77-.9 1.35l.858.252c.124-.432.338-.748.642-.948.308-.2.684-.3 1.128-.3.616 0 1.056.144 1.32.432.264.284.4.718.408 1.302-.288.04-.606.082-.954.126-.344.044-.69.094-1.038.15-.348.056-.668.12-.96.192-.484.128-.88.342-1.188.642-.308.296-.462.71-.462 1.242 0 .344.082.662.246.954.164.292.41.526.738.702.332.176.742.264 1.23.264zm.102-.762c-.348 0-.628-.056-.84-.168a1.123 1.123 0 01-.456-.438 1.2 1.2 0 01-.138-.552c0-.352.118-.616.354-.792.236-.176.492-.304.768-.384.356-.096.77-.174 1.242-.234l1.344-.168c0 .148-.006.318-.018.51-.008.188-.03.362-.066.522a2.002 2.002 0 01-.696 1.218c-.376.324-.874.486-1.494.486zm7.046.762c.456 0 .866-.08 1.23-.24.368-.164.658-.394.87-.69.216-.3.324-.656.324-1.068 0-.312-.07-.614-.21-.906a1.367 1.367 0 00-.648-.66c.22-.168.39-.368.51-.6.12-.236.18-.506.18-.81 0-.392-.1-.726-.3-1.002a1.864 1.864 0 00-.804-.642 2.77 2.77 0 00-1.128-.222c-.528 0-1.01.094-1.446.282-.432.184-.81.454-1.134.81l.564.594c.236-.248.524-.45.864-.606.34-.16.702-.24 1.086-.24.38 0 .706.09.978.27.276.176.414.448.414.816 0 .352-.136.608-.408.768-.272.16-.634.24-1.086.24h-.756v.756h.768c.552 0 .966.08 1.242.24.276.156.414.432.414.828 0 .384-.144.686-.432.906-.288.22-.67.33-1.146.33-.912 0-1.61-.408-2.094-1.224l-.708.45c.28.508.662.906 1.146 1.194.488.284 1.058.426 1.71.426zm3.742 2.7h.888v-3.654c.232.296.518.53.858.702.34.168.73.252 1.17.252.608 0 1.126-.15 1.554-.45.428-.304.754-.714.978-1.23.228-.516.342-1.098.342-1.746 0-.644-.114-1.224-.342-1.74a2.852 2.852 0 00-.972-1.224c-.424-.3-.932-.45-1.524-.45-.48 0-.902.096-1.266.288-.36.188-.658.45-.894.786V8.52h-.792v9.36zm2.826-3.522c-.46 0-.84-.112-1.14-.336a2.041 2.041 0 01-.672-.93 3.77 3.77 0 01-.222-1.338c0-.764.166-1.386.498-1.866.336-.484.842-.726 1.518-.726.464 0 .846.114 1.146.342.304.228.53.538.678.93.148.392.222.832.222 1.32 0 .492-.076.934-.228 1.326a2.08 2.08 0 01-.672.936c-.3.228-.676.342-1.128.342zm6.136.822c1.132 0 1.954-.418 2.466-1.254V15h.786v-4.026c0-.24-.012-.476-.036-.708a2.172 2.172 0 00-.156-.63 1.857 1.857 0 00-.882-.96c-.412-.224-.914-.336-1.506-.336-.712 0-1.292.16-1.74.48-.448.32-.748.77-.9 1.35l.858.252c.124-.432.338-.748.642-.948.308-.2.684-.3 1.128-.3.616 0 1.056.144 1.32.432.264.284.4.718.408 1.302-.288.04-.606.082-.954.126-.344.044-.69.094-1.038.15-.348.056-.668.12-.96.192-.484.128-.88.342-1.188.642-.308.296-.462.71-.462 1.242 0 .344.082.662.246.954.164.292.41.526.738.702.332.176.742.264 1.23.264zm.102-.762c-.348 0-.628-.056-.84-.168a1.123 1.123 0 01-.456-.438 1.2 1.2 0 01-.138-.552c0-.352.118-.616.354-.792.236-.176.492-.304.768-.384.356-.096.77-.174 1.242-.234l1.344-.168c0 .148-.006.318-.018.51-.008.188-.03.362-.066.522a2.002 2.002 0 01-.696 1.218c-.376.324-.874.486-1.494.486zm7.31.768c.632 0 1.178-.13 1.638-.39.46-.264.814-.636 1.062-1.116.252-.48.378-1.042.378-1.686 0-.62-.114-1.166-.342-1.638a2.633 2.633 0 00-.978-1.116c-.42-.268-.922-.402-1.506-.402-.48 0-.926.098-1.338.294a2.363 2.363 0 00-.984.876c.044-.512.152-.966.324-1.362.172-.396.42-.692.744-.888.212-.14.468-.25.768-.33.3-.084.612-.15.936-.198.328-.052.642-.096.942-.132.304-.036.566-.076.786-.12l-.096-.798c-.388.076-.814.14-1.278.192-.46.052-.91.128-1.35.228-.44.096-.826.256-1.158.48a2.614 2.614 0 00-.678.636c-.192.256-.34.532-.444.828-.08.228-.152.524-.216.888a12.331 12.331 0 00-.156 2.262c.032 1.156.304 2.026.816 2.61.512.58 1.222.874 2.13.882zm.066-.846c-.676 0-1.192-.206-1.548-.618-.352-.416-.528-.986-.528-1.71 0-.72.178-1.288.534-1.704.356-.416.866-.624 1.53-.624s1.178.208 1.542.624c.368.416.552.984.552 1.704 0 .704-.178 1.268-.534 1.692-.352.424-.868.636-1.548.636zm7.038.84c.64 0 1.188-.144 1.644-.432.46-.288.812-.688 1.056-1.2.248-.516.372-1.114.372-1.794 0-.668-.122-1.258-.366-1.77a2.759 2.759 0 00-1.05-1.206c-.456-.292-1.008-.438-1.656-.438-.632 0-1.178.144-1.638.432a2.817 2.817 0 00-1.056 1.194c-.248.512-.372 1.108-.372 1.788 0 .668.12 1.26.36 1.776.244.516.594.92 1.05 1.212.46.292 1.012.438 1.656.438zm0-.846c-.7 0-1.23-.234-1.59-.702-.36-.472-.54-1.098-.54-1.878 0-.756.174-1.372.522-1.848.348-.48.884-.72 1.608-.72.716 0 1.25.234 1.602.702.356.464.534 1.086.534 1.866 0 .764-.176 1.386-.528 1.866-.352.476-.888.714-1.608.714zm5.99.666h.881V9.336h2.298V8.52h-5.478v.816h2.298V15zm4.317 0h.894v-3.12l3.18 3.12h1.284l-3.432-3.24 3.036-3.24h-1.176l-2.892 3.12V8.52h-.888L54.611 15zm7.814.18c1.132 0 1.954-.418 2.466-1.254V15h.785v-4.026c0-.24-.011-.476-.035-.708a2.172 2.172 0 00-.157-.63 1.857 1.857 0 00-.881-.96c-.412-.224-.914-.336-1.506-.336-.712 0-1.293.16-1.74.48-.449.32-.748.77-.9 1.35l.858.252c.123-.432.338-.748.642-.948.307-.2.684-.3 1.127-.3.616 0 1.056.144 1.32.432.264.284.4.718.409 1.302-.288.04-.606.082-.955.126-.343.044-.69.094-1.037.15-.349.056-.668.12-.96.192-.484.128-.88.342-1.188.642-.309.296-.462.71-.462 1.242 0 .344.081.662.245.954.164.292.41.526.738.702.332.176.742.264 1.23.264zm.102-.762c-.349 0-.629-.056-.84-.168a1.123 1.123 0 01-.456-.438 1.2 1.2 0 01-.139-.552c0-.352.119-.616.355-.792.235-.176.491-.304.767-.384.357-.096.77-.174 1.242-.234l1.344-.168c0 .148-.005.318-.017.51-.008.188-.03.362-.067.522a2.002 2.002 0 01-.695 1.218c-.377.324-.874.486-1.495.486zm9.802.762c.644 0 1.196-.15 1.656-.45.464-.304.818-.744 1.062-1.32l-.888-.264c-.328.792-.938 1.188-1.83 1.188-.696 0-1.22-.234-1.572-.702-.352-.472-.532-1.096-.54-1.872.008-.756.182-1.374.522-1.854.344-.48.874-.72 1.59-.72.424 0 .8.108 1.128.324.332.212.574.512.726.9l.864-.276a2.419 2.419 0 00-1.002-1.314c-.484-.32-1.054-.48-1.71-.48-.644 0-1.192.144-1.644.432a2.746 2.746 0 00-1.038 1.2c-.24.512-.364 1.108-.372 1.788.008.664.128 1.254.36 1.77.236.516.58.92 1.032 1.212.452.292 1.004.438 1.656.438zm5.763 0c1.132 0 1.954-.418 2.466-1.254V15h.786v-4.026c0-.24-.012-.476-.036-.708a2.172 2.172 0 00-.156-.63 1.857 1.857 0 00-.882-.96c-.412-.224-.914-.336-1.506-.336-.712 0-1.292.16-1.74.48-.448.32-.748.77-.9 1.35l.858.252c.124-.432.338-.748.642-.948.308-.2.684-.3 1.128-.3.616 0 1.056.144 1.32.432.264.284.4.718.408 1.302-.288.04-.606.082-.954.126-.344.044-.69.094-1.038.15-.348.056-.668.12-.96.192-.484.128-.88.342-1.188.642-.308.296-.462.71-.462 1.242 0 .344.082.662.246.954.164.292.41.526.738.702.332.176.742.264 1.23.264zm.102-.762c-.348 0-.628-.056-.84-.168a1.123 1.123 0 01-.456-.438 1.2 1.2 0 01-.138-.552c0-.352.118-.616.354-.792.236-.176.492-.304.768-.384.356-.096.77-.174 1.242-.234l1.344-.168c0 .148-.006.318-.018.51-.008.188-.03.362-.066.522a2.002 2.002 0 01-.696 1.218c-.376.324-.874.486-1.494.486zm7.4-6.666a1.514 1.514 0 001.338-.768 1.5 1.5 0 00.21-.78h-.732c0 .224-.08.416-.24.576a.773.773 0 01-.576.24.786.786 0 01-.576-.24.786.786 0 01-.24-.576h-.732a1.534 1.534 0 001.548 1.548zm2.46.768h-.738l-3.558 5.004V8.52H82.9V15h.744l3.552-5.046V15h.858V8.52zM91.496 15h.882V9.336h2.298V8.52h-5.478v.816h2.298V15zm5.944.18c1.132 0 1.954-.418 2.466-1.254V15h.786v-4.026c0-.24-.012-.476-.036-.708a2.172 2.172 0 00-.156-.63 1.858 1.858 0 00-.882-.96c-.412-.224-.914-.336-1.506-.336-.712 0-1.292.16-1.74.48-.448.32-.748.77-.9 1.35l.858.252c.124-.432.338-.748.642-.948.308-.2.684-.3 1.128-.3.616 0 1.056.144 1.32.432.264.284.4.718.408 1.302-.288.04-.606.082-.954.126-.344.044-.69.094-1.038.15-.348.056-.668.12-.96.192-.484.128-.88.342-1.188.642-.308.296-.462.71-.462 1.242 0 .344.082.662.246.954.164.292.41.526.738.702.332.176.742.264 1.23.264zm.102-.762c-.348 0-.628-.056-.84-.168a1.123 1.123 0 01-.456-.438 1.2 1.2 0 01-.138-.552c0-.352.118-.616.354-.792.236-.176.492-.304.768-.384.356-.096.77-.174 1.242-.234l1.344-.168c0 .148-.006.318-.018.51-.008.188-.03.362-.066.522a2.002 2.002 0 01-.696 1.218c-.376.324-.874.486-1.494.486zm6.994-2.82h7.92v-.756h-7.92v.756z" fill="#fff"/><path d="M128.753 11.586a.929.929 0 011.412 0l4.444 5.202a.928.928 0 01-.706 1.532h-8.889a.928.928 0 01-.706-1.532l4.445-5.202z" fill="#1D634A"/><path d="M128.753 7.15a.929.929 0 011.412 0l4.444 5.202a.928.928 0 01-.706 1.532h-8.889a.928.928 0 01-.706-1.532l4.445-5.201z" fill="#278362"/><path d="M128.753 2.716a.929.929 0 011.412 0l4.444 5.201a.928.928 0 01-.706 1.532h-8.889a.929.929 0 01-.706-1.532l4.445-5.201z" fill="#3EA47F"/><path d="M147.772 6.457v1.649h-3.612v1.78h2.703v1.6h-2.703v3.418H142V6.457h5.772zm3.93 8.543c-.691 0-1.314-.14-1.869-.421a3.22 3.22 0 01-1.301-1.203c-.312-.522-.468-1.131-.468-1.83 0-.689.16-1.295.48-1.816a3.18 3.18 0 011.314-1.215c.556-.281 1.179-.421 1.869-.421.691 0 1.314.14 1.869.42.556.281.994.687 1.314 1.216.32.521.48 1.127.48 1.817s-.164 1.3-.493 1.829a3.19 3.19 0 01-1.326 1.203 4.097 4.097 0 01-1.869.421zm0-1.78a1.42 1.42 0 001.048-.434c.295-.289.442-.702.442-1.24 0-.537-.143-.95-.429-1.239a1.38 1.38 0 00-1.036-.433c-.421 0-.77.145-1.048.433-.278.281-.417.694-.417 1.24 0 .537.135.95.404 1.24a1.38 1.38 0 001.036.432zm6.993-3.911a2.74 2.74 0 01.948-.866 2.5 2.5 0 011.263-.325v2.178h-.594c-.539 0-.943.112-1.212.336-.27.217-.405.602-.405 1.155v3.117h-2.159V8.19h2.159v1.119zm9.886 2.129c0 .193-.012.394-.038.602h-4.887c.033.417.172.738.416.963.253.216.56.325.922.325.539 0 .914-.217 1.124-.65h2.299a2.915 2.915 0 01-.644 1.191c-.303.353-.686.63-1.149.83a3.88 3.88 0 01-1.554.301c-.69 0-1.305-.14-1.844-.421a3.073 3.073 0 01-1.263-1.203c-.303-.522-.454-1.131-.454-1.83 0-.697.147-1.307.442-1.828a3.073 3.073 0 011.263-1.203c.538-.281 1.157-.421 1.856-.421.682 0 1.288.136 1.819.409.53.272.943.661 1.238 1.167.303.505.454 1.095.454 1.768zm-2.21-.54c0-.354-.126-.635-.379-.843-.252-.209-.568-.313-.947-.313-.362 0-.669.1-.922.3-.244.201-.396.486-.455.855h2.703zM172.588 15c-.615 0-1.162-.1-1.642-.3-.48-.201-.859-.474-1.137-.819a2.132 2.132 0 01-.467-1.18h2.134a.777.777 0 00.341.566c.202.145.451.217.745.217.27 0 .476-.048.619-.144.152-.105.228-.237.228-.397 0-.193-.106-.333-.316-.422-.211-.096-.552-.2-1.023-.312a10.83 10.83 0 01-1.263-.35 2.275 2.275 0 01-.872-.589c-.244-.273-.366-.638-.366-1.095 0-.385.11-.734.329-1.047.227-.32.555-.573.985-.758.438-.184.955-.276 1.553-.276.884 0 1.579.208 2.084.625.514.417.808.97.884 1.66h-1.995a.802.802 0 00-.329-.553c-.177-.136-.412-.204-.707-.204-.253 0-.446.048-.581.144a.42.42 0 00-.202.373c0 .193.105.337.316.433.219.096.555.193 1.01.289a10.5 10.5 0 011.276.385c.328.12.614.32.859.602.252.272.383.641.391 1.106 0 .394-.118.746-.354 1.06-.227.304-.559.545-.997.721-.43.177-.931.265-1.503.265zm8.103-1.84v1.744h-1.098c-.783 0-1.394-.18-1.832-.542-.438-.369-.657-.966-.657-1.793V9.9h-.858V8.19h.858V6.554h2.16V8.19h1.415v1.708h-1.415v2.696c0 .2.051.345.152.433.101.088.269.132.505.132h.77zm12.177-4.826l-2.159 6.57h-.884l-1.908-5.51-1.907 5.51h-.896l-2.16-6.57h.897l1.717 5.716 1.933-5.716h.884l1.907 5.728 1.705-5.728h.871zm7.032 2.948c0 .289-.009.51-.026.662h-5.721c.025.497.152.922.379 1.275.227.353.526.622.897.806.37.177.774.265 1.212.265.573 0 1.053-.132 1.44-.397.396-.265.657-.622.783-1.07h.935a2.796 2.796 0 01-1.087 1.575c-.547.402-1.237.602-2.071.602-.648 0-1.229-.136-1.743-.41a3.097 3.097 0 01-1.212-1.178c-.287-.514-.43-1.111-.43-1.793 0-.682.143-1.28.43-1.793a2.909 2.909 0 011.2-1.179c.513-.273 1.098-.409 1.755-.409.657 0 1.229.136 1.718.41a2.83 2.83 0 011.137 1.106c.269.457.404.967.404 1.528zm-.897-.024c.008-.49-.097-.906-.316-1.251a2.01 2.01 0 00-.871-.782 2.786 2.786 0 00-1.213-.265c-.657 0-1.216.2-1.68.601-.463.402-.719.967-.77 1.697h4.85zm2.972-1.468a2.73 2.73 0 011.049-1.119c.48-.289 1.044-.433 1.692-.433.632 0 1.196.14 1.693.421.496.273.884.666 1.162 1.18.286.505.429 1.094.429 1.768 0 .674-.143 1.267-.429 1.78-.278.514-.67.911-1.175 1.192a3.356 3.356 0 01-1.68.421c-.657 0-1.225-.14-1.705-.421a2.644 2.644 0 01-1.036-1.12v1.445h-.871V6h.871v3.79zm5.128 1.817c0-.545-.113-1.015-.341-1.408a2.222 2.222 0 00-.909-.914 2.725 2.725 0 00-1.314-.313c-.471 0-.905.108-1.301.325a2.39 2.39 0 00-.922.926c-.227.401-.341.867-.341 1.396 0 .53.114.995.341 1.396.228.4.535.71.922.926.396.217.83.325 1.301.325a2.72 2.72 0 001.314-.313 2.3 2.3 0 00.909-.926c.228-.41.341-.883.341-1.42z" fill="#fff"/></svg>