<svg width="221" height="66" fill="none" xmlns="http://www.w3.org/2000/svg"><g clip-path="url(#clip0)"><path d="M212.359 0H8.168A8.168 8.168 0 000 8.168v49.006a8.168 8.168 0 008.168 8.167h204.191a8.168 8.168 0 008.168-8.167V8.168A8.168 8.168 0 00212.359 0z" fill="#000"/><path d="M212.359 1.307a6.862 6.862 0 016.861 6.86v49.007a6.863 6.863 0 01-6.861 6.86H8.168a6.86 6.86 0 01-6.861-6.86V8.168a6.86 6.86 0 016.86-6.861H212.36zm0-1.307H8.168A8.168 8.168 0 000 8.168v49.006a8.168 8.168 0 008.168 8.167h204.191a8.168 8.168 0 008.168-8.167V8.168A8.166 8.166 0 00212.359 0z" fill="#A6A6A6"/><path d="M111.31 35.53a6.945 6.945 0 00-6.39 4.307 6.946 6.946 0 005.081 9.446 6.94 6.94 0 008.285-6.811 6.855 6.855 0 00-2.016-4.95 6.844 6.844 0 00-4.96-1.993zm0 11.156a4.216 4.216 0 01-4.46-4.841 4.216 4.216 0 017.645-1.742c.477.698.734 1.523.736 2.369a4.024 4.024 0 01-1.071 2.934 4.022 4.022 0 01-2.85 1.28zM96.102 35.53a6.942 6.942 0 106.959 6.943 6.854 6.854 0 00-2.015-4.95 6.846 6.846 0 00-4.96-1.993h.016zm0 11.157a4.215 4.215 0 113.904-4.214 4.006 4.006 0 01-1.071 2.934 4.019 4.019 0 01-2.85 1.28h.017zM77.986 37.67v2.94h7.057a6.159 6.159 0 01-1.633 3.709 7.22 7.22 0 01-5.44 2.156 7.84 7.84 0 110-15.682 7.514 7.514 0 015.342 2.107l2.074-2.074a10.276 10.276 0 00-7.4-3.055 10.797 10.797 0 100 21.579 9.802 9.802 0 007.53-3.022 9.8 9.8 0 002.55-6.894 9.588 9.588 0 00-.164-1.846l-9.916.082zm74.016 2.287a6.534 6.534 0 00-5.946-4.427 6.535 6.535 0 00-6.534 6.943 6.789 6.789 0 004.228 6.44 6.792 6.792 0 002.665.502 6.907 6.907 0 005.783-3.07l-2.369-1.634a3.967 3.967 0 01-3.414 1.927 3.527 3.527 0 01-3.365-2.107l9.295-3.839-.343-.735zm-9.475 2.32a3.812 3.812 0 01.962-2.788 3.815 3.815 0 012.665-1.264 2.694 2.694 0 012.581 1.47l-6.208 2.582zm-7.547 6.73h3.055v-20.42h-3.055v20.42zm-4.998-11.925h-.115a4.893 4.893 0 00-3.659-1.634 6.959 6.959 0 000 13.902 4.74 4.74 0 003.659-1.634h.098v.997c0 2.662-1.421 4.084-3.708 4.084a3.838 3.838 0 01-3.496-2.467l-2.662 1.11a6.615 6.615 0 006.158 4.101c3.578 0 6.534-2.107 6.534-7.237V35.938h-2.809v1.143zm-3.496 9.605a4.232 4.232 0 01-2.749-7.072 4.231 4.231 0 012.749-1.357 3.922 3.922 0 013.708 4.215 3.882 3.882 0 01-.961 2.904 3.884 3.884 0 01-2.763 1.31h.016zm39.825-18.1h-7.301v20.42h3.054v-7.743h4.264a6.358 6.358 0 006.281-3.802 6.346 6.346 0 00-1.497-7.188 6.345 6.345 0 00-4.784-1.686h-.017zm0 9.802h-4.263V31.43h4.329a3.503 3.503 0 010 7.008l-.066-.05zm18.835-2.94a5.72 5.72 0 00-5.44 3.12l2.712 1.127a2.888 2.888 0 012.777-1.503 2.94 2.94 0 013.267 2.63v.212a6.745 6.745 0 00-3.185-.784c-2.924 0-5.881 1.634-5.881 4.59a4.722 4.722 0 005.064 4.492 4.296 4.296 0 003.921-1.96h.098v1.634h2.94v-7.858c0-3.577-2.712-5.652-6.191-5.652l-.082-.049zm-.376 11.19c-.996 0-2.385-.507-2.385-1.732 0-1.634 1.732-2.173 3.268-2.173a5.426 5.426 0 012.777.686 3.694 3.694 0 01-3.578 3.267l-.082-.049zm17.365-10.7l-3.496 8.853h-.098l-3.626-8.853h-3.267l5.439 12.382-3.103 6.877h3.185l8.364-19.26h-3.398zm-27.46 13.068h3.055v-20.42h-3.055v20.42zM68.788 23.31H67.58v-3.267h1.029a4.67 4.67 0 001.241-3.757v-4.852h6.534v8.593h1.095v3.267H76.27v-2.058h-7.48v2.074zm2.271-6.975a6.534 6.534 0 01-.931 3.757h4.9v-7.449H71.06v3.692zm16.188 3.627a5.096 5.096 0 01-7.187 0 5.293 5.293 0 010-7.27 5.064 5.064 0 017.187 0 5.276 5.276 0 010 7.27zm-6.256-.817a3.774 3.774 0 005.325 0 4.182 4.182 0 000-5.62 3.774 3.774 0 00-5.325 0 4.182 4.182 0 000 5.62zm14.048 2.303a5 5 0 01-5.096-5.113 4.998 4.998 0 015.096-5.113 4.524 4.524 0 013.594 1.634l-.882.85a3.268 3.268 0 00-2.728-1.242 3.71 3.71 0 00-2.712 1.078 4.198 4.198 0 000 5.668 3.71 3.71 0 002.712 1.078 3.872 3.872 0 002.99-1.454l.881.883a4.768 4.768 0 01-1.633 1.274 5.146 5.146 0 01-2.222.457zm8.985-.212h-1.258v-8.593h-2.744v-1.209h6.73v1.21h-2.728v8.592zm11.386-9.802l-3.709 8.266a2.468 2.468 0 01-2.254 1.748 2.516 2.516 0 01-.98-.212l.327-1.16c.198.116.423.177.653.18.24.018.48-.04.686-.164.197-.166.349-.38.441-.62l.36-.785-3.267-7.236h1.486l2.418 5.62 2.352-5.637h1.487zm1.421 9.802v-9.802h7.089v9.802h-1.258v-8.593h-4.573v8.593h-1.258zm9.327 0v-9.802h1.258v4.199h4.901v-4.198h1.257v9.8h-1.257V16.81h-4.901v4.427h-1.258zm17.691-1.274a5.096 5.096 0 01-7.187 0 5.295 5.295 0 010-7.27 5.064 5.064 0 017.187 0 5.276 5.276 0 010 7.27zm-6.256-.817a3.774 3.774 0 005.325 0 4.182 4.182 0 000-5.62 3.772 3.772 0 00-5.325 0 4.182 4.182 0 000 5.62zm12.84 2.09v-9.8h3.544a2.875 2.875 0 011.993.75 2.47 2.47 0 01.85 1.912 2.14 2.14 0 01-.36 1.225c-.24.352-.574.63-.964.8.474.158.89.454 1.193.85.314.4.481.896.474 1.405a2.577 2.577 0 01-.882 1.993 3.024 3.024 0 01-2.091.8l-3.757.066zm1.257-5.602h2.287a1.468 1.468 0 001.144-.474 1.465 1.465 0 00.476-1.032 1.45 1.45 0 00-.411-1.059 1.399 1.399 0 00-1.094-.474h-2.336l-.066 3.039zm0 4.394h2.532a1.5 1.5 0 001.176-.507c.288-.298.452-.695.458-1.11a1.632 1.632 0 00-1.634-1.634h-2.483l-.049 3.25z" fill="#fff"/><path fill-rule="evenodd" clip-rule="evenodd" d="M83.654 11.36a4.9 4.9 0 00-3.477 1.446 5.13 5.13 0 000 7.042 4.933 4.933 0 006.954 0 5.113 5.113 0 000-7.042 4.901 4.901 0 00-3.477-1.447zm-2.01.074a5.227 5.227 0 015.72 1.143l.002.003a5.44 5.44 0 010 7.494l-.003.003a5.26 5.26 0 01-7.418 0l-.004-.003a5.456 5.456 0 010-7.494l.003-.003a5.228 5.228 0 011.7-1.143zm58.612-.075a4.902 4.902 0 00-3.477 1.447 5.132 5.132 0 000 7.042 4.933 4.933 0 006.954 0 5.113 5.113 0 00-.001-7.042 4.89 4.89 0 00-3.476-1.447zm-2.01.075a5.23 5.23 0 015.719 1.143l.003.003a5.438 5.438 0 010 7.494l-.003.003a5.26 5.26 0 01-7.418 0l-.004-.003a5.456 5.456 0 010-7.494l.003-.003a5.234 5.234 0 011.7-1.143zm-41.29.341a4.359 4.359 0 00-1.913-.39h-.007a4.835 4.835 0 00-4.93 4.946v.008a4.835 4.835 0 004.93 4.946l.003.163.004-.163a4.98 4.98 0 002.15-.442 4.606 4.606 0 001.48-1.118l-.65-.649a4.035 4.035 0 01-2.997 1.376 3.872 3.872 0 01-2.83-1.126l-.005-.006a4.362 4.362 0 010-5.889l.005-.005a3.87 3.87 0 012.825-1.126 3.43 3.43 0 012.743 1.166l.645-.62a4.36 4.36 0 00-1.453-1.07zm-1.916 9.836a5.163 5.163 0 01-5.26-5.276 5.161 5.161 0 015.259-5.276 4.688 4.688 0 013.72 1.692l.097.117-1.122 1.08-.111-.142a3.104 3.104 0 00-2.592-1.18l-.012.001a3.544 3.544 0 00-2.59 1.028 4.035 4.035 0 000 5.442 3.546 3.546 0 002.59 1.028h.003a3.708 3.708 0 002.863-1.393l.114-.142 1.116 1.116-.094.114a4.933 4.933 0 01-1.69 1.318l-.003.002a5.31 5.31 0 01-2.288.471zm60.82-9.304a2.712 2.712 0 00-1.88-.71h-3.384v9.473l3.591-.063h.005c.732.01 1.44-.26 1.978-.757l.003-.003a2.395 2.395 0 00.826-1.866v-.006a2.059 2.059 0 00-.439-1.302l-.001-.002a2.318 2.318 0 00-1.114-.793l-.404-.134.39-.17c.361-.16.671-.417.894-.743.223-.334.338-.729.331-1.131v-.006a2.299 2.299 0 00-.793-1.785l-.003-.002zm.219-.243a3.039 3.039 0 00-2.103-.793h-3.707v10.13l3.918-.067h.003c.814.01 1.601-.29 2.2-.842a2.736 2.736 0 00.936-2.116v.003l-.163-.002.163-.004v.003a2.383 2.383 0 00-.508-1.504 2.644 2.644 0 00-.938-.768c.282-.178.526-.412.715-.69l.001-.001a2.3 2.3 0 00.387-1.316v.003l-.163-.003.163-.003v.003a2.633 2.633 0 00-.904-2.033zm-86.392-.793h6.86v8.592h1.095v3.594h-1.535V21.4h-7.155v2.075h-1.536V19.88h1.122a4.508 4.508 0 001.15-3.575l-.001-.01v-5.024zm.327.327v4.678a4.835 4.835 0 01-1.286 3.88l-.049.05h-.936v2.94h.882v-2.074h7.808v2.059h.883v-2.94H76.22v-8.593h-6.207zm29.844-.327h7.057v1.536h-2.728v8.592h-1.584v-8.592h-2.745V11.27zm.327.327v.882h2.744v8.592h.931V12.48h2.728v-.882h-6.403zm13.629-.327h1.848l-3.807 8.487a2.63 2.63 0 01-2.401 1.854h-.009a2.688 2.688 0 01-1.044-.227l-.13-.057.423-1.5.182.107c.174.101.371.155.573.157h.01a.999.999 0 00.579-.133 1.37 1.37 0 00.384-.546l.004-.01.328-.716-3.34-7.4h1.847l2.307 5.365 2.246-5.38zm.218.327l-2.459 5.89-2.527-5.874h-1.126l3.193 7.074-.388.847c-.103.264-.27.499-.486.682l-.01.008-.011.007a1.325 1.325 0 01-.778.187 1.488 1.488 0 01-.542-.11l-.234.83c.25.093.514.142.781.146a2.304 2.304 0 002.1-1.632l.003-.01 3.609-8.045h-1.125zm2.635-.327h7.417V21.4h-1.585v-8.592h-4.247V21.4h-1.585V11.271zm.327.327v9.474h.931V12.48h4.901v8.592h.931v-9.474h-6.763zm9.001-.327h1.584v4.198h4.574v-4.198h1.585V21.4h-1.585v-4.427h-4.574V21.4h-1.584V11.271zm.327.327v9.474h.931v-4.427h5.227v4.427h.931v-9.474h-.931v4.198h-5.227v-4.198h-.931zM80.876 13.41a3.936 3.936 0 015.556 0l.005.005a4.346 4.346 0 010 5.84l-.005.006a3.937 3.937 0 01-5.556 0l.115-.116-.121.11a4.345 4.345 0 010-5.84l.006-.005zm.233 5.622a3.61 3.61 0 005.09 0 4.019 4.019 0 000-5.394 3.61 3.61 0 00-5.09 0 4.018 4.018 0 000 5.394zm56.369-5.622a3.936 3.936 0 015.556 0l.005.005a4.342 4.342 0 010 5.84l-.005.006a3.938 3.938 0 01-5.556 0l.115-.116-.121.11a4.346 4.346 0 010-5.84l.006-.005zm.233 5.622a3.61 3.61 0 005.089 0 4.018 4.018 0 000-5.394 3.61 3.61 0 00-5.089 0 4.018 4.018 0 000 5.394zm16.378-6.601a1.573 1.573 0 011.217.526 1.618 1.618 0 01-.07 2.318 1.635 1.635 0 01-1.262.521h-2.451l.073-3.365h2.493zm.538.428a1.24 1.24 0 00-.53-.101h-2.181l-.059 2.711h2.127a1.308 1.308 0 001.017-.42l.005-.006.005-.005a1.295 1.295 0 00.058-1.856l-.005-.006a1.245 1.245 0 00-.437-.317zm-83.731-.379h4.296v7.776h-5.354l.15-.248a6.37 6.37 0 00.908-3.663V12.48zm.326.327v3.523a6.698 6.698 0 01-.811 3.599h4.454v-7.122h-3.642zm80.356 3.806h2.644a1.797 1.797 0 011.797 1.797v.002a1.793 1.793 0 01-.501 1.22 1.665 1.665 0 01-1.298.558h-2.695l.053-3.577zm.322.326l-.044 2.924h2.372a1.336 1.336 0 001.048-.45l.005-.006c.259-.269.406-.625.412-.998a1.472 1.472 0 00-1.471-1.469H151.9z" fill="#fff"/><path d="M17.055 12.316a3.267 3.267 0 00-.752 2.287v36.134c-.05.83.22 1.648.752 2.287l.114.114 20.24-20.223v-.473l-20.24-20.24-.114.114z" fill="url(#paint0_linear)"/><path d="M44.105 39.662l-6.697-6.746v-.474l6.697-6.763.148.082 8.02 4.557c2.287 1.29 2.287 3.415 0 4.721l-7.988 4.542-.18.081z" fill="url(#paint1_linear)"/><path d="M44.302 39.564l-6.894-6.894-20.353 20.354a2.663 2.663 0 003.397.098l23.866-13.558" fill="url(#paint2_linear)"/><path d="M44.303 25.777L20.437 12.219a2.663 2.663 0 00-3.398.098l20.37 20.353 6.894-6.893z" fill="url(#paint3_linear)"/><path opacity=".2" d="M44.106 39.416l-23.67 13.477a2.728 2.728 0 01-3.267 0l-.114.114.114.115a2.711 2.711 0 003.267 0l23.866-13.559-.196-.147z" fill="#000"/><path opacity=".12" d="M17.055 52.795a3.267 3.267 0 01-.752-2.286v.245c-.05.83.22 1.648.752 2.287l.114-.115-.114-.13zm35.218-18.001l-8.167 4.623.147.147 8.02-4.541a2.859 2.859 0 001.634-2.353 3.038 3.038 0 01-1.633 2.124z" fill="#000"/><path opacity=".25" d="M20.436 12.447l31.838 18.1a3.04 3.04 0 011.633 2.123 2.86 2.86 0 00-1.633-2.352l-31.838-18.1c-2.287-1.29-4.15-.212-4.15 2.402v.245c.05-2.63 1.88-3.708 4.15-2.418z" fill="#fff"/></g><defs><linearGradient id="paint0_linear" x1="35.611" y1="14.228" x2="8.201" y2="41.638" gradientUnits="userSpaceOnUse"><stop stop-color="#00A0FF"/><stop offset=".01" stop-color="#00A1FF"/><stop offset=".26" stop-color="#00BEFF"/><stop offset=".51" stop-color="#00D2FF"/><stop offset=".76" stop-color="#00DFFF"/><stop offset="1" stop-color="#00E3FF"/></linearGradient><linearGradient id="paint1_linear" x1="55.263" y1="32.671" x2="15.747" y2="32.671" gradientUnits="userSpaceOnUse"><stop stop-color="#FFE000"/><stop offset=".41" stop-color="#FFBD00"/><stop offset=".78" stop-color="orange"/><stop offset="1" stop-color="#FF9C00"/></linearGradient><linearGradient id="paint2_linear" x1="40.561" y1="36.428" x2="3.382" y2="73.59" gradientUnits="userSpaceOnUse"><stop stop-color="#FF3A44"/><stop offset="1" stop-color="#C31162"/></linearGradient><linearGradient id="paint3_linear" x1="11.926" y1=".294" x2="28.523" y2="16.89" gradientUnits="userSpaceOnUse"><stop stop-color="#32A071"/><stop offset=".07" stop-color="#2DA771"/><stop offset=".48" stop-color="#15CF74"/><stop offset=".8" stop-color="#06E775"/><stop offset="1" stop-color="#00F076"/></linearGradient><clipPath id="clip0"><path fill="#fff" d="M0 0h220.527v65.341H0z"/></clipPath></defs></svg>