<svg width="51" height="51" fill="none" xmlns="http://www.w3.org/2000/svg"><path d="M48.981 11.253L25.825.074a.747.747 0 00-.65 0L2.02 11.253a.747.747 0 00-.422.673v27.148c0 .287.164.548.422.673l23.156 11.178a.748.748 0 00.65 0l23.156-11.178a.747.747 0 00.422-.673V11.926a.747.747 0 00-.422-.673zm-23.48-9.676l21.437 10.349-6.215 3a.738.738 0 00-.126-.08L19.305 4.567l6.195-2.99zm-7.883 3.835l21.406 10.334-4.384 2.117-21.398-10.33 4.376-2.121zM35.43 19.141l4.095-1.978v7.824l-4.095 1.977v-7.823zm-9.183 29.922v-25.49l5.167-2.494a.747.747 0 10-.65-1.346L25.5 22.275l-2.071-1a.747.747 0 10-.65 1.345l1.974.953v25.49L3.091 38.605v-25.49l16.496 7.964a.744.744 0 00.997-.348.747.747 0 00-.348-.997L4.063 11.926l7.421-3.583 22.441 10.834.01.013v8.965a.747.747 0 001.073.672l5.589-2.698a.747.747 0 00.422-.673v-9.014l6.89-3.326v25.49L26.247 49.062z" fill="#000"/><path d="M9.256 35.708l-3.398-1.64a.747.747 0 10-.65 1.345l3.399 1.64a.744.744 0 00.997-.348.747.747 0 00-.348-.997zm3.128-2.036l-6.521-3.148a.747.747 0 10-.65 1.346l6.521 3.148a.745.745 0 00.998-.348.747.747 0 00-.348-.998z" fill="#427C92"/></svg>