<svg width="53" height="53" fill="none" xmlns="http://www.w3.org/2000/svg"><path d="M42.907 19.515h-3.336l1.005-11.543a.72.72 0 00.002-.062v-.005a.778.778 0 00-.468-.712l-.007-.003a.721.721 0 00-.053-.02l-.02-.007-.045-.011-.031-.008c-.013-.003-.027-.004-.04-.006l-.038-.005-.006-.001-.041-.002-.027-.001H23.913a.777.777 0 000 1.553h15.043l-1.546 17.74v.004l-.39 4.476H10.043l.451-4.658h5.137a.776.776 0 100-1.553h-4.986l.952-9.833h8.176a.776.776 0 100-1.553h-8.025l.448-4.623h8.612a.777.777 0 000-1.553H11.49a.777.777 0 00-.758.613l-.002.007-.01.06-.002.018v.003l-.531 5.475H.776a.776.776 0 100 1.553h9.261l-.952 9.833h-2.77a.776.776 0 100 1.553h2.62l-.52 5.354v.002l-.802 8.28v.005c-.002.01-.001.021-.002.032l-.002.043v.002a.8.8 0 00.003.06v.018l.01.06.003.017.01.044.009.03.003.01a.773.773 0 00.184.303l.005.005.026.023a.77.77 0 00.18.124l.041.02.013.004a.8.8 0 00.06.022l.005.001a.858.858 0 00.07.018l.01.001a.775.775 0 00.068.01h.001c.026.003.05.005.076.005h3.457a5.919 5.919 0 005.859 5.134 5.919 5.919 0 005.858-5.135h12.453a5.919 5.919 0 005.859 5.135 5.92 5.92 0 005.859-5.135h3.458a.776.776 0 00.077-.003l.013-.002a.793.793 0 00.06-.01l.025-.005a.689.689 0 00.046-.012l.03-.01a.753.753 0 00.038-.014l.031-.014a.808.808 0 00.125-.071l.031-.023.026-.02a.743.743 0 00.03-.029l.022-.02.03-.034.017-.019a.818.818 0 00.032-.043l.011-.015a.785.785 0 00.036-.059l.002-.003a.766.766 0 00.032-.067l.007-.02a.786.786 0 00.018-.048l.01-.033.009-.039.006-.035.006-.032c.032-.264.64-5.141.912-8.295v-.01c.079-.908.129-1.674.129-2.143 0-5.565-4.528-10.093-10.093-10.093zm-3.472 1.553h3.176l-.405 4.658h-3.177l.406-4.658zm-21.733 23.25a4.363 4.363 0 01-4.359-4.358 4.363 4.363 0 014.36-4.359 4.363 4.363 0 014.358 4.359 4.363 4.363 0 01-4.359 4.358zm24.17 0a4.363 4.363 0 01-4.358-4.358 4.363 4.363 0 014.358-4.359 4.363 4.363 0 014.358 4.359 4.363 4.363 0 01-4.358 4.358zm8.63-5.135H47.73a5.919 5.919 0 00-5.859-5.135 5.92 5.92 0 00-5.859 5.135H23.561a5.919 5.919 0 00-5.859-5.135 5.92 5.92 0 00-5.859 5.135H9.24l.653-6.729h27.839a.762.762 0 00.078-.003l.014-.002a.807.807 0 00.06-.01l.026-.006a.864.864 0 00.046-.012l.03-.01a.716.716 0 00.04-.014l.03-.015a.765.765 0 00.035-.016l.031-.018a.91.91 0 00.032-.019l.03-.02a.815.815 0 00.155-.148.824.824 0 00.065-.095l.015-.028c.007-.012.012-.025.018-.037l.014-.03.013-.038.012-.033.009-.037.009-.037.005-.037.006-.038v-.006l.39-4.466h4.012c2.379 0 3.452 1.232 4.587 2.537.937 1.077 1.984 2.278 3.762 2.57a288.87 288.87 0 01-.754 6.797zm.887-8.352c-1.154-.235-1.864-1.046-2.724-2.034-1.075-1.236-2.388-2.743-4.905-3.024l.402-4.612c4.116.61 7.285 4.165 7.285 8.447 0 .291-.022.714-.058 1.223z" fill="#2F3335"/><path d="M17.702 37.113a2.85 2.85 0 00-2.847 2.846 2.85 2.85 0 002.847 2.847 2.85 2.85 0 002.847-2.846 2.85 2.85 0 00-2.847-2.847zm0 4.14c-.713 0-1.294-.58-1.294-1.294a1.295 1.295 0 111.294 1.294zm24.17-4.14a2.85 2.85 0 00-2.847 2.846 2.85 2.85 0 002.847 2.847 2.85 2.85 0 002.847-2.846 2.85 2.85 0 00-2.847-2.847zm0 4.14a1.295 1.295 0 11.002-2.59 1.295 1.295 0 01-.002 2.59zM7.35 19.516H3.554a.776.776 0 100 1.552H7.35a.776.776 0 100-1.552z" fill="#427C92"/></svg>