<svg width="39" height="37" viewBox="0 0 39 37" fill="none" xmlns="http://www.w3.org/2000/svg">
<path d="M26.7085 36.9074H11.9058C5.33464 36.9074 0 31.5524 0 24.9996V11.9996C0 5.44674 5.33464 0.126953 11.9058 0.126953H26.7085C33.2797 0.126953 38.6143 5.44674 38.6143 11.9996V24.9996C38.6497 31.5524 33.2797 36.9074 26.7085 36.9074ZM11.9058 2.76923C6.78312 2.76923 2.64966 6.92641 2.64966 11.9996V24.9996C2.64966 30.108 6.81845 34.2299 11.9058 34.2299H26.7085C31.8312 34.2299 35.9647 30.0728 35.9647 24.9996V11.9996C35.9647 6.89118 31.7959 2.76923 26.7085 2.76923H11.9058Z" fill="white"/>
<path d="M19.3249 29.0865C13.4604 29.0865 8.72632 24.3304 8.72632 18.5173C8.72632 12.6691 13.4957 7.94824 19.3249 7.94824C25.1895 7.94824 29.9236 12.7043 29.9236 18.5173C29.9236 24.3304 25.1542 29.0865 19.3249 29.0865ZM19.3249 10.5553C14.9442 10.5553 11.376 14.1136 11.376 18.4821C11.376 22.8507 14.9442 26.4089 19.3249 26.4089C23.7057 26.4089 27.2739 22.8507 27.2739 18.4821C27.2739 14.1136 23.7057 10.5553 19.3249 10.5553Z" fill="white"/>
<path d="M31.9725 8.26541C31.9725 9.46324 30.9833 10.4497 29.7821 10.4497C28.5809 10.4497 27.5917 9.46324 27.5917 8.26541C27.5564 7.03235 28.5456 6.0459 29.7468 6.0459C30.9833 6.0459 31.9725 7.03235 31.9725 8.26541Z" fill="white"/>
</svg>
