<svg width="23" height="18" fill="none" xmlns="http://www.w3.org/2000/svg"><path fill-rule="evenodd" clip-rule="evenodd" d="M5.744 1.902C2.828 2.943.341 3.858.217 3.934c-.29.179-.29.732 0 .952.124.095 1.094.482 2.156.86l1.931.69.001 2.227c.001 2.58.127 2.856 1.634 3.606 1.457.726 2.77.98 5.108.991 3.019.014 4.79-.421 6.336-1.558l.584-.43v-4.71l.723-.284c.397-.156.761-.284.808-.284.048 0 .087 1.254.087 2.788v2.787l-.899.87c-.505.488-.899 1.03-.899 1.235 0 .206.394.747.9 1.236.758.735.898.972.898 1.527 0 .908.284 1.563.678 1.563.528 0 .76-.37.76-1.211 0-.713.093-.883.988-1.806.544-.56.989-1.149.989-1.309 0-.16-.445-.749-.989-1.309l-.988-1.018V5.456l.494-.172c.808-.282 1.03-.453 1.09-.84a.534.534 0 00-.3-.555C21.732 3.587 11.531-.01 11.276 0 11.15.005 8.66.86 5.743 1.902zm10.074 1.024c2.168.765 3.944 1.431 3.945 1.48.002.134-8.484 3.097-8.705 3.04-.744-.195-8.189-2.948-8.186-3.028.006-.2 8.185-3.005 8.589-2.945.227.034 2.188.688 4.357 1.453zm-7.4 5.013c1.323.484 2.563.88 2.756.88.194 0 1.479-.397 2.856-.883 1.378-.485 2.544-.883 2.592-.883.048 0 .087.796.087 1.769v1.768l-.584.354c-1.184.718-2.43.962-4.898.96-2.509-.002-4.174-.334-5.043-1.005-.414-.32-.44-.443-.44-2.093 0-.964.06-1.751.135-1.75.074.001 1.217.398 2.54.883zM20.9 14.15l-.484.497-.506-.476-.505-.476.484-.497.484-.496.506.476.506.475-.485.497z" fill="#1D873A"/></svg>