<svg width="18" height="16" fill="none" xmlns="http://www.w3.org/2000/svg"><path fill-rule="evenodd" clip-rule="evenodd" d="M.75 1.25A.75.75 0 011.5.5H6a3.75 3.75 0 013.75 3.75v10.5a.75.75 0 01-1.5 0 1.5 1.5 0 00-1.5-1.5H1.5a.75.75 0 01-.75-.75V1.25zm7.5 10.902V4.25A2.25 2.25 0 006 2H2.25v9.75h4.5a3 3 0 011.5.402z" fill="#1D873A"/><path fill-rule="evenodd" clip-rule="evenodd" d="M9.348 1.598A3.75 3.75 0 0112 .5h4.5a.75.75 0 01.75.75V12.5a.75.75 0 01-.75.75h-5.25a1.5 1.5 0 00-1.5 1.5.75.75 0 01-1.5 0V4.25a3.75 3.75 0 011.098-2.652zm.402 10.554a3 3 0 011.5-.402h4.5V2H12a2.25 2.25 0 00-2.25 2.25v7.902z" fill="#1D873A"/></svg>