<svg width="17" height="17" fill="none" xmlns="http://www.w3.org/2000/svg"><path fill-rule="evenodd" clip-rule="evenodd" d="M.416.06a.757.757 0 00-.38.428c-.048.175-.048 11.942 0 12.117a.75.75 0 00.138.243c.187.213.243.228.927.246l.618.017-.096.24c-.129.323-.25.797-.292 1.139-.02.155-.035.672-.035 1.15 0 .844.002.872.077 1.014a.84.84 0 00.219.246l.141.1h8.282l.135-.09a.85.85 0 00.213-.215c.078-.126.08-.136.09-1.216l.009-1.088h1.092c.659 0 1.162-.015 1.268-.036.097-.02.302-.097.455-.17.365-.175.698-.5.867-.847l.116-.24 1.095-.002c.985-.003 1.11-.01 1.229-.063a.757.757 0 00.38-.428c.048-.175.048-11.942 0-12.117a.757.757 0 00-.38-.427C16.456.003 16.12 0 8.5 0 .88 0 .544.003.416.06zm15.255 6.487v5.218l-.706-.002-.705-.002-.114-.238c-.148-.31-.49-.658-.816-.828-.44-.23-.405-.226-2.718-.226-1.144 0-2.079-.01-2.079-.022 0-.011.059-.114.13-.228a3.238 3.238 0 00.175-3.085 3.248 3.248 0 00-2.22-1.823 3.644 3.644 0 00-1.483 0 3.32 3.32 0 00-2.212 1.783c-.599 1.256-.352 2.696.637 3.726l.163.17-.21.127a4.64 4.64 0 00-.661.488l-.187.16H1.329V1.328H15.67v5.219zM2.949 2.692a.678.678 0 00-.324.427.664.664 0 00.494.798c.122.026 1.685.037 5.393.037 4.501 0 5.244-.007 5.386-.05a.686.686 0 00.477-.639c-.001-.241-.191-.523-.408-.605-.065-.025-1.756-.035-5.494-.034-5.291.001-5.403.003-5.524.066zm7.929 2.573c-.282.102-.487.447-.434.73.036.192.19.4.353.48.144.07.182.071 1.606.07 1.347 0 1.469-.005 1.591-.061.35-.162.474-.538.296-.895a.556.556 0 00-.24-.265l-.155-.09-1.444-.008c-1.17-.006-1.469.001-1.573.04zm-4.43 1.38c.59.183 1.1.694 1.293 1.298.105.325.098.832-.015 1.157a1.91 1.91 0 01-.528.822 1.898 1.898 0 01-1.32.527A1.97 1.97 0 014.01 9.056c-.1-.32-.1-.776 0-1.097a2.02 2.02 0 011.547-1.378 2.27 2.27 0 01.892.065zm6.307 5.25a.626.626 0 01.116.958c-.184.21-.174.208-1.716.208-.955 0-1.446.012-1.551.04a.702.702 0 00-.468.467c-.028.112-.032.43-.017 1.137l.022.982H2.623v-.468c0-1.047.28-1.77.947-2.443.379-.383.733-.62 1.164-.775.569-.206.39-.198 4.316-.192l3.588.006.117.08z" fill="#1D873A"/></svg>