<svg width="134" height="116" viewBox="0 0 134 116" fill="none" xmlns="http://www.w3.org/2000/svg">
<path d="M122.244 34.2189C121.266 33.834 120.223 33.6377 119.171 33.6406H119.061C113.506 33.7232 107.277 38.9254 104.008 46.7933C100.089 56.2061 101.893 65.8365 108.067 68.3123C109.045 68.6973 110.087 68.8935 111.138 68.8906C116.72 68.8906 123.035 63.6582 126.331 55.738C130.222 46.3251 128.391 36.6947 122.244 34.2189V34.2189ZM86.405 70.9505C78.7491 58.2468 75.4444 53.4687 66.687 53.4687C57.9296 53.4687 54.5973 58.2771 46.9415 70.9505C40.3872 81.7899 27.1409 82.6932 23.8362 91.8995C23.1658 93.5858 22.8291 95.3862 22.8448 97.2008C22.8448 104.689 28.5729 110.75 35.6229 110.75C44.3804 110.75 56.3048 103.758 66.7145 103.758C77.1243 103.758 88.9936 110.75 97.7511 110.75C104.801 110.75 110.502 104.691 110.502 97.2008C110.508 95.3844 110.162 93.5841 109.483 91.8995C106.178 82.6601 92.9593 81.7899 86.405 70.9505ZM49.2024 41.3516C49.5712 41.3519 49.9394 41.3242 50.304 41.2689C56.6958 40.3409 60.6862 31.4843 59.2377 21.4821C57.8745 12.0528 52.1519 5 46.1676 5C45.7989 4.9997 45.4307 5.02732 45.0661 5.08262C38.6743 6.01069 34.6839 14.8672 36.1324 24.8694C37.4956 34.2713 43.2182 41.3516 49.2024 41.3516ZM97.2333 24.8694C98.6819 14.8672 94.6915 6.01069 88.2997 5.08262C87.9351 5.02732 87.5668 4.9997 87.1981 5C81.2139 5 75.5022 12.0528 74.1363 21.4821C72.6878 31.4843 76.6782 40.3409 83.07 41.2689C83.4346 41.3242 83.8028 41.3519 84.1715 41.3516C90.1558 41.3516 95.8784 34.2713 97.2333 24.8694V24.8694ZM25.3151 68.3123C31.4811 65.8338 33.2821 56.1951 29.3688 46.7933C26.0751 38.873 19.7659 33.6406 14.192 33.6406C13.1412 33.6377 12.0993 33.834 11.1214 34.2189C4.95543 36.6975 3.15438 46.3361 7.06768 55.738C10.3614 63.6582 16.6706 68.8906 22.2445 68.8906C23.2953 68.8935 24.3372 68.6973 25.3151 68.3123V68.3123Z" stroke="#60A5AC" stroke-width="10" stroke-miterlimit="10"/>
</svg>
