<svg width="25" height="25" fill="none" xmlns="http://www.w3.org/2000/svg"><path d="M17.556 12.485a.458.458 0 01-.458.457h-4.13v4.132a.458.458 0 01-.916 0v-4.132H7.921a.458.458 0 010-.915h4.131V7.896a.458.458 0 11.916 0v4.13h4.13c.253 0 .458.206.458.459z" fill="#000" fill-opacity=".5"/><path d="M23.749 4.432a.458.458 0 00.457-.458V1.227a.458.458 0 00-.457-.458H21a.458.458 0 00-.457.458v.916h-1.496a.458.458 0 000 .915h1.496v.916c0 .253.205.458.457.458h.916v6.245H21a.458.458 0 00-.457.458v2.747c0 .253.205.458.457.458h.916v6.204H21a.458.458 0 00-.457.458v.915H14.34v-.915a.458.458 0 00-.458-.458h-2.747a.458.458 0 00-.458.458v.915H4.432v-.915a.458.458 0 00-.458-.458h-.916V14.34h.916a.458.458 0 00.458-.458v-2.747a.458.458 0 00-.458-.458h-.916V4.432h.916a.458.458 0 00.458-.458v-.916h6.246v.916c0 .253.205.458.458.458h2.747a.458.458 0 00.458-.458v-.916h1.495a.458.458 0 100-.915h-1.495v-.916a.458.458 0 00-.458-.458h-2.747a.458.458 0 00-.458.458v.916H4.432v-.916a.458.458 0 00-.458-.458H1.227a.458.458 0 00-.458.458v2.747c0 .253.205.458.458.458h.916v6.245h-.916a.458.458 0 00-.458.458v2.747c0 .253.205.458.458.458h.916v6.204h-.916a.458.458 0 00-.458.458v2.747c0 .252.205.457.458.457h2.747a.458.458 0 00.458-.457v-.916h6.246v.916c0 .252.205.457.458.457h2.747a.458.458 0 00.458-.457v-.916h6.203v.916c0 .252.205.457.457.457h2.748a.458.458 0 00.457-.457v-2.747a.458.458 0 00-.457-.458h-.916V14.34h.916a.458.458 0 00.457-.458v-2.747a.458.458 0 00-.457-.458h-.916V4.432h.916zM11.594 1.685h1.832v1.831h-1.832V1.685zm-9.91 1.831V1.685h1.832v1.831H1.685zm0 9.909v-1.833h1.832v1.832H1.685zm1.832 9.866H1.685v-1.832h1.831v1.832zm9.91 0h-1.832v-1.832h1.832v1.832zm9.865-1.832v1.832h-1.832v-1.832h1.832zm0-9.867v1.832h-1.832v-1.832h1.832zm-1.832-8.076V1.685h1.832v1.831h-1.832z" fill="#000" fill-opacity=".5"/><path d="M17.443 3.058a.458.458 0 010-.915.458.458 0 010 .915z" fill="#000" fill-opacity=".5"/></svg>