<svg width="84" height="84" fill="none" xmlns="http://www.w3.org/2000/svg"><path d="M70.378 52.716a1.135 1.135 0 01-1.135-1.135v-3.303a1.135 1.135 0 012.27 0v3.303a1.135 1.135 0 01-1.135 1.135z" fill="#000"/><path d="M66.973 81.73H17.027a4.54 4.54 0 01-4.54-4.54V6.81a4.54 4.54 0 014.54-4.54h49.946a4.54 4.54 0 014.54 4.54v22.204a1.135 1.135 0 11-2.27 0V6.811a2.27 2.27 0 00-2.27-2.27H17.027a2.27 2.27 0 00-2.27 2.27v70.378a2.27 2.27 0 002.27 2.27h49.946a2.27 2.27 0 002.27-2.27V59.527a1.135 1.135 0 112.27 0v17.662a4.54 4.54 0 01-4.54 4.54z" fill="#000"/><path fill="url(#paint0_linear)" d="M20.696 33.478h8.522v7.304h-8.522z"/><path fill="url(#paint1_linear)" d="M37.739 34.087h8.522v7.304h-8.522z"/><path fill="url(#paint2_linear)" d="M54.782 34.087h8.522v7.304h-8.522z"/><path fill="url(#paint3_linear)" d="M21.913 48.696h8.522V56h-8.522z"/><path fill="url(#paint4_linear)" d="M37.739 48.696h8.522V56h-8.522z"/><path fill="url(#paint5_linear)" d="M37.739 64.522h8.522v7.304h-8.522z"/><path fill="url(#paint6_linear)" d="M20.696 63.913h8.522v7.304h-8.522z"/><path fill="url(#paint7_linear)" d="M55.391 49.304h8.522v21.913h-8.522z"/><path d="M70.378 41.466a1.135 1.135 0 01-1.135-1.135V36.96a1.135 1.135 0 012.27 0v3.371a1.136 1.136 0 01-1.135 1.135zM61.581 25.54H22.42a2.27 2.27 0 01-2.27-2.27V13.054a2.27 2.27 0 012.27-2.27h39.162a2.27 2.27 0 012.27 2.27V23.27a2.27 2.27 0 01-2.27 2.27zM22.42 13.054V23.27h39.162V13.054H22.42zm39.634 29.608h-6.338a2.27 2.27 0 01-2.27-2.27v-6.338a2.27 2.27 0 012.27-2.27h6.338a2.27 2.27 0 012.27 2.27v6.337a2.27 2.27 0 01-2.27 2.27zm-6.338-8.608v6.337h6.338v-6.337h-6.338zM45.17 42.662h-6.34a2.27 2.27 0 01-2.27-2.27v-6.338a2.27 2.27 0 012.27-2.27h6.34a2.27 2.27 0 012.27 2.27v6.337a2.27 2.27 0 01-2.27 2.27zm-6.34-8.608v6.337h6.34v-6.337h-6.34zm-10.546 8.608h-6.337a2.27 2.27 0 01-2.27-2.27v-6.338a2.27 2.27 0 012.27-2.27h6.337a2.27 2.27 0 012.27 2.27v6.337a2.27 2.27 0 01-2.27 2.27zm-6.337-8.608v6.337h6.337v-6.337h-6.337zM45.17 58.081h-6.34a2.27 2.27 0 01-2.27-2.27v-6.339a2.27 2.27 0 012.27-2.27h6.34a2.27 2.27 0 012.27 2.27v6.339a2.27 2.27 0 01-2.27 2.27zm-6.34-8.609v6.339h6.34v-6.339h-6.34zm-10.546 8.609h-6.337a2.27 2.27 0 01-2.27-2.27v-6.339a2.27 2.27 0 012.27-2.27h6.337a2.27 2.27 0 012.27 2.27v6.339a2.27 2.27 0 01-2.27 2.27zm-6.337-8.609v6.339h6.337v-6.339h-6.337zM62.058 73.5h-6.346a2.27 2.27 0 01-2.27-2.27V49.47a2.27 2.27 0 012.27-2.271h6.346a2.27 2.27 0 012.27 2.27v21.76a2.27 2.27 0 01-2.27 2.271zm0-24.032h-6.346V71.23h6.346V49.468zM45.17 73.5h-6.34a2.27 2.27 0 01-2.27-2.27v-6.338a2.27 2.27 0 012.27-2.27h6.34a2.27 2.27 0 012.27 2.27v6.338a2.27 2.27 0 01-2.27 2.27zm-6.34-8.608v6.338h6.34v-6.338h-6.34zM28.284 73.5h-6.337a2.27 2.27 0 01-2.27-2.27v-6.338a2.27 2.27 0 012.27-2.27h6.337a2.27 2.27 0 012.27 2.27v6.338a2.27 2.27 0 01-2.27 2.27zm-6.337-8.608v6.338h6.337v-6.338h-6.337z" fill="#000"/><defs><linearGradient id="paint0_linear" x1="22.522" y1="32.87" x2="26.783" y2="40.783" gradientUnits="userSpaceOnUse"><stop stop-color="#FF5B14"/><stop offset="1" stop-color="#FF7F47"/></linearGradient><linearGradient id="paint1_linear" x1="39.565" y1="33.478" x2="43.826" y2="41.391" gradientUnits="userSpaceOnUse"><stop stop-color="#FF5B14"/><stop offset="1" stop-color="#FF7F47"/></linearGradient><linearGradient id="paint2_linear" x1="56.609" y1="33.478" x2="60.869" y2="41.391" gradientUnits="userSpaceOnUse"><stop stop-color="#FF5B14"/><stop offset="1" stop-color="#FF7F47"/></linearGradient><linearGradient id="paint3_linear" x1="23.739" y1="48.087" x2="28" y2="56" gradientUnits="userSpaceOnUse"><stop stop-color="#FF5B14"/><stop offset="1" stop-color="#FF7F47"/></linearGradient><linearGradient id="paint4_linear" x1="39.565" y1="48.087" x2="43.826" y2="56" gradientUnits="userSpaceOnUse"><stop stop-color="#FF5B14"/><stop offset="1" stop-color="#FF7F47"/></linearGradient><linearGradient id="paint5_linear" x1="39.565" y1="63.913" x2="43.826" y2="71.826" gradientUnits="userSpaceOnUse"><stop stop-color="#FF5B14"/><stop offset="1" stop-color="#FF7F47"/></linearGradient><linearGradient id="paint6_linear" x1="22.522" y1="63.304" x2="26.783" y2="71.217" gradientUnits="userSpaceOnUse"><stop stop-color="#FF5B14"/><stop offset="1" stop-color="#FF7F47"/></linearGradient><linearGradient id="paint7_linear" x1="57.217" y1="47.478" x2="70.922" y2="55.962" gradientUnits="userSpaceOnUse"><stop stop-color="#FF5B14"/><stop offset="1" stop-color="#FF7F47"/></linearGradient></defs></svg>