<svg width="30" height="30" fill="none" xmlns="http://www.w3.org/2000/svg"><g clip-path="url(#clip0)"><path d="M20.39 7.207H9.903l-.293.352.293 1.406.88 1.992 2.109 1.29 1.23 1.112.352 1.641 1.23-.176v-.527l.235-1.29 1.171-.585 1.114-.586 1.582-1.7.586-2.929z" fill="url(#paint0_linear)"/><path d="M10.84 23.203l-1.055 1.582.88.527h3.163l6.445-.234-.234-.879-1.113-.996-1.524-.937-2.285-.645h-.879l-1.816.82-1.582.762z" fill="url(#paint1_linear)"/><path d="M14.704 17.72a.43.43 0 100-.859.43.43 0 000 .86zm.688 1.376a.43.43 0 100-.86.43.43 0 000 .86zm-.888 1.296a.43.43 0 100-.86.43.43 0 000 .86zm1.668-5.823v-.691a.97.97 0 01.678-.917c2.396-.784 4.11-2.977 4.11-5.844a.44.44 0 00-.44-.44H9.48a.44.44 0 00-.44.44c0 2.733 1.613 5.027 4.11 5.844a.97.97 0 01.678.917v.69c0 .47.381.85.85.85h.644a.85.85 0 00.85-.85zm-.88-.691v.661h-.585v-.661c0-.797-.516-1.501-1.283-1.752-2.028-.663-3.335-2.393-3.49-4.57h10.131c-.155 2.177-1.462 3.907-3.489 4.57a1.846 1.846 0 00-1.283 1.752z" fill="#000"/><path d="M22.524 7.295V4.872a1.789 1.789 0 001.2-1.542 1.882 1.882 0 001.1-1.71V.733A.733.733 0 0024.09 0H10.14a.44.44 0 000 .879h13.804v.742c0 .506-.379.925-.868.99-.285.015-.183.01-16.02.01a1.003 1.003 0 01-1.002-1V.879H8.09a.44.44 0 000-.879H5.91a.733.733 0 00-.732.732v.889c0 .649.33 1.222.833 1.56a1.79 1.79 0 001.466 1.76v2.354a7.534 7.534 0 004.74 6.992v1.383a7.534 7.534 0 00-4.74 6.992v2.236a1.77 1.77 0 00-1.11.692 1.772 1.772 0 00-.35 1.225 1.88 1.88 0 00-.84 1.564v.889c0 .404.329.732.733.732h18.18a.733.733 0 00.732-.732v-.889c0-.755-.448-1.407-1.092-1.706.004-.404-.13-.8-.388-1.124a1.785 1.785 0 00-.82-.582v-2.305c0-.764-.113-1.518-.338-2.24a.44.44 0 10-.84.26c.2.639.3 1.305.3 1.98v2.207h-.877c-.406-.969-1.613-2.737-5.14-3.708a2.366 2.366 0 00-1.255 0c-3.529.971-4.736 2.74-5.14 3.708h-.878v-2.207c0-2.82 1.787-5.34 4.447-6.272a.44.44 0 00.294-.415v-1.993a.44.44 0 00-.294-.415 6.653 6.653 0 01-4.447-6.272V4.971h13.29v2.324c0 2.82-1.787 5.34-4.447 6.272a.44.44 0 00-.294.415v1.993a.44.44 0 00.294.415 6.7 6.7 0 013.318 2.566.44.44 0 10.729-.491 7.592 7.592 0 00-3.462-2.794v-1.384a7.534 7.534 0 004.74-6.992zm1.42 21.826H6.056v-.741c0-.554.453-1.002 1.001-1.002h15.887c.543 0 1.002.442 1.002 1.002v.741zm-1.29-3.026a.9.9 0 01.184.405c-16.382 0-15.817-.004-15.937.006a.916.916 0 01.901-.758c.186 0 13.88-.002 14.176.002.265.012.51.135.676.345zm-8.048-4.087c.258-.07.53-.07.788 0 2.787.768 3.933 2.054 4.393 2.86h-9.574c.46-.805 1.606-2.092 4.393-2.86zM7.1 3.764a.912.912 0 01-.156-.267h.007c.142.008 15.783.004 15.842.004-.226.598-.878.599-.759.586-.068.007.184.005-14.12.005-.303 0-.576-.042-.814-.328z" fill="#000"/></g><defs><linearGradient id="paint0_linear" x1="15" y1="7.207" x2="15" y2="15" gradientUnits="userSpaceOnUse"><stop stop-color="#FF5B14"/><stop offset="1" stop-color="#FF7F47"/></linearGradient><linearGradient id="paint1_linear" x1="14.004" y1="21.68" x2="17.754" y2="25.137" gradientUnits="userSpaceOnUse"><stop stop-color="#FF5B14"/><stop offset="1" stop-color="#FF7F47"/></linearGradient><clipPath id="clip0"><path fill="#fff" d="M0 0h30v30H0z"/></clipPath></defs></svg>