<svg width="59" height="59" fill="none" xmlns="http://www.w3.org/2000/svg"><g clip-path="url(#clip0)"><path stroke="url(#paint0_linear)" stroke-width="6" d="M3 3.807h51.848v50.695H3z"/><path d="M51.548 5.762h-5.481a.864.864 0 100 1.728h5.443v12.676H21.895V7.49H42.84a.864.864 0 100-1.728H7.452c-.932 0-1.69.758-1.69 1.69v44.096c0 .932.758 1.69 1.69 1.69h44.096c.932 0 1.69-.758 1.69-1.69V7.452c0-.932-.758-1.69-1.69-1.69zM37.105 21.895v15.21h-15.21v-15.21h15.21zM7.49 38.834h6.338a.864.864 0 100-1.729H7.49V7.49h12.676v29.615h-3.111a.864.864 0 100 1.729h20.05V51.51H7.49V38.834zM38.834 51.51V21.895H51.51V51.51H38.834z" fill="#000"/><path d="M57.118 0H1.882A1.884 1.884 0 000 1.882v55.236C0 58.156.844 59 1.882 59h55.236A1.884 1.884 0 0059 57.118V1.882A1.884 1.884 0 0057.118 0zm.154 57.118a.154.154 0 01-.154.154H1.882a.154.154 0 01-.153-.154V1.882c0-.085.068-.153.153-.153h55.236c.085 0 .154.068.154.153v55.236z" fill="#000"/></g><defs><linearGradient id="paint0_linear" x1="28.924" y1=".807" x2="28.924" y2="57.502" gradientUnits="userSpaceOnUse"><stop stop-color="#FF5B14"/><stop offset="1" stop-color="#FF7F47"/></linearGradient><clipPath id="clip0"><path fill="#fff" d="M0 0h59v59H0z"/></clipPath></defs></svg>