<svg width="59" height="59" fill="none" xmlns="http://www.w3.org/2000/svg"><path d="M55.27 29.5c0 14.233-11.537 25.77-25.77 25.77-14.233 0-25.77-11.537-25.77-25.77 0-14.233 11.537-25.77 25.77-25.77 14.233 0 25.77 11.537 25.77 25.77z" stroke="url(#paint0_linear)" stroke-width="5"/><path d="M29.5 0C13.208 0 0 13.208 0 29.5S13.208 59 29.5 59 59 45.792 59 29.5C58.982 13.215 45.785.018 29.5 0zm0 57.033c-15.206 0-27.533-12.327-27.533-27.533 0-15.206 12.327-27.533 27.533-27.533 15.206 0 27.533 12.327 27.533 27.533C57.016 44.699 44.7 57.016 29.5 57.033z" fill="#000"/><path d="M29.5 4.917C15.923 4.917 4.917 15.923 4.917 29.5c0 13.577 11.006 24.583 24.583 24.583 13.577 0 24.583-11.006 24.583-24.583C54.068 15.93 43.071 4.932 29.5 4.917zm0 47.2C17.01 52.117 6.883 41.99 6.883 29.5S17.01 6.883 29.5 6.883 52.117 17.009 52.117 29.5C52.103 41.985 41.985 52.102 29.5 52.117z" fill="#000"/><path d="M30.483 9.833h-1.966V11.8h1.966V9.833zm0 37.367h-1.966v1.967h1.966V47.2zm-9.967-35.222l-1.702.983.983 1.702 1.702-.983-.983-1.702zm18.679 32.354l-1.702.983.983 1.702 1.702-.983-.983-1.702zM12.959 18.815l-.983 1.703 1.703.984.983-1.704-1.703-.983zm32.357 18.687l-.983 1.703 1.703.983.983-1.703-1.703-.983zM11.8 28.517H9.833v1.966H11.8v-1.966zm37.367 0H47.2v1.966h1.967v-1.966zM13.68 37.5l-1.704.983.983 1.703 1.704-.983-.983-1.703zm32.356-18.685l-1.703.983.983 1.704 1.703-.984-.983-1.703zM19.792 44.336l-.983 1.702 1.702.983.983-1.702-1.702-.983zM38.48 11.98l-.983 1.701 1.702.984.983-1.703-1.702-.983zm-9.963 1.787v15.176l-9.357 5.614 1.013 1.686 9.834-5.9a.983.983 0 00.476-.843V13.767h-1.966z" fill="#000"/><defs><linearGradient id="paint0_linear" x1="29.5" y1="1.229" x2="29.5" y2="57.771" gradientUnits="userSpaceOnUse"><stop stop-color="#FF5B14"/><stop offset="1" stop-color="#FF7F47"/></linearGradient></defs></svg>