<svg width="73" height="73" fill="none" xmlns="http://www.w3.org/2000/svg"><g clip-path="url(#clip0)"><path d="M4.188 13.191a6.4 6.4 0 018.608-9.47l4.686 4.258-8.608 9.472-4.686-4.26z" fill="url(#paint0_linear)"/><path d="M69.114 69.572l-12.731-5.14 9.41-8.182 3.321 13.322z" fill="url(#paint1_linear)"/><path d="M71.98 10.352L62.647 1.02a3.49 3.49 0 00-4.93 0L40.145 18.591a1.127 1.127 0 001.593 1.593L59.31 2.613c.233-.233.542-.361.872-.361.33 0 .639.128.872.36l9.333 9.334c.233.232.36.542.36.872 0 .329-.127.639-.36.872l-2.29 2.29-6.002-6a1.127 1.127 0 00-1.593 1.592l6.001 6.001-2.617 2.617-2.637-2.637a1.127 1.127 0 00-1.593 1.593l2.637 2.637-2.617 2.617-2.637-2.637a1.127 1.127 0 00-1.593 1.593l2.637 2.637-2.617 2.617-6-6a1.127 1.127 0 00-1.594 1.593l6 6-2.616 2.617-2.637-2.637a1.127 1.127 0 00-1.594 1.593l2.638 2.637-2.214 2.214L36.372 25.55l2.06-2.06a1.127 1.127 0 00-1.593-1.593l-2.06 2.06L13.995 3.174A7.603 7.603 0 008.584.933a7.603 7.603 0 00-5.411 2.242A7.602 7.602 0 00.93 8.585a7.6 7.6 0 002.242 5.412L23.955 34.78 1.021 57.715a3.49 3.49 0 000 4.931l9.333 9.333A3.464 3.464 0 0012.819 73c.931 0 1.807-.363 2.465-1.021L38.22 49.044l1.634 1.634a1.127 1.127 0 001.593-1.594l-2.255-2.255a1.126 1.126 0 00-.35-.35L14.427 22.065l3.021-3.021 1.868 1.867a1.123 1.123 0 001.594 0c.44-.44.44-1.153 0-1.593l-1.868-1.868 3.021-3.021L33.98 26.345l.001.002.002.001 12.558 12.559a1.12 1.12 0 00.22.22l16.72 16.72-3.021 3.021L43.59 42l-.03-.033-6.726-6.727-.035-.032-11.883-11.882a1.127 1.127 0 00-1.593 1.593l35.543 35.544-3.021 3.02-10.707-10.706a1.127 1.127 0 00-1.594 1.593L55.05 65.874c.11.11.245.198.389.254l13.613 5.285A1.825 1.825 0 0071.005 71c.512-.513.674-1.28.411-1.955l-5.29-13.607a1.14 1.14 0 00-.254-.388l-16.83-16.83L71.98 15.283a3.49 3.49 0 000-4.93zM36.626 47.451l-2.21 2.21-2.638-2.637a1.127 1.127 0 00-1.593 1.593l2.637 2.638-2.617 2.616-6-6a1.127 1.127 0 00-1.594 1.593l6.001 6-2.617 2.617-2.637-2.637a1.127 1.127 0 00-1.593 1.593l2.637 2.638-2.617 2.617-2.637-2.638a1.127 1.127 0 00-1.593 1.594l2.637 2.637-2.617 2.617-6-6.001a1.127 1.127 0 00-1.594 1.593l6 6.001-2.29 2.29a1.225 1.225 0 01-.872.362c-.329 0-.639-.129-.872-.362l-9.332-9.333a1.234 1.234 0 010-1.743l22.934-22.935L36.626 47.45zM4.766 12.404a5.406 5.406 0 010-7.636 5.405 5.405 0 017.636 0l3.561 3.56-7.636 7.637-3.561-3.561zm11.887 4.25l-.001.001-3.817 3.817-2.915-2.914 7.637-7.636 2.914 2.914-3.818 3.818zm52.313 52.308l-11.102-4.31 6.787-6.787 4.315 11.097z" fill="#fff"/></g><defs><linearGradient id="paint0_linear" x1="3.756" y1="4.152" x2="13.178" y2="12.715" gradientUnits="userSpaceOnUse"><stop stop-color="#FF5B14"/><stop offset="1" stop-color="#FF7F47"/></linearGradient><linearGradient id="paint1_linear" x1="69.114" y1="69.572" x2="58.412" y2="57.265" gradientUnits="userSpaceOnUse"><stop stop-color="#FF5B14"/><stop offset="1" stop-color="#FF7F47"/></linearGradient><clipPath id="clip0"><path fill="#fff" d="M0 0h73v73H0z"/></clipPath></defs></svg>