<svg width="73" height="73" fill="none" xmlns="http://www.w3.org/2000/svg"><g clip-path="url(#clip0)"><path d="M14.33 14.685l-3.351 3.209-.642.356 12.618 11.977 3.565-3.565-12.19-11.976z" fill="url(#paint0_linear)"/><path d="M46.623 47.05l-3.35 3.209-.642.356 12.618 11.977 3.564-3.565-12.19-11.976z" fill="url(#paint1_linear)"/><path d="M69.578 5.703H17.11a1.14 1.14 0 00-1.14 1.14v6.723a3.422 3.422 0 00-3.942.628L8.8 17.42a21.697 21.697 0 000 30.648l16.13 16.13a21.672 21.672 0 0030.65 0l3.226-3.225a3.428 3.428 0 000-4.84l-9.68-9.678a3.422 3.422 0 00-4.839 0l-3.226 3.227-1.612 1.613a7.993 7.993 0 01-11.293 0l-6.453-6.453a7.939 7.939 0 01-1.166-1.498h49.04a1.14 1.14 0 001.14-1.14V6.843a1.14 1.14 0 00-1.14-1.14zm-46.26 26.235l3.227-3.227a3.422 3.422 0 000-4.839l-8.295-8.294V9.353l17.949 15.603L19.39 38.85a7.946 7.946 0 012.317-5.3l1.61-1.612zm20.774-4.449a1.14 1.14 0 01-1.497 0L20.16 7.984h46.369L44.092 27.49zm-6.148-1.02l3.154 2.742a3.44 3.44 0 004.492 0l3.153-2.737 17.663 14.588H20.289l17.655-14.594zm12.547-1.519L68.437 9.353v30.429L50.491 24.95zm-36.85-9.148a1.142 1.142 0 011.615 0l9.678 9.678a1.14 1.14 0 010 1.613l-2.42 2.42L11.22 18.222l2.42-2.419zm32.26 32.266a1.14 1.14 0 011.614 0l9.68 9.678a1.141 1.141 0 010 1.614l-2.421 2.42-11.292-11.293 2.419-2.419zm-19.356 4.84a10.277 10.277 0 0014.517 0l.807-.806L53.137 63.37a19.416 19.416 0 01-26.592-.784l-16.131-16.13a19.417 19.417 0 01-.784-26.593L20.898 31.13l-.806.806a10.277 10.277 0 000 14.518l6.453 6.453z" fill="#fff"/></g><defs><linearGradient id="paint0_linear" x1="18.428" y1="14.685" x2="18.428" y2="30.227" gradientUnits="userSpaceOnUse"><stop stop-color="#FF5B14"/><stop offset="1" stop-color="#FF7F47"/></linearGradient><linearGradient id="paint1_linear" x1="50.722" y1="47.051" x2="50.722" y2="62.592" gradientUnits="userSpaceOnUse"><stop stop-color="#FF5B14"/><stop offset="1" stop-color="#FF7F47"/></linearGradient><clipPath id="clip0"><path fill="#fff" d="M0 0h73v73H0z"/></clipPath></defs></svg>