<svg width="337" height="84" fill="none" xmlns="http://www.w3.org/2000/svg"><ellipse cx="3.072" cy="2.89" rx="2.148" ry="2.249" fill="#C2C2C2"/><ellipse cx="3.072" cy="65.858" rx="2.148" ry="2.249" fill="#C2C2C2"/><ellipse cx="3.072" cy="34.374" rx="2.148" ry="2.249" fill="#C2C2C2"/><ellipse cx="3.072" cy="18.632" rx="2.148" ry="2.249" fill="#C2C2C2"/><ellipse cx="3.072" cy="81.6" rx="2.148" ry="2.249" fill="#C2C2C2"/><ellipse cx="3.072" cy="50.116" rx="2.148" ry="2.249" fill="#C2C2C2"/><ellipse cx="123.369" cy="2.89" rx="2.148" ry="2.249" fill="#C2C2C2"/><ellipse cx="243.666" cy="2.89" rx="2.148" ry="2.249" fill="#C2C2C2"/><ellipse cx="123.369" cy="65.858" rx="2.148" ry="2.249" fill="#C2C2C2"/><ellipse cx="243.666" cy="65.858" rx="2.148" ry="2.249" fill="#C2C2C2"/><ellipse cx="123.369" cy="34.374" rx="2.148" ry="2.249" fill="#C2C2C2"/><ellipse cx="243.666" cy="34.374" rx="2.148" ry="2.249" fill="#C2C2C2"/><ellipse cx="123.369" cy="18.632" rx="2.148" ry="2.249" fill="#C2C2C2"/><ellipse cx="243.666" cy="18.632" rx="2.148" ry="2.249" fill="#C2C2C2"/><ellipse cx="123.369" cy="81.6" rx="2.148" ry="2.249" fill="#C2C2C2"/><ellipse cx="243.666" cy="81.6" rx="2.148" ry="2.249" fill="#C2C2C2"/><ellipse cx="123.369" cy="50.116" rx="2.148" ry="2.249" fill="#C2C2C2"/><ellipse cx="243.666" cy="50.116" rx="2.148" ry="2.249" fill="#C2C2C2"/><ellipse cx="138.406" cy="2.89" rx="2.148" ry="2.249" fill="#C2C2C2"/><ellipse cx="258.703" cy="2.89" rx="2.148" ry="2.249" fill="#C2C2C2"/><ellipse cx="138.406" cy="65.858" rx="2.148" ry="2.249" fill="#C2C2C2"/><ellipse cx="258.703" cy="65.858" rx="2.148" ry="2.249" fill="#C2C2C2"/><ellipse cx="138.406" cy="34.374" rx="2.148" ry="2.249" fill="#C2C2C2"/><ellipse cx="258.703" cy="34.374" rx="2.148" ry="2.249" fill="#C2C2C2"/><ellipse cx="138.406" cy="18.632" rx="2.148" ry="2.249" fill="#C2C2C2"/><ellipse cx="258.703" cy="18.632" rx="2.148" ry="2.249" fill="#C2C2C2"/><ellipse cx="138.406" cy="81.6" rx="2.148" ry="2.249" fill="#C2C2C2"/><ellipse cx="258.703" cy="81.6" rx="2.148" ry="2.249" fill="#C2C2C2"/><ellipse cx="138.406" cy="50.116" rx="2.148" ry="2.249" fill="#C2C2C2"/><ellipse cx="258.703" cy="50.116" rx="2.148" ry="2.249" fill="#C2C2C2"/><ellipse cx="153.443" cy="2.89" rx="2.148" ry="2.249" fill="#C2C2C2"/><ellipse cx="273.74" cy="2.89" rx="2.148" ry="2.249" fill="#C2C2C2"/><ellipse cx="153.443" cy="65.858" rx="2.148" ry="2.249" fill="#C2C2C2"/><ellipse cx="273.74" cy="65.858" rx="2.148" ry="2.249" fill="#C2C2C2"/><ellipse cx="153.443" cy="34.374" rx="2.148" ry="2.249" fill="#C2C2C2"/><ellipse cx="273.74" cy="34.374" rx="2.148" ry="2.249" fill="#C2C2C2"/><ellipse cx="153.443" cy="18.632" rx="2.148" ry="2.249" fill="#C2C2C2"/><ellipse cx="273.74" cy="18.632" rx="2.148" ry="2.249" fill="#C2C2C2"/><ellipse cx="153.443" cy="81.6" rx="2.148" ry="2.249" fill="#C2C2C2"/><ellipse cx="273.74" cy="81.6" rx="2.148" ry="2.249" fill="#C2C2C2"/><ellipse cx="153.443" cy="50.116" rx="2.148" ry="2.249" fill="#C2C2C2"/><ellipse cx="273.74" cy="50.116" rx="2.148" ry="2.249" fill="#C2C2C2"/><ellipse cx="168.48" cy="2.89" rx="2.148" ry="2.249" fill="#C2C2C2"/><ellipse cx="303.815" cy="2.89" rx="2.148" ry="2.249" fill="#C2C2C2"/><ellipse cx="168.48" cy="65.858" rx="2.148" ry="2.249" fill="#C2C2C2"/><ellipse cx="303.815" cy="65.858" rx="2.148" ry="2.249" fill="#C2C2C2"/><ellipse cx="168.48" cy="34.374" rx="2.148" ry="2.249" fill="#C2C2C2"/><ellipse cx="303.815" cy="34.374" rx="2.148" ry="2.249" fill="#C2C2C2"/><ellipse cx="168.48" cy="18.632" rx="2.148" ry="2.249" fill="#C2C2C2"/><ellipse cx="303.815" cy="18.632" rx="2.148" ry="2.249" fill="#C2C2C2"/><ellipse cx="168.48" cy="81.6" rx="2.148" ry="2.249" fill="#C2C2C2"/><ellipse cx="303.815" cy="81.6" rx="2.148" ry="2.249" fill="#C2C2C2"/><ellipse cx="168.48" cy="50.116" rx="2.148" ry="2.249" fill="#C2C2C2"/><ellipse cx="303.815" cy="50.116" rx="2.148" ry="2.249" fill="#C2C2C2"/><ellipse cx="183.518" cy="2.89" rx="2.148" ry="2.249" fill="#C2C2C2"/><ellipse cx="318.852" cy="2.89" rx="2.148" ry="2.249" fill="#C2C2C2"/><ellipse cx="183.518" cy="65.858" rx="2.148" ry="2.249" fill="#C2C2C2"/><ellipse cx="318.852" cy="65.858" rx="2.148" ry="2.249" fill="#C2C2C2"/><ellipse cx="183.518" cy="34.374" rx="2.148" ry="2.249" fill="#C2C2C2"/><ellipse cx="318.852" cy="34.374" rx="2.148" ry="2.249" fill="#C2C2C2"/><ellipse cx="183.518" cy="18.632" rx="2.148" ry="2.249" fill="#C2C2C2"/><ellipse cx="318.852" cy="18.632" rx="2.148" ry="2.249" fill="#C2C2C2"/><ellipse cx="183.518" cy="81.6" rx="2.148" ry="2.249" fill="#C2C2C2"/><ellipse cx="318.852" cy="81.6" rx="2.148" ry="2.249" fill="#C2C2C2"/><ellipse cx="183.518" cy="50.116" rx="2.148" ry="2.249" fill="#C2C2C2"/><ellipse cx="318.852" cy="50.116" rx="2.148" ry="2.249" fill="#C2C2C2"/><ellipse cx="198.555" cy="2.89" rx="2.148" ry="2.249" fill="#C2C2C2"/><ellipse cx="333.889" cy="2.89" rx="2.148" ry="2.249" fill="#C2C2C2"/><ellipse cx="198.555" cy="65.858" rx="2.148" ry="2.249" fill="#C2C2C2"/><ellipse cx="333.889" cy="65.858" rx="2.148" ry="2.249" fill="#C2C2C2"/><ellipse cx="198.555" cy="34.374" rx="2.148" ry="2.249" fill="#C2C2C2"/><ellipse cx="333.889" cy="34.374" rx="2.148" ry="2.249" fill="#C2C2C2"/><ellipse cx="198.555" cy="18.632" rx="2.148" ry="2.249" fill="#C2C2C2"/><ellipse cx="333.889" cy="18.632" rx="2.148" ry="2.249" fill="#C2C2C2"/><ellipse cx="198.555" cy="81.6" rx="2.148" ry="2.249" fill="#C2C2C2"/><ellipse cx="333.889" cy="81.6" rx="2.148" ry="2.249" fill="#C2C2C2"/><ellipse cx="198.555" cy="50.116" rx="2.148" ry="2.249" fill="#C2C2C2"/><ellipse cx="333.889" cy="50.116" rx="2.148" ry="2.249" fill="#C2C2C2"/><ellipse cx="213.592" cy="2.89" rx="2.148" ry="2.249" fill="#C2C2C2"/><ellipse cx="213.592" cy="65.858" rx="2.148" ry="2.249" fill="#C2C2C2"/><ellipse cx="213.592" cy="34.374" rx="2.148" ry="2.249" fill="#C2C2C2"/><ellipse cx="213.592" cy="18.632" rx="2.148" ry="2.249" fill="#C2C2C2"/><ellipse cx="213.592" cy="81.6" rx="2.148" ry="2.249" fill="#C2C2C2"/><ellipse cx="213.592" cy="50.116" rx="2.148" ry="2.249" fill="#C2C2C2"/><ellipse cx="228.629" cy="2.89" rx="2.148" ry="2.249" fill="#C2C2C2"/><ellipse cx="228.629" cy="65.858" rx="2.148" ry="2.249" fill="#C2C2C2"/><ellipse cx="228.629" cy="34.374" rx="2.148" ry="2.249" fill="#C2C2C2"/><ellipse cx="228.629" cy="18.632" rx="2.148" ry="2.249" fill="#C2C2C2"/><ellipse cx="228.629" cy="81.6" rx="2.148" ry="2.249" fill="#C2C2C2"/><ellipse cx="228.629" cy="50.116" rx="2.148" ry="2.249" fill="#C2C2C2"/><ellipse cx="18.109" cy="2.89" rx="2.148" ry="2.249" fill="#C2C2C2"/><ellipse cx="18.109" cy="65.858" rx="2.148" ry="2.249" fill="#C2C2C2"/><ellipse cx="18.109" cy="34.374" rx="2.148" ry="2.249" fill="#C2C2C2"/><ellipse cx="18.109" cy="18.632" rx="2.148" ry="2.249" fill="#C2C2C2"/><ellipse cx="18.109" cy="81.6" rx="2.148" ry="2.249" fill="#C2C2C2"/><ellipse cx="18.109" cy="50.116" rx="2.148" ry="2.249" fill="#C2C2C2"/><ellipse cx="33.146" cy="2.89" rx="2.148" ry="2.249" fill="#C2C2C2"/><ellipse cx="33.146" cy="65.858" rx="2.148" ry="2.249" fill="#C2C2C2"/><ellipse cx="33.146" cy="34.374" rx="2.148" ry="2.249" fill="#C2C2C2"/><ellipse cx="33.146" cy="18.632" rx="2.148" ry="2.249" fill="#C2C2C2"/><ellipse cx="33.146" cy="81.6" rx="2.148" ry="2.249" fill="#C2C2C2"/><ellipse cx="33.146" cy="50.116" rx="2.148" ry="2.249" fill="#C2C2C2"/><ellipse cx="48.183" cy="2.89" rx="2.148" ry="2.249" fill="#C2C2C2"/><ellipse cx="48.183" cy="65.858" rx="2.148" ry="2.249" fill="#C2C2C2"/><ellipse cx="48.183" cy="34.374" rx="2.148" ry="2.249" fill="#C2C2C2"/><ellipse cx="48.183" cy="18.632" rx="2.148" ry="2.249" fill="#C2C2C2"/><ellipse cx="48.183" cy="81.6" rx="2.148" ry="2.249" fill="#C2C2C2"/><ellipse cx="48.183" cy="50.116" rx="2.148" ry="2.249" fill="#C2C2C2"/><ellipse cx="63.22" cy="2.89" rx="2.148" ry="2.249" fill="#C2C2C2"/><ellipse cx="63.22" cy="65.858" rx="2.148" ry="2.249" fill="#C2C2C2"/><ellipse cx="63.22" cy="34.374" rx="2.148" ry="2.249" fill="#C2C2C2"/><ellipse cx="63.22" cy="18.632" rx="2.148" ry="2.249" fill="#C2C2C2"/><ellipse cx="63.22" cy="81.6" rx="2.148" ry="2.249" fill="#C2C2C2"/><ellipse cx="63.22" cy="50.116" rx="2.148" ry="2.249" fill="#C2C2C2"/><ellipse cx="78.257" cy="2.89" rx="2.148" ry="2.249" fill="#C2C2C2"/><ellipse cx="78.257" cy="65.858" rx="2.148" ry="2.249" fill="#C2C2C2"/><ellipse cx="78.257" cy="34.374" rx="2.148" ry="2.249" fill="#C2C2C2"/><ellipse cx="78.257" cy="18.632" rx="2.148" ry="2.249" fill="#C2C2C2"/><ellipse cx="78.257" cy="81.6" rx="2.148" ry="2.249" fill="#C2C2C2"/><ellipse cx="78.257" cy="50.116" rx="2.148" ry="2.249" fill="#C2C2C2"/><ellipse cx="93.295" cy="2.89" rx="2.148" ry="2.249" fill="#C2C2C2"/><ellipse cx="93.295" cy="65.858" rx="2.148" ry="2.249" fill="#C2C2C2"/><ellipse cx="93.295" cy="34.374" rx="2.148" ry="2.249" fill="#C2C2C2"/><ellipse cx="93.295" cy="18.632" rx="2.148" ry="2.249" fill="#C2C2C2"/><ellipse cx="93.295" cy="81.6" rx="2.148" ry="2.249" fill="#C2C2C2"/><ellipse cx="93.295" cy="50.116" rx="2.148" ry="2.249" fill="#C2C2C2"/><ellipse cx="108.332" cy="2.89" rx="2.148" ry="2.249" fill="#C2C2C2"/><ellipse cx="108.332" cy="65.858" rx="2.148" ry="2.249" fill="#C2C2C2"/><ellipse cx="108.332" cy="34.374" rx="2.148" ry="2.249" fill="#C2C2C2"/><ellipse cx="108.332" cy="18.632" rx="2.148" ry="2.249" fill="#C2C2C2"/><ellipse cx="108.332" cy="81.6" rx="2.148" ry="2.249" fill="#C2C2C2"/><ellipse cx="108.332" cy="50.116" rx="2.148" ry="2.249" fill="#C2C2C2"/><ellipse cx="289.148" cy="2.89" rx="2.148" ry="2.249" fill="#C2C2C2"/><ellipse cx="289.148" cy="65.858" rx="2.148" ry="2.249" fill="#C2C2C2"/><ellipse cx="289.148" cy="34.374" rx="2.148" ry="2.249" fill="#C2C2C2"/><ellipse cx="289.148" cy="18.632" rx="2.148" ry="2.249" fill="#C2C2C2"/><ellipse cx="289.148" cy="81.6" rx="2.148" ry="2.249" fill="#C2C2C2"/><ellipse cx="289.148" cy="50.116" rx="2.148" ry="2.249" fill="#C2C2C2"/></svg>