<svg width="59" height="59" fill="none" xmlns="http://www.w3.org/2000/svg"><g clip-path="url(#clip0)"><path fill="url(#paint0_linear)" d="M26.043 1.268h6.799v5.07h-6.799z"/><path d="M24.602 25.41l-2.765.863 3.687 4.898 1.498-.75 1.038-3.802-3.457-1.21z" fill="url(#paint1_linear)"/><path d="M34.57 25.813l2.766.864-3.688 4.897-1.498-.749-1.037-3.802 3.457-1.21z" fill="url(#paint2_linear)"/><path d="M29.598 30.653h-.04a.87.87 0 100 1.741h.04a.87.87 0 000-1.741z" fill="#000"/><path d="M57.394 41.193a3.166 3.166 0 00-1.745-.943v-6.154c0-2.307-1.56-3.582-3.029-3.61-1.223-.026-2.145.792-2.19 1.938-.026.667-1.474.782-2.626.8l-.894-2.95-.004-.014c-.883-2.733-3.052-3.352-5.149-3.952-.28-.08-.57-.163-.86-.25l-4.667-1.42c1.72-1.586 3.045-3.61 3.625-5.621a3.816 3.816 0 001.724-.992c.669-.66 1.052-1.494 1.052-2.29v-.974a1.86 1.86 0 00-1.265-1.759 1.99 1.99 0 00.032-.347V11.6c0-.848-.532-1.572-1.279-1.86a10.774 10.774 0 00-6.288-8.14A2.52 2.52 0 0031.487 0h-3.981a2.516 2.516 0 00-2.334 1.583 10.765 10.765 0 00-6.328 8.184 1.997 1.997 0 00-1.207 1.833v1.055c0 .132.014.261.039.386a1.859 1.859 0 00-1.158 1.72v.974c0 .796.384 1.63 1.053 2.29.5.494 1.11.84 1.725.993.58 2.014 1.903 4.037 3.622 5.62l-2.123.647a.673.673 0 00-.093.029l-2.441.743c-.289.088-.578.171-.859.251-2.097.6-4.265 1.22-5.148 3.952a.17.17 0 00-.005.014l-.896 2.952c-1.182-.002-2.96-.063-2.989-.801-.044-1.148-.967-1.963-2.19-1.94-1.468.029-3.028 1.303-3.028 3.61v6.198a3.167 3.167 0 00-1.54.9 2.862 2.862 0 00-.794 2.15l.234 3.85c.084 1.37.931 2.472 2.1 2.874v3.162c0 4.361 1.84 5.761 7.568 5.761l17.602.01a.87.87 0 000-1.742l-17.602-.01c-5.324 0-5.827-1.102-5.827-4.02v-2.997h.743c.227 0 .444-.012.652-.036.9-.105 1.624-.436 2.157-.988 1.187-1.23 1.116-3.177 1.054-4.894a29.08 29.08 0 01-.025-1.022 3.094 3.094 0 00-3.09-3.091h-1.49v-6.104c0-1.459.863-1.86 1.32-1.87.27-.005.409.085.416.267.025.649.339 1.804 2.154 2.25.933.23 2.025.227 2.903.224h35.441c.012 0 .025.004.038.004.013 0 .027-.003.04-.004.862.002 1.913-.002 2.817-.224 1.814-.446 2.128-1.601 2.154-2.251.007-.181.147-.27.416-.265.456.008 1.32.41 1.32 1.869v6.103h-1.285a3.094 3.094 0 00-3.09 3.092c0 .319-.012.66-.025 1.022-.063 1.717-.133 3.663 1.054 4.894.533.552 1.257.883 2.157.988.208.024.425.036.652.036h.537v2.997c0 2.918-.502 4.02-5.824 4.02l-15.796.007a.871.871 0 000 1.742h.001l15.796-.007c5.727 0 7.565-1.4 7.565-5.762V50.13c1.273-.338 2.216-1.488 2.304-2.936l.235-3.849a2.864 2.864 0 00-.794-2.15zm-51.016.748a1.35 1.35 0 011.348 1.35 42.144 42.144 0 00.027 1.085c.027.77.057 1.6-.041 2.302-.077.546-.232 1.015-.527 1.32-.32.33-.827.492-1.555.492H4.134c-.72 0-1.3-.603-1.35-1.403l-.234-3.85a1.138 1.138 0 01.325-.85 1.41 1.41 0 011.025-.446h2.478zm10.918-8.716h-4.122l.74-2.437c.518-1.598 1.541-2.086 3.382-2.635v5.072zm15.71-1.021a2.357 2.357 0 00.473.049c.753 0 1.445-.37 1.978-1.07l3.026-4.04 1.629.496v5.586h-7.107v-1.021zm3.705-5.6l-2.644 3.529c-.3.394-.533.382-.62.377-.257-.014-.515-.192-.64-.319a.96.96 0 00-.041-.045l-.022-.026-1.128-2.782c.228-.068.46-.145.7-.235a11.134 11.134 0 002.243-1.154l2.152.655zm4.178-10.87c0 .329-.2.722-.533 1.051a2.358 2.358 0 01-.18.159l.002-.07.024-2.228h.572c.062 0 .115.054.115.115v.974zM27.506 1.743h3.981c.428 0 .775.347.775.773v2.852a.775.775 0 01-.775.774h-3.981a.773.773 0 01-.772-.774V2.515c0-.426.346-.773.772-.773zM24.992 3.62v1.746a2.517 2.517 0 002.514 2.516h3.981a2.52 2.52 0 002.517-2.516V3.64a9.036 9.036 0 014.32 5.965h-17.68a9.028 9.028 0 014.348-5.984zm-6.198 13.165c-.334-.33-.534-.723-.534-1.051v-.974c0-.06.053-.115.112-.115h.576l.023 2.219.003.079a2.284 2.284 0 01-.18-.158zm2.083 1.412a.878.878 0 00-.058-.278 5.75 5.75 0 01-.106-1.064l-.023-2.21 7.108.006a.87.87 0 00.001-1.742l-7.986-.006h-.186a.252.252 0 01-.248-.25V11.6c0-.137.114-.253.248-.253h19.778c.136 0 .251.116.251.253v1.055a.253.253 0 01-.25.249h-7.633a.87.87 0 000 1.742h6.687l-.024 2.219c0 .337-.035.682-.1 1.032a.866.866 0 00-.068.325c-.695 2.933-3.463 6.094-6.56 7.25-1.574.585-2.688.586-4.257.002a9.662 9.662 0 01-2.24-1.207c-2.127-1.518-3.818-3.857-4.334-6.07zm5.267 15.027h-7.107V27.64l1.633-.497 3.027 4.045c.529.694 1.22 1.064 1.973 1.064a2.324 2.324 0 00.474-.049v1.021zm.24-3.08a1.06 1.06 0 00-.041.046c-.126.127-.384.306-.64.32-.088.004-.32.016-.616-.372l-2.646-3.535 2.148-.654c.718.474 1.475.868 2.256 1.158.236.087.466.164.691.23l-1.13 2.782-.021.026zm1.502.891c.05-.08.092-.16.124-.24l1.281-3.148a6.114 6.114 0 00.57 0l1.278 3.148c.032.078.074.16.125.24v2.19h-3.379v-2.19zm13.967 2.19V28.15c1.847.551 2.873 1.037 3.393 2.638l.74 2.437h-4.133zM56.45 43.237l-.234 3.849c-.049.8-.629 1.402-1.349 1.402H53.37c-.727 0-1.236-.16-1.555-.491-.295-.306-.45-.774-.526-1.32-.1-.702-.07-1.531-.042-2.302.014-.378.027-.735.027-1.085 0-.744.604-1.35 1.347-1.35h2.48c.384 0 .758.162 1.024.445.228.243.343.546.324.852z" fill="#000"/></g><defs><linearGradient id="paint0_linear" x1="29.442" y1="1.268" x2="29.442" y2="6.338" gradientUnits="userSpaceOnUse"><stop stop-color="#FF5B14"/><stop offset="1" stop-color="#FF7F47"/></linearGradient><linearGradient id="paint1_linear" x1="24.948" y1="25.409" x2="24.948" y2="31.171" gradientUnits="userSpaceOnUse"><stop stop-color="#FF5B14"/><stop offset="1" stop-color="#FF7F47"/></linearGradient><linearGradient id="paint2_linear" x1="34.225" y1="25.813" x2="34.225" y2="31.574" gradientUnits="userSpaceOnUse"><stop stop-color="#FF5B14"/><stop offset="1" stop-color="#FF7F47"/></linearGradient><clipPath id="clip0"><path fill="#fff" d="M0 0h59v59H0z"/></clipPath></defs></svg>