<svg width="25" height="25" fill="none" xmlns="http://www.w3.org/2000/svg"><path d="M12.322 12.043c1.654 0 3.087-.594 4.257-1.764 1.17-1.171 1.764-2.603 1.764-4.258 0-1.654-.593-3.086-1.764-4.257C15.41.594 13.976 0 12.322 0c-1.655 0-3.087.593-4.258 1.764C6.894 2.934 6.3 4.367 6.3 6.02c0 1.655.594 3.087 1.764 4.258 1.171 1.17 2.604 1.764 4.258 1.764zM9.1 2.8c.898-.898 1.951-1.335 3.22-1.335 1.27 0 2.324.437 3.222 1.335.899.898 1.335 1.952 1.335 3.221 0 1.27-.436 2.323-1.335 3.222-.898.898-1.952 1.335-3.221 1.335-1.27 0-2.323-.437-3.221-1.335-.899-.899-1.336-1.952-1.336-3.222 0-1.269.437-2.323 1.336-3.221zm13.758 16.424a14.885 14.885 0 00-.203-1.58 12.45 12.45 0 00-.388-1.588 7.85 7.85 0 00-.653-1.481 5.584 5.584 0 00-.985-1.284 4.341 4.341 0 00-1.414-.888 4.887 4.887 0 00-1.805-.327c-.256 0-.503.105-.98.415-.293.191-.636.413-1.019.658-.327.208-.77.404-1.319.58a5.239 5.239 0 01-1.613.261 5.242 5.242 0 01-1.614-.26c-.547-.177-.99-.373-1.318-.581-.38-.243-.722-.464-1.02-.658-.476-.31-.723-.415-.978-.415-.65 0-1.258.11-1.806.327a4.337 4.337 0 00-1.414.889 5.587 5.587 0 00-.984 1.283 7.861 7.861 0 00-.653 1.481 12.48 12.48 0 00-.389 1.588c-.1.56-.168 1.092-.202 1.58a21.4 21.4 0 00-.05 1.477c0 1.305.415 2.361 1.233 3.14C4.092 24.611 5.16 25 6.46 25h12.037c1.3 0 2.37-.39 3.177-1.159.819-.778 1.233-1.835 1.233-3.14 0-.504-.017-1.001-.05-1.477zm-2.193 3.556c-.534.508-1.242.755-2.167.755H6.461c-.925 0-1.634-.247-2.167-.755-.524-.498-.778-1.179-.778-2.08 0-.468.015-.93.046-1.374.03-.436.092-.915.183-1.423.09-.502.205-.974.342-1.4.13-.41.31-.815.531-1.205.212-.372.455-.69.724-.948.25-.24.568-.437.94-.585a3.374 3.374 0 011.154-.223c.052.028.143.08.291.176.301.197.648.42 1.032.666.433.275.99.525 1.656.74a6.7 6.7 0 002.064.331c.69 0 1.384-.111 2.064-.331.666-.216 1.224-.465 1.657-.74.392-.252.73-.47 1.031-.666.148-.096.24-.148.29-.175.422.01.81.086 1.155.222.373.148.69.345.94.585.27.257.512.576.724.948.222.39.4.796.532 1.205.136.427.251.898.341 1.4.091.51.153.988.183 1.423.031.442.047.905.047 1.375 0 .9-.254 1.58-.778 2.079z" fill="#000" fill-opacity=".5"/></svg>