<svg width="25" height="25" fill="none" xmlns="http://www.w3.org/2000/svg"><g clip-path="url(#clip0)"><path d="M5.094 16.618c2.466 2.948 5.434 5.269 8.822 6.91 1.29.612 3.015 1.337 4.937 1.462.12.005.233.01.352.01 1.29 0 2.326-.445 3.17-1.362a.112.112 0 00.021-.026c.3-.363.643-.69 1-1.036.244-.233.492-.477.73-.726 1.104-1.15 1.104-2.61-.01-3.724l-3.113-3.114c-.529-.549-1.16-.839-1.824-.839-.663 0-1.3.29-1.844.834l-1.854 1.855a9.897 9.897 0 00-.513-.27 6.395 6.395 0 01-.57-.31c-1.689-1.073-3.222-2.471-4.688-4.269-.74-.938-1.238-1.725-1.585-2.528.487-.44.942-.901 1.383-1.352.155-.16.316-.321.476-.482.56-.56.86-1.207.86-1.865 0-.658-.295-1.305-.86-1.865L8.441 2.378c-.182-.182-.353-.358-.529-.539A28.598 28.598 0 006.861.798C6.327.275 5.7 0 5.037 0c-.658 0-1.29.275-1.844.803L1.256 2.74A3.98 3.98 0 00.069 5.29C-.029 6.526.2 7.842.79 9.432c.907 2.46 2.275 4.745 4.305 7.185zm-3.76-11.22a2.74 2.74 0 01.823-1.761l1.927-1.928c.3-.29.632-.44.953-.44.316 0 .637.15.933.45.347.322.673.659 1.025 1.016.177.181.358.363.54.55l1.543 1.543c.321.321.487.648.487.969 0 .32-.166.647-.487.968-.16.161-.321.327-.482.487-.482.487-.932.948-1.43 1.389l-.026.026c-.43.43-.362.839-.259 1.15l.016.041c.399.958.953 1.87 1.818 2.958 1.554 1.917 3.191 3.403 4.994 4.548.223.145.461.26.684.373.207.104.399.202.57.311l.057.031c.17.088.336.13.502.13.415 0 .684-.264.772-.353l1.937-1.937c.3-.3.627-.461.948-.461.394 0 .715.243.917.461l3.124 3.119c.622.621.617 1.295-.015 1.953a17.28 17.28 0 01-.69.688c-.362.353-.74.715-1.082 1.125-.596.642-1.306.942-2.223.942-.088 0-.18-.005-.269-.01-1.699-.109-3.279-.772-4.465-1.337-3.222-1.559-6.05-3.77-8.398-6.578-1.932-2.326-3.232-4.492-4.092-6.813-.534-1.424-.736-2.569-.653-3.61z" fill="#000" fill-opacity=".5"/></g><defs><clipPath id="clip0"><path fill="#fff" d="M0 0h25v25H0z"/></clipPath></defs></svg>