<svg xmlns="http://www.w3.org/2000/svg" viewBox="0 0 237.9 85.3"><path d="M232.4 69.8c0 5.6-4.5 10.1-10.1 10.1H14.1C8.5 79.9 4 75.4 4 69.8V15.3C4 9.8 8.5 5.2 14.1 5.2h208.2c5.6 0 10.1 4.5 10.1 10.1v54.5z" fill="#b2b2b2"/><path d="M43.5 18H24.9c-2.2 0-4 1.8-4 4v41.2c0 2.2 1.8 4 4 4h18.6c2.2 0 4-1.8 4-4V22c0-2.2-1.8-4-4-4zm-9.3 46.3c-1.5 0-2.7-1.2-2.7-2.7 0-1.5 1.2-2.7 2.7-2.7 1.5 0 2.7 1.2 2.7 2.7-.1 1.5-1.3 2.7-2.7 2.7zm10.1-6.7H24V27.2h20.3v30.4zm18.4-32.2l-1.1 3.4h-1.5l3.7-10.9h1.7l3.7 10.9h-1.5l-1.2-3.4h-3.8zm3.6-1.1l-1.1-3.1c-.2-.7-.4-1.4-.5-2-.1.6-.3 1.3-.5 2L63 24.3h3.3zm4.4-3.3l1.5 4.4c.3.7.5 1.4.6 2 .2-.6.4-1.3.7-2L75 21h1.5l-3.1 7.8H72L69 21h1.7zm12.4 5.9c0 .7 0 1.3.1 1.9H82l-.1-1c-.4.6-1.3 1.2-2.4 1.2-1.6 0-2.4-1.1-2.4-2.2 0-1.9 1.7-2.9 4.7-2.9v-.2c0-.6-.2-1.8-1.8-1.8-.7 0-1.5.2-2.1.6l-.3-1c.6-.4 1.6-.7 2.6-.7 2.4 0 3 1.6 3 3.2v2.9zm-1.4-2.1c-1.6 0-3.3.2-3.3 1.8 0 .9.6 1.4 1.3 1.4 1 0 1.7-.6 1.9-1.3 0-.1.1-.3.1-.5v-1.4zm4.3-5.3c-.5 0-.9-.4-.9-.9s.4-.9.9-.9c.6 0 .9.4.9.9s-.3.9-.9.9zm-.7 9.3V21h1.4v7.8h-1.4zM89 17.3h1.4v11.5H89V17.3zm9.2 9.6c0 .7 0 1.3.1 1.9H97l-.1-1c-.4.6-1.3 1.2-2.4 1.2-1.6 0-2.4-1.1-2.4-2.2 0-1.9 1.7-2.9 4.7-2.9v-.2c0-.6-.2-1.8-1.8-1.8-.7 0-1.5.2-2 .6l-.3-1c.6-.4 1.6-.7 2.6-.7 2.4 0 3 1.6 3 3.2v2.9zm-1.4-2.1c-1.6 0-3.3.2-3.3 1.8 0 .9.6 1.4 1.3 1.4 1 0 1.7-.6 1.9-1.3 0-.1.1-.3.1-.5v-1.4zm3.6-7.5h1.4v4.9c.5-.9 1.4-1.4 2.7-1.4 1.9 0 3.3 1.6 3.3 4 0 2.8-1.8 4.2-3.5 4.2-1.1 0-2-.4-2.6-1.5l-.1 1.3h-1.2c0-.5.1-1.3.1-2v-9.5zm1.5 8.3c0 .2 0 .4.1.5.3 1 1.1 1.7 2.1 1.7 1.5 0 2.4-1.2 2.4-3 0-1.6-.8-2.9-2.3-2.9-1 0-1.9.7-2.1 1.7 0 .2-.1.4-.1.6v1.4zm7.6-8.3h1.4v11.5h-1.4V17.3zm4.5 7.8c0 1.9 1.2 2.7 2.7 2.7 1 0 1.6-.2 2.2-.4l.3 1c-.5.2-1.4.5-2.6.5-2.4 0-3.8-1.6-3.8-3.9 0-2.4 1.4-4.2 3.7-4.2 2.5 0 3.2 2.2 3.2 3.7v.7l-5.7-.1zm4.2-1c0-.9-.4-2.3-2-2.3-1.5 0-2.1 1.3-2.2 2.3h4.2zm9.6 4.9c-2.1 0-3.7-1.6-3.7-4 0-2.6 1.7-4.2 3.9-4.2s3.8 1.6 3.8 4c-.1 2.9-2.2 4.2-4 4.2zm0-1.1c1.4 0 2.4-1.3 2.4-3.1 0-1.3-.7-3-2.3-3-1.7 0-2.4 1.6-2.4 3 0 1.8.9 3.1 2.3 3.1zm5.6-4.8c0-.8 0-1.5-.1-2.1h1.3l.1 1.3c.4-.7 1.3-1.5 2.6-1.5 1.1 0 2.8.6 2.8 3.3v4.7h-1.4v-4.5c0-1.3-.5-2.3-1.8-2.3-.9 0-1.6.7-1.9 1.5-.1.2-.1.4-.1.7v4.7h-1.4v-5.8zm13.9-4V21h2v1h-2v4.2c0 1 .3 1.5 1.1 1.5.4 0 .6 0 .8-.1l.1 1.1c-.3.1-.7.2-1.3.2-.7 0-1.2-.2-1.5-.6-.4-.4-.5-1.1-.5-2.1V22h-1.2v-1h1.2v-1.4l1.3-.5zm3.6-1.8h1.4v4.9c.2-.4.6-.8 1-1 .4-.3.9-.4 1.5-.4 1 0 2.7.6 2.7 3.3v4.7h-1.4v-4.5c0-1.3-.5-2.3-1.8-2.3-.9 0-1.6.6-1.9 1.4-.1.2-.1.4-.1.7v4.7h-1.4V17.3zm9.7 7.8c0 1.9 1.2 2.7 2.7 2.7 1 0 1.6-.2 2.2-.4l.3 1c-.5.2-1.4.5-2.6.5-2.4 0-3.8-1.6-3.8-3.9 0-2.4 1.4-4.2 3.7-4.2 2.6 0 3.2 2.2 3.2 3.7v.7l-5.7-.1zm4.1-1c0-.9-.4-2.3-2-2.3-1.5 0-2.1 1.3-2.2 2.3h4.2zm7.1-4.6c-.5 0-.9-.4-.9-.9s.4-.9.9-.9.9.4.9.9-.3.9-.9.9zm-.7 9.3V21h1.4v7.8h-1.4zm3.8-10.8c.7-.1 1.6-.2 2.7-.2 1.4 0 2.4.3 3.1.9.6.5 1 1.3 1 2.3 0 1-.3 1.8-.9 2.3-.7.8-2 1.2-3.3 1.2-.4 0-.8 0-1.1-.1v4.4H175V18zm1.4 5.3c.3.1.7.1 1.2.1 1.7 0 2.7-.8 2.7-2.3 0-1.5-1-2.1-2.6-2.1-.6 0-1.1.1-1.3.1v4.2zm6.9-6h1.4v4.9c.2-.4.6-.8 1-1 .4-.3.9-.4 1.5-.4 1 0 2.7.6 2.7 3.3v4.7h-1.4v-4.5c0-1.3-.5-2.3-1.8-2.3-.9 0-1.6.6-1.9 1.4-.1.2-.1.4-.1.7v4.7h-1.4V17.3zM195.3 29c-2.1 0-3.7-1.6-3.7-4 0-2.6 1.7-4.2 3.9-4.2s3.8 1.6 3.8 4c-.1 2.9-2.1 4.2-4 4.2zm.1-1.1c1.4 0 2.4-1.3 2.4-3.1 0-1.3-.7-3-2.3-3-1.7 0-2.4 1.6-2.4 3-.1 1.8.9 3.1 2.3 3.1zm5.5-4.8c0-.8 0-1.5-.1-2.1h1.3l.1 1.3c.4-.7 1.3-1.5 2.6-1.5 1.1 0 2.8.6 2.8 3.3v4.7h-1.4v-4.5c0-1.3-.5-2.3-1.8-2.3-.9 0-1.6.7-1.9 1.5-.1.2-.1.4-.1.7v4.7H201v-5.8zm9.7 2c0 1.9 1.2 2.7 2.7 2.7 1 0 1.6-.2 2.2-.4l.3 1c-.5.2-1.4.5-2.6.5-2.4 0-3.8-1.6-3.8-3.9 0-2.4 1.4-4.2 3.7-4.2 2.6 0 3.2 2.2 3.2 3.7v.7l-5.7-.1zm4.2-1c0-.9-.4-2.3-2-2.3-1.5 0-2.1 1.3-2.2 2.3h4.2zM69.4 36.2l-9.6 28.2h4.4l2.9-8.7h9.3l2.9 8.7h4.5l-9.6-28.2h-4.8zm2.3 4.6c.3 1.3.7 2.6 1.1 4l2.6 7.5h-7.3l2.5-7.5c.4-1.3.8-2.6 1.1-4zm24.5 2.7c-2.9 0-5.2 1.1-6.8 3.3l-.2-2.8h-3.9v.4c.1 1.7.2 3.7.2 6.4v21.7h4.3V62.3c1.3 1.6 3.4 2.5 5.8 2.5 2.5 0 4.8-1 6.5-2.7 1.9-2 2.9-4.8 2.9-8.2 0-3-.9-5.6-2.5-7.5-1.6-1.9-3.8-2.9-6.3-2.9zM95.1 47c3.8 0 5.5 3.5 5.5 7 0 4.5-2.2 7.3-5.7 7.3-2.4 0-4.5-1.6-5-4-.1-.4-.2-.8-.2-1.4v-3.4c0-.3.1-.7.1-1.1 0-.1 0-.2.1-.3.7-2.4 2.9-4.1 5.2-4.1zm23.1-3.5c-2.9 0-5.2 1.1-6.8 3.3l-.2-2.8h-3.9v.4c.1 1.7.2 3.7.2 6.4v21.7h4.3V62.3c1.3 1.6 3.4 2.5 5.8 2.5 2.5 0 4.8-1 6.5-2.7 1.9-2 2.9-4.8 2.9-8.2 0-3-.9-5.6-2.5-7.5-1.6-1.9-3.9-2.9-6.3-2.9zm-1.1 3.5c3.8 0 5.5 3.5 5.5 7 0 4.5-2.2 7.3-5.7 7.3-2.4 0-4.5-1.6-5-4-.1-.4-.1-.8-.1-1.4v-3.4c0-.3.1-.7.1-1.1 0-.1 0-.2.1-.3.6-2.4 2.7-4.1 5.1-4.1zm28.6 1.1c-4-1.5-5.3-2.8-5.3-5 0-1.9 1.5-3.8 4.8-3.8 2.8 0 4.5 1 5 1.3l.4.2 1.2-3.6-.2-.1c-.7-.4-2.8-1.4-6.2-1.4-5.4 0-9.2 3.2-9.2 7.8 0 3.7 2.4 6.3 7.5 8.2 3.6 1.4 5 2.7 5 5.1 0 2.7-2.1 4.4-5.4 4.4-2.2 0-4.4-.6-6.1-1.7l-.4-.2-1.1 3.6.2.1c1.6 1.1 4.6 1.9 7.2 1.9 7.3 0 9.9-4.5 9.9-8.3-.1-4-2.2-6.5-7.3-8.5zm14.9-9l-4.2 1.3v3.5h-3.1v3.4h3.1v10.4c0 2.5.5 4.3 1.5 5.4 1 1 2.4 1.6 4.1 1.6 1.6 0 2.8-.3 3.3-.5l.2-.1-.2-3.4-.4.1c-.5.2-1.1.2-2 .2-1.7 0-2.4-1-2.4-3.5V47.3h5.1v-3.4h-5.1v-4.8zm15.7 4.4c-6 0-10.1 4.5-10.1 10.8 0 6.2 4 10.5 9.8 10.5 4.9 0 10.1-3.4 10.1-10.9 0-3-.9-5.6-2.7-7.5-1.8-1.9-4.2-2.9-7.1-2.9zm-.1 3.3c3.8 0 5.6 3.7 5.6 7.2 0 4.3-2.4 7.4-5.7 7.4-3.2 0-5.6-3.1-5.6-7.3-.1-3.6 1.7-7.3 5.7-7.3zm23-3.1l-.3-.1c-.4-.1-.7-.1-1.1-.1-2.2 0-4.2 1.3-5.3 3.4l-.1-3h-3.8v.4c.1 1.7.2 3.6.2 6.1v13.9h4.3V53.5c0-.6 0-1.2.1-1.7.5-2.6 2.2-4.3 4.5-4.3.4 0 .8 0 1.1.1h.5v-3.9zm9.6-.3c-5.7 0-9.6 4.5-9.6 11 0 6.3 3.9 10.3 10.1 10.3 3.2 0 5.4-.7 6.8-1.3l.3-.1-.8-3.2-.4.1c-1.2.5-2.7 1-5.3 1-1.9 0-6.1-.6-6.4-6.2h13.8l.1-.3c.1-.4.1-1 .1-1.8-.3-4.3-2.5-9.5-8.7-9.5zm-.3 3.3c1.3 0 2.4.4 3.1 1.2 1.2 1.2 1.4 3.1 1.5 4h-9.7c.4-2.5 1.9-5.2 5.1-5.2z" fill="#fff"/></svg>