<svg xmlns="http://www.w3.org/2000/svg" viewBox="0 0 116.2 116.2"><circle cx="60.9" cy="57.7" r="16.7" fill-rule="evenodd" clip-rule="evenodd"/><path d="M60.9 40.5c4.7 0 9.1 1.9 12.2 5 3.1 3.1 5 7.4 5 12.2 0 4.8-1.9 9.1-5 12.2-3.1 3.1-7.4 5-12.2 5-4.8 0-9.1-1.9-12.2-5-3.1-3.1-5-7.4-5-12.2 0-4.8 1.9-9.1 5-12.2 3.1-3 7.4-5 12.2-5zm11.2 6c-2.9-2.9-6.8-4.7-11.2-4.7-4.4 0-8.4 1.8-11.2 4.7-2.9 2.9-4.6 6.8-4.6 11.2 0 4.4 1.8 8.3 4.6 11.2 2.9 2.9 6.8 4.6 11.2 4.6 4.4 0 8.3-1.8 11.2-4.6 2.9-2.9 4.7-6.8 4.7-11.2-.1-4.3-1.9-8.3-4.7-11.2z" fill="#dadada"/><path d="M65.6 58.3c0-.7.2-1.3.4-1.8.5-1 1.4-1.5 1.4-1.6-1-1.5-2.6-1.7-3.2-1.8-1.3 0-2.6.9-3.2.9-.7 0-1.7-.8-2.9-.8-1.5 0-2.8.9-3.6 2.2-.2.4-.4.9-.5 1.3-.6 2.5.4 5.7 1.6 7.5.7 1.1 1.6 2.3 2.7 2.2 1.1 0 1.5-.7 2.8-.7 1.3 0 1.7.7 2.8.7 1.2 0 1.9-1.1 2.6-2.1.8-1.2 1.2-2.4 1.2-2.5.2 0-2.1-.9-2.1-3.5zm-2.2-6.6c.6-.7 1-1.8.9-2.8-.9 0-1.9.6-2.6 1.3-.6.7-1 1.7-.9 2.7 1 .2 2-.4 2.6-1.2z" fill-rule="evenodd" clip-rule="evenodd" fill="#fff"/></svg>