<svg version="1.1" id="Layer_1" xmlns="http://www.w3.org/2000/svg" x="0" y="0" viewBox="0 0 32.5 32.5" xml:space="preserve"><style>.st0{fill:#fff}</style><path class="st0" d="M31.8 16.2c0 8.6-7 15.5-15.5 15.5-8.6 0-15.5-7-15.5-15.5C.8 7.6 7.8.7 16.3.7s15.5 7 15.5 15.5zm-15.6 15c8.2 0 14.9-6.7 14.9-14.9S24.4 1.4 16.2 1.4C8 1.3 1.3 8 1.3 16.2c0 8.3 6.7 14.9 14.9 15z"/><path class="st0" d="M32.5 16.2c0 9-7.3 16.2-16.2 16.2C7.3 32.5 0 25.2 0 16.2 0 7.3 7.3 0 16.2 0c9 0 16.3 7.3 16.3 16.2zm-2 0C30.4 8.4 24.1 2 16.2 2 8.4 2 2 8.4 2 16.2c0 7.9 6.4 14.2 14.2 14.2 7.9 0 14.2-6.3 14.3-14.2z"/><path d="M20.6 17.9L15.5 23c-1 1-2.5 1-3.5 0-.9-.9-.9-2.5 0-3.4l3.4-3.4-3.4-3.4c-.9-.9-.9-2.5 0-3.4s2.5-.9 3.4 0l5.1 5.1c1 1 1 2.5.1 3.4z" fill="#e30613"/></svg>