<svg version="1.1" id="Layer_1" xmlns="http://www.w3.org/2000/svg" x="0" y="0" viewBox="0 0 32.5 32.5" xml:space="preserve"><style>.st0{fill:#fff}</style><path class="st0" d="M.7 16.2C.7 7.6 7.7.7 16.2.7c8.6 0 15.5 7 15.5 15.5 0 8.6-7 15.5-15.5 15.5C7.7 31.8.7 24.8.7 16.2zm15.5 15c8.2 0 14.9-6.7 14.9-14.9S24.4 1.4 16.2 1.4C8 1.3 1.3 8 1.3 16.2c0 8.3 6.7 14.9 14.9 15z"/><path class="st0" d="M0 16.2C0 7.3 7.3 0 16.2 0c9 0 16.2 7.3 16.2 16.2 0 9-7.3 16.2-16.2 16.2C7.3 32.5 0 25.2 0 16.2zm2 0c0 7.9 6.4 14.2 14.2 14.2 7.9 0 14.2-6.4 14.2-14.2C30.4 8.4 24.1 2 16.2 2 8.4 2 2 8.4 2 16.2z"/><path d="M11.9 14.5L17 9.4c.9-.9 2.5-.9 3.4 0s.9 2.5 0 3.4L17 16.2l3.4 3.4c.9.9.9 2.5 0 3.4-.9 1-2.5 1-3.4 0l-5.1-5.1c-.9-.9-.9-2.4 0-3.4z" fill="#e30613"/></svg>