<svg xmlns="http://www.w3.org/2000/svg" width="30.989" height="8.682" viewBox="14.278 4 30.989 8.682"><path fill="#231F20" d="M45.267 10.075c0-.56-.153-.995-.458-1.307-.307-.311-.734-.467-1.283-.467-.636 0-1.15.206-1.548.618-.396.411-.596.947-.596 1.61 0 .622.18 1.126.536 1.514l.076.076c-.293.082-.73.147-1.333.009a6.445 6.445 0 01-.047-.509 13.045 13.045 0 01-.012-.581V9.804c0-.56-.08-.946-.242-1.161-.161-.214-.438-.321-.835-.321-.183 0-.429.057-.74.17-.31.113-.748.31-1.315.592v-.587a.434.434 0 00-.032-.19c-.023-.043-.053-.064-.09-.064-.019 0-.132.044-.34.132a3.788 3.788 0 01-.629.206c-.033.006-.306.071-.679.079.006-.098.01-.194.01-.293 0-.628-.11-1.206-.332-1.734a3.792 3.792 0 00-.963-1.361 3.935 3.935 0 00-1.305-.788 4.573 4.573 0 00-1.585-.265c-.758 0-1.463.181-2.115.541a3.877 3.877 0 00-1.514 1.46 4.63 4.63 0 00-.475 1.129 4.716 4.716 0 00-.156 1.225c0 .587.098 1.127.293 1.619.195.492.482.927.862 1.302.405.395.858.691 1.357.89.5.199 1.042.298 1.626.298.684 0 1.309-.128 1.873-.384a3.99 3.99 0 001.451-1.121 4.213 4.213 0 00.911-1.995c.644-.033 1.037-.335 1.037-.335.021.13.035.269.046.414.01.146.014.296.014.447v1.33c0 .202-.003.39-.009.566-.008.178-.018.352-.031.523a5.626 5.626 0 00-.729.15c-.122.04-.183.09-.183.145 0 .038.014.063.041.078s.075.022.141.022c.019 0 .155-.011.409-.031.253-.018.496-.029.729-.029.233 0 .477.012.729.029.253.021.39.031.408.031.066 0 .112-.008.139-.022s.04-.04.04-.078c0-.055-.061-.104-.179-.145a5.072 5.072 0 00-.714-.15 10.79 10.79 0 01-.06-1.09V9.334a5.12 5.12 0 01.856-.388c.259-.086.488-.13.692-.13.3 0 .516.087.649.261.134.175.2.461.2.86v1.1a10.195 10.195 0 01-.06 1.084 5.649 5.649 0 00-.712.157c-.12.039-.18.089-.18.145 0 .037.013.063.042.077a.312.312 0 00.141.023c.02 0 .154-.011.408-.031.253-.019.496-.029.729-.029.232 0 .477.015.73.029.503.031.991-.099 1.259-.185.305.209.668.314 1.091.314.312 0 .603-.068.87-.202a2.247 2.247 0 00.941-.913.576.576 0 00.081-.241.09.09 0 00-.021-.063.07.07 0 00-.056-.026c-.037 0-.103.062-.194.185a3.213 3.213 0 01-.194.235 1.304 1.304 0 01-.453.353 1.33 1.33 0 01-.56.118c-.472 0-.854-.171-1.151-.513s-.444-.785-.444-1.331h3.131v-.147h.006zm-10.488.516a3.186 3.186 0 01-.982 1.08 3.147 3.147 0 01-1.768.535 3.445 3.445 0 01-1.628-.426 4.82 4.82 0 01-1.449-1.209 5.063 5.063 0 01-.806-1.366 3.904 3.904 0 01-.284-1.424c0-.893.288-1.624.865-2.193.576-.569 1.322-.854 2.234-.854.582 0 1.146.142 1.691.426a4.496 4.496 0 011.441 1.214c.333.432.587.888.761 1.37.104.286.175.575.218.869a2.282 2.282 0 01-.845-.326c-.17-.111-.043.223-.043.298 0 .033.011.057.031.074.021.015.176.276.56.401.118.038.23.065.34.085l.001.075a2.843 2.843 0 01-.337 1.371zm8.943-.627c-.267.015-.568.022-.904.022h-.671c.03-.461.152-.82.369-1.079.216-.258.502-.388.856-.388.329 0 .592.124.789.371.195.247.293.58.293 1.001a7.708 7.708 0 01-.732.073zM23.645 8.857h.559c.307 0 .527.005.659.015s.542.025.644.045v-.438c-.121.032-.551.054-.707.066-.155.013-.354.02-.596.02l-.559-.005c.004-.338.016-.704.036-1.098.02-.394.051-.658.087-1.197l-.839-.203v.067c.015 1.094.023 1.904.023 2.431h-.266a3.92 3.92 0 01-.433-.018 1.371 1.371 0 01-.293-.062v.437a1.6 1.6 0 01.249-.045c.097-.01.255-.014.477-.014h.243l-.076 2.121v.218c0 .057 0 .112.002.166l-.002.007c.017.959-.543.845-.962.789-.081-.011-.111-.053-.123-.074-.13-.237-.262-.5-.397-.789a27.6 27.6 0 01-.481-1.109L19.57 7.05a39.644 39.644 0 01-.713-1.792c-.182-.5-.314-.92-.395-1.258l-1.155.403c.199.085.237.109.498.555.097.201.205.441.329.72l-1.76 4.295a38.57 38.57 0 01-.527 1.212 19.42 19.42 0 01-.47.961c-.423.045-.713.089-.867.132-.154.042-.231.098-.231.164.004.041.018.068.04.081s.067.02.133.02c.031 0 .204-.015.521-.044a9.3 9.3 0 01.905-.045c.253 0 .526.014.823.045.295.029.467.044.516.044a.349.349 0 00.14-.021c.026-.016.039-.042.039-.079 0-.074-.101-.135-.302-.181-.202-.047-.54-.085-1.013-.116.088-.379.173-.708.253-.987s.155-.51.226-.693l.217-.598h3.08l.272.654.028.073c.26.654.436 1.173.529 1.552-.505.037-.852.079-1.039.123-.188.045-.281.103-.281.173 0 .037.012.063.039.079a.323.323 0 00.139.021c.037 0 .122-.006.257-.017.471-.048.907-.072 1.308-.072.325 0 1.557.013 2.155.02.146.098.335.148.57.148.33 0 .719-.027 1.093-.298.5-.351.53-.613.509-.634a.103.103 0 00-.075-.03c-.011 0-.12.072-.327.218a1.086 1.086 0 01-.636.218c-.247 0-.557-.15-.66-.314-.103-.163-.155-.46-.155-.888v-.189l.062-1.848zm-6.785.575l1.404-3.574 1.469 3.574H16.86z"/></svg>