<svg xmlns="http://www.w3.org/2000/svg" viewBox="0 0 48 48"><path d="M33 14.9c-5.1 1.9-10.2 4-15.2 6.2-.6.3-1.1.5-1.7.8-2.4 1-4.9 2.1-7.1 3.4-1.2.9.4 1.5 1.9 2 .2.1.5.2.7.3.2.1.4.1.6.2 1.6.5 3.5 1.1 5 .2 2.6-1.5 5.1-3.2 7.5-5 .8-.6 1.6-1.1 2.4-1.7l.1-.1c.7-.4 2.2-1.5 1.7-.1-1.4 1.5-2.8 2.8-4.3 4.1-1 .9-2 1.8-2.9 2.7-.8.7-1.7 2.1-.8 3l6.6 4.5c.7.5 1.4 1 2.1 1.4 1.2 1 3.1.2 3.4-1.3.1-.7.2-1.4.4-2.1.7-3.8 1.3-7.7 1.9-11.5l.3-1.8c.2-1.5.4-2.9.5-4.4-.3-1.5-2.1-1.1-3.1-.8z" fill="#fff"/><path d="M21.3 31.6h3.4V23h2.4l.3-2.9h-2.6v-1.6c0-.7.1-.9.8-.9h1.9v-3H25c-2.5 0-3.7 1.1-3.7 3.3v2.3h-1.8V23h1.8v8.6z"/></svg>