<svg xmlns="http://www.w3.org/2000/svg" viewBox="0 0 116.2 116.2"><circle cx="56.6" cy="58.2" r="16.7" fill-rule="evenodd" clip-rule="evenodd" fill="#345aa0"/><path d="M56.8 41c4.8 0 9.1 1.9 12.2 5 3.1 3.1 5 7.4 5 12.2 0 4.8-1.9 9.1-5 12.2-3.1 3.1-7.4 5-12.2 5s-9.1-1.9-12.2-5c-3.1-3.1-5-7.4-5-12.2 0-4.8 1.9-9.1 5-12.2 3.1-3 7.4-5 12.2-5zM68 47c-2.9-2.9-6.8-4.6-11.2-4.6-4.4 0-8.3 1.8-11.2 4.6-2.9 2.9-4.6 6.8-4.6 11.2 0 4.4 1.8 8.3 4.6 11.2 2.9 2.9 6.8 4.6 11.2 4.6 4.4 0 8.3-1.8 11.2-4.6 2.9-2.9 4.6-6.8 4.6-11.2.1-4.3-1.7-8.3-4.6-11.2z" fill="#dadada"/><path d="M58.1 54.7v-1.4c0-.7.4-.8.8-.8h2v-3h-2.7c-3 0-3.7 2.2-3.7 3.7v1.6h-1.8v3.5h1.8v8.8H58v-8.8h2.6l.1-1.4.2-2.1h-2.8z" fill-rule="evenodd" clip-rule="evenodd" fill="#fff"/></svg>