<svg xmlns="http://www.w3.org/2000/svg" viewBox="0 0 116.2 116.2"><circle cx="60" cy="55" r="16.7" fill-rule="evenodd" clip-rule="evenodd" fill="#e73730"/><path d="M60.2 37.9c4.8 0 9.1 1.9 12.2 5 3.1 3.1 5 7.4 5 12.2 0 4.8-1.9 9.1-5 12.2-3.1 3.1-7.4 5-12.2 5-4.8 0-9.1-1.9-12.2-5-3.1-3.1-5-7.4-5-12.2 0-4.8 1.9-9.1 5-12.2 3.1-3.1 7.4-5 12.2-5zm11.2 5.9c-2.9-2.9-6.8-4.6-11.2-4.6S51.9 41 49 43.8c-2.9 2.9-4.6 6.8-4.6 11.2 0 4.4 1.8 8.3 4.6 11.2 2.9 2.9 6.8 4.6 11.2 4.6s8.3-1.8 11.2-4.6C74.3 63.3 76 59.4 76 55c0-4.3-1.7-8.3-4.6-11.2z" fill="#dadada"/><path d="M62.1 53.8h-5.3c-.1 0-.2.1-.2.1v2.4H60c0 .2-.1.3-.1.4-.5 1.5-2.1 2.3-3.8 2-2.1-.4-3.4-2.3-3-4.4 0-.3.1-.6.2-.9.7-1.5 2.4-2.5 4.1-2.1.6.1 1.1.4 1.6.8l1.8-1.8s-.1-.1-.2-.1c-1.5-1.2-3.2-1.7-5.1-1.4-2.8.4-4.7 2.6-5.2 5.1-.2 1.1-.1 2.2.3 3.3 1.1 2.7 3.7 4.3 6.6 4 1.4-.2 2.7-.7 3.6-1.7 1.5-1.5 1.8-3.4 1.6-5.5.1-.2 0-.2-.3-.2zm6.2.2h-.4v-2c0-.1-.1-.2-.1-.2h-1.5V54h-2.2v.4c0 .4 0 .8.1 1.2h2.2v2.2H68v-2.2h2.2V54h-1.9z" fill-rule="evenodd" clip-rule="evenodd" fill="#f6f6f6"/></svg>