<svg version="1.1" id="Слой_1" xmlns="http://www.w3.org/2000/svg" xmlns:xlink="http://www.w3.org/1999/xlink" x="0" y="0" viewBox="0 0 237.9 85.3" xml:space="preserve"><style>.st5{fill:#f9f9f9}</style><path d="M232.9 69.4c0 5.6-4.5 10.1-10.1 10.1H15.3C9.7 79.5 5.2 75 5.2 69.4V15.1C5.2 9.5 9.7 5 15.3 5h207.6c5.6 0 10.1 4.5 10.1 10.1v54.3z" fill="#b2b2b2"/><g id="PLAY"><defs><path id="SVGID_1_" d="M54.6 37.6l-10.3-5.9S25.6 20.9 24.5 20.3c-1.1-.6-2.2-.3-2.2 1.1V68c0 1 .8 1.4 1.7.9 1-.6 20.3-11.7 20.3-11.7l10.3-5.9s8.7-5 9.9-5.7c1.2-.7 1-1.6.1-2.1-1.1-.7-10-5.9-10-5.9z"/></defs><clipPath id="SVGID_2_"><use xlink:href="#SVGID_1_" overflow="visible"/></clipPath><linearGradient id="SVGID_3_" gradientUnits="userSpaceOnUse" x1="35.016" y1="19.152" x2="35.016" y2="69.589"><stop offset="0" stop-color="#2079b0"/><stop offset=".286" stop-color="#4a93b8"/><stop offset=".767" stop-color="#83bebf"/><stop offset="1" stop-color="#97cfbf"/></linearGradient><path clip-path="url(#SVGID_2_)" fill="url(#SVGID_3_)" d="M22.3 19.2v50.4l25.4-25.2z"/><linearGradient id="SVGID_4_" gradientUnits="userSpaceOnUse" x1="22.299" y1="31.67" x2="54.563" y2="31.67"><stop offset="0" stop-color="#5abcab"/><stop offset="1" stop-color="#e6e99a"/></linearGradient><path clip-path="url(#SVGID_2_)" fill="url(#SVGID_4_)" d="M54.6 37.6l-10.3-5.9-22-12.7v.2l25.4 25.2z"/><linearGradient id="SVGID_5_" gradientUnits="userSpaceOnUse" x1="38.431" y1="44.371" x2="38.431" y2="69.772"><stop offset="0" stop-color="#e53432"/><stop offset=".167" stop-color="#d73948"/><stop offset=".575" stop-color="#b33f72"/><stop offset=".862" stop-color="#9a4189"/><stop offset="1" stop-color="#904192"/></linearGradient><path clip-path="url(#SVGID_2_)" fill="url(#SVGID_5_)" d="M22.3 69.6v.2l22-12.7 10.3-6-6.9-6.7z"/><linearGradient id="SVGID_6_" gradientUnits="userSpaceOnUse" x1="57.014" y1="37.597" x2="57.014" y2="51.144"><stop offset="0" stop-color="#f18779"/><stop offset=".119" stop-color="#f2917a"/><stop offset=".713" stop-color="#fabc77"/><stop offset="1" stop-color="#fdcb73"/></linearGradient><path clip-path="url(#SVGID_2_)" fill="url(#SVGID_6_)" d="M54.6 37.6l-6.9 6.8 6.9 6.7 11.7-6.7z"/></g><path class="st5" d="M182.4 54.2c-1 0-1.8-.2-2.6-.5-.8-.4-1.5-.9-2-1.6h-.2c.1.9.2 1.7.2 2.4v6h-2.2V39.3h1.8l.3 2h.1c.6-.8 1.2-1.4 2-1.7.8-.4 1.6-.5 2.6-.5 1.9 0 3.4.7 4.5 2s1.6 3.2 1.6 5.6c0 2.4-.5 4.3-1.6 5.6-1.1 1.3-2.6 1.9-4.5 1.9zm-.3-13.3c-1.5 0-2.6.4-3.3 1.2-.7.8-1 2.2-1 4v.5c0 2.1.3 3.5 1 4.4.7.9 1.8 1.3 3.3 1.3 1.3 0 2.3-.5 3-1.5.7-1 1.1-2.4 1.1-4.2 0-1.8-.4-3.2-1.1-4.2-.7-1-1.7-1.5-3-1.5zM193.6 54h-2.2V33.1h2.2V54zm12.8 0l-.4-2.1h-.1c-.7.9-1.5 1.5-2.2 1.9-.7.3-1.6.5-2.7.5-1.5 0-2.6-.4-3.4-1.1-.8-.7-1.2-1.8-1.2-3.2 0-3 2.4-4.5 7.1-4.7l2.5-.1v-.9c0-1.2-.2-2-.7-2.5-.5-.5-1.3-.8-2.4-.8-1.2 0-2.6.4-4.1 1.1l-.7-1.7c.7-.4 1.5-.7 2.4-.9.9-.2 1.7-.3 2.6-.3 1.7 0 3 .4 3.9 1.2.8.8 1.3 2 1.3 3.7v10h-1.9zm-5-1.6c1.4 0 2.5-.4 3.3-1.1.8-.8 1.2-1.8 1.2-3.2v-1.3l-2.2.1c-1.8.1-3 .3-3.8.8-.8.5-1.2 1.2-1.2 2.3 0 .8.2 1.4.7 1.8.4.4 1.1.6 2 .6zm8-13.1h2.4l3.2 8.4c.7 1.9 1.1 3.3 1.3 4.1h.1c.1-.5.4-1.2.7-2.3.4-1.1 1.6-4.5 3.6-10.2h2.4L216.8 56c-.6 1.7-1.4 2.8-2.2 3.5-.8.7-1.9 1-3.1 1-.7 0-1.3-.1-2-.2v-1.8c.5.1 1 .2 1.6.2 1.5 0 2.6-.9 3.3-2.6l.8-2.1-5.8-14.7zm-68.1 1.4c.7.6 2.2 1.8 2.2 4.1s-1.3 3.3-2.6 4.4c-.4.4-.9.8-.9 1.5s.5 1 .8 1.3l1.1.9c1.3 1.1 2.6 2.2 2.6 4.3 0 2.9-2.8 5.8-8.1 5.8-4.4 0-6.6-2.1-6.6-4.4 0-1.1.5-2.7 2.4-3.7 1.9-1.2 4.5-1.3 5.9-1.4-.4-.6-.9-1.1-.9-2.1 0-.5.2-.8.3-1.2-.3 0-.7.1-1 .1-3.3 0-5.1-2.4-5.1-4.8 0-1.4.6-3 2-4.1 1.7-1.4 3.8-1.7 5.5-1.7h6.3l-2 1.1h-1.9zm-2.2 13.6h-.7c-.3 0-1.9.1-3.2.5-.7.2-2.6 1-2.6 3.2s2.1 3.7 5.4 3.7c2.9 0 4.5-1.4 4.5-3.3-.1-1.6-1.1-2.5-3.4-4.1zm.9-5.9c.7-.7.8-1.7.8-2.2 0-2.2-1.3-5.6-3.9-5.6-.8 0-1.7.4-2.1 1-.5.6-.7 1.5-.7 2.3 0 2.1 1.2 5.5 3.8 5.5.8-.1 1.6-.5 2.1-1zm-18.1 5.4c-4.9 0-7.5-3.8-7.5-7.2 0-4 3.3-7.4 7.9-7.4 4.5 0 7.3 3.5 7.3 7.2.1 3.6-2.7 7.4-7.7 7.4zm3.9-2.5c.7-1 .9-2.2.9-3.4 0-2.7-1.3-7.8-5.1-7.8-1 0-2 .4-2.8 1-1.2 1.1-1.4 2.4-1.4 3.7 0 3 1.5 8 5.2 8 1.2.1 2.5-.5 3.2-1.5zm-20.5 2.5c-4.9 0-7.5-3.8-7.5-7.2 0-4 3.3-7.4 7.9-7.4 4.5 0 7.3 3.5 7.3 7.2.1 3.6-2.7 7.4-7.7 7.4zm3.9-2.5c.7-1 .9-2.2.9-3.4 0-2.7-1.3-7.8-5.1-7.8-1 0-2 .4-2.8 1-1.2 1.1-1.4 2.4-1.4 3.7 0 3 1.5 8 5.2 8 1.2.1 2.5-.5 3.2-1.5zm-13.7 2l-4.4 1c-1.8.3-3.4.5-5.1.5-8.5 0-11.7-6.3-11.7-11.1 0-6 4.6-11.5 12.4-11.5 1.7 0 3.3.2 4.7.6 2.3.6 3.4 1.4 4.1 1.9L93 37.2l-1.1.2.8-1.2c-1-1-3-2.9-6.6-2.9-4.9 0-8.5 3.7-8.5 9.1 0 5.8 4.2 11.2 10.9 11.2 2 0 3-.4 3.9-.8v-5l-4.6.2 2.5-1.3h6.5l-.8.8c-.2.2-.2.2-.3.5 0 .3-.1 1.2-.1 1.5v3.8z"/><path class="st5" d="M151 52.4c-1-.1-1.2-.3-1.2-1.5V33.3c.1-1.1.4-1.3 1.4-1.8h-4.4l-2.3 1.1h2.4v19c0 .6-.1.7-.8 1.6h5.5l1.1-.7c-.7 0-1.2 0-1.7-.1z"/><path class="st5" d="M163.5 52.7c-.3.2-.7.4-1 .6-1 .5-2.1.6-3 .6-1 0-2.5-.1-4.1-1.2-2.2-1.5-3.1-4.2-3.1-6.5 0-4.7 3.9-7.1 7-7.1 1.1 0 2.2.3 3.2.9 1.5 1 1.9 2.3 2.1 3l-7.2 2.9-2.4.2c.8 3.9 3.4 6.1 6.3 6.1 1.6 0 2.7-.5 3.7-1.1l-1.5 1.6zm-2.8-9.1c.6-.2.9-.4.9-.8 0-1.2-1.4-2.6-3-2.6-1.2 0-3.5.9-3.5 4.3 0 .5.1 1.1.1 1.6l5.5-2.5zm5.8-4.3v2h-.2v-2h-.7v-.2h1.6v.2h-.7zm2.7 2.1v-2l-.6 2h-.2l-.6-2v2h-.2v-2.2h.4l.6 1.8.6-1.8h.4v2.2h-.4z"/><path d="M80.4 26.2h-1.5c0-.2-.1-.8-.4-1.8h-2.2c-.3 1-.4 1.6-.4 1.8h-1.4c0-.1.4-1.1 1.1-3.1.7-1.9 1.1-3 1.1-3.2h1.8c0 .2.3 1.2 1 3.1.6 2 .9 3 .9 3.2zm-2.2-2.7c-.5-1.6-.8-2.5-.8-2.7h-.1c0 .1-.3 1-.8 2.7h1.7zm8.4 2.7h-1.2c0-.1-.4-.8-1.3-2.1s-1.4-2.2-1.6-2.7h-.1c.1.7.1 1.3.1 1.9 0 .8 0 1.7.1 2.9h-1.2c0-1 .1-2.1.1-3.3 0-1.2 0-2.2-.1-3h1.4c0 .2.4.8 1.2 2 .8 1.3 1.3 2.1 1.4 2.5h.1c-.1-.7-.1-1.3-.1-1.9 0-.9 0-1.8-.1-2.7h1.2c0 .8-.1 1.8-.1 3 .1 1.3.2 2.4.2 3.4zm6.9-3.3c0 .9-.3 1.7-.9 2.4-.6.7-1.4 1-2.4 1-.5 0-1.1 0-2-.1 0-1 .1-2 .1-3.3 0-1.2 0-2.2-.1-3h1.9c1.2 0 2 .3 2.5.9.7.6.9 1.3.9 2.1zm-1.3.2c0-.6-.2-1.1-.5-1.5-.4-.4-.9-.6-1.6-.6h-.6v4.3c.2 0 .4.1.6.1.7 0 1.2-.2 1.5-.6.5-.6.6-1.1.6-1.7zm7.7 3.1h-1.4c-.4-1.1-.7-1.8-.9-2.1-.2-.3-.5-.4-1-.4h-.5v2.5h-1.3c0-1 .1-2 .1-3.3 0-1.2 0-2.2-.1-3H97c1.5 0 2.2.5 2.2 1.5 0 .8-.4 1.3-1.3 1.7v.1c.3.1.6.3.8.8.5.3.8 1.1 1.2 2.2zm-1.8-4.4c0-.6-.4-1-1.2-1-.3 0-.6 0-.8.1 0 .5.1 1.1.1 1.9h.4c1 0 1.5-.3 1.5-1zm8.7 1.2c0 1-.3 1.8-.9 2.4-.6.6-1.3 1-2.2 1-.8 0-1.5-.3-2.1-.9-.6-.6-.9-1.3-.9-2.3 0-1 .3-1.8.9-2.4.6-.6 1.3-1 2.2-1 .8 0 1.5.3 2.1.9.6.6.9 1.3.9 2.3zm-1.3.1c0-.7-.2-1.2-.5-1.6-.3-.4-.8-.6-1.3-.6s-.9.2-1.2.6c-.3.4-.5.9-.5 1.6 0 .7.2 1.2.5 1.6.3.4.8.6 1.3.6s.9-.2 1.2-.6c.3-.4.5-1 .5-1.6zm4 3.1h-1.4c0-1 .1-2.1.1-3.3 0-1.2 0-2.2-.1-3h1.4c0 .8-.1 1.8-.1 3s0 2.3.1 3.3zm6.9-3.3c0 .9-.3 1.7-.9 2.4-.6.7-1.4 1-2.4 1-.5 0-1.1 0-2-.1 0-1 .1-2 .1-3.3 0-1.2 0-2.2-.1-3h1.9c1.2 0 2 .3 2.5.9.6.6.9 1.3.9 2.1zm-1.3.2c0-.6-.2-1.1-.5-1.5-.4-.4-.9-.6-1.6-.6h-.6v4.3c.2 0 .4.1.6.1.7 0 1.2-.2 1.5-.6.4-.6.6-1.1.6-1.7zm10.5 3.1h-1.5c0-.2-.1-.8-.4-1.8h-2.2c-.3 1-.4 1.6-.4 1.8h-1.4c0-.1.4-1.1 1.1-3.1.7-1.9 1.1-3 1.1-3.2h1.8c0 .2.3 1.2 1 3.1.6 2 .9 3 .9 3.2zm-2.2-2.7c-.5-1.6-.8-2.5-.8-2.7h-.1c0 .1-.3 1-.8 2.7h1.7zm7.8-1.9c0 .8-.3 1.3-.8 1.7-.6.4-1.3.5-2.1.5h-.3c0 .6 0 1.4.1 2.4h-1.3c0-.9.1-2 .1-3.3 0-1.1 0-2.1-.1-3h2.4c.6 0 1.1.1 1.5.4.3.3.5.7.5 1.3zm-1.3.3c0-.7-.5-1-1.4-1-.2 0-.5 0-.7.1 0 .6.1 1.3.1 2h.3c1.2 0 1.7-.4 1.7-1.1zm7-.3c0 .8-.3 1.3-.8 1.7-.6.4-1.3.5-2.1.5h-.3c0 .6 0 1.4.1 2.4h-1.3c0-.9.1-2 .1-3.3 0-1.1 0-2.1-.1-3h2.4c.6 0 1.1.1 1.5.4.3.3.5.7.5 1.3zm-1.2.3c0-.7-.5-1-1.4-1-.2 0-.5 0-.7.1 0 .6.1 1.3.1 2h.3c1.1 0 1.7-.4 1.7-1.1zm10.6 1.1c0 1-.3 1.8-.9 2.4-.6.6-1.3 1-2.2 1-.8 0-1.5-.3-2.1-.9-.6-.6-.9-1.3-.9-2.3 0-1 .3-1.8.9-2.4.6-.6 1.3-1 2.2-1 .8 0 1.5.3 2.1.9.6.6.9 1.3.9 2.3zm-1.3.1c0-.7-.2-1.2-.5-1.6-.3-.4-.8-.6-1.3-.6s-.9.2-1.2.6c-.3.4-.5.9-.5 1.6 0 .7.2 1.2.5 1.6.3.4.8.6 1.3.6s.9-.2 1.2-.6c.3-.4.5-1 .5-1.6zm7.8 3.1h-1.2c0-.1-.4-.8-1.3-2.1s-1.4-2.2-1.6-2.7h-.1c.1.7.1 1.3.1 1.9 0 .8 0 1.7.1 2.9h-1.2c0-1 .1-2.1.1-3.3 0-1.2 0-2.2-.1-3h1.4c0 .2.4.8 1.2 2 .8 1.3 1.3 2.1 1.4 2.5h.1c-.1-.7-.1-1.3-.1-1.9 0-.9 0-1.8-.1-2.7h1.2c0 .8-.1 1.8-.1 3 .1 1.3.1 2.4.2 3.4z" fill="#fcfcfd"/></svg>