<svg xmlns="http://www.w3.org/2000/svg" viewBox="0 0 24 20"><path d="M10.5 18.1l-.5-.2s-.3-.2-.8-.5c-.4-.3-1.1-.7-1.5-1l-.1-.1c-.4-.3-1.4-1-2.5-1.9l-.4-.4c-.5-.5-1-1-1.4-1.6l-.2-.2-.3-.5c-.2-.3-.4-.6-.5-1-.3-.4-.4-.8-.5-1.2v-.1c-.1-.4-.2-.8-.2-1.2 0-2.2 1.3-4.1 3.2-4.9.2-.1.3-.1.3-.1.6-.3 1.2-.4 1.9-.4 1.3 0 2.5.5 3.5 1.3 1-.8 2.2-1.3 3.5-1.3.8 0 1.5.1 2.1.4 1 .4 1.9 1.1 2.5 2.2.1.2.2.5.3.7.3.6.4 1.3.4 1.9 0 .5 0 .9-.1 1.3v.1c-.2.7-.5 1.3-.9 2-.2.4-.5.8-.8 1.2l-1.7 1.7c-1 .9-2 1.6-2.4 1.9l-.1.1c-.5.3-1.1.7-1.6 1-.3.2-.5.3-.6.4l-.1.1-.5.3zm0-2.3l.1-.1h.1c.5-.3 1-.6 1.5-1l.1-.1c.3-.2 1-.7 1.8-1.4l.4-.4c.2-.2.5-.4.7-.7l.2-.2.4-.4.9-1.2c.3-.5.5-1 .6-1.5v-.1c.1-.2.1-.5.1-.8 0-.5-.1-.9-.2-1.2-.2.1-.2-.1-.3-.2-.4-.7-.9-1.2-1.5-1.4h-.1c-.4-.2-.9-.3-1.3-.3-1.1 0-2.1.5-2.7 1.3l-.7.9-1-.9C9 5.3 8 4.8 7 4.8c-.4 0-.8.1-1.2.2l-.2.1c-1.1.5-1.9 1.7-2 3 0 .3 0 .6.1.8V9c.1.3.2.6.3.8.1.3.3.5.4.8.1.2.3.4.5.7.3.4.7.8 1.2 1.3.1.1.2.2.4.3 1 .9 1.9 1.5 2.3 1.8l.1.1c.4.3 1 .7 1.6 1z" fill="#c03674"/><path d="M10.5 18.1l-.5-.2s-.3-.2-.8-.5c-.4-.3-1.1-.7-1.5-1l-.1-.1c-.4-.3-1.4-1-2.5-1.9l-.4-.4c-.5-.5-1-1-1.4-1.6l-.2-.2-.3-.5c-.2-.3-.4-.6-.5-1-.3-.4-.4-.8-.5-1.2v-.1c-.1-.4-.2-.8-.2-1.2 0-2.2 1.3-4.1 3.2-4.9.2-.1.3-.1.3-.1.6-.3 1.2-.4 1.9-.4 1.3 0 2.5.5 3.5 1.3 1-.8 2.2-1.3 3.5-1.3.8 0 1.5.1 2.2.4 1 .3 1.9 1.1 2.5 2.2.1.2.2.5.3.7.2.6.4 1.3.4 1.9 0 .5 0 .9-.1 1.3v.1c-.2.7-.5 1.3-.9 2-.2.4-.5.8-.8 1.2l-1.7 1.7c-1 .9-2 1.6-2.4 1.9l-.1.1c-.5.3-1.1.7-1.6 1-.3.2-.5.3-.6.4l-.1.1-.6.3zm0-2.3l.1-.1h.1c.5-.3 1-.6 1.5-1l.1-.1c.3-.2 1-.7 1.8-1.4l.4-.4c.2-.2.5-.4.7-.7l.2-.2.4-.4.9-1.2c.3-.5.5-1 .6-1.5v-.1c.1-.2.1-.5.1-.8 0-.5-.1-.9-.2-1.2-.2.1-.2-.1-.3-.2-.4-.7-.9-1.2-1.5-1.4-1.6-.7-3.2-.2-4.1 1l-.7.9-1-.9C9 5.3 8 4.8 7 4.8c-.4 0-.8.1-1.2.2l-.2.1c-1.1.5-1.9 1.7-2 3 0 .3 0 .6.1.8V9c.1.3.2.6.3.8.1.3.3.5.4.8.1.2.3.4.5.7.3.4.7.8 1.2 1.3.1.1.2.2.4.3 1 .9 1.9 1.5 2.3 1.8l.1.1c.4.3 1 .7 1.6 1z" fill="#e5e5e5"/></svg>