<svg xmlns="http://www.w3.org/2000/svg" viewBox="0 0 27.5 26.7"><path d="M14 5.2h-3.3c-.9 0-1.4.2-1.9.4s-1 .5-1.4.9c-.5.5-.8.9-1 1.5-.2.5-.3 1-.3 1.9v6.6c0 .9.2 1.4.4 1.9s.5 1 .9 1.4.9.7 1.4.9c.5.2 1.1.3 1.9.4h6.6c.9 0 1.4-.2 1.9-.4s1-.5 1.4-.9.7-.9.9-1.4c.2-.5.3-1.1.4-1.9V9.9c0-.8-.1-1.4-.2-1.9-.2-.5-.5-1-.9-1.4s-.9-.7-1.4-.9c-.5-.2-1.1-.3-1.9-.4-1-.1-1.3-.1-3.5-.1" fill="#fff"/><path d="M14 9.1c-2.3 0-4.1 1.8-4.1 4.1s1.8 4.1 4.1 4.1 4.1-1.8 4.1-4.1c.1-2.3-1.8-4.1-4.1-4.1m0 6.8c-1.5 0-2.7-1.2-2.7-2.7s1.2-2.7 2.7-2.7 2.7 1.2 2.7 2.7-1.2 2.7-2.7 2.7m5.3-7c0 .5-.4 1-1 1-.5 0-1-.4-1-1 0-.5.4-1 1-1 .6.1 1 .5 1 1" fill="#1d1d1b"/></svg>