<svg version="1.1" id="Слой_1" xmlns="http://www.w3.org/2000/svg" x="0" y="0" viewBox="0 0 48 48" xml:space="preserve"><style>.st1{fill:#fff}</style><circle cx="25.5" cy="20" r="8.5" fill="#56565e"/><path class="st1" d="M30.5 16.4c-.2-.3-.3-.7-.6-.9-.3-.3-.6-.5-.9-.6-.3-.2-.8-.3-1.3-.3h-4.4c-.6 0-1 .1-1.3.3-.3.2-.7.3-.9.6-.3.3-.5.6-.6.9-.2.3-.3.8-.3 1.3v4.5c0 .6.1 1 .3 1.3.2.3.3.7.6.9.3.3.6.5.9.6.3.2.8.3 1.3.3h4.4c.6 0 1-.1 1.3-.3.3-.2.7-.3.9-.6.3-.3.5-.6.6-.9.2-.3.3-.8.3-1.3v-4.5c0-.5-.1-.9-.3-1.3zm-5 6.4c-1.5 0-2.8-1.3-2.8-2.8 0-1.5 1.3-2.8 2.8-2.8 1.6 0 2.8 1.3 2.8 2.8 0 1.5-1.3 2.8-2.8 2.8zm2.9-5c-.3 0-.7-.3-.7-.7 0-.3.3-.7.7-.7.4 0 .7.3.7.7-.1.4-.3.7-.7.7z"/><path class="st1" d="M25.5 18.3c-.9 0-1.8.8-1.8 1.8 0 .9.8 1.8 1.8 1.8s1.8-.8 1.8-1.8c0-.9-.8-1.8-1.8-1.8z"/></svg>