<svg xmlns="http://www.w3.org/2000/svg" viewBox="0 0 116.2 116.2"><circle cx="54.7" cy="59.8" r="16.7" fill-rule="evenodd" clip-rule="evenodd" fill="#e60f80"/><path d="M54.8 42.6c4.8 0 9.1 1.9 12.2 5 3.1 3.1 5 7.4 5 12.2s-1.9 9.1-5 12.2c-3.1 3.1-7.4 5-12.2 5-4.7 0-9.1-1.9-12.2-5-3.1-3.1-5-7.4-5-12.2s1.9-9.1 5-12.2c3.2-3.1 7.5-5 12.2-5zm11.2 6c-2.9-2.9-6.8-4.6-11.2-4.6-4.4 0-8.3 1.8-11.2 4.6-2.9 2.9-4.6 6.8-4.6 11.2 0 4.4 1.8 8.3 4.6 11.2 2.9 2.9 6.8 4.6 11.2 4.6 4.4 0 8.3-1.8 11.2-4.6 2.9-2.9 4.6-6.8 4.6-11.2.1-4.4-1.7-8.3-4.6-11.2z" fill="#dadada"/><path d="M50.8 59.8c0-2.2 1.8-4 4-4s4 1.8 4 4-1.8 4-4 4-4-1.8-4-4zm8.1-7.8h-8.2c-2 0-3.7 1.7-3.7 3.7v8.2c0 2 1.7 3.7 3.7 3.7h8.2c2 0 3.7-1.7 3.7-3.7v-8.2c0-2-1.6-3.7-3.7-3.7zm.9 2.1c-.4 0-.8.4-.8.8s.4.8.8.8.8-.4.8-.8-.4-.8-.8-.8zm0 5.7c0-2.8-2.2-5-5-5s-5 2.3-5 5c0 2.8 2.3 5 5 5 2.8 0 5-2.2 5-5z" fill-rule="evenodd" clip-rule="evenodd" fill="#fff"/></svg>