<svg xmlns="http://www.w3.org/2000/svg" viewBox="0 0 116.2 116.2"><circle cx="56.7" cy="56.2" r="16.7" fill-rule="evenodd" clip-rule="evenodd" fill="#345ca8"/><path d="M56.9 38.9c4.8 0 9.1 1.9 12.2 5 3.1 3.1 5 7.4 5 12.2 0 4.8-1.9 9.1-5 12.2-3.1 3.1-7.4 5-12.2 5-4.7 0-9.1-1.9-12.2-5-3.1-3.1-5-7.4-5-12.2 0-4.8 1.9-9.1 5-12.2 3.2-3.1 7.5-5 12.2-5zm11.3 6c-2.9-2.9-6.8-4.6-11.2-4.6-4.4 0-8.3 1.8-11.2 4.6-2.9 2.9-4.6 6.8-4.6 11.2 0 4.4 1.8 8.3 4.6 11.2 2.9 2.9 6.8 4.6 11.2 4.6 4.4 0 8.3-1.8 11.2-4.6 2.9-2.9 4.6-6.8 4.6-11.2 0-4.4-1.8-8.4-4.6-11.2z" fill="#dadada"/><path d="M56.6 51.1c1.4 0 2.6.6 3.6 1.5 0-.4.3-.8.7-.8h.1c.7 0 .8.6.8.8v7c0 .5.5.7.8.4 1.1-1.2 2.5-5.9-.7-8.7-2.9-2.6-6.9-2.2-9-.7-2.2 1.5-3.7 4.9-2.3 8.2 1.5 3.5 5.8 4.5 8.4 3.5 1.3-.5 1.9 1.2.6 1.8-2 .9-7.7.8-10.4-3.8-1.8-3.1-1.7-8.6 3.1-11.4 3.6-2.2 8.5-1.6 11.3 1.5 3 3.2 2.9 9.1-.1 11.4-1.3 1-3.3 0-3.3-1.5v-.5c-.9.9-2.2 1.5-3.5 1.5-2.7 0-5-2.3-5-5-.1-2.8 2.3-5.2 4.9-5.2zM60 56c-.1-2-1.6-3.1-3.3-3.1h-.1c-2 0-3.1 1.6-3.1 3.4 0 2 1.4 3.3 3.1 3.3 2 0 3.3-1.5 3.4-3.2V56z" fill-rule="evenodd" clip-rule="evenodd" fill="#fff"/></svg>