<svg xmlns="http://www.w3.org/2000/svg" width="148.595" height="31.092"><path fill="#E7E8E9" d="M0 31.092V0h142.013v31.093H0v-.001zm140.904-1.102v-1.104 1.104zM2.215 28.886h137.579V2.204H2.215v26.682z"/><path d="M16.169 10.159c2.311 0 3.755.879 3.755 2.725 0 1.264-.685 2.031-1.644 2.355 1.071.308 2.08 1.093 2.08 2.679 0 2.447-2.376 3.016-4.271 3.016h-4.672V10.159h4.752zm.016 6.127H13.73v2.771h2.329c1.04 0 1.971-.217 1.971-1.386 0-1.14-.914-1.385-1.845-1.385zm-.221-4.232h-2.219v2.463h2.345c.886 0 1.521-.402 1.521-1.234 0-.846-.621-1.229-1.647-1.229zm11.359-2.11c1.085 0 2.174.231 3.105.692v2.202c-.698-.54-1.709-.846-2.718-.846-1.909 0-3.834 1.078-3.834 3.678-.015 2.368 1.939 3.417 3.834 3.417 1.119 0 2.142-.309 2.795-.895v2.264a7.294 7.294 0 01-3.151.69c-2.906 0-5.869-1.722-5.869-5.477.015-3.939 2.934-5.725 5.838-5.725zm12.583.215v2.033h-5.324v2.293h4.857v2.016h-4.857v2.4H40v2.031h-7.746V10.159h7.652zm14.917 0v10.774h-2.331v-4.338h-4.874v4.338h-2.33V10.159h2.33v4.342h4.874v-4.342h2.331zm7.507-.215c3.849 0 5.774 2.678 5.774 5.603 0 2.924-1.926 5.601-5.774 5.601-3.852 0-5.775-2.677-5.775-5.601 0-2.925 1.923-5.603 5.775-5.603zm0 2.139c-2.268 0-3.399 1.571-3.399 3.463 0 1.895 1.131 3.463 3.399 3.463 2.25 0 3.385-1.568 3.385-3.463-.001-1.892-1.135-3.463-3.385-3.463zm12.257-1.924c2.314 0 3.756.879 3.756 2.725 0 1.264-.682 2.031-1.641 2.355 1.066.308 2.078 1.093 2.078 2.679 0 2.447-2.373 3.016-4.27 3.016h-4.672V10.159h4.749zm.016 6.127h-2.451v2.771h2.328c1.043 0 1.971-.217 1.971-1.386 0-1.14-.914-1.385-1.848-1.385zm-.217-4.232h-2.222v2.463h2.347c.885 0 1.523-.402 1.523-1.234.001-.846-.626-1.229-1.648-1.229zm11.297-2.11c3.85 0 5.775 2.678 5.775 5.603 0 2.924-1.926 5.601-5.775 5.601-3.854 0-5.779-2.677-5.779-5.601 0-2.925 1.926-5.603 5.779-5.603zm0 2.139c-2.271 0-3.4 1.571-3.4 3.463 0 1.895 1.129 3.463 3.4 3.463 2.252 0 3.385-1.568 3.385-3.463 0-1.892-1.133-3.463-3.385-3.463zm12.74-2.139c1.088 0 2.174.231 3.105.692v2.202c-.697-.54-1.709-.846-2.715-.846-1.912 0-3.836 1.078-3.836 3.678-.018 2.368 1.939 3.417 3.836 3.417 1.113 0 2.137-.309 2.793-.895v2.264a7.304 7.304 0 01-3.154.69c-2.902 0-5.865-1.722-5.865-5.477.014-3.939 2.934-5.725 5.836-5.725zm12.955.215v2.079h-3.336v8.695h-2.314v-8.695h-3.336v-2.079h8.986zm8.584 10.774v-5.557c0-.493.01-1.029.041-1.477l-5.059 7.034h-2.191V10.159h2.33v5.557c0 .492-.016 1.03-.047 1.477l5.064-7.034h2.184v10.774h-2.322z"/><g fill="#FFF"><path d="M136.445 15.543V9.117l5.568 3.214-.64 1.116-.647 1.119-1.701-.983v3.924l1.701-.982 1.699-.982-1.699-.977.647-1.119.65-1.116 5.572 3.212-5.582 3.222-5.568 3.209v-6.431z"/><path d="M135.943 15.544V8.253l5.895 3.399.002-.003 6.756 3.893-6.332 3.655-6.32 3.643v-7.296h-.001zm1 5.565l4.822-2.777 4.826-2.787-4.389-2.532-.396.685-.396.686 2.016 1.159-2.449 1.416-2.451 1.415v-5.655l2.018 1.165.396-.685.391-.683-4.387-2.532v11.125h-.001zm2.582-5.565v1.096l.949-.548.947-.548-.514-.296v.001l-.428-.247-.441-.253.002-.001-.516-.298v1.094h.001z"/></g><path fill="#EC2227" d="M141.378 13.447l3.637 2.1-3.637 2.097-3.64 2.1v-8.395z"/></svg>