<svg xmlns="http://www.w3.org/2000/svg" viewBox="0 0 116.2 116.2"><circle cx="58.5" cy="55.5" r="16.7" fill-rule="evenodd" clip-rule="evenodd" fill="#ef7d19"/><path d="M58.4 38.5c4.8 0 9.1 1.9 12.2 5 3.1 3.1 5 7.4 5 12.2 0 4.8-1.9 9.1-5 12.2-3.1 3.1-7.4 5-12.2 5-4.8 0-9.1-1.9-12.2-5-3.1-3.1-5-7.4-5-12.2 0-4.8 1.9-9.1 5-12.2 3.1-3 7.4-5 12.2-5zm11.2 6c-2.9-2.9-6.8-4.6-11.2-4.6s-8.3 1.8-11.2 4.6c-2.9 2.9-4.6 6.8-4.6 11.2 0 4.4 1.8 8.3 4.6 11.2 2.9 2.9 6.8 4.6 11.2 4.6s8.3-1.8 11.2-4.6c2.9-2.9 4.6-6.8 4.6-11.2 0-4.3-1.7-8.3-4.6-11.2z" fill="#dadada"/><path d="M58.4 55.8c2.6 0 4.7-2.1 4.7-4.7s-2.1-4.7-4.7-4.7-4.7 2.1-4.7 4.7c0 2.7 2.1 4.7 4.7 4.7zm0-6.9c1.3 0 2.3 1 2.3 2.3 0 1.3-1 2.3-2.3 2.3-1.3 0-2.3-1-2.3-2.3 0-1.3 1-2.3 2.3-2.3zm5.4 7.5c-.3-.5-1-1-2-.2-1.3 1-3.4 1-3.4 1s-2.1 0-3.4-1c-1-.8-1.7-.3-2 .2-.5.9.1 1.4 1.2 2.1 1 .6 2.4.9 3.3 1l-.7.7L54 63c-.4.4-.4 1.1 0 1.5l.1.1c.4.4 1.1.4 1.5 0l2.8-2.8 2.8 2.8c.4.4 1.1.4 1.5 0l.1-.1c.4-.4.4-1.1 0-1.5L60 60.3l-.7-.7c.9-.1 2.3-.3 3.2-1 1.2-.8 1.7-1.3 1.3-2.2z" fill="#fff"/></svg>