<svg xmlns="http://www.w3.org/2000/svg" viewBox="0 0 147.9 29.2"><path d="M16 9.4l-2.9-6.2-2.9 6.2c-.3.6-.8.9-1.4 1l-6.6 1 4.9 5c.4.4.6 1 .5 1.6l-1.1 7 5.8-3.2c.3-.2.6-.2.9-.2.3 0 .6.1.9.2l5.8 3.2-1.1-7c-.1-.6.1-1.2.5-1.6l4.8-5-6.6-1c-.8-.1-1.3-.5-1.5-1zm30.4 0l-2.9-6.2-2.9 6.2c-.3.6-.8.9-1.4 1l-6.6 1 4.9 5c.4.4.6 1 .5 1.6l-1.1 7 5.8-3.2c.3-.2.6-.2.9-.2.3 0 .6.1.9.2l5.8 3.2-1.1-7c-.1-.6.1-1.2.5-1.6l4.8-5-6.6-1c-.7-.1-1.2-.5-1.5-1zm32.2 0l-2.9-6.2-2.9 6.2c-.3.6-.8.9-1.4 1l-6.6 1 4.9 5c.4.4.6 1 .5 1.6l-1.1 7 5.8-3.2c.3-.2.6-.2.9-.2.3 0 .6.1.9.2l5.8 3.2-1.1-7c-.1-.6.1-1.2.5-1.6l4.8-5-6.6-1c-.7-.1-1.2-.5-1.5-1z" fill="#f1ad1f"/><path d="M107.6 9.4l-2.9-6.2-2.9 6.2c-.3.6-.8.9-1.4 1l-6.6 1 4.9 5c.4.4.6 1 .5 1.6l-1.1 7 5.8-3.2c.3-.2.6-.2.9-.2.3 0 .6.1.9.2l5.8 3.2-1.1-7c-.1-.6.1-1.2.5-1.6l4.8-5-6.6-1c-.7-.1-1.2-.5-1.5-1zm29.6 0l-2.9-6.2-2.9 6.2c-.3.6-.8.9-1.4 1l-6.6 1 4.9 5c.4.4.6 1 .5 1.6l-1.1 7 5.8-3.2c.3-.2.6-.2.9-.2.3 0 .6.1.9.2L141 25l-1.1-7c-.1-.6.1-1.2.5-1.6l4.8-5-6.6-1c-.6-.1-1.1-.5-1.4-1z" fill="#f4eace"/></svg>