<svg xmlns="http://www.w3.org/2000/svg" viewBox="0 0 480 480"><path d="M246.2 150c-3.3 0-6 2.7-6 6l-.2 117.5c0 10.7-9.7 19.8-21.2 19.8-11.1 0-20.1-9-20.1-20.1s9-20.1 20.1-20.1c.5 0 1 .1 1.6.1l.9.1c1.7.2 3.4-.3 4.7-1.4 1.3-1.1 2-2.8 2-4.5v-25.2c0-3.2-2.5-5.8-5.6-6l-.6-.1c-1-.1-1.9-.1-2.9-.1-31.5 0-57.1 25.7-57.1 57.2s25.6 57.2 57.1 57.2c31.6 0 57.2-25.7 57.2-57.2v-53.9c10.1 8 23.4 11.9 36.3 10.7 3.1-.3 5.5-2.9 5.5-5.9v-28c0-3.2-2.5-5.8-5.6-6-18.8-1.4-33.9-16-35.9-34.7-.3-3.1-2.9-5.4-5.9-5.4h-24.3z" fill="#fff"/></svg>