<svg xmlns="http://www.w3.org/2000/svg" viewBox="0 0 116.2 116.2"><circle cx="58.6" cy="53.7" r="16.7" fill-rule="evenodd" clip-rule="evenodd" fill="#47a7de"/><path d="M58.8 36.5c4.8 0 9.1 1.9 12.2 5 3.1 3.1 5 7.4 5 12.2 0 4.7-1.9 9.1-5 12.2-3.1 3.1-7.4 5-12.2 5-4.8 0-9.1-1.9-12.2-5-3.1-3.1-5-7.4-5-12.2 0-4.8 1.9-9.1 5-12.2 3.1-3.1 7.4-5 12.2-5zm11.2 6c-2.9-2.9-6.8-4.6-11.2-4.6-4.4 0-8.3 1.8-11.2 4.6-2.9 2.9-4.6 6.8-4.6 11.2 0 4.4 1.8 8.3 4.6 11.2 2.9 2.9 6.8 4.6 11.2 4.6 4.4 0 8.3-1.8 11.2-4.6 2.9-2.9 4.6-6.8 4.6-11.2.1-4.4-1.7-8.4-4.6-11.2z" fill="#dadada"/><path d="M67.6 48.3c-.6.3-1.3.5-2.1.6.8-.4 1.3-1.1 1.6-2-.7.4-1.5.7-2.3.9-.6-.7-1.6-1.1-2.6-1.1-2 0-3.6 1.6-3.6 3.5 0 .3 0 .6.1.8-3-.1-5.7-1.6-7.4-3.7-.3.5-.5 1.1-.5 1.8 0 1.2.6 2.3 1.6 3-.6 0-1.1-.2-1.6-.4 0 .5.1.9.2 1.3.4 1.1 1.4 2 2.6 2.2-.3.1-.6.1-1 .1-.2 0-.5 0-.7-.1.5 1.4 1.8 2.4 3.4 2.5-1.2 1-2.8 1.5-4.5 1.5h-.9c1.6 1 3.5 1.6 5.5 1.6 5.6 0 9.1-3.9 10-7.9.2-.7.2-1.4.2-2.1v-.5c.9-.6 1.5-1.3 2-2z" fill-rule="evenodd" clip-rule="evenodd" fill="#fff"/></svg>