<svg xmlns="http://www.w3.org/2000/svg" width="26.672" height="26.67"><path fill="#FFF" d="M20.415 15.635c-.349-.326-.802-.669-.826-1.119-.035-.593.545-1.187.826-1.557.703-.927 1.343-1.607 1.994-2.677.172-.28.727-1.299.54-1.703-.229-.486-1.487-.291-2.19-.291-.859 0-1.799-.174-2.388.048-.387.147-.614.945-.828 1.41-.517 1.134-.934 1.895-1.604 2.776-.307.402-.593.917-1.118.972-.686-.458-.514-1.485-.485-2.481.022-.888.288-2.07-.101-2.726-.38-.644-1.746-.536-2.724-.536-1.164 0-2.129.07-2.482.779.422.25.842.259 1.071.68.243.447.267 1.494.243 2.336-.02.741-.064 1.9-.534 1.995-.486.099-.899-.634-1.168-1.021a17.66 17.66 0 01-1.605-2.776c-.224-.473-.505-1.22-.78-1.362-.467-.236-1.459-.095-2.093-.095-.75 0-1.492-.129-1.947.243 0 .792.416 1.499.73 2.141.968 1.977 2.014 3.778 3.358 5.498 1.257 1.612 2.691 3.109 5.498 3.408.889.093 2.18.19 2.482-.342.374-.657-.072-2.192.826-2.336.633-.102 1.162.778 1.51 1.167.612.688 1.33 1.434 2.387 1.605h.095c.943-.286 3.747.461 3.895-.729.047-.381-.452-1.02-.681-1.314-.615-.781-1.146-1.293-1.901-1.993z"/></svg>