<svg xmlns="http://www.w3.org/2000/svg" viewBox="0 0 48 48"><path d="M33 14.9c-5.1 1.9-10.2 4-15.2 6.2-.6.3-1.1.5-1.7.8-2.4 1-4.9 2.1-7.1 3.4-1.2.9.4 1.5 1.9 2 .2.1.5.2.7.3.2.1.4.1.6.2 1.6.5 3.5 1.1 5 .2 2.6-1.5 5.1-3.2 7.5-5 .8-.6 1.6-1.1 2.4-1.7l.1-.1c.7-.4 2.2-1.5 1.7-.1-1.4 1.5-2.8 2.8-4.3 4.1-1 .9-2 1.8-2.9 2.7-.8.7-1.7 2.1-.8 3l6.6 4.5c.7.5 1.4 1 2.1 1.4 1.2 1 3.1.2 3.4-1.3.1-.7.2-1.4.4-2.1.7-3.8 1.3-7.7 1.9-11.5l.3-1.8c.2-1.5.4-2.9.5-4.4-.3-1.5-2.1-1.1-3.1-.8z" fill="#fff"/><path d="M31.2 26c-.3-.3-.7-.6-.8-1 0-.6.5-1.1.8-1.4.7-.9 1.2-1.5 1.9-2.5.2-.3.7-1.2.5-1.6-.2-.5-1.4-.3-2-.3-.8 0-1.7-.2-2.2 0-.4.1-.6.9-.8 1.3-.5 1.1-.9 1.8-1.5 2.6-.3.4-.6.9-1 .9-.6-.4-.5-1.4-.5-2.3 0-.8.3-1.9-.1-2.5s-1.6-.5-2.5-.5c-1.1 0-2 .1-2.3.7.4.2.8.2 1 .6s.2 1.4.2 2.2c0 .7-.1 1.8-.5 1.9-.5.1-.8-.6-1.1-.9-.6-.8-1-1.6-1.5-2.6-.2-.4-.5-1.1-.7-1.3-.4-.2-1.4-.1-1.9-.1-.7 0-1.4-.1-1.8.2 0 .7.4 1.4.7 2 .9 1.8 1.9 3.5 3.1 5.1 1.2 1.5 2.5 2.9 5.1 3.2.8.1 2 .2 2.3-.3.3-.6-.1-2 .8-2.2.6-.1 1.1.7 1.4 1.1.6.6 1.2 1.3 2.2 1.5h.1c.9-.3 3.5.4 3.6-.7 0-.4-.4-.9-.6-1.2L31.2 26z"/></svg>