<svg xmlns="http://www.w3.org/2000/svg" viewBox="0 0 116.2 116.2"><circle cx="56" cy="58.8" r="16.7" fill-rule="evenodd" clip-rule="evenodd" fill="#426e97"/><path d="M56 41.5c4.8 0 9.1 1.9 12.2 5 3.1 3.1 5 7.4 5 12.2 0 4.8-1.9 9.1-5 12.2C65 74 60.7 76 56 76c-4.8 0-9.1-1.9-12.2-5-3.1-3.1-5-7.4-5-12.2 0-4.7 1.9-9.1 5-12.2 3.1-3.1 7.4-5.1 12.2-5.1zm11.2 6c-2.9-2.9-6.8-4.6-11.2-4.6s-8.3 1.8-11.2 4.6c-2.9 2.9-4.6 6.8-4.6 11.2 0 4.4 1.8 8.3 4.6 11.2 2.9 2.9 6.8 4.6 11.2 4.6s8.3-1.8 11.2-4.6c2.9-2.9 4.6-6.8 4.6-11.2 0-4.3-1.7-8.3-4.6-11.2z" fill="#dadada"/><path d="M65.5 54c-.3-.2-1.2-.2-2.1-.2-.9 0-1.9 0-2.1.1-.2.1-.6 1.2-1.2 2.3-.7 1.3-1.5 2.5-2 2.5-.7 0-.5-2.1-.5-3.6 0-1-.2-1.3-.3-1.4-.3-.4-1.3-.6-1.3-.6s-2.9-.2-3.3 1c.6.1 1.5-.1 1.1 3.8 0 .2-.4 1.8-1.8-.4-.3-.5-1.6-3.8-2.1-3.8-1.5 0-3-.1-3.5.2-.5.3.6 2.5 2.6 5.5 1.6 2.5 3.2 4.4 6.1 4.8.5.1 1.9.1 2.4-.1.3-.1-.1-2.3.9-2.5.4-.1 2.2 2.2 2.8 2.5.4.2 1.3.2 2.2.2 1 0 2.1.1 2.2-.6.2-1.5-2.9-3.4-3-4.3-.1-.6 1.2-1.8 1.8-2.8.7-.9 1.6-2.2 1.1-2.6z" fill-rule="evenodd" clip-rule="evenodd" fill="#fff"/></svg>