<svg xmlns="http://www.w3.org/2000/svg" width="239.557" height="31.092"><path d="M37.39.059h30.975v30.976H37.39z"/><path fill="#FFF" d="M55.249 12.681l-4.667-4.664-2.863 2.863 4.664 4.664-4.742 4.664 2.863 2.863 4.745-4.658 2.862-2.869z"/><path fill="#EBEBEB" d="M0 .059h30.975v30.976H0z"/><path fill="#FFF" d="M13.116 12.681l4.666-4.664 2.864 2.863-4.664 4.664 4.743 4.664-2.865 2.863-4.744-4.658-2.863-2.869z"/><path fill="#E7E8E9" d="M90.962 31.093V0h142.014v31.093H90.962zm140.903-1.104v-1.104 1.104zM93.178 28.886h137.579V2.204H93.178v26.682z"/><g fill="#FFF"><path d="M227.406 15.544V9.117l5.57 3.214-.641 1.115-.647 1.119-1.701-.982v3.925l1.701-.984 1.699-.98-1.699-.979.647-1.119.649-1.115 5.573 3.213-5.581 3.221-5.57 3.21v-6.431z"/><path d="M226.904 15.544V8.253l5.895 3.399.002-.003 6.756 3.893-6.332 3.654-6.32 3.643v-7.295h-.001zm1.001 5.564l4.821-2.777 4.827-2.787-4.39-2.531-.396.685-.396.686 2.016 1.159-2.449 1.416-2.451 1.415v-5.655l2.018 1.164.396-.686.392-.682-4.387-2.533v11.126h-.001zm2.581-5.564v1.096l.949-.547.948-.549-.515-.295-.428-.246-.44-.254h.001l-.516-.299v1.094h.001z"/></g><path fill="#EC2227" d="M232.341 13.446l3.636 2.102-3.636 2.096-3.642 2.1v-8.395z"/><path d="M105.352 10.405c2.485 0 4.036.865 4.036 2.688 0 1.245-.734 2.004-1.768 2.323 1.15.304 2.234 1.077 2.234 2.642 0 2.414-2.552 2.976-4.586 2.976h-5.021V10.405h5.105zm.016 6.043h-2.635v2.732h2.501c1.118 0 2.118-.212 2.118-1.366.001-1.123-.983-1.366-1.984-1.366zm-.233-4.176h-2.385v2.43h2.519c.95 0 1.634-.395 1.634-1.215-.001-.835-.668-1.215-1.768-1.215zm12.191-2.079c1.167 0 2.335.228 3.336.683v2.171c-.751-.531-1.835-.835-2.919-.835-2.052 0-4.119 1.063-4.119 3.629-.017 2.338 2.084 3.37 4.119 3.37 1.201 0 2.302-.304 3.002-.88v2.231c-1.001.44-2.151.684-3.386.684-3.119 0-6.304-1.701-6.304-5.405.017-3.887 3.152-5.648 6.271-5.648zm13.509.212v2.004h-5.721v2.263h5.22v1.988h-5.22v2.369h5.82v2.004h-8.322V10.405h8.223zm16.01 0v10.628h-2.502v-4.281h-5.236v4.281h-2.502V10.405h2.502v4.281h5.236v-4.281h2.502zm8.054-.212c4.136 0 6.204 2.642 6.204 5.526s-2.068 5.526-6.204 5.526c-4.137 0-6.204-2.643-6.204-5.526 0-2.884 2.068-5.526 6.204-5.526zm0 2.111c-2.436 0-3.652 1.548-3.652 3.416 0 1.867 1.217 3.416 3.652 3.416 2.418 0 3.636-1.549 3.636-3.416 0-1.868-1.218-3.416-3.636-3.416zm13.16-1.899c2.484 0 4.036.865 4.036 2.688 0 1.245-.734 2.004-1.769 2.323 1.151.304 2.235 1.077 2.235 2.642 0 2.414-2.552 2.976-4.587 2.976h-5.02V10.405h5.105zm.016 6.043h-2.635v2.732h2.501c1.117 0 2.118-.212 2.118-1.366.001-1.123-.983-1.366-1.984-1.366zm-.233-4.176h-2.385v2.43h2.518c.951 0 1.635-.395 1.635-1.215-.001-.835-.668-1.215-1.768-1.215zm14.308 8.761v-5.48c0-.486.017-1.018.05-1.458l-5.437 6.938h-2.352V10.405h2.502v5.481c0 .485-.017 1.017-.051 1.457l5.438-6.938h2.352v10.628h-2.502zm15.245-10.628v10.628h-2.502v-4.281h-5.236v4.281h-2.502V10.405h2.502v4.281h5.236v-4.281h2.502zm2.501 10.628V10.405h2.502v4.221h1.884l2.952-4.221h2.785l-3.785 5.178 4.002 5.45h-2.769l-3.186-4.342h-1.884v4.342h-2.501zm19.262 0v-5.48c0-.486.017-1.018.05-1.458l-5.437 6.938h-2.352V10.405h2.502v5.481c0 .485-.017 1.017-.051 1.457l5.438-6.938h2.352v10.628h-2.502z" fill="#010101"/></svg>