<svg width="12" height="14" fill="none" xmlns="http://www.w3.org/2000/svg"><path d="M1.158 12.746c-1.565-1.649-1.536-4.307.037-5.95L6.815.93a2.955 2.955 0 014.303 0 3.23 3.23 0 010 4.437l-4.898 5.11a1.97 1.97 0 01-2.892-.028c-.758-.82-.733-2.119.039-2.925l3.85-4.015a.422.422 0 01.606-.006l.612.612c.17.169.172.446.007.618l-3.85 4.015c-.132.138-.14.367-.018.5a.282.282 0 00.42.005l4.898-5.11a1.454 1.454 0 000-1.99 1.267 1.267 0 00-1.852 0L2.42 8.02c-.931.972-.945 2.546-.032 3.508.911.96 2.384.961 3.296.008l4.61-4.812a.422.422 0 01.605-.007l.613.611c.17.17.172.446.007.619L6.91 12.759a3.94 3.94 0 01-5.753-.013z" fill="#fff"/></svg>