<svg width="38" height="38" fill="none" xmlns="http://www.w3.org/2000/svg"><circle cx="19" cy="19" r="19" fill="#A1ADB2"/><path d="M15.265 11.234c.19-.188.446-.295.713-.295h6.045c.268 0 .524.107.713.295l1.72 1.72h2.605c1.113 0 2.015.903 2.015 2.016v10.075a2.015 2.015 0 01-2.015 2.015H10.94a2.015 2.015 0 01-2.015-2.015V14.97c0-1.113.902-2.016 2.015-2.016h2.605l1.72-1.72zm1.13 1.72l-1.72 1.72a1.007 1.007 0 01-.712.296H10.94v10.075h16.121V14.97h-3.023c-.267 0-.523-.107-.712-.296l-1.72-1.72h-5.21zm2.606 4.535a2.015 2.015 0 100 4.03 2.015 2.015 0 000-4.03zm-4.03 2.015a4.03 4.03 0 118.06 0 4.03 4.03 0 01-8.06 0z" fill="#fff"/></svg>