<svg width="26" height="24" fill="none" xmlns="http://www.w3.org/2000/svg"><rect x="3.266" y="5" width="18" height="18" rx="1" stroke="#435A64" stroke-width="2"/><rect x="5.766" y="15.5" width="5" height="5" rx="1.5" stroke="#435A64"/><path d="M13.766 16.5a1 1 0 112 0 1 1 0 01-2 0zm3 3a1 1 0 112 0 1 1 0 01-2 0zm-9-9.5a.5.5 0 111 0 .5.5 0 01-1 0zm8 0a.5.5 0 111 0 .5.5 0 01-1 0zm-8 8a.5.5 0 111 0 .5.5 0 01-1 0z" stroke="#435A64"/><rect x="13.766" y="7.5" width="5" height="5" rx="1.5" stroke="#435A64"/><rect x="5.766" y="7.5" width="5" height="5" rx="1.5" stroke="#435A64"/></svg>