<svg width="24" height="24" fill="none" xmlns="http://www.w3.org/2000/svg"><path d="M20 18v1h2v1a3 3 0 01-3 3H4.5A2.5 2.5 0 012 20.5V1h18v17z" stroke="#435A64" stroke-width="2"/><path d="M7 20v0-1h15v1a3 3 0 01-3 3H5.5v-.146a2.27 2.27 0 00.327-.138c.414-.215.7-.533.88-.894.296-.593.294-1.308.293-1.743V20z" stroke="#435A64" stroke-width="2"/><rect x="6" y="12" width="10" height="1" rx=".5" fill="#435A64"/><rect x="6" y="15" width="8" height="1" rx=".5" fill="#435A64"/><circle cx="8" cy="7" r="1.5" stroke="#435A64"/><rect x="12" y="6" width="4" height="1" rx=".5" fill="#435A64"/></svg>