<svg width="16" height="16" fill="none" xmlns="http://www.w3.org/2000/svg"><path fill-rule="evenodd" clip-rule="evenodd" d="M15.95 7.112c-.026-.225-.288-.394-.515-.394-.733 0-1.383-.43-1.656-1.096a1.782 1.782 0 01.447-1.979.444.444 0 00.049-.603 7.917 7.917 0 00-1.268-1.28.445.445 0 00-.608.05c-.476.527-1.333.724-1.995.447A1.777 1.777 0 019.324.521.444.444 0 008.93.053 7.987 7.987 0 007.13.05a.445.445 0 00-.396.457A1.78 1.78 0 015.64 2.213c-.654.267-1.505.073-1.98-.45a.446.446 0 00-.605-.052 7.995 7.995 0 00-1.294 1.28.445.445 0 00.048.608 1.77 1.77 0 01.447 1.996c-.276.658-.959 1.082-1.74 1.082a.435.435 0 00-.462.392A8.014 8.014 0 00.05 8.89c.025.225.295.393.525.393a1.754 1.754 0 011.646 1.096c.28.682.1 1.477-.448 1.979a.445.445 0 00-.048.602c.371.474.798.905 1.265 1.28.184.148.45.128.61-.048.478-.529 1.334-.725 1.994-.448.69.289 1.124.987 1.082 1.736a.444.444 0 00.393.468 7.965 7.965 0 001.8.004.445.445 0 00.395-.458 1.778 1.778 0 011.095-1.706c.658-.269 1.505-.072 1.981.451.158.172.42.193.604.05a7.96 7.96 0 001.294-1.28.444.444 0 00-.048-.607 1.773 1.773 0 01-.448-1.996 1.791 1.791 0 011.637-1.084l.099.002c.23.019.44-.158.468-.392a8.01 8.01 0 00.004-1.82zm-7.938 3.573a2.671 2.671 0 01-2.668-2.668 2.671 2.671 0 012.668-2.668 2.671 2.671 0 012.669 2.668 2.671 2.671 0 01-2.669 2.668z" fill="#949899"/></svg>