<svg width="148" height="56" fill="none" xmlns="http://www.w3.org/2000/svg"><path d="M28.156 29.976h-7.758c-5.208 0-9.44-4.251-9.44-9.483 0-5.233 4.232-9.484 9.44-9.484h.84V5.586h4.232v5.423h2.659c3.038 0 5.479-2.48 5.479-5.504C33.635 2.48 31.167 0 28.156 0h-7.758C9.141 0 0 9.183 0 20.492c0 11.31 9.141 20.493 20.398 20.493h7.73c3.039 0 5.48-2.48 5.48-5.505a5.454 5.454 0 00-5.452-5.504z" fill="#435A64"/><path d="M28.183 14.988h-7.731a5.477 5.477 0 00-5.48 5.504c0 3.052 2.469 5.505 5.48 5.505h7.73c5.209 0 9.44 4.251 9.44 9.483s-4.231 9.484-9.44 9.484H25.47v5.45h-4.232v-5.45h-.786c-3.038 0-5.48 2.48-5.48 5.504 0 3.052 2.469 5.505 5.48 5.505h7.73c11.257 0 20.399-9.184 20.399-20.493.027-11.309-9.142-20.492-20.399-20.492z" fill="#435A64"/><path d="M30.244 15.097c8.843.954 15.733 8.475 15.733 17.604 0 9.755-7.894 17.713-17.632 17.713H14.973v.081c0 3.053 2.468 5.505 5.479 5.505h7.73c11.257 0 20.399-9.183 20.399-20.492.027-10.628-8.057-19.376-18.337-20.411zm-11.88 25.834C9.52 39.977 2.63 32.456 2.63 23.327c0-9.756 7.893-17.713 17.631-17.713h13.373v-.082c0-3.052-2.468-5.504-5.48-5.504h-7.757C9.141.055 0 9.238 0 20.548c0 10.6 8.056 19.375 18.364 20.383z" fill="#435A64"/><path d="M22.92 20.574h-7.947c.027 2.998 2.468 5.45 5.479 5.45h7.73c5.209 0 9.44 4.251 9.44 9.484 0-8.257-6.51-14.934-14.702-14.934z" fill="#435A64"/><path d="M28.156 29.976H20.4c-5.018 0-9.141-3.951-9.413-8.938.272 7.957 6.673 14.36 14.675 14.36h7.975c0-.108 0-.19-.028-.3 0-.08 0-.163-.027-.217 0-.11-.027-.218-.054-.327 0-.082-.027-.136-.027-.218l-.081-.327c-.027-.055-.027-.136-.055-.19-.027-.11-.081-.219-.108-.328a.388.388 0 01-.054-.163L33.039 33c-.027-.055-.054-.082-.081-.137a2.483 2.483 0 00-.218-.354c-.027-.027-.027-.054-.054-.109-.081-.136-.19-.245-.271-.381 0-.028-.027-.028-.027-.055a2.348 2.348 0 00-.353-.381 5.464 5.464 0 00-3.879-1.608zm27.355-7.611h7.45v-2.029h-4.99v-9.608h-2.46v11.637zm19.318-5.818c0-3.807-2.363-5.978-5.448-5.978-3.103 0-5.45 2.17-5.45 5.978 0 3.79 2.347 5.977 5.45 5.977 3.085 0 5.448-2.17 5.448-5.977zm-2.494 0c0 2.465-1.17 3.8-2.954 3.8-1.79 0-2.955-1.335-2.955-3.8 0-2.466 1.165-3.802 2.955-3.802 1.784 0 2.954 1.336 2.954 3.802zm12.033-2.057h2.5c-.318-2.301-2.347-3.92-4.977-3.92-3.074 0-5.444 2.215-5.444 5.988 0 3.682 2.216 5.966 5.495 5.966 2.937 0 5.034-1.858 5.034-4.92v-1.466h-4.87v1.852h2.5c-.034 1.443-1.016 2.358-2.653 2.358-1.847 0-3.011-1.381-3.011-3.813 0-2.42 1.21-3.79 2.988-3.79 1.267 0 2.125.654 2.438 1.745zm15.149 2.057c0-3.807-2.364-5.978-5.449-5.978-3.102 0-5.449 2.17-5.449 5.978 0 3.79 2.347 5.977 5.45 5.977 3.084 0 5.448-2.17 5.448-5.977zm-2.494 0c0 2.465-1.17 3.8-2.955 3.8-1.79 0-2.954-1.335-2.954-3.8 0-2.466 1.164-3.802 2.954-3.802 1.784 0 2.955 1.336 2.955 3.802zM65.778 33.802c-.324-2.687-2.358-4.233-5.05-4.233-3.075 0-5.421 2.17-5.421 5.978 0 3.795 2.307 5.977 5.42 5.977 2.983 0 4.784-1.983 5.051-4.125l-2.488-.011c-.233 1.244-1.21 1.96-2.523 1.96-1.767 0-2.966-1.313-2.966-3.801 0-2.42 1.182-3.802 2.983-3.802 1.347 0 2.318.779 2.506 2.057h2.488zm12.458 1.745c0-3.807-2.364-5.978-5.45-5.978-3.101 0-5.448 2.17-5.448 5.978 0 3.79 2.347 5.977 5.449 5.977 3.085 0 5.449-2.17 5.449-5.977zm-2.495 0c0 2.466-1.17 3.8-2.954 3.8-1.79 0-2.955-1.334-2.955-3.8 0-2.466 1.165-3.802 2.955-3.802 1.784 0 2.954 1.336 2.954 3.802zm4.317-5.819v11.637h2.387v-7.602h.096l3.012 7.545h1.625l3.01-7.517h.097v7.574h2.387V29.728h-3.034l-3.205 7.819h-.136l-3.205-7.819h-3.034zm14.64 11.637h2.461v-3.773h2.068c2.676 0 4.233-1.597 4.233-3.92 0-2.313-1.528-3.944-4.17-3.944h-4.591v11.637zm2.461-5.745v-3.88h1.66c1.42 0 2.107.773 2.107 1.932 0 1.153-.687 1.948-2.097 1.948h-1.67zm8.561 5.745l.864-2.654h4.199l.863 2.654h2.637l-4.012-11.637h-3.17l-4.017 11.637h2.636zm1.489-4.574l1.432-4.403h.091l1.431 4.403h-2.954zm18.207-7.063h-2.449v7.319h-.102l-5.023-7.319h-2.159v11.637h2.46V34.04h.086l5.062 7.324h2.125V29.728zm1.351 0l4.244 7.523v4.114h2.444V37.25l4.244-7.523h-2.756l-2.653 5.012h-.114l-2.653-5.012h-2.756z" fill="#435A64"/></svg>