<svg width="9" height="13" fill="none" xmlns="http://www.w3.org/2000/svg"><path d="M4.793 12.93l3.775-4.677a.142.142 0 00.012-.167A.195.195 0 008.413 8H.863a.195.195 0 00-.168.086.144.144 0 00-.021.075c0 .032.011.064.033.092l3.775 4.677a.2.2 0 00.156.07.2.2 0 00.155-.07zM4.481.07L.706 4.747a.142.142 0 00-.012.167A.195.195 0 00.861 5h7.55a.196.196 0 00.168-.086.144.144 0 00.022-.075.146.146 0 00-.034-.092L4.792.07A.2.2 0 004.637 0a.2.2 0 00-.156.07z" fill="#DADADA"/><path d="M3.646 1h1.982v7H3.646V1z" fill="#DADADA"/></svg>