<svg width="49" height="7" fill="none" xmlns="http://www.w3.org/2000/svg"><path d="M5.143 6.513V2.116h2.603v-1.6H.645v1.6h2.602v4.397h1.896zM10.399.516H8.504v5.997h1.895V.516zm1.387 0v5.997h1.744V3.2l3.247 3.313h1.617V.516h-1.743v3.288L13.479.516h-1.693zm10.333 3.73l2.186 2.267h2.439l-3.045-3.125L26.63.516h-2.3l-2.21 2.255h-.506V.516h-1.832v5.997h1.832V4.245h.505zM30.514.351c-2.464 0-3.942 1.386-3.942 3.175s1.478 3.175 3.942 3.175c2.45 0 3.93-1.386 3.93-3.175S32.963.352 30.513.352zm0 4.888c-1.226 0-2.01-.73-2.01-1.713 0-.983.784-1.7 2.01-1.7 1.213 0 2.009.717 2.009 1.7s-.796 1.713-2.01 1.713zM41.39.516h-6.077v5.997h1.832V4.42h3.98V3.1h-3.98V2.04h4.245V.516zm6.898 0H42.21v5.997h1.833V4.42h3.98V3.1h-3.98V2.04h4.245V.516z" fill="#fff"/></svg>