<svg width="1440" height="257" viewBox="0 0 1440 257" fill="none" xmlns="http://www.w3.org/2000/svg">
<mask id="path-1-inside-1" fill="white">
<path fill-rule="evenodd" clip-rule="evenodd" d="M0 112.063C2.71296 110.246 66.8351 67.9929 103.15 100.335C106.505 103.323 109.875 106.397 113.267 109.496C143.576 137.155 174.909 165.757 213.181 147.332C252.779 128.27 277.536 144.872 290.832 153.79C293.536 155.603 295.872 157.171 297.458 157.837L299.055 158.517C310.649 163.479 330.059 171.795 349.975 147.081C353.807 142.328 358.034 136.161 362.515 129.631C377.91 107.184 397.071 79.2479 420.578 78.9182C420.717 78.9141 420.856 78.9141 420.995 78.9141C433.524 78.9141 445.677 86.8724 457.125 102.571C461.203 108.164 464.997 113.478 468.569 118.482C487.843 145.48 500.575 163.316 515.501 165.281C525.599 166.617 537.719 161.025 554.757 147.158C579.883 126.712 595.731 118.158 609.466 117.639C623.516 117.156 634.399 124.836 649.433 135.533L653.252 138.249C683.668 159.873 702.026 172.933 744.841 135.886C775.35 109.485 822.941 94.9111 863.287 99.6288C892.252 103.013 915.429 115.828 930.307 136.691C934.215 142.172 938.147 147.823 942.087 153.487C964.543 185.769 989.971 222.371 1008.99 220.263C1017.68 219.303 1025.67 209.849 1032.74 192.165C1061.74 119.652 1088.83 41.069 1089.1 40.2846L1089.23 39.9606C1091.07 35.7188 1107.87 -1.41421 1131.15 0.0416892C1147.86 1.11514 1161.54 21.2451 1172.96 61.5863C1177.76 78.5268 1182.55 97.369 1187.19 115.595C1203.08 178.055 1222.85 255.789 1246.27 256.99C1256 257.409 1272.74 244.302 1297.11 178.638C1324.03 106.112 1350.28 68.6482 1377.33 64.1092C1400.48 60.2173 1418.07 81.1642 1429.7 95.0272C1433.76 99.861 1437.59 104.427 1440 105.903"/>
</mask>
<path d="M103.15 100.335L102.485 101.082L102.485 101.082L103.15 100.335ZM113.267 109.496L112.593 110.234L112.593 110.235L113.267 109.496ZM213.181 147.332L212.747 146.431L212.747 146.431L213.181 147.332ZM290.832 153.79L290.275 154.62L290.275 154.621L290.832 153.79ZM297.458 157.837L297.85 156.917L297.845 156.915L297.458 157.837ZM299.055 158.517L299.448 157.597L299.446 157.596L299.055 158.517ZM349.975 147.081L349.197 146.453L349.197 146.453L349.975 147.081ZM362.515 129.631L363.339 130.197L363.339 130.197L362.515 129.631ZM420.578 78.9182L420.592 79.9181L420.6 79.918L420.608 79.9178L420.578 78.9182ZM457.125 102.571L457.933 101.982L457.933 101.982L457.125 102.571ZM468.569 118.482L467.755 119.063L467.755 119.063L468.569 118.482ZM515.501 165.281L515.632 164.29L515.631 164.29L515.501 165.281ZM554.757 147.158L554.126 146.383L554.126 146.383L554.757 147.158ZM609.466 117.639L609.432 116.639L609.428 116.639L609.466 117.639ZM649.433 135.533L648.853 136.348L648.853 136.348L649.433 135.533ZM653.252 138.249L652.673 139.064L652.673 139.064L653.252 138.249ZM744.841 135.886L745.496 136.643L745.496 136.643L744.841 135.886ZM863.287 99.6288L863.171 100.622L863.171 100.622L863.287 99.6288ZM930.307 136.691L931.122 136.111L931.122 136.111L930.307 136.691ZM942.087 153.487L941.266 154.058L942.087 153.487ZM1008.99 220.263L1008.88 219.269L1008.88 219.269L1008.99 220.263ZM1032.74 192.165L1033.67 192.537V192.537L1032.74 192.165ZM1089.1 40.2846L1088.17 39.9244L1088.17 39.9415L1088.16 39.9589L1089.1 40.2846ZM1089.23 39.9606L1088.31 39.5627L1088.3 39.5814L1088.3 39.6004L1089.23 39.9606ZM1131.15 0.0416892L1131.22 -0.956255L1131.21 -0.956362L1131.15 0.0416892ZM1172.96 61.5863L1172 61.8588V61.8588L1172.96 61.5863ZM1187.19 115.595L1188.16 115.348V115.348L1187.19 115.595ZM1246.27 256.99L1246.22 257.989L1246.22 257.99L1246.27 256.99ZM1297.11 178.638L1298.05 178.986V178.986L1297.11 178.638ZM1377.33 64.1092L1377.5 65.0954L1377.5 65.0953L1377.33 64.1092ZM1429.7 95.0272L1428.93 95.6698L1428.93 95.6699L1429.7 95.0272ZM0.556348 112.894C1.88515 112.004 18.5034 101.046 39.2814 94.3411C60.1142 87.6181 84.7475 85.285 102.485 101.082L103.815 99.5884C85.2374 83.0431 59.6522 85.6656 38.6671 92.4378C17.6271 99.2277 0.827808 110.305 -0.556348 111.232L0.556348 112.894ZM102.485 101.082C105.835 104.065 109.2 107.135 112.593 110.234L113.942 108.758C110.55 105.66 107.175 102.58 103.815 99.5883L102.485 101.082ZM112.593 110.235C127.721 124.04 143.235 138.209 159.786 146.588C176.401 154.998 194.136 157.611 213.615 148.233L212.747 146.431C193.955 155.478 176.886 153.002 160.689 144.803C144.429 136.572 129.122 122.611 113.941 108.757L112.593 110.235ZM213.615 148.233C233.22 138.795 249.079 138.213 261.65 141.044C274.251 143.882 283.628 150.162 290.275 154.62L291.389 152.959C284.74 148.5 275.09 142.02 262.09 139.093C249.058 136.159 232.74 136.807 212.747 146.431L213.615 148.233ZM290.275 154.621C292.935 156.404 295.372 158.046 297.071 158.759L297.845 156.915C296.372 156.296 294.137 154.802 291.389 152.959L290.275 154.621ZM297.067 158.757L298.663 159.437L299.446 157.596L297.85 156.917L297.067 158.757ZM298.661 159.436C304.439 161.909 312.389 165.328 321.439 164.927C330.56 164.522 340.645 160.252 350.754 147.708L349.197 146.453C339.389 158.623 329.811 162.553 321.35 162.929C312.817 163.307 305.265 160.087 299.448 157.597L298.661 159.436ZM350.754 147.708C354.615 142.919 358.867 136.716 363.339 130.197L361.69 129.065C357.202 135.606 352.999 141.737 349.197 146.453L350.754 147.708ZM363.339 130.197C371.048 118.957 379.638 106.438 389.218 96.6813C398.812 86.9106 409.239 80.0773 420.592 79.9181L420.564 77.9183C408.411 78.0887 397.503 85.3885 387.791 95.2801C378.065 105.185 369.377 117.858 361.69 129.065L363.339 130.197ZM420.608 79.9178C420.729 79.9142 420.854 79.9141 420.995 79.9141V77.9141C420.859 77.9141 420.705 77.9141 420.549 77.9186L420.608 79.9178ZM420.995 79.9141C433.059 79.9141 444.951 87.5737 456.317 103.161L457.933 101.982C446.404 86.1712 433.989 77.9141 420.995 77.9141V79.9141ZM456.317 103.161C460.392 108.749 464.183 114.059 467.755 119.063L469.383 117.901C465.811 112.897 462.015 107.58 457.933 101.982L456.317 103.161ZM467.755 119.063C477.378 132.543 485.42 143.811 492.93 151.947C500.432 160.074 507.549 165.243 515.37 166.273L515.631 164.29C508.526 163.354 501.815 158.623 494.4 150.591C486.994 142.568 479.034 131.419 469.383 117.901L467.755 119.063ZM515.369 166.273C525.924 167.669 538.344 161.805 555.388 147.934L554.126 146.383C537.094 160.244 525.273 165.565 515.632 164.29L515.369 166.273ZM555.388 147.934C580.521 127.482 596.136 119.144 609.504 118.638L609.428 116.639C595.326 117.173 579.245 125.942 554.126 146.383L555.388 147.934ZM609.5 118.638C623.15 118.169 633.749 125.601 648.853 136.348L650.013 134.718C635.05 124.072 623.882 116.143 609.432 116.639L609.5 118.638ZM648.853 136.348L652.673 139.064L653.832 137.434L650.012 134.718L648.853 136.348ZM652.673 139.064C667.812 149.827 680.237 158.697 694.3 160.065C708.454 161.442 724.016 155.228 745.496 136.643L744.187 135.13C722.851 153.592 707.827 159.371 694.494 158.074C681.07 156.768 669.108 148.295 653.832 137.434L652.673 139.064ZM745.496 136.643C775.791 110.427 823.102 95.9367 863.171 100.622L863.403 98.6355C822.781 93.8855 774.91 108.544 744.187 135.13L745.496 136.643ZM863.171 100.622C891.899 103.979 914.802 116.671 929.493 137.272L931.122 136.111C916.056 114.984 892.606 102.048 863.403 98.6355L863.171 100.622ZM929.493 137.272C933.397 142.747 937.326 148.394 941.266 154.058L942.908 152.916C938.969 147.253 935.033 141.597 931.122 136.111L929.493 137.272ZM941.266 154.058C952.484 170.184 964.491 187.461 976.081 200.438C981.877 206.926 987.604 212.382 993.112 216.088C998.607 219.786 1004 221.822 1009.1 221.257L1008.88 219.269C1004.46 219.759 999.552 218.01 994.229 214.429C988.919 210.856 983.319 205.539 977.573 199.105C966.081 186.238 954.146 169.072 942.908 152.916L941.266 154.058ZM1009.1 221.257C1013.79 220.739 1018.17 217.94 1022.24 213.131C1026.3 208.323 1030.11 201.43 1033.67 192.537L1031.82 191.794C1028.3 200.584 1024.58 207.26 1020.71 211.84C1016.84 216.419 1012.88 218.827 1008.88 219.269L1009.1 221.257ZM1033.67 192.537C1062.68 119.999 1089.78 41.3972 1090.05 40.6103L1088.16 39.9589C1087.89 40.7408 1060.8 119.304 1031.82 191.794L1033.67 192.537ZM1090.04 40.6449L1090.16 40.3209L1088.3 39.6004L1088.17 39.9244L1090.04 40.6449ZM1090.15 40.3586C1091.06 38.2646 1095.68 28.007 1102.94 18.4706C1110.26 8.86553 1120 0.346202 1131.09 1.03974L1131.21 -0.956362C1119.02 -1.71872 1108.71 7.60051 1101.35 17.2584C1093.94 26.9851 1089.24 37.4149 1088.31 39.5627L1090.15 40.3586ZM1131.09 1.03963C1139.01 1.54867 1146.37 6.5734 1153.21 16.6506C1160.06 26.7301 1166.3 41.729 1172 61.8588L1173.93 61.3138C1168.2 41.1024 1161.89 25.8657 1154.87 15.5266C1147.84 5.18515 1140 -0.39184 1131.22 -0.956254L1131.09 1.03963ZM1172 61.8588C1176.8 78.784 1181.58 97.6124 1186.22 115.841L1188.16 115.348C1183.52 97.1256 1178.73 78.2697 1173.93 61.3138L1172 61.8588ZM1186.22 115.841C1194.16 147.057 1203.09 182.157 1212.97 209.603C1217.9 223.322 1223.09 235.186 1228.55 243.713C1231.28 247.977 1234.1 251.446 1237.01 253.898C1239.93 256.351 1243.01 257.824 1246.22 257.989L1246.32 255.992C1243.67 255.856 1241.01 254.638 1238.3 252.366C1235.59 250.092 1232.9 246.804 1230.23 242.635C1224.9 234.297 1219.77 222.599 1214.85 208.926C1205.01 181.59 1196.11 146.592 1188.16 115.348L1186.22 115.841ZM1246.22 257.99C1251.6 258.221 1258.5 254.7 1267 243.19C1275.53 231.646 1285.85 211.851 1298.05 178.986L1296.17 178.29C1284 211.089 1273.76 230.68 1265.4 242.001C1257 253.356 1250.66 256.179 1246.31 255.991L1246.22 257.99ZM1298.05 178.986C1311.5 142.757 1324.75 115.35 1337.99 96.4521C1351.24 77.5317 1364.37 67.2985 1377.5 65.0954L1377.17 63.1229C1363.24 65.4589 1349.72 76.2269 1336.35 95.3047C1322.97 114.405 1309.65 141.993 1296.17 178.29L1298.05 178.986ZM1377.5 65.0953C1388.71 63.2109 1398.62 67.3218 1407.24 73.7134C1415.88 80.1151 1423.11 88.7249 1428.93 95.6698L1430.47 94.3846C1424.67 87.4664 1417.29 78.6713 1408.43 72.1068C1399.56 65.5322 1389.1 61.1156 1377.17 63.123L1377.5 65.0953ZM1428.93 95.6699C1430.96 98.082 1432.94 100.45 1434.73 102.399C1436.49 104.324 1438.14 105.935 1439.48 106.756L1440.52 105.05C1439.45 104.395 1437.97 102.985 1436.2 101.049C1434.46 99.1381 1432.5 96.8062 1430.47 94.3845L1428.93 95.6699Z" fill="#13A7A5" mask="url(#path-1-inside-1)"/>
</svg>
