<svg width="53" height="53" fill="none" xmlns="http://www.w3.org/2000/svg"><path d="M53 26.5C53 11.888 41.112 0 26.5 0S0 11.888 0 26.5c0 7.718 3.319 14.674 8.601 19.521l-.025.023.86.724c.056.047.117.086.172.132.457.379.93.738 1.412 1.086.156.113.312.226.471.336a26.864 26.864 0 003.749 2.158c.045.021.091.04.137.062a26.263 26.263 0 006.586 2.06c.698.12 1.403.217 2.117.281.087.008.174.013.262.02.71.06 1.43.097 2.158.097.722 0 1.434-.038 2.141-.094.09-.008.18-.013.27-.02a26.789 26.789 0 002.098-.277l.18-.033a26.26 26.26 0 006.319-1.98l.22-.1a26.59 26.59 0 002.169-1.146 26.483 26.483 0 001.523-.964c.178-.121.353-.25.529-.377.423-.304.838-.618 1.242-.947.09-.072.186-.135.274-.209l.881-.736-.025-.022C49.649 41.245 53 34.257 53 26.5zm-51.073 0C1.927 12.95 12.95 1.927 26.5 1.927S51.073 12.95 51.073 26.5c0 7.301-3.204 13.866-8.277 18.37a7.235 7.235 0 00-.86-.518l-8.16-4.079a2.136 2.136 0 01-1.187-1.92v-2.85c.19-.233.389-.497.595-.787a19.639 19.639 0 002.52-4.937 3.497 3.497 0 002.01-3.17v-3.415c0-.836-.307-1.646-.855-2.283v-4.497c.05-.5.227-3.323-1.814-5.651-1.776-2.028-4.65-3.054-8.545-3.054-3.894 0-6.769 1.026-8.545 3.053-2.041 2.328-1.864 5.15-1.814 5.65v4.498a3.512 3.512 0 00-.855 2.283v3.416c0 1.06.476 2.05 1.291 2.718.781 3.058 2.387 5.373 2.981 6.157v2.789a2.15 2.15 0 01-1.12 1.886l-7.62 4.157a6.962 6.962 0 00-.724.458C5.084 40.272 1.927 33.748 1.927 26.5zm38.988 19.882c-.337.245-.68.482-1.028.708a24.263 24.263 0 01-1.871 1.11l-.315.16a24.547 24.547 0 01-3.36 1.422l-.123.042c-.604.2-1.216.379-1.835.532h-.006a24.63 24.63 0 01-1.892.388l-.052.01c-.599.097-1.202.167-1.807.22-.107.01-.214.017-.322.025-.598.045-1.2.074-1.804.074-.61 0-1.22-.03-1.826-.075-.105-.008-.21-.015-.314-.024a24.936 24.936 0 01-1.902-.24 24.49 24.49 0 01-3.749-.935l-.114-.039a24.954 24.954 0 01-1.794-.687l-.012-.006a25.118 25.118 0 01-1.644-.786c-.07-.036-.141-.071-.21-.109a24.796 24.796 0 01-1.87-1.113 24.974 24.974 0 01-1.288-.899l-.129-.1.093-.052 7.62-4.156a4.075 4.075 0 002.124-3.58v-3.47l-.222-.268c-.022-.024-2.105-2.559-2.892-5.99l-.088-.382-.329-.213c-.463-.3-.74-.8-.74-1.341v-3.416c0-.448.19-.866.536-1.179l.318-.287V16.36l-.009-.127c-.002-.023-.287-2.34 1.346-4.201 1.393-1.588 3.781-2.395 7.095-2.395 3.301 0 5.682.8 7.079 2.377 1.63 1.841 1.363 4.202 1.361 4.221l-.008 5.494.318.287c.346.313.537.73.537 1.179v3.416a1.61 1.61 0 01-1.139 1.518l-.478.147-.155.477a17.826 17.826 0 01-2.405 4.849 11.8 11.8 0 01-.71.915l-.238.272v3.565a4.05 4.05 0 002.253 3.644l8.159 4.08c.052.025.103.052.154.08-.103.077-.209.15-.313.225z" fill="#1D873A"/></svg>