<svg width="60" height="60" fill="none" xmlns="http://www.w3.org/2000/svg"><path d="M37.046 34.604h0l-.006-.006a.752.752 0 01-.234-.538c0-.412.338-.75.75-.75H58.35a.75.75 0 01.75.75v0a.385.385 0 01-.01.089l-.017.07-.005.072a25.395 25.395 0 01-6.116 14.802l-.036.041-.03.045a.752.752 0 01-1.174.092l-.012-.013-.012-.012-14.642-14.642zM30.533 4.167a.75.75 0 01.724-.749c12.825.805 23.081 11.063 23.884 23.881a.753.753 0 01-.749.733H31.276a.749.749 0 01-.743-.755V4.167z" stroke="#1D873A" stroke-width="1.8"/><path d="M26.287 32.114h0l.006.007 17.044 17.044.003.002c.135.14.214.326.214.525 0 .229-.1.43-.263.567l-.007.005-.007.007a25.455 25.455 0 01-16.816 6.311C12.345 56.582.9 45.132.9 31.016c0-13.57 10.577-24.677 23.94-25.509.4.012.72.34.72.744v0l.007 24.082s0 0 0 0c0 .68.265 1.317.72 1.782z" stroke="#1D873A" stroke-width="1.8"/></svg>