<svg width="57" height="57" fill="none" xmlns="http://www.w3.org/2000/svg"><path d="M48.498 22.75l1.89-.647C47.618 12.693 38.805 5.68 28.5 5.68c-10.305 0-19.118 7.013-21.888 16.423l1.89.647a.656.656 0 01.335-.364h.001C13.363 20.29 20.527 17.81 28.5 17.81c7.973 0 15.137 2.48 19.662 4.574h0c.153.071.27.199.336.365zm-40.42 9.792l-1.947.456c1.783 8.836 8.833 15.886 17.622 17.771l.613-1.892a.657.657 0 01-.4-.506s0 0 0 0l-.557-4.01v-.003c-.792-5.549-5.218-9.975-10.767-10.767h-.004l-4.008-.558h-.001a.67.67 0 01-.552-.491zm24.556 16.334l.613 1.893c8.789-1.885 15.84-8.935 17.622-17.772l-1.946-.455a.67.67 0 01-.552.491s0 0 0 0l-4.01.558h-.003c-5.549.792-9.975 5.218-10.767 10.767v.004l-.558 4.008v.001a.657.657 0 01-.4.505zM1 28.5C1 13.398 13.398 1 28.5 1S56 13.398 56 28.5 43.602 56 28.5 56 1 43.602 1 28.5zm21.49 0a6.015 6.015 0 006.01 6.01 6.015 6.015 0 006.01-6.01 6.015 6.015 0 00-6.01-6.01 6.015 6.015 0 00-6.01 6.01z" stroke="#1D873A" stroke-width="2"/></svg>