<svg width="57" height="57" fill="none" xmlns="http://www.w3.org/2000/svg"><path d="M52.433 14.682c0-.011-.011-.035-.011-.047 0-.023-.012-.035-.012-.058 0-.012-.012-.035-.012-.047-.011-.023-.011-.035-.023-.058 0-.012-.012-.035-.012-.047a.346.346 0 00-.047-.093c-.011-.012-.011-.024-.023-.035-.011-.024-.023-.035-.035-.059-.012-.011-.012-.023-.023-.035-.012-.011-.012-.023-.024-.035L41.7.456l-.012-.012c-.023-.024-.035-.047-.058-.07-.012-.012-.012-.024-.023-.024a.315.315 0 00-.094-.081l-.011-.012c-.035-.023-.059-.047-.094-.07-.012-.012-.023-.012-.035-.023-.023-.012-.047-.036-.082-.047-.011 0-.023-.012-.035-.012-.023-.012-.058-.023-.082-.035-.011 0-.023-.012-.035-.012a.217.217 0 00-.081-.023c-.012 0-.024-.012-.035-.012-.035-.011-.059-.011-.094-.011h-.035c-.047 0-.082-.012-.128-.012H5.724a1.17 1.17 0 00-1.168 1.168v54.664c0 .642.525 1.168 1.168 1.168h45.553c.642 0 1.168-.526 1.168-1.168v-41.08c0-.023-.012-.046-.012-.07zm-3.527-.958h-6.95l-.023-9.087 6.973 9.087zm1.203 40.952H6.892V2.348h32.705l.023 12.544c0 .643.526 1.169 1.168 1.169h9.32v38.615z" fill="#1D873A"/><path d="M11.832 21.387c0 .642.526 1.168 1.168 1.168h31.093c.642 0 1.168-.526 1.168-1.168 0-.643-.526-1.169-1.168-1.169H13c-.642 0-1.168.526-1.168 1.169zM13 15.43h20.312c.643 0 1.157-.526 1.157-1.168 0-.643-.526-1.168-1.169-1.168H13c-.642 0-1.168.525-1.168 1.168 0 .642.526 1.168 1.168 1.168zm0 14.25h31.093c.642 0 1.168-.526 1.168-1.168 0-.643-.526-1.169-1.168-1.169H13c-.642 0-1.168.526-1.168 1.169 0 .642.526 1.168 1.168 1.168zm20.312 7.125c.643 0 1.157-.526 1.157-1.169 0-.642-.526-1.168-1.169-1.168H13c-.642 0-1.168.526-1.168 1.168 0 .643.526 1.169 1.168 1.169h20.312zM43.323 38.3l-9.835 8.69-2.838-3.796a1.171 1.171 0 00-1.635-.234 1.171 1.171 0 00-.234 1.635l3.598 4.813c.198.268.49.432.817.467a.396.396 0 00.117.012c.28 0 .55-.105.771-.304l10.781-9.531c.49-.42.537-1.168.105-1.647a1.155 1.155 0 00-1.647-.105z" fill="#1D873A"/></svg>