<svg width="69" height="70" fill="none" xmlns="http://www.w3.org/2000/svg"><path fill-rule="evenodd" clip-rule="evenodd" d="M48.91 2.304l-3.601 1.29-10.477 1.583c-5.762.871-10.742 1.647-11.066 1.724-.953.228-2.364 1.034-3.162 1.807-.69.67-17.689 21.05-18.565 22.26-1.643 2.266-1.302 5.736.77 7.829 1.95 1.972 4.83 2.414 7.338 1.128.324-.167 3.182-2.223 6.351-4.57 5.49-4.065 10.194-7.54 10.688-7.896.202-.145.294-.071.779.62 1.187 1.691 3.241 2.752 5.33 2.752 1.023 0 13.416-2.144 14.502-2.508 1.639-.551 1.983-.88 9.753-9.339 4.034-4.391 7.335-8.029 7.336-8.082C64.886 10.803 52.65.973 52.56 1c-.028.008-1.67.595-3.651 1.304zm6.79 6.203c1.985 1.587 3.404 2.811 3.368 2.905-.034.09-2.678 3.007-5.877 6.485-3.928 4.27-5.97 6.397-6.294 6.551-.7.333-13.084 2.492-13.876 2.42-1.55-.143-2.634-1.694-2.293-3.284.163-.76.944-1.695 1.594-1.909.228-.076 2.675-.546 5.438-1.046 2.762-.5 5.054-.941 5.094-.982.078-.077-.481-3.447-.611-3.685-.09-.162-9.965 1.582-11.103 1.961-.81.27-2.04 1.052-2.619 1.666-.571.606-1.28 1.815-1.477 2.522-.09.322-.29.699-.445.837-.588.529-17.981 13.32-18.412 13.542-2.022 1.035-4.124-1.436-2.836-3.334.558-.821 17.827-21.496 18.252-21.85a3.12 3.12 0 01.85-.492c.238-.079 5.263-.874 11.167-1.768L46.356 7.42l2.75-.978c2.18-.774 2.792-.946 2.957-.828.114.081 1.751 1.383 3.638 2.892zm4.32 20.088c-.408.13-.998.381-1.31.557-.404.228-15.259 11.123-16.954 12.434-.097.076-.353-.166-.754-.713-1.258-1.712-3.192-2.712-5.245-2.711-1.104 0-13.185 2.084-14.513 2.503a7.485 7.485 0 00-1.678.83c-.553.385-3.013 2.968-8.118 8.526-4.028 4.385-7.325 8.016-7.325 8.07 0 .053 2.76 2.305 6.133 5.003L16.39 68l3.684-1.304 3.683-1.304 9.99-1.505c5.495-.828 10.428-1.592 10.962-1.7 1.402-.28 2.7-.94 3.644-1.854.762-.737 17.87-21.249 18.646-22.355 1.6-2.283 1.245-5.718-.805-7.79-.399-.402-1.022-.891-1.386-1.087-1.412-.76-3.353-.965-4.788-.506zm2.763 3.934c1.273.65 1.666 2.14.873 3.307-.557.822-17.826 21.496-18.252 21.852-.23.191-.619.415-.865.496-.246.081-5.271.877-11.167 1.77-5.896.891-10.985 1.718-11.31 1.837-.323.12-1.567.56-2.762.98l-2.174.763-3.588-2.871c-1.974-1.58-3.582-2.95-3.573-3.046.008-.096 2.636-3.025 5.84-6.51 3.99-4.338 5.98-6.408 6.313-6.566.674-.32 12.332-2.373 13.52-2.38.837-.006 1 .036 1.5.388.959.673 1.38 1.738 1.138 2.874-.15.703-.978 1.693-1.584 1.893-.233.077-2.686.551-5.451 1.054-2.765.503-5.057.945-5.094.981-.074.074.493 3.45.618 3.682.072.133 2.964-.341 9.31-1.526 2.501-.467 4.055-1.392 5.13-3.055.275-.425.6-1.09.722-1.476.122-.386.313-.784.426-.884.113-.1 1.501-1.14 3.086-2.311l8.905-6.587c3.313-2.45 6.228-4.561 6.477-4.69.593-.305 1.333-.296 1.962.025z" fill="#1D873A" stroke="#fff" stroke-width="1.9"/></svg>