<svg width="48" height="48" fill="none" xmlns="http://www.w3.org/2000/svg"><g clip-path="url(#clip0)" fill="#1D873A"><path d="M27.044 5.04h-.998v20.457l-14.57 14.57.699.698c3.892 3.992 9.18 6.187 14.769 6.187C38.52 46.952 48 37.572 48 25.996 48 14.42 38.62 5.039 27.044 5.039zm-.1 39.916c-4.69 0-9.181-1.696-12.674-4.89l13.672-13.671V7.035c9.979.5 17.962 8.882 17.962 18.96 0 10.479-8.482 18.961-18.96 18.961z"/><path d="M.1 27.094l.1.997c.399 4.79 2.594 9.381 5.987 12.774l.699.698L23.75 24.7.1 27.094zm2.095 1.796l16.067-1.597L6.886 38.67c-2.495-2.695-4.092-6.188-4.69-9.78zM20.956 1.048C9.38 1.048 0 10.428 0 22.004c0 .699 0 1.397.1 2.096l.1.998 21.754-2.196V1.048h-.998zm-.998 20.058L1.996 22.902v-.898c0-10.179 7.983-18.461 17.962-18.96v18.062z"/></g><defs><clipPath id="clip0"><path fill="#fff" d="M0 0h48v48H0z"/></clipPath></defs></svg>