<svg width="51" height="51" fill="none" xmlns="http://www.w3.org/2000/svg"><path d="M50.93 49.503l-6.653-17.74a1.108 1.108 0 00-1.037-.719H33.074l3.827-6.748a42.197 42.197 0 001.99-4.115c.043-.103 1.023-2.556 1.023-5.268C39.914 6.69 33.448 0 25.5 0c-7.948 0-14.413 6.69-14.413 14.912 0 2.714.989 5.17 1.03 5.272a42.95 42.95 0 001.992 4.11l3.822 6.75H7.762a1.11 1.11 0 00-1.04.719l-6.65 17.74A1.11 1.11 0 001.109 51h48.783a1.11 1.11 0 001.037-1.498zm-34.892-26.3a41.55 41.55 0 01-1.867-3.854c-.009-.021-.866-2.151-.866-4.435 0-7 5.471-12.696 12.196-12.696 6.724 0 12.195 5.696 12.195 12.695 0 2.268-.852 4.416-.859 4.436a40 40 0 01-1.865 3.852l-4.754 8.383c-.004.008-.012.015-.017.022l-4.572 8.07a.985.985 0 01-.128.185 1.061 1.061 0 01-.128-.182L20.8 31.605h-.001l-4.76-8.402zM2.709 48.783l5.82-15.521h10.659l4.254 7.509a.015.015 0 00.003.004l1.09 1.924c.393.694 1.535.694 1.93 0l1.092-1.93 4.26-7.507H42.47l5.821 15.521H2.709z" fill="#1D873A"/></svg>