<svg width="52" height="45" fill="none" xmlns="http://www.w3.org/2000/svg"><mask id="a" fill="#fff"><path fill-rule="evenodd" clip-rule="evenodd" d="M38.486.07c-1.35.228-2.943.893-3.912 1.635l-.516.396-1.137-.272c-2.205-.526-3.502-.664-6.177-.658-1.37.003-2.966.068-3.545.145-4.494.599-8.75 2.324-12.251 4.967-1.66 1.252-3.719 3.352-4.754 4.847-.503.726-.618.757-1.533.414-1.237-.464-2.082-1.55-2.277-2.925-.158-1.12-.48-1.515-1.238-1.515-.884 0-1.293.721-1.099 1.938.233 1.464.81 2.546 1.894 3.553.627.582 1.863 1.286 2.258 1.286.103 0 .171.039.15.086-1.222 2.858-1.496 3.732-1.817 5.783-.247 1.584-.167 4.378.17 5.95.746 3.464 2.429 6.83 4.7 9.4l.835.945.032 4.136.032 4.136.307.307.307.308 4.345.029c3.333.021 4.41-.005 4.622-.113.182-.092.45-.492.782-1.167.562-1.143 1.03-1.696 1.723-2.031.448-.218.632-.225 5.266-.194 4.782.032 4.804.034 5.284.29.688.369 1.38 1.045 2.132 2.082.36.496.78.96.936 1.031.448.205 7.497.179 7.899-.03.552-.286.57-.434.57-4.803v-4.063l1.068-1.459c2.013-2.75 2.203-2.867 5.467-3.403 1.188-.195 2.276-.429 2.419-.52.558-.355.572-.51.572-6.313 0-5.64-.018-5.877-.484-6.265-.102-.085-.585-.218-1.072-.297-1.074-.172-1.723-.472-2.354-1.087-.495-.483-.663-.788-1.355-2.46-.526-1.272-1.533-3.07-2.382-4.257-.363-.508-.66-1.018-.66-1.132 0-.115.797-1.538 1.772-3.163 1.94-3.232 2.01-3.424 1.495-4.038-.352-.42-2.215-1.049-4.026-1.36-1.172-.2-3.625-.277-4.448-.139zm4.53 2.583c.574.12 1.083.26 1.133.31.05.05-.556 1.187-1.346 2.527l-1.437 2.437V9.85l.76 1.026c1.087 1.464 1.737 2.607 2.533 4.448.78 1.803 1.268 2.586 2.015 3.229.594.511 1.748 1.141 2.42 1.32l.472.126-.03 4.297-.028 4.296-1.44.242c-1.879.315-2.288.43-3.184.9-1.028.54-1.682 1.221-3.324 3.46l-1.413 1.927v7.534h-4.965l-.555-.694c-1.177-1.474-2.198-2.26-3.436-2.643-.655-.203-1.047-.218-5.602-.218-4.143 0-4.99.027-5.499.176a5.614 5.614 0 00-1.986 1.08c-.519.447-1.299 1.49-1.448 1.94l-.121.363-2.954-.03-2.954-.03-.06-3.832c-.032-2.109-.07-3.847-.082-3.864-.013-.017-.473-.508-1.021-1.092-2.24-2.386-3.731-5.278-4.45-8.626-.345-1.609-.348-4.09-.006-5.808.753-3.784 2.378-6.63 5.478-9.593 3.46-3.306 8.005-5.46 12.824-6.074 1.19-.151 2.005-.178 3.988-.129 2.824.07 4.365.27 5.773.752 1.336.457 1.523.439 2.245-.218 1.005-.912 2.136-1.454 3.502-1.677.889-.146 3-.038 4.199.215zM23.724 6.045c-1.792.258-3.745.882-5.49 1.756-1.265.633-1.57.927-1.57 1.521 0 .578.14.844.553 1.058.509.264.767.208 2.045-.443 2.226-1.134 4.333-1.644 6.763-1.638 2.351.006 4.393.52 6.782 1.706 1.28.635 1.376.666 1.743.544.8-.265 1.112-1.233.586-1.824-.46-.518-2.602-1.567-4.225-2.07-2.146-.665-5.08-.914-7.187-.61zm15.206 7.072c-.152.06-.394.22-.537.354-1.11 1.039-.505 2.875 1.003 3.045 1.012.114 1.903-.704 1.903-1.746 0-1.226-1.253-2.1-2.369-1.653z"/></mask><path fill-rule="evenodd" clip-rule="evenodd" d="M38.486.07c-1.35.228-2.943.893-3.912 1.635l-.516.396-1.137-.272c-2.205-.526-3.502-.664-6.177-.658-1.37.003-2.966.068-3.545.145-4.494.599-8.75 2.324-12.251 4.967-1.66 1.252-3.719 3.352-4.754 4.847-.503.726-.618.757-1.533.414-1.237-.464-2.082-1.55-2.277-2.925-.158-1.12-.48-1.515-1.238-1.515-.884 0-1.293.721-1.099 1.938.233 1.464.81 2.546 1.894 3.553.627.582 1.863 1.286 2.258 1.286.103 0 .171.039.15.086-1.222 2.858-1.496 3.732-1.817 5.783-.247 1.584-.167 4.378.17 5.95.746 3.464 2.429 6.83 4.7 9.4l.835.945.032 4.136.032 4.136.307.307.307.308 4.345.029c3.333.021 4.41-.005 4.622-.113.182-.092.45-.492.782-1.167.562-1.143 1.03-1.696 1.723-2.031.448-.218.632-.225 5.266-.194 4.782.032 4.804.034 5.284.29.688.369 1.38 1.045 2.132 2.082.36.496.78.96.936 1.031.448.205 7.497.179 7.899-.03.552-.286.57-.434.57-4.803v-4.063l1.068-1.459c2.013-2.75 2.203-2.867 5.467-3.403 1.188-.195 2.276-.429 2.419-.52.558-.355.572-.51.572-6.313 0-5.64-.018-5.877-.484-6.265-.102-.085-.585-.218-1.072-.297-1.074-.172-1.723-.472-2.354-1.087-.495-.483-.663-.788-1.355-2.46-.526-1.272-1.533-3.07-2.382-4.257-.363-.508-.66-1.018-.66-1.132 0-.115.797-1.538 1.772-3.163 1.94-3.232 2.01-3.424 1.495-4.038-.352-.42-2.215-1.049-4.026-1.36-1.172-.2-3.625-.277-4.448-.139zm4.53 2.583c.574.12 1.083.26 1.133.31.05.05-.556 1.187-1.346 2.527l-1.437 2.437V9.85l.76 1.026c1.087 1.464 1.737 2.607 2.533 4.448.78 1.803 1.268 2.586 2.015 3.229.594.511 1.748 1.141 2.42 1.32l.472.126-.03 4.297-.028 4.296-1.44.242c-1.879.315-2.288.43-3.184.9-1.028.54-1.682 1.221-3.324 3.46l-1.413 1.927v7.534h-4.965l-.555-.694c-1.177-1.474-2.198-2.26-3.436-2.643-.655-.203-1.047-.218-5.602-.218-4.143 0-4.99.027-5.499.176a5.614 5.614 0 00-1.986 1.08c-.519.447-1.299 1.49-1.448 1.94l-.121.363-2.954-.03-2.954-.03-.06-3.832c-.032-2.109-.07-3.847-.082-3.864-.013-.017-.473-.508-1.021-1.092-2.24-2.386-3.731-5.278-4.45-8.626-.345-1.609-.348-4.09-.006-5.808.753-3.784 2.378-6.63 5.478-9.593 3.46-3.306 8.005-5.46 12.824-6.074 1.19-.151 2.005-.178 3.988-.129 2.824.07 4.365.27 5.773.752 1.336.457 1.523.439 2.245-.218 1.005-.912 2.136-1.454 3.502-1.677.889-.146 3-.038 4.199.215zM23.724 6.045c-1.792.258-3.745.882-5.49 1.756-1.265.633-1.57.927-1.57 1.521 0 .578.14.844.553 1.058.509.264.767.208 2.045-.443 2.226-1.134 4.333-1.644 6.763-1.638 2.351.006 4.393.52 6.782 1.706 1.28.635 1.376.666 1.743.544.8-.265 1.112-1.233.586-1.824-.46-.518-2.602-1.567-4.225-2.07-2.146-.665-5.08-.914-7.187-.61zm15.206 7.072c-.152.06-.394.22-.537.354-1.11 1.039-.505 2.875 1.003 3.045 1.012.114 1.903-.704 1.903-1.746 0-1.226-1.253-2.1-2.369-1.653z" fill="#1D873A" stroke="#fff" stroke-width=".4" mask="url(#a)"/></svg>