<svg width="52" height="52" fill="none" xmlns="http://www.w3.org/2000/svg"><path d="M51.133 9.535h-3.466V5.2a.867.867 0 00-.94-.866l-2.26.19a52.578 52.578 0 00-15.939 3.887L26 9.462l-2.526-1.047a52.59 52.59 0 00-15.94-3.887l-2.261-.193a.867.867 0 00-.94.866v4.334H.867A.867.867 0 000 10.4v36.4c0 .48.388.867.867.867h50.266A.867.867 0 0052 46.8V10.4a.867.867 0 00-.867-.866zm-49.4 36.402V11.268h2.6v30.333a.867.867 0 00.793.867l2.333.2a49.65 49.65 0 011.906.196c.213.025.423.06.636.087.42.056.84.112 1.259.18.25.04.498.086.747.13.38.067.759.134 1.137.208.26.052.52.11.78.166.365.078.73.157 1.093.244a58.165 58.165 0 012.637.706 49.02 49.02 0 012.888.95c.25.086.5.18.748.275.107.04.214.087.32.127H1.733zm23.4-.436l-1.598-.667a52.564 52.564 0 00-15.93-3.9l-1.538-.128V6.144l1.322.111a50.859 50.859 0 0115.42 3.759l2.324.966V45.5zm1.734 0V10.98l2.328-.967A50.85 50.85 0 0144.61 6.255l1.322-.11v34.658l-1.424.116a52.917 52.917 0 00-15.946 3.878l-1.696.704zm23.4.434H30.403c.118-.046.236-.095.355-.14.26-.1.52-.194.786-.288.34-.123.68-.243 1.024-.358l.803-.26a54.342 54.342 0 011.843-.549c.347-.097.694-.188 1.05-.277a41.5 41.5 0 011.895-.443c.26-.056.52-.115.785-.167.381-.075.764-.142 1.146-.208l.744-.13a50.19 50.19 0 011.284-.183c.206-.027.411-.06.617-.087a53.744 53.744 0 011.916-.197l2.22-.18a.867.867 0 00.796-.867V11.268h2.6v34.667z" fill="#1D873A"/></svg>