<svg width="66" height="47" fill="none" xmlns="http://www.w3.org/2000/svg"><mask id="a" fill="#fff"><path fill-rule="evenodd" clip-rule="evenodd" d="M16.213.183c-.275.086-.773.397-1.106.691-.53.467-.911 1.208-3.032 5.89-1.334 2.944-2.477 5.406-2.54 5.469-.063.063-.985-.523-2.048-1.302L5.555 9.515H3.516c-2.249 0-2.888.156-3.324.809-.352.527-.204 1.39.314 1.831.36.307.542.335 2.209.335h1.817l1.545 1.138c.85.626 1.599 1.182 1.663 1.237.064.055-.927.945-2.201 1.976-1.553 1.257-2.442 2.089-2.693 2.519l-.374.642v8.702c0 8.624.003 8.707.326 9.297.377.688.835 1.129 1.53 1.474l.492.244V47h13.94v-7.14h28.48V47h13.94v-7.283l.568-.286c.66-.332 1.1-.775 1.497-1.505.267-.49.283-1.012.283-9.222v-8.702l-.402-.671c-.271-.454-1.144-1.272-2.69-2.52-1.258-1.018-2.236-1.894-2.173-1.948.062-.054.81-.61 1.66-1.235l1.545-1.138h1.817c1.667 0 1.85-.028 2.21-.335.517-.441.665-1.304.313-1.831-.436-.653-1.076-.809-3.324-.809h-2.038l-1.93 1.42c-1.061.78-1.983 1.366-2.047 1.301-.065-.065-1.21-2.528-2.544-5.473C51.81 2.095 51.422 1.34 50.897.877c-.332-.292-.871-.61-1.2-.706-.8-.236-32.734-.224-33.484.012zm33.427 4.46c.422.921 1.55 3.4 2.506 5.51l1.737 3.835-2.713 1.334-2.713 1.333H17.543l-2.713-1.333-2.712-1.333 2.35-5.175a620.696 620.696 0 002.483-5.51l.133-.334h31.787l.769 1.674zm-35.881 13.5l3.027 1.487H49.21l3.093-1.516 3.094-1.517 1.415 1.13c.778.622 1.943 1.575 2.59 2.118l1.175.986-.039 7.99-.039 7.99H5.502V20.746l2.5-2.043c1.375-1.124 2.551-2.044 2.615-2.046.063 0 1.477.668 3.142 1.486zm-4.528 7.05c-.717.39-.956 1.247-.559 2.002.383.727.66.765 5.556.765 4.933 0 5.202-.04 5.562-.814.354-.763.098-1.595-.599-1.949-.587-.298-9.414-.302-9.96-.004zm37.573 0c-.717.39-.956 1.247-.559 2.002.383.727.66.765 5.556.765 4.933 0 5.202-.04 5.562-.814.354-.763.098-1.595-.599-1.949-.587-.298-9.414-.302-9.96-.004zm-24.241 4.76c-1.015.552-.982 2.125.055 2.59.295.131 2.963.177 10.382.177s10.087-.046 10.382-.178c.434-.194.83-.818.83-1.31 0-.491-.396-1.115-.83-1.31-.607-.27-20.317-.242-20.82.03zm-6.834 11.99v2.082H7.85V39.86h7.879v2.083zm42.42 0v2.082h-7.878V39.86h7.879v2.083z"/></mask><path fill-rule="evenodd" clip-rule="evenodd" d="M16.213.183c-.275.086-.773.397-1.106.691-.53.467-.911 1.208-3.032 5.89-1.334 2.944-2.477 5.406-2.54 5.469-.063.063-.985-.523-2.048-1.302L5.555 9.515H3.516c-2.249 0-2.888.156-3.324.809-.352.527-.204 1.39.314 1.831.36.307.542.335 2.209.335h1.817l1.545 1.138c.85.626 1.599 1.182 1.663 1.237.064.055-.927.945-2.201 1.976-1.553 1.257-2.442 2.089-2.693 2.519l-.374.642v8.702c0 8.624.003 8.707.326 9.297.377.688.835 1.129 1.53 1.474l.492.244V47h13.94v-7.14h28.48V47h13.94v-7.283l.568-.286c.66-.332 1.1-.775 1.497-1.505.267-.49.283-1.012.283-9.222v-8.702l-.402-.671c-.271-.454-1.144-1.272-2.69-2.52-1.258-1.018-2.236-1.894-2.173-1.948.062-.054.81-.61 1.66-1.235l1.545-1.138h1.817c1.667 0 1.85-.028 2.21-.335.517-.441.665-1.304.313-1.831-.436-.653-1.076-.809-3.324-.809h-2.038l-1.93 1.42c-1.061.78-1.983 1.366-2.047 1.301-.065-.065-1.21-2.528-2.544-5.473C51.81 2.095 51.422 1.34 50.897.877c-.332-.292-.871-.61-1.2-.706-.8-.236-32.734-.224-33.484.012zm33.427 4.46c.422.921 1.55 3.4 2.506 5.51l1.737 3.835-2.713 1.334-2.713 1.333H17.543l-2.713-1.333-2.712-1.333 2.35-5.175a620.696 620.696 0 002.483-5.51l.133-.334h31.787l.769 1.674zm-35.881 13.5l3.027 1.487H49.21l3.093-1.516 3.094-1.517 1.415 1.13c.778.622 1.943 1.575 2.59 2.118l1.175.986-.039 7.99-.039 7.99H5.502V20.746l2.5-2.043c1.375-1.124 2.551-2.044 2.615-2.046.063 0 1.477.668 3.142 1.486zm-4.528 7.05c-.717.39-.956 1.247-.559 2.002.383.727.66.765 5.556.765 4.933 0 5.202-.04 5.562-.814.354-.763.098-1.595-.599-1.949-.587-.298-9.414-.302-9.96-.004zm37.573 0c-.717.39-.956 1.247-.559 2.002.383.727.66.765 5.556.765 4.933 0 5.202-.04 5.562-.814.354-.763.098-1.595-.599-1.949-.587-.298-9.414-.302-9.96-.004zm-24.241 4.76c-1.015.552-.982 2.125.055 2.59.295.131 2.963.177 10.382.177s10.087-.046 10.382-.178c.434-.194.83-.818.83-1.31 0-.491-.396-1.115-.83-1.31-.607-.27-20.317-.242-20.82.03zm-6.834 11.99v2.082H7.85V39.86h7.879v2.083zm42.42 0v2.082h-7.878V39.86h7.879v2.083z" fill="#1D873A" stroke="#fff" mask="url(#a)"/></svg>