<svg width="49" height="49" fill="none" xmlns="http://www.w3.org/2000/svg"><path d="M45.968 48.407H2.625a2.032 2.032 0 01-2.031-2.032V15.223a.677.677 0 01.677-.678h46.052a.677.677 0 01.677.678v31.152a2.032 2.032 0 01-2.032 2.032zM1.948 15.9v30.475a.677.677 0 00.677.678h43.343a.678.678 0 00.678-.678V15.9H1.948z" fill="#1D873A" stroke="#1D873A" stroke-width=".4"/><path d="M47.323 15.9H1.27a.677.677 0 01-.677-.677V7.482A2.032 2.032 0 012.625 5.45H9.52a.677.677 0 110 1.355H2.625a.677.677 0 00-.677.677v7.064h44.698V7.482a.677.677 0 00-.678-.677h-6.894a.677.677 0 010-1.355h6.894A2.032 2.032 0 0148 7.482v7.74a.677.677 0 01-.677.678z" fill="#1D873A" stroke="#1D873A" stroke-width=".4"/><path d="M34.917 6.805H13.68a.677.677 0 010-1.355h21.238a.677.677 0 010 1.355z" fill="#1D873A" stroke="#1D873A" stroke-width=".4"/><path d="M36.996 11.25a2.757 2.757 0 01-2.754-2.755v-4.74a2.754 2.754 0 015.509 0v4.74a2.757 2.757 0 01-2.755 2.754zm0-8.895a1.401 1.401 0 00-1.4 1.4v4.74a1.4 1.4 0 102.8 0v-4.74a1.4 1.4 0 00-1.4-1.4zM11.601 11.25a2.757 2.757 0 01-2.754-2.755v-4.74a2.754 2.754 0 015.508 0v4.74a2.757 2.757 0 01-2.754 2.754zm0-8.895a1.401 1.401 0 00-1.4 1.4v4.74a1.4 1.4 0 102.8 0v-4.74a1.4 1.4 0 00-1.4-1.4zm28.795 20.063h-1.583a.677.677 0 010-1.354h1.583a.677.677 0 110 1.354zm-7.653 0H31.16a.677.677 0 010-1.354h1.583a.677.677 0 110 1.354zm-7.653 0h-1.584a.677.677 0 010-1.354h1.584a.677.677 0 110 1.354zm15.306 6.49h-1.583a.677.677 0 010-1.354h1.583a.677.677 0 110 1.354zm-7.653 0H31.16a.677.677 0 010-1.354h1.583a.677.677 0 110 1.354zm-7.653 0h-1.584a.677.677 0 010-1.354h1.584a.677.677 0 110 1.354zm-7.655 0h-1.583a.677.677 0 010-1.354h1.583a.677.677 0 110 1.354zm-7.653 0H8.2a.677.677 0 010-1.354h1.583a.677.677 0 110 1.354zm30.614 6.491h-1.583a.677.677 0 010-1.355h1.583a.677.677 0 110 1.355zm-7.653 0H31.16a.677.677 0 010-1.355h1.583a.677.677 0 110 1.355zm-7.653 0h-1.584a.677.677 0 010-1.355h1.584a.677.677 0 110 1.355zm-7.655 0h-1.583a.677.677 0 010-1.355h1.583a.677.677 0 110 1.355zm-7.653 0H8.2a.677.677 0 010-1.355h1.583a.677.677 0 110 1.355zm15.308 6.49h-1.584a.677.677 0 010-1.355h1.584a.677.677 0 010 1.355zm-7.655 0h-1.583a.677.677 0 010-1.355h1.583a.677.677 0 010 1.355zm-7.653 0H8.2a.677.677 0 010-1.355h1.583a.677.677 0 010 1.355z" fill="#1D873A" stroke="#1D873A" stroke-width=".4"/></svg>