<svg width="76" height="78" fill="none" xmlns="http://www.w3.org/2000/svg"><path d="M60.44 40.034v.097l.037.09 4.54 11.21.126.312h5.141v3.57h-4.56V77.5H53.055v-9.14h-30.12v9.14H10.268V55.313h-4.56v-3.57h5.142l.127-.312 4.547-11.21.037-.09V22.864l-.3-.13L10.7 20.74l-.7-.306v12.402H6.445V18.88l-.3-.13-4.897-2.14L38 .545l36.751 16.063-14.01 6.124-.3.131v17.17zM38.2 4.526L38 4.44l-.2.087-26.596 11.625-1.048.458 1.048.458L37.8 28.692l.2.087.2-.087 26.596-11.625 1.048-.458-1.048-.458L38.2 4.526zm18.686 20.656v-.764l-.7.306L38 32.672l-18.186-7.948-.7-.306v14.278h37.772V25.182zM18.868 42.265h-.337l-.126.312-3.44 8.478-.278.688h46.619l-.279-.688-3.433-8.477-.126-.313h-38.6zm.014 31.665h.5v-5.57H13.82v5.57h5.06zm42.788 0h.5v-5.57h-5.56v5.57h5.06zm0-9.14h.5v-9.477H13.82v9.477h47.85z" fill="#fff" stroke="#1D873A"/></svg>