<svg width="22" height="22" fill="none" xmlns="http://www.w3.org/2000/svg"><g clip-path="url(#clip0)"><path d="M.38 10.263l5.38 2.681a.69.69 0 00.653-.02l4.789-2.785-2.899 2.569a.688.688 0 00-.232.515v6.256c0 .66.843.938 1.238.413l2.326-3.091 5.75 3.275a.688.688 0 001.015-.462l3.587-17.875a.688.688 0 00-.924-.776L.436 9.007a.688.688 0 00-.056 1.256zM20.393 2.7L17.24 18.41l-5.45-3.105a.689.689 0 00-.89.185l-1.453 1.931v-3.89l7.839-6.945c.62-.549-.093-1.525-.801-1.11L6.043 11.549l-3.66-1.823L20.393 2.7z" fill="#427C92"/></g><defs><clipPath id="clip0"><path fill="#fff" d="M0 0h22v22H0z"/></clipPath></defs></svg>