<svg width="22" height="22" fill="none" xmlns="http://www.w3.org/2000/svg"><g clip-path="url(#clip0)"><path d="M11.133 17.875c3.183 0 2.048-2.015 2.293-2.594-.003-.433-.007-.849.008-1.102.201.057.677.298 1.66 1.253 1.517 1.53 1.905 2.443 3.13 2.443h2.256c.715 0 1.087-.296 1.273-.544.18-.24.356-.662.164-1.319-.504-1.58-3.439-4.309-3.621-4.597.027-.053.071-.123.094-.16h-.002c.58-.766 2.79-4.078 3.116-5.404l.002-.007c.176-.605.015-.998-.152-1.22-.251-.331-.651-.499-1.191-.499h-2.256c-.755 0-1.328.38-1.618 1.074-.485 1.233-1.847 3.769-2.868 4.666a58.735 58.735 0 01.006-2.963c.033-1.407.14-2.777-1.32-2.777H8.56c-.915 0-1.79 1-.843 2.185.829 1.04.298 1.62.477 4.503-.697-.747-1.936-2.765-2.812-5.343-.246-.698-.618-1.344-1.666-1.344H1.461C.546 4.126 0 4.625 0 5.46c0 1.875 4.152 12.415 11.133 12.415zM3.717 5.501c.199 0 .22 0 .367.419.897 2.643 2.91 6.553 4.38 6.553 1.105 0 1.105-1.132 1.105-1.558V7.52c-.062-1.122-.471-1.68-.739-2.02l3.216.004c.002.015-.018 3.753.01 4.66 0 1.285 1.02 2.022 2.614.409 1.682-1.899 2.846-4.737 2.892-4.852.07-.165.129-.221.345-.221h2.266l-.003.008c-.206.963-2.242 4.03-2.923 4.982a.821.821 0 00-.031.046c-.3.49-.544 1.03.041 1.791h.001c.053.065.192.215.393.424.627.647 2.778 2.86 2.968 3.74-.126.02-.264.005-2.395.01-.454 0-.808-.678-2.162-2.044-1.218-1.185-2.008-1.669-2.727-1.669-1.397 0-1.296 1.134-1.283 2.506.005 1.486-.004 1.016.006 1.11-.082.032-.316.096-.925.096-5.816 0-9.604-9.232-9.75-10.996.05-.005.745-.002 2.334-.003z" fill="#427C92"/></g><defs><clipPath id="clip0"><path fill="#fff" d="M0 0h22v22H0z"/></clipPath></defs></svg>