<svg width="22" height="22" fill="none" xmlns="http://www.w3.org/2000/svg"><g clip-path="url(#clip0)" fill="#427C92"><path d="M18.875 3.125A10.598 10.598 0 0011.331 0a10.62 10.62 0 00-4.084.811 10.616 10.616 0 00-3.46 2.314 10.599 10.599 0 00-3.125 7.544c0 1.7.41 3.388 1.187 4.893L.056 20.685A.98.98 0 00.29 21.71a.98.98 0 001.025.234l5.123-1.793a10.7 10.7 0 004.893 1.186 10.6 10.6 0 007.544-3.124A10.599 10.599 0 0022 10.669c0-2.85-1.11-5.53-3.125-7.544zM17.963 17.3a9.317 9.317 0 01-6.632 2.747 9.402 9.402 0 01-4.402-1.096.994.994 0 00-.793-.062l-4.654 1.63 1.629-4.655a.994.994 0 00-.062-.793 9.402 9.402 0 01-1.096-4.402c0-2.505.975-4.86 2.747-6.632a9.318 9.318 0 016.63-2.747h.001a9.32 9.32 0 016.632 2.747 9.317 9.317 0 012.747 6.632c0 2.505-.976 4.86-2.747 6.631z"/><path d="M15.296 11.621a1.26 1.26 0 00-1.78 0l-.537.537A7.813 7.813 0 019.841 9.02l.537-.537a1.26 1.26 0 000-1.78L8.93 5.257a1.26 1.26 0 00-1.78 0L5.994 6.414c-.663.663-.696 1.802-.093 3.209.523 1.22 1.481 2.563 2.697 3.779 1.215 1.215 2.557 2.173 3.779 2.696.668.287 1.275.43 1.8.43.581 0 1.06-.175 1.408-.523l1.157-1.157a1.25 1.25 0 00.37-.89c0-.336-.132-.652-.37-.89l-1.446-1.447zm-.623 3.472c-.19.189-.771.255-1.788-.18-1.074-.46-2.272-1.322-3.375-2.424-1.102-1.102-1.963-2.3-2.423-3.375-.436-1.017-.37-1.599-.18-1.788L8.04 6.191l1.402 1.402-.672.672a.985.985 0 00-.182 1.147 9.103 9.103 0 003.998 3.998.985.985 0 001.147-.182l.672-.672 1.402 1.402-1.135 1.135z"/></g><defs><clipPath id="clip0"><path fill="#fff" d="M0 0h22v22H0z"/></clipPath></defs></svg>