<?xml version="1.0" encoding="utf-8"?>
<!-- Generator: Adobe Illustrator 24.0.2, SVG Export Plug-In . SVG Version: 6.00 Build 0)  -->
<svg version="1.1" id="Слой_1" xmlns="http://www.w3.org/2000/svg" xmlns:xlink="http://www.w3.org/1999/xlink" x="0px" y="0px"
	 viewBox="0 0 237.9 85.3" style="enable-background:new 0 0 237.9 85.3;" xml:space="preserve">
<style type="text/css">
	.st0{fill:#B2B2B2;}
	.st1{fill:#FFFFFF;}
</style>
<g>
	<path class="st0" d="M232.4,69.8c0,5.6-4.5,10.1-10.1,10.1H14.1C8.5,79.9,4,75.4,4,69.8V15.3C4,9.8,8.5,5.2,14.1,5.2h208.2
		c5.6,0,10.1,4.5,10.1,10.1V69.8z"/>
	<path class="st1" d="M43.5,18H24.9c-2.2,0-4,1.8-4,4v41.2c0,2.2,1.8,4,4,4h18.6c2.2,0,4-1.8,4-4V22C47.5,19.8,45.7,18,43.5,18z
		 M34.2,64.3c-1.5,0-2.7-1.2-2.7-2.7c0-1.5,1.2-2.7,2.7-2.7c1.5,0,2.7,1.2,2.7,2.7C36.8,63.1,35.6,64.3,34.2,64.3z M44.3,57.6H24
		V27.2h20.3V57.6z"/>
	<g>
		<path class="st1" d="M62.7,25.4l-1.1,3.4h-1.5l3.7-10.9h1.7l3.7,10.9h-1.5l-1.2-3.4H62.7z M66.3,24.3l-1.1-3.1
			c-0.2-0.7-0.4-1.4-0.5-2h0c-0.1,0.6-0.3,1.3-0.5,2L63,24.3H66.3z"/>
		<path class="st1" d="M70.7,21l1.5,4.4c0.3,0.7,0.5,1.4,0.6,2h0c0.2-0.6,0.4-1.3,0.7-2l1.5-4.4h1.5l-3.1,7.8h-1.4l-3-7.8H70.7z"/>
		<path class="st1" d="M83.1,26.9c0,0.7,0,1.3,0.1,1.9H82l-0.1-1h0c-0.4,0.6-1.3,1.2-2.4,1.2c-1.6,0-2.4-1.1-2.4-2.2
			c0-1.9,1.7-2.9,4.7-2.9v-0.2c0-0.6-0.2-1.8-1.8-1.8c-0.7,0-1.5,0.2-2.1,0.6l-0.3-1c0.6-0.4,1.6-0.7,2.6-0.7c2.4,0,3,1.6,3,3.2
			V26.9z M81.7,24.8c-1.6,0-3.3,0.2-3.3,1.8c0,0.9,0.6,1.4,1.3,1.4c1,0,1.7-0.6,1.9-1.3c0-0.1,0.1-0.3,0.1-0.5V24.8z"/>
		<path class="st1" d="M86,19.5c-0.5,0-0.9-0.4-0.9-0.9c0-0.5,0.4-0.9,0.9-0.9c0.6,0,0.9,0.4,0.9,0.9C86.9,19.1,86.6,19.5,86,19.5
			L86,19.5z M85.3,28.8V21h1.4v7.8H85.3z"/>
		<path class="st1" d="M89,17.3h1.4v11.5H89V17.3z"/>
		<path class="st1" d="M98.2,26.9c0,0.7,0,1.3,0.1,1.9h-1.3l-0.1-1h0c-0.4,0.6-1.3,1.2-2.4,1.2c-1.6,0-2.4-1.1-2.4-2.2
			c0-1.9,1.7-2.9,4.7-2.9v-0.2c0-0.6-0.2-1.8-1.8-1.8c-0.7,0-1.5,0.2-2,0.6l-0.3-1c0.6-0.4,1.6-0.7,2.6-0.7c2.4,0,3,1.6,3,3.2V26.9z
			 M96.8,24.8c-1.6,0-3.3,0.2-3.3,1.8c0,0.9,0.6,1.4,1.3,1.4c1,0,1.7-0.6,1.9-1.3c0-0.1,0.1-0.3,0.1-0.5V24.8z"/>
		<path class="st1" d="M100.4,17.3h1.4v4.9h0c0.5-0.9,1.4-1.4,2.7-1.4c1.9,0,3.3,1.6,3.3,4c0,2.8-1.8,4.2-3.5,4.2
			c-1.1,0-2-0.4-2.6-1.5h0l-0.1,1.3h-1.2c0-0.5,0.1-1.3,0.1-2V17.3z M101.9,25.6c0,0.2,0,0.4,0.1,0.5c0.3,1,1.1,1.7,2.1,1.7
			c1.5,0,2.4-1.2,2.4-3c0-1.6-0.8-2.9-2.3-2.9c-1,0-1.9,0.7-2.1,1.7c0,0.2-0.1,0.4-0.1,0.6V25.6z"/>
		<path class="st1" d="M109.5,17.3h1.4v11.5h-1.4V17.3z"/>
		<path class="st1" d="M114,25.1c0,1.9,1.2,2.7,2.7,2.7c1,0,1.6-0.2,2.2-0.4l0.3,1c-0.5,0.2-1.4,0.5-2.6,0.5c-2.4,0-3.8-1.6-3.8-3.9
			c0-2.4,1.4-4.2,3.7-4.2c2.5,0,3.2,2.2,3.2,3.7c0,0.3,0,0.5,0,0.7L114,25.1z M118.2,24.1c0-0.9-0.4-2.3-2-2.3
			c-1.5,0-2.1,1.3-2.2,2.3H118.2z"/>
		<path class="st1" d="M127.8,29c-2.1,0-3.7-1.6-3.7-4c0-2.6,1.7-4.2,3.9-4.2c2.2,0,3.8,1.6,3.8,4C131.7,27.7,129.6,29,127.8,29
			L127.8,29z M127.8,27.9c1.4,0,2.4-1.3,2.4-3.1c0-1.3-0.7-3-2.3-3c-1.7,0-2.4,1.6-2.4,3C125.5,26.6,126.4,27.9,127.8,27.9
			L127.8,27.9z"/>
		<path class="st1" d="M133.4,23.1c0-0.8,0-1.5-0.1-2.1h1.3l0.1,1.3h0c0.4-0.7,1.3-1.5,2.6-1.5c1.1,0,2.8,0.6,2.8,3.3v4.7h-1.4v-4.5
			c0-1.3-0.5-2.3-1.8-2.3c-0.9,0-1.6,0.7-1.9,1.5c-0.1,0.2-0.1,0.4-0.1,0.7v4.7h-1.4V23.1z"/>
		<path class="st1" d="M147.3,19.1V21h2V22h-2v4.2c0,1,0.3,1.5,1.1,1.5c0.4,0,0.6,0,0.8-0.1l0.1,1.1c-0.3,0.1-0.7,0.2-1.3,0.2
			c-0.7,0-1.2-0.2-1.5-0.6c-0.4-0.4-0.5-1.1-0.5-2.1V22h-1.2V21h1.2v-1.4L147.3,19.1z"/>
		<path class="st1" d="M150.9,17.3h1.4v4.9h0c0.2-0.4,0.6-0.8,1-1c0.4-0.3,0.9-0.4,1.5-0.4c1,0,2.7,0.6,2.7,3.3v4.7h-1.4v-4.5
			c0-1.3-0.5-2.3-1.8-2.3c-0.9,0-1.6,0.6-1.9,1.4c-0.1,0.2-0.1,0.4-0.1,0.7v4.7h-1.4V17.3z"/>
		<path class="st1" d="M160.6,25.1c0,1.9,1.2,2.7,2.7,2.7c1,0,1.6-0.2,2.2-0.4l0.3,1c-0.5,0.2-1.4,0.5-2.6,0.5
			c-2.4,0-3.8-1.6-3.8-3.9c0-2.4,1.4-4.2,3.7-4.2c2.6,0,3.2,2.2,3.2,3.7c0,0.3,0,0.5,0,0.7L160.6,25.1z M164.7,24.1
			c0-0.9-0.4-2.3-2-2.3c-1.5,0-2.1,1.3-2.2,2.3H164.7z"/>
		<path class="st1" d="M171.8,19.5c-0.5,0-0.9-0.4-0.9-0.9c0-0.5,0.4-0.9,0.9-0.9c0.5,0,0.9,0.4,0.9,0.9
			C172.7,19.1,172.4,19.5,171.8,19.5L171.8,19.5z M171.1,28.8V21h1.4v7.8H171.1z"/>
		<path class="st1" d="M174.9,18c0.7-0.1,1.6-0.2,2.7-0.2c1.4,0,2.4,0.3,3.1,0.9c0.6,0.5,1,1.3,1,2.3c0,1-0.3,1.8-0.9,2.3
			c-0.7,0.8-2,1.2-3.3,1.2c-0.4,0-0.8,0-1.1-0.1v4.4h-1.4V18z M176.3,23.3c0.3,0.1,0.7,0.1,1.2,0.1c1.7,0,2.7-0.8,2.7-2.3
			c0-1.5-1-2.1-2.6-2.1c-0.6,0-1.1,0.1-1.3,0.1V23.3z"/>
		<path class="st1" d="M183.2,17.3h1.4v4.9h0c0.2-0.4,0.6-0.8,1-1c0.4-0.3,0.9-0.4,1.5-0.4c1,0,2.7,0.6,2.7,3.3v4.7h-1.4v-4.5
			c0-1.3-0.5-2.3-1.8-2.3c-0.9,0-1.6,0.6-1.9,1.4c-0.1,0.2-0.1,0.4-0.1,0.7v4.7h-1.4V17.3z"/>
		<path class="st1" d="M195.3,29c-2.1,0-3.7-1.6-3.7-4c0-2.6,1.7-4.2,3.9-4.2c2.2,0,3.8,1.6,3.8,4C199.2,27.7,197.2,29,195.3,29
			L195.3,29z M195.4,27.9c1.4,0,2.4-1.3,2.4-3.1c0-1.3-0.7-3-2.3-3c-1.7,0-2.4,1.6-2.4,3C193,26.6,194,27.9,195.4,27.9L195.4,27.9z"
			/>
		<path class="st1" d="M200.9,23.1c0-0.8,0-1.5-0.1-2.1h1.3l0.1,1.3h0c0.4-0.7,1.3-1.5,2.6-1.5c1.1,0,2.8,0.6,2.8,3.3v4.7h-1.4v-4.5
			c0-1.3-0.5-2.3-1.8-2.3c-0.9,0-1.6,0.7-1.9,1.5c-0.1,0.2-0.1,0.4-0.1,0.7v4.7h-1.4V23.1z"/>
		<path class="st1" d="M210.6,25.1c0,1.9,1.2,2.7,2.7,2.7c1,0,1.6-0.2,2.2-0.4l0.3,1c-0.5,0.2-1.4,0.5-2.6,0.5
			c-2.4,0-3.8-1.6-3.8-3.9c0-2.4,1.4-4.2,3.7-4.2c2.6,0,3.2,2.2,3.2,3.7c0,0.3,0,0.5,0,0.7L210.6,25.1z M214.8,24.1
			c0-0.9-0.4-2.3-2-2.3c-1.5,0-2.1,1.3-2.2,2.3H214.8z"/>
	</g>
	<g>
		<path class="st1" d="M69.4,36.2l-9.6,28.2h4.4l2.9-8.7h9.3l2.9,8.7h4.5l-9.6-28.2H69.4z M71.7,40.8c0.3,1.3,0.7,2.6,1.1,4l2.6,7.5
			h-7.3l2.5-7.5C71,43.5,71.4,42.2,71.7,40.8z"/>
		<path class="st1" d="M96.2,43.5c-2.9,0-5.2,1.1-6.8,3.3l-0.2-2.8h-3.9l0,0.4c0.1,1.7,0.2,3.7,0.2,6.4v21.7h4.3V62.3
			c1.3,1.6,3.4,2.5,5.8,2.5c2.5,0,4.8-1,6.5-2.7c1.9-2,2.9-4.8,2.9-8.2c0-3-0.9-5.6-2.5-7.5C100.9,44.5,98.7,43.5,96.2,43.5z
			 M95.1,47c3.8,0,5.5,3.5,5.5,7c0,4.5-2.2,7.3-5.7,7.3c-2.4,0-4.5-1.6-5-4c-0.1-0.4-0.2-0.8-0.2-1.4v-3.4c0-0.3,0.1-0.7,0.1-1.1
			c0-0.1,0-0.2,0.1-0.3C90.6,48.7,92.8,47,95.1,47z"/>
		<path class="st1" d="M118.2,43.5c-2.9,0-5.2,1.1-6.8,3.3l-0.2-2.8h-3.9l0,0.4c0.1,1.7,0.2,3.7,0.2,6.4v21.7h4.3V62.3
			c1.3,1.6,3.4,2.5,5.8,2.5c2.5,0,4.8-1,6.5-2.7c1.9-2,2.9-4.8,2.9-8.2c0-3-0.9-5.6-2.5-7.5C122.9,44.5,120.6,43.5,118.2,43.5z
			 M117.1,47c3.8,0,5.5,3.5,5.5,7c0,4.5-2.2,7.3-5.7,7.3c-2.4,0-4.5-1.6-5-4c-0.1-0.4-0.1-0.8-0.1-1.4v-3.4c0-0.3,0.1-0.7,0.1-1.1
			c0-0.1,0-0.2,0.1-0.3C112.6,48.7,114.7,47,117.1,47z"/>
		<path class="st1" d="M145.7,48.1c-4-1.5-5.3-2.8-5.3-5c0-1.9,1.5-3.8,4.8-3.8c2.8,0,4.5,1,5,1.3l0.4,0.2l1.2-3.6l-0.2-0.1
			c-0.7-0.4-2.8-1.4-6.2-1.4c-5.4,0-9.2,3.2-9.2,7.8c0,3.7,2.4,6.3,7.5,8.2c3.6,1.4,5,2.7,5,5.1c0,2.7-2.1,4.4-5.4,4.4
			c-2.2,0-4.4-0.6-6.1-1.7l-0.4-0.2l-1.1,3.6l0.2,0.1c1.6,1.1,4.6,1.9,7.2,1.9c7.3,0,9.9-4.5,9.9-8.3
			C152.9,52.6,150.8,50.1,145.7,48.1z"/>
		<path class="st1" d="M160.6,39.1l-4.2,1.3v3.5h-3.1v3.4h3.1v10.4c0,2.5,0.5,4.3,1.5,5.4c1,1,2.4,1.6,4.1,1.6
			c1.6,0,2.8-0.3,3.3-0.5l0.2-0.1l-0.2-3.4l-0.4,0.1c-0.5,0.2-1.1,0.2-2,0.2c-1.7,0-2.4-1-2.4-3.5V47.3h5.1v-3.4h-5.1V39.1z"/>
		<path class="st1" d="M176.3,43.5c-6,0-10.1,4.5-10.1,10.8c0,6.2,4,10.5,9.8,10.5h0c4.9,0,10.1-3.4,10.1-10.9c0-3-0.9-5.6-2.7-7.5
			C181.6,44.5,179.2,43.5,176.3,43.5z M176.2,46.8c3.8,0,5.6,3.7,5.6,7.2c0,4.3-2.4,7.4-5.7,7.4h0c-3.2,0-5.6-3.1-5.6-7.3
			C170.4,50.5,172.2,46.8,176.2,46.8z"/>
		<path class="st1" d="M199.2,43.7l-0.3-0.1c-0.4-0.1-0.7-0.1-1.1-0.1c-2.2,0-4.2,1.3-5.3,3.4l-0.1-3h-3.8l0,0.4
			c0.1,1.7,0.2,3.6,0.2,6.1l0,13.9h4.3V53.5c0-0.6,0-1.2,0.1-1.7c0.5-2.6,2.2-4.3,4.5-4.3c0.4,0,0.8,0,1.1,0.1l0.5,0V43.7z"/>
		<path class="st1" d="M208.8,43.4c-5.7,0-9.6,4.5-9.6,11c0,6.3,3.9,10.3,10.1,10.3c3.2,0,5.4-0.7,6.8-1.3l0.3-0.1l-0.8-3.2
			l-0.4,0.1c-1.2,0.5-2.7,1-5.3,1c-1.9,0-6.1-0.6-6.4-6.2l13.8,0l0.1-0.3c0.1-0.4,0.1-1,0.1-1.8C217.2,48.6,215,43.4,208.8,43.4z
			 M208.5,46.7c1.3,0,2.4,0.4,3.1,1.2c1.2,1.2,1.4,3.1,1.5,4h-9.7C203.8,49.4,205.3,46.7,208.5,46.7z"/>
	</g>
</g>
</svg>
