<?xml version="1.0" encoding="utf-8"?>
<!-- Generator: Adobe Illustrator 24.0.2, SVG Export Plug-In . SVG Version: 6.00 Build 0)  -->
<svg version="1.1" id="Слой_1" xmlns="http://www.w3.org/2000/svg" xmlns:xlink="http://www.w3.org/1999/xlink" x="0px" y="0px"
	 viewBox="0 0 116.2 116.2" style="enable-background:new 0 0 116.2 116.2;" xml:space="preserve">
<style type="text/css">
	.st0{fill-rule:evenodd;clip-rule:evenodd;}
	.st1{fill:#DADADA;}
	.st2{fill-rule:evenodd;clip-rule:evenodd;fill:#FFFFFF;}
</style>
<circle class="st0" cx="60.9" cy="57.7" r="16.7"/>
<g>
	<path class="st1" d="M60.9,40.5c4.7,0,9.1,1.9,12.2,5c3.1,3.1,5,7.4,5,12.2c0,4.8-1.9,9.1-5,12.2c-3.1,3.1-7.4,5-12.2,5
		c-4.8,0-9.1-1.9-12.2-5c-3.1-3.1-5-7.4-5-12.2c0-4.8,1.9-9.1,5-12.2C51.8,42.5,56.1,40.5,60.9,40.5L60.9,40.5z M72.1,46.5
		c-2.9-2.9-6.8-4.7-11.2-4.7c-4.4,0-8.4,1.8-11.2,4.7c-2.9,2.9-4.6,6.8-4.6,11.2c0,4.4,1.8,8.3,4.6,11.2c2.9,2.9,6.8,4.6,11.2,4.6
		c4.4,0,8.3-1.8,11.2-4.6c2.9-2.9,4.7-6.8,4.7-11.2C76.7,53.4,74.9,49.4,72.1,46.5L72.1,46.5z"/>
	<path class="st2" d="M65.6,58.3c0-0.7,0.2-1.3,0.4-1.8c0.5-1,1.4-1.5,1.4-1.6c-1-1.5-2.6-1.7-3.2-1.8C62.9,53.1,61.6,54,61,54
		c-0.7,0-1.7-0.8-2.9-0.8c-1.5,0-2.8,0.9-3.6,2.2c-0.2,0.4-0.4,0.9-0.5,1.3c-0.6,2.5,0.4,5.7,1.6,7.5c0.7,1.1,1.6,2.3,2.7,2.2
		c1.1,0,1.5-0.7,2.8-0.7c1.3,0,1.7,0.7,2.8,0.7c1.2,0,1.9-1.1,2.6-2.1c0.8-1.2,1.2-2.4,1.2-2.5C67.9,61.8,65.6,60.9,65.6,58.3
		L65.6,58.3z M63.4,51.7c0.6-0.7,1-1.8,0.9-2.8c-0.9,0-1.9,0.6-2.6,1.3c-0.6,0.7-1,1.7-0.9,2.7C61.8,53.1,62.8,52.5,63.4,51.7
		L63.4,51.7z"/>
</g>
</svg>
