<?xml version="1.0" encoding="utf-8"?>
<!-- Generator: Adobe Illustrator 24.0.2, SVG Export Plug-In . SVG Version: 6.00 Build 0)  -->
<svg version="1.1" id="Layer_1" xmlns="http://www.w3.org/2000/svg" xmlns:xlink="http://www.w3.org/1999/xlink" x="0px" y="0px"
	 viewBox="0 0 32.5 32.5" style="enable-background:new 0 0 32.5 32.5;" xml:space="preserve">
<style type="text/css">
	.st0{fill:#FFFFFF;}
	.st1{fill:#E30613;}
</style>
<g>
	<g>
		<g>
			<path class="st0" d="M0.7,16.2c0-8.6,7-15.5,15.5-15.5l0,0c8.6,0,15.5,7,15.5,15.5l0,0c0,8.6-7,15.5-15.5,15.5l0,0
				C7.7,31.8,0.7,24.8,0.7,16.2L0.7,16.2z M16.2,31.2c8.2,0,14.9-6.7,14.9-14.9l0,0c0-8.2-6.7-14.9-14.9-14.9l0,0
				C8,1.3,1.3,8,1.3,16.2l0,0C1.3,24.5,8,31.1,16.2,31.2L16.2,31.2z"/>
			<path class="st0" d="M0,16.2C0,7.3,7.3,0,16.2,0l0,0c9,0,16.2,7.3,16.2,16.2l0,0c0,9-7.3,16.2-16.2,16.2l0,0
				C7.3,32.5,0,25.2,0,16.2L0,16.2z M2,16.2c0,7.9,6.4,14.2,14.2,14.2l0,0c7.9,0,14.2-6.4,14.2-14.2l0,0C30.4,8.4,24.1,2,16.2,2l0,0
				C8.4,2,2,8.4,2,16.2L2,16.2z"/>
		</g>
	</g>
	<g>
		<path class="st1" d="M11.9,14.5L17,9.4c0.9-0.9,2.5-0.9,3.4,0s0.9,2.5,0,3.4L17,16.2l3.4,3.4c0.9,0.9,0.9,2.5,0,3.4
			C19.5,24,17.9,24,17,23l-5.1-5.1C11,17,11,15.5,11.9,14.5z"/>
	</g>
</g>
</svg>
