<?xml version="1.0" encoding="utf-8"?>
<!-- Generator: Adobe Illustrator 13.0.0, SVG Export Plug-In . SVG Version: 6.00 Build 14948)  -->
<!DOCTYPE svg PUBLIC "-//W3C//DTD SVG 1.1//EN" "http://www.w3.org/Graphics/SVG/1.1/DTD/svg11.dtd">
<svg version="1.1" id="Layer_1" xmlns="http://www.w3.org/2000/svg" xmlns:xlink="http://www.w3.org/1999/xlink" x="0px" y="0px"
	 width="30.989px" height="8.682px" viewBox="14.278 4 30.989 8.682" enable-background="new 14.278 4 30.989 8.682"
	 xml:space="preserve">
<g>
	<g>
		<g>
			<g>
				<path fill="#231F20" d="M45.267,10.075c0-0.56-0.153-0.995-0.458-1.307c-0.307-0.311-0.734-0.467-1.283-0.467
					c-0.636,0-1.15,0.206-1.548,0.618c-0.396,0.411-0.596,0.947-0.596,1.61c0,0.622,0.18,1.126,0.536,1.514
					c0.025,0.026,0.051,0.052,0.076,0.076c-0.293,0.082-0.73,0.147-1.333,0.009c-0.022-0.161-0.037-0.331-0.047-0.509
					c-0.008-0.179-0.012-0.372-0.012-0.581V9.804c0-0.56-0.08-0.946-0.242-1.161c-0.161-0.214-0.438-0.321-0.835-0.321
					c-0.183,0-0.429,0.057-0.74,0.17c-0.31,0.113-0.748,0.31-1.315,0.592V8.497c0-0.083-0.01-0.147-0.032-0.19
					c-0.023-0.043-0.053-0.064-0.09-0.064c-0.019,0-0.132,0.044-0.34,0.132c-0.207,0.088-0.417,0.157-0.629,0.206
					C36.346,8.587,36.073,8.652,35.7,8.66c0.006-0.098,0.01-0.194,0.01-0.293c0-0.628-0.11-1.206-0.332-1.734
					c-0.222-0.527-0.542-0.981-0.963-1.361c-0.386-0.349-0.821-0.612-1.305-0.788c-0.483-0.177-1.011-0.265-1.585-0.265
					c-0.758,0-1.463,0.181-2.115,0.541c-0.653,0.36-1.158,0.848-1.514,1.46c-0.212,0.365-0.371,0.741-0.475,1.129
					c-0.104,0.389-0.156,0.796-0.156,1.225c0,0.587,0.098,1.127,0.293,1.619c0.195,0.492,0.482,0.927,0.862,1.302
					c0.405,0.395,0.858,0.691,1.357,0.89c0.5,0.199,1.042,0.298,1.626,0.298c0.684,0,1.309-0.128,1.873-0.384
					c0.565-0.257,1.05-0.631,1.451-1.121c0.323-0.394,0.568-0.826,0.732-1.299c0.078-0.226,0.139-0.457,0.179-0.696
					c0.644-0.033,1.037-0.335,1.037-0.335c0.021,0.13,0.035,0.269,0.046,0.414c0.01,0.146,0.014,0.296,0.014,0.447v1.33
					c0,0.202-0.003,0.39-0.009,0.566c-0.008,0.178-0.018,0.352-0.031,0.523c-0.364,0.059-0.606,0.109-0.729,0.15
					c-0.122,0.04-0.183,0.09-0.183,0.145c0,0.038,0.014,0.063,0.041,0.078s0.075,0.022,0.141,0.022c0.019,0,0.155-0.011,0.409-0.031
					c0.253-0.018,0.496-0.029,0.729-0.029c0.233,0,0.477,0.012,0.729,0.029c0.253,0.021,0.39,0.031,0.408,0.031
					c0.066,0,0.112-0.008,0.139-0.022s0.04-0.04,0.04-0.078c0-0.055-0.061-0.104-0.179-0.145c-0.117-0.041-0.356-0.092-0.714-0.15
					c-0.021-0.202-0.037-0.393-0.046-0.573s-0.014-0.353-0.014-0.517V9.334c0.312-0.173,0.597-0.302,0.856-0.388
					c0.259-0.086,0.488-0.13,0.692-0.13c0.3,0,0.516,0.087,0.649,0.261c0.134,0.175,0.2,0.461,0.2,0.86v1.1
					c0,0.165-0.005,0.336-0.014,0.514c-0.011,0.179-0.025,0.369-0.046,0.57c-0.355,0.063-0.594,0.116-0.712,0.157
					c-0.12,0.039-0.18,0.089-0.18,0.145c0,0.037,0.013,0.063,0.042,0.077c0.027,0.015,0.074,0.023,0.141,0.023
					c0.02,0,0.154-0.011,0.408-0.031c0.253-0.019,0.496-0.029,0.729-0.029c0.232,0,0.477,0.015,0.73,0.029
					c0.503,0.031,0.991-0.099,1.259-0.185c0.305,0.209,0.668,0.314,1.091,0.314c0.312,0,0.603-0.068,0.87-0.202
					c0.27-0.135,0.512-0.333,0.728-0.595c0.088-0.107,0.16-0.214,0.213-0.318c0.055-0.104,0.081-0.186,0.081-0.241
					c0-0.026-0.007-0.048-0.021-0.063c-0.016-0.018-0.034-0.026-0.056-0.026c-0.037,0-0.103,0.062-0.194,0.185
					c-0.074,0.098-0.139,0.175-0.194,0.235c-0.131,0.156-0.282,0.274-0.453,0.353c-0.173,0.079-0.359,0.118-0.56,0.118
					c-0.472,0-0.854-0.171-1.151-0.513s-0.444-0.785-0.444-1.331h3.131v-0.147H45.267z M34.779,10.591
					c-0.224,0.415-0.552,0.774-0.982,1.08c-0.259,0.175-0.537,0.308-0.836,0.398c-0.299,0.092-0.609,0.137-0.932,0.137
					c-0.549,0-1.092-0.142-1.628-0.426c-0.535-0.285-1.019-0.688-1.449-1.209c-0.349-0.428-0.618-0.883-0.806-1.366
					c-0.189-0.485-0.284-0.959-0.284-1.424c0-0.893,0.288-1.624,0.865-2.193c0.576-0.569,1.322-0.854,2.234-0.854
					c0.582,0,1.146,0.142,1.691,0.426c0.545,0.285,1.024,0.689,1.441,1.214c0.333,0.432,0.587,0.888,0.761,1.37
					c0.104,0.286,0.175,0.575,0.218,0.869c-0.281-0.052-0.576-0.149-0.845-0.326c-0.17-0.111-0.043,0.223-0.043,0.298
					c0,0.033,0.011,0.057,0.031,0.074c0.021,0.015,0.176,0.276,0.56,0.401c0.118,0.038,0.23,0.065,0.34,0.085
					c0.001,0.024,0.001,0.049,0.001,0.075C35.115,9.718,35.004,10.176,34.779,10.591z M43.722,9.964
					c-0.267,0.015-0.568,0.022-0.904,0.022h-0.671c0.03-0.461,0.152-0.82,0.369-1.079c0.216-0.258,0.502-0.388,0.856-0.388
					c0.329,0,0.592,0.124,0.789,0.371c0.195,0.247,0.293,0.58,0.293,1.001C44.233,9.925,43.988,9.949,43.722,9.964z"/>
			</g>
			<g>
				<path fill="#231F20" d="M23.645,8.857h0.559c0.307,0,0.527,0.005,0.659,0.015s0.542,0.025,0.644,0.045V8.479
					c-0.121,0.032-0.551,0.054-0.707,0.066c-0.155,0.013-0.354,0.02-0.596,0.02l-0.559-0.005c0.004-0.338,0.016-0.704,0.036-1.098
					c0.02-0.394,0.051-0.658,0.087-1.197l-0.839-0.203c0,0.015,0,0.038,0,0.067c0.015,1.094,0.023,1.904,0.023,2.431h-0.266
					c-0.178,0-0.322-0.005-0.433-0.018c-0.11-0.012-0.208-0.033-0.293-0.062v0.437c0.07-0.02,0.154-0.034,0.249-0.045
					c0.097-0.01,0.255-0.014,0.477-0.014h0.243l-0.076,2.121v0.218c0,0.057,0,0.112,0.002,0.166c0,0.002-0.001,0.004-0.002,0.007
					c0.017,0.959-0.543,0.845-0.962,0.789c-0.081-0.011-0.111-0.053-0.123-0.074c-0.13-0.237-0.262-0.5-0.397-0.789
					c-0.146-0.314-0.306-0.684-0.481-1.109L19.57,7.05c-0.293-0.695-0.531-1.292-0.713-1.792c-0.182-0.5-0.314-0.92-0.395-1.258
					l-1.155,0.403c0.199,0.085,0.237,0.109,0.498,0.555c0.097,0.201,0.205,0.441,0.329,0.72l-1.76,4.295
					c-0.191,0.459-0.367,0.862-0.527,1.212c-0.161,0.351-0.317,0.671-0.47,0.961c-0.423,0.045-0.713,0.089-0.867,0.132
					c-0.154,0.042-0.231,0.098-0.231,0.164c0.004,0.041,0.018,0.068,0.04,0.081s0.067,0.02,0.133,0.02
					c0.031,0,0.204-0.015,0.521-0.044c0.317-0.031,0.619-0.045,0.905-0.045c0.253,0,0.526,0.014,0.823,0.045
					c0.295,0.029,0.467,0.044,0.516,0.044c0.066,0,0.113-0.008,0.14-0.021c0.026-0.016,0.039-0.042,0.039-0.079
					c0-0.074-0.101-0.135-0.302-0.181c-0.202-0.047-0.54-0.085-1.013-0.116c0.088-0.379,0.173-0.708,0.253-0.987
					s0.155-0.51,0.226-0.693l0.217-0.598h3.08l0.272,0.654c0.007,0.018,0.017,0.042,0.028,0.073c0.26,0.654,0.436,1.173,0.529,1.552
					c-0.505,0.037-0.852,0.079-1.039,0.123c-0.188,0.045-0.281,0.103-0.281,0.173c0,0.037,0.012,0.063,0.039,0.079
					c0.026,0.014,0.073,0.021,0.139,0.021c0.037,0,0.122-0.006,0.257-0.017c0.471-0.048,0.907-0.072,1.308-0.072
					c0.325,0,1.557,0.013,2.155,0.02c0.146,0.098,0.335,0.148,0.57,0.148c0.33,0,0.719-0.027,1.093-0.298
					c0.5-0.351,0.53-0.613,0.509-0.634c-0.021-0.02-0.045-0.03-0.075-0.03c-0.011,0-0.12,0.072-0.327,0.218
					c-0.206,0.146-0.418,0.218-0.636,0.218c-0.247,0-0.557-0.15-0.66-0.314c-0.103-0.163-0.155-0.46-0.155-0.888v-0.189
					L23.645,8.857z M16.86,9.432l1.404-3.574l1.469,3.574H16.86z"/>
			</g>
		</g>
	</g>
</g>
</svg>
