<?xml version="1.0" encoding="utf-8"?>
<!-- Generator: Adobe Illustrator 24.0.2, SVG Export Plug-In . SVG Version: 6.00 Build 0)  -->
<svg version="1.1" id="Слой_1" xmlns="http://www.w3.org/2000/svg" xmlns:xlink="http://www.w3.org/1999/xlink" x="0px" y="0px"
	 viewBox="0 0 116.2 116.2" style="enable-background:new 0 0 116.2 116.2;" xml:space="preserve">
<style type="text/css">
	.st0{fill-rule:evenodd;clip-rule:evenodd;fill:#345AA0;}
	.st1{fill:#DADADA;}
	.st2{fill-rule:evenodd;clip-rule:evenodd;fill:#FFFFFF;}
</style>
<circle class="st0" cx="56.6" cy="58.2" r="16.7"/>
<g>
	<path class="st1" d="M56.8,41c4.8,0,9.1,1.9,12.2,5c3.1,3.1,5,7.4,5,12.2c0,4.8-1.9,9.1-5,12.2c-3.1,3.1-7.4,5-12.2,5
		s-9.1-1.9-12.2-5c-3.1-3.1-5-7.4-5-12.2c0-4.8,1.9-9.1,5-12.2C47.7,43,52,41,56.8,41L56.8,41z M68,47c-2.9-2.9-6.8-4.6-11.2-4.6
		c-4.4,0-8.3,1.8-11.2,4.6c-2.9,2.9-4.6,6.8-4.6,11.2c0,4.4,1.8,8.3,4.6,11.2c2.9,2.9,6.8,4.6,11.2,4.6c4.4,0,8.3-1.8,11.2-4.6
		c2.9-2.9,4.6-6.8,4.6-11.2C72.7,53.9,70.9,49.9,68,47L68,47z"/>
	<path class="st2" d="M58.1,54.7v-1.4c0-0.7,0.4-0.8,0.8-0.8c0.3,0,2,0,2,0v-3h-2.7c-3,0-3.7,2.2-3.7,3.7v1.6h-1.8v2.1v1.4h1.8
		c0,4,0,8.8,0,8.8H58c0,0,0-4.9,0-8.8h2.6l0.1-1.4l0.2-2.1H58.1z"/>
</g>
</svg>
