<?xml version="1.0" encoding="utf-8"?>
<!-- Generator: Adobe Illustrator 24.0.2, SVG Export Plug-In . SVG Version: 6.00 Build 0)  -->
<svg version="1.1" id="Слой_1" xmlns="http://www.w3.org/2000/svg" xmlns:xlink="http://www.w3.org/1999/xlink" x="0px" y="0px"
	 viewBox="0 0 116.2 116.2" style="enable-background:new 0 0 116.2 116.2;" xml:space="preserve">
<style type="text/css">
	.st0{fill-rule:evenodd;clip-rule:evenodd;fill:#E73730;}
	.st1{fill:#DADADA;}
	.st2{fill-rule:evenodd;clip-rule:evenodd;fill:#F6F6F6;}
</style>
<g>
	<circle class="st0" cx="60" cy="55" r="16.7"/>
	<g>
		<path class="st1" d="M60.2,37.9c4.8,0,9.1,1.9,12.2,5c3.1,3.1,5,7.4,5,12.2c0,4.8-1.9,9.1-5,12.2c-3.1,3.1-7.4,5-12.2,5
			c-4.8,0-9.1-1.9-12.2-5c-3.1-3.1-5-7.4-5-12.2c0-4.8,1.9-9.1,5-12.2C51.1,39.8,55.4,37.9,60.2,37.9L60.2,37.9z M71.4,43.8
			c-2.9-2.9-6.8-4.6-11.2-4.6s-8.3,1.8-11.2,4.6c-2.9,2.9-4.6,6.8-4.6,11.2c0,4.4,1.8,8.3,4.6,11.2c2.9,2.9,6.8,4.6,11.2,4.6
			s8.3-1.8,11.2-4.6c2.9-2.9,4.6-6.8,4.6-11.2C76,50.7,74.3,46.7,71.4,43.8L71.4,43.8z"/>
		<path class="st2" d="M62.1,53.8c-1.4,0-2.7,0-4.1,0c-0.4,0-0.8,0-1.2,0c-0.1,0-0.2,0.1-0.2,0.1c0,0.8,0,1.6,0,2.4
			c1.1,0,2.2,0,3.4,0c0,0.2-0.1,0.3-0.1,0.4c-0.5,1.5-2.1,2.3-3.8,2c-2.1-0.4-3.4-2.3-3-4.4c0-0.3,0.1-0.6,0.2-0.9
			c0.7-1.5,2.4-2.5,4.1-2.1c0.6,0.1,1.1,0.4,1.6,0.8c0.6-0.6,1.2-1.2,1.8-1.8c0,0-0.1-0.1-0.2-0.1c-1.5-1.2-3.2-1.7-5.1-1.4
			c-2.8,0.4-4.7,2.6-5.2,5.1c-0.2,1.1-0.1,2.2,0.3,3.3c1.1,2.7,3.7,4.3,6.6,4c1.4-0.2,2.7-0.7,3.6-1.7c1.5-1.5,1.8-3.4,1.6-5.5
			C62.5,53.8,62.4,53.8,62.1,53.8L62.1,53.8z M68.3,54c-0.1,0-0.3,0-0.4,0c0,0,0-0.1,0-0.1c0-0.1,0-0.2,0-0.3c0-0.5,0-1.1,0-1.6
			c0-0.1-0.1-0.2-0.1-0.2c-0.5,0-1,0-1.5,0c0,0.6,0,1.2,0,1.8c0,0.1,0,0.2,0,0.4c-0.8,0-1.5,0-2.2,0c0,0.2,0,0.3,0,0.4
			c0,0.4,0,0.8,0.1,1.2c0.4,0,0.8,0,1.2,0c0.3,0,0.7,0,1,0c0,0.8,0,1.5,0,2.2c0.5,0,1.1,0,1.6,0c0-0.7,0-1.4,0-2.2
			c0.7,0,1.4,0,2.2,0c0-0.4,0-0.8,0-1.2c0-0.1,0-0.3,0-0.4C69.5,54,68.9,54,68.3,54L68.3,54z"/>
	</g>
</g>
</svg>
