<?xml version="1.0" encoding="utf-8"?>
<!-- Generator: Adobe Illustrator 24.0.2, SVG Export Plug-In . SVG Version: 6.00 Build 0)  -->
<svg version="1.1" id="Слой_1" xmlns="http://www.w3.org/2000/svg" xmlns:xlink="http://www.w3.org/1999/xlink" x="0px" y="0px"
	 viewBox="0 0 237.9 85.3" style="enable-background:new 0 0 237.9 85.3;" xml:space="preserve">
<style type="text/css">
	.st0{fill:#B2B2B2;}
	.st1{clip-path:url(#SVGID_2_);fill:url(#SVGID_3_);}
	.st2{clip-path:url(#SVGID_2_);fill:url(#SVGID_4_);}
	.st3{clip-path:url(#SVGID_2_);fill:url(#SVGID_5_);}
	.st4{clip-path:url(#SVGID_2_);fill:url(#SVGID_6_);}
	.st5{fill:#F9F9F9;}
	.st6{fill:#FCFCFD;}
</style>
<g>
	<path class="st0" d="M232.9,69.4c0,5.6-4.5,10.1-10.1,10.1H15.3C9.7,79.5,5.2,75,5.2,69.4V15.1C5.2,9.5,9.7,5,15.3,5h207.6
		c5.6,0,10.1,4.5,10.1,10.1V69.4z"/>
	<g id="PLAY">
		<defs>
			<path id="SVGID_1_" d="M54.6,37.6l-10.3-5.9c0,0-18.7-10.8-19.8-11.4c-1.1-0.6-2.2-0.3-2.2,1.1c0,2.2,0,23.1,0,23.1
				s0,22.5,0,23.5c0,1,0.8,1.4,1.7,0.9c1-0.6,20.3-11.7,20.3-11.7l10.3-5.9c0,0,8.7-5,9.9-5.7c1.2-0.7,1-1.6,0.1-2.1
				C63.5,42.8,54.6,37.6,54.6,37.6z"/>
		</defs>
		<clipPath id="SVGID_2_">
			<use xlink:href="#SVGID_1_"  style="overflow:visible;"/>
		</clipPath>
		<linearGradient id="SVGID_3_" gradientUnits="userSpaceOnUse" x1="35.0155" y1="19.1519" x2="35.0155" y2="69.5887">
			<stop  offset="0" style="stop-color:#2079B0"/>
			<stop  offset="0.2863" style="stop-color:#4A93B8"/>
			<stop  offset="0.767" style="stop-color:#83BEBF"/>
			<stop  offset="1" style="stop-color:#97CFBF"/>
		</linearGradient>
		<polygon class="st1" points="22.3,19.2 22.3,44.4 22.3,69.6 47.7,44.4 		"/>
		<linearGradient id="SVGID_4_" gradientUnits="userSpaceOnUse" x1="22.2991" y1="31.6696" x2="54.5631" y2="31.6696">
			<stop  offset="0" style="stop-color:#5ABCAB"/>
			<stop  offset="1" style="stop-color:#E6E99A"/>
		</linearGradient>
		<polygon class="st2" points="54.6,37.6 44.3,31.7 22.3,19 22.3,19.2 47.7,44.4 		"/>
		<linearGradient id="SVGID_5_" gradientUnits="userSpaceOnUse" x1="38.4309" y1="44.3707" x2="38.4309" y2="69.7717">
			<stop  offset="0" style="stop-color:#E53432"/>
			<stop  offset="0.1668" style="stop-color:#D73948"/>
			<stop  offset="0.5748" style="stop-color:#B33F72"/>
			<stop  offset="0.8619" style="stop-color:#9A4189"/>
			<stop  offset="1" style="stop-color:#904192"/>
		</linearGradient>
		<polygon class="st3" points="22.3,69.6 22.3,69.8 44.3,57.1 54.6,51.1 47.7,44.4 		"/>
		<linearGradient id="SVGID_6_" gradientUnits="userSpaceOnUse" x1="57.0137" y1="37.597" x2="57.0137" y2="51.1436">
			<stop  offset="0" style="stop-color:#F18779"/>
			<stop  offset="0.1194" style="stop-color:#F2917A"/>
			<stop  offset="0.7128" style="stop-color:#FABC77"/>
			<stop  offset="1" style="stop-color:#FDCB73"/>
		</linearGradient>
		<polygon class="st4" points="54.6,37.6 47.7,44.4 54.6,51.1 66.3,44.4 		"/>
	</g>
	<g>
		<path class="st5" d="M182.4,54.2c-1,0-1.8-0.2-2.6-0.5c-0.8-0.4-1.5-0.9-2-1.6h-0.2c0.1,0.9,0.2,1.7,0.2,2.4v6h-2.2V39.3h1.8
			l0.3,2h0.1c0.6-0.8,1.2-1.4,2-1.7c0.8-0.4,1.6-0.5,2.6-0.5c1.9,0,3.4,0.7,4.5,2c1.1,1.3,1.6,3.2,1.6,5.6c0,2.4-0.5,4.3-1.6,5.6
			C185.8,53.6,184.3,54.2,182.4,54.2z M182.1,40.9c-1.5,0-2.6,0.4-3.3,1.2c-0.7,0.8-1,2.2-1,4v0.5c0,2.1,0.3,3.5,1,4.4
			c0.7,0.9,1.8,1.3,3.3,1.3c1.3,0,2.3-0.5,3-1.5c0.7-1,1.1-2.4,1.1-4.2c0-1.8-0.4-3.2-1.1-4.2C184.4,41.4,183.4,40.9,182.1,40.9z"/>
		<path class="st5" d="M193.6,54h-2.2V33.1h2.2V54z"/>
		<path class="st5" d="M206.4,54l-0.4-2.1h-0.1c-0.7,0.9-1.5,1.5-2.2,1.9c-0.7,0.3-1.6,0.5-2.7,0.5c-1.5,0-2.6-0.4-3.4-1.1
			c-0.8-0.7-1.2-1.8-1.2-3.2c0-3,2.4-4.5,7.1-4.7l2.5-0.1v-0.9c0-1.2-0.2-2-0.7-2.5c-0.5-0.5-1.3-0.8-2.4-0.8
			c-1.2,0-2.6,0.4-4.1,1.1l-0.7-1.7c0.7-0.4,1.5-0.7,2.4-0.9c0.9-0.2,1.7-0.3,2.6-0.3c1.7,0,3,0.4,3.9,1.2c0.8,0.8,1.3,2,1.3,3.7v10
			H206.4z M201.4,52.4c1.4,0,2.5-0.4,3.3-1.1c0.8-0.8,1.2-1.8,1.2-3.2v-1.3l-2.2,0.1c-1.8,0.1-3,0.3-3.8,0.8
			c-0.8,0.5-1.2,1.2-1.2,2.3c0,0.8,0.2,1.4,0.7,1.8C199.8,52.2,200.5,52.4,201.4,52.4z"/>
		<path class="st5" d="M209.4,39.3h2.4l3.2,8.4c0.7,1.9,1.1,3.3,1.3,4.1h0.1c0.1-0.5,0.4-1.2,0.7-2.3c0.4-1.1,1.6-4.5,3.6-10.2h2.4
			L216.8,56c-0.6,1.7-1.4,2.8-2.2,3.5c-0.8,0.7-1.9,1-3.1,1c-0.7,0-1.3-0.1-2-0.2v-1.8c0.5,0.1,1,0.2,1.6,0.2c1.5,0,2.6-0.9,3.3-2.6
			l0.8-2.1L209.4,39.3z"/>
	</g>
	<g>
		<path class="st5" d="M141.3,40.7c0.7,0.6,2.2,1.8,2.2,4.1c0,2.3-1.3,3.3-2.6,4.4c-0.4,0.4-0.9,0.8-0.9,1.5c0,0.7,0.5,1,0.8,1.3
			l1.1,0.9c1.3,1.1,2.6,2.2,2.6,4.3c0,2.9-2.8,5.8-8.1,5.8c-4.4,0-6.6-2.1-6.6-4.4c0-1.1,0.5-2.7,2.4-3.7c1.9-1.2,4.5-1.3,5.9-1.4
			c-0.4-0.6-0.9-1.1-0.9-2.1c0-0.5,0.2-0.8,0.3-1.2c-0.3,0-0.7,0.1-1,0.1c-3.3,0-5.1-2.4-5.1-4.8c0-1.4,0.6-3,2-4.1
			c1.7-1.4,3.8-1.7,5.5-1.7h6.3l-2,1.1H141.3z M139.1,54.3c-0.2,0-0.4,0-0.7,0c-0.3,0-1.9,0.1-3.2,0.5c-0.7,0.2-2.6,1-2.6,3.2
			c0,2.2,2.1,3.7,5.4,3.7c2.9,0,4.5-1.4,4.5-3.3C142.4,56.8,141.4,55.9,139.1,54.3z M140,48.4c0.7-0.7,0.8-1.7,0.8-2.2
			c0-2.2-1.3-5.6-3.9-5.6c-0.8,0-1.7,0.4-2.1,1c-0.5,0.6-0.7,1.5-0.7,2.3c0,2.1,1.2,5.5,3.8,5.5C138.7,49.3,139.5,48.9,140,48.4z"/>
		<path class="st5" d="M121.9,53.8c-4.9,0-7.5-3.8-7.5-7.2c0-4,3.3-7.4,7.9-7.4c4.5,0,7.3,3.5,7.3,7.2
			C129.7,50,126.9,53.8,121.9,53.8z M125.8,51.3c0.7-1,0.9-2.2,0.9-3.4c0-2.7-1.3-7.8-5.1-7.8c-1,0-2,0.4-2.8,1
			c-1.2,1.1-1.4,2.4-1.4,3.7c0,3,1.5,8,5.2,8C123.8,52.9,125.1,52.3,125.8,51.3z"/>
		<path class="st5" d="M105.3,53.8c-4.9,0-7.5-3.8-7.5-7.2c0-4,3.3-7.4,7.9-7.4c4.5,0,7.3,3.5,7.3,7.2
			C113.1,50,110.3,53.8,105.3,53.8z M109.2,51.3c0.7-1,0.9-2.2,0.9-3.4c0-2.7-1.3-7.8-5.1-7.8c-1,0-2,0.4-2.8,1
			c-1.2,1.1-1.4,2.4-1.4,3.7c0,3,1.5,8,5.2,8C107.2,52.9,108.5,52.3,109.2,51.3z"/>
		<path class="st5" d="M95.5,53.3l-4.4,1c-1.8,0.3-3.4,0.5-5.1,0.5c-8.5,0-11.7-6.3-11.7-11.1c0-6,4.6-11.5,12.4-11.5
			c1.7,0,3.3,0.2,4.7,0.6c2.3,0.6,3.4,1.4,4.1,1.9L93,37.2l-1.1,0.2l0.8-1.2c-1-1-3-2.9-6.6-2.9c-4.9,0-8.5,3.7-8.5,9.1
			c0,5.8,4.2,11.2,10.9,11.2c2,0,3-0.4,3.9-0.8v-5l-4.6,0.2l2.5-1.3h6.5l-0.8,0.8c-0.2,0.2-0.2,0.2-0.3,0.5c0,0.3-0.1,1.2-0.1,1.5
			V53.3z"/>
		<path class="st5" d="M151,52.4c-1-0.1-1.2-0.3-1.2-1.5v-0.3V33.5c0-0.1,0-0.1,0-0.2c0.1-1.1,0.4-1.3,1.4-1.8h-4.4l-2.3,1.1h2.4v0
			l0,0v18v1c0,0.6-0.1,0.7-0.8,1.6h5.5l1.1-0.7C152,52.5,151.5,52.5,151,52.4z"/>
		<path class="st5" d="M163.5,52.7c-0.3,0.2-0.7,0.4-1,0.6c-1,0.5-2.1,0.6-3,0.6c-1,0-2.5-0.1-4.1-1.2c-2.2-1.5-3.1-4.2-3.1-6.5
			c0-4.7,3.9-7.1,7-7.1c1.1,0,2.2,0.3,3.2,0.9c1.5,1,1.9,2.3,2.1,3l-7.2,2.9l-2.4,0.2c0.8,3.9,3.4,6.1,6.3,6.1
			c1.6,0,2.7-0.5,3.7-1.1L163.5,52.7z M160.7,43.6c0.6-0.2,0.9-0.4,0.9-0.8c0-1.2-1.4-2.6-3-2.6c-1.2,0-3.5,0.9-3.5,4.3
			c0,0.5,0.1,1.1,0.1,1.6L160.7,43.6z"/>
		<g>
			<path class="st5" d="M166.5,39.3v2h-0.2v-2h-0.7v-0.2h1.6v0.2H166.5z"/>
			<path class="st5" d="M169.2,41.4v-2h0l-0.6,2h-0.2l-0.6-2h0v2h-0.2v-2.2h0.4l0.6,1.8h0l0.6-1.8h0.4v2.2H169.2z"/>
		</g>
	</g>
	<g>
		<path class="st6" d="M80.4,26.2h-1.5c0-0.2-0.1-0.8-0.4-1.8h-2.2c-0.3,1-0.4,1.6-0.4,1.8h-1.4c0-0.1,0.4-1.1,1.1-3.1
			c0.7-1.9,1.1-3,1.1-3.2h1.8c0,0.2,0.3,1.2,1,3.1C80.1,25,80.4,26,80.4,26.2z M78.2,23.5c-0.5-1.6-0.8-2.5-0.8-2.7h-0.1
			c0,0.1-0.3,1-0.8,2.7H78.2z"/>
		<path class="st6" d="M86.6,26.2h-1.2c0-0.1-0.4-0.8-1.3-2.1c-0.9-1.3-1.4-2.2-1.6-2.7h-0.1c0.1,0.7,0.1,1.3,0.1,1.9
			c0,0.8,0,1.7,0.1,2.9h-1.2c0-1,0.1-2.1,0.1-3.3c0-1.2,0-2.2-0.1-3h1.4c0,0.2,0.4,0.8,1.2,2c0.8,1.3,1.3,2.1,1.4,2.5h0.1
			c-0.1-0.7-0.1-1.3-0.1-1.9c0-0.9,0-1.8-0.1-2.7h1.2c0,0.8-0.1,1.8-0.1,3C86.5,24.1,86.6,25.2,86.6,26.2z"/>
		<path class="st6" d="M93.5,22.9c0,0.9-0.3,1.7-0.9,2.4c-0.6,0.7-1.4,1-2.4,1c-0.5,0-1.1,0-2-0.1c0-1,0.1-2,0.1-3.3
			c0-1.2,0-2.2-0.1-3h0.8c0.1,0,0.3,0,0.6,0c0.3,0,0.4,0,0.5,0c1.2,0,2,0.3,2.5,0.9C93.3,21.4,93.5,22.1,93.5,22.9z M92.2,23.1
			c0-0.6-0.2-1.1-0.5-1.5c-0.4-0.4-0.9-0.6-1.6-0.6c-0.1,0-0.3,0-0.6,0c0,0.6,0,1.3,0,2c0,0.8,0,1.5,0,2.3c0.2,0,0.4,0.1,0.6,0.1
			c0.7,0,1.2-0.2,1.5-0.6C92.1,24.2,92.2,23.7,92.2,23.1z"/>
		<path class="st6" d="M99.9,26.2h-1.4c-0.4-1.1-0.7-1.8-0.9-2.1c-0.2-0.3-0.5-0.4-1-0.4c-0.2,0-0.4,0-0.5,0c0,0.8,0,1.6,0,2.5h-1.3
			c0-1,0.1-2,0.1-3.3c0-1.2,0-2.2-0.1-3h0.8c0.1,0,0.3,0,0.6,0c0.3,0,0.6,0,0.8,0c1.5,0,2.2,0.5,2.2,1.5c0,0.8-0.4,1.3-1.3,1.7v0.1
			c0.3,0.1,0.6,0.3,0.8,0.8C99.2,24.3,99.5,25.1,99.9,26.2z M98.1,21.8c0-0.6-0.4-1-1.2-1c-0.3,0-0.6,0-0.8,0.1
			c0,0.5,0.1,1.1,0.1,1.9c0.2,0,0.3,0,0.4,0C97.6,22.8,98.1,22.5,98.1,21.8z"/>
		<path class="st6" d="M106.8,23c0,1-0.3,1.8-0.9,2.4c-0.6,0.6-1.3,1-2.2,1c-0.8,0-1.5-0.3-2.1-0.9c-0.6-0.6-0.9-1.3-0.9-2.3
			c0-1,0.3-1.8,0.9-2.4c0.6-0.6,1.3-1,2.2-1c0.8,0,1.5,0.3,2.1,0.9C106.5,21.3,106.8,22,106.8,23z M105.5,23.1
			c0-0.7-0.2-1.2-0.5-1.6c-0.3-0.4-0.8-0.6-1.3-0.6c-0.5,0-0.9,0.2-1.2,0.6c-0.3,0.4-0.5,0.9-0.5,1.6c0,0.7,0.2,1.2,0.5,1.6
			c0.3,0.4,0.8,0.6,1.3,0.6c0.5,0,0.9-0.2,1.2-0.6C105.3,24.3,105.5,23.7,105.5,23.1z"/>
		<path class="st6" d="M109.5,26.2h-1.4c0-1,0.1-2.1,0.1-3.3c0-1.2,0-2.2-0.1-3h1.4c0,0.8-0.1,1.8-0.1,3
			C109.4,24.1,109.4,25.2,109.5,26.2z"/>
		<path class="st6" d="M116.4,22.9c0,0.9-0.3,1.7-0.9,2.4c-0.6,0.7-1.4,1-2.4,1c-0.5,0-1.1,0-2-0.1c0-1,0.1-2,0.1-3.3
			c0-1.2,0-2.2-0.1-3h0.8c0.1,0,0.3,0,0.6,0c0.3,0,0.4,0,0.5,0c1.2,0,2,0.3,2.5,0.9C116.1,21.4,116.4,22.1,116.4,22.9z M115.1,23.1
			c0-0.6-0.2-1.1-0.5-1.5c-0.4-0.4-0.9-0.6-1.6-0.6c-0.1,0-0.3,0-0.6,0c0,0.6,0,1.3,0,2c0,0.8,0,1.5,0,2.3c0.2,0,0.4,0.1,0.6,0.1
			c0.7,0,1.2-0.2,1.5-0.6C114.9,24.2,115.1,23.7,115.1,23.1z"/>
		<path class="st6" d="M125.6,26.2h-1.5c0-0.2-0.1-0.8-0.4-1.8h-2.2c-0.3,1-0.4,1.6-0.4,1.8h-1.4c0-0.1,0.4-1.1,1.1-3.1
			c0.7-1.9,1.1-3,1.1-3.2h1.8c0,0.2,0.3,1.2,1,3.1C125.3,25,125.6,26,125.6,26.2z M123.4,23.5c-0.5-1.6-0.8-2.5-0.8-2.7h-0.1
			c0,0.1-0.3,1-0.8,2.7H123.4z"/>
		<path class="st6" d="M131.2,21.6c0,0.8-0.3,1.3-0.8,1.7c-0.6,0.4-1.3,0.5-2.1,0.5c-0.1,0-0.3,0-0.3,0c0,0.6,0,1.4,0.1,2.4h-1.3
			c0-0.9,0.1-2,0.1-3.3c0-1.1,0-2.1-0.1-3h0.8c0.1,0,0.3,0,0.7,0c0.3,0,0.6,0,0.9,0c0.6,0,1.1,0.1,1.5,0.4
			C131,20.6,131.2,21,131.2,21.6z M129.9,21.9c0-0.7-0.5-1-1.4-1c-0.2,0-0.5,0-0.7,0.1c0,0.6,0.1,1.3,0.1,2c0.1,0,0.2,0,0.3,0
			C129.4,23,129.9,22.6,129.9,21.9z"/>
		<path class="st6" d="M136.9,21.6c0,0.8-0.3,1.3-0.8,1.7c-0.6,0.4-1.3,0.5-2.1,0.5c-0.1,0-0.3,0-0.3,0c0,0.6,0,1.4,0.1,2.4h-1.3
			c0-0.9,0.1-2,0.1-3.3c0-1.1,0-2.1-0.1-3h0.8c0.1,0,0.3,0,0.7,0c0.3,0,0.6,0,0.9,0c0.6,0,1.1,0.1,1.5,0.4
			C136.7,20.6,136.9,21,136.9,21.6z M135.7,21.9c0-0.7-0.5-1-1.4-1c-0.2,0-0.5,0-0.7,0.1c0,0.6,0.1,1.3,0.1,2c0.1,0,0.2,0,0.3,0
			C135.1,23,135.7,22.6,135.7,21.9z"/>
		<path class="st6" d="M146.3,23c0,1-0.3,1.8-0.9,2.4c-0.6,0.6-1.3,1-2.2,1c-0.8,0-1.5-0.3-2.1-0.9c-0.6-0.6-0.9-1.3-0.9-2.3
			c0-1,0.3-1.8,0.9-2.4c0.6-0.6,1.3-1,2.2-1c0.8,0,1.5,0.3,2.1,0.9C146,21.3,146.3,22,146.3,23z M145,23.1c0-0.7-0.2-1.2-0.5-1.6
			c-0.3-0.4-0.8-0.6-1.3-0.6c-0.5,0-0.9,0.2-1.2,0.6c-0.3,0.4-0.5,0.9-0.5,1.6c0,0.7,0.2,1.2,0.5,1.6c0.3,0.4,0.8,0.6,1.3,0.6
			c0.5,0,0.9-0.2,1.2-0.6C144.8,24.3,145,23.7,145,23.1z"/>
		<path class="st6" d="M152.8,26.2h-1.2c0-0.1-0.4-0.8-1.3-2.1c-0.9-1.3-1.4-2.2-1.6-2.7h-0.1c0.1,0.7,0.1,1.3,0.1,1.9
			c0,0.8,0,1.7,0.1,2.9h-1.2c0-1,0.1-2.1,0.1-3.3c0-1.2,0-2.2-0.1-3h1.4c0,0.2,0.4,0.8,1.2,2c0.8,1.3,1.3,2.1,1.4,2.5h0.1
			c-0.1-0.7-0.1-1.3-0.1-1.9c0-0.9,0-1.8-0.1-2.7h1.2c0,0.8-0.1,1.8-0.1,3C152.7,24.1,152.7,25.2,152.8,26.2z"/>
	</g>
</g>
</svg>
