<?xml version="1.0" encoding="utf-8"?>
<!-- Generator: Adobe Illustrator 24.0.2, SVG Export Plug-In . SVG Version: 6.00 Build 0)  -->
<svg version="1.1" id="Layer_1" xmlns="http://www.w3.org/2000/svg" xmlns:xlink="http://www.w3.org/1999/xlink" x="0px" y="0px"
	 viewBox="0 0 24 20" style="enable-background:new 0 0 24 20;" xml:space="preserve">
<style type="text/css">
	.st0{fill:#FFFFFF;}
</style>
<g>
	<g>
		<path class="st0" d="M10.5,18.1L10.5,18.1L10.5,18.1L10,17.9c0,0-0.3-0.2-0.8-0.5c-0.4-0.3-1.1-0.7-1.5-1l-0.1-0.1
			c-0.4-0.3-1.4-1-2.5-1.9c-0.2-0.2-0.3-0.3-0.4-0.4c-0.5-0.5-1-1-1.4-1.6c0,0-0.1-0.1-0.2-0.2l0,0l-0.3-0.5c-0.2-0.3-0.4-0.6-0.5-1
			C2,10.3,1.9,9.9,1.8,9.5V9.4C1.7,9,1.6,8.6,1.6,8.2c0-2.2,1.3-4.1,3.2-4.9C5,3.2,5.1,3.2,5.1,3.2C5.7,2.9,6.3,2.8,7,2.8
			c1.3,0,2.5,0.5,3.5,1.3c1-0.8,2.2-1.3,3.5-1.3c0.8,0,1.5,0.1,2.1,0.4c1,0.4,1.9,1.1,2.5,2.2c0.1,0.2,0.2,0.5,0.3,0.7
			c0.3,0.6,0.4,1.3,0.4,1.9c0,0.5,0,0.9-0.1,1.3v0.1c-0.2,0.7-0.5,1.3-0.9,2c-0.2,0.4-0.5,0.8-0.8,1.2l0,0l-1.7,1.7
			c-1,0.9-2,1.6-2.4,1.9l-0.1,0.1c-0.5,0.3-1.1,0.7-1.6,1c-0.3,0.2-0.5,0.3-0.6,0.4L11,17.8L10.5,18.1z M10.5,15.8l0.1-0.1
			c0,0,0,0,0.1,0c0.5-0.3,1-0.6,1.5-1l0.1-0.1c0.3-0.2,1-0.7,1.8-1.4l0.4-0.4c0.2-0.2,0.5-0.4,0.7-0.7l0.2-0.2
			c0.2-0.2,0.3-0.3,0.4-0.4c0.3-0.4,0.6-0.8,0.9-1.2c0.3-0.5,0.5-1,0.6-1.5V8.7c0.1-0.2,0.1-0.5,0.1-0.8c0-0.5-0.1-0.9-0.2-1.2
			C17,6.8,17,6.6,16.9,6.5c-0.4-0.7-0.9-1.2-1.5-1.4h-0.1c-0.4-0.2-0.9-0.3-1.3-0.3c-1.1,0-2.1,0.5-2.7,1.3L10.6,7l-1-0.9
			C9,5.3,8,4.8,7,4.8C6.6,4.8,6.2,4.9,5.8,5L5.6,5.1c-1.1,0.5-1.9,1.7-2,3c0,0.3,0,0.6,0.1,0.8V9C3.8,9.3,3.9,9.6,4,9.8
			c0.1,0.3,0.3,0.5,0.4,0.8l0,0c0.1,0.2,0.3,0.4,0.5,0.7c0.3,0.4,0.7,0.8,1.2,1.3c0.1,0.1,0.2,0.2,0.4,0.3c1,0.9,1.9,1.5,2.3,1.8
			l0.1,0.1C9.3,15.1,9.9,15.5,10.5,15.8L10.5,15.8L10.5,15.8z"/>
	</g>
	<g>
		<path class="st0" d="M10.5,18.1L10.5,18.1L10.5,18.1L10,17.9c0,0-0.3-0.2-0.8-0.5c-0.4-0.3-1.1-0.7-1.5-1l-0.1-0.1
			c-0.4-0.3-1.4-1-2.5-1.9c-0.2-0.2-0.3-0.3-0.4-0.4c-0.5-0.5-1-1-1.4-1.6c0,0-0.1-0.1-0.2-0.2l0,0l-0.3-0.5c-0.2-0.3-0.4-0.6-0.5-1
			C2,10.3,1.9,9.9,1.8,9.5V9.4C1.7,9,1.6,8.6,1.6,8.2c0-2.2,1.3-4.1,3.2-4.9C5,3.2,5.1,3.2,5.1,3.2C5.7,2.9,6.3,2.8,7,2.8
			c1.3,0,2.5,0.5,3.5,1.3c1-0.8,2.2-1.3,3.5-1.3c0.8,0,1.5,0.1,2.2,0.4c1,0.3,1.9,1.1,2.5,2.2c0.1,0.2,0.2,0.5,0.3,0.7l0,0
			c0.2,0.6,0.4,1.3,0.4,1.9c0,0.5,0,0.9-0.1,1.3v0.1c-0.2,0.7-0.5,1.3-0.9,2c-0.2,0.4-0.5,0.8-0.8,1.2l0,0l-1.7,1.7
			c-1,0.9-2,1.6-2.4,1.9l-0.1,0.1c-0.5,0.3-1.1,0.7-1.6,1c-0.3,0.2-0.5,0.3-0.6,0.4l-0.1,0.1L10.5,18.1z M10.5,15.8l0.1-0.1
			c0,0,0,0,0.1,0c0.5-0.3,1-0.6,1.5-1l0.1-0.1c0.3-0.2,1-0.7,1.8-1.4l0.4-0.4c0.2-0.2,0.5-0.4,0.7-0.7l0.2-0.2
			c0.2-0.2,0.3-0.3,0.4-0.4c0.3-0.4,0.6-0.8,0.9-1.2c0.3-0.5,0.5-1,0.6-1.5V8.7c0.1-0.2,0.1-0.5,0.1-0.8c0-0.5-0.1-0.9-0.2-1.2
			C17,6.8,17,6.6,16.9,6.5c-0.4-0.7-0.9-1.2-1.5-1.4c-1.6-0.7-3.2-0.2-4.1,1L10.6,7l-1-0.9C9,5.3,8,4.8,7,4.8C6.6,4.8,6.2,4.9,5.8,5
			L5.6,5.1c-1.1,0.5-1.9,1.7-2,3c0,0.3,0,0.6,0.1,0.8V9C3.8,9.3,3.9,9.6,4,9.8c0.1,0.3,0.3,0.5,0.4,0.8l0,0c0.1,0.2,0.3,0.4,0.5,0.7
			c0.3,0.4,0.7,0.8,1.2,1.3c0.1,0.1,0.2,0.2,0.4,0.3c1,0.9,1.9,1.5,2.3,1.8l0.1,0.1C9.3,15.1,9.9,15.5,10.5,15.8L10.5,15.8
			L10.5,15.8z"/>
	</g>
</g>
</svg>
