<?xml version="1.0" encoding="utf-8"?>
<!-- Generator: Adobe Illustrator 24.0.2, SVG Export Plug-In . SVG Version: 6.00 Build 0)  -->
<svg version="1.1" id="Layer_1" xmlns="http://www.w3.org/2000/svg" xmlns:xlink="http://www.w3.org/1999/xlink" x="0px" y="0px"
	 viewBox="0 0 27.5 26.7" style="enable-background:new 0 0 27.5 26.7;" xml:space="preserve">
<style type="text/css">
	.st0{fill:#FFFFFF;}
	.st1{fill:#1D1D1B;}
</style>
<g>
	<g>
		<path class="st0" d="M14,5.2c-2.2,0-2.5,0-3.3,0c-0.9,0-1.4,0.2-1.9,0.4c-0.5,0.2-1,0.5-1.4,0.9C6.9,7,6.6,7.4,6.4,8
			C6.2,8.5,6.1,9,6.1,9.9s0,1.1,0,3.3s0,2.5,0,3.3c0,0.9,0.2,1.4,0.4,1.9c0.2,0.5,0.5,1,0.9,1.4s0.9,0.7,1.4,0.9
			c0.5,0.2,1.1,0.3,1.9,0.4c0.9,0,1.1,0,3.3,0s2.5,0,3.3,0c0.9,0,1.4-0.2,1.9-0.4c0.5-0.2,1-0.5,1.4-0.9s0.7-0.9,0.9-1.4
			c0.2-0.5,0.3-1.1,0.4-1.9c0-0.9,0-1.1,0-3.3s0-2.5,0-3.3S21.8,8.5,21.7,8c-0.2-0.5-0.5-1-0.9-1.4s-0.9-0.7-1.4-0.9
			c-0.5-0.2-1.1-0.3-1.9-0.4C16.5,5.2,16.2,5.2,14,5.2"/>
		<path class="st1" d="M14,9.1c-2.3,0-4.1,1.8-4.1,4.1s1.8,4.1,4.1,4.1s4.1-1.8,4.1-4.1C18.2,10.9,16.3,9.1,14,9.1 M14,15.9
			c-1.5,0-2.7-1.2-2.7-2.7s1.2-2.7,2.7-2.7s2.7,1.2,2.7,2.7S15.5,15.9,14,15.9"/>
		<path class="st1" d="M19.3,8.9c0,0.5-0.4,1-1,1c-0.5,0-1-0.4-1-1c0-0.5,0.4-1,1-1C18.9,8,19.3,8.4,19.3,8.9"/>
	</g>
</g>
</svg>
