<?xml version="1.0" encoding="utf-8"?>
<!-- Generator: Adobe Illustrator 24.0.2, SVG Export Plug-In . SVG Version: 6.00 Build 0)  -->
<svg version="1.1" id="Слой_1" xmlns="http://www.w3.org/2000/svg" xmlns:xlink="http://www.w3.org/1999/xlink" x="0px" y="0px"
	 viewBox="0 0 116.2 116.2" style="enable-background:new 0 0 116.2 116.2;" xml:space="preserve">
<style type="text/css">
	.st0{fill-rule:evenodd;clip-rule:evenodd;fill:#E60F80;}
	.st1{fill:#DADADA;}
	.st2{fill-rule:evenodd;clip-rule:evenodd;fill:#FFFFFF;}
</style>
<circle class="st0" cx="54.7" cy="59.8" r="16.7"/>
<g>
	<path class="st1" d="M54.8,42.6c4.8,0,9.1,1.9,12.2,5c3.1,3.1,5,7.4,5,12.2s-1.9,9.1-5,12.2c-3.1,3.1-7.4,5-12.2,5
		c-4.7,0-9.1-1.9-12.2-5c-3.1-3.1-5-7.4-5-12.2s1.9-9.1,5-12.2C45.8,44.5,50.1,42.6,54.8,42.6L54.8,42.6z M66,48.6
		c-2.9-2.9-6.8-4.6-11.2-4.6c-4.4,0-8.3,1.8-11.2,4.6c-2.9,2.9-4.6,6.8-4.6,11.2c0,4.4,1.8,8.3,4.6,11.2c2.9,2.9,6.8,4.6,11.2,4.6
		c4.4,0,8.3-1.8,11.2-4.6c2.9-2.9,4.6-6.8,4.6-11.2C70.7,55.4,68.9,51.5,66,48.6L66,48.6z"/>
	<path class="st2" d="M50.8,59.8c0-2.2,1.8-4,4-4c2.2,0,4,1.8,4,4c0,2.2-1.8,4-4,4C52.6,63.8,50.8,62,50.8,59.8L50.8,59.8z M58.9,52
		h-8.2c-2,0-3.7,1.7-3.7,3.7v8.2c0,2,1.7,3.7,3.7,3.7h8.2c2,0,3.7-1.7,3.7-3.7v-8.2C62.6,53.7,61,52,58.9,52L58.9,52z M59.8,54.1
		c-0.4,0-0.8,0.4-0.8,0.8c0,0.4,0.4,0.8,0.8,0.8c0.4,0,0.8-0.4,0.8-0.8C60.6,54.5,60.2,54.1,59.8,54.1L59.8,54.1z M59.8,59.8
		c0-2.8-2.2-5-5-5c-2.8,0-5,2.3-5,5c0,2.8,2.3,5,5,5C57.6,64.8,59.8,62.6,59.8,59.8L59.8,59.8z"/>
</g>
</svg>
