<?xml version="1.0" encoding="utf-8"?>
<!-- Generator: Adobe Illustrator 24.0.2, SVG Export Plug-In . SVG Version: 6.00 Build 0)  -->
<svg version="1.1" id="Слой_1" xmlns="http://www.w3.org/2000/svg" xmlns:xlink="http://www.w3.org/1999/xlink" x="0px" y="0px"
	 viewBox="0 0 48 48" style="enable-background:new 0 0 48 48;" xml:space="preserve">
<style type="text/css">
	.st0{fill:#56565E;}
	.st1{fill:#FFFFFF;}
</style>
<circle class="st0" cx="25.5" cy="20" r="8.5"/>
<g>
	<path class="st1" d="M30.5,16.4c-0.2-0.3-0.3-0.7-0.6-0.9c-0.3-0.3-0.6-0.5-0.9-0.6c-0.3-0.2-0.8-0.3-1.3-0.3c-0.5,0-0.7,0-2.2,0
		c-1.4,0-1.7,0-2.2,0c-0.6,0-1,0.1-1.3,0.3c-0.3,0.2-0.7,0.3-0.9,0.6c-0.3,0.3-0.5,0.6-0.6,0.9c-0.2,0.3-0.3,0.8-0.3,1.3
		s0,0.8,0,2.2c0,1.4,0,1.7,0,2.3s0.1,1,0.3,1.3c0.2,0.3,0.3,0.7,0.6,0.9c0.3,0.3,0.6,0.5,0.9,0.6c0.3,0.2,0.8,0.3,1.3,0.3
		c0.6,0,0.8,0,2.2,0c1.4,0,1.7,0,2.2,0c0.6,0,1-0.1,1.3-0.3c0.3-0.2,0.7-0.3,0.9-0.6c0.3-0.3,0.5-0.6,0.6-0.9
		c0.2-0.3,0.3-0.8,0.3-1.3s0-0.8,0-2.3c0-1.4,0-1.7,0-2.2C30.8,17.2,30.7,16.8,30.5,16.4z M25.5,22.8c-1.5,0-2.8-1.3-2.8-2.8
		c0-1.5,1.3-2.8,2.8-2.8c1.6,0,2.8,1.3,2.8,2.8C28.3,21.5,27,22.8,25.5,22.8z M28.4,17.8c-0.3,0-0.7-0.3-0.7-0.7
		c0-0.3,0.3-0.7,0.7-0.7c0.4,0,0.7,0.3,0.7,0.7C29,17.5,28.8,17.8,28.4,17.8z"/>
	<path class="st1" d="M25.5,18.3c-0.9,0-1.8,0.8-1.8,1.8c0,0.9,0.8,1.8,1.8,1.8c1,0,1.8-0.8,1.8-1.8C27.3,19.2,26.5,18.3,25.5,18.3z
		"/>
</g>
</svg>
