<?xml version="1.0" encoding="utf-8"?>
<!-- Generator: Adobe Illustrator 13.0.0, SVG Export Plug-In . SVG Version: 6.00 Build 14948)  -->
<!DOCTYPE svg PUBLIC "-//W3C//DTD SVG 1.1//EN" "http://www.w3.org/Graphics/SVG/1.1/DTD/svg11.dtd">
<svg version="1.1" id="Layer_1" xmlns="http://www.w3.org/2000/svg" xmlns:xlink="http://www.w3.org/1999/xlink" x="0px" y="0px"
	 width="11.738px" height="10.231px" viewBox="0 0 11.738 10.231" enable-background="new 0 0 11.738 10.231" xml:space="preserve">
<g>
	<g>
		<path fill="#FFFFFF" d="M0.916,1.866c-1.525,2.051-1.101,4.952,0.95,6.478c2.052,1.527,4.952,1.102,6.478-0.951
			c1.527-2.05,1.103-4.95-0.949-6.477C5.343-0.611,2.443-0.186,0.916,1.866z M7.416,6.704C6.271,8.242,4.095,8.56,2.556,7.417
			C1.018,6.271,0.7,4.095,1.845,2.557C2.989,1.019,5.166,0.7,6.705,1.844C8.243,2.99,8.56,5.165,7.416,6.704z"/>
	</g>
	<path fill="#FFFFFF" d="M11.443,8.651c0.324,0.242,0.392,0.701,0.15,1.025L11.4,9.936c-0.242,0.324-0.701,0.393-1.025,0.15
		L7.552,7.956C7.227,7.713,7.161,7.256,7.402,6.93l0.193-0.26c0.242-0.324,0.701-0.392,1.025-0.15L11.443,8.651z"/>
</g>
</svg>
