<?xml version="1.0" encoding="utf-8"?>
<!-- Generator: Adobe Illustrator 24.0.2, SVG Export Plug-In . SVG Version: 6.00 Build 0)  -->
<svg version="1.1" id="Слой_1" xmlns="http://www.w3.org/2000/svg" xmlns:xlink="http://www.w3.org/1999/xlink" x="0px" y="0px"
	 viewBox="0 0 116.2 116.2" style="enable-background:new 0 0 116.2 116.2;" xml:space="preserve">
<style type="text/css">
	.st0{fill-rule:evenodd;clip-rule:evenodd;fill:#345CA8;}
	.st1{fill:#DADADA;}
	.st2{fill-rule:evenodd;clip-rule:evenodd;fill:#FFFFFF;}
</style>
<circle class="st0" cx="56.7" cy="56.2" r="16.7"/>
<g>
	<path class="st1" d="M56.9,38.9c4.8,0,9.1,1.9,12.2,5c3.1,3.1,5,7.4,5,12.2c0,4.8-1.9,9.1-5,12.2c-3.1,3.1-7.4,5-12.2,5
		c-4.7,0-9.1-1.9-12.2-5c-3.1-3.1-5-7.4-5-12.2c0-4.8,1.9-9.1,5-12.2C47.9,40.8,52.2,38.9,56.9,38.9L56.9,38.9z M68.2,44.9
		c-2.9-2.9-6.8-4.6-11.2-4.6c-4.4,0-8.3,1.8-11.2,4.6c-2.9,2.9-4.6,6.8-4.6,11.2c0,4.4,1.8,8.3,4.6,11.2c2.9,2.9,6.8,4.6,11.2,4.6
		c4.4,0,8.3-1.8,11.2-4.6c2.9-2.9,4.6-6.8,4.6-11.2C72.8,51.7,71,47.7,68.2,44.9L68.2,44.9z"/>
	<path class="st2" d="M56.6,51.1c1.4,0,2.6,0.6,3.6,1.5v0c0-0.4,0.3-0.8,0.7-0.8l0.1,0c0.7,0,0.8,0.6,0.8,0.8l0,7
		c0,0.5,0.5,0.7,0.8,0.4c1.1-1.2,2.5-5.9-0.7-8.7c-2.9-2.6-6.9-2.2-9-0.7c-2.2,1.5-3.7,4.9-2.3,8.2c1.5,3.5,5.8,4.5,8.4,3.5
		c1.3-0.5,1.9,1.2,0.6,1.8c-2,0.9-7.7,0.8-10.4-3.8c-1.8-3.1-1.7-8.6,3.1-11.4c3.6-2.2,8.5-1.6,11.3,1.5c3,3.2,2.9,9.1-0.1,11.4
		c-1.3,1-3.3,0-3.3-1.5l0-0.5c-0.9,0.9-2.2,1.5-3.5,1.5c-2.7,0-5-2.3-5-5C51.6,53.5,54,51.1,56.6,51.1L56.6,51.1z M60,56L60,56
		c-0.1-2-1.6-3.1-3.3-3.1h-0.1c-2,0-3.1,1.6-3.1,3.4c0,2,1.4,3.3,3.1,3.3c2,0,3.3-1.5,3.4-3.2L60,56z"/>
</g>
</svg>
