<?xml version="1.0" encoding="utf-8"?>
<!-- Generator: Adobe Illustrator 24.0.2, SVG Export Plug-In . SVG Version: 6.00 Build 0)  -->
<svg version="1.1" id="Слой_1" xmlns="http://www.w3.org/2000/svg" xmlns:xlink="http://www.w3.org/1999/xlink" x="0px" y="0px"
	 viewBox="0 0 116.2 116.2" style="enable-background:new 0 0 116.2 116.2;" xml:space="preserve">
<style type="text/css">
	.st0{fill-rule:evenodd;clip-rule:evenodd;fill:#EF7D19;}
	.st1{fill:#DADADA;}
	.st2{fill:#FFFFFF;}
</style>
<circle class="st0" cx="58.5" cy="55.5" r="16.7"/>
<g>
	<path class="st1" d="M58.4,38.5c4.8,0,9.1,1.9,12.2,5c3.1,3.1,5,7.4,5,12.2c0,4.8-1.9,9.1-5,12.2c-3.1,3.1-7.4,5-12.2,5
		c-4.8,0-9.1-1.9-12.2-5c-3.1-3.1-5-7.4-5-12.2c0-4.8,1.9-9.1,5-12.2C49.3,40.5,53.6,38.5,58.4,38.5L58.4,38.5z M69.6,44.5
		c-2.9-2.9-6.8-4.6-11.2-4.6s-8.3,1.8-11.2,4.6c-2.9,2.9-4.6,6.8-4.6,11.2c0,4.4,1.8,8.3,4.6,11.2c2.9,2.9,6.8,4.6,11.2,4.6
		s8.3-1.8,11.2-4.6c2.9-2.9,4.6-6.8,4.6-11.2C74.2,51.4,72.5,47.4,69.6,44.5L69.6,44.5z"/>
	<path class="st2" d="M58.4,55.8c2.6,0,4.7-2.1,4.7-4.7c0-2.6-2.1-4.7-4.7-4.7c-2.6,0-4.7,2.1-4.7,4.7
		C53.7,53.8,55.8,55.8,58.4,55.8z M58.4,48.9c1.3,0,2.3,1,2.3,2.3c0,1.3-1,2.3-2.3,2.3c-1.3,0-2.3-1-2.3-2.3
		C56.1,49.9,57.1,48.9,58.4,48.9z M63.8,56.4c-0.3-0.5-1-1-2-0.2c-1.3,1-3.4,1-3.4,1s-2.1,0-3.4-1c-1-0.8-1.7-0.3-2,0.2
		c-0.5,0.9,0.1,1.4,1.2,2.1c1,0.6,2.4,0.9,3.3,1l-0.7,0.7c-1,1-2.1,2.1-2.8,2.8c-0.4,0.4-0.4,1.1,0,1.5l0.1,0.1
		c0.4,0.4,1.1,0.4,1.5,0l2.8-2.8c1,1,2.1,2.1,2.8,2.8c0.4,0.4,1.1,0.4,1.5,0l0.1-0.1c0.4-0.4,0.4-1.1,0-1.5L60,60.3l-0.7-0.7
		c0.9-0.1,2.3-0.3,3.2-1C63.7,57.8,64.2,57.3,63.8,56.4z"/>
</g>
</svg>
