<?xml version="1.0" encoding="utf-8"?>
<!-- Generator: Adobe Illustrator 24.0.2, SVG Export Plug-In . SVG Version: 6.00 Build 0)  -->
<svg version="1.1" id="Слой_1" xmlns="http://www.w3.org/2000/svg" xmlns:xlink="http://www.w3.org/1999/xlink" x="0px" y="0px"
	 viewBox="0 0 147.9 29.2" style="enable-background:new 0 0 147.9 29.2;" xml:space="preserve">
<style type="text/css">
	.st0{fill:#F1AD1F;}
	.st1{fill:#F4EACE;}
</style>
<g>
	<g>
		<path class="st0" d="M16,9.4l-2.9-6.2l-2.9,6.2c-0.3,0.6-0.8,0.9-1.4,1l-6.6,1l4.9,5c0.4,0.4,0.6,1,0.5,1.6l-1.1,7l5.8-3.2
			c0.3-0.2,0.6-0.2,0.9-0.2c0.3,0,0.6,0.1,0.9,0.2l5.8,3.2l-1.1-7c-0.1-0.6,0.1-1.2,0.5-1.6l4.8-5l-6.6-1C16.7,10.3,16.2,9.9,16,9.4
			z"/>
	</g>
	<g>
		<path class="st0" d="M46.4,9.4l-2.9-6.2l-2.9,6.2c-0.3,0.6-0.8,0.9-1.4,1l-6.6,1l4.9,5c0.4,0.4,0.6,1,0.5,1.6l-1.1,7l5.8-3.2
			c0.3-0.2,0.6-0.2,0.9-0.2c0.3,0,0.6,0.1,0.9,0.2l5.8,3.2l-1.1-7c-0.1-0.6,0.1-1.2,0.5-1.6l4.8-5l-6.6-1
			C47.2,10.3,46.7,9.9,46.4,9.4z"/>
	</g>
	<g>
		<path class="st0" d="M78.6,9.4l-2.9-6.2l-2.9,6.2c-0.3,0.6-0.8,0.9-1.4,1l-6.6,1l4.9,5c0.4,0.4,0.6,1,0.5,1.6l-1.1,7l5.8-3.2
			c0.3-0.2,0.6-0.2,0.9-0.2c0.3,0,0.6,0.1,0.9,0.2l5.8,3.2l-1.1-7c-0.1-0.6,0.1-1.2,0.5-1.6l4.8-5l-6.6-1
			C79.4,10.3,78.9,9.9,78.6,9.4z"/>
	</g>
	<g>
		<path class="st1" d="M107.6,9.4l-2.9-6.2l-2.9,6.2c-0.3,0.6-0.8,0.9-1.4,1l-6.6,1l4.9,5c0.4,0.4,0.6,1,0.5,1.6l-1.1,7l5.8-3.2
			c0.3-0.2,0.6-0.2,0.9-0.2c0.3,0,0.6,0.1,0.9,0.2l5.8,3.2l-1.1-7c-0.1-0.6,0.1-1.2,0.5-1.6l4.8-5l-6.6-1
			C108.4,10.3,107.9,9.9,107.6,9.4z"/>
	</g>
	<g>
		<path class="st1" d="M137.2,9.4l-2.9-6.2l-2.9,6.2c-0.3,0.6-0.8,0.9-1.4,1l-6.6,1l4.9,5c0.4,0.4,0.6,1,0.5,1.6l-1.1,7l5.8-3.2
			c0.3-0.2,0.6-0.2,0.9-0.2c0.3,0,0.6,0.1,0.9,0.2L141,25l-1.1-7c-0.1-0.6,0.1-1.2,0.5-1.6l4.8-5l-6.6-1
			C138,10.3,137.5,9.9,137.2,9.4z"/>
	</g>
</g>
</svg>
