<?xml version="1.0" encoding="utf-8"?>
<!-- Generator: Adobe Illustrator 24.0.2, SVG Export Plug-In . SVG Version: 6.00 Build 0)  -->
<svg version="1.1" id="Слой_1" xmlns="http://www.w3.org/2000/svg" xmlns:xlink="http://www.w3.org/1999/xlink" x="0px" y="0px"
	 viewBox="0 0 480 480" style="enable-background:new 0 0 480 480;" xml:space="preserve">
<style type="text/css">
	.st0{fill:#FFFFFF;}
</style>
<path class="st0" d="M246.2,150c-3.3,0-6,2.7-6,6c0,0-0.2,117-0.2,117.5c0,10.7-9.7,19.8-21.2,19.8c-11.1,0-20.1-9-20.1-20.1
	s9-20.1,20.1-20.1c0.5,0,1,0.1,1.6,0.1l0.9,0.1c1.7,0.2,3.4-0.3,4.7-1.4c1.3-1.1,2-2.8,2-4.5v-25.2c0-3.2-2.5-5.8-5.6-6l-0.6-0.1
	c-1-0.1-1.9-0.1-2.9-0.1c-31.5,0-57.1,25.7-57.1,57.2s25.6,57.2,57.1,57.2c31.6,0,57.2-25.7,57.2-57.2v-53.9
	c10.1,8,23.4,11.9,36.3,10.7c3.1-0.3,5.5-2.9,5.5-5.9v-28c0-3.2-2.5-5.8-5.6-6c-18.8-1.4-33.9-16-35.9-34.7
	c-0.3-3.1-2.9-5.4-5.9-5.4H246.2z"/>
</svg>
