<?xml version="1.0" encoding="utf-8"?>
<!-- Generator: Adobe Illustrator 24.0.2, SVG Export Plug-In . SVG Version: 6.00 Build 0)  -->
<svg version="1.1" id="Слой_1" xmlns="http://www.w3.org/2000/svg" xmlns:xlink="http://www.w3.org/1999/xlink" x="0px" y="0px"
	 viewBox="0 0 48 48" style="enable-background:new 0 0 48 48;" xml:space="preserve">
<style type="text/css">
	.st0{fill:#FFFFFF;}
</style>
<g>
	<path class="st0" d="M33,14.9c-5.1,1.9-10.2,4-15.2,6.2c-0.6,0.3-1.1,0.5-1.7,0.8c-2.4,1-4.9,2.1-7.1,3.4c-1.2,0.9,0.4,1.5,1.9,2
		c0.2,0.1,0.5,0.2,0.7,0.3c0.2,0.1,0.4,0.1,0.6,0.2c1.6,0.5,3.5,1.1,5,0.2c2.6-1.5,5.1-3.2,7.5-5c0.8-0.6,1.6-1.1,2.4-1.7l0.1-0.1
		c0.7-0.4,2.2-1.5,1.7-0.1c-1.4,1.5-2.8,2.8-4.3,4.1c-1,0.9-2,1.8-2.9,2.7c-0.8,0.7-1.7,2.1-0.8,3c2.2,1.5,4.4,3,6.6,4.5
		c0.7,0.5,1.4,1,2.1,1.4c1.2,1,3.1,0.2,3.4-1.3c0.1-0.7,0.2-1.4,0.4-2.1c0.7-3.8,1.3-7.7,1.9-11.5c0.1-0.6,0.2-1.2,0.3-1.8
		c0.2-1.5,0.4-2.9,0.5-4.4C35.8,14.2,34,14.6,33,14.9z"/>
</g>
<g>
	<g>
		<path d="M25.3,17.4c-0.3,0-0.5,0.2-0.5,0.5c0,0,0,9.2,0,9.3c0,0.8-0.8,1.6-1.7,1.6c-0.9,0-1.6-0.7-1.6-1.6s0.7-1.6,1.6-1.6
			c0,0,0.1,0,0.1,0l0.1,0c0.1,0,0.3,0,0.4-0.1c0.1-0.1,0.2-0.2,0.2-0.4v-2c0-0.3-0.2-0.5-0.4-0.5l0,0c-0.1,0-0.2,0-0.2,0
			c-2.5,0-4.5,2-4.5,4.5s2,4.5,4.5,4.5c2.5,0,4.5-2,4.5-4.5v-4.3c0.8,0.6,1.9,0.9,2.9,0.8c0.2,0,0.4-0.2,0.4-0.5v-2.2
			c0-0.3-0.2-0.5-0.4-0.5c-1.5-0.1-2.7-1.3-2.8-2.7c0-0.2-0.2-0.4-0.5-0.4H25.3z"/>
	</g>
</g>
</svg>
