<?xml version="1.0" encoding="utf-8"?>
<!-- Generator: Adobe Illustrator 24.0.2, SVG Export Plug-In . SVG Version: 6.00 Build 0)  -->
<svg version="1.1" id="Слой_1" xmlns="http://www.w3.org/2000/svg" xmlns:xlink="http://www.w3.org/1999/xlink" x="0px" y="0px"
	 viewBox="0 0 116.2 116.2" style="enable-background:new 0 0 116.2 116.2;" xml:space="preserve">
<style type="text/css">
	.st0{fill-rule:evenodd;clip-rule:evenodd;fill:#47A7DE;}
	.st1{fill:#DADADA;}
	.st2{fill-rule:evenodd;clip-rule:evenodd;fill:#FFFFFF;}
</style>
<circle class="st0" cx="58.6" cy="53.7" r="16.7"/>
<g>
	<path class="st1" d="M58.8,36.5c4.8,0,9.1,1.9,12.2,5c3.1,3.1,5,7.4,5,12.2c0,4.7-1.9,9.1-5,12.2c-3.1,3.1-7.4,5-12.2,5
		c-4.8,0-9.1-1.9-12.2-5c-3.1-3.1-5-7.4-5-12.2c0-4.8,1.9-9.1,5-12.2C49.7,38.4,54,36.5,58.8,36.5L58.8,36.5z M70,42.5
		c-2.9-2.9-6.8-4.6-11.2-4.6c-4.4,0-8.3,1.8-11.2,4.6c-2.9,2.9-4.6,6.8-4.6,11.2c0,4.4,1.8,8.3,4.6,11.2c2.9,2.9,6.8,4.6,11.2,4.6
		c4.4,0,8.3-1.8,11.2-4.6c2.9-2.9,4.6-6.8,4.6-11.2C74.7,49.3,72.9,45.3,70,42.5L70,42.5z"/>
	<path class="st2" d="M67.6,48.3c-0.6,0.3-1.3,0.5-2.1,0.6c0.8-0.4,1.3-1.1,1.6-2c-0.7,0.4-1.5,0.7-2.3,0.9
		c-0.6-0.7-1.6-1.1-2.6-1.1c-2,0-3.6,1.6-3.6,3.5c0,0.3,0,0.6,0.1,0.8c-3-0.1-5.7-1.6-7.4-3.7c-0.3,0.5-0.5,1.1-0.5,1.8
		c0,1.2,0.6,2.3,1.6,3c-0.6,0-1.1-0.2-1.6-0.4c0,0,0,0,0,0c0,0.5,0.1,0.9,0.2,1.3c0.4,1.1,1.4,2,2.6,2.2c-0.3,0.1-0.6,0.1-1,0.1
		c-0.2,0-0.5,0-0.7-0.1c0.5,1.4,1.8,2.4,3.4,2.5c-1.2,1-2.8,1.5-4.5,1.5c-0.3,0-0.6,0-0.9,0c1.6,1,3.5,1.6,5.5,1.6
		c5.6,0,9.1-3.9,10-7.9c0.2-0.7,0.2-1.4,0.2-2.1c0-0.2,0-0.3,0-0.5C66.5,49.7,67.1,49,67.6,48.3L67.6,48.3z"/>
</g>
</svg>
