<?xml version="1.0" encoding="utf-8"?>
<!-- Generator: Adobe Illustrator 13.0.0, SVG Export Plug-In . SVG Version: 6.00 Build 14948)  -->
<!DOCTYPE svg PUBLIC "-//W3C//DTD SVG 1.1//EN" "http://www.w3.org/Graphics/SVG/1.1/DTD/svg11.dtd">
<svg version="1.1" id="Layer_1" xmlns="http://www.w3.org/2000/svg" xmlns:xlink="http://www.w3.org/1999/xlink" x="0px" y="0px"
	 width="26.672px" height="26.67px" viewBox="0 0 26.672 26.67" enable-background="new 0 0 26.672 26.67" xml:space="preserve">
<g>
	<g>
		<path fill="#FFFFFF" d="M20.415,15.635c-0.349-0.326-0.802-0.669-0.826-1.119c-0.035-0.593,0.545-1.187,0.826-1.557
			c0.703-0.927,1.343-1.607,1.994-2.677c0.172-0.28,0.727-1.299,0.54-1.703c-0.229-0.486-1.487-0.291-2.19-0.291
			c-0.859,0-1.799-0.174-2.388,0.048c-0.387,0.147-0.614,0.945-0.828,1.41c-0.517,1.134-0.934,1.895-1.604,2.776
			c-0.307,0.402-0.593,0.917-1.118,0.972c-0.686-0.458-0.514-1.485-0.485-2.481c0.022-0.888,0.288-2.07-0.101-2.726
			c-0.38-0.644-1.746-0.536-2.724-0.536c-1.164,0-2.129,0.07-2.482,0.779C9.451,8.78,9.871,8.789,10.1,9.21
			c0.243,0.447,0.267,1.494,0.243,2.336c-0.02,0.741-0.064,1.9-0.534,1.995c-0.486,0.099-0.899-0.634-1.168-1.021
			c-0.621-0.895-1.094-1.683-1.605-2.776C6.812,9.271,6.531,8.524,6.256,8.382C5.789,8.146,4.797,8.287,4.163,8.287
			c-0.75,0-1.492-0.129-1.947,0.243c0,0.792,0.416,1.499,0.73,2.141c0.968,1.977,2.014,3.778,3.358,5.498
			c1.257,1.612,2.691,3.109,5.498,3.408c0.889,0.093,2.18,0.19,2.482-0.342c0.374-0.657-0.072-2.192,0.826-2.336
			c0.633-0.102,1.162,0.778,1.51,1.167c0.612,0.688,1.33,1.434,2.387,1.605c0.029,0,0.063,0,0.095,0
			c0.943-0.286,3.747,0.461,3.895-0.729c0.047-0.381-0.452-1.02-0.681-1.314C21.701,16.847,21.17,16.335,20.415,15.635z"/>
	</g>
</g>
</svg>
