<?xml version="1.0" encoding="utf-8"?>
<!-- Generator: Adobe Illustrator 24.0.2, SVG Export Plug-In . SVG Version: 6.00 Build 0)  -->
<svg version="1.1" id="Слой_1" xmlns="http://www.w3.org/2000/svg" xmlns:xlink="http://www.w3.org/1999/xlink" x="0px" y="0px"
	 viewBox="0 0 116.2 116.2" style="enable-background:new 0 0 116.2 116.2;" xml:space="preserve">
<style type="text/css">
	.st0{fill-rule:evenodd;clip-rule:evenodd;fill:#426E97;}
	.st1{fill:#DADADA;}
	.st2{fill-rule:evenodd;clip-rule:evenodd;fill:#FFFFFF;}
</style>
<g>
	<circle class="st0" cx="56" cy="58.8" r="16.7"/>
	<g>
		<path class="st1" d="M56,41.5c4.8,0,9.1,1.9,12.2,5c3.1,3.1,5,7.4,5,12.2c0,4.8-1.9,9.1-5,12.2C65,74,60.7,76,56,76
			c-4.8,0-9.1-1.9-12.2-5c-3.1-3.1-5-7.4-5-12.2c0-4.7,1.9-9.1,5-12.2C46.9,43.5,51.2,41.5,56,41.5L56,41.5z M67.2,47.5
			c-2.9-2.9-6.8-4.6-11.2-4.6s-8.3,1.8-11.2,4.6c-2.9,2.9-4.6,6.8-4.6,11.2c0,4.4,1.8,8.3,4.6,11.2c2.9,2.9,6.8,4.6,11.2,4.6
			s8.3-1.8,11.2-4.6c2.9-2.9,4.6-6.8,4.6-11.2C71.8,54.4,70.1,50.4,67.2,47.5L67.2,47.5z"/>
		<path class="st2" d="M65.5,54c-0.3-0.2-1.2-0.2-2.1-0.2c-0.9,0-1.9,0-2.1,0.1c-0.2,0.1-0.6,1.2-1.2,2.3c-0.7,1.3-1.5,2.5-2,2.5
			c-0.7,0-0.5-2.1-0.5-3.6c0-1-0.2-1.3-0.3-1.4C57,53.3,56,53.1,56,53.1s-2.9-0.2-3.3,1c0.6,0.1,1.5-0.1,1.1,3.8
			c0,0.2-0.4,1.8-1.8-0.4c-0.3-0.5-1.6-3.8-2.1-3.8c-1.5,0-3-0.1-3.5,0.2c-0.5,0.3,0.6,2.5,2.6,5.5c1.6,2.5,3.2,4.4,6.1,4.8
			c0.5,0.1,1.9,0.1,2.4-0.1c0.3-0.1-0.1-2.3,0.9-2.5c0.4-0.1,2.2,2.2,2.8,2.5c0.4,0.2,1.3,0.2,2.2,0.2c1,0,2.1,0.1,2.2-0.6
			c0.2-1.5-2.9-3.4-3-4.3c-0.1-0.6,1.2-1.8,1.8-2.8C65.1,55.7,66,54.4,65.5,54L65.5,54z"/>
	</g>
</g>
</svg>
