<?xml version="1.0" encoding="utf-8"?>
<!-- Generator: Adobe Illustrator 24.0.2, SVG Export Plug-In . SVG Version: 6.00 Build 0)  -->
<svg version="1.1" id="Слой_1" xmlns="http://www.w3.org/2000/svg" xmlns:xlink="http://www.w3.org/1999/xlink" x="0px" y="0px"
	 viewBox="0 0 56.7 56.7" style="enable-background:new 0 0 56.7 56.7;" xml:space="preserve">
<style type="text/css">
	.st0{fill:#FFFFFF;stroke:#00C1FF;stroke-miterlimit:10;}
	.st1{fill-rule:evenodd;clip-rule:evenodd;stroke:#00C1FF;stroke-miterlimit:10;}
</style>
<g>
	<path class="st0" d="M46.9,45.8c0,0-14,0.4-18.7,0.4S9.5,45.8,9.5,45.8c-3.6,0-6.6-3-6.6-6.6c0,0-0.4-8.2-0.4-11s0.4-11,0.4-11
		c0-3.6,3-6.6,6.6-6.6c0,0,14-0.4,18.7-0.4s18.7,0.4,18.7,0.4c3.6,0,6.6,3,6.6,6.6c0,0,0.4,8.2,0.4,11s-0.4,11-0.4,11
		C53.5,42.8,50.5,45.8,46.9,45.8z"/>
	<polygon class="st1" points="23.3,36.2 23.3,20.2 36.3,28.2 	"/>
</g>
</svg>
