<svg width="47" height="42" fill="none" xmlns="http://www.w3.org/2000/svg"><path d="M7.28 12.733l2.4-7.38h1.56l2.4 7.38h-1.29l-.57-1.75H9.11l-.56 1.75H7.28zm2.12-2.86h2.08l-1.04-3.46-1.04 3.46zm24.973 2.86v-7.38h2.82c.694 0 1.207.164 1.54.49.334.327.5.804.5 1.43 0 .447-.096.81-.29 1.09a1.3 1.3 0 01-.75.53c.2.054.397.15.59.29.2.134.364.327.49.58.134.247.2.557.2.93 0 .514-.086.92-.26 1.22a1.408 1.408 0 01-.74.63c-.32.127-.706.19-1.16.19h-2.94zm1.23-4.26h1.61a.75.75 0 00.6-.27c.154-.186.234-.43.24-.73.007-.38-.076-.643-.25-.79a.904.904 0 00-.62-.22h-1.58v2.01zm0 3.15h1.67c.307 0 .554-.083.74-.25.187-.166.28-.463.28-.89 0-.333-.096-.59-.29-.77a1.009 1.009 0 00-.73-.28h-1.67v2.19zM10.2 31.427c-.433 0-.817-.05-1.15-.15a1.738 1.738 0 01-.83-.55c-.22-.267-.387-.647-.5-1.14-.113-.494-.17-1.14-.17-1.94 0-.754.057-1.374.17-1.86.12-.487.293-.867.52-1.14.227-.274.507-.464.84-.57.333-.107.717-.16 1.15-.16.433 0 .85.033 1.25.1.4.066.73.14.99.22v.95a9.083 9.083 0 00-.81-.1c-.367-.04-.76-.06-1.18-.06-.313 0-.577.036-.79.11a.987.987 0 00-.52.38c-.133.186-.23.453-.29.8a8.2 8.2 0 00-.09 1.35c0 .546.027.993.08 1.34.053.346.143.616.27.81a.99.99 0 00.51.39c.22.073.493.11.82.11.5 0 .91-.01 1.23-.03.32-.027.577-.054.77-.08v.95c-.28.08-.613.146-1 .2-.387.046-.81.07-1.27.07zm24.173-.06v-7.38h3.05c.64 0 1.144.15 1.51.45.367.3.627.726.78 1.28.154.553.23 1.206.23 1.96 0 1.213-.21 2.133-.63 2.76-.42.62-1.05.93-1.89.93h-3.05zm1.23-1.11h1.7c.5 0 .86-.224 1.08-.67.22-.447.33-1.084.33-1.91 0-.674-.053-1.197-.16-1.57-.1-.374-.253-.634-.46-.78-.206-.154-.47-.23-.79-.23h-1.7v5.16z" fill="#fff"/><path stroke="#fff" stroke-width="1.5" d="M.75.75h18.867v36.1H.75zm26.633 0H46.25v36.1H27.383zM0 18.05h47"/></svg>