<svg width="44" height="44" fill="none" xmlns="http://www.w3.org/2000/svg"><path d="M37.457 17.554l1.418-.486C36.74 9.813 29.945 4.406 22 4.406S7.26 9.813 5.125 17.068l1.418.486a.529.529 0 01.27-.294h0c3.495-1.617 9.028-3.533 15.187-3.533 6.16 0 11.692 1.916 15.187 3.533h0c.124.057.218.16.27.294zM6.214 25.126l-1.46.341C6.13 32.28 11.564 37.715 18.34 39.17l.46-1.42a.529.529 0 01-.321-.406v-.001l-.43-3.095v-.002c-.61-4.274-4.02-7.683-8.294-8.293h-.002l-3.095-.43s0 0 0 0a.539.539 0 01-.444-.396zM25.2 37.749l.46 1.42c6.776-1.454 12.211-6.89 13.586-13.702l-1.46-.341a.539.539 0 01-.443.395h-.001l-3.095.43h-.002c-4.274.61-7.683 4.02-8.293 8.294v.002l-.43 3.095s0 0 0 0a.53.53 0 01-.322.407zM.75 22C.75 10.33 10.33.75 22 .75S43.25 10.33 43.25 22 33.67 43.25 22 43.25.75 33.67.75 22zm16.633 0A4.621 4.621 0 0022 26.617 4.621 4.621 0 0026.617 22 4.621 4.621 0 0022 17.383 4.621 4.621 0 0017.383 22z" stroke="#fff" stroke-width="1.5"/></svg>