<svg width="89" height="72" fill="none" xmlns="http://www.w3.org/2000/svg"><path d="M13.672 22.176l3.36-10.332h2.184l3.36 10.332H20.77l-.798-2.45h-3.738l-.784 2.45h-1.778zm2.968-4.004h2.912l-1.456-4.844-1.456 4.844zm48.11 4.004V11.844h3.947c.971 0 1.69.228 2.156.686.467.457.7 1.124.7 2.002 0 .625-.135 1.134-.406 1.526-.27.382-.62.63-1.05.742.28.074.556.21.826.406.28.186.509.457.686.812.187.345.28.78.28 1.302 0 .718-.121 1.288-.364 1.708-.233.41-.578.704-1.036.882-.448.177-.989.266-1.624.266H64.75zm1.721-5.964h2.254c.346 0 .626-.126.84-.378.215-.262.327-.602.336-1.022.01-.532-.107-.9-.35-1.106a1.266 1.266 0 00-.868-.308h-2.212v2.814zm0 4.41h2.338c.43 0 .775-.117 1.036-.35.262-.234.392-.649.392-1.246 0-.467-.135-.826-.406-1.078-.27-.262-.611-.392-1.022-.392h-2.338v3.066zM18.76 56.544c-.607 0-1.143-.07-1.61-.21a2.433 2.433 0 01-1.162-.77c-.308-.373-.541-.905-.7-1.596-.159-.69-.238-1.596-.238-2.716 0-1.055.08-1.923.238-2.604.168-.681.41-1.213.728-1.596a2.48 2.48 0 011.176-.798c.467-.15 1.003-.224 1.61-.224.607 0 1.19.047 1.75.14.56.093 1.022.196 1.386.308v1.33c-.243-.047-.62-.093-1.134-.14a15.268 15.268 0 00-1.652-.084c-.439 0-.807.051-1.106.154a1.38 1.38 0 00-.728.532c-.187.261-.322.635-.406 1.12-.084.485-.126 1.115-.126 1.89 0 .765.037 1.39.112 1.876.075.485.2.863.378 1.134.177.261.415.443.714.546.308.103.69.154 1.148.154.7 0 1.274-.014 1.722-.042a21.17 21.17 0 001.078-.112v1.33a10.33 10.33 0 01-1.4.28c-.541.065-1.134.098-1.778.098zm46.99.916V47.128h4.27c.895 0 1.6.21 2.113.63.514.42.878 1.017 1.092 1.792.215.775.322 1.69.322 2.744 0 1.699-.294 2.987-.882 3.864-.588.868-1.47 1.302-2.646 1.302h-4.27zm1.721-1.554h2.38c.7 0 1.204-.313 1.512-.938.308-.625.462-1.517.462-2.674 0-.943-.074-1.675-.224-2.198-.14-.523-.354-.887-.644-1.092-.289-.215-.658-.322-1.106-.322h-2.38v7.224z" fill="#fff"/><path stroke="#fff" stroke-width="1.5" d="M.75.75h37.067v69.7H.75zm50.433 0H88.25v69.7H51.183zM0 35.25h89"/></svg>