<svg width="76" height="76" fill="none" xmlns="http://www.w3.org/2000/svg"><path d="M10.095 29.847l.72.211c.135-.457.28-.91.438-1.358 0 0 0 0 0 0l.032-.091-.06.028c-.542.25-.927.695-1.13 1.21zm0 0c.177-.599.372-1.19.586-1.773l-.586 1.773zm55.112.274l1.417-.486C63.002 17.328 51.472 8.156 38 8.156S12.998 17.328 9.376 29.635l1.418.486c.137-.35.393-.64.745-.803h0c6.079-2.813 15.716-6.154 26.461-6.154s20.383 3.34 26.46 6.154h.002c.35.162.607.453.745.803zm-55 13.419l-1.46.341c2.33 11.551 11.552 20.775 23.046 23.24l.46-1.419a1.459 1.459 0 01-.875-1.124v-.002l-.743-5.346v-.003c-1.02-7.143-6.72-12.842-13.862-13.861h-.003l-5.346-.744h-.002a1.476 1.476 0 01-1.216-1.082zm33.54 22.162l.46 1.42c11.495-2.466 20.716-11.69 23.047-23.24l-1.46-.343a1.477 1.477 0 01-1.216 1.083h-.002l-5.346.743h-.003c-7.143 1.02-12.842 6.72-13.861 13.862v.002l-.744 5.347s0 0 0 0c-.073.51-.41.921-.875 1.126zM.75 38C.75 17.542 17.542.75 38 .75S75.25 17.542 75.25 38 58.458 75.25 38 75.25.75 58.458.75 38zm29.82 0c0 4.097 3.333 7.43 7.43 7.43 4.097 0 7.43-3.333 7.43-7.43 0-4.097-3.333-7.43-7.43-7.43-4.097 0-7.43 3.333-7.43 7.43z" stroke="#fff" stroke-width="1.5"/></svg>