<svg width="1440" height="257" fill="none" xmlns="http://www.w3.org/2000/svg"><mask id="a" fill="#fff"><path fill-rule="evenodd" clip-rule="evenodd" d="M0 112.063c2.713-1.817 66.835-44.07 103.15-11.728a1080.88 1080.88 0 0110.117 9.161c30.309 27.659 61.642 56.261 99.914 37.836 39.598-19.062 64.355-2.46 77.651 6.458 2.704 1.813 5.04 3.381 6.626 4.047l1.597.68c11.594 4.962 31.004 13.278 50.92-11.436 3.832-4.753 8.059-10.92 12.54-17.45 15.395-22.447 34.556-50.383 58.063-50.713.139-.004.278-.004.417-.004 12.529 0 24.682 7.958 36.13 23.657 4.078 5.593 7.872 10.907 11.444 15.911 19.274 26.998 32.006 44.834 46.932 46.799 10.098 1.336 22.218-4.256 39.256-18.123 25.126-20.446 40.974-29 54.709-29.519 14.05-.483 24.933 7.197 39.967 17.894l3.819 2.716c30.416 21.624 48.774 34.684 91.589-2.363 30.509-26.401 78.1-40.975 118.446-36.257 28.965 3.384 52.142 16.199 67.02 37.062 3.908 5.481 7.84 11.132 11.78 16.796 22.456 32.282 47.884 68.884 66.903 66.776 8.69-.96 16.68-10.414 23.75-28.098 29-72.513 56.09-151.096 56.36-151.88l.13-.324c1.84-4.242 18.64-41.375 41.92-39.92 16.71 1.074 30.39 21.204 41.81 61.545 4.8 16.94 9.59 35.783 14.23 54.009 15.89 62.46 35.66 140.194 59.08 141.395 9.73.419 26.47-12.688 50.84-78.352 26.92-72.526 53.17-109.99 80.22-114.529 23.15-3.892 40.74 17.055 52.37 30.918 4.06 4.834 7.89 9.4 10.3 10.876"/></mask><path d="M103.15 100.335l-.665.747.665-.747zm10.117 9.161l-.674.738v.001l.674-.739zm99.914 37.836l-.434-.901.434.901zm77.651 6.458l-.557.83v.001l.557-.831zm6.626 4.047l.392-.92-.005-.002-.387.922zm1.597.68l.393-.92-.002-.001-.391.921zm50.92-11.436l-.778-.628.778.628zm12.54-17.45l.824.566-.824-.566zm58.063-50.713l.014 1h.016l-.03-1zm36.547 23.653l.808-.589-.808.589zm11.444 15.911l-.814.581.814-.581zm46.932 46.799l.131-.991h-.001l-.13.991zm39.256-18.123l-.631-.775.631.775zm54.709-29.519l-.034-1h-.004l.038 1zm39.967 17.894l-.58.815.58-.815zm3.819 2.716l-.579.815.579-.815zm91.589-2.363l.655.757-.655-.757zm118.446-36.257l-.116.993.116-.993zm67.02 37.062l.815-.58-.815.58zm11.78 16.796l-.821.571.821-.571zm66.903 66.776l-.11-.994.11.994zm23.75-28.098l.93.372-.93-.372zm56.36-151.88l-.93-.36v.017l-.01.017.94.326zm.13-.324l-.92-.398-.01.018v.02l.93.36zM1131.15.04l.07-.997h-.01l-.06.998zm41.81 61.545l-.96.273.96-.273zm14.23 54.009l.97-.247-.97.247zm59.08 141.395l-.05.999v.001l.05-1zm50.84-78.352l.94.348-.94-.348zm80.22-114.529l.17.986-.17-.986zm52.37 30.918l-.77.643.77-.643zM.556 112.894c1.33-.89 17.947-11.848 38.725-18.553 20.833-6.723 45.467-9.056 63.204 6.741l1.33-1.494c-18.578-16.545-44.163-13.922-65.148-7.15-21.04 6.79-37.84 17.867-39.223 18.794l1.112 1.662zm101.929-11.812c3.35 2.983 6.715 6.053 10.108 9.152l1.349-1.476c-3.392-3.098-6.767-6.178-10.127-9.17l-1.33 1.494zm10.108 9.153c15.128 13.805 30.642 27.974 47.193 36.353 16.615 8.41 34.35 11.023 53.829 1.645l-.868-1.802c-18.792 9.047-35.861 6.571-52.058-1.628-16.26-8.231-31.567-22.192-46.748-36.046l-1.348 1.478zm101.022 37.998c19.605-9.438 35.464-10.02 48.035-7.189 12.601 2.838 21.978 9.118 28.625 13.576l1.114-1.661c-6.649-4.459-16.299-10.939-29.299-13.866-13.032-2.934-29.35-2.286-49.343 7.338l.868 1.802zm76.66 6.388c2.66 1.783 5.097 3.425 6.796 4.138l.774-1.844c-1.473-.619-3.708-2.113-6.456-3.956l-1.114 1.662zm6.792 4.136l1.596.68.783-1.841-1.596-.679-.783 1.84zm1.594.679c5.778 2.473 13.728 5.892 22.778 5.491 9.121-.405 19.206-4.675 29.315-17.219l-1.557-1.255c-9.808 12.17-19.386 16.1-27.847 16.476-8.533.378-16.085-2.842-21.902-5.332l-.787 1.839zm52.093-11.728c3.861-4.789 8.113-10.992 12.585-17.511l-1.649-1.132c-4.488 6.541-8.691 12.672-12.493 17.388l1.557 1.255zm12.585-17.511c7.709-11.24 16.299-23.759 25.879-33.516 9.594-9.77 20.021-16.604 31.374-16.763l-.028-2c-12.153.17-23.061 7.47-32.773 17.362-9.726 9.905-18.414 22.578-26.101 33.785l1.649 1.132zm57.269-50.28c.121-.003.246-.003.387-.003v-2c-.136 0-.29 0-.446.005l.059 1.999zm.387-.003c12.064 0 23.956 7.66 35.322 23.247l1.616-1.179c-11.529-15.81-23.944-24.068-36.938-24.068v2zm35.322 23.247c4.075 5.588 7.866 10.898 11.438 15.902l1.628-1.162c-3.572-5.004-7.368-10.321-11.45-15.919l-1.616 1.179zm11.438 15.902c9.623 13.48 17.665 24.748 25.175 32.884 7.502 8.127 14.619 13.296 22.44 14.326l.261-1.983c-7.105-.936-13.816-5.667-21.231-13.699-7.406-8.023-15.366-19.172-25.017-32.69l-1.628 1.162zm47.614 47.21c10.555 1.396 22.975-4.468 40.019-18.339l-1.262-1.551c-17.032 13.861-28.853 19.182-38.494 17.907l-.263 1.983zm40.019-18.339c25.133-20.452 40.748-28.79 54.116-29.296l-.076-1.999c-14.102.534-30.183 9.303-55.302 29.744l1.262 1.551zm54.112-29.296c13.65-.469 24.249 6.963 39.353 17.71l1.16-1.63c-14.963-10.646-26.131-18.575-40.581-18.079l.068 1.999zm39.353 17.71l3.82 2.716 1.159-1.63-3.82-2.716-1.159 1.63zm3.82 2.716c15.139 10.763 27.564 19.633 41.627 21.001 14.154 1.377 29.716-4.837 51.196-23.422l-1.309-1.513c-21.336 18.462-36.36 24.241-49.693 22.944-13.424-1.306-25.386-9.779-40.662-20.64l-1.159 1.63zm92.823-2.421c30.295-26.216 77.606-40.706 117.675-36.021l.232-1.987c-40.622-4.75-88.493 9.909-119.216 36.495l1.309 1.513zm117.675-36.021c28.728 3.357 51.631 16.049 66.322 36.65l1.629-1.161c-15.066-21.127-38.516-34.063-67.719-37.475l-.232 1.986zm66.322 36.65c3.904 5.475 7.833 11.122 11.773 16.786l1.642-1.142c-3.939-5.663-7.875-11.319-11.786-16.805l-1.629 1.161zm11.773 16.786c11.218 16.126 23.225 33.403 34.815 46.38 5.796 6.488 11.523 11.944 17.031 15.65 5.495 3.698 10.888 5.734 15.988 5.169l-.22-1.988c-4.42.49-9.328-1.259-14.651-4.84-5.31-3.573-10.91-8.89-16.656-15.324-11.492-12.867-23.427-30.033-34.665-46.189l-1.642 1.142zm67.834 67.199c4.69-.518 9.07-3.317 13.14-8.126 4.06-4.808 7.87-11.701 11.43-20.594l-1.85-.743c-3.52 8.79-7.24 15.466-11.11 20.046-3.87 4.579-7.83 6.987-11.83 7.429l.22 1.988zm24.57-28.72c29.01-72.538 56.11-151.14 56.38-151.927l-1.89-.651c-.27.782-27.36 79.345-56.34 151.835l1.85.743zm56.37-151.892l.12-.324-1.86-.72-.13.323 1.87.72zm.11-.286c.91-2.094 5.53-12.352 12.79-21.888 7.32-9.605 17.06-18.125 28.15-17.431l.12-1.996c-12.19-.763-22.5 8.557-29.86 18.214-7.41 9.727-12.11 20.157-13.04 22.305l1.84.796zm40.94-39.32c7.92.51 15.28 5.534 22.12 15.612 6.85 10.08 13.09 25.078 18.79 45.208l1.93-.545c-5.73-20.212-12.04-35.448-19.06-45.787C1147.84 5.185 1140-.392 1131.22-.956l-.13 1.996zM1172 61.86c4.8 16.925 9.58 35.753 14.22 53.982l1.94-.493c-4.64-18.222-9.43-37.078-14.23-54.034l-1.93.545zm14.22 53.982c7.94 31.216 16.87 66.316 26.75 93.762 4.93 13.719 10.12 25.583 15.58 34.11 2.73 4.264 5.55 7.733 8.46 10.185 2.92 2.453 6 3.926 9.21 4.091l.1-1.997c-2.65-.136-5.31-1.354-8.02-3.626-2.71-2.274-5.4-5.562-8.07-9.731-5.33-8.338-10.46-20.036-15.38-33.709-9.84-27.336-18.74-62.334-26.69-93.578l-1.94.493zm60 142.149c5.38.231 12.28-3.29 20.78-14.8 8.53-11.544 18.85-31.339 31.05-64.204l-1.88-.696c-12.17 32.799-22.41 52.39-30.77 63.711-8.4 11.355-14.74 14.178-19.09 13.99l-.09 1.999zm51.83-79.004c13.45-36.229 26.7-63.636 39.94-82.534 13.25-18.92 26.38-29.153 39.51-31.357l-.33-1.972c-13.93 2.336-27.45 13.104-40.82 32.182-13.38 19.1-26.7 46.688-40.18 82.985l1.88.696zm79.45-113.89c11.21-1.885 21.12 2.226 29.74 8.617 8.64 6.402 15.87 15.012 21.69 21.957l1.54-1.285c-5.8-6.919-13.18-15.714-22.04-22.278-8.87-6.575-19.33-10.991-31.26-8.984l.33 1.972zm51.43 30.574c2.03 2.412 4.01 4.78 5.8 6.729 1.76 1.925 3.41 3.536 4.75 4.357l1.04-1.706c-1.07-.655-2.55-2.065-4.32-4.001-1.74-1.91-3.7-4.243-5.73-6.665l-1.54 1.286z" fill="#13A7A5" mask="url(#a)"/></svg>