<svg xmlns="http://www.w3.org/2000/svg" viewBox="0 0 37 37"><linearGradient id="a" gradientUnits="userSpaceOnUse" x1="2.482" y1="9.252" x2="34.518" y2="27.748"><stop offset="0" stop-color="#5ac9aa"/><stop offset=".497" stop-color="#5ab8ce"/><stop offset=".995" stop-color="#3e8dad"/><stop offset="1" stop-color="#3e8dad"/></linearGradient><path d="M18.5 37C8.3 37 0 28.7 0 18.5S8.3 0 18.5 0 37 8.3 37 18.5 28.7 37 18.5 37zm0-36.3C8.7.7.7 8.7.7 18.5s8 17.8 17.8 17.8 17.8-8 17.8-17.8S28.3.7 18.5.7z" fill="url(#a)"/><linearGradient id="b" gradientUnits="userSpaceOnUse" x1="13.541" y1="15.028" x2="24.253" y2="21.213"><stop offset="0" stop-color="#5ac9aa"/><stop offset=".497" stop-color="#5ab8ce"/><stop offset=".995" stop-color="#3e8dad"/><stop offset="1" stop-color="#3e8dad"/></linearGradient><path d="M15.7 12.5v2.9h-2.1v3.5h2.1v9.6H20v-9.6h2.9s.3-1.7.4-3.5H20V13c0-.4.5-.8.9-.8h2.3V8.5H20c-4.4 0-4.3 3.5-4.3 4" fill="url(#b)"/></svg>