<svg xmlns="http://www.w3.org/2000/svg" viewBox="0 0 180 122"><linearGradient id="a" gradientUnits="userSpaceOnUse" x1="39.051" y1="48.627" x2="152.179" y2="113.942"><stop offset="0" stop-color="#59caab"/><stop offset=".497" stop-color="#5ab9cf"/><stop offset=".995" stop-color="#3e8dae"/></linearGradient><path d="M72.1 106.1c-.8.4-1.1 1.4-.8 2.2l-2.9-.8c-.3-.1-.6-.1-.8.1-.2.1-.4.4-.5.7v.2l-.9 3.2-.2.6h.7c.3.1.5.1.7 0 .5-.3 1.1-.1 1.3.3.4.8-.2 1.2-.3 1.3-.4.2-.9.2-1.2-.2-.1-.2-.3-.4-.5-.5-.2-.1-.4-.1-.5-.1h-.4l-1.1 3.9c-.1.3-.1.6.1.8.1.2.3.4.6.5l3.4.9.6.2v-.7c.1-.2.1-.5 0-.7-.3-.5-.1-1.1.3-1.3.7-.3 1.1 0 1.3.3.2.4.2.9-.2 1.2-.2.1-.4.3-.5.5l-.3.9 4.1 1.1c.1 0 .2.1.3.1.2 0 .3 0 .5-.1s.4-.3.5-.6l.8-2.9c.7.7 1.7.7 2.3.3.7-.4 1.2-1.4.7-2.6-.4-.7-1.3-1.1-2.2-.8l.8-2.9c.1-.3.1-.6-.1-.8-.1-.2-.3-.4-.6-.5l-2.9-.8c.8-.7.8-1.7.4-2.4-.3-.5-.9-.9-1.6-.9-.2.1-.5.2-.9.3m22.8-5.8c-1.1 0-2 .9-2 2V120c0 1.1.9 2 2 2h7.8c1.1 0 2-.9 2-2v-17.8c0-1.1-.9-2-2-2h-7.8zm17.4-9.5c-1.1 0-2 .9-2 2V120c0 1.1.9 2 2 2h7.8c1.1 0 2-.9 2-2V92.8c0-1.1-.9-2-2-2h-7.8zm17.4-8.8c-1.1 0-2 .9-2 2v36c0 1.1.9 2 2 2h7.8c1.1 0 2-.9 2-2V84c0-1.1-.9-2-2-2h-7.8zm17.5-24.2c-1.1 0-2 .9-2 2V120c0 1.1.9 2 2 2h7.8c1.1 0 2-.9 2-2V59.7c0-1.1-.9-2-2-2h-7.8zm-.9-24.4l-11.1 8c-.9.6-1.1 1.9-.5 2.8.6.9 1.9 1.1 2.8.5l6.4-4.6c-15 41-50 48.3-50.3 48.4-1.1.2-1.8 1.3-1.6 2.3.2 1 1 1.6 2 1.6h.4c.4-.1 37.7-7.8 53.4-51.2l2.8 6.7c.3.8 1.1 1.2 1.8 1.2.3 0 .5 0 .8-.1 1-.4 1.5-1.6 1.1-2.6l-4.9-12c-.2-.6-.7-1-1.3-1.2-.2-.1-.4-.1-.6-.1-.4-.1-.8 0-1.2.3M69.5 92.1c.1-.1.3-.3.4-.5 1.1.6 3.2 2.7 3.7 3.9.3.6-.2 1.5-1.1 2.5h-.1c-2.1 2.3-6.3 5-8.1 6.1-.1 0-.1.1-.2.1H64c-.2 0-.7-.6-1.4-1.9-.1-.2-.3-.5-.4-.7-.2-.4-.5-.8-.8-1.3-.4-.6-.8-1.3-1.1-1.9-.1-.2-.2-.3-.3-.5h.1c2.3.2 9.3-5.8 9.4-5.8m-16.1 11.5c-2.6-1.7-10.4-6.7-9.5-8.8.6-1.3 2.8-3.3 4-3.9.1.3.3.5.5.6l.4.3c4.6 3.4 7.5 5.1 9.4 5.8-.1.1-.1.2-.1.3-.2.1-.4.3-.5.5l-1.2 1.8c-.2.3-.5.6-.7.9-.1.2-.3.4-.4.7-.3.6-1.1 1.9-1.5 1.9 0 0-.2 0-.4-.1m-1.5-13.3v-7.7c3 1.1 6.1 1.7 9.1 1.7 1.6 0 3.2-.2 4.8-.5V91c-1.9 1.4-4.5 3.4-5.6 3.9-.2-.1-.4-.1-.6-.1-.4 0-2-.5-7.7-4.5m17-7.4c2.4-.9 4.8-2.2 6.9-4-.1 4-.4 9.8-1.3 12.6-1.5-1.7-3.5-3.2-5.1-3.2-.2 0-.4 0-.5.1v-5.5zm-38.1 3.6c1.3-8.4 2.3-12.1 2.8-13.7 1 .3 2.1.5 3.4.5.9 0 1.9-.1 3-.3 2.5 4.3 5 6.1 8.9 8.2v6.6c-.2 0-.3-.1-.5-.1-2.4 0-5.8 3.3-7 5.4-5.1 1.7-8.7 4.2-10.6 7.4-.7-2.6-1.1-7 0-14m9-28.8c.3-.3.6-.6.6-1.1.1-1 .2-1.7.3-2.3.1-1 .2-1.7.3-3.1.6-.1 1.2-.2 1.8-.2 5-.6 11.1-1.4 16.9-7.3 5.2 8.9 11.4 11.3 16.1 11.5l-.5 20.1c-4.1 3.9-9 5.9-14.2 5.9-2.8 0-5.7-.6-8.5-1.7-5.3-2.6-7.7-3.9-10.4-9-.3-.5-.8-.8-1.4-.8-.1 0-.3 0-.4.1-3.5.9-6.4.5-8-1.3-1-1.1-1.5-2.5-1.5-4.1 0-3.2 2.1-6.4 6.1-6.4.5 0 1.1.1 1.7.2h.3c.2-.2.5-.3.8-.5m5.4-26.9c13.9-7.3 28.3-4.5 35.7 7 5.2 8.1 5.2 18.9 4.7 25 0 0-1.1 5.4-1 7.7.1 2.3.4 13.9-.1 18.3-.4 4.2-2.7 10.1-3.1 10.2l-4.9-4.6 1.2-3.3c1.3-5.7 1.2-15.7 1-16.9-.1-.3-.2-.5-.4-.8l.5-19.7c0-.4-.2-.8-.5-1.1-.3-.3-.7-.5-1.1-.4-6.3.3-11.8-3.8-16-11.8-.2-.5-.7-.8-1.2-.8-.5-.1-1 .2-1.4.6-5.4 6.5-11 7.2-16.4 7.9-1.1.1-2.1.3-3.2.5-.7.1-1.2.7-1.2 1.4-.2 2.1-.3 2.9-.4 4.2 0 .2-.1.5-.1.8-.6 0-1.2 0-1.8.1-.5-4.3-1.9-18.3 9.7-24.3m15.3-7.1c-5.4 0-11.1 1.4-16.8 4.4-13.7 7.1-11.8 23.5-11 27.7-3.3 1.6-5 5.2-5 8.5 0 2.4.8 4.6 2.3 6.2.2.3.5.5.9.8-.7 1.9-1.8 6-3.1 14.7-.6 3.2-.8 6-.8 8.3v.2c0 5.8 1.3 8.9 2 10.2-2.2 6.6-1.9 11.3-1.4 16h3.1c-.6-5.2-.9-9.8 2.1-17.3 1.1-2.9 3.9-5.2 8.2-6.9 1 3.2 5.6 6.4 10.7 9.7.7.4 1.4.7 2.1.7 2.2 0 3.4-2.1 4.2-3.4.1-.2.2-.4.3-.5.2-.2.4-.5.6-.8 0 0 0 .1.1.1.3.4.5.8.7 1.1l.3.6c.8 1.4 1.9 3.5 4.1 3.5.7 0 1.3-.2 2-.6.1-.1.2-.1.3-.2 3.8-2.4 7.4-5.2 9.2-7.6 1.2.7 2.1 1.8 2.8 2.8 4.7 6.2 5.6 13.5 5.4 18.9h2.8c.1-1.3.2-3.4.1-5.4-.4-3.9-1.5-8.3-3.8-12.3 0 0 3.5-5.2 4.2-9.9.7-4.7.7-21.5.7-23.3 0-1.8 1.2-7.3 1.3-8.6.3-6.8-.3-16.9-5.5-24.9-5.4-8.4-13.7-12.7-23.1-12.7z" fill="url(#a)"/></svg>