<svg xmlns="http://www.w3.org/2000/svg" viewBox="0 0 37 37"><linearGradient id="a" gradientUnits="userSpaceOnUse" x1="2.482" y1="9.252" x2="34.518" y2="27.748"><stop offset="0" stop-color="#5ac9aa"/><stop offset=".497" stop-color="#5ab8ce"/><stop offset=".995" stop-color="#3e8dad"/><stop offset="1" stop-color="#3e8dad"/></linearGradient><path d="M18.5 0C8.3 0 0 8.3 0 18.5S8.3 37 18.5 37 37 28.7 37 18.5 28.7 0 18.5 0zm0 36.3C8.7 36.3.7 28.3.7 18.5S8.7.7 18.5.7s17.8 8 17.8 17.8-8 17.8-17.8 17.8z" fill="url(#a)"/><linearGradient id="b" gradientUnits="userSpaceOnUse" x1="9.143" y1="13.14" x2="28.057" y2="24.06"><stop offset="0" stop-color="#5ac9aa"/><stop offset=".497" stop-color="#5ab8ce"/><stop offset=".995" stop-color="#3e8dad"/><stop offset="1" stop-color="#3e8dad"/></linearGradient><path d="M27.5 12.4c-.4-.4-.9-.6-1.5-.7-1.2-.1-2.5-.2-3.7-.2h-7.4c-1.2 0-2.5.1-3.7.2-.6.1-1.1.3-1.5.7-.4.4-.7.9-.8 1.4-.2.8-.3 1.6-.3 2.4V21c0 .8.1 1.6.3 2.4.1.6.4 1.1.8 1.4.4.4.9.6 1.5.7 1.2.1 2.5.2 3.7.2h7.4c1.2 0 2.5-.1 3.7-.2.6-.1 1.1-.3 1.5-.7.4-.4.7-.9.8-1.4.2-.8.3-1.6.3-2.4v-2.5c0-1.5 0-3.2-.3-4.7-.1-.6-.4-1.1-.8-1.4zm-11.8 9.5v-7.3l7 3.7-7 3.6z" fill="url(#b)"/></svg>