<svg xmlns="http://www.w3.org/2000/svg" viewBox="0 0 180 122"><linearGradient id="a" gradientUnits="userSpaceOnUse" x1="21.363" y1="382.623" x2="159.181" y2="462.193" gradientTransform="translate(0 -356)"><stop offset="0" stop-color="#59caab"/><stop offset=".497" stop-color="#5ab9cf"/><stop offset=".995" stop-color="#3e8dae"/><stop offset="1" stop-color="#3e8dae"/></linearGradient><path d="M123.7 95.2c-.1.5.3 1 .8 1l10.6 1.3h.1c.5 0 .8-.3.9-.8.1-.5-.3-1-.8-1l-10.6-1.3h-.1c-.5 0-.9.4-.9.8m15.3-3.7h-.2l1.1-1.1h.2c.2 0 .4.1.5.1s.2.1.2.2-.1.2-.2.4c-.2.2-.3.3-.5.4s-.3.1-.5.1-.4 0-.6-.1m-4 2.2l1.4.2 1.4-1.5.8.1h.9c.3 0 .6-.1.9-.2.3-.1.6-.2.8-.4.3-.2.5-.4.8-.7.3-.3.5-.6.5-.8 0-.2 0-.4-.2-.6-.2-.1-.5-.2-.9-.3l-2.2-.3-4.2 4.5zm-19.1-4l2 .3.9-.9-2-.3-.9.9zm18.3 1.2h-.2l1-1.1h.2c.2 0 .4.1.5.1s.2.1.2.2-.1.2-.2.4c-.2.2-.3.3-.5.4s-.3.1-.5.1c-.1 0-.3 0-.5-.1m-4 2.2l1.4.2 1.4-1.5.8.1h.9c.3 0 .6-.1.9-.2.3-.1.6-.2.8-.4.3-.2.5-.4.8-.7.3-.3.5-.6.5-.8 0-.2 0-.4-.2-.6-.2-.1-.5-.2-.9-.3l-2.1-.3-4.3 4.5zm-2.3-2.1l1.9-1.3-.8 1.5-1.1-.2zm-3.8 1.4l1.5.2 1.1-.7 1.9.2-.4.8 1.5.2 2.3-4.7-1.5-.2-6.4 4.2zm-7-.9l1.4.2 2.9-2.5-1.2 2.7.6.1 3.8-2.4-2.1 2.6 1.4.2 3.5-4.5-1.4-.2-3.5 2.2 1.2-2.5-1.4-.2-5.2 4.3zm-5-1.6h-.2l.9-1h.3c.3 0 .5.1.6.2s.1.2-.1.4-.4.3-.7.3h-.3c-.1.1-.3.1-.5.1m1.7-1.8h-.2l.8-.9h.1c.3 0 .4.1.5.2s.1.2-.1.4-.3.3-.5.3h-.6m-4.2 2.4l2.2.3c.6.1 1.1 0 1.7-.1s1.1-.4 1.5-.9c.3-.3.5-.6.5-.8 0-.2-.2-.4-.5-.5.6-.1 1-.4 1.5-.8.7-.8.6-1.2-.5-1.3l-2-.3-4.4 4.4zm-3.8-.4l1.1.1 6.6-4.1-1.5-.2-3.9 2.5 1.3-2.8-1.5-.2-2.1 4.7zm46.5 11.5c.1-.7-.3-1.5-1.1-1.6l-10.5-2.1 4.2-4.4 15.6 3.1-26.1 22.6-23.5-4.7 11.4 1.4h.2c.4 0 .7-.1 1-.4l7.2-7.4c.2.3.5.6.9.7l9.7 1.9h.3c.6 0 1.2-.5 1.3-1.1.1-.7-.3-1.5-1.1-1.6l-9.3-1.8 1.8-1.8 11.7 2.4h.3c.6 0 1.2-.5 1.3-1.1.1-.7-.3-1.5-1.1-1.6l-9.9-2 1.8-1.8 12.3 2.4h.3c.6 0 1.2-.4 1.3-1.1m-68.1 6.8l28.7-29.6 37.9 4.7-28.7 29.6-37.9-4.7zm9.5-31.5c.8 0 1.4-.6 1.4-1.4v-.7c3.3.5 6.2 2.1 8 3.3-4 1.7-13.7 4.6-26.1.5h-.1c1.6-1.1 4.9-3.1 8.7-3.7v.6c0 .8.6 1.4 1.4 1.4h6.7zm-34.9-3.4c-1.3 1.8-5.2 3.5-11.4 3.3-4.7-.1-6.7-1.3-7.6-2.3-.2-.2-.3-.4-.4-.6 2.8.2 5.7.4 8.8.4 3.5 0 7.2-.3 10.6-.8m7.3-1.3c5.1-1.3 8.8-2.9 9.4-4.6l.3-.9h9.7v5.5c-6.3.8-11.4 5-11.6 5.2s-.3.4-.4.6c-1.9-2.4-4.4-4.4-7.4-5.8m22.3-5.6h4v7.5h-4v-7.5zm.4-3.8c.3-1.3.5-2.2.8-2.8.6-1.6 2.2-2.9 4.5-3.9.8 2 3.7 3.9 6.5 5.8.5.3.9.4 1.4.4 1.5 0 2.3-1.4 2.8-2.3l.2-.2.1-.1c.1.1.2.2.2.4.1.1.1.2.2.3.5.9 1.2 2.3 2.7 2.3.5 0 .9-.1 1.4-.4.1 0 .2-.1.2-.1 1.8-1.2 4.2-2.9 5.5-4.5.6.4 1 .9 1.4 1.4l.1.1c.9 1.1 1.6 2.5 2.1 3.9H88.8v-.3zm17.5-5.9c1.8-.5 5.5-3.6 5.5-3.7l.1-.1c.7.5 1.7 1.5 1.9 2.1.1.2-1.2 2.9-5.5 4.9-.1 0-1.8-2.8-2-3.2m-4.3 2.9c-5.5-3.6-5.8-4.7-5.6-5 .3-.6 1.4-1.7 2.1-2.1.1.1.2.2.3.2l.2.2c2.7 1.9 4.3 2.9 5.4 3.4-.1.1-.1.2-.2.2-.2.4-.5.7-.7 1.1-.1.2-.3.4-.4.6-.1.1-.2.3-.2.4-.5.8-.7 1-.7 1-.1.1-.2 0-.2 0m-.8-8v-4.1c2.6.9 5.3 1.2 7.9.7v4c-1.1.9-2.5 1.9-3.1 2.2h-.4c-.1-.2-1-.4-4.4-2.8m10.3-4.1c1.3-.5 2.5-1.2 3.6-2-.1 2.2-.2 4.9-.6 6.5-.6-.6-1.9-1.7-3-1.7h-.1l.1-2.8zm-23.1 2c.7-4.7 1.3-7 1.6-8 1.1.3 2.2.3 3.5.1 1.5 2.5 3 3.6 5.3 4.8v3.5c-1.6 0-3.7 2.1-4.4 3.3-2.9 1-4.9 2.3-6.1 4-.4-1.5-.5-4 .1-7.7m5.3-17.3c.3-.2.4-.5.5-.8.1-.6.1-1 .2-1.4.1-.6.1-1 .2-1.7.2 0 .5-.1.7-.1h.2c3-.4 6.7-.9 10.1-4.3 3.2 5.2 6.9 6.6 9.6 6.8l-.4 11.9c-2.4 2.3-5.3 3.4-8.4 3.4-1.7 0-3.4-.3-5.1-1-3.1-1.5-4.6-2.3-6.2-5.4-.2-.4-.6-.6-1.1-.6h-.3c-2 .5-3.7.3-4.6-.7-.5-.6-.8-1.4-.8-2.3 0-1.8 1.2-3.6 3.4-3.6.3 0 .6 0 1 .1h.2c.3 0 .6-.1.8-.3m-54.2-9c2.5-3.6 6.9-6 8.4-6.8 3.3-.4 9-.4 13.4 3.2 7.2 6 11.3 11.7 12.2 24.7 1 14.4-.7 20.5-1 21.6-1.2 1.2-11.2 4.7-24.3 4.7-14.4 0-23.4-2.6-24.5-3.7-1.2-1.2-5-13.6-2.5-28.6 1.3-8.1 4.9-14.7 10.2-18.4 3-2.2 6.4-3.2 10-3.2h.7c-1.7 1.3-3.5 2.9-4.9 4.9-.4.6-.3 1.5.4 1.9.2.2.5.2.8.2.4.1.8-.1 1.1-.5M97 16.1c8.3-4.4 16.9-2.7 21.3 4.2 3.2 4.9 3.1 11.5 2.8 15 0 .1-.7 3.3-.6 4.7 0 .1.3 8.2 0 11.1-.2 2.3-1.3 5.1-1.7 5.9l-2.6-2.4.7-1.9c.8-3.6.7-9.6.6-10.4 0-.2-.1-.4-.2-.5l.3-11.9c0-.3-.1-.7-.4-.9-.2-.2-.6-.4-.9-.3h-.3c-3.6 0-6.7-2.4-9.1-7-.2-.4-.5-.6-.9-.6s-.8.1-1.1.4c-3.2 3.9-6.5 4.3-9.8 4.7-.6.1-1.3.2-1.9.3-.5.1-.9.5-1 1.1-.1 1.3-.2 1.8-.2 2.5v.2h-.6c-.5-2.9-1.1-10.8 5.6-14.2M49.8 7.8c.2-.2.6-.4 1-.4h79c.6 0 1.1.5 1.1 1v53.5c0 .5-.5 1-1.1 1h-8.5c-.4-1.2-.8-2.3-1.4-3.3.4-.7 2.1-3.4 2.5-6 .4-2.7.4-11.6.4-14.2 0-.6.2-2 .5-3.2.2-.9.3-1.7.3-2 .2-4.3-.2-10.4-3.4-15.3-3.2-5-8.2-7.7-14.2-7.7-3.4 0-6.9.9-10.3 2.7-8 4.3-7.2 13.8-6.7 16.9-1.8 1-3 3.1-3 5.3 0 1.5.5 2.9 1.5 3.9l.4.4c-.4 1.2-1.1 3.7-1.9 8.8-1.1 6.9.1 10.2.8 11.4-.1.5-.3 1.2-.5 2v.2h-9.6c.6-3.9.9-10.1.3-18.7-1-14-5.7-20.5-13.5-26.9-4.4-3.7-9.8-4.4-13.7-4.2V7.8zm1-4c-1.8 0-3.3 1-4 1.8-.6.7-.7 1.3-.7 1.7v6c-.6.1-1.2.2-1.5.3-5.5-.8-10.8.4-15.3 3.7-6 4.3-10.1 11.6-11.6 20.7-2.5 15.4 1.3 29.6 3.6 31.7 1.1 1 4.1 2.1 8.3 2.9-9.5 5-13.7 15.8-14.4 25.3-.2 2.3-.2 4.5-.2 6.2v.4c0 2.2.1 3.7.1 3.8.1.9.8 1.6 1.7 1.6h.1c1-.1 1.7-.9 1.6-1.8 0 0-.3-4.5.1-9.9.4-4.8 2.6-20.6 17-24.2.2.8.6 1.8 1.4 2.7 1.9 2.2 5.3 3.4 10.1 3.6h.9c9.8 0 12.9-3.9 13.7-5.1.2-.3.3-.5.4-.8C75.5 78.6 77.6 93.6 78 98.2c.4 5.4.1 9.9.1 9.9-.1 1 .7 1.8 1.7 1.8h.2c.2.5.6.8 1.1.9l18.3 2.3c-.2.3-.3.7-.2 1.1.1.5.5.9 1.1 1l34.3 6.8h.3c.3 0 .6-.1.9-.3l28.7-24.9c.4-.3.6-.9.4-1.4-.1-.5-.5-.9-1.1-1l-16.7-3.3 7.5-7.7c.4-.4.5-.9.3-1.4s-.6-.8-1.1-.9l-41.3-5.2c-.4-.1-.9.1-1.2.4L81.5 107c.1-1.8.1-5.2-.2-9.1-.4-5.6-2.1-11.7-5.3-16.8 5 1.7 9.6 2.3 13.6 2.3 10 0 16.3-3.7 16.7-3.9.4-.2.6-.6.7-1.1 0-.4-.1-.9-.5-1.2-.2-.2-5.2-4.4-11.5-5.2v-5.5h34.7c2.6 0 4.8-2.1 4.8-4.6V8.4c0-2.6-2.1-4.6-4.8-4.6H50.8z" fill="url(#a)"/></svg>