<svg xmlns="http://www.w3.org/2000/svg" viewBox="0 0 180 122"><linearGradient id="a" gradientUnits="userSpaceOnUse" x1="13.445" y1="387.368" x2="150.719" y2="466.623" gradientTransform="translate(0 -356)"><stop offset="0" stop-color="#59caab"/><stop offset=".497" stop-color="#5ab9cf"/><stop offset=".995" stop-color="#3e8dae"/><stop offset="1" stop-color="#3e8dae"/></linearGradient><path d="M62.5 84c-1.2.7-1.8 2.2-1.4 3.7l-4.9-1.3c-.4-.1-.9-.1-1.3.1s-.7.7-.8 1.1l-.1.4-1.5 5.4-.3 1h1c.1 0 .1 0 .2.1.4.1.8.2 1.2 0 .8-.4 1.7-.2 2.2.4.6 1.3-.3 2-.6 2.2-.6.3-1.5.4-2-.3-.2-.3-.4-.6-.9-.8-.4-.1-.7-.2-.9-.2H52l-1.8 6.4c-.1.4-.1.9.2 1.3.2.4.6.6 1 .8l5.7 1.5 1 .3v-1c0-.1 0-.1.1-.2.1-.4.2-.8 0-1.2-.4-.8-.2-1.7.5-2.2 1.1-.5 1.8 0 2.2.6.3.6.4 1.5-.3 2-.3.2-.6.4-.8.9l-.5 1.5 6.8 1.9c.2.1.3.1.5.1.3 0 .6-.1.8-.2.4-.2.6-.6.8-1l1.3-4.8c1.1 1.2 2.7 1.2 3.9.6 1.2-.7 2-2.2 1.1-4.2-.7-1.2-2.2-1.8-3.6-1.4l1.3-4.8c.1-.4.1-.9-.2-1.3-.2-.4-.6-.6-1-.8l-4.7-1.3c1.3-1.1 1.3-2.8.6-3.9-.5-.9-1.4-1.5-2.6-1.5-.7-.3-1.2-.2-1.8.1M29 38c-.9 0-1.6.7-1.6 1.6 0 .9.7 1.6 1.6 1.6h11.5c.9 0 1.6-.7 1.6-1.6 0-.9-.7-1.6-1.6-1.6H29zm0-5.9c-.9 0-1.6.7-1.6 1.6 0 .9.7 1.6 1.6 1.6h26.4c.9 0 1.6-.7 1.6-1.6 0-.9-.7-1.6-1.6-1.6H29zm0-5.9c-.9 0-1.6.7-1.6 1.6s.7 1.6 1.6 1.6h26.4c.9 0 1.6-.7 1.6-1.6s-.7-1.6-1.6-1.6H29zM17.9 33c0-9.4 10.6-17.1 23.6-17.1S65.1 23.6 65.1 33c0 3-1.1 5.9-3.2 8.6-1.4 1.7-7.7 10-2.4 16.1-3.1-.9-8.5-3.3-10.4-5.3-.5-.5-1.1-1.2-1.7-2-.3-.4-.7-.6-1.2-.6H46c-1.5.2-3 .3-4.4.3C28.4 50 17.9 42.4 17.9 33m-3 0c0 11 11.9 20 26.5 20 1.3 0 2.6-.1 4-.2.5.7 1 1.2 1.5 1.7 2.7 2.7 10.9 6.5 14.4 6.5.3 0 .6 0 .8-.1.7-.2 1.3-.7 1.5-1.4.3-1.2-.6-2.4-1.6-3.4-4.3-4.3 1-11.3 2.1-12.7 2.5-3.1 3.8-6.7 3.8-10.4 0-11-11.9-20-26.5-20s-26.5 9-26.5 20m89.5 65.3h.2l-9.6 9.2v-9h.1c3.1.1 6.1 0 9.3-.2m34.4-10.1c-.5-.4-.9-1.2-1.2-2.2v-.8c1.8.2 3.6.3 5.3.4.1.8.1 1.5.1 2.1-.4.6-1 1-1.7 1.1-.2 0-.4.1-.7.1-.7-.1-1.3-.3-1.8-.7m-17.6-9.1c1.5.6 3.3.8 5 .4.6.8 1.2 1.5 2 2.2.1.2.2.4.4.5.5.3 1.1.7 1.6.9.6.4 1.4.7 2.2 1-2.5.7-4.8 2.1-6.8 4.2-.4.4-.8 1-1.2 1.6-.2-3.5-1.1-7.3-3.2-10.8m-30.8-3.3c.3 0 1.2 0 1.7.5.3.3.5.9.4 1.7-.2 2.8-.3 13.7-.4 18.2v4.5c0 3.3-.1 5.6 0 7.3v2.9c0 .4.2.8.4 1 .2.3.4.4.8.4h.3c.2 0 .3 0 .5-.1h.1c.2-.1.3-.2.4-.3l1.9-1.8 11-10.5c.3 2.2.4 4.9-.7 6-.9 1-2.3 2.6-3.9 4.4s-3.3 3.8-4.7 5.4c-1.3 1.4-3.9 3.3-5.4 3.3-2.3 0-51.5.3-52.1.3-.5 0-4.9.3-5.7-4.2-.3-1.9-1.1-22.1-1.5-35.4-.1-.6-.1-2.3.7-3.1.4-.4.9-.6 1.7-.6h15.9c15.8.2 38.2.1 38.6.1m10.2-5.9c-6.8-.1-6.4-1.9-6.4-1.9v-6.7c2.7 1 5.3 1.5 8 1.5 1.4 0 2.8-.2 4.2-.5v6.3s.7 1.2-4.9 1.2c-.3.1-.6.1-.9.1m8.5-8.4c2.1-.8 4.2-2 6.1-3.5 0 3.5-.4 8.6-1.1 11.1-1.3-1.5-3.1-2.8-4.5-2.8-.2 0-.3 0-.5.1v-4.9zm39.5-.8c.2-.4.2-1.1-.1-1.5-.4-.6-.7-1.1-.8-1.5-.3-.7-.3-1.2-.2-1.5.1-.2.3-.3.5-.3.2-.1.4-.1.5-.1h.4c1.4 0 2.3.3 2.8 1.1.3.4.7.9 1 1.4.2.3.4.5.6.8l.9 1.2c.3.4.6.8.8 1.2.8 1.3 1.3 2.5 1.3 3.6v.6c0 .6.1 1.2.6 1.6.3.3.8.5 1.1.5.2 0 .5-.1.7-.1 1-.1 1.8.6 2.3 1.2 1.1 1.3 1.7 3.5 1.4 5-.2 1.2-1.2 4-4.3 4-.8 0-1.6-.2-2.5-.5-.6-.2-1.3.1-1.7.7-1.5 2.9-6.9 4.1-9.8 4.8-.2 0-.3.1-.5.2-3.7 0-8.6-.4-12.1-2.1-1.7-1-2.6-2.2-3.6-3.6-.3-.4-.7-.6-1.1-.6-.1 0-.3 0-.4.1-.7.2-1.4.4-2.1.4-1.9 0-3.1-.9-3.9-1.6-1-1-1.6-2.3-1.5-3.5 0-1.4 1.2-4.8 3.4-4.8.9.7 1.8.8 2.3.8.4 0 .7-.1.9-.1.1 0 .1-.1.2-.1s.1-.1.1-.1c.8-.6 1-1.6 1.7-4.5.1-.6.3-1.3.5-2.1.5-2 3.7-3.4 5.6-3.4.4 0 .6.1.5 0 3.6 4.3 10.5 4.4 11.3 4.4 1.9-.5 2.8-.8 3.2-1.6m-73 4c1.1-7.4 2-10.6 2.5-12 .8.3 1.8.5 3 .5.8 0 1.7-.1 2.6-.3 2.2 3.7 4.4 5.4 7.8 7.1v5.8h-.4c-2.1 0-5.1 2.9-6.1 4.7-2 .7-3.7 1.5-5.2 2.5h-4.6c-.2-2.2-.1-4.9.4-8.3m68.1-23.5c.1-.1.2-.3.3-.4.1 1.2.1 2.8-.4 4.3-.1.2-.3.9.2 1.5.3.3.7.6 1.1.6.8 0 1.2-.5 2.7-2.1.8-.9 2.6-3 3.7-3.7 0 .6-.1 1.6-.5 3.4-.3.3-.6.7-.6 1.1 0 .8.5 1.1 1.2 1.7.6.4 1.6 1.1 3.3 2.5 2.2 1.7 4.9 5.1 5.2 8.7.1 1.7-.2 3.2-1.2 4.7 0-.2-.1-.3-.1-.5 0-.1-.1-.2-.1-.3-.1-.3-.2-.6-.4-.9v-.1c-.1-.3-.3-.6-.5-1-.1-.1-.1-.2-.2-.3-.1-.2-.3-.4-.4-.6-.1-.1-.2-.3-.3-.4-.1-.2-.3-.4-.4-.6-.1-.1-.2-.2-.3-.4s-.3-.4-.4-.6c-.1-.1-.2-.2-.2-.3-.2-.3-.4-.6-.7-.9-.3-.5-.7-.9-1-1.3-1-1.3-2.5-2-4.6-2.1h-.9c-1.5.1-2.6.8-3.2 1.9-.3.5-.4 1.2-.3 2.2.1.6.2 1.2.6 1.9-.6 0-1.3-.1-2.1-.2-2.3-.4-5.3-1.3-7-3.2-.2-.2-.5-.5-.9-.7s-1-.3-1.7-.3c-2.9 0-7.5 2.1-8.3 5.5-.2.8-.4 1.5-.5 2.2-.2 1-.5 2.1-.7 2.7-.1-.1-.3-.1-.5-.3-.1-.1-.2-.1-.2-.2-.7-.8-1.9-3.2-1.2-9.7v-.2c.7-4.1 8.6-10.4 14.8-10.4.9 0 1.6.1 2.3.4.2.1.4.1.6.1 1.6-.2 2.6-1.8 3.8-3.7m-60.2-1.7c.3-.2.5-.6.5-.9.1-.9.2-1.5.2-2 .1-.9.2-1.5.3-2.7.5-.1 1-.1 1.6-.2 4.4-.6 9.8-1.3 14.8-6.4 4.6 7.8 10 9.9 14.1 10.1l-.5 17.6c-3.6 3.4-7.9 5.2-12.5 5.2-2.5 0-5-.5-7.5-1.5-4.6-2.3-6.7-3.5-9.1-7.9-.2-.4-.7-.7-1.2-.7h-.3c-3.1.8-5.6.4-7.1-1.2-.8-.9-1.3-2.2-1.3-3.6 0-2.8 1.8-5.6 5.4-5.6.5 0 1 0 1.5.1h.3c.3-.1.6-.1.8-.3m4.8-23.7c12.2-6.4 24.8-3.9 31.3 6.2 6.2 9.6 4.2 23.5 3.8 25.9-2.1 2.1-3.6 4.5-3.8 6.6v.3c-.4 4.4-.1 7.6.9 9.8-1.7.7-2.9 2.4-3.6 4.1 1.2-5 1-13.8.8-14.8 0-.3-.2-.5-.3-.7l.4-17.3c0-.4-.1-.7-.4-1s-.6-.4-1-.4c-5.5.2-10.4-3.3-14-10.4-.2-.4-.6-.7-1.1-.7s-.9.1-1.2.5c-4.7 5.7-9.6 6.3-14.3 6.9-.9.1-1.9.2-2.7.4-.6.2-1.1.7-1.1 1.3-.1 1.9-.2 2.6-.3 3.7 0 .2-.1.4-.1.7-.5 0-1.1 0-1.6.1-.6-3.6-1.8-15.9 8.3-21.2m13.5-6.2c-4.8 0-9.8 1.2-14.7 3.8-12 6.3-10.3 20.6-9.7 24.3-2.9 1.4-4.4 4.5-4.4 7.5 0 2.1.7 4 2 5.4.2.2.5.5.8.7-.6 1.7-1.6 5.3-2.8 12.9-.5 3.5-.7 6.3-.6 8.6H35.8c-2.1 0-3.3.9-3.9 1.6-1.8 2-1.4 5.1-1.4 5.3.1 3.4 1.1 32.9 1.6 35.7.9 5.3 5.4 6.6 8 6.6h.7c.5 0 49.7-.3 51.9-.3 3.5 0 7.5-4.3 7.5-4.3 1.5-1.6 3.2-3.6 4.8-5.4 1.5-1.7 2.9-3.3 3.8-4.3 2.4-2.5 1.8-7.4 1.2-9.9 5.2-.5 10.4-1.3 15.2-2.5h.1c.1-.4.1-.8.2-1.1.4-1.5 1.3-3.1 2.2-4.1 1.5-1.7 3.2-2.8 5.2-3.3-1.8 1.3-3.6 3.2-4.4 5-.4.9-.6 2.5-.7 4.3l3.6.8c.1-1.2.3-2.3.8-3.5.5-1.1 1.2-2.3 2.1-3.3.2.3.4.7.7 1 1.2 1.3 2.9 2 5 2.1h.5c1.9 0 3.1-.9 3.7-1.6.8-.9 1.2-2.1 1.3-3.2.3-.5.5-1 .6-1.6 3.5.8 5.6 2.7 6.8 4.4 1.6 2.3 2.6 4.3 3.1 6 .9-.1 1.8-.3 2.7-.4-.5-2.1-1.7-4.4-3.6-7.1-1.1-1.5-2.8-3.4-5.5-4.6.7-.1 1.3-.8 1.2-1.5v-.2c2-.8 3.8-1.9 5-3.4.8.2 1.6.3 2.4.3 4.2 0 6.3-3.2 6.9-6.1.1-.4.1-.9.1-1.3v-.2c0-2-.8-4.2-2.1-5.8-.7-.8-1.4-1.4-2.2-1.8 1.4-2 2.1-4.3 1.9-6.8-.4-4.5-3.5-8.4-6.2-10.6-1.5-1.2-2.5-1.9-3.1-2.3v-.1c.8-3.5.8-5.3 0-6.4-.4-.5-1-.8-1.6-.8-1.4 0-3.1 1.4-5.1 3.6 0-2.3-.5-4.5-1.7-4.9-.1 0-.4-.1-.5-.1-1.2 0-2 1.2-3.1 2.9-.4.6-1.1 1.7-1.5 2.1-.9-.3-1.8-.4-2.9-.4-3.4 0-7.3 1.6-10.6 3.9.6-5.5.8-16.5-4.6-24.9-4.7-7-12-10.7-20.1-10.7z" fill="url(#a)"/></svg>