<svg version="1.1" id="Layer_1" xmlns="http://www.w3.org/2000/svg" x="0" y="0" viewBox="0 0 37 37" xml:space="preserve"><style>.st0{fill:#878787}</style><path class="st0" d="M18.5 37C8.3 37 0 28.7 0 18.5S8.3 0 18.5 0 37 8.3 37 18.5 28.7 37 18.5 37zm0-36.3C8.7.7.7 8.7.7 18.5s8 17.8 17.8 17.8 17.8-8 17.8-17.8S28.3.7 18.5.7z"/><path class="st0" d="M9 13.4h2.4c.3 0 .5.2.6.5.3.9 1 2.8 1.8 4.1 1 1.7 1.7 2.4 2.2 2.3.4-.1.3-1.2.3-2.2 0-.9.1-2.5-.3-3.2l-.7-1c-.2-.2 0-.5.3-.5h3.8c.4 0 .7.3.7.7V19s.2.9 1.1 0c.9-.9 2-2.6 2.8-4.3l.3-.8c.1-.2.3-.4.6-.4h2.5c.5 0 .8.5.6.9l-.2.6s-.9 1.8-1.9 3.1c-.9 1.3-1.1 1.6-1 2 .1.3 2.6 2.6 3.2 3.7.2.3.3.6.4.8.2.4-.1 1-.6 1h-2.8c-.2 0-.5-.1-.6-.3l-.3-.4s-1.7-2-2.8-2.7c-1.1-.6-1 .3-1 .3v1.8c0 .7-.6 1.4-1.4 1.4h-.7s-3.7 0-6.7-4.4c-2.3-3.4-3.1-5.7-3.4-7 .1-.5.4-.9.8-.9"/></svg>