<svg version="1.1" id="Layer_1" xmlns="http://www.w3.org/2000/svg" x="0" y="0" viewBox="0 0 37 37" xml:space="preserve"><style>.st0{fill:#878787}</style><path class="st0" d="M18.5 37C8.3 37 0 28.7 0 18.5S8.3 0 18.5 0 37 8.3 37 18.5 28.7 37 18.5 37zm0-36.3C8.7.7.7 8.7.7 18.5s8 17.8 17.8 17.8 17.8-8 17.8-17.8S28.3.7 18.5.7z"/><path class="st0" d="M15.7 21.9v-7.3l7 3.7-7 3.6zm12.9-3.4c0-1.5 0-3.2-.3-4.7-.1-.6-.4-1.1-.8-1.4-.4-.4-.9-.6-1.5-.7-1.2-.1-2.5-.2-3.7-.2h-7.4c-1.2 0-2.5.1-3.7.2-.6.1-1.1.3-1.5.7-.4.4-.7.9-.8 1.4-.2.8-.3 1.6-.3 2.4V21c0 .8.1 1.6.3 2.4.1.6.4 1.1.8 1.4.4.4.9.6 1.5.7 1.2.1 2.5.2 3.7.2h7.4c1.2 0 2.5-.1 3.7-.2.6-.1 1.1-.3 1.5-.7.4-.4.7-.9.8-1.4.2-.8.3-1.6.3-2.4v-2.5z"/></svg>