<svg xmlns="http://www.w3.org/2000/svg" viewBox="0 0 180 122"><path d="M81.3 49.1c-.9 0-1.6.7-1.6 1.6s.7 1.6 1.6 1.6h14.8c.9 0 1.6-.7 1.6-1.6s-.7-1.6-1.6-1.6H81.3zm0-8.4c-.9 0-1.6.7-1.6 1.6s.7 1.6 1.6 1.6h22.5c.9 0 1.6-.7 1.6-1.6s-.7-1.6-1.6-1.6H81.3zm27.9 0c-.9 0-1.6.7-1.6 1.6s.7 1.6 1.6 1.6h6.2c.9 0 1.6-.7 1.6-1.6s-.7-1.6-1.6-1.6h-6.2zm-27.9-8.4c-.9 0-1.6.7-1.6 1.6 0 .9.7 1.6 1.6 1.6h34.1c.9 0 1.6-.7 1.6-1.6 0-.9-.7-1.6-1.6-1.6H81.3zm-21.5-3.4c-1.2.7-1.7 2.1-1.3 3.5l-4.6-1.3c-.4-.1-.9-.1-1.3.1s-.6.6-.7 1.1l-.1.4-1.4 5.1-.3.9h1c.1 0 .1 0 .2.1.4.1.8.2 1.1 0 .8-.4 1.7-.2 2.1.4.6 1.3-.3 1.9-.5 2.1-.6.3-1.5.4-1.9-.3-.1-.3-.4-.6-.8-.8-.4-.1-.7-.2-.9-.2h-.6l-1.7 6.1c-.1.4-.1.9.1 1.3s.5.6 1 .8l5.4 1.4.9.3V49c0-.1 0-.1.1-.2.1-.4.2-.8 0-1.1-.4-.8-.2-1.7.5-2.1 1-.5 1.7 0 2.1.5.3.6.3 1.5-.3 1.9-.3.2-.6.4-.8.8l-.5 1.4 6.5 1.8c.2.1.3.1.5.1.3 0 .5-.1.8-.2.4-.2.6-.5.8-1l1.2-4.5c1 1.1 2.6 1.2 3.7.5s1.9-2.1 1.1-4c-.7-1.2-2.1-1.7-3.4-1.3L69 37c.1-.4.1-.9-.1-1.3-.2-.3-.5-.6-1-.8l-4.5-1.2c1.2-1 1.2-2.7.6-3.8-.5-.8-1.4-1.4-2.5-1.4-.6 0-1.1.1-1.7.4m96.9 74.7h.3l6.1-1.6c.6.9 1.9 1.8 3.3 1.9h.7c1.4 0 2.9-.4 4.3-1.2-.5 1-1.7 2.3-4.3 2.7-1.3.2-2.5.3-3.6.3-2.9.1-5.1-.7-6.8-2.1m-80.5-5.9c2.8-.1 5.9-.4 8.7-.8l.1 4.3c-1.4.6-4.7 1.7-8 1.5-2-.1-3.6-.6-4.7-1.1l-.2-4.1c1 .1 2 .1 3.1.1.5.1.7.1 1 .1m94.9-5.4c.7 0 .8-.6.9-1 .1-.2.1-.5.3-.8l.2-.5c.3-.6.4-1 .6-1.2 0 .3 0 .8-.1 1.1-.1 1-.2 2.2 0 3.3.3 1.6-.3 5.2-.6 6.7-1.9 1.6-4 2.4-5.9 2.2-.9-.1-1.7-.7-2-1.1.5-.5.9-1.5.2-3.6-.1-.4-.2-.7-.2-.9.4.1.8.1 1.2-.2.5-.4.4-1 .2-1.8-.1-.3-.1-.8-.2-1.3 0-.3-.1-.5-.1-.6.1.1.3.2.5.4.6.6.8 1.2.8 1.6.1.3.2.9.7 1 .6.1 1-.4 1.2-.6.7-.9.5-2.4.4-4.1-.1-.7-.1-1.4-.1-2 .2.4.5.9.6 1.6.5 1.3.7 1.8 1.4 1.8M55.1 107c-4.4-4.4-9.7-6-12-6.5l.2-4.7c1.1-.6 3.1-2 4.4-4.2.1-.1 1.2-1.8 2.3-3.8h9.5c-.1 3.4-.1 5.9-.1 5.9v1l.9.3c.2.1 4.3 1.5 9.6 2.3l.1 2.9h-.1c-.3 0-7.1.3-14.5 7.1l-.3-.3m99.1-26.8l2 .2-.1 20.9-2 .1.1-21.2zm-123 18.5c8.5-1.9 16.1-12.7 16-14.1-.1-.5-.5-1-1-1.1-.4-.1-1.6-.8-1.7-1.6-.2-1.1.3-2.8.9-3.8.1.4.2.9.2 1.4l.2 2.2c0 .4.2.7.5.9.3.2.7.3 1 .2l1.3-.3c.5-.1.8-.5.9-1 0 0 .1-.7.2-1.6.1.8 0 1.6-.1 2.3-.1.6-.4 1.7-1.4 3.6-1.1 2.3-2.6 4.4-2.6 4.5-1.4 2.5-4 3.6-4 3.7-.4.2-.7.6-.7 1.1l-.2 5.7c-1.1.5-3.5 1.4-5.9 1.4-2.5 0-6.1-1.3-7.7-1.9l.1-2.5c1.2.5 2.4.9 3.4.9h.6m107.9-.2l.3-21.7 12.5 3.2h.7l-.1 21.3-13.4-2.8zm18.7-18.3l11.8-4 .1 10.8c-.3-.2-.6-.3-.9-.3-.5 0-1 .4-1.1 1.6-.1.9 0 1.9.1 2.9 0 .5.1 1 .1 1.5-.2-.2-.4-.4-.6-.7-.9-.8-1.7-1.4-2.5-1-.8.4-.7 1.5-.6 2.6.1.6.2 1 .2 1.4v.1c-.5 0-.9.2-1 .4-.5.5-.5 1.4-.1 2.7.2.6.2 1 .3 1.3l-5.7 1.5-.1-20.8zm-42.3-4.5s0 .1 0 0m-2.7-8c.3-.1 1-.3 1.1-1.1.1-.8-.5-1.2-1.2-1.8-.5-.4-1-.8-1.4-1.3-.3-.5-.3-1-.2-1.3l.1.1c.9 1.3 2 1.7 3.5 2.3.6.2 1.2.4 1.9.8 1.8.8 2.8 3.6 3.3 4.8.1.2.2.4.2.6l.5 2.3c-.1.2 0 .4.1.6l.1.1.2 1.2-.2.2c-.3.2-.6.4-.8.6l-.6.3c-.7.3-1.7.4-2.3.4.1-.4.1-.8 0-1.2 2.1-1.1 2.5-3.4 2.3-4.6-.1-.4-.4-.7-.9-.7-.4.1-.7.4-.7.9 0 .1 0 .6-.1 1.2l-1.1 1.6c-.3.2-.6.4-1 .5-.6 0-1.3.3-1.5.4-1.8.9-3.3 1.2-4.5 1.4l.6-.3c.8-.4.7-1 .6-1.2-.1-.4-.4-1.1-4.2-.4h-.1c1.3-.3 1.7-.4 1.7-1 .1-.3-.1-.6-.4-.8-.7-.5-1.6-.5-2.6-.6-.5 0-1.1-.1-1.6-.2-.3-.1-.5-.2-.6-.2 1.5-.5 1.7-1 1.8-1.4 0-.2 0-.8-.6-1.2-.4-.3-.9-.4-1.3-.5-.4-.1-.6-.2-.8-.3.8 0 2.1 0 3.1.1 1.3.1 2.7.1 4 .1 1.5 0 2.8-.1 3.6-.4m-50.6 25c.1-3.5.3-14.9.6-20.7.3-6.6 6.1-10.7 11.8-11.4 5.5-.6 7.1 1.7 7.2 1.8l.5 1 1.1-.4c1.4-.5 2.7-.3 3.9.4 3.3 2 5.1 7.6 5.6 10.6.7 4-.1 15.3-.3 18.8-2.7.5-10.3 1.9-16.5 2h-.8c-5.6.1-11-1.4-13.1-2.1m81.2-25.3c-2.9-.2-4.6-1.1-4.9-2.7V60c2.9 1 5.8 1.3 8.7.7v4.4c-.9 1.3-2.4 2.3-3.7 2.3h-.1M25.6 94.1c-1.1-.8-3.5-3.4-5.3-5.7-.5-.6-.9-1.3-1.3-1.9-.4-.6-.8-1.1-1.1-1.5-.7-1.6-1.2-4.8-1.3-7.1.1-.2.1-.3.1-.5v-2.6c-.1-3.8.1-6.2 2.9-8.5.7-.5 1.2-.9 1.6-1.3 2.2-1.7 2.2-1.7 6.8-4.1 2.5-1.3 5.3-2.3 7.3-2.8-.8 1.2-.6 2-.4 2.5.3.6 1.5 1.7 4.8.2.5-.2 1-.5 1.5-.7.9-.5 2.1-1 3-1.3l-1 1c-.8.7-1.6 1.5-1.4 2.6.1.4.4.8.8.9.9.4 2 0 4.4-1.1.7-.3 1.6-.7 2.1-.9-.7 2.4-.3 4.6 0 6.6.2 1.2.4 2.3.3 3.4-.1 2.2-.7 2.8-.6 2.8l-.3.3c-.2.3-.6.9-.5 1.5-.1.2-.1.6-.2.9-.2-.6-.6-1.1-1-1.3-.6-.3-1.2-.3-1.8 0-1.9 1.1-2.9 4.8-2.6 6.8.2 1.3 1.2 2.4 2.2 3-1.8 2.6-7.2 9.6-13.6 11h-.1c-1.2 0-3.5-.9-5.3-2.2m124.3-34.2c1.4-.5 2.7-1.3 4-2.2-.1 2.4-.3 5.4-.7 7.1-.7-.7-2.1-1.8-3.3-1.8v-3.1zm-25.6 2.2c.8-5.1 1.4-7.7 1.8-8.9 1.2.3 2.5.4 3.9.1 1.6 2.7 3.3 4 5.8 5.3v3.9c-1.8 0-4.1 2.3-4.9 3.7-3.2 1.1-5.4 2.5-6.8 4.4-.3-1.7-.5-4.4.2-8.5m5.9-19.1c.3-.2.5-.6.5-1 .1-.7.1-1.2.2-1.6.1-.6.1-1.1.2-1.8.3 0 .6-.1 1-.1 3.3-.4 7.4-.9 11.2-4.7 3.5 5.7 7.6 7.3 10.6 7.5l-.3 13.1c-2.7 2.5-5.9 3.8-9.3 3.8-1.9 0-3.8-.4-5.6-1.1-3.5-1.7-5.1-2.6-6.9-5.9-.2-.4-.7-.7-1.2-.7h-.4c-2.3.6-4.1.3-5.1-.8-.6-.6-.9-1.6-.9-2.6 0-2 1.3-4 3.8-4 .3 0 .7 0 1.1.1h.3c.3.1.5 0 .8-.2m3.6-18.2c9.2-4.8 18.7-3 23.6 4.6 3.5 5.4 3.4 12.7 3.1 16.6 0 .1-.7 3.7-.7 5.3 0 .4.3 9.1 0 12.3-.3 2.5-1.4 5.6-1.8 6.5l-2.8-2.7.8-2.1c.9-4 .8-10.7.6-11.5 0-.2-.1-.4-.2-.6l.3-13.2c0-.4-.1-.7-.4-1-.3-.3-.7-.4-1-.4-4.1.2-7.7-2.5-10.4-7.8-.2-.4-.6-.7-1.1-.7-.5-.1-.9.1-1.2.5-3.5 4.3-7.2 4.8-10.9 5.2l-2.1.3c-.6.1-1.1.6-1.1 1.3-.1 1.4-.2 1.9-.3 2.8v.2h-.6c-.5-3-1.1-11.7 6.2-15.6M42 22.3c.2-.3 1-.9 1.9-.9h84.8c1.1 0 2 .9 2 2h.2c-7.3 5.1-6.5 14.5-6 17.7-2 1.1-3.4 3.4-3.4 5.9 0 1.7.6 3.2 1.6 4.4l.4.4c-.6 1.8-1.3 5.2-2.1 9.8-.5 3.1-.5 5.5-.4 7.4-.6-1.6-1.8-4.2-3.9-5.2-.7-.3-1.4-.6-2-.8-1.3-.5-2.2-.8-2.8-1.7-.6-.8-1.2-.9-1.5-.9-.5 0-1 .4-1.3 1-.4.9-.3 2.1.3 2.9.5.7 1.2 1.2 1.7 1.6.1 0 .1.1.2.2-1.4.3-4.3.2-6.6.1-3.8-.2-4.9-.2-5.1.8-.4 1.8 1.3 2.3 2.3 2.5.1 0 .1 0 .2.1-.2.1-.3.1-.5.2-.6.2-.9.6-.9 1.2 0 .8.7 1.7 2.1 2 .2 0 .4.1.5.1-.5.3-.8.8-.6 1.3.3 1 1.8 1.4 3.6 1.1h.1c-.6.5-.7.8-.6 1.3.1.5.6.8 1.5.8 1.6 0 3.8-.1 6.7-1.5-.2.2-.4.5-.4.9 0 .3-.2 4.1-.3 8.4H95.9c.2-4.4.3-9.4-.2-11.9-.8-4.3-3.1-10.2-7-12.5-1.6-1-3.4-1.3-5.3-.9-1.2-1.2-3.9-3-9.3-2.4-8 .9-14 6.8-14.3 14.1-.1 3.5-.3 9-.4 13.6H51c.5-1.1.8-2.1.9-2.9.4-3-.6-7.5-.8-8.5.2-.7.4-1.5.4-2.6.1-1.3-.1-2.7-.4-4-.3-2-.6-3.8 0-5.9.7-2.2 1-2.9.1-3.6-.8-.6-1.6 0-1.9.2-.3.2-.6.4-1 .5-.6.2-1.4.5-2.2.9.2-.4.4-.9.5-1.4.1-1-.4-1.6-.7-1.8-.9-.7-2.2-.3-4.2.6V22.3zm1.9-3.2c-1.6 0-3 .9-3.7 1.7-.4.5-.6 1-.6 1.4v35.9l-1.2.6c-.4.2-.7.3-.9.4.3-.3.6-.6 1.1-.9 1.3-.9 1-1.9.8-2.2-1.5-2.5-12.6 2.8-12.8 2.9-4.7 2.5-4.9 2.5-7.2 4.4-.4.3-.9.8-1.6 1.3-3.8 3-3.9 6.4-3.8 10.7v1.6c-.9.9-2.1 2.7-1.2 6.1.4 1.4.9 1.9 1.6 2.3.3.2.7.4 1.3 1.1.1.2.2.3.3.5.5.7 1.3 1.8 2.3 3 .7.9 1.4 1.9 2.1 2.7 1.7 1.9 3.5 3.4 4.3 4.1l-.2 3.9c-2.4.5-7.5 2.1-11.8 6.4-4.6 4.6-5.1 10.8-5.1 13.4v1l2.4-.2c0-.3-.5-7.7 4.4-12.5 5-5.1 11.6-6 11.7-6v-.2c1.7.7 5.7 2.1 8.6 2.1 3.2 0 6.2-1.3 7.3-1.8 1.4.3 6.9 1.5 11.3 5.9 4.9 4.9 4.4 12.2 4.4 12.5l2.4.2c.1-.8.4-7-3.3-12.3 5.7-5.3 11-6.3 12.6-6.5.1.1.2.2.4.3 1.1.8 3.6 2.1 7.2 2.2 4.3.2 8.4-1.4 9.5-1.9 1.4.2 7.4 1.1 10 5.1 3.2 4.9 4.5 12.5 4.6 12.6.1.6.6 1 1.2 1h.2c.7-.1 1.1-.7 1-1.4-.1-.3-1.5-8.2-4.9-13.5-2.8-4.3-8.4-5.7-10.9-6.1l-.1-4.4c3.7-.6 6.4-1.1 6.6-1.2l1-.2.1-1c0-.3.2-3 .4-6.4h18c0 4 0 8 .4 9.9.4 2.3 2 4.2 4.2 5.1.9.4 2 .6 3 .6 1.7 0 3.4-.5 4.9-1.5.7-.4 1.2-1.1 1.8-2l.1 2.2c0 .7.6 1.2 1.2 1.2h.1c.7 0 1.2-.6 1.2-1.3l-.4-7.1c1.7-5.3 2.3-11.6 2.5-12.7.1-.7-.5-1.4-1.2-1.5-.7-.1-1.4.5-1.5 1.2-.6 5.9-2.6 15.9-5.3 17.7-1.7 1.1-3.7 1.4-5.4.7-1.4-.6-2.3-1.7-2.6-3.2-.6-3.3-.2-14.8-.1-18.7h.2c1 0 2.4-.3 4-1.4.3-.2.6-.4.8-.6.1-.1.3-.2.4-.3 1.3 2.6 3.1 6.9 3.4 11.7 0 .4.4.7.8.7s.8-.4.7-.8c-.2-4.1-1.5-7.8-2.7-10.5l.1-.3c.3-1.4.9-2.9 1.1-3.5.7-1.8 2.5-3.3 5.3-4.4l3.4-1 .7-.2c.5.5 1.9 1.9 3.4 2.7 1.8 1 3.3 1.1 6 1 2.4-.1 5.9-2.5 6.8-3.1l2.8 2.4c.7.4 1.2 1.1 1.7 1.7l.1.1c1.1 1.4 2 3.1 2.6 5l-1.4.5-4.6-.4-13.8-3.5c-.4-.1-.7 0-1 .2-.3.2-.5.6-.5.9l-.3 24.2c0 .6.4 1.1.9 1.2l14.9 3.2h.7c.1.1.1.3.2.4 2.4 2.9 5.7 4.3 10.1 4.3 1.2 0 2.6-.1 4-.3 5.2-.8 6.8-4.7 6.9-6.6 0-.4-.2-.8-.5-1.1.2-1.1 1-5.2.6-7.3-.2-.9-.1-1.9 0-2.8 0-.5.1-.9.1-1.3V89c0-.6-.1-1-.4-1.4-.2-.2-.6-.4-.9-.3-.5 0-.9.3-1.2.6l-.2-13.2c0-.4-.2-.7-.5-1-.3-.2-.7-.3-1.1-.2l-9.5 3.2c-.4-1.2-.9-2.4-1.5-3.5.5-.8 2.4-3.8 2.8-6.7.4-3 .5-12.8.5-15.8 0-.7.3-2.2.5-3.5.2-1 .3-1.9.4-2.3.2-4.7-.2-11.5-3.7-17-3.6-5.5-9.1-8.6-15.7-8.6-3.6 0-7.5 1-11.2 2.9-.5-1.8-2.2-3.1-4.1-3.1H43.9z" fill="#d2d2d2"/></svg>