<svg xmlns="http://www.w3.org/2000/svg" viewBox="0 0 37 37"><linearGradient id="a" gradientUnits="userSpaceOnUse" x1="4.386" y1="10.42" x2="32.376" y2="26.58"><stop offset="0" stop-color="#5ac9aa"/><stop offset=".497" stop-color="#5ab8ce"/><stop offset=".995" stop-color="#3e8dad"/><stop offset="1" stop-color="#3e8dad"/></linearGradient><path d="M18.4 2.3C9.5 2.3 2.2 9.5 2.2 18.5c0 8.9 7.2 16.2 16.1 16.2 8.9 0 16.1-7.3 16.1-16.2.1-9-7.1-16.2-16-16.2z" fill="url(#a)"/><path d="M11.7 26.9l2.5-3.6c.4-.6 1-.8 1.6-.6 1.8.5 2.4-.1 2.5-.2.6-.7 1.2-1.3 1.8-2.8.8-1.9 1-2.9 1-3.8 0-.3-.2-1.3-1.5-1.9-.6-.3-.9-.8-.7-1.5.1-.5.1-.5.2-.9s.3-1.2.7-3.3c.1-.5.4-.8.8-1 .5-.2.9-.1 1.2.1l1.6.7c1.1.5 1.4.9 1.6 1.4.3.6 1 5.2-1.7 11.4s-6.5 8.8-7.2 9.1c-.5.2-1 .3-2.1-.1l-1.5-.9c-.3-.1-.7-.3-.9-.8-.2-.5-.2-.9.1-1.3" fill="#fff"/></svg>