<svg xmlns="http://www.w3.org/2000/svg" viewBox="0 0 37 37"><linearGradient id="a" gradientUnits="userSpaceOnUse" x1="2.482" y1="9.252" x2="34.518" y2="27.748"><stop offset="0" stop-color="#5ac9aa"/><stop offset=".497" stop-color="#5ab8ce"/><stop offset=".995" stop-color="#3e8dad"/><stop offset="1" stop-color="#3e8dad"/></linearGradient><path d="M18.5 0C8.3 0 0 8.3 0 18.5S8.3 37 18.5 37 37 28.7 37 18.5 28.7 0 18.5 0zm0 36.3C8.7 36.3.7 28.3.7 18.5S8.7.7 18.5.7s17.8 8 17.8 17.8-8 17.8-17.8 17.8z" fill="url(#a)"/><linearGradient id="b" gradientUnits="userSpaceOnUse" x1="9.34" y1="12.151" x2="29.354" y2="23.706"><stop offset="0" stop-color="#5ac9aa"/><stop offset=".497" stop-color="#5ab8ce"/><stop offset=".995" stop-color="#3e8dad"/><stop offset="1" stop-color="#3e8dad"/></linearGradient><path d="M28.1 23.8c-.6-1.1-3.1-3.4-3.2-3.7-.1-.4.1-.7 1-2 1-1.3 1.9-3.1 1.9-3.1l.2-.6c.2-.4-.1-.9-.6-.9h-2.5c-.3 0-.5.2-.6.4l-.3.8c-.8 1.7-1.9 3.4-2.8 4.3-.9.9-1.1 0-1.1 0v-4.9c0-.4-.3-.7-.7-.7h-3.8c-.3 0-.5.3-.3.5l.7 1c.4.7.3 2.3.3 3.2 0 1 .1 2.1-.3 2.2-.5.1-1.2-.6-2.2-2.3-.8-1.3-1.5-3.2-1.8-4.1-.1-.3-.3-.5-.6-.5H9c-.4 0-.7.4-.8.9.3 1.3 1.1 3.6 3.4 7 3 4.4 6.7 4.4 6.7 4.4h.7c.8 0 1.4-.7 1.4-1.4v-1.8s-.1-.9 1-.3c1.1.7 2.8 2.7 2.8 2.7l.3.4c.1.2.4.3.6.3h2.8c.5 0 .8-.6.6-1-.1-.2-.2-.5-.4-.8z" fill="url(#b)"/></svg>