<svg xmlns="http://www.w3.org/2000/svg" viewBox="0 0 37 37"><linearGradient id="a" gradientUnits="userSpaceOnUse" x1="4.386" y1="10.42" x2="32.376" y2="26.58"><stop offset="0" stop-color="#5ac9aa"/><stop offset=".497" stop-color="#5ab8ce"/><stop offset=".995" stop-color="#3e8dad"/><stop offset="1" stop-color="#3e8dad"/></linearGradient><path d="M18.4 2.3C9.5 2.3 2.2 9.5 2.2 18.5c0 8.9 7.2 16.2 16.1 16.2 8.9 0 16.1-7.3 16.1-16.2.1-9-7.1-16.2-16-16.2z" fill="url(#a)"/><path d="M29.9 12.4c0-.8-.2-1.6-.7-2.1-.4-.4-1-1-2.2-1H9.8c-.8 0-1.5.3-2 .8-.6.5-.9 1.2-.9 2v12.7c0 .8.3 1.5.8 2 .6.5 1.3.8 2 .8H27c.8 0 1.5-.3 2-.8.6-.5.8-1.3.8-2V12.5s.1 0 .1-.1zm-20.7-.8c.2-.2.4-.3.6-.3H27c.4 0 .5.1.6.2.2.2.3.5.3.9 0 .3-.2.6-.4 1-.4.5-.7.8-1.1 1.1-.3.2-1.1.7-2.4 1.6-1.3.9-2.4 1.6-3.1 2.1-.1.1-.3.2-.5.4s-.4.3-.6.4c-.2.1-.3.2-.6.3-.2.1-.3.2-.5.2-.2.1-.2.1-.6 0-.1 0-.3-.1-.5-.2L17 19c-.2-.1-.4-.2-.6-.4l-6-4.1c-.5-.3-.9-.7-1.2-1.2-.3-.4-.4-.8-.4-1.2.1-.2.2-.4.4-.5zm18.4 13.9c-.2.2-.4.3-.6.3H9.8c-.3 0-.4-.1-.6-.3-.2-.2-.3-.4-.3-.6v-9.1c.1.1.3.2.4.3l5.5 3.8.5.3c.3.2.5.3.7.5.2.1.4.3.7.4.3.2.6.3.9.4.3.1.6.2.9.2.3 0 .6-.1.9-.2.3-.1.6-.2.9-.4.3-.2.5-.3.7-.4.2-.1.4-.3.7-.5.2-.2.4-.3.5-.3.7-.5 1.7-1.2 3.1-2.1 1.3-.9 2.1-1.5 2.4-1.6.2-.1.3-.2.4-.4v9.1c-.2.2-.3.4-.5.6z" fill="#fff"/></svg>