<svg xmlns="http://www.w3.org/2000/svg" width="81" height="107"><defs><clipPath id="a"><path fill="#fff" d="M41.78.495c.666.063 3.582 1.395 9.972 4.554a24828.74 24828.74 0 0014.751 7.287c3.146 1.552 5.994 3.039 6.329 3.303 1.296 1.024 1.42 1.706 1.425 7.851l.005 5.575-.64.644c-.758.76-1.284.808-2.07.187l-.577-.456v-3.726c0-2.05-.025-3.725-.055-3.723-.03.001-1.337.53-2.904 1.173l-2.85 1.171-.14 1.963c-.078 1.08-.15 3.35-.16 5.045l-.018 3.082.89.66c1.337.994 5.411 5.282 6.796 7.154 11.343 15.336 10.495 36.304-2.048 50.625-6.63 7.569-16.002 12.406-26 13.42C22.083 108.555 2.345 91.797.605 69.03c-.74-9.685 2.466-20.128 8.491-27.66 1.331-1.664 4.97-5.358 6.225-6.32l1.025-.784.16-5.712c.09-3.14.126-5.744.083-5.784-.043-.04-1.667-.87-3.609-1.843-3.741-1.878-4.56-2.541-4.814-3.898-.302-1.616.362-3.062 1.733-3.775.381-.199 7.499-3.17 15.816-6.604C39.058 1.142 40.95.417 41.78.495zm-.256 3.248c-.016.014-6.809 2.81-15.097 6.216-8.287 3.404-15.068 6.252-15.068 6.328 0 .076.913.584 2.028 1.128 1.115.545 7.724 3.783 14.688 7.196l12.66 6.206 14.846-6.096c8.165-3.353 14.937-6.179 15.048-6.28.114-.104-6.192-3.36-14.437-7.454C48.14 6.99 41.539 3.73 41.524 3.743zM20.009 24.409c-.066 0-.35 8.08-.396 11.244-.032 2.239-.007 2.372.633 3.412.4.652 1.01 1.273 1.533 1.562 1.302.72 5.693 1.99 8.945 2.588 8.254 1.518 17.11 1.327 25.241-.544 2.381-.548 2.792-.725 3.807-1.647 1.334-1.21 1.515-2.058 1.663-7.81.071-2.724.182-5.473.247-6.108.083-.813.041-1.156-.142-1.156-.143 0-4.713 1.832-10.155 4.072-7.378 3.037-10.127 4.072-10.806 4.072-.745 0-2.708-.887-10.714-4.842-5.392-2.664-9.827-4.843-9.856-4.843zm-3.605 14.2c-.255-.158-3.946 3.767-5.418 5.762-3.4 4.604-5.667 9.937-6.664 15.673-.519 2.987-.616 8.309-.205 11.235 1.53 10.902 7.907 20.708 17.164 26.399 5.042 3.099 10.217 4.798 16.324 5.356 6.478.593 13.544-.813 19.524-3.885C77.136 88.871 83.387 63.247 70.363 44.9c-1.638-2.307-5.46-6.469-5.766-6.279-.109.068-.198.34-.198.605 0 .842-1.214 3.089-2.203 4.078-.525.525-1.437 1.2-2.027 1.5l-1.072.546 1.295 1.361c2.987 3.141 5.212 6.808 6.5 10.717 3.381 10.256.747 21.24-6.902 28.78-3.705 3.651-7.554 5.827-12.857 7.267-1.974.535-2.46.578-6.624.578-4.143 0-4.654-.044-6.575-.567-6.857-1.869-12.158-5.472-16.063-10.918-3.28-4.575-4.921-9.486-5.13-15.345-.28-7.84 2.448-14.884 7.947-20.525 1.537-1.576 1.933-2.099 1.66-2.19-1.198-.405-2.678-1.197-3.363-1.801-.913-.805-2.047-2.5-2.265-3.386-.082-.334-.224-.654-.316-.711zm10.734 7.258c-.7-.217-4.312 3.05-6.33 5.727-1.041 1.381-3.273 5.6-3.638 6.879l-.142.495h15.538l.258-.625c.378-.918 2.369-2.786 3.654-3.429 3.587-1.795 7.796-1.039 10.492 1.885.648.703 1.24 1.478 1.318 1.723.138.437.303.446 7.907.446 4.271 0 7.766-.025 7.766-.055 0-.238-1.027-2.675-1.629-3.867-1.449-2.872-4.212-6.275-6.54-8.052l-.825-.631-3.448.52c-3.01.454-4.242.52-9.694.52-6.334-.002-8.254-.17-12.822-1.116-.844-.175-1.683-.364-1.865-.42zm9.415 13.091c-2.429 2.44-2.214 6.239.473 8.372 1.911 1.518 4.236 1.65 6.381.362 1.891-1.135 3.106-3.724 2.68-5.708-.457-2.12-2.006-3.88-3.919-4.453-2.156-.646-4.023-.171-5.615 1.427zm-5.03 3.312h-7.548c-5.698 0-7.59.065-7.714.268-.237.386-.38 4.984-.2 6.431l.152 1.225h3.39c4.239 0 6.116.352 8.742 1.64 3.533 1.733 6.176 4.747 7.446 8.49.592 1.746.64 2.141.726 6.098l.093 4.232.8.163c1.01.206 5.142.201 6.203-.007l.801-.157.09-4.231c.081-3.878.138-4.382.684-6.04 1.21-3.676 3.937-6.795 7.485-8.564 2.511-1.251 4.445-1.606 8.805-1.616l3.325-.008.155-1.452c.175-1.645.038-5.817-.205-6.212-.119-.192-2.134-.26-7.709-.26h-7.548v.724c0 1.084-.598 3.177-1.25 4.382-1.665 3.071-5.704 5.036-9.062 4.41-2.87-.537-5.258-2.231-6.512-4.621-.668-1.274-1.149-3.049-1.149-4.246zM19.838 73.5l-2.81-.004.151.495c1.63 5.353 6.128 10.88 11.143 13.698 1.338.751 4.395 2.096 4.766 2.096.274 0 .232-5.711-.052-7.088-.897-4.356-4.481-7.945-8.855-8.87-.883-.186-2.726-.325-4.343-.327zm44.153-.004l-2.92.017c-1.61.01-3.556.156-4.343.327-4.31.934-7.852 4.522-8.745 8.857-.288 1.397-.324 7.088-.045 7.088.109 0 .883-.28 1.72-.623 6.596-2.696 12.251-8.745 14.183-15.17z"/></clipPath></defs><path fill="#fff" d="M41.78.495c.666.063 3.582 1.395 9.972 4.554a24828.74 24828.74 0 0014.751 7.287c3.146 1.552 5.994 3.039 6.329 3.303 1.296 1.024 1.42 1.706 1.425 7.851l.005 5.575-.64.644c-.758.76-1.284.808-2.07.187l-.577-.456v-3.726c0-2.05-.025-3.725-.055-3.723-.03.001-1.337.53-2.904 1.173l-2.85 1.171-.14 1.963c-.078 1.08-.15 3.35-.16 5.045l-.018 3.082.89.66c1.337.994 5.411 5.282 6.796 7.154 11.343 15.336 10.495 36.304-2.048 50.625-6.63 7.569-16.002 12.406-26 13.42C22.083 108.555 2.345 91.797.605 69.03c-.74-9.685 2.466-20.128 8.491-27.66 1.331-1.664 4.97-5.358 6.225-6.32l1.025-.784.16-5.712c.09-3.14.126-5.744.083-5.784-.043-.04-1.667-.87-3.609-1.843-3.741-1.878-4.56-2.541-4.814-3.898-.302-1.616.362-3.062 1.733-3.775.381-.199 7.499-3.17 15.816-6.604C39.058 1.142 40.95.417 41.78.495zm-.256 3.248c-.016.014-6.809 2.81-15.097 6.216-8.287 3.404-15.068 6.252-15.068 6.328 0 .076.913.584 2.028 1.128 1.115.545 7.724 3.783 14.688 7.196l12.66 6.206 14.846-6.096c8.165-3.353 14.937-6.179 15.048-6.28.114-.104-6.192-3.36-14.437-7.454C48.14 6.99 41.539 3.73 41.524 3.743zM20.009 24.409c-.066 0-.35 8.08-.396 11.244-.032 2.239-.007 2.372.633 3.412.4.652 1.01 1.273 1.533 1.562 1.302.72 5.693 1.99 8.945 2.588 8.254 1.518 17.11 1.327 25.241-.544 2.381-.548 2.792-.725 3.807-1.647 1.334-1.21 1.515-2.058 1.663-7.81.071-2.724.182-5.473.247-6.108.083-.813.041-1.156-.142-1.156-.143 0-4.713 1.832-10.155 4.072-7.378 3.037-10.127 4.072-10.806 4.072-.745 0-2.708-.887-10.714-4.842-5.392-2.664-9.827-4.843-9.856-4.843zm-3.605 14.2c-.255-.158-3.946 3.767-5.418 5.762-3.4 4.604-5.667 9.937-6.664 15.673-.519 2.987-.616 8.309-.205 11.235 1.53 10.902 7.907 20.708 17.164 26.399 5.042 3.099 10.217 4.798 16.324 5.356 6.478.593 13.544-.813 19.524-3.885C77.136 88.871 83.387 63.247 70.363 44.9c-1.638-2.307-5.46-6.469-5.766-6.279-.109.068-.198.34-.198.605 0 .842-1.214 3.089-2.203 4.078-.525.525-1.437 1.2-2.027 1.5l-1.072.546 1.295 1.361c2.987 3.141 5.212 6.808 6.5 10.717 3.381 10.256.747 21.24-6.902 28.78-3.705 3.651-7.554 5.827-12.857 7.267-1.974.535-2.46.578-6.624.578-4.143 0-4.654-.044-6.575-.567-6.857-1.869-12.158-5.472-16.063-10.918-3.28-4.575-4.921-9.486-5.13-15.345-.28-7.84 2.448-14.884 7.947-20.525 1.537-1.576 1.933-2.099 1.66-2.19-1.198-.405-2.678-1.197-3.363-1.801-.913-.805-2.047-2.5-2.265-3.386-.082-.334-.224-.654-.316-.711zm10.734 7.258c-.7-.217-4.312 3.05-6.33 5.727-1.041 1.381-3.273 5.6-3.638 6.879l-.142.495h15.538l.258-.625c.378-.918 2.369-2.786 3.654-3.429 3.587-1.795 7.796-1.039 10.492 1.885.648.703 1.24 1.478 1.318 1.723.138.437.303.446 7.907.446 4.271 0 7.766-.025 7.766-.055 0-.238-1.027-2.675-1.629-3.867-1.449-2.872-4.212-6.275-6.54-8.052l-.825-.631-3.448.52c-3.01.454-4.242.52-9.694.52-6.334-.002-8.254-.17-12.822-1.116-.844-.175-1.683-.364-1.865-.42zm9.415 13.091c-2.429 2.44-2.214 6.239.473 8.372 1.911 1.518 4.236 1.65 6.381.362 1.891-1.135 3.106-3.724 2.68-5.708-.457-2.12-2.006-3.88-3.919-4.453-2.156-.646-4.023-.171-5.615 1.427zm-5.03 3.312h-7.548c-5.698 0-7.59.065-7.714.268-.237.386-.38 4.984-.2 6.431l.152 1.225h3.39c4.239 0 6.116.352 8.742 1.64 3.533 1.733 6.176 4.747 7.446 8.49.592 1.746.64 2.141.726 6.098l.093 4.232.8.163c1.01.206 5.142.201 6.203-.007l.801-.157.09-4.231c.081-3.878.138-4.382.684-6.04 1.21-3.676 3.937-6.795 7.485-8.564 2.511-1.251 4.445-1.606 8.805-1.616l3.325-.008.155-1.452c.175-1.645.038-5.817-.205-6.212-.119-.192-2.134-.26-7.709-.26h-7.548v.724c0 1.084-.598 3.177-1.25 4.382-1.665 3.071-5.704 5.036-9.062 4.41-2.87-.537-5.258-2.231-6.512-4.621-.668-1.274-1.149-3.049-1.149-4.246zM19.838 73.5l-2.81-.004.151.495c1.63 5.353 6.128 10.88 11.143 13.698 1.338.751 4.395 2.096 4.766 2.096.274 0 .232-5.711-.052-7.088-.897-4.356-4.481-7.945-8.855-8.87-.883-.186-2.726-.325-4.343-.327zm44.153-.004l-2.92.017c-1.61.01-3.556.156-4.343.327-4.31.934-7.852 4.522-8.745 8.857-.288 1.397-.324 7.088-.045 7.088.109 0 .883-.28 1.72-.623 6.596-2.696 12.251-8.745 14.183-15.17z"/><path fill="none" stroke="#000" stroke-miterlimit="20" stroke-width="2" d="M41.78.495c.666.063 3.582 1.395 9.972 4.554a24828.74 24828.74 0 0014.751 7.287c3.146 1.552 5.994 3.039 6.329 3.303 1.296 1.024 1.42 1.706 1.425 7.851l.005 5.575-.64.644c-.758.76-1.284.808-2.07.187l-.577-.456v-3.726c0-2.05-.025-3.725-.055-3.723-.03.001-1.337.53-2.904 1.173l-2.85 1.171-.14 1.963c-.078 1.08-.15 3.35-.16 5.045l-.018 3.082.89.66c1.337.994 5.411 5.282 6.796 7.154 11.343 15.336 10.495 36.304-2.048 50.625-6.63 7.569-16.002 12.406-26 13.42C22.083 108.555 2.345 91.797.605 69.03c-.74-9.685 2.466-20.128 8.491-27.66 1.331-1.664 4.97-5.358 6.225-6.32l1.025-.784.16-5.712c.09-3.14.126-5.744.083-5.784-.043-.04-1.667-.87-3.609-1.843-3.741-1.878-4.56-2.541-4.814-3.898-.302-1.616.362-3.062 1.733-3.775.381-.199 7.499-3.17 15.816-6.604C39.058 1.142 40.95.417 41.78.495zm-.256 3.248c-.016.014-6.809 2.81-15.097 6.216-8.287 3.404-15.068 6.252-15.068 6.328 0 .076.913.584 2.028 1.128 1.115.545 7.724 3.783 14.688 7.196l12.66 6.206 14.846-6.096c8.165-3.353 14.937-6.179 15.048-6.28.114-.104-6.192-3.36-14.437-7.454C48.14 6.99 41.539 3.73 41.524 3.743zM20.009 24.409c-.066 0-.35 8.08-.396 11.244-.032 2.239-.007 2.372.633 3.412.4.652 1.01 1.273 1.533 1.562 1.302.72 5.693 1.99 8.945 2.588 8.254 1.518 17.11 1.327 25.241-.544 2.381-.548 2.792-.725 3.807-1.647 1.334-1.21 1.515-2.058 1.663-7.81.071-2.724.182-5.473.247-6.108.083-.813.041-1.156-.142-1.156-.143 0-4.713 1.832-10.155 4.072-7.378 3.037-10.127 4.072-10.806 4.072-.745 0-2.708-.887-10.714-4.842-5.392-2.664-9.827-4.843-9.856-4.843zm-3.605 14.2c-.255-.158-3.946 3.767-5.418 5.762-3.4 4.604-5.667 9.937-6.664 15.673-.519 2.987-.616 8.309-.205 11.235 1.53 10.902 7.907 20.708 17.164 26.399 5.042 3.099 10.217 4.798 16.324 5.356 6.478.593 13.544-.813 19.524-3.885C77.136 88.871 83.387 63.247 70.363 44.9c-1.638-2.307-5.46-6.469-5.766-6.279-.109.068-.198.34-.198.605 0 .842-1.214 3.089-2.203 4.078-.525.525-1.437 1.2-2.027 1.5l-1.072.546 1.295 1.361c2.987 3.141 5.212 6.808 6.5 10.717 3.381 10.256.747 21.24-6.902 28.78-3.705 3.651-7.554 5.827-12.857 7.267-1.974.535-2.46.578-6.624.578-4.143 0-4.654-.044-6.575-.567-6.857-1.869-12.158-5.472-16.063-10.918-3.28-4.575-4.921-9.486-5.13-15.345-.28-7.84 2.448-14.884 7.947-20.525 1.537-1.576 1.933-2.099 1.66-2.19-1.198-.405-2.678-1.197-3.363-1.801-.913-.805-2.047-2.5-2.265-3.386-.082-.334-.224-.654-.316-.711zm10.734 7.258c-.7-.217-4.312 3.05-6.33 5.727-1.041 1.381-3.273 5.6-3.638 6.879l-.142.495h15.538l.258-.625c.378-.918 2.369-2.786 3.654-3.429 3.587-1.795 7.796-1.039 10.492 1.885.648.703 1.24 1.478 1.318 1.723.138.437.303.446 7.907.446 4.271 0 7.766-.025 7.766-.055 0-.238-1.027-2.675-1.629-3.867-1.449-2.872-4.212-6.275-6.54-8.052l-.825-.631-3.448.52c-3.01.454-4.242.52-9.694.52-6.334-.002-8.254-.17-12.822-1.116-.844-.175-1.683-.364-1.865-.42zm9.415 13.091c-2.429 2.44-2.214 6.239.473 8.372 1.911 1.518 4.236 1.65 6.381.362 1.891-1.135 3.106-3.724 2.68-5.708-.457-2.12-2.006-3.88-3.919-4.453-2.156-.646-4.023-.171-5.615 1.427zm-5.03 3.312h-7.548c-5.698 0-7.59.065-7.714.268-.237.386-.38 4.984-.2 6.431l.152 1.225h3.39c4.239 0 6.116.352 8.742 1.64 3.533 1.733 6.176 4.747 7.446 8.49.592 1.746.64 2.141.726 6.098l.093 4.232.8.163c1.01.206 5.142.201 6.203-.007l.801-.157.09-4.231c.081-3.878.138-4.382.684-6.04 1.21-3.676 3.937-6.795 7.485-8.564 2.511-1.251 4.445-1.606 8.805-1.616l3.325-.008.155-1.452c.175-1.645.038-5.817-.205-6.212-.119-.192-2.134-.26-7.709-.26h-7.548v.724c0 1.084-.598 3.177-1.25 4.382-1.665 3.071-5.704 5.036-9.062 4.41-2.87-.537-5.258-2.231-6.512-4.621-.668-1.274-1.149-3.049-1.149-4.246zM19.838 73.5l-2.81-.004.151.495c1.63 5.353 6.128 10.88 11.143 13.698 1.338.751 4.395 2.096 4.766 2.096.274 0 .232-5.711-.052-7.088-.897-4.356-4.481-7.945-8.855-8.87-.883-.186-2.726-.325-4.343-.327zm44.153-.004l-2.92.017c-1.61.01-3.556.156-4.343.327-4.31.934-7.852 4.522-8.745 8.857-.288 1.397-.324 7.088-.045 7.088.109 0 .883-.28 1.72-.623 6.596-2.696 12.251-8.745 14.183-15.17z" clip-path="url(&quot;#a&quot;)"/></svg>