<svg width="27" height="27" fill="none" xmlns="http://www.w3.org/2000/svg"><path d="M26.65.35a1.128 1.128 0 00-1.633 0l-6.184 6.183v-4.2c0-.7-.466-1.166-1.166-1.166S16.5 1.633 16.5 2.333v7c0 .117 0 .35.117.467a1.4 1.4 0 00.583.583c.117.117.35.117.467.117h7c.7 0 1.166-.467 1.166-1.167s-.466-1.166-1.166-1.166h-4.2l6.183-6.184a1.128 1.128 0 000-1.633z" fill="#fff"/><path d="M22.333 26.717h-.35c-3.733-.467-7.466-1.75-10.616-3.734a24.53 24.53 0 01-7.35-7.35C1.917 12.483.633 8.75.283 5.017c0-.934.234-1.867.817-2.567a3.6 3.6 0 012.333-1.283h3.85c1.75 0 3.267 1.283 3.5 3.033.117 1.05.35 2.1.7 3.033.467 1.284.117 2.684-.816 3.734l-.817.816c1.4 2.1 3.15 3.967 5.367 5.367l.816-.817c.934-.933 2.45-1.283 3.734-.816.933.35 1.983.583 3.033.7 1.75.233 3.033 1.75 3.033 3.5v3.5c0 .933-.35 1.866-1.05 2.45-.7.583-1.516 1.05-2.45 1.05zM7.283 3.5h-3.5c-.35 0-.7.233-.933.467-.117.233-.233.466-.233.816.35 3.384 1.516 6.65 3.383 9.567 1.75 2.683 3.967 5.017 6.65 6.65 2.917 1.867 6.183 3.033 9.567 3.383.466 0 .7-.116.933-.35.233-.233.35-.466.35-.816v-3.5c0-.584-.467-1.05-1.05-1.167-1.167-.117-2.333-.467-3.5-.933-.467-.117-.933-.117-1.283.233l-1.517 1.517a1.24 1.24 0 01-1.4.233 19.144 19.144 0 01-7.467-7.467c-.116-.466 0-1.05.35-1.4L9.15 9.217c.233-.234.35-.817.233-1.167-.466-1.167-.7-2.333-.933-3.5 0-.583-.583-1.05-1.167-1.05z" fill="#fff"/></svg>