<svg width="45" height="45" fill="none" xmlns="http://www.w3.org/2000/svg"><path fill-rule="evenodd" clip-rule="evenodd" d="M13.605 28.644a1.411 1.411 0 011.993.1l8.523 9.417 14.65-13.258-8.523-9.417a1.411 1.411 0 112.092-1.894l9.47 10.464a1.41 1.41 0 01-.1 1.993L24.97 41.201a1.411 1.411 0 01-1.993-.1l-9.47-10.463a1.411 1.411 0 01.1-1.994z" fill="#fff"/><path fill-rule="evenodd" clip-rule="evenodd" d="M6.678 27.3a1.411 1.411 0 01.1-1.994l20.927-18.94a1.411 1.411 0 011.993.1l4.735 5.232a1.41 1.41 0 01-.1 1.993l-20.927 18.94a1.411 1.411 0 01-1.993-.1L6.678 27.3zm3.04-.848l2.84 3.14 18.836-17.046-2.841-3.14L9.717 26.452z" fill="#fff"/><path fill-rule="evenodd" clip-rule="evenodd" d="M17.241 15.836a1.411 1.411 0 011.994.1L33.439 31.63a1.411 1.411 0 01-2.092 1.895L17.142 17.83a1.411 1.411 0 01.1-1.993z" fill="#fff"/><path fill-rule="evenodd" clip-rule="evenodd" d="M9.692 16.959a2.117 2.117 0 002.84 3.139l3.3-2.987a11.57 11.57 0 00-1.453-.622c-1.74-.601-3.438-.66-4.687.47zm8.496-.076l.84-1.134-.004-.003-.006-.005-.018-.013a8.654 8.654 0 00-.282-.195 14.04 14.04 0 00-.779-.486A15.092 15.092 0 0015.3 13.82c-2.065-.713-5.09-1.139-7.502 1.045a4.94 4.94 0 106.628 7.325l4.71-4.262a1.411 1.411 0 00-.108-2.18l-.84 1.134z" fill="#fff"/><path fill-rule="evenodd" clip-rule="evenodd" d="M15.428 13.705c-.504-2.126-.626-5.178 1.787-7.362a4.94 4.94 0 116.629 7.325l-4.709 4.261a1.411 1.411 0 01-2.159-.323l1.212-.723c-1.212.723-1.211.724-1.212.723v-.002l-.002-.002-.004-.007-.012-.02a7.687 7.687 0 01-.166-.3 14.919 14.919 0 01-.406-.822 15.095 15.095 0 01-.958-2.748zm3.222.857l3.3-2.987a2.117 2.117 0 10-2.841-3.14c-1.25 1.132-1.359 2.826-.934 4.619.129.544.3 1.058.475 1.508zm.751 1.6z" fill="#fff"/></svg>