<svg xmlns="http://www.w3.org/2000/svg" width="20" height="20"><path d="M3.435 17.813a.625.625 0 01-.625-.625V2.578A2.581 2.581 0 015.388 0H16.56c.345 0 .625.28.625.625V15a.625.625 0 11-1.25 0V1.25H5.388A1.33 1.33 0 004.06 2.578v14.61c0 .345-.28.625-.625.625z"/><path d="M16.56 20.005H5.622a2.816 2.816 0 01-2.812-2.813 2.816 2.816 0 012.812-2.812H16.56a.625.625 0 110 1.25H5.622a1.563 1.563 0 000 3.125H16.56a.625.625 0 110 1.25z"/><path d="M16.563 17.81H5.624a.625.625 0 010-1.25h10.938a.625.625 0 110 1.25zM6.255 15.625A.625.625 0 015.63 15V.625a.625.625 0 011.25 0V15c0 .345-.28.625-.625.625z"/></svg>