<svg width="21" height="21" fill="none" xmlns="http://www.w3.org/2000/svg"><path d="M10.5 0C16.282 0 21 4.719 21 10.5 21 16.282 16.281 21 10.5 21 4.718 21 0 16.281 0 10.5 0 4.718 4.719 0 10.5 0zm0 19.77c5.111 0 9.27-4.159 9.27-9.27s-4.16-9.27-9.27-9.27-9.27 4.16-9.27 9.27 4.159 9.27 9.27 9.27z" fill="#fff"/><path d="M10.5 2.46c4.402 0 8.04 3.612 8.04 8.04 0 4.41-3.62 8.04-8.04 8.04-4.415 0-8.04-3.624-8.04-8.04 0-4.433 3.642-8.04 8.04-8.04zm0 1.231a6.815 6.815 0 00-6.032 3.654C5.99 6.78 8.136 6.193 10.5 6.193s4.511.587 6.032 1.152A6.815 6.815 0 0010.5 3.691zm6.455 8.975l-.52.074a4.377 4.377 0 00-3.695 3.696l-.074.52a6.841 6.841 0 004.29-4.29zm-8.621 4.29l-.074-.52a4.377 4.377 0 00-3.696-3.696l-.52-.074a6.841 6.841 0 004.29 4.29zm-3.596-5.434a5.614 5.614 0 014.74 4.74l.141.99a6.846 6.846 0 001.762 0l.141-.99a5.614 5.614 0 014.74-4.74l.99-.141a6.847 6.847 0 00-.131-2.47c-1.367-.604-3.84-1.487-6.621-1.487-2.782 0-5.254.883-6.621 1.487a6.802 6.802 0 00-.13 2.47l.99.141z" fill="#fff"/><path d="M10.5 8.654c1.018 0 1.846.828 1.846 1.846a1.848 1.848 0 01-1.846 1.846A1.848 1.848 0 018.654 10.5c0-1.018.828-1.846 1.846-1.846zm0 2.461a.616.616 0 10-.001-1.232.616.616 0 00.001 1.232z" fill="#fff"/></svg>