<svg width="20" height="20" fill="none" xmlns="http://www.w3.org/2000/svg"><path d="M3.438 17.813a.625.625 0 01-.626-.625V2.578A2.581 2.581 0 015.392 0h11.171c.346 0 .625.28.625.625V15a.625.625 0 11-1.25 0V1.25H5.392a1.33 1.33 0 00-1.329 1.328v14.61c0 .345-.28.625-.625.625z" fill="#fff"/><path d="M16.563 20H5.624a2.816 2.816 0 01-2.813-2.813 2.816 2.816 0 012.813-2.812h10.938a.625.625 0 110 1.25H5.624c-.862 0-1.563.7-1.563 1.563 0 .861.701 1.562 1.563 1.562h10.938a.625.625 0 110 1.25z" fill="#fff"/><path d="M16.563 17.813H5.624a.625.625 0 110-1.25h10.938a.625.625 0 110 1.25zM6.25 15.625A.625.625 0 015.625 15V.625a.625.625 0 111.25 0V15c0 .345-.28.625-.625.625z" fill="#fff"/></svg>