<svg xmlns="http://www.w3.org/2000/svg" width="15" height="15"><path fill="#fff" d="M12.728.47c.992 0 1.805.735 1.805 1.805v10.453c0 1.07-.813 1.805-1.805 1.805H2.275c-.993 0-1.805-.735-1.805-1.805V2.275C.47 1.205 1.282.47 2.275.47zm-2.014 1.562a.635.635 0 00-.633.634V4.18c0 .348.285.633.633.633h1.59a.635.635 0 00.633-.633V2.666a.635.635 0 00-.634-.634zm.992 4.385c.117.382.18.787.18 1.206 0 2.34-1.957 4.235-4.371 4.235-2.414 0-4.371-1.896-4.371-4.235 0-.419.063-.824.18-1.206H2.033v5.94a.56.56 0 00.559.56h9.792a.56.56 0 00.56-.56v-5.94zM7.515 4.734c-1.56 0-2.825 1.225-2.825 2.737 0 1.511 1.265 2.736 2.825 2.736 1.56 0 2.824-1.225 2.824-2.736 0-1.512-1.265-2.737-2.824-2.737z"/></svg>