<svg width="60" height="60" fill="none" xmlns="http://www.w3.org/2000/svg"><path d="M51.332 23.837l1.417-.486C49.871 13.571 40.71 6.281 30 6.281c-10.708 0-19.87 7.29-22.75 17.07l1.418.486a.994.994 0 01.508-.548h0c4.787-2.215 12.372-4.844 20.824-4.844 8.452 0 16.037 2.629 20.824 4.844h0c.238.11.413.306.508.548zM8.21 34.333l-1.46.341c1.853 9.182 9.181 16.512 18.317 18.471l.46-1.42a.994.994 0 01-.599-.765v-.001l-.586-4.22v-.003c-.815-5.708-5.37-10.263-11.078-11.077h-.002l-4.221-.587H9.04a1.007 1.007 0 01-.83-.74zm26.263 17.393l.46 1.42c9.136-1.96 16.464-9.29 18.317-18.472l-1.46-.341c-.102.38-.42.68-.83.738h-.001l-4.22.587h-.003c-5.708.815-10.263 5.37-11.077 11.078v.002l-.587 4.22v.001a.994.994 0 01-.599.767zM.75 30C.75 13.937 13.937.75 30 .75 46.063.75 59.25 13.937 59.25 30c0 16.063-13.187 29.25-29.25 29.25C13.937 59.25.75 46.063.75 30zm23.227 0A6.03 6.03 0 0030 36.023 6.03 6.03 0 0036.023 30 6.03 6.03 0 0030 23.977 6.03 6.03 0 0023.977 30z" stroke="#1D873A" stroke-width="1.5"/></svg>