<svg xmlns="http://www.w3.org/2000/svg" width="100" height="99"><defs><clipPath id="a"><path fill="#fff" d="M27.424 0h44.852l.05 8.818.05 8.817 1.547.52c2.96.996 5.414 2.747 7.079 5.051.498.69 4.83 8.061 9.627 16.381l8.721 15.127V99H73.246V84.498H26.454V99H.35V54.715l8.722-15.128c4.797-8.32 9.129-15.691 9.627-16.38 1.662-2.304 4.117-4.055 7.078-5.051l1.547-.52.05-8.818zM41.15 5.8h-7.93v11.602h7.928zm25.33 0H46.95v11.602h19.53zM49.76 23.217c-22.49.014-21.687-.023-23.737 1.092-1.994 1.086-2.637 2.045-10.403 15.524L8.324 52.497l20.763.05c11.42.026 30.107.026 41.526 0l20.764-.05-7.299-12.665c-7.762-13.469-8.412-14.44-10.396-15.52-.522-.284-1.46-.65-2.086-.812-.99-.258-3.836-.295-21.835-.284zM21.91 58.405l-7.88-.005-7.88-.005v8.7h20.72l-.74-1.315a785.181 785.181 0 00-2.48-4.345zm49.226-.01H28.564l.477.821 2.496 4.303 2.02 3.48h32.587l2.02-3.48 2.495-4.303zm22.413 0l-7.88.001-7.879.002-1.74 3.036a962.07 962.07 0 00-2.48 4.349l-.74 1.313h20.72zm0 14.502H6.151v5.8h87.398zM20.653 84.498H6.15v8.701h14.502zm72.896 0H79.047v8.701H93.55z"/></clipPath></defs><path fill="#fff" d="M27.424 0h44.852l.05 8.818.05 8.817 1.547.52c2.96.996 5.414 2.747 7.079 5.051.498.69 4.83 8.061 9.627 16.381l8.721 15.127V99H73.246V84.498H26.454V99H.35V54.715l8.722-15.128c4.797-8.32 9.129-15.691 9.627-16.38 1.662-2.304 4.117-4.055 7.078-5.051l1.547-.52.05-8.818zM41.15 5.8h-7.93v11.602h7.928zm25.33 0H46.95v11.602h19.53zM49.76 23.217c-22.49.014-21.687-.023-23.737 1.092-1.994 1.086-2.637 2.045-10.403 15.524L8.324 52.497l20.763.05c11.42.026 30.107.026 41.526 0l20.764-.05-7.299-12.665c-7.762-13.469-8.412-14.44-10.396-15.52-.522-.284-1.46-.65-2.086-.812-.99-.258-3.836-.295-21.835-.284zM21.91 58.405l-7.88-.005-7.88-.005v8.7h20.72l-.74-1.315a785.181 785.181 0 00-2.48-4.345zm49.226-.01H28.564l.477.821 2.496 4.303 2.02 3.48h32.587l2.02-3.48 2.495-4.303zm22.413 0l-7.88.001-7.879.002-1.74 3.036a962.07 962.07 0 00-2.48 4.349l-.74 1.313h20.72zm0 14.502H6.151v5.8h87.398zM20.653 84.498H6.15v8.701h14.502zm72.896 0H79.047v8.701H93.55z"/><path fill="none" stroke="#212121" stroke-miterlimit="20" stroke-width="4" d="M27.424 0h44.852l.05 8.818.05 8.817 1.547.52c2.96.996 5.414 2.747 7.079 5.051.498.69 4.83 8.061 9.627 16.381l8.721 15.127V99H73.246V84.498H26.454V99H.35V54.715l8.722-15.128c4.797-8.32 9.129-15.691 9.627-16.38 1.662-2.304 4.117-4.055 7.078-5.051l1.547-.52.05-8.818zM41.15 5.8h-7.93v11.602h7.928zm25.33 0H46.95v11.602h19.53zM49.76 23.217c-22.49.014-21.687-.023-23.737 1.092-1.994 1.086-2.637 2.045-10.403 15.524L8.324 52.497l20.763.05c11.42.026 30.107.026 41.526 0l20.764-.05-7.299-12.665c-7.762-13.469-8.412-14.44-10.396-15.52-.522-.284-1.46-.65-2.086-.812-.99-.258-3.836-.295-21.835-.284zM21.91 58.405l-7.88-.005-7.88-.005v8.7h20.72l-.74-1.315a785.181 785.181 0 00-2.48-4.345zm49.226-.01H28.564l.477.821 2.496 4.303 2.02 3.48h32.587l2.02-3.48 2.495-4.303zm22.413 0l-7.88.001-7.879.002-1.74 3.036a962.07 962.07 0 00-2.48 4.349l-.74 1.313h20.72zm0 14.502H6.151v5.8h87.398zM20.653 84.498H6.15v8.701h14.502zm72.896 0H79.047v8.701H93.55z" clip-path="url(&quot;#a&quot;)"/></svg>