<svg xmlns="http://www.w3.org/2000/svg" width="85" height="123"><defs><clipPath id="a"><path fill="#fff" d="M0 20L78 0v98L7 122.949 0 118z"/></clipPath><clipPath id="b"><path fill="#fff" d="M7 25L85 5v98L7 123z"/></clipPath><clipPath id="c"><path fill="#fff" d="M0 20L78 0v98L7 122.949 0 118z"/></clipPath><clipPath id="d"><path fill="#fff" d="M7 25L85 5v98L7 123z"/></clipPath></defs><path fill="none" stroke="#fff" stroke-miterlimit="20" stroke-width="3" d="M0 20v0L78 0v98L7 122.949v0L0 118v0z" clip-path="url(&quot;#a&quot;)"/><path fill="#212121" d="M7 25L85 5v98L7 123z"/><path fill="none" stroke="#fff" stroke-miterlimit="20" stroke-width="3" d="M7 25v0L85 5v98L7 123v0z" clip-path="url(&quot;#b&quot;)"/><path fill="#fff" d="M39.696 45.85a.912.912 0 010 .919l-4.315 7.458c-.165.287-.47.433-.801.433h-3.075v9.94a.925.925 0 11-1.852 0v-9.94h-3.702c-.331 0-.637-.142-.802-.428l-4.315-7.439a.907.907 0 010-.915l4.315-7.454c.165-.286.47-.424.802-.424h8.629c.33 0 .636.134.801.42l4.315 7.43zm-1.87.48l-3.78-6.479h-7.561l-3.78 6.478 3.78 6.48h7.56zm11.145 7.867c-2.585-1.842-5.259-3.747-5.372-5.568-.049-.787.393-1.597 1.352-2.477 1.443-1.325 3.17-2.275 5-3.28.91-.5 1.851-1.017 2.75-1.584a.925.925 0 00-.986-1.566c-.853.537-1.77 1.04-2.656 1.528-1.845 1.014-3.752 2.062-5.36 3.539-1.377 1.264-2.031 2.595-1.947 3.955.168 2.702 3.207 4.867 6.146 6.96 2.812 2.004 5.718 4.075 5.397 6.075-1.573 9.763-14.549 14.928-23.134 18.346-1.522.606-2.96 1.178-4.178 1.713a.926.926 0 00.745 1.694c1.188-.521 2.612-1.088 4.117-1.687 8.975-3.573 22.537-8.972 24.277-19.772.504-3.135-2.879-5.545-6.15-7.876z"/><path fill="#fff" d="M69.78 59.93c-2.93-3.747-6.213-6.032-8.611-7.7-2.18-1.517-3.758-2.614-3.825-3.827-.071-1.29 1.433-3.235 4.735-6.121a.926.926 0 00-1.218-1.394c-3.92 3.426-5.475 5.634-5.365 7.617.117 2.114 2.103 3.496 4.616 5.245 2.429 1.69 5.452 3.793 8.209 7.32 5.37 6.871-9.914 21.118-14.938 25.799-.769.718-1.326 1.236-1.645 1.568a.926.926 0 001.334 1.283c.295-.307.845-.818 1.574-1.497 5.893-5.493 21.55-20.085 15.134-28.292z"/><path fill="#fff" d="M52.438 75.086a.925.925 0 00-1.307-.068l-9.255 8.33a.926.926 0 001.238 1.375l9.255-8.33a.926.926 0 00.07-1.307z"/><path fill="none" stroke="#fff" stroke-miterlimit="20" stroke-width="3" d="M0 20v0L78 0v98L7 122.949v0L0 118v0z" clip-path="url(&quot;#c&quot;)"/><path fill="#212121" d="M7 25L85 5v98L7 123z"/><path fill="none" stroke="#fff" stroke-miterlimit="20" stroke-width="3" d="M7 25v0L85 5v98L7 123v0z" clip-path="url(&quot;#d&quot;)"/><g fill="#fff"><path d="M39.696 45.85a.912.912 0 010 .919l-4.315 7.458c-.165.287-.47.433-.801.433h-3.075v9.94a.925.925 0 11-1.852 0v-9.94h-3.702c-.331 0-.637-.142-.802-.428l-4.315-7.439a.907.907 0 010-.915l4.315-7.454c.165-.286.47-.424.802-.424h8.629c.33 0 .636.134.801.42l4.315 7.43zm-1.87.48l-3.78-6.479h-7.561l-3.78 6.478 3.78 6.48h7.56zm11.145 7.867c-2.585-1.842-5.259-3.747-5.372-5.568-.049-.787.393-1.597 1.352-2.477 1.443-1.325 3.17-2.275 5-3.28.91-.5 1.851-1.017 2.75-1.584a.925.925 0 00-.986-1.566c-.853.537-1.77 1.04-2.656 1.528-1.845 1.014-3.752 2.062-5.36 3.539-1.377 1.264-2.031 2.595-1.947 3.955.168 2.702 3.207 4.867 6.146 6.96 2.812 2.004 5.718 4.075 5.397 6.075-1.573 9.763-14.549 14.928-23.134 18.346-1.522.606-2.96 1.178-4.178 1.713a.926.926 0 00.745 1.694c1.188-.521 2.612-1.088 4.117-1.687 8.975-3.573 22.537-8.972 24.277-19.772.504-3.135-2.879-5.545-6.15-7.876z"/><path d="M69.78 59.93c-2.93-3.747-6.213-6.032-8.611-7.7-2.18-1.517-3.758-2.614-3.825-3.827-.071-1.29 1.433-3.235 4.735-6.121a.926.926 0 00-1.218-1.394c-3.92 3.426-5.475 5.634-5.365 7.617.117 2.114 2.103 3.496 4.616 5.245 2.429 1.69 5.452 3.793 8.209 7.32 5.37 6.871-9.914 21.118-14.938 25.799-.769.718-1.326 1.236-1.645 1.568a.926.926 0 001.334 1.283c.295-.307.845-.818 1.574-1.497 5.893-5.493 21.55-20.085 15.134-28.292z"/><path d="M52.438 75.086a.925.925 0 00-1.307-.068l-9.255 8.33a.926.926 0 001.238 1.375l9.255-8.33a.926.926 0 00.07-1.307z"/></g></svg>