<svg width="19" height="13" fill="none" xmlns="http://www.w3.org/2000/svg"><path d="M18.5 1.538a8.103 8.103 0 01-2.12.517c.762-.406 1.346-1.05 1.623-1.815a8.029 8.029 0 01-2.347.797C14.983.398 14.024 0 12.961 0 10.922 0 9.27 1.47 9.27 3.282c0 .257.032.508.095.748C6.296 3.893 3.575 2.586 1.754.6a2.987 2.987 0 00-.5 1.65c0 1.14.653 2.144 1.643 2.732a4.05 4.05 0 01-1.673-.412v.041c0 1.59 1.274 2.918 2.962 3.22a4.18 4.18 0 01-.973.115c-.238 0-.47-.021-.695-.061.47 1.305 1.833 2.254 3.448 2.28-1.263.88-2.855 1.403-4.585 1.403-.298 0-.592-.016-.881-.045A11.401 11.401 0 006.16 13c6.793 0 10.506-5.002 10.506-9.34l-.013-.426A6.984 6.984 0 0018.5 1.538z" fill="#101311"/></svg>