<svg xmlns="http://www.w3.org/2000/svg" width="18" height="14"><path fill="#fff" d="M17.595 2.377a7.366 7.366 0 01-1.988.504 3.27 3.27 0 001.522-1.767 7.34 7.34 0 01-2.2.776A3.591 3.591 0 0012.403.88C10.49.88 8.94 2.311 8.94 4.075c0 .25.03.495.09.729-2.877-.134-5.428-1.406-7.135-3.34a2.988 2.988 0 00-.468 1.607c0 1.109.611 2.087 1.54 2.66a3.683 3.683 0 01-1.569-.402v.04c0 1.548 1.194 2.84 2.777 3.135a3.78 3.78 0 01-.913.112c-.223 0-.44-.02-.651-.06.44 1.27 1.719 2.195 3.233 2.22a7.32 7.32 0 01-4.3 1.366 7.97 7.97 0 01-.825-.044 10.383 10.383 0 005.306 1.438c6.368 0 9.85-4.87 9.85-9.093l-.013-.414a6.646 6.646 0 001.732-1.652z"/></svg>