<svg width="18" height="12" fill="none" xmlns="http://www.w3.org/2000/svg"><path d="M17.298 1.03C16.648.298 15.45 0 13.158 0H4.842C2.498 0 1.278.318.632 1.097 0 1.857 0 2.975 0 4.524v2.952C0 10.476.749 12 4.842 12h8.316c1.987 0 3.088-.263 3.8-.91.73-.66 1.042-1.741 1.042-3.613V4.524c0-1.633-.049-2.759-.702-3.494zm-5.742 5.378L7.78 8.278a.606.606 0 01-.57-.018.545.545 0 01-.28-.47V4.062c0-.192.106-.37.28-.47a.607.607 0 01.568-.018l3.777 1.858a.547.547 0 01.313.487c0 .205-.12.394-.312.489z" fill="#101311"/></svg>